<svg width="198" height="98" viewBox="0 0 198 98" fill="none" xmlns="http://www.w3.org/2000/svg">
<path d="M190.568 66.1765C191.152 65.2035 191.612 64.1445 191.921 63.0145L195.062 51.9635C195.148 51.6635 195.217 51.3585 195.272 51.0515L197.19 40.3095C198.575 32.5535 193.392 25.1175 185.636 23.7325C180.277 22.7755 175.07 24.9545 171.907 28.9525C168.077 24.0625 161.583 20.3125 153.536 18.8755C145.302 17.4055 137.468 18.9435 131.172 23.1185C128.877 18.0205 124.189 14.1015 118.282 13.0465C112.012 11.9265 105.732 14.2695 101.77 18.9665C101.242 19.1655 100.724 19.3885 100.219 19.6355C98.2816 13.3295 92.9386 8.52148 86.2786 7.33148C80.4246 6.28648 74.6156 8.21347 70.5726 12.2015C66.1966 6.18647 59.4246 2.06947 50.9616 0.558469C40.7676 -1.26153 31.2656 1.41248 24.5306 7.91348C21.8536 9.20148 19.4306 10.8905 17.2916 12.9605C8.62756 17.1545 2.61556 25.6675 0.652564 36.6625C-2.70944 55.4915 7.13757 70.3045 25.1546 73.5215C33.1386 74.9475 40.4896 73.7295 46.5406 70.0825C48.3766 74.4905 52.3566 77.9125 57.4106 78.8145C60.9876 79.4535 64.4986 78.7105 67.3926 76.9705C69.6146 79.6545 72.7546 81.5535 76.3526 82.1965C79.9746 82.8435 83.6016 82.1345 86.6206 80.3715C88.7666 83.0325 91.8416 84.9625 95.4646 85.6095C100.357 86.4835 105.124 84.8345 108.416 81.6005C112.441 86.6955 118.316 90.1565 125.525 91.4435C129.342 92.1255 132.82 92.0945 135.998 91.3395C137.698 92.6115 139.747 93.5165 142.06 93.9295C145.495 94.5425 148.758 93.9455 151.45 92.4215C153.467 94.4855 156.111 95.9715 159.162 96.5165L160.746 96.7995C166.203 97.7735 171.505 95.4965 174.67 91.3555C177.538 90.4735 180.075 88.7055 181.9 86.3165C186.89 84.7825 190.878 80.5635 191.86 75.0635C192.42 71.9205 191.892 68.8365 190.568 66.1765Z" fill="white"/>
<path d="M34.8796 19.8327C48.0546 22.1857 54.2256 32.3887 51.8326 45.7887C49.4306 59.2447 39.9396 66.6517 26.8226 64.3087C13.6486 61.9567 7.47761 51.7527 9.88061 38.2967C12.2626 24.9537 21.7636 17.4907 34.8796 19.8327ZM28.4136 55.7257C33.8416 56.6947 38.6856 53.4167 40.4116 43.7477C42.1386 34.0797 38.7176 29.3857 33.2896 28.4157C27.8616 27.4467 23.0276 30.6677 21.3006 40.3357C19.5746 50.0037 22.9856 54.7557 28.4136 55.7257Z" fill="#00FDFB" stroke="black" stroke-miterlimit="10"/>
<path d="M60.2707 33.5257C61.0987 28.8887 65.5627 25.7777 70.1997 26.6057C73.8747 27.2617 76.5707 30.1347 77.1157 33.6157L80.4417 53.8717C80.6787 55.4887 80.7857 56.8507 80.7827 57.8427V59.4767L81.1217 59.5377L81.6867 58.0047C82.0847 57.0837 82.5897 55.8907 83.4377 54.4077L93.6077 36.3287C95.2377 33.4117 98.6947 31.6946 102.2 32.3206C106.61 33.1076 109.582 37.3727 108.795 41.7827L103.383 72.0887C102.868 74.9717 100.07 76.9227 97.1297 76.3977C94.2457 75.8827 92.2947 73.0847 92.8097 70.2017L97.1007 46.1727L96.7617 46.1117L95.8957 48.3487C95.3607 49.7107 94.5297 51.4297 93.5837 53.1277L84.0107 70.1467C82.8917 72.1647 80.4507 73.4187 78.0187 72.9857C75.5317 72.5417 73.7317 70.5287 73.3817 68.2487L70.2327 48.9586C69.9337 47.0386 69.7587 45.0817 69.7177 43.6747C69.6887 42.8537 69.6607 42.0307 69.6787 41.2767L69.3397 41.2157L65.0087 65.4707C64.5137 68.2427 61.8487 70.0986 59.0777 69.6046C56.2507 69.0996 54.3927 66.4347 54.8887 63.6647L60.2707 33.5257Z" fill="#00FDFB" stroke="black" stroke-miterlimit="10"/>
<path d="M137.455 38.1486C145.277 39.5446 152.883 44.5406 151.816 50.5136C151.332 53.2276 149.263 55.0166 146.605 54.5416C140.736 53.4936 143.738 47.7286 135.991 46.3456C130.62 45.3866 125.381 48.5936 123.614 58.4886C121.837 68.4396 125.68 73.3846 130.881 74.3136C136.818 75.3736 140.371 71.8066 141.128 67.5666L141.209 67.1156L135.33 66.0646C133.295 65.7016 131.9 63.7016 132.274 61.6096C132.637 59.5746 134.637 58.1816 136.672 58.5456L147.641 60.5046C150.75 61.0596 152.144 63.0586 151.588 66.1686L148.913 81.1506C148.378 84.1466 146.156 85.1496 143.725 84.7156C141.576 84.3316 139.612 82.5926 140.149 79.5846L140.28 78.8496L139.715 78.7486C136.649 81.8776 133.128 83.2906 127.192 82.2306C116.167 80.2616 109.803 71.1336 112.297 57.1676C114.852 42.8626 125.073 35.9376 137.455 38.1486Z" fill="#00FDFB" stroke="black" stroke-miterlimit="10"/>
<path d="M162.596 77.4099L164.179 77.6919C166.893 78.1769 168.705 80.7759 168.221 83.4889C167.726 86.2599 165.127 88.0719 162.413 87.5869L160.83 87.3049C158.116 86.8209 156.305 84.2209 156.789 81.5069C157.283 78.7369 159.882 76.9249 162.596 77.4099ZM163.826 46.9989C164.301 44.3419 166.898 42.5289 169.556 43.0039C172.213 43.4789 174.024 46.0779 173.549 48.7359L171.631 59.4789L168.492 70.5279C167.989 72.3639 166.076 73.5969 164.155 73.2549C162.175 72.9019 160.81 71.0809 160.982 69.1279L161.908 57.7429L163.826 46.9989Z" fill="#00FDFB" stroke="black" stroke-miterlimit="10"/>
<path d="M42.1106 14.7935C55.2856 17.1455 61.4566 27.3485 59.0636 40.7485C56.6606 54.2045 47.1706 61.6115 34.0536 59.2695C20.8796 56.9165 14.7086 46.7135 17.1116 33.2575C19.4936 19.9135 28.9946 12.4505 42.1106 14.7935ZM35.6446 50.6855C41.0726 51.6545 45.9166 48.3765 47.6426 38.7085C49.3696 29.0395 45.9486 24.3455 40.5206 23.3755C35.0926 22.4065 30.2576 25.6275 28.5316 35.2955C26.8056 44.9645 30.2166 49.7165 35.6446 50.6855Z" fill="#FC25B1" stroke="black" stroke-miterlimit="10"/>
<path d="M67.5016 28.4856C68.3296 23.8486 72.7926 20.7376 77.4296 21.5656C81.1046 22.2216 83.8016 25.0946 84.3466 28.5766L87.6716 48.8316C87.9076 50.4496 88.0156 51.8106 88.0126 52.8026V54.4366L88.3516 54.4966L88.9166 52.9636C89.3136 52.0426 89.8186 50.8496 90.6676 49.3666L100.838 31.2876C102.468 28.3716 105.925 26.6536 109.43 27.2796C113.84 28.0666 116.812 32.3326 116.025 36.7416L110.613 67.0476C110.098 69.9316 107.3 71.8816 104.36 71.3566C101.476 70.8416 99.5246 68.0426 100.04 65.1606L104.33 41.1316L103.991 41.0706L103.126 43.3076C102.591 44.6706 101.759 46.3886 100.813 48.0866L91.2396 65.1066C90.1206 67.1236 87.6796 68.3796 85.2486 67.9446C82.7606 67.5006 80.9616 65.4876 80.6106 63.2086L77.4626 43.9186C77.1636 41.9976 76.9876 40.0406 76.9476 38.6346C76.9186 37.8126 76.8906 36.9896 76.9076 36.2366L76.5686 36.1756L72.2376 60.4306C71.7426 63.2016 69.0776 65.0596 66.3076 64.5646C63.4806 64.0596 61.6226 61.3946 62.1176 58.6246L67.5016 28.4856Z" fill="#FC25B1" stroke="black" stroke-miterlimit="10"/>
<path d="M144.687 33.1086C152.508 34.5056 160.115 39.5006 159.048 45.4736C158.564 48.1876 156.494 49.9766 153.837 49.5016C147.968 48.4536 150.97 42.6886 143.223 41.3056C137.852 40.3466 132.612 43.5536 130.845 53.4486C129.068 63.3986 132.911 68.3456 138.113 69.2746C144.05 70.3346 147.603 66.7666 148.36 62.5266L148.441 62.0746L142.561 61.0246C140.526 60.6616 139.132 58.6616 139.506 56.5696C139.87 54.5346 141.869 53.1416 143.904 53.5056L154.874 55.4646C157.982 56.0196 159.377 58.0186 158.821 61.1286L156.146 76.1106C155.611 79.1076 153.389 80.1106 150.957 79.6756C148.809 79.2916 146.845 77.5526 147.382 74.5456L147.513 73.8106L146.948 73.7086C143.88 76.8376 140.36 78.2506 134.425 77.1906C123.399 75.2216 117.036 66.0936 119.53 52.1276C122.083 37.8226 132.305 30.8976 144.687 33.1086Z" fill="#FC25B1" stroke="black" stroke-miterlimit="10"/>
<path d="M169.826 72.3693L171.41 72.6523C174.124 73.1363 175.935 75.7363 175.451 78.4493C174.956 81.2203 172.357 83.0313 169.643 82.5473L168.059 82.2643C165.345 81.7803 163.535 79.1803 164.02 76.4663C164.514 73.6963 167.112 71.8843 169.826 72.3693ZM171.056 41.9593C171.531 39.3023 174.129 37.4903 176.788 37.9653C179.445 38.4393 181.256 41.0383 180.781 43.6953L178.863 54.4383L175.723 65.4873C175.221 67.3233 173.308 68.5563 171.387 68.2133C169.407 67.8603 168.04 66.0413 168.214 64.0883L169.138 52.7023L171.056 41.9593Z" fill="#FC25B1" stroke="black" stroke-miterlimit="10"/>
<path d="M49.3415 9.75364C62.5155 12.1056 68.6865 22.3086 66.2935 35.7086C63.8905 49.1646 54.4005 56.5716 41.2835 54.2296C28.1085 51.8776 21.9385 41.6727 24.3405 28.2167C26.7245 14.8747 36.2255 7.41164 49.3415 9.75364ZM42.8755 45.6456C48.3035 46.6156 53.1465 43.3376 54.8735 33.6696C56.6005 24.0016 53.1795 19.3066 47.7515 18.3366C42.3235 17.3676 37.4885 20.5886 35.7625 30.2576C34.0365 39.9256 37.4475 44.6766 42.8755 45.6456Z" fill="#FFFE04" stroke="black" stroke-miterlimit="10"/>
<path d="M74.7315 23.4465C75.5595 18.8105 80.0235 15.6985 84.6605 16.5265C88.3355 17.1825 91.0325 20.0555 91.5775 23.5375L94.9025 43.7925C95.1395 45.4105 95.2465 46.7725 95.2445 47.7635V49.3965L95.5835 49.4575L96.1485 47.9265C96.5465 47.0055 97.0505 45.8115 97.9005 44.3285L108.071 26.2505C109.701 23.3335 113.158 21.6165 116.663 22.2415C121.073 23.0295 124.043 27.2945 123.256 31.7045L117.845 62.0095C117.33 64.8935 114.532 66.8445 111.592 66.3205C108.708 65.8045 106.758 63.0055 107.273 60.1225L111.564 36.0935L111.224 36.0325L110.359 38.2695C109.824 39.6325 108.991 41.3505 108.047 43.0485L98.4745 60.0675C97.3555 62.0845 94.9135 63.3415 92.4825 62.9075C89.9945 62.4635 88.1955 60.4495 87.8445 58.1705L84.6965 38.8795C84.3975 36.9595 84.2225 35.0025 84.1815 33.5965C84.1525 32.7745 84.1245 31.9515 84.1425 31.1975L83.8025 31.1365L79.4715 55.3925C78.9775 58.1635 76.3125 60.0215 73.5415 59.5265C70.7145 59.0215 68.8575 56.3555 69.3515 53.5855L74.7315 23.4465Z" fill="#FFFE04" stroke="black" stroke-miterlimit="10"/>
<path d="M151.918 28.0695C159.739 29.4655 167.346 34.4615 166.28 40.4355C165.795 43.1485 163.725 44.9375 161.067 44.4625C155.198 43.4145 158.2 37.6495 150.454 36.2675C145.083 35.3075 139.843 38.5145 138.076 48.4095C136.299 58.3605 140.142 63.3055 145.344 64.2345C151.28 65.2955 154.834 61.7285 155.591 57.4885L155.672 57.0365L149.792 55.9865C147.757 55.6225 146.363 53.6235 146.736 51.5315C147.1 49.4965 149.1 48.1025 151.135 48.4665L162.104 50.4245C165.213 50.9805 166.607 52.9785 166.052 56.0885L163.376 71.0705C162.841 74.0675 160.619 75.0715 158.188 74.6375C156.04 74.2535 154.075 72.5125 154.612 69.5055L154.743 68.7705L154.178 68.6695C151.111 71.7975 147.591 73.2105 141.655 72.1515C130.63 70.1825 124.267 61.0535 126.76 47.0875C129.314 32.7845 139.535 25.8585 151.918 28.0695Z" fill="#FFFE04" stroke="black" stroke-miterlimit="10"/>
<path d="M177.057 67.3308L178.64 67.6138C181.354 68.0978 183.166 70.6968 182.682 73.4118C182.187 76.1818 179.588 77.9928 176.874 77.5088L175.291 77.2258C172.577 76.7418 170.767 74.1428 171.251 71.4288C171.745 68.6578 174.343 66.8458 177.057 67.3308ZM178.287 36.9198C178.762 34.2628 181.359 32.4508 184.017 32.9258C186.674 33.4008 188.486 35.9988 188.011 38.6558L186.093 49.3988L182.953 60.4478C182.451 62.2838 180.538 63.5168 178.616 63.1748C176.636 62.8218 175.27 61.0018 175.443 59.0498L176.368 47.6628L178.287 36.9198Z" fill="#FFFE04" stroke="black" stroke-miterlimit="10"/>
</svg>
