<svg width="189" height="100" viewBox="0 0 189 100" fill="none" xmlns="http://www.w3.org/2000/svg">
<path d="M141.355 84.7291C137.801 85.2191 134.271 85.2731 130.828 84.8931C128.832 85.6311 126.765 86.1501 124.653 86.4411L111.248 88.2881C109.719 88.4991 108.178 88.5961 106.645 88.5791C105.218 89.0031 103.758 89.3201 102.286 89.5231L88.8814 91.3701C87.2814 91.5901 85.6704 91.6871 84.0724 91.6591C82.5864 92.1121 81.0634 92.4471 79.5224 92.6591L65.5034 94.5901C63.7724 94.8291 62.0365 94.9231 60.3185 94.8741C58.2645 95.6391 56.1285 96.1761 53.9435 96.4771C51.0515 96.8751 48.1644 96.8541 45.3204 96.4171C42.6994 97.6081 39.9254 98.4091 37.0344 98.8071C20.6204 101.068 5.42645 89.5541 3.16545 73.1401L0.283448 52.2201C-1.97755 35.8061 9.53645 20.6131 25.9504 18.3511C28.8414 17.9531 31.7294 17.9741 34.5744 18.4111C37.1954 17.2201 39.9694 16.4191 42.8604 16.0211C45.0464 15.7201 47.2474 15.6601 49.4314 15.8411C51.0724 15.3291 52.7695 14.9511 54.5005 14.7121L67.7964 12.8801C69.2724 12.6771 70.7594 12.5851 72.2424 12.6071C74.1744 11.9201 76.1825 11.4301 78.2365 11.1471C82.0865 10.6171 85.9815 10.8421 89.7215 11.7941C93.0645 9.86612 96.7534 8.5961 100.603 8.0661C105.14 7.4411 109.793 7.88711 114.139 9.32311C118.908 6.41911 124.39 4.49411 130.264 3.68511C133.9 3.18411 137.489 3.13312 140.977 3.53112C144.083 1.87012 147.477 0.761115 150.967 0.280115C167.182 -1.95388 182.191 9.4201 184.425 25.6361L185.371 32.5011C185.492 33.3771 185.569 34.2701 185.601 35.1541L185.769 39.7311C186.879 42.2451 187.632 44.9081 188.013 47.6731C190.252 63.9271 178.867 78.9721 162.632 81.2091L161.62 81.3481C158.821 81.7341 156.022 81.7231 153.263 81.3171C149.576 83.0021 145.585 84.1471 141.355 84.7291Z" fill="white"/>
<path d="M140.149 75.9632C136.558 76.4582 133.037 76.3972 129.65 75.7852C127.701 76.7352 125.596 77.3792 123.447 77.6752L110.042 79.5222C108.487 79.7362 106.93 79.7872 105.394 79.6752C104.001 80.1912 102.556 80.5542 101.081 80.7572L87.6755 82.6042C86.0455 82.8282 84.4185 82.8742 82.8175 82.7422C81.3685 83.2942 79.8615 83.6802 78.3155 83.8932L64.2965 85.8242C62.4495 86.0782 60.6205 86.1062 58.8325 85.9082C56.9055 86.8132 54.8635 87.4182 52.7365 87.7112C49.8045 88.1152 46.8525 87.9002 44.0365 87.0912C41.5435 88.6312 38.7585 89.6372 35.8275 90.0402C24.2475 91.6352 13.5275 83.5122 11.9325 71.9312L9.05053 51.0112C7.45553 39.4312 15.5785 28.7122 27.1585 27.1172C30.0895 26.7132 33.0425 26.9282 35.8595 27.7362C38.3525 26.1962 41.1375 25.1912 44.0685 24.7882C46.1965 24.4952 48.3255 24.5252 50.4255 24.8762C52.0925 24.2022 53.8615 23.7342 55.7085 23.4792L69.0045 21.6472C70.5765 21.4302 72.1535 21.3952 73.7145 21.5422C75.5255 20.7352 77.4455 20.1892 79.4445 19.9142C83.4265 19.3652 87.4625 19.9762 91.0735 21.6092C94.1085 19.0602 97.8285 17.3812 101.811 16.8322C106.468 16.1902 111.176 17.1402 115.191 19.4232C119.63 15.7032 125.164 13.3202 131.472 12.4512C135.397 11.9102 139.201 12.0232 142.824 12.7832C145.569 10.8112 148.791 9.5132 152.175 9.0462C163.556 7.4782 174.091 15.4622 175.659 26.8432L176.605 33.7082C176.685 34.2882 176.737 34.8822 176.758 35.4732L176.995 41.9092C178.151 44.0702 178.907 46.4082 179.247 48.8802C180.821 60.3012 172.825 70.8712 161.424 72.4412L160.412 72.5802C157.585 72.9692 154.733 72.7762 152.013 72.0242C148.472 74.0432 144.495 75.3642 140.149 75.9632Z" fill="#00FDFB" stroke="black" stroke-miterlimit="10"/>
<path d="M139.343 70.1194C135.661 70.6264 132.051 70.4245 128.716 69.5395C126.906 70.7405 124.838 71.5284 122.641 71.8314L109.236 73.6784C107.644 73.8974 106.056 73.8844 104.531 73.6444C103.19 74.2794 101.754 74.7094 100.274 74.9134L86.8686 76.7604C85.1986 76.9904 83.5386 76.9655 81.9506 76.6905C80.5596 77.3755 79.0616 77.8354 77.5096 78.0494L63.4906 79.9804C61.5336 80.2504 59.6206 80.1744 57.8146 79.7644C56.0286 80.8554 54.0246 81.5785 51.9296 81.8675C48.8656 82.2895 45.8036 81.7564 43.1186 80.4414C40.8886 82.4344 38.0846 83.7754 35.0206 84.1974C26.6626 85.3494 18.9266 79.4864 17.7746 71.1284L14.8926 50.2084C13.7416 41.8514 19.6036 34.1144 27.9616 32.9634C31.0256 32.5414 34.0876 33.0745 36.7736 34.3885C39.0036 32.3965 41.8076 31.0555 44.8716 30.6335C46.9666 30.3445 49.0916 30.4984 51.1056 31.0664C52.7336 30.1844 54.5546 29.5935 56.5116 29.3245L69.8076 27.4925C71.4566 27.2655 73.1096 27.3195 74.7096 27.6475C76.3996 26.6725 78.2696 26.0315 80.2476 25.7595C84.6706 25.1505 88.9196 26.5054 92.1116 29.1544C94.4676 25.7404 98.1916 23.2875 102.615 22.6775C107.654 21.9835 112.467 23.8394 115.748 27.2534C119.56 22.4944 125.25 19.2644 132.277 18.2954C136.523 17.7104 140.59 18.0514 144.29 19.2794C146.564 16.9284 149.591 15.3574 152.98 14.8904C161.139 13.7664 168.69 19.4894 169.814 27.6484L170.76 34.5135C170.814 34.9035 170.847 35.2965 170.862 35.6895L171.13 42.9795C171.14 43.1835 171.144 43.3895 171.144 43.5955C172.329 45.4205 173.099 47.4845 173.402 49.6855C174.532 57.8845 168.797 65.4704 160.618 66.5974L159.606 66.7364C156.726 67.1334 153.844 66.6795 151.28 65.4925C147.918 67.9195 143.872 69.4954 139.343 70.1194Z" fill="#FFFE04" stroke="black" stroke-miterlimit="10"/>
<path d="M138.538 64.2742C134.421 64.8412 130.645 64.3062 127.418 62.8332C126.07 64.4972 124.116 65.6712 121.836 65.9852L108.431 67.8322C106.675 68.0742 105.041 67.8812 103.615 67.3222C102.447 68.2292 101.035 68.8512 99.4685 69.0672L86.0635 70.9142C84.2155 71.1692 82.5015 70.9412 81.0245 70.3122C79.8255 71.2992 78.3495 71.9762 76.7035 72.2032L62.6845 74.1342C60.4485 74.4422 58.4075 74.0452 56.7455 73.0822C55.3185 74.6302 53.3676 75.7122 51.1236 76.0212C47.3816 76.5372 43.8425 74.7642 41.9235 71.7762C40.8845 75.1712 37.9565 77.8352 34.2145 78.3502C29.0795 79.0582 24.3255 75.4552 23.6185 70.3202L20.7365 49.4002C20.0295 44.2652 23.6315 39.5122 28.7665 38.8052C32.5085 38.2892 36.0475 40.0622 37.9665 43.0492C39.0065 39.6552 41.9345 36.9912 45.6765 36.4762C47.9205 36.1672 50.0915 36.6802 51.8835 37.7852C53.2225 36.4082 55.0805 35.4752 57.3165 35.1672L70.6125 33.3352C72.4415 33.0832 74.2185 33.4242 75.7515 34.2102C77.1435 32.8402 78.9726 31.8892 81.0536 31.6022C86.1886 30.8952 90.9425 34.4972 91.6495 39.6312L93.3835 52.2142C93.3835 52.2142 97.1085 51.7012 97.1245 51.6992L95.3915 39.1162C94.6845 33.9812 98.2865 29.2282 103.422 28.5202C108.557 27.8132 113.31 31.4152 114.018 36.5492L115.752 49.1322L116.94 48.9682C116.788 48.2782 116.661 47.5672 116.561 46.8392C114.909 34.8502 121.55 25.7272 133.085 24.1382C138.203 23.4332 142.793 24.4282 146.456 26.8082C147.518 23.6632 150.281 21.2162 153.788 20.7332C158.724 20.0532 163.293 23.5162 163.973 28.4522L164.919 35.3172C164.946 35.5122 164.963 35.7082 164.97 35.9052L165.238 43.1952C165.273 43.9382 165.202 44.6672 165.039 45.3682C166.365 46.7132 167.284 48.4792 167.561 50.4892C168.247 55.4652 164.773 60.0692 159.817 60.7512L158.805 60.8902C155.717 61.3152 152.772 60.1262 150.826 57.9702C147.925 61.3172 143.727 63.5592 138.538 64.2742Z" fill="#8882FE" stroke="black" stroke-miterlimit="10"/>
<path d="M26.5525 48.5885C26.2875 46.6745 27.6275 44.9065 29.5425 44.6435C31.4565 44.3795 33.2255 45.7185 33.4885 47.6335L34.4985 54.9675L44.4695 53.5935L43.4595 46.2595C43.1955 44.3455 44.5345 42.5775 46.4495 42.3135C48.3645 42.0495 50.1315 43.3895 50.3955 45.3045L53.2775 66.2214C53.5415 68.1364 52.2015 69.9045 50.2865 70.1675C48.3725 70.4315 46.6045 69.0915 46.3415 67.1775L45.2455 59.2295L35.2745 60.6025L36.3705 68.5505C36.6345 70.4655 35.2945 72.2335 33.3795 72.4965C31.4645 72.7605 29.6975 71.4205 29.4345 69.5065L26.5525 48.5885Z" fill="white" stroke="black" stroke-miterlimit="10"/>
<path d="M55.4435 44.4971C55.1705 42.5101 56.1035 41.2761 58.0905 41.0031L71.3855 39.1711C72.9035 38.9621 74.3415 40.0541 74.5555 41.6061C74.7645 43.1241 73.6745 44.5621 72.1575 44.7711L62.6565 46.0801L63.3875 51.3901L71.2265 50.3102C72.7095 50.1062 74.1055 51.1652 74.3105 52.6472C74.5195 54.1652 73.4595 55.5611 71.9785 55.7651L64.1385 56.8452L64.8705 62.1562L75.0945 60.7481C76.6125 60.5391 78.0505 61.6291 78.2595 63.1451C78.4735 64.6991 77.3835 66.1371 75.8655 66.3461L61.8475 68.2781C59.8605 68.5511 58.6275 67.6171 58.3545 65.6311L55.4435 44.4971Z" fill="white" stroke="black" stroke-miterlimit="10"/>
<path d="M78.8374 41.3854C78.5724 39.4714 79.9124 37.7034 81.8274 37.4394C83.7414 37.1754 85.5104 38.5154 85.7734 40.4304L88.3114 58.8544L97.8484 57.5414C99.4024 57.3264 100.84 58.4174 101.054 59.9714C101.274 61.5614 100.183 62.9984 98.6304 63.2134L85.2264 65.0594C83.2404 65.3334 82.0064 64.3994 81.7334 62.4134L78.8374 41.3854Z" fill="white" stroke="black" stroke-miterlimit="10"/>
<path d="M101.205 38.3044C100.94 36.3894 102.279 34.6214 104.194 34.3584C106.109 34.0944 107.877 35.4344 108.14 37.3484L110.678 55.7734L120.216 54.4594C121.77 54.2454 123.208 55.3364 123.422 56.8904C123.641 58.4794 122.551 59.9174 120.997 60.1314L107.594 61.9784C105.608 62.2514 104.374 61.3184 104.101 59.3314L101.205 38.3044Z" fill="white" stroke="black" stroke-miterlimit="10"/>
<path d="M133.854 29.9761C142.271 28.8171 147.997 33.7711 149.177 42.3331C150.361 50.9311 146.079 57.2631 137.699 58.4181C129.281 59.5771 123.555 54.6241 122.371 46.0251C121.196 37.5001 125.472 31.1311 133.854 29.9761ZM136.978 52.9221C140.446 52.4431 142.73 49.5161 141.878 43.3381C141.027 37.1601 138.042 34.9941 134.573 35.4731C131.105 35.9511 128.816 38.8421 129.668 45.0211C130.519 51.1991 133.511 53.4001 136.978 52.9221Z" fill="white" stroke="black" stroke-miterlimit="10"/>
<path d="M151.879 30.1073C151.645 28.4103 152.859 26.8063 154.558 26.5733C156.256 26.3393 157.859 27.5533 158.093 29.2513L159.038 36.1163L159.307 43.4043C159.363 44.6113 158.449 45.7313 157.221 45.9013C155.956 46.0753 154.774 45.2433 154.496 44.0303L152.824 36.9723L151.879 30.1073ZM157.093 48.7163L158.105 48.5763C159.839 48.3373 161.442 49.5513 161.681 51.2863C161.924 53.0563 160.709 54.6593 158.976 54.8973L157.963 55.0373C156.23 55.2763 154.626 54.0623 154.388 52.3273C154.143 50.5573 155.358 48.9553 157.093 48.7163Z" fill="white" stroke="black" stroke-miterlimit="10"/>
</svg>
