<svg width="201" height="76" viewBox="0 0 201 76" fill="none" xmlns="http://www.w3.org/2000/svg">
<path d="M154.168 75.652C146.452 75.652 139.813 74.135 134.345 71.134C130.141 73.832 125.201 75.312 120.123 75.312C116.937 75.312 113.773 74.727 110.806 73.602C106.888 74.938 102.721 75.614 98.37 75.614C92.902 75.614 87.623 74.526 82.877 72.441C78.145 74.526 72.907 75.614 67.502 75.614C62.034 75.614 56.755 74.526 52.009 72.441C47.277 74.526 42.038 75.614 36.635 75.614C15.407 75.614 0 59.825 0 38.071C0 16.69 15.782 0.56601 36.711 0.56601C42.179 0.56601 47.458 1.65299 52.204 3.73599C56.935 1.65399 62.174 0.56601 67.579 0.56601C73.047 0.56601 78.326 1.65299 83.072 3.73599C87.803 1.65399 93.043 0.56601 98.447 0.56601C102.86 0.56601 107.076 1.24401 111.022 2.58701C113.767 1.64601 116.675 1.17099 119.708 1.17099H128.18C132.32 1.17099 136.267 1.79402 139.958 3.02802C144.227 1.34302 148.902 0.490997 153.903 0.490997C157.412 0.490997 160.941 0.944012 164.269 1.81201C167.289 0.621012 170.517 0 173.764 0C188.042 0 199.658 11.616 199.658 25.893V33.079C199.658 33.841 199.62 34.607 199.543 35.356L198.97 41.064C199.803 43.635 200.224 46.309 200.224 49.04C200.224 63.359 188.592 75.009 174.293 75.009H173.234C170.798 75.009 168.402 74.671 166.082 74.002C162.413 75.098 158.418 75.652 154.168 75.652Z" fill="white"/>
<path d="M154.168 68.1049C144.164 68.1049 137.872 65.1459 133.937 61.6959C130.49 65.4559 125.546 67.7649 120.123 67.7649C116.9 67.7649 113.776 66.9359 111.023 65.4029C107.183 67.1569 102.896 68.0669 98.3689 68.0669C92.6669 68.0669 87.3499 66.6399 82.8729 63.9669C78.3959 66.6399 73.1189 68.0669 67.5009 68.0669C61.7989 68.0669 56.4819 66.6399 52.0049 63.9669C47.5279 66.6389 42.2509 68.0669 36.6339 68.0669C19.5069 68.0669 7.5459 55.7319 7.5459 38.0709C7.5459 20.7119 19.8109 8.11288 36.7099 8.11288C42.4119 8.11288 47.7289 9.53889 52.2059 12.2079C56.6829 9.53789 61.9599 8.11288 67.5779 8.11288C73.2799 8.11288 78.5969 9.53889 83.0739 12.2079C87.5509 9.53789 92.8279 8.11288 98.4459 8.11288C102.996 8.11288 107.29 9.00588 111.114 10.7249C113.69 9.41088 116.611 8.71887 119.708 8.71887H128.18C132.514 8.71887 136.578 9.57087 140.178 11.2149C144.167 9.12487 148.822 8.03888 153.903 8.03888C157.717 8.03888 161.462 8.67589 164.839 9.87289C167.545 8.36489 170.617 7.54688 173.763 7.54688C183.88 7.54688 192.11 15.7769 192.11 25.8939V33.0799C192.11 33.5859 192.085 34.0949 192.034 34.5929L191.287 42.0289C192.202 44.2409 192.677 46.6189 192.677 49.0419C192.677 59.1999 184.43 67.4639 174.293 67.4639H173.234C170.774 67.4639 168.348 66.9649 166.104 66.0199C162.581 67.4049 158.584 68.1049 154.168 68.1049Z" fill="#FC25B1" stroke="black" stroke-miterlimit="10"/>
<path d="M154.168 60.5578C142.11 60.5578 136.557 55.4508 135.062 50.1188C133.825 50.5248 132.51 50.8198 131.13 50.9938C130.204 56.2298 125.62 60.2178 120.123 60.2178C116.731 60.2178 113.687 58.6998 111.636 56.3068C108.071 58.9988 103.537 60.5198 98.3698 60.5198C91.9948 60.5198 86.6548 58.3118 82.8868 54.4538C79.0848 58.2908 73.7568 60.5198 67.5018 60.5198C61.1268 60.5198 55.7868 58.3118 52.0188 54.4538C48.2178 58.2908 42.8898 60.5198 36.6348 60.5198C23.7498 60.5198 15.0928 51.4978 15.0928 38.0708C15.0928 24.8748 23.9818 15.6598 36.7098 15.6598C43.0848 15.6598 48.4248 17.8648 52.1938 21.7168C55.9948 17.8858 61.3228 15.6598 67.5778 15.6598C73.9528 15.6598 79.2928 17.8648 83.0618 21.7168C86.8628 17.8858 92.1918 15.6598 98.4468 15.6598C103.611 15.6598 108.095 17.1058 111.615 19.7028C113.541 17.5528 116.381 16.2648 119.708 16.2648H128.18C133.035 16.2648 137.244 17.6628 140.429 20.1078C143.59 17.3748 148.1 15.5838 153.903 15.5838C158.166 15.5838 162.454 16.6038 165.802 18.6028C167.778 16.4468 170.615 15.0918 173.764 15.0918C179.719 15.0918 184.564 19.9368 184.564 25.8918V33.0778C184.564 33.3298 184.552 33.5818 184.526 33.8328L183.769 41.3598C183.712 41.9908 183.592 42.6058 183.418 43.1978C184.501 44.8848 185.13 46.8898 185.13 49.0388C185.13 55.0358 180.268 59.9138 174.293 59.9138H173.234C170.632 59.9138 168.24 58.9918 166.371 57.4568C163.394 59.3588 159.393 60.5578 154.168 60.5578Z" fill="#FFFE04" stroke="black" stroke-miterlimit="10"/>
<path d="M36.7119 23.2056C45.5249 23.2056 50.7069 29.1056 50.7069 38.0706C50.7069 47.0736 45.4109 52.9746 36.6359 52.9746C27.8219 52.9746 22.6399 47.0736 22.6399 38.0706C22.6399 29.1436 27.9349 23.2056 36.7119 23.2056ZM36.6739 47.2246C40.3059 47.2246 43.0669 44.5386 43.0669 38.0706C43.0669 31.6026 40.3059 28.9556 36.6739 28.9556C33.0419 28.9556 30.2799 31.6026 30.2799 38.0706C30.2799 44.5386 33.0419 47.2246 36.6739 47.2246Z" fill="#FC25B1" stroke="black" stroke-miterlimit="10"/>
<path d="M67.5788 23.2056C76.3928 23.2056 81.5748 29.1056 81.5748 38.0706C81.5748 47.0736 76.2798 52.9746 67.5038 52.9746C58.6908 52.9746 53.5088 47.0736 53.5088 38.0706C53.5088 29.1436 58.8038 23.2056 67.5788 23.2056ZM67.5418 47.2246C71.1728 47.2246 73.9338 44.5386 73.9338 38.0706C73.9338 31.6026 71.1718 28.9556 67.5418 28.9556C63.9108 28.9556 61.1488 31.6026 61.1488 38.0706C61.1488 44.5386 63.9108 47.2246 67.5418 47.2246Z" fill="#FC25B1" stroke="black" stroke-miterlimit="10"/>
<path d="M98.448 23.2056C107.262 23.2056 112.444 29.1056 112.444 38.0706C112.444 47.0736 107.148 52.9746 98.3719 52.9746C89.5589 52.9746 84.377 47.0736 84.377 38.0706C84.377 29.1436 89.673 23.2056 98.448 23.2056ZM98.4109 47.2246C102.042 47.2246 104.804 44.5386 104.804 38.0706C104.804 31.6026 102.042 28.9556 98.4109 28.9556C94.7789 28.9556 92.018 31.6026 92.018 38.0706C92.018 44.5386 94.7789 47.2246 98.4109 47.2246Z" fill="#FC25B1" stroke="black" stroke-miterlimit="10"/>
<path d="M116.493 27.0255C116.493 24.9455 117.628 23.8105 119.708 23.8105H128.182C134.726 23.8105 139.303 27.3656 139.303 33.6826C139.303 39.8106 134.915 43.6306 128.144 43.6306H123.756V49.0406C123.756 51.0446 122.13 52.6715 120.124 52.6715C118.12 52.6715 116.493 51.0446 116.493 49.0406V27.0255ZM127.122 38.0706C130.035 38.0706 132.153 36.9355 132.153 33.7975C132.153 30.6565 130.073 29.3716 127.16 29.3716H123.756V38.0706H127.122Z" fill="#FC25B1" stroke="black" stroke-miterlimit="10"/>
<path d="M153.905 23.1289C158.152 23.1289 164.61 24.9079 164.61 29.0299C164.61 30.8449 163.135 32.1699 161.319 32.1699C158.131 32.1699 158.11 28.7279 153.716 28.7279C151.257 28.7279 149.82 29.8629 149.82 31.1869C149.82 32.5859 150.539 33.6079 153.413 34.2129L158.028 35.1949C163.815 36.4439 166.124 39.3939 166.124 43.6689C166.124 48.5109 163.059 53.0119 154.171 53.0119C148.48 53.0119 142.179 51.3929 142.179 46.9979C142.179 45.1059 143.73 43.8579 145.622 43.8579C148.829 43.8579 149.329 46.8839 153.868 46.8839C156.893 46.8839 158.52 45.9759 158.52 44.1589C158.52 42.8359 157.801 41.9289 155.078 41.3599L150.425 40.3769C145.13 39.2419 142.52 36.5949 142.52 31.9029C142.519 26.9499 146.643 23.1289 153.905 23.1289Z" fill="#FC25B1" stroke="black" stroke-miterlimit="10"/>
<path d="M173.236 45.7507H174.296C176.11 45.7507 177.586 47.2257 177.586 49.0417C177.586 50.8947 176.11 52.3697 174.296 52.3697H173.236C171.421 52.3697 169.945 50.8947 169.945 49.0787C169.945 47.2247 171.421 45.7507 173.236 45.7507ZM170.513 25.8907C170.513 24.1137 171.988 22.6377 173.766 22.6377C175.544 22.6377 177.019 24.1137 177.019 25.8907V33.0787L176.263 40.6057C176.15 41.8537 175.052 42.8757 173.766 42.8757C172.443 42.8757 171.345 41.8537 171.232 40.5677L170.513 33.0787V25.8907Z" fill="#FC25B1" stroke="black" stroke-miterlimit="10"/>
</svg>
