<svg width="190" height="101" viewBox="0 0 190 101" fill="none" xmlns="http://www.w3.org/2000/svg">
<path d="M26.1473 69.213C6.4333 64.555 -3.60072 47.834 1.17928 27.604C5.88828 7.67304 23.1673 -3.51796 42.2653 0.994039C48.8633 2.55304 54.7813 5.69504 59.1003 9.80204C64.8683 7.98704 71.1973 7.82903 77.7293 9.37203C85.1183 11.118 91.3413 14.76 95.8593 19.887C102.21 17.328 109.424 16.86 116.835 18.611C122.797 20.02 127.985 22.639 132.149 26.307C135.927 24.836 140.11 24.515 144.205 25.482C149.933 26.835 154.525 30.498 157.227 35.25C161.841 31.561 168.044 29.95 174.226 31.411C184.896 33.932 191.525 44.663 189.004 55.333L186.853 64.438C186.732 64.949 186.586 65.456 186.415 65.947L183.205 75.254C183.11 75.538 183.007 75.82 182.896 76.102C183.511 78.961 183.481 81.921 182.794 84.831C180.261 95.554 169.498 102.221 158.802 99.694L157.46 99.377C155.429 98.897 153.494 98.103 151.725 97.032C149.689 97.204 147.63 97.055 145.622 96.58L127.844 92.38C123.799 91.424 120.345 89.474 117.74 86.758C112.381 88.153 106.579 88.165 100.633 86.76C93.2443 85.014 87.0223 81.369 82.5053 76.236C76.1533 78.801 68.9383 79.271 61.5273 77.521C55.0933 76.001 49.5723 73.077 45.2603 68.945C39.5203 70.674 32.8563 70.798 26.1473 69.213Z" fill="white"/>
<path d="M27.9472 61.5992C12.3142 57.9062 4.97526 45.5692 8.79426 29.4042C12.5203 13.6352 25.5443 5.08418 40.4663 8.61018C47.3143 10.2282 53.6962 14.0552 56.8142 19.2972C62.1892 16.2162 68.7862 15.3012 75.9292 16.9892C84.1942 18.9422 90.2353 23.7062 93.4143 30.1972C99.1793 25.8182 106.738 24.2672 115.035 26.2282C121.938 27.8592 127.289 31.4502 130.717 36.3722C133.693 33.4522 138.057 32.0722 142.405 33.0992C149.14 34.6902 153.325 41.4642 151.734 48.2002L147.759 65.0252L152.796 66.2152C153.354 66.3472 153.893 66.5172 154.411 66.7222L155.63 57.8312C155.664 57.5842 155.71 57.3392 155.767 57.0962L157.918 47.9912C159.447 41.5202 165.955 37.4992 172.426 39.0282C178.897 40.5572 182.918 47.0652 181.389 53.5362L179.238 62.6412C179.178 62.8952 179.105 63.1462 179.02 63.3942L175.809 72.7042C175.486 73.6682 175.033 74.5642 174.473 75.3742C175.502 77.7032 175.808 80.3712 175.179 83.0342C173.638 89.5582 167.098 93.6172 160.6 92.0812L159.258 91.7642C157.075 91.2482 155.17 90.1682 153.66 88.7142C151.705 89.3482 149.559 89.4722 147.419 88.9672L129.641 84.7672C125.219 83.7222 122.123 80.8962 120.906 77.1822C115.649 79.9852 109.291 80.7682 102.43 79.1472C94.1652 77.1942 88.1263 72.4252 84.9493 65.9232C79.1823 70.3122 71.6213 71.8682 63.3253 69.9082C56.3013 68.2492 50.8852 64.5552 47.4682 59.4932C42.2202 62.6902 34.8022 63.2182 27.9472 61.5992Z" fill="#FFFE04" stroke="black" stroke-miterlimit="10"/>
<path d="M38.6923 16.2442C44.6493 17.6512 52.1983 22.0412 50.8343 27.8152C50.2573 30.2592 47.8403 31.7112 45.4423 31.1452C41.0363 30.1042 43.0863 24.9222 36.9833 23.4802C32.4303 22.4052 28.1283 24.9802 26.2153 33.0792C24.2333 41.4662 27.1183 45.7402 31.4803 46.7702C37.8723 48.2802 38.3893 42.0782 43.0543 43.1792C45.4983 43.7562 47.0353 46.2452 46.4463 48.7372C45.0473 54.6632 36.1823 55.5202 29.7713 54.0062C18.0783 51.2442 13.7153 42.7252 16.4333 31.2242C19.1163 19.8662 27.8143 13.6742 38.6923 16.2442Z" fill="#00FDFB" stroke="black" stroke-miterlimit="10"/>
<path d="M74.1573 24.6231C85.3223 27.2611 90.1213 36.2881 87.4383 47.6451C84.7433 59.0501 76.2683 64.9401 65.1513 62.3131C53.9853 59.6751 49.1863 50.6491 51.8803 39.2441C54.5523 27.9351 63.0403 21.9961 74.1573 24.6231ZM66.9193 55.0411C71.5213 56.1291 75.8223 53.5531 77.7593 45.3581C79.6953 37.1641 76.9893 32.9821 72.3883 31.8951C67.7883 30.8081 63.4973 33.3361 61.5613 41.5311C59.6243 49.7261 62.3193 53.9551 66.9193 55.0411Z" fill="#00FDFB" stroke="black" stroke-miterlimit="10"/>
<path d="M113.262 33.862C124.427 36.5 129.226 45.526 126.543 56.883C123.848 68.288 115.373 74.179 104.256 71.552C93.0904 68.914 88.2914 59.888 90.9844 48.483C93.6574 37.174 102.144 31.236 113.262 33.862ZM106.024 64.28C110.626 65.367 114.926 62.792 116.863 54.597C118.799 46.403 116.093 42.221 111.493 41.134C106.892 40.047 102.602 42.575 100.666 50.77C98.7294 58.965 101.425 63.193 106.024 64.28Z" fill="#00FDFB" stroke="black" stroke-miterlimit="10"/>
<path d="M134.945 44.247C135.546 41.708 138.092 40.133 140.631 40.733C143.172 41.334 144.746 43.88 144.146 46.421L138.372 70.861L151.023 73.849C153.083 74.336 154.364 76.409 153.877 78.469C153.379 80.577 151.305 81.86 149.245 81.372L131.466 77.172C128.83 76.549 127.733 74.772 128.356 72.136L134.945 44.247Z" fill="#00FDFB" stroke="black" stroke-miterlimit="10"/>
<path d="M163.065 75.7834L164.407 76.1004C166.708 76.6444 168.135 78.9544 167.593 81.2544C167.038 83.6034 164.727 85.0304 162.427 84.4864L161.085 84.1694C158.785 83.6264 157.356 81.3154 157.9 79.0164C158.455 76.6684 160.766 75.2404 163.065 75.7834ZM165.56 49.8114C166.092 47.5594 168.402 46.1314 170.654 46.6644C172.907 47.1964 174.334 49.5074 173.801 51.7594L171.651 60.8644L168.439 70.1744C167.922 71.7214 166.226 72.6874 164.597 72.3024C162.919 71.9064 161.836 70.2834 162.076 68.6204L163.408 58.9174L165.56 49.8114Z" fill="#00FDFB" stroke="black" stroke-miterlimit="10"/>
</svg>
