<svg width="146" height="79" viewBox="0 0 146 79" fill="none" xmlns="http://www.w3.org/2000/svg">
<path d="M82.466 76.307C77.474 76.307 72.794 75.271 68.681 73.279C66.287 74.717 63.49 75.543 60.503 75.543H42.788C39.012 75.543 35.567 74.393 32.826 72.36C31.033 71.818 29.382 70.989 27.929 69.911C26.136 69.369 24.485 68.54 23.032 67.463C21.239 66.921 19.587 66.092 18.135 65.014C16.363 64.478 14.73 63.663 13.29 62.605C6.52698 60.638 2 54.672 2 46.998V19.21C2 9.93202 9.549 2.38303 18.827 2.38303C22.454 2.38303 25.88 3.53201 28.691 5.57501C30.454 6.11801 32.107 6.94602 33.588 8.02402C34.941 8.44102 36.229 9.02602 37.425 9.76202C42.725 4.81002 49.928 2 58.076 2C64.153 2 69.77 3.53502 74.464 6.46002C77.411 3.92102 81.247 2.38303 85.434 2.38303C89.061 2.38303 92.487 3.53201 95.297 5.57501C97.06 6.11801 98.713 6.94602 100.194 8.02402C101.957 8.56702 103.61 9.39502 105.091 10.473C106.855 11.016 108.507 11.844 109.988 12.922C111.755 13.466 113.411 14.297 114.895 15.378C121.752 17.505 126.746 23.907 126.746 31.454V41.774C126.751 41.776 126.754 41.78 126.759 41.782C128.518 42.31 130.166 43.138 131.633 44.215C138.241 46.17 143.076 52.296 143.076 59.529C143.076 68.36 135.913 75.544 127.109 75.544H109.394C105.618 75.544 102.173 74.394 99.432 72.361C99.133 72.271 98.839 72.173 98.55 72.067C93.954 74.84 88.483 76.307 82.466 76.307Z" fill="white" stroke="#FFCCE1" stroke-width="4" stroke-miterlimit="10"/>
<path d="M38.73 31.4541C38.73 28.9241 40.783 26.8701 43.313 26.8701C45.843 26.8701 47.897 28.9241 47.897 31.4541V55.8041H60.501C62.554 55.8041 64.225 57.4751 64.225 59.5291C64.225 61.6301 62.554 63.3011 60.501 63.3011H42.788C40.162 63.3011 38.729 61.8681 38.729 59.2421L38.73 31.4541Z" fill="#FFFE04" stroke="black" stroke-miterlimit="10"/>
<path d="M82.5611 26.4883C93.6851 26.4883 100.226 33.9363 100.226 45.2523C100.226 56.6153 93.5421 64.0643 82.4651 64.0643C71.3401 64.0643 64.7991 56.6163 64.7991 45.2523C64.8001 33.9843 71.4841 26.4883 82.5611 26.4883ZM82.5141 56.8063C87.0971 56.8063 90.5821 53.4163 90.5821 45.2513C90.5821 37.0873 87.0971 33.7453 82.5141 33.7453C77.9301 33.7453 74.4451 37.0873 74.4451 45.2513C74.4441 53.4173 77.9291 56.8063 82.5141 56.8063Z" fill="#FFFE04" stroke="black" stroke-miterlimit="10"/>
<path d="M105.337 31.4541C105.337 28.9241 107.39 26.8701 109.92 26.8701C112.451 26.8701 114.504 28.9241 114.504 31.4541V55.8041H127.109C129.162 55.8041 130.833 57.4751 130.833 59.5291C130.833 61.6301 129.162 63.3011 127.109 63.3011H109.395C106.77 63.3011 105.337 61.8681 105.337 59.2421V31.4541Z" fill="#FFFE04" stroke="black" stroke-miterlimit="10"/>
<path d="M33.833 29.0069C33.833 26.4769 35.886 24.4229 38.416 24.4229C40.947 24.4229 43 26.4769 43 29.0069V53.3569H55.604C57.657 53.3569 59.328 55.0278 59.328 57.0818C59.328 59.1828 57.657 60.8529 55.604 60.8529H37.89C35.265 60.8529 33.832 59.4199 33.832 56.7939L33.833 29.0069Z" fill="white" stroke="black" stroke-miterlimit="10"/>
<path d="M77.6641 24.041C88.7881 24.041 95.3291 31.489 95.3291 42.805C95.3291 54.168 88.6451 61.616 77.5681 61.616C66.4431 61.616 59.9021 54.168 59.9021 42.805C59.9021 31.537 66.5871 24.041 77.6641 24.041ZM77.6161 54.359C82.1991 54.359 85.6841 50.969 85.6841 42.804C85.6841 34.64 82.1991 31.298 77.6161 31.298C73.0321 31.298 69.5471 34.64 69.5471 42.804C69.5471 50.97 73.0321 54.359 77.6161 54.359Z" fill="white" stroke="black" stroke-miterlimit="10"/>
<path d="M100.439 29.0069C100.439 26.4769 102.492 24.4229 105.022 24.4229C107.552 24.4229 109.606 26.4769 109.606 29.0069V53.3569H122.211C124.264 53.3569 125.935 55.0278 125.935 57.0818C125.935 59.1828 124.264 60.8529 122.211 60.8529H104.498C101.872 60.8529 100.439 59.4199 100.439 56.7939V29.0069Z" fill="white" stroke="black" stroke-miterlimit="10"/>
<path d="M28.9348 26.5571C28.9348 24.0271 30.9878 21.9731 33.5178 21.9731C36.0478 21.9731 38.1018 24.0271 38.1018 26.5571V50.9071H50.7058C52.7588 50.9071 54.4298 52.5781 54.4298 54.6321C54.4298 56.7331 52.7588 58.4031 50.7058 58.4031H32.9928C30.3668 58.4031 28.9338 56.9701 28.9338 54.3441V26.5571H28.9348Z" fill="#FC25B1" stroke="black" stroke-miterlimit="10"/>
<path d="M72.7659 21.5923C83.8899 21.5923 90.4309 29.0403 90.4309 40.3563C90.4309 51.7193 83.7469 59.1673 72.6699 59.1673C61.5449 59.1673 55.0039 51.7193 55.0039 40.3563C55.0049 29.0883 61.6889 21.5923 72.7659 21.5923ZM72.7189 51.9103C77.3019 51.9103 80.7869 48.5203 80.7869 40.3553C80.7869 32.1913 77.3019 28.8493 72.7189 28.8493C68.1349 28.8493 64.6499 32.1913 64.6499 40.3553C64.6489 48.5203 68.1349 51.9103 72.7189 51.9103Z" fill="#FC25B1" stroke="black" stroke-miterlimit="10"/>
<path d="M95.5418 26.5571C95.5418 24.0271 97.5948 21.9731 100.125 21.9731C102.656 21.9731 104.709 24.0271 104.709 26.5571V50.9071H117.313C119.366 50.9071 121.037 52.5781 121.037 54.6321C121.037 56.7331 119.366 58.4031 117.313 58.4031H99.5988C96.9738 58.4031 95.5408 56.9701 95.5408 54.3441V26.5571H95.5418Z" fill="#FC25B1" stroke="black" stroke-miterlimit="10"/>
<path d="M24.0378 24.1079C24.0378 21.5779 26.0908 19.5239 28.6208 19.5239C31.1518 19.5239 33.2048 21.5779 33.2048 24.1079V48.4579H45.8098C47.8628 48.4579 49.5338 50.1289 49.5338 52.1829C49.5338 54.2839 47.8628 55.9549 45.8098 55.9549H28.0958C25.4708 55.9549 24.0378 54.5219 24.0378 51.8959V24.1079Z" fill="#00FDFB" stroke="black" stroke-miterlimit="10"/>
<path d="M67.8689 19.1421C78.9929 19.1421 85.5339 26.5901 85.5339 37.9061C85.5339 49.2691 78.8499 56.7181 67.7729 56.7181C56.6479 56.7181 50.1069 49.2701 50.1069 37.9061C50.1069 26.6391 56.7919 19.1421 67.8689 19.1421ZM67.8209 49.4611C72.4039 49.4611 75.8889 46.0711 75.8889 37.9061C75.8889 29.7421 72.4039 26.4001 67.8209 26.4001C63.2369 26.4001 59.7519 29.7421 59.7519 37.9061C59.7519 46.0711 63.2369 49.4611 67.8209 49.4611Z" fill="#00FDFB" stroke="black" stroke-miterlimit="10"/>
<path d="M90.6438 24.1079C90.6438 21.5779 92.6968 19.5239 95.2268 19.5239C97.7568 19.5239 99.8108 21.5779 99.8108 24.1079V48.4579H112.415C114.468 48.4579 116.139 50.1289 116.139 52.1829C116.139 54.2839 114.468 55.9549 112.415 55.9549H94.7018C92.0758 55.9549 90.6428 54.5219 90.6428 51.8959V24.1079H90.6438Z" fill="#00FDFB" stroke="black" stroke-miterlimit="10"/>
<path d="M19.1409 21.6592C19.1409 19.1292 21.1939 17.0752 23.7239 17.0752C26.2549 17.0752 28.3079 19.1292 28.3079 21.6592V46.0092H40.9119C42.9649 46.0092 44.6359 47.6802 44.6359 49.7342C44.6359 51.8352 42.9649 53.5052 40.9119 53.5052H23.1979C20.5729 53.5052 19.1399 52.0722 19.1399 49.4462V21.6592H19.1409Z" fill="#8882FE" stroke="black" stroke-miterlimit="10"/>
<path d="M62.972 16.6934C74.096 16.6934 80.637 24.1413 80.637 35.4573C80.637 46.8203 73.9529 54.2693 62.8759 54.2693C51.7509 54.2693 45.21 46.8213 45.21 35.4573C45.211 24.1893 51.895 16.6934 62.972 16.6934ZM62.925 47.0114C67.508 47.0114 70.993 43.6214 70.993 35.4564C70.993 27.2924 67.508 23.9503 62.925 23.9503C58.341 23.9503 54.856 27.2924 54.856 35.4564C54.855 43.6224 58.341 47.0114 62.925 47.0114Z" fill="#8882FE" stroke="black" stroke-miterlimit="10"/>
<path d="M85.7478 21.6592C85.7478 19.1292 87.8008 17.0752 90.3308 17.0752C92.8608 17.0752 94.9148 19.1292 94.9148 21.6592V46.0092H107.519C109.572 46.0092 111.243 47.6802 111.243 49.7342C111.243 51.8352 109.572 53.5052 107.519 53.5052H89.8058C87.1798 53.5052 85.7468 52.0722 85.7468 49.4462V21.6592H85.7478Z" fill="#8882FE" stroke="black" stroke-miterlimit="10"/>
<path d="M14.2439 19.2119C14.2439 16.6819 16.2969 14.6279 18.8269 14.6279C21.3569 14.6279 23.4109 16.6819 23.4109 19.2119V43.5619H36.0149C38.0679 43.5619 39.7389 45.2329 39.7389 47.2869C39.7389 49.3879 38.0679 51.0579 36.0149 51.0579H18.3019C15.6759 51.0579 14.2429 49.6249 14.2429 46.9989V19.2119H14.2439Z" fill="#FFFE04" stroke="black" stroke-miterlimit="10"/>
<path d="M58.075 14.2461C69.199 14.2461 75.74 21.6941 75.74 33.0101C75.74 44.3731 69.056 51.8211 57.979 51.8211C46.854 51.8211 40.313 44.3731 40.313 33.0101C40.313 21.7421 46.998 14.2461 58.075 14.2461ZM58.027 44.5641C62.61 44.5641 66.095 41.1741 66.095 33.0091C66.095 24.8451 62.61 21.5031 58.027 21.5031C53.443 21.5031 49.958 24.8451 49.958 33.0091C49.958 41.1751 53.443 44.5641 58.027 44.5641Z" fill="#FFFE04" stroke="black" stroke-miterlimit="10"/>
<path d="M80.8499 19.2119C80.8499 16.6819 82.9029 14.6279 85.4329 14.6279C87.9639 14.6279 90.0169 16.6819 90.0169 19.2119V43.5619H102.622C104.675 43.5619 106.346 45.2329 106.346 47.2869C106.346 49.3879 104.675 51.0579 102.622 51.0579H84.9079C82.2829 51.0579 80.8499 49.6249 80.8499 46.9989V19.2119Z" fill="#FFFE04" stroke="black" stroke-miterlimit="10"/>
</svg>
