<svg width="214" height="107" viewBox="0 0 214 107" fill="none" xmlns="http://www.w3.org/2000/svg">
<path d="M112.107 91.6183C102.694 93.7593 94.0106 92.0253 87.2846 86.7393C85.9056 93.0323 80.9076 98.2433 74.3666 99.7303C69.1586 100.914 63.8616 99.5933 59.8996 96.4273C57.7066 100.995 53.5216 104.47 48.3306 105.651C42.4016 106.999 36.3516 105.055 32.3136 100.816C29.6336 99.9453 27.2096 98.4173 25.2666 96.3723C20.8916 94.9283 17.1686 91.7283 15.1696 87.4703L1.36562 58.6673C1.26162 58.4503 1.16662 58.2283 1.08062 58.0023L1.03762 57.8923C0.852618 57.4113 0.573615 56.6863 0.354615 55.7223C-1.37238 48.1253 3.37662 40.5453 10.9436 38.8253C15.6656 37.7513 20.3856 39.1103 23.7136 42.2233C25.5096 37.9563 29.3016 34.6503 34.0806 33.5643C38.7856 32.4943 43.5646 33.7993 47.0236 36.8273C48.6426 32.6893 52.2406 29.4353 56.7706 28.4053C60.8466 27.4783 64.9186 28.4783 68.0316 30.8013C72.0336 26.3453 77.5596 23.2093 84.2726 21.6823C91.0436 20.1423 97.4356 20.6063 102.995 22.9523C104.844 19.4363 108.152 16.7213 112.311 15.7753C117.034 14.7013 121.753 16.0603 125.081 19.1743C126.877 14.9063 130.669 11.6013 135.448 10.5143C140.152 9.44432 144.93 10.7503 148.39 13.7763C150.009 9.63832 153.606 6.38432 158.138 5.35432C160.862 4.73532 163.585 4.97532 166.021 5.89832C167.908 3.18132 170.773 1.13332 174.245 0.34332C179.408 -0.83068 184.565 1.08632 187.773 4.87032C190.511 5.58632 192.974 7.13732 194.804 9.29632C199.604 10.5523 203.563 14.3743 204.737 19.5373L207.146 30.1303C207.211 30.4173 207.263 30.7073 207.298 30.9993L208.706 42.3473C208.867 43.5453 208.842 44.7373 208.655 45.8913C210.932 47.7643 212.629 50.3763 213.332 53.4673C215.024 60.9103 210.371 68.3363 202.959 70.0223L201.398 70.3773C196.294 71.5373 191.196 69.6913 187.966 66.0093C185.992 71.2363 181.454 75.3823 175.736 76.6823C170.528 77.8663 165.232 76.5463 161.27 73.3793C159.078 77.9463 154.893 81.4223 149.701 82.6023C143.772 83.9503 137.722 82.0063 133.684 77.7673C133.135 77.5883 132.596 77.3823 132.07 77.1503C128.198 84.3453 121.233 89.5433 112.107 91.6183Z" fill="white"/>
<path d="M12.9446 47.4266C15.4536 46.8556 17.9096 48.1146 18.9436 50.3426L30.6226 75.6556L31.4396 47.7946C31.4956 45.2026 33.3496 42.7866 36.0816 42.1656C38.7586 41.5566 41.4746 42.9336 42.6446 45.2466L55.3256 69.8036L54.9516 41.8616C54.9156 39.6416 56.4866 37.5256 58.7726 37.0056C61.4486 36.3976 64.0486 38.0336 64.6576 40.7106C64.7336 41.0456 64.7666 41.4476 64.7876 41.7956L64.8416 74.2666C64.8726 78.0126 62.2476 81.4246 58.4016 82.2986C54.6666 83.1486 50.9176 81.3616 49.2266 78.0526L39.2826 58.5606L38.7456 80.4366C38.6526 84.1516 36.1006 87.3706 32.3656 88.2206C28.5746 89.0826 24.7886 87.1286 23.1956 83.7386L9.35965 54.8676C9.21465 54.4896 9.08364 54.1686 8.99464 53.7776C8.33564 50.8786 10.1006 48.0736 12.9446 47.4266Z" fill="#FC25B1" stroke="black" stroke-miterlimit="10"/>
<path d="M86.2746 30.2826C99.2646 27.3286 108.879 34.2886 111.884 47.5026C114.902 60.7706 109.074 71.2436 96.1396 74.1846C83.1506 77.1386 73.5346 70.1786 70.5166 56.9096C67.5246 43.7516 73.3406 33.2246 86.2746 30.2826ZM94.2686 65.6976C99.6216 64.4806 102.792 59.5966 100.624 50.0636C98.4556 40.5296 93.4976 37.5526 88.1456 38.7696C82.7926 39.9866 79.6106 44.8146 81.7786 54.3486C83.9466 63.8816 88.9166 66.9146 94.2686 65.6976Z" fill="#FC25B1" stroke="black" stroke-miterlimit="10"/>
<path d="M114.311 24.3764C116.82 23.8054 119.276 25.0644 120.31 27.2924L131.989 52.6054L132.806 24.7434C132.862 22.1514 134.716 19.7354 137.448 19.1144C140.124 18.5064 142.841 19.8824 144.012 22.1954L156.692 46.7534L156.318 18.8104C156.282 16.5904 157.853 14.4744 160.139 13.9544C162.815 13.3464 165.415 14.9824 166.024 17.6594C166.1 17.9934 166.133 18.3964 166.153 18.7434L166.208 51.2144C166.239 54.9604 163.614 58.3714 159.768 59.2464C156.033 60.0954 152.284 58.3094 150.593 54.9994L140.649 35.5074L140.112 57.3824C140.019 61.0974 137.467 64.3164 133.732 65.1664C129.941 66.0284 126.154 64.0744 124.562 60.6844L110.726 31.8164C110.582 31.4384 110.45 31.1174 110.361 30.7274C109.702 27.8284 111.468 25.0224 114.311 24.3764Z" fill="#FC25B1" stroke="black" stroke-miterlimit="10"/>
<path d="M172.54 14.8285C171.944 12.2085 173.624 9.53948 176.244 8.94348C178.864 8.34748 181.533 10.0275 182.129 12.6475L184.538 23.2405L185.945 34.5895C186.197 36.4675 184.922 38.3395 183.026 38.7705C181.075 39.2145 179.116 38.0775 178.518 36.2195L174.948 25.4215L172.54 14.8285ZM183.21 43.1865L184.771 42.8315C187.447 42.2235 190.116 43.9025 190.724 46.5795C191.345 49.3115 189.665 51.9795 186.99 52.5885L185.428 52.9425C182.751 53.5515 180.083 51.8715 179.475 49.1955C178.854 46.4625 180.534 43.7945 183.21 43.1865Z" fill="#FC25B1" stroke="black" stroke-miterlimit="10"/>
<path d="M19.9757 51.8524C22.4847 51.2824 24.9407 52.5414 25.9747 54.7684L37.6527 80.0814L38.4707 52.2204C38.5267 49.6274 40.3797 47.2124 43.1127 46.5914C45.7887 45.9824 48.5057 47.3594 49.6757 49.6734L62.3557 74.2314L61.9827 46.2874C61.9467 44.0674 63.5177 41.9514 65.8027 41.4314C68.4797 40.8234 71.0797 42.4594 71.6887 45.1364C71.7647 45.4704 71.7967 45.8734 71.8177 46.2204L71.8727 78.6924C71.9027 82.4374 69.2787 85.8494 65.4327 86.7244C61.6977 87.5734 57.9487 85.7874 56.2577 82.4784L46.3137 62.9864L45.7767 84.8614C45.6827 88.5764 43.1317 91.7954 39.3967 92.6444C35.6057 93.5064 31.8187 91.5534 30.2267 88.1624L16.3907 59.2934C16.2467 58.9154 16.1137 58.5944 16.0257 58.2034C15.3657 55.3044 17.1327 52.4984 19.9757 51.8524Z" fill="#FFFE04" stroke="black" stroke-miterlimit="10"/>
<path d="M93.3048 34.7084C106.295 31.7544 115.911 38.7144 118.916 51.9274C121.933 65.1964 116.104 75.6684 103.171 78.6094C90.1808 81.5634 80.5648 74.6034 77.5468 61.3344C74.5558 48.1774 80.3708 37.6494 93.3048 34.7084ZM101.301 70.1234C106.653 68.9064 109.822 64.0224 107.656 54.4894C105.488 44.9564 100.53 41.9784 95.1768 43.1964C89.8248 44.4134 86.6428 49.2414 88.8108 58.7754C90.9778 68.3074 95.9478 71.3404 101.301 70.1234Z" fill="#FFFE04" stroke="black" stroke-miterlimit="10"/>
<path d="M121.343 28.8014C123.852 28.2314 126.308 29.4904 127.342 31.7174L139.02 57.0304L139.838 29.1694C139.894 26.5774 141.747 24.1614 144.48 23.5404C147.156 22.9314 149.873 24.3084 151.043 26.6214L163.723 51.1794L163.35 23.2374C163.314 21.0174 164.885 18.9004 167.17 18.3804C169.847 17.7714 172.447 19.4084 173.056 22.0854C173.132 22.4194 173.164 22.8224 173.185 23.1694L173.24 55.6404C173.27 59.3864 170.646 62.7974 166.799 63.6724C163.064 64.5224 159.315 62.7354 157.624 59.4264L147.68 39.9344L147.143 61.8104C147.049 65.5254 144.498 68.7444 140.763 69.5944C136.972 70.4564 133.185 68.5024 131.593 65.1124L117.758 36.2444C117.613 35.8664 117.482 35.5454 117.393 35.1544C116.733 32.2534 118.499 29.4474 121.343 28.8014Z" fill="#FFFE04" stroke="black" stroke-miterlimit="10"/>
<path d="M179.571 19.2543C178.975 16.6343 180.655 13.9653 183.275 13.3693C185.895 12.7733 188.563 14.4533 189.16 17.0733L191.568 27.6663L192.976 39.0153C193.227 40.8933 191.952 42.7663 190.057 43.1973C188.106 43.6403 186.147 42.5033 185.548 40.6463L181.979 29.8483L179.571 19.2543ZM190.241 47.6113L191.802 47.2563C194.478 46.6483 197.148 48.3273 197.756 51.0033C198.377 53.7343 196.696 56.4033 194.021 57.0123L192.46 57.3673C189.783 57.9753 187.114 56.2963 186.506 53.6203C185.885 50.8883 187.564 48.2193 190.241 47.6113Z" fill="#FFFE04" stroke="black" stroke-miterlimit="10"/>
<path d="M27.0065 56.2775C29.5155 55.7075 31.9715 56.9655 33.0055 59.1935L44.6845 84.5065L45.5015 56.6445C45.5575 54.0525 47.4115 51.6365 50.1445 51.0155C52.8205 50.4065 55.5375 51.7835 56.7075 54.0965L69.3875 78.6545L69.0145 50.7125C68.9785 48.4915 70.5485 46.3755 72.8345 45.8565C75.5115 45.2475 78.1105 46.8845 78.7195 49.5605C78.7955 49.8955 78.8285 50.2975 78.8495 50.6455L78.9035 83.1165C78.9345 86.8625 76.3095 90.2735 72.4635 91.1485C68.7285 91.9985 64.9805 90.2115 63.2885 86.9015L53.3455 67.4095L52.8075 89.2845C52.7145 93.0005 50.1635 96.2195 46.4275 97.0685C42.6365 97.9305 38.8505 95.9765 37.2575 92.5865L23.4225 63.7185C23.2775 63.3415 23.1455 63.0195 23.0575 62.6295C22.3965 59.7295 24.1635 56.9245 27.0065 56.2775Z" fill="#00FDFB" stroke="black" stroke-miterlimit="10"/>
<path d="M100.336 39.1337C113.326 36.1797 122.941 43.1397 125.945 56.3537C128.963 69.6227 123.135 80.0947 110.202 83.0357C97.2124 85.9897 87.5964 79.0297 84.5784 65.7607C81.5864 52.6037 87.4014 42.0757 100.336 39.1337ZM108.33 74.5487C113.683 73.3317 116.852 68.4477 114.685 58.9147C112.517 49.3807 107.56 46.4037 102.207 47.6207C96.8544 48.8377 93.6724 53.6667 95.8404 63.1997C98.0084 72.7327 102.978 75.7657 108.33 74.5487Z" fill="#00FDFB" stroke="black" stroke-miterlimit="10"/>
<path d="M128.372 33.2277C130.881 32.6577 133.337 33.9157 134.371 36.1437L146.05 61.4567L146.867 33.5957C146.923 31.0037 148.777 28.5877 151.51 27.9667C154.186 27.3587 156.903 28.7347 158.073 31.0477L170.753 55.6057L170.379 27.6637C170.344 25.4427 171.914 23.3267 174.2 22.8077C176.877 22.1987 179.476 23.8357 180.085 26.5127C180.161 26.8467 180.194 27.2497 180.215 27.5967L180.269 60.0677C180.3 63.8137 177.676 67.2247 173.829 68.0997C170.094 68.9497 166.346 67.1627 164.654 63.8527L154.71 44.3607L154.173 66.2357C154.08 69.9517 151.528 73.1707 147.793 74.0197C144.002 74.8817 140.216 72.9277 138.623 69.5377L124.789 40.6687C124.644 40.2917 124.512 39.9697 124.423 39.5797C123.762 36.6797 125.529 33.8747 128.372 33.2277Z" fill="#00FDFB" stroke="black" stroke-miterlimit="10"/>
<path d="M186.601 23.6805C186.005 21.0605 187.686 18.3915 190.305 17.7955C192.926 17.1995 195.594 18.8795 196.19 21.4995L198.599 32.0925L200.007 43.4405C200.258 45.3185 198.984 47.1915 197.088 47.6225C195.137 48.0655 193.178 46.9285 192.579 45.0705L189.01 34.2725L186.601 23.6805ZM197.271 52.0375L198.833 51.6825C201.509 51.0745 204.178 52.7535 204.786 55.4295C205.407 58.1615 203.727 60.8305 201.052 61.4385L199.49 61.7935C196.813 62.4015 194.145 60.7225 193.537 58.0465C192.916 55.3135 194.595 52.6455 197.271 52.0375Z" fill="#00FDFB" stroke="black" stroke-miterlimit="10"/>
</svg>
