<svg width="99" height="72" viewBox="0 0 99 72" fill="none" xmlns="http://www.w3.org/2000/svg">
<path d="M94.7816 40.7949C94.9086 40.4659 95.0226 40.1299 95.1206 39.7859L97.1346 32.9078C97.2286 32.5868 97.3056 32.2609 97.3676 31.9329L98.6226 25.2089C99.9486 18.1109 95.2516 11.2579 88.1536 9.93287C84.7956 9.30587 81.4926 10.0259 78.8046 11.7109C75.8186 9.23385 72.0706 7.47785 67.7056 6.66285C63.1826 5.81785 58.8966 6.13985 55.1006 7.48185C53.2256 5.32985 50.6396 3.76884 47.6216 3.20484C44.7506 2.66884 41.9186 3.10985 39.4736 4.29285C37.4176 2.22785 34.7686 0.804859 31.8046 0.250859C24.5776 -1.09814 17.5776 3.11986 15.2406 9.86686C12.7886 11.6049 10.8686 14.0769 9.84557 16.9929C6.81457 19.1379 4.59556 22.4059 3.87856 26.2459L0.224568 45.8128C-1.10843 52.9498 3.63056 59.8439 10.7866 61.1809C13.7186 61.7289 16.6096 61.2539 19.0906 60.0099C21.1446 62.1309 23.8376 63.6188 26.8156 64.1748C30.1326 64.7938 33.4016 64.2168 36.1746 62.7488C39.2746 65.5598 43.2726 67.5418 47.9606 68.4168C52.5546 69.2748 56.9026 68.9279 60.7436 67.5309C62.5986 69.5569 65.0896 71.0298 67.9916 71.5718L68.9826 71.7568C75.5916 72.9908 81.9836 69.0008 83.9316 62.7108C86.4416 61.0768 88.4036 58.6039 89.3376 55.5919C92.2536 53.6939 94.4196 50.6508 95.1086 46.9638C95.5076 44.8388 95.3656 42.7349 94.7816 40.7949Z" fill="white"/>
<path d="M24.5146 13.8686C24.9836 11.3556 27.4256 9.65067 29.9726 10.1267C31.6356 10.4377 32.9136 11.6297 33.4846 13.0897L38.3676 26.1597C38.8876 27.5307 39.0296 28.2637 39.3206 29.4857L39.4966 29.5187L42.1006 15.5777C42.4186 13.8797 44.0566 12.7567 45.7896 13.0807C47.4886 13.3977 48.6106 15.0367 48.2936 16.7337L44.5806 36.6207C44.1376 38.9917 41.8266 40.5727 39.4576 40.1307C37.8636 39.8327 36.6436 38.7267 36.1316 37.3487L30.9876 23.7187C30.4856 22.3927 30.1846 21.4877 29.9766 20.3077L29.7996 20.2747L27.1236 34.6047C26.8066 36.3037 25.1266 37.4557 23.4286 37.1377C21.6956 36.8137 20.5436 35.1347 20.8616 33.4357L24.5146 13.8686Z" fill="#00FDFB" stroke="black" stroke-miterlimit="10"/>
<path d="M65.8736 16.5374C74.1176 18.0774 77.9346 24.5024 76.3696 32.8894C74.7966 41.3114 68.8106 45.9054 60.6016 44.3724C52.3576 42.8324 48.5416 36.4074 50.1136 27.9854C51.6736 19.6354 57.6646 15.0044 65.8736 16.5374ZM61.6426 38.9994C65.0386 39.6344 68.0916 37.6044 69.2216 31.5544C70.3516 25.5034 68.2306 22.5444 64.8336 21.9094C61.4366 21.2754 58.3916 23.2694 57.2626 29.3204C56.1316 35.3714 58.2446 38.3664 61.6426 38.9994Z" fill="#00FDFB" stroke="black" stroke-miterlimit="10"/>
<path d="M81.7897 41.3359L82.7797 41.5209C84.4787 41.8379 85.5997 43.4749 85.2837 45.1729C84.9597 46.9069 83.3227 48.0299 81.6237 47.7119L80.6337 47.5269C78.9347 47.2099 77.8137 45.5719 78.1297 43.8739C78.4537 42.1399 80.0907 41.0189 81.7897 41.3359ZM82.7117 22.2839C83.0217 20.6199 84.6587 19.4989 86.3227 19.8089C87.9847 20.1199 89.1077 21.7559 88.7977 23.4189L87.5417 30.1429L85.5187 37.0519C85.1957 38.1989 83.9907 38.9629 82.7887 38.7389C81.5507 38.5079 80.7027 37.3599 80.8197 36.1379L81.4567 29.0059L82.7117 22.2839Z" fill="#00FDFB" stroke="black" stroke-miterlimit="10"/>
<path d="M19.1135 20.9986C19.5825 18.4856 22.0245 16.7806 24.5725 17.2566C26.2355 17.5676 27.5135 18.7596 28.0835 20.2196L32.9665 33.2896C33.4865 34.6606 33.6295 35.3926 33.9205 36.6156L34.0965 36.6486L36.7005 22.7076C37.0175 21.0096 38.6565 19.8866 40.3895 20.2106C42.0875 20.5276 43.2105 22.1666 42.8935 23.8636L39.1795 43.7506C38.7375 46.1216 36.4265 47.7026 34.0565 47.2606C32.4635 46.9626 31.2435 45.8566 30.7315 44.4786L25.5865 30.8486C25.0835 29.5226 24.7825 28.6176 24.5755 27.4376L24.3985 27.4046L21.7225 41.7346C21.4055 43.4336 19.7265 44.5856 18.0275 44.2676C16.2945 43.9436 15.1425 42.2646 15.4605 40.5656L19.1135 20.9986Z" fill="#FB5140" stroke="black" stroke-miterlimit="10"/>
<path d="M60.4736 23.6678C68.7176 25.2078 72.5356 31.6328 70.9686 40.0198C69.3966 48.4418 63.4106 53.0358 55.2016 51.5028C46.9576 49.9628 43.1406 43.5378 44.7136 35.1158C46.2736 26.7658 52.2636 22.1348 60.4736 23.6678ZM56.2416 46.1298C59.6376 46.7648 62.6906 44.7348 63.8206 38.6848C64.9506 32.6338 62.8296 29.6748 59.4326 29.0398C56.0346 28.4058 52.9906 30.3998 51.8606 36.4508C50.7316 42.5018 52.8446 45.4958 56.2416 46.1298Z" fill="#FB5140" stroke="black" stroke-miterlimit="10"/>
<path d="M76.3884 48.4658L77.3794 48.6508C79.0774 48.9678 80.1994 50.6048 79.8824 52.3028C79.5584 54.0368 77.9214 55.1598 76.2234 54.8418L75.2324 54.6568C73.5334 54.3398 72.4124 52.7018 72.7294 51.0038C73.0524 49.2698 74.6894 48.1488 76.3884 48.4658ZM77.3104 29.4128C77.6214 27.7488 79.2584 26.6278 80.9214 26.9378C82.5844 27.2478 83.7064 28.8848 83.3964 30.5478L82.1414 37.2718L80.1184 44.1808C79.7954 45.3278 78.5904 46.0918 77.3874 45.8668C76.1494 45.6358 75.3014 44.4878 75.4194 43.2668L76.0564 36.1348L77.3104 29.4128Z" fill="#FB5140" stroke="black" stroke-miterlimit="10"/>
<path d="M13.7136 28.1284C14.1826 25.6154 16.6246 23.9104 19.1726 24.3864C20.8356 24.6974 22.1136 25.8895 22.6836 27.3495L27.5666 40.4195C28.0866 41.7905 28.2296 42.5234 28.5206 43.7454L28.6966 43.7784L31.3006 29.8375C31.6176 28.1395 33.2566 27.0164 34.9896 27.3404C36.6876 27.6574 37.8106 29.2964 37.4936 30.9934L33.7796 50.8805C33.3376 53.2515 31.0266 54.8324 28.6566 54.3904C27.0636 54.0924 25.8436 52.9865 25.3306 51.6085L20.1866 37.9784C19.6836 36.6524 19.3826 35.7474 19.1756 34.5674L18.9986 34.5344L16.3226 48.8644C16.0056 50.5634 14.3256 51.7155 12.6276 51.3975C10.8946 51.0735 9.74259 49.3945 10.0606 47.6955L13.7136 28.1284Z" fill="white" stroke="black" stroke-miterlimit="10"/>
<path d="M55.0725 30.7977C63.3165 32.3377 67.1335 38.7627 65.5675 47.1497C63.9955 55.5717 58.0095 60.1657 49.8005 58.6327C41.5565 57.0927 37.7385 50.6677 39.3125 42.2457C40.8725 33.8957 46.8625 29.2647 55.0725 30.7977ZM50.8415 53.2597C54.2375 53.8947 57.2905 51.8647 58.4205 45.8147C59.5505 39.7637 57.4295 36.8047 54.0325 36.1697C50.6355 35.5357 47.5905 37.5297 46.4605 43.5807C45.3305 49.6317 47.4435 52.6257 50.8415 53.2597Z" fill="white" stroke="black" stroke-miterlimit="10"/>
<path d="M70.9875 55.5957L71.9785 55.7797C73.6765 56.0967 74.7985 57.7337 74.4815 59.4317C74.1575 61.1657 72.5205 62.2877 70.8225 61.9707L69.8315 61.7857C68.1325 61.4687 67.0115 59.8307 67.3285 58.1327C67.6515 56.3997 69.2885 55.2787 70.9875 55.5957ZM71.9095 36.5427C72.2205 34.8787 73.8575 33.7577 75.5205 34.0677C77.1835 34.3787 78.3055 36.0147 77.9955 37.6777L76.7405 44.4017L74.7175 51.3107C74.3945 52.4577 73.1895 53.2217 71.9855 52.9967C70.7475 52.7657 69.8995 51.6177 70.0175 50.3957L70.6545 43.2637L71.9095 36.5427Z" fill="white" stroke="black" stroke-miterlimit="10"/>
</svg>
