<svg width="147" height="83" viewBox="0 0 147 83" fill="none" xmlns="http://www.w3.org/2000/svg">
<path d="M64.3784 82.6554C60.2314 82.6724 56.2644 82.1664 52.5414 81.1474C48.7704 82.1844 44.7534 82.7344 40.7474 82.7514C17.2334 82.8464 0.0973877 65.5984 0.000387708 41.7384C-0.0946123 18.0374 17.2794 0.0933739 40.4134 0.000373936C43.6574 -0.0126261 46.8494 0.313374 49.9384 0.972374C52.1694 0.468374 54.4514 0.209371 56.7544 0.200371C59.2054 0.190371 61.6264 0.461364 63.9834 1.00536C66.3354 0.442364 68.7534 0.151372 71.2044 0.142372C72.8984 0.135372 74.5944 0.265366 76.2654 0.529366C77.2494 0.430366 78.2404 0.378367 79.2254 0.374367L95.1324 0.310371C96.4184 0.305371 97.7094 0.381369 98.9884 0.536369C100.3 0.370369 101.628 0.284374 102.955 0.278374L115.151 0.229378C132.173 0.160378 146.077 13.9684 146.146 31.0084C146.158 34.0074 145.714 37.0504 144.85 39.9534C146.175 43.4294 146.874 47.1454 146.889 50.8574C146.958 67.8974 133.165 81.8154 116.143 81.8844L103.284 81.9364C100.744 81.9464 98.2534 81.6674 95.8444 81.1044C93.1314 81.8644 90.3404 82.2544 87.5094 82.2654C84.0764 82.2794 80.6454 81.7224 77.3964 80.6384C73.3324 81.9584 68.9704 82.6364 64.3784 82.6554Z" fill="white"/>
<path d="M64.3405 73.2153C60.0795 73.2323 56.1225 72.5703 52.5465 71.2443C48.8905 72.5833 44.8405 73.2943 40.7095 73.3103C22.3735 73.3843 9.51549 60.3853 9.44049 41.6983C9.36649 23.3783 22.6995 9.5093 40.4525 9.4373C43.7715 9.4243 46.9945 9.8543 50.0555 10.7173C52.2305 10.0093 54.4895 9.6453 56.7925 9.6363C59.2825 9.6263 61.7065 10.0243 64.0245 10.8203C66.3335 10.0053 68.7535 9.5883 71.2425 9.5783C72.8475 9.5713 74.4415 9.73829 75.9985 10.0743C77.0785 9.90329 78.1725 9.8143 79.2645 9.8103L95.1725 9.7463C96.4595 9.7413 97.7445 9.85231 99.0085 10.0763C100.313 9.84131 101.649 9.72029 102.994 9.71429L115.19 9.66529C127.008 9.61729 136.66 19.2083 136.708 31.0433C136.719 33.8583 136.161 36.6813 135.086 39.2913C135.131 39.8463 135.155 40.4033 135.157 40.9593C135.157 41.0813 135.157 41.2033 135.156 41.3263C136.647 44.2893 137.438 47.5683 137.451 50.8933C137.499 62.7283 127.924 72.3953 116.107 72.4433L103.248 72.4953C100.59 72.5063 98.0405 72.0773 95.6375 71.2173C93.0455 72.2623 90.2635 72.8133 87.4735 72.8243C83.9845 72.8383 80.5865 72.0363 77.5025 70.4853C73.5645 72.2793 69.1505 73.1963 64.3405 73.2153Z" fill="#FC25B1" stroke="black" stroke-miterlimit="10"/>
<path d="M64.3214 68.4965C59.9494 68.5145 56.0074 67.7255 52.5634 66.1485C49.0074 67.7365 44.9564 68.5745 40.6914 68.5925C24.8884 68.6565 14.2264 57.8415 14.1604 41.6805C14.0974 26.0515 25.4084 14.2195 40.4714 14.1585C43.8544 14.1445 47.1694 14.6745 50.1864 15.7005C52.2794 14.8275 54.5324 14.3675 56.8114 14.3585C59.3304 14.3485 61.7854 14.8775 64.0454 15.9065C66.2934 14.8595 68.7424 14.3105 71.2614 14.3005C72.8284 14.2945 74.3704 14.4955 75.8654 14.9005C76.9874 14.6605 78.1314 14.5375 79.2824 14.5325L95.1904 14.4685C96.4804 14.4635 97.7604 14.6065 99.0104 14.8955C100.308 14.5965 101.648 14.4425 103.013 14.4365L115.209 14.3875C124.423 14.3505 131.951 21.8315 131.988 31.0645C131.998 33.6665 131.401 36.2145 130.248 38.5375C130.37 39.3435 130.433 40.1605 130.437 40.9805C130.439 41.4645 130.42 41.9485 130.38 42.4295C131.895 44.9795 132.719 47.9235 132.731 50.9135C132.768 60.1465 125.301 67.6875 116.087 67.7245L103.228 67.7765C100.485 67.7875 97.8774 67.2015 95.5374 66.0645C93.0624 67.3835 90.2824 68.0945 87.4544 68.1055C83.9254 68.1195 80.5104 67.0545 77.6424 65.1045C73.8624 67.3135 69.3314 68.4755 64.3214 68.4965Z" fill="#8882FE" stroke="black" stroke-miterlimit="10"/>
<path d="M64.3024 63.7762C59.7614 63.7942 55.7924 62.7862 52.6024 60.8302C49.2844 62.7732 45.1254 63.8532 40.6714 63.8712C27.4874 63.9242 18.9344 55.2062 18.8794 41.6602C18.8264 28.5102 27.9144 18.9282 40.4904 18.8772C44.0674 18.8632 47.4834 19.5512 50.4194 20.8512C52.3414 19.7102 54.5524 19.0862 56.8304 19.0762C59.4704 19.0652 61.9834 19.8802 64.0694 21.3262C66.1374 19.8642 68.6414 19.0292 71.2804 19.0182C72.8154 19.0122 74.3214 19.2812 75.7374 19.8092C76.8854 19.4452 78.0874 19.2552 79.3014 19.2502L95.2094 19.1862C96.5054 19.1812 97.7854 19.3862 99.0044 19.7882C100.274 19.3762 101.634 19.1602 103.032 19.1542L115.228 19.1052C121.84 19.0782 127.241 24.4512 127.268 31.0822C127.278 33.4702 126.557 35.7982 125.258 37.7592C125.557 38.8032 125.713 39.8902 125.717 40.9972C125.72 41.8662 125.63 42.7282 125.449 43.5672C127.081 45.6352 128 48.2102 128.011 50.9302C128.038 57.5602 122.68 62.9762 116.068 63.0022L103.209 63.0542C100.217 63.0662 97.5364 62.1112 95.4464 60.4652C93.2704 62.2752 90.4794 63.3702 87.4344 63.3832C83.6534 63.3982 80.2484 61.7412 77.9234 59.1082C74.5414 62.0822 69.8844 63.7542 64.3024 63.7762Z" fill="#FFFE04" stroke="black" stroke-miterlimit="10"/>
<path d="M64.2836 59.0564C59.2286 59.0764 55.2946 57.6214 52.6836 54.8854C49.8596 57.6814 45.2416 59.1324 40.6526 59.1514C30.1776 59.1934 23.6436 52.4844 23.5996 41.6414C23.5566 31.0574 30.5106 23.6374 40.5096 23.5964C44.3086 23.5814 48.1356 24.5654 50.9036 26.5074C52.3526 24.8554 54.4796 23.8054 56.8496 23.7964C60.0786 23.7834 62.8686 25.7184 64.1046 28.4944C65.3086 25.7094 68.0766 23.7514 71.2996 23.7384C72.8936 23.7324 74.3806 24.1984 75.6256 25.0044C76.7066 24.3534 77.9716 23.9764 79.3216 23.9714L95.2296 23.9074C96.6026 23.9014 97.8886 24.2814 98.9866 24.9434C100.129 24.2634 101.51 23.8824 103.053 23.8764L115.249 23.8274C119.259 23.8114 122.534 27.0754 122.551 31.1034C122.561 33.4664 121.436 35.5744 119.69 36.9094C120.51 38.0744 120.994 39.4904 121 41.0194C121.006 42.4224 120.611 43.7354 119.925 44.8484C121.941 46.1354 123.284 48.3884 123.294 50.9534C123.31 54.9804 120.061 58.2714 116.051 58.2874L103.192 58.3394C98.7536 58.3574 95.6426 55.2704 95.6246 50.8334L95.5746 38.3794C95.4796 38.3834 95.2366 38.3864 95.2366 38.3864L95.2866 50.7354C95.3046 55.0924 91.7736 58.6514 87.4176 58.6684C83.0606 58.6864 79.5016 55.1564 79.4836 50.7984L79.4336 38.4504C79.4336 38.4504 79.3006 38.4514 79.2616 38.4504L79.2846 44.2044C79.3206 53.4654 73.7136 59.0184 64.2836 59.0564Z" fill="#09FFC0" stroke="black" stroke-miterlimit="10"/>
<path d="M40.5104 28.3024C44.6304 28.2854 50.2614 29.9694 50.2774 33.9624C50.2844 35.6524 48.9304 36.9844 47.2734 36.9914C44.2254 37.0034 44.7514 33.2894 40.5304 33.3064C37.3824 33.3194 34.9724 35.6814 34.9954 41.2834C35.0184 47.0834 37.5794 49.4254 40.5954 49.4134C45.0164 49.3944 44.3794 45.2554 47.6054 45.2424C49.2954 45.2354 50.6924 46.6224 50.6994 48.3444C50.7164 52.4434 45.0504 54.3994 40.6154 54.4174C32.5294 54.4494 28.3334 49.5614 28.3014 41.6064C28.2694 33.7534 32.9874 28.3324 40.5104 28.3024Z" fill="white" stroke="black" stroke-miterlimit="10"/>
<path d="M53.6485 31.6954C53.6415 29.9384 55.0615 28.5094 56.8505 28.5014C58.6065 28.4944 60.0385 29.9134 60.0445 31.6704L60.0965 44.4634C60.1075 47.2464 61.2755 49.0654 64.1915 49.0534C67.0745 49.0414 68.2265 47.1154 68.2155 44.4314L68.1635 31.6054C68.1565 29.8814 69.5755 28.4514 71.2995 28.4444C73.0555 28.4364 74.4875 29.8554 74.4935 31.5794L74.5445 44.2064C74.5675 49.9734 71.9005 54.2934 64.2455 54.3234C56.3245 54.3554 53.7225 50.1564 53.6985 44.2904L53.6485 31.6954Z" fill="white" stroke="black" stroke-miterlimit="10"/>
<path d="M79.3225 28.6753L95.2305 28.6123C96.6225 28.6063 97.7535 29.7283 97.7595 31.1203C97.7645 32.5133 96.6425 33.6443 95.2505 33.6503L90.4785 33.6703L90.5465 50.7373C90.5535 52.4943 89.1345 53.9233 87.3785 53.9313C85.6225 53.9383 84.1905 52.5193 84.1835 50.7623L84.1155 33.6953L79.3435 33.7153C77.9515 33.7203 76.8195 32.5983 76.8145 31.2053C76.8075 29.8133 77.9305 28.6813 79.3225 28.6753Z" fill="white" stroke="black" stroke-miterlimit="10"/>
<path d="M100.247 31.4083C100.24 29.5853 101.23 28.5873 103.053 28.5803L115.249 28.5303C116.641 28.5243 117.805 29.6803 117.81 31.1053C117.816 32.4983 116.661 33.6613 115.269 33.6673L106.553 33.7023L106.573 38.5743L113.765 38.5463C115.124 38.5403 116.255 39.6623 116.26 41.0223C116.266 42.4143 115.144 43.5453 113.785 43.5513L106.593 43.5793L106.613 48.4513L115.992 48.4143C117.384 48.4083 118.548 49.5623 118.554 50.9553C118.56 52.3803 117.405 53.5453 116.014 53.5513L103.155 53.6033C101.332 53.6103 100.334 52.6203 100.326 50.7963L100.247 31.4083Z" fill="white" stroke="black" stroke-miterlimit="10"/>
</svg>
