<svg width="171" height="85" viewBox="0 0 171 85" fill="none" xmlns="http://www.w3.org/2000/svg">
<path d="M52.582 84.546C47.539 84.546 42.908 83.396 38.955 81.243C36.743 82.85 34.026 83.799 31.093 83.799H13.762C5.78802 83.799 0 78.012 0 70.038V42.848C0 37.093 3.424 32.122 8.341 29.865C9.768 26.754 12.28 24.242 15.392 22.815C16.818 19.706 19.331 17.193 22.44 15.766C23.867 12.655 26.38 10.142 29.491 8.715C31.748 3.797 36.718 0.374001 42.474 0.374001C49.695 0.374001 55.681 5.764 56.621 12.731C57.19 12.279 57.779 11.852 58.388 11.45C63.197 4.131 71.223 0 80.875 0C86.054 0 90.81 1.219 94.84 3.494C97.272 1.543 100.361 0.374001 103.719 0.374001C108.19 0.374001 112.315 2.507 114.935 5.906C117.495 2.475 121.535 0.374001 126.002 0.374001C128.447 0.374001 130.746 1.007 132.745 2.116C134.6 1.233 136.725 0.748001 139.034 0.748001H156.226C163.608 0.748001 169.614 6.775 169.614 14.183C169.614 17.542 168.371 20.616 166.32 22.969C166.997 24.562 167.372 26.314 167.372 28.151C167.372 29.736 167.095 31.257 166.587 32.669C169.033 35.096 170.548 38.457 170.548 42.166C170.548 47.706 167.189 52.474 162.407 54.526C161.046 57.686 158.512 60.221 155.358 61.575C153.998 64.735 151.463 67.271 148.309 68.625C146.948 71.785 144.414 74.32 141.26 75.674C139.205 80.449 134.467 83.8 128.962 83.8H110.837C105.926 83.8 101.844 81.605 99.432 78.056C96.334 81.855 91.619 84.174 86.452 84.174C80.7 84.174 75.449 81.201 72.416 76.484C67.554 81.676 60.636 84.546 52.582 84.546Z" fill="white"/>
<path d="M9.79105 42.8536C9.79105 40.3786 11.8001 38.3696 14.2751 38.3696C16.7511 38.3696 18.7581 40.3786 18.7581 42.8536V66.6746H31.0891C33.0971 66.6746 34.7321 68.3096 34.7321 70.3176C34.7321 72.3726 33.0971 74.0076 31.0891 74.0076H13.76C11.192 74.0076 9.79004 72.6066 9.79004 70.0376V42.8536H9.79105Z" fill="#FFFE04" stroke="black" stroke-miterlimit="10"/>
<path d="M52.6741 37.9966C63.5571 37.9966 69.9551 45.2826 69.9551 56.3526C69.9551 67.4686 63.4161 74.7546 52.5801 74.7546C41.6971 74.7546 35.2991 67.4686 35.2991 56.3526C35.2991 45.3296 41.8381 37.9966 52.6741 37.9966ZM52.6271 67.6556C57.1111 67.6556 60.5201 64.3396 60.5201 56.3526C60.5201 48.3656 57.1111 45.0966 52.6271 45.0966C48.1441 45.0966 44.7331 48.3666 44.7331 56.3526C44.7331 64.3386 48.1431 67.6556 52.6271 67.6556Z" fill="#FFFE04" stroke="black" stroke-miterlimit="10"/>
<path d="M75.5182 38.3697C77.4802 38.3697 79.1612 39.6777 79.6752 41.4527L85.2342 59.8076C85.7482 61.4426 86.0752 62.8906 86.3082 63.9646C86.4482 64.5716 86.5412 65.1786 86.6812 65.6926H86.8692C87.0092 65.1786 87.1022 64.5716 87.2422 63.9646C87.4752 62.8906 87.8022 61.4426 88.3162 59.8076L93.9212 41.2646C94.4352 39.5826 95.9761 38.3687 97.7971 38.3687C100.086 38.3687 101.907 40.1906 101.907 42.4316C101.907 42.8986 101.814 43.3666 101.674 43.7396L93.0332 69.6617C92.1452 72.4177 89.5302 74.3786 86.4472 74.3786C83.4112 74.3786 80.8432 72.3707 79.9082 69.6617L71.3612 44.1126C71.2202 43.6456 71.1282 43.1786 71.1282 42.7116C71.1292 40.3316 73.0902 38.3697 75.5182 38.3697Z" fill="#FFFE04" stroke="black" stroke-miterlimit="10"/>
<path d="M106.865 42.7136C106.865 40.1446 108.266 38.7437 110.835 38.7437H128.023C129.985 38.7437 131.62 40.3787 131.62 42.3867C131.62 44.3477 129.985 45.9827 128.023 45.9827H115.739V52.8486H125.875C127.79 52.8486 129.378 54.4366 129.378 56.3516C129.378 58.3136 127.79 59.9016 125.875 59.9016H115.739V66.7676H128.958C130.92 66.7676 132.555 68.4026 132.555 70.3646C132.555 72.3726 130.92 74.0077 128.958 74.0077H110.835C108.267 74.0077 106.865 72.6067 106.865 70.0377V42.7136Z" fill="#FFFE04" stroke="black" stroke-miterlimit="10"/>
<path d="M16.8401 35.8038C16.8401 33.3288 18.8491 31.3198 21.3241 31.3198C23.7991 31.3198 25.8071 33.3288 25.8071 35.8038V59.6248H38.1381C40.1461 59.6248 41.7811 61.2598 41.7811 63.2678C41.7811 65.3228 40.1461 66.9578 38.1381 66.9578H20.8091C18.2411 66.9578 16.8391 65.5568 16.8391 62.9878V35.8038H16.8401Z" fill="#FC25B1" stroke="black" stroke-miterlimit="10"/>
<path d="M59.7222 30.9468C70.6052 30.9468 77.0032 38.2328 77.0032 49.3028C77.0032 60.4188 70.4642 67.7048 59.6282 67.7048C48.7452 67.7048 42.3472 60.4188 42.3472 49.3028C42.3472 38.2798 48.8862 30.9468 59.7222 30.9468ZM59.6762 60.6058C64.1602 60.6058 67.5692 57.2898 67.5692 49.3028C67.5692 41.3158 64.1602 38.0468 59.6762 38.0468C55.1932 38.0468 51.7822 41.3168 51.7822 49.3028C51.7822 57.2898 55.1922 60.6058 59.6762 60.6058Z" fill="#FC25B1" stroke="black" stroke-miterlimit="10"/>
<path d="M82.567 31.3198C84.529 31.3198 86.21 32.6278 86.724 34.4028L92.283 52.7578C92.797 54.3928 93.124 55.8408 93.357 56.9148C93.497 57.5218 93.59 58.1288 93.73 58.6428H93.918C94.058 58.1288 94.151 57.5218 94.291 56.9148C94.524 55.8408 94.852 54.3928 95.365 52.7578L100.97 34.2158C101.484 32.5338 103.025 31.3198 104.846 31.3198C107.135 31.3198 108.956 33.1418 108.956 35.3828C108.956 35.8498 108.863 36.3178 108.723 36.6908L100.082 62.6128C99.194 65.3688 96.579 67.3298 93.496 67.3298C90.46 67.3298 87.891 65.3218 86.957 62.6128L78.41 37.0638C78.269 36.5968 78.177 36.1298 78.177 35.6628C78.177 33.2818 80.138 31.3198 82.567 31.3198Z" fill="#FC25B1" stroke="black" stroke-miterlimit="10"/>
<path d="M113.914 35.6638C113.914 33.0948 115.315 31.6938 117.884 31.6938H135.073C137.035 31.6938 138.67 33.3288 138.67 35.3368C138.67 37.2978 137.035 38.9328 135.073 38.9328H122.789V45.7999H132.925C134.84 45.7999 136.428 47.3878 136.428 49.3028C136.428 51.2648 134.84 52.8528 132.925 52.8528H122.789V59.7188H136.008C137.97 59.7188 139.605 61.3538 139.605 63.3158C139.605 65.3238 137.97 66.9588 136.008 66.9588H117.885C115.317 66.9588 113.915 65.5578 113.915 62.9888V35.6638H113.914Z" fill="#FC25B1" stroke="black" stroke-miterlimit="10"/>
<path d="M23.8889 28.7535C23.8889 26.2785 25.8979 24.2695 28.3729 24.2695C30.8479 24.2695 32.8559 26.2785 32.8559 28.7535V52.5745H45.1869C47.1949 52.5745 48.8299 54.2095 48.8299 56.2175C48.8299 58.2725 47.1949 59.9075 45.1869 59.9075H27.8599C25.2909 59.9075 23.8889 58.5065 23.8889 55.9375V28.7535Z" fill="#FB5140" stroke="black" stroke-miterlimit="10"/>
<path d="M66.772 23.8965C77.655 23.8965 84.053 31.1825 84.053 42.2525C84.053 53.3685 77.514 60.6545 66.678 60.6545C55.795 60.6545 49.397 53.3685 49.397 42.2525C49.397 31.2295 55.936 23.8965 66.772 23.8965ZM66.725 53.5555C71.209 53.5555 74.618 50.2395 74.618 42.2525C74.618 34.2655 71.209 30.9965 66.725 30.9965C62.242 30.9965 58.831 34.2665 58.831 42.2525C58.831 50.2385 62.242 53.5555 66.725 53.5555Z" fill="#FB5140" stroke="black" stroke-miterlimit="10"/>
<path d="M89.6168 24.2705C91.5788 24.2705 93.2598 25.5785 93.7738 27.3535L99.3328 45.7085C99.8468 47.3435 100.174 48.7915 100.407 49.8655C100.547 50.4725 100.64 51.0795 100.78 51.5935H100.968C101.108 51.0795 101.201 50.4725 101.341 49.8655C101.574 48.7915 101.902 47.3435 102.415 45.7085L108.02 27.1655C108.534 25.4835 110.075 24.2695 111.896 24.2695C114.185 24.2695 116.006 26.0915 116.006 28.3325C116.006 28.7995 115.913 29.2675 115.773 29.6405L107.132 55.5625C106.244 58.3185 103.629 60.2795 100.546 60.2795C97.5098 60.2795 94.9418 58.2715 94.0068 55.5625L85.4598 30.0135C85.3188 29.5465 85.2268 29.0795 85.2268 28.6125C85.2268 26.2315 87.1878 24.2705 89.6168 24.2705Z" fill="#FB5140" stroke="black" stroke-miterlimit="10"/>
<path d="M120.964 28.6136C120.964 26.0446 122.365 24.6436 124.935 24.6436H142.123C144.085 24.6436 145.72 26.2786 145.72 28.2866C145.72 30.2476 144.085 31.8826 142.123 31.8826H129.839V38.7486H139.975C141.89 38.7486 143.478 40.3366 143.478 42.2516C143.478 44.2136 141.89 45.8016 139.975 45.8016H129.839V52.6676H143.058C145.02 52.6676 146.655 54.3026 146.655 56.2646C146.655 58.2726 145.02 59.9076 143.058 59.9076H124.936C122.367 59.9076 120.965 58.5066 120.965 55.9376V28.6136H120.964Z" fill="#FB5140" stroke="black" stroke-miterlimit="10"/>
<path d="M30.939 21.7047C30.939 19.2297 32.948 17.2207 35.423 17.2207C37.899 17.2207 39.906 19.2297 39.906 21.7047V45.5257H52.237C54.245 45.5257 55.88 47.1607 55.88 49.1687C55.88 51.2237 54.245 52.8587 52.237 52.8587H34.908C32.34 52.8587 30.938 51.4577 30.938 48.8887V21.7047H30.939Z" fill="#8882FE" stroke="black" stroke-miterlimit="10"/>
<path d="M73.822 16.8467C84.705 16.8467 91.103 24.1327 91.103 35.2027C91.103 46.3187 84.564 53.6047 73.728 53.6047C62.845 53.6047 56.447 46.3187 56.447 35.2027C56.447 24.1797 62.986 16.8467 73.822 16.8467ZM73.775 46.5057C78.259 46.5057 81.669 43.1897 81.669 35.2027C81.669 27.2157 78.26 23.9467 73.775 23.9467C69.292 23.9467 65.881 27.2167 65.881 35.2027C65.881 43.1887 69.292 46.5057 73.775 46.5057Z" fill="#8882FE" stroke="black" stroke-miterlimit="10"/>
<path d="M96.6671 17.2207C98.6291 17.2207 100.311 18.5287 100.824 20.3037L106.383 38.6587C106.897 40.2937 107.224 41.7417 107.457 42.8157C107.597 43.4227 107.69 44.0297 107.83 44.5437H108.018C108.158 44.0297 108.251 43.4227 108.391 42.8157C108.624 41.7417 108.952 40.2937 109.465 38.6587L115.07 20.1157C115.584 18.4337 117.125 17.2197 118.946 17.2197C121.235 17.2197 123.056 19.0417 123.056 21.2827C123.056 21.7497 122.963 22.2177 122.823 22.5907L114.182 48.5127C113.294 51.2687 110.679 53.2297 107.596 53.2297C104.56 53.2297 101.992 51.2217 101.057 48.5127L92.5101 22.9637C92.3691 22.4967 92.2771 22.0297 92.2771 21.5627C92.2771 19.1827 94.2381 17.2207 96.6671 17.2207Z" fill="#8882FE" stroke="black" stroke-miterlimit="10"/>
<path d="M128.013 21.5638C128.013 18.9948 129.414 17.5938 131.983 17.5938H149.171C151.133 17.5938 152.768 19.2287 152.768 21.2367C152.768 23.1977 151.133 24.8327 149.171 24.8327H136.887V31.6997H147.023C148.938 31.6997 150.526 33.2878 150.526 35.2028C150.526 37.1648 148.938 38.7527 147.023 38.7527H136.887V45.6188H150.106C152.068 45.6188 153.703 47.2538 153.703 49.2158C153.703 51.2238 152.068 52.8587 150.106 52.8587H131.983C129.415 52.8587 128.013 51.4577 128.013 48.8887V21.5638Z" fill="#8882FE" stroke="black" stroke-miterlimit="10"/>
<path d="M37.989 14.6549C37.989 12.1799 39.998 10.1709 42.473 10.1709C44.948 10.1709 46.956 12.1799 46.956 14.6549V38.4759H59.287C61.295 38.4759 62.93 40.1109 62.93 42.1189C62.93 44.1739 61.295 45.8089 59.287 45.8089H41.96C39.391 45.8089 37.989 44.4079 37.989 41.8389V14.6549Z" fill="white" stroke="black" stroke-miterlimit="10"/>
<path d="M80.8721 9.79688C91.7551 9.79688 98.1531 17.0829 98.1531 28.1529C98.1531 39.2689 91.6141 46.5549 80.7781 46.5549C69.8951 46.5549 63.4971 39.2689 63.4971 28.1529C63.4971 17.1299 70.0361 9.79688 80.8721 9.79688ZM80.8251 39.4559C85.3091 39.4559 88.7191 36.1399 88.7191 28.1529C88.7191 20.1659 85.3101 16.8969 80.8251 16.8969C76.3421 16.8969 72.9311 20.1659 72.9311 28.1529C72.9311 36.1399 76.3421 39.4559 80.8251 39.4559Z" fill="white" stroke="black" stroke-miterlimit="10"/>
<path d="M103.717 10.1709C105.679 10.1709 107.361 11.4789 107.874 13.2539L113.433 31.6089C113.947 33.2439 114.274 34.6919 114.507 35.7659C114.647 36.3729 114.74 36.9799 114.88 37.4939H115.068C115.208 36.9799 115.301 36.3729 115.441 35.7659C115.674 34.6919 116.002 33.2439 116.515 31.6089L122.12 13.0669C122.634 11.3849 124.175 10.1709 125.996 10.1709C128.285 10.1709 130.106 11.9929 130.106 14.2349C130.106 14.7019 130.013 15.1689 129.873 15.5429L121.232 41.4649C120.344 44.2209 117.729 46.1819 114.646 46.1819C111.61 46.1819 109.042 44.1739 108.107 41.4649L99.5599 15.9159C99.4189 15.4489 99.3269 14.9819 99.3269 14.5149C99.3269 12.1329 101.288 10.1709 103.717 10.1709Z" fill="white" stroke="black" stroke-miterlimit="10"/>
<path d="M135.063 14.5149C135.063 11.9459 136.464 10.5449 139.034 10.5449H156.221C158.183 10.5449 159.818 12.1799 159.818 14.1879C159.818 16.1489 158.183 17.7839 156.221 17.7839H143.937V24.6499H154.073C155.988 24.6499 157.576 26.2379 157.576 28.1529C157.576 30.1149 155.988 31.7029 154.073 31.7029H143.937V38.5689H157.156C159.118 38.5689 160.753 40.2039 160.753 42.1659C160.753 44.1739 159.118 45.8089 157.156 45.8089H139.034C136.465 45.8089 135.063 44.4079 135.063 41.8389V14.5149Z" fill="white" stroke="black" stroke-miterlimit="10"/>
</svg>
