<svg width="167" height="158" viewBox="0 0 167 158" fill="none" xmlns="http://www.w3.org/2000/svg">
<path d="M23.3791 87.9993C18.1911 85.3663 14.1191 79.7993 12.2091 72.7233C9.12108 61.2823 12.3421 48.2853 20.4171 39.6113C24.2001 35.5483 28.4471 33.3443 32.0691 33.5653C33.8071 33.6703 35.7261 34.7503 36.8431 36.2513C37.3421 36.9203 37.8831 37.9403 37.6361 39.0003L48.4171 41.5213C49.3661 37.4653 48.4091 33.2453 45.7231 29.6393C42.6761 25.5473 37.7021 22.8153 32.7421 22.5153C25.7031 22.0873 18.4481 25.4793 12.3131 32.0683C1.69508 43.4743 -2.54092 60.5653 1.52008 75.6093C4.24708 85.7093 10.3881 93.8233 18.3701 97.8723C19.9831 98.6903 21.6651 99.3203 23.3811 99.7653C32.0961 102.029 41.6571 99.5643 47.1921 93.1663L38.8191 85.9233C35.4781 89.7853 28.6931 90.6953 23.3791 87.9993Z" fill="#475463"/>
<path d="M84.4448 0.00940379C71.8338 -0.442596 59.4838 15.5114 55.9658 23.7494C51.2508 34.7934 50.2388 47.0934 53.1188 58.3834H53.1178C55.3698 67.2164 60.3918 73.2064 66.7868 74.8674C67.5128 75.0564 68.2568 75.1894 69.0158 75.2634C74.3388 75.7884 79.6928 73.3844 84.9278 68.1184C99.1348 53.8254 105.013 30.5854 98.9038 12.8594C95.1598 1.99541 88.2378 0.146404 84.4448 0.00940379ZM77.0768 60.3124C74.3398 63.0654 71.9288 64.4254 70.1038 64.2454C67.2238 63.9624 64.8858 59.7234 63.8478 55.6494C61.5668 46.7014 62.3838 36.9174 66.1498 28.0984C69.3248 20.6624 78.7548 10.8854 84.0498 11.0744C84.2288 11.0814 84.4048 11.1064 84.5788 11.1524C86.0568 11.5364 87.3538 13.3204 88.4388 16.4674C93.1668 30.1894 88.2828 49.0394 77.0768 60.3124Z" fill="#475463"/>
<path d="M131.278 11.1823C126.999 8.7033 122.312 8.52831 118.085 10.6923C111.97 13.8223 106.857 21.6113 102.453 34.5043C99.1287 44.2363 97.2807 53.9623 96.8967 57.8073V57.8083C96.4567 62.2183 96.2487 67.3953 98.0447 72.3603C100.057 77.9243 104.457 82.1063 109.529 83.4243C110.079 83.5673 110.637 83.6763 111.201 83.7503C117.904 84.6243 124.525 80.7963 129.844 72.9723C135.887 64.0843 139.628 53.6193 140.665 42.7073C141.245 36.5913 143.013 17.9803 131.278 11.1823ZM120.686 66.7483C117.921 70.8173 114.909 73.0693 112.633 72.7723C110.983 72.5663 109.268 70.8393 108.456 68.5953C107.416 65.7213 107.581 62.2413 107.913 58.9083C108.868 49.3443 115.788 24.3053 123.129 20.5483C123.777 20.2173 124.418 20.0053 125.728 20.7623C127.816 21.9723 131.101 26.2953 129.641 41.6603C128.781 50.7223 125.684 59.3973 120.686 66.7483Z" fill="#475463"/>
<path d="M138.267 106.85C146.084 84.3295 155.597 62.2485 166.589 41.1225L156.767 36.0125C144.515 59.5605 134.059 84.2725 125.689 109.458L123.659 115.564L161.192 122.042L163.075 111.132L138.267 106.85Z" fill="#475463"/>
<path d="M99.7386 59.9054C100.277 59.5234 113.059 50.2955 104.679 40.5415C96.1226 30.5915 84.5836 42.9044 82.1696 48.6424C82.1696 48.6424 78.2816 33.6604 67.6566 38.6654C57.0656 43.6564 61.4266 55.1584 63.6436 58.1634C63.1336 57.6524 50.6315 45.3225 47.7925 54.4165C45.0375 63.2745 55.8456 69.3604 56.8346 69.8964C55.6526 69.5214 41.1695 65.0244 39.7495 73.3444C38.2675 82.0194 61.5375 85.9375 61.5375 85.9375C65.5665 81.0055 69.5135 76.9974 72.2975 74.3524L72.2996 74.3454C72.2996 74.3454 72.2995 74.3455 72.3065 74.3475C72.8305 74.5745 93.9976 83.6994 107.092 80.3494C110.123 79.5774 112.714 78.1394 114.525 75.7714C124.265 63.0374 115.134 53.7854 99.7386 59.9054Z" fill="#D95445"/>
<path d="M107.09 80.3504C93.9965 83.7004 72.8286 74.5754 72.3046 74.3484C72.3046 74.3484 72.3026 74.3554 72.2956 74.3534C69.5116 76.9984 65.5645 81.0054 61.5355 85.9384C60.3065 87.4434 59.0715 89.0384 57.8565 90.7044L57.8655 90.6884C57.8655 90.6884 48.2725 83.3654 45.6555 93.4684C44.2125 99.0394 45.7286 105.843 48.3516 107.386L48.3655 107.361C44.5445 116.84 43.2395 127.188 47.6545 137.151C60.3785 165.872 102.142 162.114 112.121 142.115C120.649 125.023 119.333 99.3264 107.09 80.3504Z" fill="#EFC94F"/>
<path d="M66.1475 90.2763C66.1475 90.2763 78.2505 119.511 84.4015 113.412C90.5515 107.313 97.8055 94.4563 101.672 100.158C105.539 105.859 112.165 119.221 115.628 114.27C119.803 108.301 125.531 96.5873 124.948 96.7893C124.948 96.7893 78.7245 90.0773 66.1475 90.2763Z" fill="#4F8456"/>
<path d="M104.203 135.262C103.857 135.84 103.464 136.444 103.017 137.055C102.885 137.237 102.745 137.423 102.605 137.609C100.273 140.616 96.6655 143.665 91.2495 144.234C90.9315 144.276 90.6116 144.297 90.2806 144.31C87.6995 144.445 84.7325 144.027 81.3235 142.814C81.0785 142.724 80.8396 142.636 80.5966 142.54C80.3836 142.452 80.1646 142.362 79.9496 142.261C77.0756 140.978 74.5025 138.994 72.2415 136.613C72.0985 136.458 71.9536 136.309 71.8126 136.148C69.8866 134.038 68.1975 131.648 66.7585 129.174C66.6495 128.989 66.5465 128.805 66.4435 128.621C64.7175 125.568 63.3756 122.418 62.4156 119.538C62.3516 119.331 62.2826 119.117 62.2126 118.909C61.4726 116.544 61.0035 114.393 60.8175 112.663C60.7595 112.105 60.7295 111.593 60.7315 111.129C60.7315 111.129 60.7586 111.149 60.8046 111.2C61.1746 111.538 63.0075 113.199 65.9005 115.417C66.0635 115.545 66.2285 115.666 66.3915 115.793C68.5245 117.407 71.1725 119.28 74.2105 121.142C74.3905 121.254 74.5726 121.36 74.7596 121.474C76.8976 122.769 79.2106 124.044 81.6606 125.217C81.8536 125.306 82.0446 125.402 82.2386 125.485C84.8686 126.725 87.6436 127.832 90.5136 128.702C90.7146 128.761 90.9196 128.827 91.1266 128.887C93.7916 129.664 96.5315 130.226 99.2965 130.492C99.5125 130.515 99.7296 130.539 99.9486 130.55C101.294 130.664 102.646 130.701 104 130.653C104 130.653 107.219 130.253 104.203 135.262Z" fill="white"/>
<path d="M96.167 109.613C96.167 109.613 104.008 107.306 107.268 110.304C112.197 114.837 105.165 119.202 99.651 115.927C94.137 112.652 97.455 112.177 99.315 113.153C101.174 114.129 104.935 115.809 105.774 114.018C106.408 112.662 107.102 109.825 96.167 109.613Z" fill="#475463"/>
<path d="M103.018 137.055C102.886 137.237 102.746 137.423 102.606 137.609C101.279 137.552 99.9555 137.431 98.6395 137.305C98.0205 137.242 97.4025 137.18 96.7935 137.107C95.2315 139.692 93.3725 142.089 91.2505 144.234C90.9325 144.276 90.6125 144.297 90.2815 144.31C92.5095 142.133 94.4735 139.686 96.1085 137.021C93.1175 136.643 90.1405 136.086 87.2615 135.2C85.3045 137.872 83.0785 140.344 80.5965 142.54C80.3835 142.452 80.1645 142.362 79.9495 142.261C82.4305 140.091 84.6675 137.655 86.6195 135.001C85.8655 134.753 85.1155 134.492 84.3745 134.195C82.1505 133.31 80.0205 132.213 77.9895 130.959C76.2085 132.977 74.2905 134.867 72.2405 136.612C72.0975 136.457 71.9525 136.308 71.8115 136.147C73.8205 134.437 75.7005 132.589 77.4425 130.62C75.9025 129.644 74.4175 128.584 72.9935 127.442C72.2885 126.879 71.6025 126.295 70.9275 125.694C69.6075 126.922 68.2035 128.069 66.7585 129.173C66.6495 128.988 66.5465 128.804 66.4435 128.62C67.8335 127.554 69.1855 126.453 70.4625 125.266C68.1115 123.104 65.9845 120.712 64.1305 118.123C63.5825 118.622 63.0075 119.094 62.4155 119.536C62.3515 119.329 62.2825 119.115 62.2125 118.907C62.7445 118.496 63.2695 118.062 63.7675 117.609C62.6725 116.029 61.6815 114.377 60.8185 112.661C60.7605 112.103 60.7305 111.591 60.7325 111.127C60.7325 111.127 60.7595 111.147 60.8055 111.198C61.7755 113.283 62.9285 115.271 64.2285 117.166C64.8115 116.611 65.3685 116.029 65.9005 115.415C66.0635 115.543 66.2285 115.664 66.3915 115.791C65.8265 116.456 65.2245 117.085 64.5905 117.686C66.4345 120.286 68.5685 122.679 70.9195 124.841C72.1145 123.692 73.2225 122.475 74.2105 121.141C74.3905 121.253 74.5725 121.359 74.7595 121.473C73.7435 122.839 72.5995 124.093 71.3785 125.268C73.4035 127.07 75.5785 128.702 77.8685 130.141C79.2185 128.574 80.4895 126.928 81.6615 125.216C81.8545 125.305 82.0455 125.401 82.2395 125.484C81.0625 127.22 79.7795 128.883 78.4115 130.471C78.6085 130.594 78.8045 130.724 79.0085 130.842C81.5725 132.359 84.2595 133.528 87.0375 134.427C88.3345 132.611 89.4975 130.701 90.5145 128.7C90.7155 128.759 90.9205 128.825 91.1275 128.885C90.1185 130.881 88.9655 132.8 87.6875 134.621C90.1805 135.38 92.7475 135.929 95.3695 136.29C95.7225 136.342 96.0835 136.39 96.4495 136.44C97.5625 134.55 98.5235 132.561 99.2975 130.491C99.5135 130.514 99.7305 130.538 99.9495 130.549C99.1805 132.627 98.2295 134.625 97.1255 136.531C99.0495 136.783 101.035 137.004 103.018 137.055Z" fill="#475463"/>
<path d="M108.287 65.6665C109.418 67.6905 109.352 70.0155 107.976 71.8805C106.463 73.9325 103.646 74.2904 101.283 74.4564C97.5385 74.7204 93.8795 74.1095 90.3505 72.8775C89.5805 72.6085 89.2665 73.8364 90.0325 74.1034C94.9255 75.8124 101.514 76.8975 106.436 74.6655C110.2 72.9585 111.341 68.5315 109.38 65.0235C108.981 64.3115 107.889 64.9545 108.287 65.6665Z" fill="#475463"/>
<path d="M93.561 71.3665C95.461 71.8745 97.388 72.1495 99.355 72.2035C100.17 72.2255 100.152 70.9585 99.336 70.9365C97.48 70.8855 95.673 70.6185 93.88 70.1405C93.092 69.9295 92.772 71.1555 93.561 71.3665Z" fill="#475463"/>
<path d="M45.3392 74.5095C45.0522 80.2745 53.4652 82.0625 57.7402 82.8315C58.5372 82.9745 58.8622 81.7495 58.0582 81.6055C54.3652 80.9415 46.3612 79.4085 46.6062 74.4915C46.6472 73.6765 45.3802 73.6965 45.3392 74.5095Z" fill="#475463"/>
<path d="M99.2983 44.0445C103.958 49.8715 97.7013 54.9055 93.1193 57.7715C92.4283 58.2035 93.0683 59.2975 93.7613 58.8635C99.2293 55.4435 105.363 49.6125 100.192 43.1465C99.6833 42.5095 98.7943 43.4145 99.2983 44.0445Z" fill="#475463"/>
<path d="M68.7112 46.1795C74.5432 41.3395 79.1362 49.7135 78.7142 54.9155C78.6482 55.7265 79.9152 55.7045 79.9812 54.8965C80.2782 51.2415 78.7432 47.3055 75.9962 44.8345C73.3642 42.4665 70.3412 43.1885 67.8142 45.2855C67.1842 45.8065 68.0882 46.6955 68.7112 46.1795Z" fill="#475463"/>
<path d="M74.17 53.1066C74.982 53.9666 75.396 55.0606 75.386 56.2416C75.379 57.0566 76.646 57.0396 76.653 56.2226C76.666 54.7156 76.097 53.3026 75.064 52.2086C74.503 51.6146 73.612 52.5146 74.17 53.1066Z" fill="#475463"/>
<path d="M55.4605 60.5405C59.2875 61.1925 62.6225 62.8925 65.3795 65.6345C65.9585 66.2105 66.8525 65.3115 66.2735 64.7365C63.3745 61.8535 59.8125 60.0025 55.7785 59.3145C54.9815 59.1785 54.6555 60.4035 55.4605 60.5405Z" fill="#475463"/>
<path d="M55.0915 93.4264C53.2925 92.5944 50.4355 91.7225 49.2125 93.9675C48.6135 95.0665 48.8586 96.0624 49.4636 96.9084C47.5976 98.6424 46.9206 101.801 49.5936 103.231C50.3126 103.616 50.9466 102.519 50.2266 102.133C48.3726 101.14 49.0066 98.9665 50.3096 97.8245C50.8756 98.3215 51.5255 98.7374 52.1075 99.0524C52.8245 99.4404 53.4586 98.3425 52.7406 97.9545C51.6486 97.3635 49.5205 96.1875 50.3275 94.6174C51.1235 93.0704 53.3236 93.9985 54.4586 94.5235C55.1936 94.8635 55.8315 93.7684 55.0915 93.4264Z" fill="#475463"/>
<path d="M82.2503 148.46C85.3513 149.767 88.6103 149.995 91.8513 149.064C92.6343 148.839 92.2933 147.619 91.5073 147.844C88.6163 148.675 85.6612 148.533 82.8832 147.362C82.1402 147.049 81.5003 148.144 82.2503 148.46Z" fill="#475463"/>
<path d="M60.0837 106.904C57.9717 107.609 56.3997 109.303 55.9047 111.482C55.7247 112.276 56.9497 112.598 57.1307 111.801C57.5257 110.063 58.7287 108.691 60.4277 108.124C61.1987 107.866 60.8607 106.645 60.0837 106.904Z" fill="#475463"/>
<path d="M56.0113 106.127C55.6393 106.41 55.4072 106.716 55.2422 107.155C55.1222 107.476 55.3893 107.848 55.6963 107.927C56.0563 108.021 56.3483 107.795 56.4683 107.473C56.5013 107.385 56.5763 107.277 56.6523 107.219C56.9243 107.012 57.0653 106.672 56.8773 106.352C56.7203 106.085 56.2843 105.919 56.0113 106.127Z" fill="#475463"/>
<path d="M91.3416 97.3945C89.4836 99.7845 87.6946 102.222 85.9776 104.715C85.5146 105.388 86.6156 106.015 87.0756 105.348C88.7296 102.945 90.4486 100.591 92.2396 98.2885C92.7346 97.6515 91.8406 96.7525 91.3416 97.3945Z" fill="white"/>
<path d="M84.216 107.409C83.984 107.766 83.752 108.123 83.52 108.48C83.075 109.165 84.175 109.795 84.618 109.113C84.85 108.756 85.082 108.399 85.314 108.042C85.759 107.357 84.659 106.728 84.216 107.409Z" fill="white"/>
<path d="M118.476 101.445C117.275 103.34 116.135 105.27 115.054 107.236C114.661 107.951 115.759 108.584 116.152 107.869C117.233 105.903 118.373 103.973 119.573 102.078C120.011 101.388 118.911 100.758 118.476 101.445Z" fill="white"/>
<path d="M113.516 109.602C113.434 109.867 113.314 110.101 113.161 110.332C112.972 110.617 113.11 111.034 113.393 111.197C113.705 111.377 114.069 111.251 114.259 110.965C114.473 110.642 114.629 110.29 114.743 109.921C114.982 109.141 113.756 108.824 113.516 109.602Z" fill="white"/>
<path d="M131.366 82.0774C130.453 81.8584 129.535 81.6674 128.615 81.4864C129.361 80.6994 130.067 79.8764 130.679 78.9654C131.134 78.2874 130.034 77.6584 129.581 78.3324C129.203 78.8964 128.783 79.4224 128.341 79.9284C128.658 78.4724 128.984 77.0184 129.287 75.5584C129.452 74.7624 128.227 74.4394 128.061 75.2394C127.749 76.7424 127.414 78.2394 127.087 79.7384C126.701 78.9794 126.315 78.2214 125.929 77.4624C125.559 76.7344 124.468 77.3794 124.837 78.1044C125.339 79.0914 125.841 80.0774 126.342 81.0634C125.317 80.8844 124.291 80.7144 123.264 80.5494C122.466 80.4214 122.14 81.6464 122.945 81.7754C123.978 81.9414 125.009 82.1124 126.039 82.2924C125.228 83.0744 124.413 83.8534 123.658 84.6884C123.112 85.2924 124.008 86.1874 124.556 85.5824C125.072 85.0114 125.614 84.4664 126.162 83.9274C125.668 86.0964 125.166 88.2644 124.641 90.4264C124.449 91.2184 125.674 91.5394 125.867 90.7454C126.455 88.3224 127.022 85.8954 127.571 83.4644C128.028 84.3654 128.44 85.2844 128.589 86.2974C128.707 87.1014 129.925 86.7514 129.809 85.9534C129.641 84.8094 129.153 83.7924 128.636 82.7784C129.443 82.9414 130.248 83.1124 131.05 83.3044C131.84 83.4924 132.161 82.2674 131.366 82.0774Z" fill="#8CC7CC"/>
<path d="M40.3467 111.01C39.1417 110.716 37.9307 110.455 36.7157 110.214C37.5457 109.486 38.3867 108.771 39.2537 108.082C39.8927 107.575 38.9868 106.687 38.3558 107.188C37.9078 107.544 37.4717 107.912 37.0337 108.278C37.3697 106.727 37.7097 105.177 38.0387 103.625C38.2077 102.83 36.9818 102.507 36.8128 103.306C36.4458 105.035 36.0687 106.761 35.6937 108.487C35.4557 108.073 35.2318 107.651 34.9858 107.24C34.5668 106.54 33.4737 107.181 33.8937 107.882C34.2917 108.546 34.6607 109.225 35.0387 109.899C33.9437 109.705 32.8457 109.526 31.7417 109.375C30.9437 109.266 30.6157 110.491 31.4227 110.601C32.2767 110.718 33.1277 110.851 33.9757 110.993C32.9577 111.954 31.9628 112.941 31.0028 113.967C30.4458 114.563 31.3427 115.457 31.9007 114.861C32.8927 113.8 33.9227 112.78 34.9777 111.788C34.4067 114.383 33.8277 116.976 33.2387 119.567C33.0587 120.361 34.2837 120.683 34.4647 119.886C35.0577 117.28 35.6397 114.671 36.2147 112.06C36.6577 112.908 37.1007 113.757 37.5147 114.621C37.8677 115.357 38.9577 114.711 38.6067 113.979C38.2297 113.192 37.8237 112.42 37.4217 111.646C38.2927 111.83 39.1617 112.022 40.0267 112.233C40.8197 112.429 41.1407 111.203 40.3467 111.01Z" fill="#8CC7CC"/>
</svg>
