<svg width="233" height="162" viewBox="0 0 233 162" fill="none" xmlns="http://www.w3.org/2000/svg">
<path d="M21.517 111.921C22.93 111.495 24.346 111.079 25.768 110.681C27.409 110.222 29.054 109.785 30.702 109.359L30.723 107.259C30.8 99.5101 31.189 91.7331 31.886 83.9861C35.309 91.7031 39.4 99.1191 44.121 106.187C47.682 105.412 51.253 104.676 54.827 103.956L56.796 50.9811L45.733 50.5701L44.463 84.7311C40.365 76.4571 37.115 67.7821 34.749 58.7881L32.39 49.8181C30.063 50.1991 27.731 50.5261 25.393 50.7221L23.938 59.2671C22.436 68.0881 21.324 77.0161 20.607 85.9701C16.593 76.8981 13.276 67.5231 10.69 57.9321L0 60.8141C4.636 78.0051 11.497 94.5441 20.393 109.969L21.517 111.921Z" fill="#475463"/>
<path d="M65.4031 87.741L65.8461 90.652L76.8071 89.096C75.8321 81.697 75.0001 74.244 74.3051 66.772C77.6051 66.497 80.6221 66.13 83.4291 65.663L83.8201 77.246L94.8851 76.872L93.1491 25.459L82.0841 25.832L83.0511 54.484C80.1531 55.021 76.9461 55.437 73.3861 55.737C72.8021 47.866 72.3671 39.991 72.1011 32.148L61.0361 32.523C61.6571 50.905 63.1471 69.464 65.4661 87.732L65.4031 87.741Z" fill="#475463"/>
<path d="M132.257 0C120.123 21.44 109.886 44.082 101.824 67.35L112.285 70.975C116.055 60.095 120.316 49.356 125.032 38.819C125.853 38.979 126.667 39.136 127.472 39.287C131.593 40.06 135.56 40.692 139.986 40.96L144.874 68.376L155.773 66.433L144.279 1.969C140.279 1.271 136.272 0.61 132.257 0ZM129.845 28.467C131.73 24.559 133.675 20.681 135.685 16.839L137.976 29.689C135.252 29.412 132.623 28.983 129.845 28.467Z" fill="#475463"/>
<path d="M162.58 101.645L173.548 103.154C175.809 86.7131 178.689 71.4201 182.52 55.5051L194.941 59.4271L198.274 48.8701L163.213 37.7991L159.88 48.3561L171.94 52.1641C167.931 68.7111 164.927 84.5741 162.58 101.645Z" fill="#475463"/>
<path d="M219.331 51.203C214.408 49.204 208.46 49.747 203.809 52.619C199.908 55.028 197.478 58.839 197.144 63.073L208.182 63.944C208.251 63.064 209.006 62.422 209.627 62.039C211.227 61.051 213.554 60.806 215.168 61.462C220.104 63.466 222.236 70.088 221.38 75.074C220.188 82.02 214.852 87.561 210.586 90.985C206.887 93.955 202.786 96.435 198.445 99.061C196.06 100.504 193.593 101.996 191.184 103.584C185.467 107.355 177.355 113.424 172.945 122.546L182.913 127.365C185.364 122.294 189.929 117.674 197.28 112.827C199.508 111.357 201.775 109.986 204.175 108.534C208.634 105.837 213.244 103.048 217.516 99.619C225.774 92.989 230.883 85.15 232.291 76.947C234.165 66.031 228.594 54.964 219.331 51.203Z" fill="#475463"/>
<path d="M169.01 129.843L166.326 136.766L176.65 140.768L179.333 133.846L169.01 129.843Z" fill="#475463"/>
<path d="M157.935 116.903C157.568 110.464 151.936 111.387 149.286 112.185C148.93 109.199 148.482 106.28 147.983 103.507C146.506 95.2638 144.597 88.2898 143.496 84.5808C143.496 84.5808 130.306 82.5808 117.545 77.8838C106.527 85.4698 76.5531 108.178 74.5481 131.979C72.0891 161.176 126.082 171.07 142.728 151.482C147.488 145.884 149.513 137.783 149.982 129.07C153.424 126.693 158.246 122.363 157.935 116.903Z" fill="#EFC94F"/>
<path d="M154.326 93.5619C154.326 93.5619 158.914 104.262 147.99 103.509L147.983 103.508C146.506 95.2649 144.597 88.2909 143.496 84.5819C143.496 84.5819 130.306 82.5819 117.545 77.8849C108.737 74.6459 100.141 70.1299 96.2295 64.1049C86.6645 49.3449 104.918 47.0369 110.648 52.3519C110.648 52.3519 110.363 38.9419 122.468 39.0809C134.574 39.2129 132.429 51.8399 132.429 51.8399C132.429 51.8399 136.326 44.5759 144.764 46.0679C153.202 47.5659 150.571 55.6169 148.296 58.9859C148.296 58.9859 163.986 53.1879 169.187 63.7739C169.187 63.7739 172.663 71.6049 158.985 74.2839C159.469 74.2629 169.607 73.9709 171.006 81.9969C172.438 90.2239 159.686 93.8709 154.326 93.5619Z" fill="#D95445"/>
<path d="M114.72 144.798C113.898 148.738 113.075 151.676 112.805 152.524C112.805 152.524 95.9978 136.017 81.0928 137.518C81.0928 137.518 81.7748 135.292 83.1748 132.135C86.5618 124.504 94.1678 111.425 106.594 111.151C116.132 110.941 117.475 122.125 116.523 132.956C116.16 137.192 115.438 141.374 114.72 144.798Z" fill="#475463"/>
<path d="M114.72 144.798C103.553 134.905 89.1438 132.649 83.1738 132.135C83.1738 132.135 103.17 117.89 116.522 132.956C116.16 137.192 115.438 141.374 114.72 144.798Z" fill="#D95445"/>
<path d="M114.723 144.796C113.9 148.741 113.073 151.673 112.803 152.525C112.803 152.525 110.816 150.573 107.6 148.069C107.426 147.933 107.245 147.796 107.058 147.658C105.632 146.566 103.997 145.389 102.195 144.239C102.017 144.122 101.833 144.004 101.648 143.891C99.9528 142.826 98.1288 141.794 96.2198 140.875C96.0358 140.789 95.8478 140.696 95.6578 140.609C94.0098 139.842 92.2998 139.167 90.5628 138.635C90.3618 138.572 90.1538 138.513 89.9518 138.456C88.4718 138.03 86.9698 137.723 85.4718 137.565C85.2578 137.538 85.0428 137.517 84.8258 137.502C83.5768 137.39 82.3258 137.394 81.0908 137.517C81.0908 137.517 81.7718 135.292 83.1768 132.133C84.2878 132.225 85.6818 132.384 87.2968 132.641C87.5168 132.669 87.7408 132.711 87.9728 132.748C89.3858 132.981 90.9508 133.294 92.6148 133.702C92.8298 133.755 93.0458 133.809 93.2608 133.868C94.9898 134.308 96.8268 134.852 98.7098 135.534C98.9158 135.605 99.1198 135.682 99.3308 135.76C101.006 136.383 102.714 137.103 104.43 137.953C104.619 138.046 104.814 138.141 105.001 138.241C106.578 139.04 108.15 139.94 109.693 140.957C109.872 141.068 110.049 141.191 110.227 141.308C111.765 142.353 113.268 143.512 114.723 144.796Z" fill="white"/>
<path d="M124.893 93.4249C124.893 93.4249 116.963 98.7869 118.658 107.008C120.353 115.229 135.827 114.992 136.94 105.442C138.053 95.8919 132.045 88.5939 124.893 93.4249Z" fill="white"/>
<path d="M123.284 103.693C123.284 103.693 120.639 105.63 121.08 108.146C121.521 110.662 124.135 110.24 124.845 109.156C125.555 108.072 126.284 106.081 125.782 104.161C125.28 102.241 123.284 103.693 123.284 103.693Z" fill="#475463"/>
<path d="M101.747 99.1159C101.747 99.1159 99.6309 92.3909 106.414 87.5649C113.197 82.7389 118.872 87.5469 118.729 92.2699C118.624 95.7479 116.438 104.435 109.353 104.038C102.731 103.667 101.747 99.1159 101.747 99.1159Z" fill="white"/>
<path d="M105.84 94.1889C105.84 94.1889 102.768 96.3769 103.419 98.5669C104.07 100.757 106.264 99.8999 107.262 98.8769C108.26 97.8539 109.074 95.6539 108.765 94.6309C108.456 93.6089 107.015 93.4709 105.84 94.1889Z" fill="#475463"/>
<path d="M76.6022 119.909C76.6022 119.909 68.4202 120.008 68.3162 122.394C68.2122 124.781 78.4952 122.667 81.5512 122.559C84.6082 122.453 81.6312 119.394 76.6022 119.909Z" fill="#8CC7CC"/>
<path d="M95.776 116.418C95.776 116.418 93.458 108.701 90.161 110.004C87.54 111.039 91.154 114.853 95.776 116.418Z" fill="#8CC7CC"/>
<path d="M74.1355 146.032C74.1355 146.032 70.1855 148.085 70.8485 150.714C71.5125 153.343 79.2305 145.474 74.1355 146.032Z" fill="#8CC7CC"/>
<path d="M97.909 128.435C97.909 128.435 93.994 123.288 91.846 125.478C89.699 127.668 93.446 130.677 97.909 128.435Z" fill="#8CC7CC"/>
<path d="M127.125 89.017C127.125 89.017 142.197 87.492 148.369 91.926C154.542 96.36 130.912 89.505 127.125 89.017Z" fill="#475463"/>
<path d="M121.47 86.6368C121.47 86.6368 112.752 80.9778 108.67 79.5488C104.589 78.1198 106.53 75.1158 110.168 76.6328C113.807 78.1498 118.886 82.9508 121.47 86.6368Z" fill="#475463"/>
<path d="M115.236 105.491C115.236 105.491 110.201 100.483 105.59 102.22C100.979 103.957 103.331 109.576 112.233 109.266C112.233 109.266 112.938 108.371 111.697 108.111C110.456 107.851 107.453 107.343 107.415 105.936C107.378 104.53 112.898 103.986 115.236 105.491Z" fill="#475463"/>
<path d="M154.083 116.749C153.782 114.296 150.691 114.746 149.006 115.254C148.225 115.489 148.652 116.682 149.433 116.447C150.519 116.12 153.469 115.6 152.707 117.662C152.204 119.021 150.717 119.538 149.452 119.935C148.674 120.179 149.101 121.372 149.879 121.128C150.38 120.971 150.923 120.765 151.447 120.506C152.049 122.661 150.018 124.284 148.068 124.919C147.292 125.171 147.718 126.365 148.495 126.112C151.132 125.254 153.703 122.752 152.561 119.834C153.547 119.101 154.249 118.098 154.083 116.749Z" fill="#475463"/>
<path d="M106.837 55.3638C102.201 54.4058 98.5034 58.1748 100.567 62.7778C103.314 68.9018 112.471 70.4598 118.234 71.6918C119.032 71.8628 119.265 70.6168 118.467 70.4468C114.552 69.6098 110.532 68.7798 106.958 66.9028C105.216 65.9878 103.458 64.8508 102.3 63.2288C99.7123 59.6028 102.489 55.7598 106.604 56.6098C107.402 56.7738 107.636 55.5288 106.837 55.3638Z" fill="#475463"/>
<path d="M111.913 65.6749C113.165 66.1999 114.441 66.6519 115.742 67.0379C116.523 67.2699 116.75 66.0229 115.975 65.7929C114.782 65.4379 113.616 65.0169 112.468 64.5359C111.719 64.2219 111.161 65.3599 111.913 65.6749Z" fill="#475463"/>
<path d="M120.372 47.7329C118.052 51.6989 117.113 56.5109 120.447 60.1929C120.994 60.7969 121.818 59.8329 121.277 59.2359C118.342 55.9939 119.532 51.6709 121.511 48.2889C121.923 47.5839 120.781 47.0329 120.372 47.7329Z" fill="#475463"/>
<path d="M161.924 79.9509C162.639 80.8779 163.543 82.1299 163.503 83.3589C163.423 85.8329 161.794 86.8639 159.776 87.6829C157.242 88.7109 154.564 89.2319 151.845 89.4229C151.032 89.4799 151.136 90.7429 151.951 90.6859C155.549 90.4339 160.406 89.7399 163.198 87.2079C165.702 84.9379 164.794 81.6009 162.97 79.2359C162.473 78.5919 161.424 79.3039 161.924 79.9509Z" fill="#475463"/>
<path d="M155.634 84.4389C154.356 84.9899 153.041 85.3629 151.661 85.5469C150.856 85.6539 150.955 86.9179 151.767 86.8099C153.25 86.6129 154.686 86.2259 156.061 85.6329C156.806 85.3109 156.386 84.1149 155.634 84.4389Z" fill="#475463"/>
<path d="M145.204 65.146C149.7 62.169 159.853 59.037 163.311 65.193C163.711 65.905 164.754 65.184 164.357 64.478C160.534 57.673 149.578 60.731 144.489 64.101C143.807 64.552 144.523 65.597 145.204 65.146Z" fill="#475463"/>
<path d="M135.832 54.8298C137.085 53.2638 138.816 52.2268 140.803 51.9168C141.603 51.7918 141.506 50.5278 140.697 50.6538C138.389 51.0148 136.337 52.1718 134.874 53.9998C134.366 54.6358 135.322 55.4678 135.832 54.8298Z" fill="#475463"/>
<path d="M87.3917 143.931C94.2967 146.208 101.35 149.656 106.741 154.615C107.343 155.168 108.171 154.209 107.571 153.658C102.003 148.536 94.7447 145.034 87.6247 142.686C86.8537 142.431 86.6277 143.679 87.3917 143.931Z" fill="#475463"/>
<path d="M95.2389 152.221C96.2679 152.765 97.2959 153.308 98.3239 153.851C99.0459 154.233 99.5999 153.093 98.8799 152.712C97.8519 152.168 96.8229 151.625 95.7949 151.081C95.0719 150.701 94.5189 151.841 95.2389 152.221Z" fill="#475463"/>
<path d="M142.292 127.01C142.154 137.135 138.897 147.485 129.787 152.949C129.086 153.369 129.805 154.413 130.502 153.995C140.007 148.294 143.41 137.468 143.555 126.905C143.566 126.09 142.303 126.199 142.292 127.01Z" fill="white"/>
<path d="M142.363 120.313C142.48 120.972 142.549 121.635 142.57 122.304C142.595 123.119 143.858 123.013 143.833 122.198C143.812 121.529 143.744 120.867 143.626 120.207C143.566 119.87 143.305 119.598 142.942 119.629C142.624 119.655 142.302 119.974 142.363 120.313Z" fill="white"/>
<path d="M99.3312 135.762C98.0852 137.352 97.0562 139.061 96.2202 140.876C96.0362 140.79 95.8482 140.697 95.6582 140.61C96.4802 138.805 97.4922 137.119 98.7102 135.536C98.9152 135.606 99.1202 135.684 99.3312 135.762Z" fill="#475463"/>
<path d="M105.001 138.243C103.845 140.147 102.911 142.137 102.195 144.239C102.017 144.122 101.833 144.004 101.648 143.891C102.366 141.815 103.29 139.842 104.43 137.955C104.619 138.049 104.814 138.143 105.001 138.243Z" fill="#475463"/>
<path d="M110.228 141.311C109.125 143.482 108.245 145.734 107.601 148.069C107.427 147.933 107.246 147.796 107.059 147.658C107.717 145.352 108.593 143.118 109.694 140.959C109.873 141.07 110.05 141.193 110.228 141.311Z" fill="#475463"/>
<path d="M93.2602 133.869C92.2162 135.381 91.3192 136.966 90.5622 138.635C90.3612 138.572 90.1532 138.513 89.9512 138.456C90.7012 136.792 91.5842 135.211 92.6152 133.703C92.8302 133.757 93.0462 133.81 93.2602 133.869Z" fill="#475463"/>
<path d="M87.9732 132.749C86.9712 134.276 86.1362 135.878 85.4722 137.565C85.2582 137.538 85.0432 137.517 84.8262 137.502C85.4862 135.802 86.3052 134.183 87.2972 132.642C87.5172 132.67 87.7412 132.712 87.9732 132.749Z" fill="#475463"/>
</svg>
