<svg width="205" height="147" viewBox="0 0 205 147" fill="none" xmlns="http://www.w3.org/2000/svg">
<path d="M53.039 57.707L42.344 60.569C45.461 72.211 49.086 83.796 53.174 95.19C47.478 90.251 42.226 84.808 37.464 78.902L33.907 74.491C31.495 76.279 29.164 78.197 26.677 79.839L35.729 111.649C26.036 102.391 16.982 92.446 8.69098 81.94L0 88.799C11.829 103.788 25.152 117.674 39.639 130.126C40 129.831 40.357 129.53 40.719 129.237C43.814 126.737 46.975 124.323 50.174 121.96L44.609 102.403C49.585 106.829 54.885 110.891 60.474 114.573C61.593 113.789 62.713 113.006 63.835 112.226C65.865 110.814 67.899 109.406 69.93 107.995C63.284 91.655 57.599 74.743 53.039 57.707Z" fill="#475463"/>
<path d="M193.967 17.897L188.107 57.252C182.389 46.627 177.33 35.626 173.002 24.395L172.973 24.32C172.449 24.268 171.927 24.209 171.402 24.164C168.541 23.922 165.616 23.784 162.736 24.025L162.487 24.96C160.173 33.643 158.509 42.474 157.506 51.382C153.328 41.651 149.54 31.739 146.182 21.743L135.687 25.269C141.066 41.278 147.527 57.068 154.896 72.287C157.158 71.964 159.429 71.699 161.691 71.454C163.609 71.246 165.527 71.038 167.445 70.831C167.488 62.105 168.197 53.403 169.573 44.8C173.381 53.154 177.581 61.34 182.137 69.301C187.28 68.793 192.428 68.322 197.585 67.924C197.628 67.921 197.67 67.918 197.713 67.915L204.917 19.527L193.967 17.897Z" fill="#475463"/>
<path d="M62.8954 72.3111C65.9674 76.8921 70.1574 81.9581 77.9544 84.7961C85.2194 87.4401 95.0034 87.3851 103.553 84.7511C104.404 84.4891 105.244 84.2011 106.067 83.8881C121.212 78.1261 126.814 66.6071 128.806 60.2551C133.278 45.9861 131.485 32.3571 123.618 20.8401C112.624 4.74607 98.5494 -2.08093 81.7824 0.549066C65.6464 3.08107 58.6024 11.9761 55.5334 18.9921C47.0864 38.3021 58.1364 65.2111 62.8954 72.3111ZM65.6764 23.4301C68.5664 16.8221 74.3974 12.9151 83.4984 11.4881C95.8504 9.55006 105.983 14.6521 114.476 27.0851C120.362 35.7011 121.663 46.0271 118.241 56.9441C116.849 61.3821 112.906 69.4411 102.13 73.5411C94.4554 76.4591 86.3584 76.0731 81.7414 74.3931C77.2174 72.7461 74.6124 69.9051 72.0924 66.1471C67.9084 59.9051 59.6004 37.3191 65.6764 23.4301Z" fill="#475463"/>
<path d="M120.206 57.025L120.2 57.027C110.166 65.64 97.5154 70.391 86.5244 72.093C73.2204 74.142 62.3374 71.716 61.4554 66.2299C59.8694 56.3549 72.1834 56.714 72.5384 56.722C72.1844 56.514 62.1754 50.543 66.0034 42.89C70.4044 34.074 82.2864 42.813 82.2864 42.813C82.2864 42.813 81.7464 25.721 90.2794 24.638C98.8214 23.559 98.9344 34.225 98.9344 34.225C98.9344 34.225 103.688 24.563 110.244 26.06C116.792 27.553 113.889 34.852 113.889 34.852C113.889 34.852 120.145 29.844 123.758 34.254C126.704 37.863 122.724 40.95 121.165 41.954C126.138 39.277 141.485 38.757 120.206 57.025Z" fill="#D95445"/>
<path d="M144.902 66.3349C140.698 64.5399 138.627 68.6229 137.81 70.9789C132.538 65.6709 126.549 60.8979 120.2 57.0259C110.166 65.6389 97.5152 70.3899 86.5242 72.0919C85.5472 76.2399 84.1992 82.7949 83.3582 90.3299V90.3229C83.3582 90.3229 75.2502 86.3569 74.2182 93.3939C73.3072 99.6059 79.5952 105.31 82.6682 107.693C83.1662 119.131 85.8862 130.475 93.2142 137.879C113.351 158.244 153.839 136.392 157.653 118.035C159.91 107.168 155.839 94.7489 148.083 83.3549C150.592 78.6289 150.036 68.5269 144.902 66.3349Z" fill="#EFC94F"/>
<path d="M123.867 75.116C123.867 75.116 125.678 65.863 132.087 67.924C139.465 70.297 130.763 90.284 130.763 90.284C130.763 90.284 122.92 88.414 116.953 83.053C111.441 78.1 115.742 70.87 123.867 75.116Z" fill="#D95445"/>
<path d="M93.8941 84.3459C93.8941 84.3459 96.5821 75.7599 102.58 78.8179C109.976 82.5879 100.791 99.5139 100.791 99.5139C100.791 99.5139 94.3831 99.1499 86.9811 92.2829C81.5481 87.2439 87.2901 75.8079 93.8941 84.3459Z" fill="#D95445"/>
<path d="M117.199 91.529C117.199 91.529 119.137 91.019 119.012 92.5C118.87 94.178 110.169 98.234 108.118 95.775C106.067 93.316 109.513 86.682 116.257 88.272C116.257 88.272 110.16 90.064 110.171 92.805C110.183 96.04 115.554 91.538 117.199 91.529Z" fill="#475463"/>
<path d="M112.281 70.3141C112.281 70.3141 118.743 63.4211 125.89 63.7051C133.037 63.9871 113.933 70.6551 112.281 70.3141Z" fill="#475463"/>
<path d="M102.726 73.015C102.726 73.015 89.2543 72.5941 87.8613 76.0351C86.1703 80.2131 98.5863 74.967 102.726 73.015Z" fill="#475463"/>
<path d="M128.921 97.008C128.921 97.008 128.248 95.457 131.891 93.748C135.534 92.04 136.991 90.829 138.037 89.964C139.083 89.098 140.403 88.828 141.005 90.046C141.607 91.264 140.121 92.763 138.388 93.749C136.654 94.736 130.082 99.787 128.921 97.008Z" fill="#E48BA4"/>
<path d="M91.7132 104.745C91.7132 104.745 91.8922 103.071 96.3532 103.496C100.045 103.848 102.525 102.358 104.179 102.455C105.842 102.553 106.927 105.607 103.475 106.022C100.024 106.437 90.9252 108.455 91.7132 104.745Z" fill="#E48BA4"/>
<path d="M147.393 101.537C147.926 105.841 147.837 111.398 145.502 116.757C142.698 123.212 136.615 129.388 124.414 132.732C117.75 134.557 112.279 134.345 107.807 132.965C100.538 130.722 95.9115 125.39 93.1165 120.658C90.3825 116.032 89.3975 111.985 89.3975 111.985C89.3975 111.985 112.376 118.919 145.564 93.7849C145.564 93.7849 146.83 96.9529 147.393 101.537Z" fill="#475463"/>
<path d="M145.504 116.757C142.7 123.212 136.617 129.388 124.416 132.732C117.752 134.557 112.281 134.345 107.809 132.965C111.958 126.626 123.454 113.377 145.504 116.757Z" fill="#D95445"/>
<path d="M147.391 101.535C145.936 102.513 144.494 103.448 143.065 104.339C142.886 104.447 142.707 104.555 142.528 104.663C140.807 105.723 139.105 106.718 137.426 107.639C137.245 107.741 137.059 107.845 136.878 107.947C134.857 109.047 132.874 110.055 130.927 110.986C130.737 111.078 130.544 111.164 130.354 111.255C128.298 112.22 126.286 113.091 124.323 113.881C124.127 113.955 123.933 114.034 123.738 114.114C121.597 114.952 119.512 115.694 117.502 116.333C117.298 116.402 117.1 116.47 116.898 116.525C114.7 117.222 112.587 117.806 110.568 118.289C110.371 118.337 110.173 118.384 109.982 118.43C107.701 118.967 105.548 119.378 103.527 119.702C103.312 119.735 103.103 119.766 102.894 119.798C100.519 120.158 98.3344 120.38 96.3664 120.509C96.1454 120.524 95.9314 120.537 95.7164 120.55C94.7994 120.607 93.9334 120.635 93.1174 120.655C90.3824 116.036 89.3994 111.984 89.3994 111.984C89.3994 111.984 91.3214 112.565 94.8534 112.777C95.0574 112.794 95.2674 112.809 95.4814 112.815C97.2164 112.897 99.2944 112.887 101.685 112.687C101.9 112.674 102.112 112.655 102.323 112.63C104.102 112.467 106.048 112.199 108.149 111.79C108.354 111.747 108.56 111.703 108.771 111.658C110.617 111.282 112.582 110.796 114.65 110.172C114.856 110.109 115.058 110.053 115.257 109.992C117.291 109.366 119.424 108.609 121.657 107.703C121.851 107.623 122.051 107.542 122.252 107.46C124.05 106.714 125.905 105.871 127.819 104.917C128.008 104.819 128.198 104.727 128.393 104.628C130.246 103.693 132.147 102.657 134.097 101.499C134.278 101.397 134.462 101.287 134.647 101.177C136.187 100.259 137.757 99.2649 139.352 98.2039C139.529 98.0899 139.704 97.9699 139.879 97.8489C141.735 96.6009 143.632 95.2479 145.561 93.7859C145.561 93.7859 146.829 96.9549 147.391 101.535Z" fill="white"/>
<path d="M129.888 71.485C130.82 73.697 130.705 76.022 130.532 78.365C130.472 79.178 131.739 79.133 131.799 78.327C131.98 75.869 132.074 73.427 131.099 71.112C130.786 70.368 129.572 70.733 129.888 71.485Z" fill="white"/>
<path d="M130.116 80.352C130.102 80.378 130.089 80.404 130.075 80.429C129.693 81.151 130.813 81.743 131.195 81.021C131.209 80.995 131.222 80.969 131.236 80.944C131.618 80.223 130.498 79.63 130.116 80.352Z" fill="white"/>
<path d="M100.902 82.1191C102.125 84.4851 101.321 87.0691 100.56 89.4411C100.31 90.2191 101.546 90.5021 101.794 89.7301C102.683 86.9621 103.376 84.1561 101.971 81.4381C101.596 80.7141 100.529 81.3981 100.902 82.1191Z" fill="white"/>
<path d="M99.6342 92.0301C99.6402 92.0531 99.6461 92.0761 99.6521 92.0981C99.6671 91.9371 99.6822 91.7761 99.6982 91.6151C99.6872 91.6361 99.6752 91.6561 99.6642 91.6771C99.2692 92.3921 100.389 92.9841 100.784 92.2691C100.899 92.0621 100.904 91.8791 100.846 91.6561C100.638 90.8681 99.4282 91.2431 99.6342 92.0301Z" fill="white"/>
<path d="M145.61 73.371C145.888 71.819 145.678 70.084 144.231 69.421C142.117 68.453 140.123 71.062 139.511 72.755C139.234 73.522 140.471 73.802 140.745 73.044C141.081 72.116 142.69 69.725 143.906 70.737C144.952 71.608 144.367 73.708 143.868 74.686C143.497 75.413 144.616 76.006 144.988 75.278C145.096 75.067 145.198 74.828 145.29 74.572C146.853 74.827 146.104 77.012 145.405 77.824C144.874 78.44 145.804 79.301 146.338 78.681C147.16 77.727 147.741 76.522 147.431 75.239C147.198 74.282 146.507 73.604 145.61 73.371Z" fill="#475463"/>
<path d="M82.7527 92.9239C81.7897 92.3959 80.7627 91.9849 79.6957 92.4999C78.6807 92.9899 78.0817 94.0909 77.9577 95.1769C77.7517 96.9769 78.7067 98.0919 80.0167 98.8319C79.4987 99.5139 79.3237 100.23 79.5867 101.17C79.9067 102.314 80.6277 103.293 81.5667 104.005C82.2107 104.494 83.0757 103.566 82.4237 103.072C81.8327 102.624 81.3547 102.104 81.0347 101.426C80.6497 100.61 80.6437 100.028 81.2107 99.3819C81.7637 99.5899 82.3337 99.7589 82.8797 99.8989C83.6717 100.102 83.9577 98.8679 83.1687 98.6649C81.7957 98.3129 79.8447 97.9289 79.3187 96.3899C79.0497 95.6029 79.2027 94.5489 79.8207 93.9539C80.6137 93.1899 81.3867 93.6189 82.1597 94.0429C82.8767 94.4359 83.4687 93.3159 82.7527 92.9239Z" fill="#475463"/>
<path d="M123.996 138.275C128.567 137.751 132.743 136.189 136.511 133.546C137.176 133.08 136.5 132.008 135.829 132.478C132.248 134.99 128.306 136.51 123.958 137.009C123.153 137.101 123.186 138.368 123.996 138.275Z" fill="#475463"/>
<path d="M66.3918 63.029C65.9888 67.775 70.8238 69.23 74.6278 69.82C79.9448 70.645 85.2928 70.269 90.4858 68.915C91.2758 68.709 90.9008 67.4989 90.1128 67.7039C86.4898 68.6489 82.7998 69.118 79.0528 68.98C75.3168 68.843 67.2018 68.355 67.6578 62.991C67.7268 62.18 66.4598 62.226 66.3918 63.029Z" fill="#475463"/>
<path d="M85.8863 66.511C86.9433 66.638 87.9693 66.601 89.0143 66.395C89.8133 66.238 89.4343 65.028 88.6413 65.184C87.8323 65.343 86.9943 65.376 86.1753 65.277C85.3733 65.181 85.0773 66.413 85.8863 66.511Z" fill="#475463"/>
<path d="M72.3006 49.4169C73.7696 53.3829 77.2226 56.2199 81.4296 56.7869C82.2326 56.8949 82.5266 55.6619 81.7186 55.5529C77.9626 55.0459 74.8336 52.6139 73.5116 49.0439C73.2296 48.2819 72.0166 48.6499 72.3006 49.4169Z" fill="#475463"/>
<path d="M88.1174 30.4089C86.5524 33.6139 85.8884 37.0749 86.1884 40.6299C86.2564 41.4409 87.5234 41.4059 87.4554 40.5919C87.1734 37.2439 87.7624 34.0209 89.2384 31.0009C89.5944 30.2689 88.4764 29.6739 88.1174 30.4089Z" fill="#475463"/>
<path d="M123.071 45.102C124.685 45.438 125.183 46.185 124.567 47.342C124.369 47.723 124.127 48.072 123.84 48.389C123.397 48.925 122.867 49.401 122.357 49.872C121.045 51.086 119.628 52.179 118.216 53.272C117.577 53.766 118.251 54.841 118.897 54.34C120.31 53.246 121.727 52.151 123.051 50.949C124.128 49.971 125.419 48.861 125.895 47.432C126.624 45.245 124.843 43.519 122.697 43.891C121.897 44.03 122.277 45.24 123.071 45.102Z" fill="#475463"/>
<path d="M110.968 32.083C111.073 32.738 110.989 33.352 110.672 33.938C110.284 34.656 111.404 35.249 111.792 34.531C112.202 33.772 112.371 32.901 112.235 32.046C112.181 31.709 111.956 31.42 111.583 31.431C111.275 31.44 110.914 31.743 110.968 32.083Z" fill="#475463"/>
<path d="M117.502 116.333C117.298 116.402 117.1 116.47 116.898 116.525C116.02 114.449 115.269 112.334 114.65 110.172C114.856 110.109 115.058 110.053 115.257 109.992C115.876 112.148 116.626 114.263 117.502 116.333Z" fill="#475463"/>
<path d="M124.324 113.881C124.128 113.955 123.934 114.034 123.739 114.114C122.946 112.012 122.254 109.872 121.658 107.702C121.852 107.622 122.052 107.541 122.253 107.459C122.845 109.638 123.537 111.777 124.324 113.881Z" fill="#475463"/>
<path d="M130.928 110.986C130.738 111.078 130.545 111.164 130.355 111.255C129.423 109.176 128.444 107.071 127.82 104.917C128.009 104.819 128.199 104.727 128.394 104.628C129.007 106.792 129.988 108.902 130.928 110.986Z" fill="#475463"/>
<path d="M137.428 107.639C137.247 107.741 137.061 107.845 136.88 107.947C135.901 105.823 134.975 103.675 134.099 101.499C134.28 101.397 134.464 101.287 134.649 101.177C135.519 103.355 136.447 105.508 137.428 107.639Z" fill="#475463"/>
<path d="M143.066 104.338C142.887 104.446 142.708 104.554 142.529 104.662C141.469 102.51 140.408 100.357 139.354 98.2029C139.531 98.0889 139.706 97.9689 139.881 97.8479C140.943 100.008 142.008 102.172 143.066 104.338Z" fill="#475463"/>
<path d="M109.729 115.93C109.975 116.729 110.288 117.508 110.568 118.29C110.371 118.338 110.173 118.385 109.982 118.431C109.591 117.292 109.112 116.167 108.806 115.022C108.524 113.956 108.31 112.875 108.149 111.791C108.354 111.748 108.56 111.704 108.771 111.659C108.985 113.104 109.291 114.527 109.729 115.93Z" fill="#475463"/>
<path d="M102.324 112.63C102.518 115.023 102.92 117.384 103.528 119.703C103.313 119.736 103.104 119.767 102.895 119.799C102.295 117.465 101.889 115.091 101.686 112.688C101.901 112.674 102.114 112.655 102.324 112.63Z" fill="#475463"/>
<path d="M95.4817 112.815C95.4557 115.421 95.7517 117.995 96.3667 120.51C96.1457 120.525 95.9317 120.538 95.7167 120.551C95.1057 118.008 94.8167 115.413 94.8537 112.777C95.0567 112.793 95.2667 112.808 95.4817 112.815Z" fill="#475463"/>
</svg>
