<svg width="172" height="158" viewBox="0 0 172 158" fill="none" xmlns="http://www.w3.org/2000/svg">
<path d="M42.9408 69.5977C39.2278 69.4297 35.7138 69.9557 32.3158 70.4647C28.1948 71.0807 24.3008 71.6637 20.9898 70.7677C17.1798 69.7367 13.7138 66.3627 12.1618 62.1717C10.6298 58.0377 10.7088 53.0637 12.3818 48.1677C13.7898 44.0457 16.8858 39.3197 21.3478 38.4157C25.6568 37.5207 30.3428 40.7277 32.7208 44.3307C35.9408 49.2067 36.8038 55.7507 37.1948 60.9077L48.2338 60.0697C47.7408 53.5797 46.5828 45.2317 41.9598 38.2307C36.6328 30.1637 27.4658 25.8877 19.1458 27.5647C11.4598 29.1227 5.01581 35.4867 1.90481 44.5877C-0.590185 51.8887 -0.636185 59.4987 1.77882 66.0177C4.57782 73.5747 10.8308 79.4897 18.0988 81.4557C23.6478 82.9567 29.1228 82.1367 33.9548 81.4137C36.9628 80.9637 39.8038 80.5387 42.4418 80.6577C48.6918 80.9397 54.5468 84.6937 57.0098 89.9977C59.4768 95.3087 58.2458 102.102 54.1468 105.8C50.1288 109.425 43.2118 109.641 39.3468 106.262C37.5068 104.653 36.3488 102.029 36.2488 99.2397C36.1558 96.6507 36.9828 94.2757 38.5188 92.7257L30.6518 84.9347C26.9748 88.6477 24.9818 94.0067 25.1838 99.6377C25.3948 105.51 27.9008 110.962 32.0598 114.598C36.9048 118.833 43.6008 120.437 49.9518 119.452C54.1958 118.794 58.2848 116.979 61.5638 114.022C69.2458 107.092 71.5538 95.0277 67.0518 85.3347C62.8948 76.3847 53.2048 70.0607 42.9408 69.5977Z" fill="#475463"/>
<path d="M114.265 26.8877L111.034 16.2977C109.01 16.9147 106.957 17.5478 104.886 18.1918C104.419 17.2628 103.949 16.3347 103.462 15.4137C101.499 11.6967 95.5233 0.386741 84.3833 0.00874054C77.6723 -0.219259 71.0343 4.02974 67.4663 10.8317C64.6023 16.2927 64.0123 22.3407 63.6843 27.5817C62.2743 50.0897 64.5063 71.0077 70.3173 89.7547L80.8933 86.4767C76.4733 72.2177 74.2833 56.5417 74.3503 39.7467C82.3253 37.0427 90.6883 34.2967 98.9453 31.6677C104.808 45.2797 109.028 59.7497 113.092 73.8907L113.066 73.8988L113.475 75.2227L124.085 72.0597C119.911 57.5297 115.622 42.6218 109.565 28.3338C111.144 27.8448 112.714 27.3617 114.265 26.8877ZM74.7583 27.9257C75.0283 23.7437 75.4693 19.4097 77.2713 15.9747C78.8273 13.0077 81.5943 10.9897 84.0093 11.0737C87.1443 11.1797 90.3963 14.3797 93.6743 20.5847C93.8463 20.9097 94.0083 21.2398 94.1773 21.5668C87.6733 23.6458 81.1213 25.7907 74.7583 27.9257Z" fill="#475463"/>
<path d="M163.972 22.8708C155.99 11.2468 142.271 4.06078 128.171 4.11678L122.381 4.13979L122.664 9.92379C123.886 34.8948 126.562 60.0638 130.617 84.7318L131.574 90.5538L137.323 89.2278C151.402 85.9818 163.687 75.6938 168.621 63.0178C173.736 49.8788 171.954 34.4958 163.972 22.8708ZM158.304 59.0028C155.332 66.6388 148.654 73.1228 140.531 76.5818C137.432 56.4678 135.263 36.0588 134.066 15.7418C142.34 17.3308 150.106 22.2358 154.847 29.1388L154.846 29.1378C160.693 37.6548 162.051 49.3768 158.304 59.0028Z" fill="#475463"/>
<path d="M114.025 68.4458C101.634 78.5128 86.8494 80.6817 75.5494 79.1327C66.0104 77.8217 58.9444 73.8557 57.8754 69.7407C55.5464 60.7517 68.2794 62.1658 68.2794 62.1658C68.2794 62.1658 59.7594 54.8528 67.0734 48.3638C74.3864 41.8678 79.0504 47.4918 79.0504 47.4918C78.1924 41.4448 82.8164 31.4138 93.5304 35.6828C103.816 39.7848 100.023 47.4517 99.7094 48.0627C100.128 47.4647 105.127 40.6987 110.998 45.4937C116.41 49.9137 113.165 54.9387 112.323 56.0627C115.507 52.4297 136.402 50.2768 114.025 68.4458Z" fill="#D95445"/>
<path d="M138.523 86.6028C134.425 84.7888 131.189 88.0668 130.015 89.5168C125.046 81.2358 119.03 73.9038 114.026 68.4458C101.635 78.5128 86.85 80.6818 75.55 79.1328C73.919 82.2908 70.183 89.9968 67.217 99.4938C66.439 98.4838 64.2291 96.3398 59.7771 96.9288C54.0111 97.6928 56.7391 114.009 63.5051 116.3C62.4841 125 63.036 133.896 66.734 141.489C78.871 166.423 128.034 161.807 138.203 130.403C140.792 122.403 140.116 114.063 137.616 106.015C144.263 103.079 143.51 88.8098 138.523 86.6028Z" fill="#EFC94F"/>
<path d="M121.59 139.812C120.794 139.388 120.019 138.96 119.274 138.535C108.013 132.151 102.298 126.346 94.2311 133.632C90.4001 137.097 87.4571 141.579 84.6321 144.793C81.1181 148.793 77.7961 150.828 73.2171 146.461C68.2281 141.705 66.4031 134.179 67.6371 127.866C68.4491 123.729 70.5761 120.112 73.9951 118.136C82.6211 113.138 91.1851 118.99 100.584 113.135C100.584 113.135 117.184 104.161 127.046 112.493C128.391 113.628 129.501 115.085 130.386 116.745C136.034 127.249 132.675 145.719 121.59 139.812Z" fill="#475463"/>
<path d="M130.387 116.744C128.418 116.652 126.468 116.602 124.549 116.592C124.338 116.593 124.126 116.593 123.915 116.594C121.479 116.594 119.085 116.657 116.746 116.783C116.549 116.794 116.352 116.806 116.155 116.817C113.689 116.956 111.278 117.157 108.926 117.406C108.718 117.426 108.51 117.451 108.302 117.477C105.801 117.756 103.371 118.088 101.02 118.472L100.394 118.569C97.9257 118.984 95.5357 119.444 93.2527 119.933C93.0477 119.977 92.8377 120.023 92.6387 120.067C90.1157 120.619 87.7207 121.215 85.4567 121.829C85.2467 121.881 85.0437 121.938 84.8477 121.994C82.3207 122.687 79.9637 123.405 77.7987 124.113C77.5967 124.176 77.3967 124.246 77.2007 124.308C75.4877 124.875 73.8957 125.442 72.4407 125.982C72.2407 126.058 72.0397 126.128 71.8467 126.202C70.2777 126.792 68.8717 127.356 67.6367 127.868C68.1177 125.428 69.0497 123.174 70.4367 121.331C70.5887 121.115 70.7557 120.91 70.9297 120.71C71.7967 119.685 72.8157 118.815 73.9917 118.132C74.4037 117.895 74.8127 117.678 75.2257 117.492C75.4167 117.398 75.6087 117.317 75.8017 117.236C78.3677 116.171 80.9307 115.921 83.5247 115.903C83.7357 115.902 83.9537 115.901 84.1667 115.906C86.6617 115.916 89.1837 116.096 91.7497 115.903C91.9657 115.889 92.1737 115.869 92.3887 115.849C94.8067 115.608 97.2647 115.009 99.7777 113.607C99.9727 113.5 100.173 113.385 100.372 113.265L100.583 113.136C100.583 113.136 103.558 111.527 107.733 110.303C107.936 110.246 108.145 110.188 108.353 110.13C110.48 109.544 112.888 109.074 115.36 108.973C115.569 108.96 115.78 108.953 115.998 108.951C118.734 108.905 121.525 109.331 124.068 110.558C124.283 110.666 124.492 110.774 124.703 110.889C125.516 111.333 126.302 111.859 127.048 112.493C128.391 113.63 129.502 115.086 130.387 116.744Z" fill="white"/>
<path d="M119.273 138.535C108.012 132.151 102.297 126.346 94.2299 133.632C90.3989 137.097 87.4559 141.579 84.6309 144.793C84.6929 140.203 85.4439 129.428 91.3159 125.482C97.0879 121.603 110.019 117.493 119.273 138.535Z" fill="#D95445"/>
<path d="M104.66 87.5157C104.66 87.5157 117.827 74.4807 123.182 75.0137C128.538 75.5457 111.51 85.5287 104.66 87.5157Z" fill="#475463"/>
<path d="M88.863 89.9658C88.863 89.9658 70.033 83.5478 67.018 86.4288C64.002 89.3098 83.304 91.7018 88.863 89.9658Z" fill="#475463"/>
<path d="M100.326 99.7347C100.326 99.7347 90.0383 98.3377 88.9843 103.119C87.9303 107.9 95.0883 109.183 99.9373 106.252C104.786 103.32 103.305 102.799 102.795 102.511C102.285 102.223 100.267 102.578 99.6103 103.526C98.9533 104.474 93.6673 107.063 92.4563 104.594C91.0673 101.764 98.9183 99.7357 100.326 99.7347Z" fill="#475463"/>
<path d="M108.084 90.8648C108.084 90.8648 115.395 89.1838 118.518 86.9658C118.518 86.9658 117.607 89.9828 111.973 91.5998C111.973 91.5998 115.524 93.1678 122.312 93.7878C122.312 93.7878 111.473 94.6478 107.079 93.1098C102.685 91.5718 108.084 90.8648 108.084 90.8648Z" fill="#475463"/>
<path d="M76.0322 94.3677C76.0322 94.3677 86.4292 94.3027 89.6082 93.7237C92.7872 93.1447 81.5792 101.85 77.3872 103.103C77.3872 103.103 84.4162 97.1707 84.1632 96.4797C83.9102 95.7887 78.5972 96.6627 76.0322 94.3677Z" fill="#475463"/>
<path d="M123.021 84.6677C123.021 84.6677 125.85 78.5577 128.113 79.7037C130.488 80.9077 125.289 84.3887 123.021 84.6677Z" fill="#8CC7CC"/>
<path d="M125.397 91.2737C125.397 91.2737 131.031 95.4517 133.062 94.4057C135.093 93.3597 131.442 88.6747 125.397 91.2737Z" fill="#8CC7CC"/>
<path d="M136.35 86.6238C136.35 86.6238 139.388 83.1168 142.217 85.5638C145.046 88.0108 139.512 88.5118 136.35 86.6238Z" fill="#8CC7CC"/>
<path d="M71.2887 94.0238C71.2887 94.0238 65.5967 89.9468 63.5927 92.0738C61.5887 94.2008 65.6057 95.8458 71.2887 94.0238Z" fill="#8CC7CC"/>
<path d="M61.1587 97.3486C61.1587 97.3486 52.8567 96.6866 53.0847 99.3836C53.3177 102.141 56.5887 101.036 61.1587 97.3486Z" fill="#8CC7CC"/>
<path d="M71.4689 100.689C71.4689 100.689 64.8089 103.93 66.1579 107.176C67.5079 110.422 71.5449 103.652 71.4689 100.689Z" fill="#8CC7CC"/>
<path d="M138.224 94.8287C138.644 93.9797 138.83 93.0247 138.558 92.1217C137.948 90.1027 135.885 90.0557 134.15 90.4287C133.356 90.5997 133.545 91.8527 134.344 91.6807C135.488 91.4347 137.228 91.1687 137.412 92.7897C137.526 93.7937 136.888 94.8657 136.163 95.5047C135.554 96.0427 136.349 97.0297 136.963 96.4877C137.152 96.3207 137.33 96.1297 137.5 95.9287C138.004 96.5547 138.407 97.3037 138.181 98.1177C137.903 99.1187 136.946 99.6167 136.028 99.8947C135.251 100.131 135.776 101.285 136.548 101.051C137.899 100.642 139.092 99.7347 139.43 98.3077C139.741 97.0027 139.077 95.7827 138.224 94.8287Z" fill="#475463"/>
<path d="M63.5307 101.823C64.3067 102.063 64.7747 100.885 63.9947 100.644C62.1967 100.088 60.6327 101.441 60.5927 103.275C60.5707 104.313 60.9747 105.197 61.6117 105.901C60.9607 106.633 60.6347 107.58 60.8167 108.592C61.0607 109.946 62.1367 110.669 63.1447 111.466C63.7857 111.973 64.5317 110.949 63.8927 110.443C63.3047 109.978 62.5217 109.515 62.2037 108.814C61.8607 108.057 62.0577 107.296 62.5717 106.725C62.9357 106.969 63.3307 107.175 63.7387 107.337C64.4977 107.639 64.9607 106.459 64.2027 106.158C63.3917 105.836 62.6587 105.383 62.2147 104.605C61.6697 103.649 61.7457 101.271 63.5307 101.823Z" fill="#475463"/>
<path d="M95.6169 144.11C98.7099 139.708 104.168 138.434 108.847 141.161C109.545 141.568 110.3 140.549 109.595 140.138C104.334 137.072 98.1139 138.354 94.5939 143.362C94.1249 144.03 95.1469 144.779 95.6169 144.11Z" fill="#475463"/>
<path d="M101.674 144.404C102.152 144.295 102.636 144.231 103.127 144.241C103.469 144.248 103.788 144.047 103.829 143.684C103.865 143.369 103.616 142.988 103.272 142.982C102.666 142.97 102.071 143.017 101.48 143.152C101.146 143.228 100.896 143.52 100.951 143.875C101.001 144.196 101.339 144.481 101.674 144.404Z" fill="#475463"/>
<path d="M90.3445 38.9247C82.9955 39.2307 78.6355 50.6307 84.9515 55.1437C85.6155 55.6177 86.3645 54.5957 85.6995 54.1207C80.2185 50.2037 84.3895 40.4317 90.5385 40.1757C91.3515 40.1427 91.1515 38.8917 90.3445 38.9247Z" fill="#475463"/>
<path d="M61.8281 67.0098C61.3401 74.0008 70.6221 76.5998 76.0581 77.0778C76.8701 77.1498 77.0171 75.8908 76.2041 75.8188C71.5831 75.4118 62.6611 73.2638 63.0871 67.1548C63.1431 66.3438 61.8841 66.1958 61.8281 67.0098Z" fill="#475463"/>
<path d="M70.8997 71.3017C72.3077 72.7527 74.1247 73.6287 76.1497 73.7557C76.9617 73.8067 77.1097 72.5477 76.2957 72.4967C74.6117 72.3917 73.0627 71.7177 71.8827 70.5017C71.3187 69.9217 70.3297 70.7157 70.8997 71.3017Z" fill="#475463"/>
<path d="M69.6617 53.1416C67.7897 57.1646 71.2507 60.7447 75.1587 61.1517C75.9707 61.2357 76.1157 59.9777 75.3047 59.8927C72.1857 59.5687 69.3027 56.9106 70.8407 53.6066C71.1857 52.8646 70.0047 52.4056 69.6617 53.1416Z" fill="#475463"/>
<path d="M108.291 51.4438C108.516 53.1858 107.747 54.8218 106.311 55.8168C105.641 56.2808 106.442 57.2627 107.111 56.7997C108.909 55.5547 109.822 53.4098 109.543 51.2498C109.438 50.4408 108.186 50.6358 108.291 51.4438Z" fill="#475463"/>
<path d="M117.424 60.1367C113.016 65.7257 106.427 68.4237 99.9252 70.8017C99.1602 71.0817 99.6812 72.2367 100.445 71.9577C107.179 69.4937 113.889 66.6617 118.447 60.8847C118.953 60.2427 117.929 59.4967 117.424 60.1367Z" fill="#475463"/>
<path d="M107.822 63.0177C106.216 64.0637 104.493 64.8567 102.666 65.4327C101.891 65.6767 102.415 66.8307 103.186 66.5887C105.123 65.9787 106.921 65.1087 108.621 64.0017C109.303 63.5567 108.5 62.5767 107.822 63.0177Z" fill="#475463"/>
<path d="M129.428 99.6388C129.866 100.299 130.236 100.995 130.553 101.721C130.879 102.467 132.036 101.95 131.709 101.201C131.348 100.374 130.91 99.5908 130.411 98.8388C129.96 98.1608 128.979 98.9638 129.428 99.6388Z" fill="white"/>
<path d="M133.321 107.1C134.869 112.104 135.434 117.196 135.046 122.421C134.986 123.233 136.244 123.381 136.305 122.567C136.71 117.11 136.095 111.809 134.477 106.58C134.236 105.804 133.082 106.328 133.321 107.1Z" fill="white"/>
<path d="M93.253 119.933C93.048 119.977 92.838 120.023 92.639 120.067C92.346 118.676 92.049 117.293 91.75 115.904C91.966 115.89 92.174 115.87 92.389 115.85C92.676 117.209 92.965 118.574 93.253 119.933Z" fill="#475463"/>
<path d="M100.372 113.265C100.59 115 100.808 116.736 101.019 118.472L100.393 118.569C100.188 116.915 99.9823 115.261 99.7773 113.607C99.9733 113.5 100.173 113.386 100.372 113.265Z" fill="#475463"/>
<path d="M108.354 110.129C108.557 112.553 108.747 114.978 108.925 117.406C108.717 117.426 108.509 117.451 108.301 117.477C108.122 115.082 107.931 112.695 107.733 110.302C107.936 110.246 108.145 110.187 108.354 110.129Z" fill="#475463"/>
<path d="M115.998 108.95C116.302 111.403 116.537 113.873 116.709 116.346C116.718 116.486 116.728 116.632 116.745 116.783C116.548 116.794 116.351 116.806 116.154 116.817C116.094 116.262 116.03 115.727 115.991 115.227C115.833 113.136 115.618 111.048 115.361 108.972C115.57 108.959 115.78 108.952 115.998 108.95Z" fill="#475463"/>
<path d="M124.702 110.888C124.716 112.796 124.664 114.695 124.548 116.591C124.337 116.592 124.125 116.592 123.914 116.593C124.039 114.586 124.092 112.572 124.067 110.556C124.283 110.665 124.492 110.773 124.702 110.888Z" fill="#475463"/>
<path d="M85.4574 121.829C85.2474 121.881 85.0444 121.938 84.8484 121.994C84.3684 119.972 83.9254 117.945 83.5254 115.904C83.7364 115.903 83.9544 115.902 84.1674 115.907C84.5584 117.891 84.9924 119.862 85.4574 121.829Z" fill="#475463"/>
<path d="M77.7986 124.113C77.5966 124.176 77.3966 124.246 77.2006 124.308C76.5396 122.032 75.8806 119.763 75.2266 117.492C75.4176 117.398 75.6096 117.317 75.8026 117.236C76.4716 119.524 77.1356 121.818 77.7986 124.113Z" fill="#475463"/>
<path d="M72.4415 125.982C72.2415 126.058 72.0405 126.128 71.8475 126.202C71.3235 124.597 70.8525 122.972 70.4385 121.331C70.5905 121.115 70.7575 120.91 70.9315 120.71C71.3675 122.489 71.8705 124.244 72.4415 125.982Z" fill="#475463"/>
</svg>
