<svg width="724" height="791" viewBox="0 0 724 791" fill="none" xmlns="http://www.w3.org/2000/svg">
<path d="M717.353 555.006C709.171 510.699 687.098 461.696 659.75 427.115C654.143 420.024 648.199 413.81 641.956 408.503C671.963 373.652 694.826 321.699 684.157 271.771C681.832 260.884 677.475 251.987 673.976 244.836C672.721 242.273 670.94 238.636 670.171 236.495C678.075 215.032 685.088 195.472 690.803 174.91C690.868 174.681 690.929 174.448 690.989 174.216C699.1 142.385 686.109 113.683 658.661 102.799C652.082 100.189 645.196 98.8651 638.197 98.8651C616.092 98.8651 595.416 112.337 585.525 133.185C585.408 133.435 585.291 133.688 585.178 133.941C577.586 151.035 571.285 168.369 565.194 185.134L563.909 188.668C563.002 191.159 560.246 198.737 559.077 200.242C559.011 200.297 557.413 201.618 550.959 203.877C505.881 219.646 483.31 272.314 473.312 305.428C449.399 308.654 426.191 315.136 405.061 321.037C403.637 321.434 402.226 321.83 400.824 322.218C394.135 313.087 387.513 304.428 380.169 296.317C390.183 282.657 398.607 268.181 405.95 254.787C457.379 160.982 454.367 76.03 397.894 27.547C379.856 12.06 357.533 3.87305 333.335 3.87305C323.308 3.87305 313.083 5.25801 302.802 8.00201C289.785 4.15301 276.991 2.20703 264.656 2.20703C226.129 2.20703 192.802 20.527 168.278 55.187C131.667 106.924 122.363 186.033 132.497 243.845C130.413 244.939 124.411 248.121 124.411 248.121C83.4074 269.845 54.2644 294.162 35.3144 322.462C18.6994 347.271 16.7094 374.64 18.7434 397.439C9.02537 406.97 3.25337 419.498 2.39937 433.064C0.802369 458.395 15.9494 478.294 22.5344 485.674C36.4594 501.277 55.7074 510.591 74.0254 510.591C83.7844 510.591 93.0464 508.013 101.162 503.091C112.028 506.657 124.275 508.449 137.826 508.449C147.219 508.449 157.052 507.572 167.052 505.839C167.544 505.757 168.033 505.669 168.52 505.582C164.455 514.276 160.82 522.963 157.47 531.391C140.425 574.29 133.16 613.813 135.876 648.854C140.343 706.46 183.141 744.163 249.019 750.044C250.113 751.304 251.234 752.535 252.383 753.734C273.918 776.197 303.819 788.072 338.856 788.072C350.926 788.072 363.465 786.652 376.131 783.858C413.435 775.623 458.789 749.653 478.771 675.517C482.438 676.371 486.326 677.144 490.397 677.681C509.299 700.126 541.314 711.477 585.914 711.477C587.826 711.477 589.701 711.459 591.539 711.431C633.981 710.738 669.51 696.11 694.287 669.129C719.015 642.193 726.561 604.863 717.353 555.006Z" fill="white"/>
<path d="M345.775 790.271C344.522 790.271 343.482 789.284 343.426 788.024C343.369 786.723 344.375 785.626 345.674 785.566C347.211 785.502 348.755 785.41 350.304 785.295C351.618 785.18 352.728 786.173 352.822 787.474C352.916 788.77 351.944 789.896 350.648 789.992C349.053 790.107 347.463 790.199 345.88 790.268C345.847 790.271 345.809 790.271 345.775 790.271ZM331.669 790.254C331.632 790.254 331.596 790.254 331.557 790.249C329.955 790.176 328.366 790.074 326.785 789.945C325.491 789.844 324.524 788.709 324.627 787.413C324.731 786.117 325.819 785.161 327.162 785.258C328.687 785.378 330.227 785.479 331.778 785.552C333.076 785.613 334.078 786.71 334.018 788.011C333.958 789.27 332.917 790.254 331.669 790.254ZM364.495 788.392C363.353 788.392 362.351 787.56 362.172 786.397C361.974 785.115 362.852 783.911 364.137 783.713C365.662 783.479 367.188 783.217 368.721 782.942C369.994 782.739 371.223 783.562 371.455 784.839C371.684 786.116 370.837 787.344 369.557 787.573C367.988 787.858 366.42 788.12 364.858 788.363C364.737 788.382 364.614 788.392 364.495 788.392ZM312.988 788.112C312.845 788.112 312.701 788.098 312.553 788.07C310.972 787.776 309.405 787.455 307.857 787.1C306.589 786.816 305.793 785.556 306.081 784.287C306.368 783.015 307.632 782.215 308.896 782.514C310.389 782.849 311.896 783.161 313.418 783.447C314.695 783.686 315.537 784.913 315.3 786.191C315.088 787.321 314.1 788.112 312.988 788.112ZM382.912 784.532C381.878 784.532 380.932 783.847 380.644 782.8C380.301 781.545 381.039 780.254 382.293 779.909C383.762 779.509 385.239 779.072 386.726 778.608C387.967 778.208 389.286 778.911 389.674 780.152C390.062 781.393 389.371 782.712 388.132 783.102C386.59 783.584 385.058 784.031 383.534 784.449C383.328 784.505 383.119 784.532 382.912 784.532ZM294.815 783.268C294.558 783.268 294.296 783.226 294.038 783.134C292.519 782.606 291.021 782.04 289.539 781.447C288.333 780.969 287.745 779.599 288.227 778.391C288.71 777.182 290.079 776.599 291.286 777.081C292.704 777.645 294.138 778.184 295.592 778.693C296.819 779.121 297.464 780.463 297.037 781.69C296.697 782.661 295.787 783.268 294.815 783.268ZM400.653 778.277C399.743 778.277 398.88 777.749 398.493 776.862C397.973 775.672 398.52 774.284 399.711 773.769C401.108 773.158 402.505 772.519 403.904 771.843C405.076 771.273 406.48 771.765 407.045 772.937C407.61 774.109 407.121 775.515 405.949 776.081C404.495 776.784 403.043 777.45 401.59 778.08C401.285 778.213 400.966 778.277 400.653 778.277ZM277.669 775.585C277.283 775.585 276.89 775.488 276.527 775.286C275.128 774.509 273.744 773.7 272.382 772.868C271.274 772.188 270.925 770.741 271.605 769.629C272.283 768.525 273.732 768.172 274.84 768.852C276.147 769.657 277.471 770.429 278.815 771.177C279.95 771.807 280.359 773.241 279.727 774.376C279.298 775.147 278.496 775.585 277.669 775.585ZM417.261 769.463C416.482 769.463 415.719 769.077 415.271 768.369C414.575 767.27 414.901 765.819 415.999 765.125C417.286 764.307 418.568 763.457 419.848 762.579C420.919 761.849 422.383 762.114 423.12 763.185C423.855 764.256 423.584 765.722 422.513 766.457C421.187 767.371 419.854 768.249 418.517 769.095C418.128 769.343 417.691 769.463 417.261 769.463ZM262.101 765.055C261.577 765.055 261.051 764.881 260.615 764.522C259.376 763.511 258.156 762.473 256.959 761.411C255.987 760.548 255.899 759.058 256.761 758.089C257.627 757.114 259.109 757.032 260.084 757.892C261.235 758.916 262.404 759.91 263.593 760.883C264.599 761.706 264.748 763.186 263.926 764.193C263.459 764.761 262.783 765.055 262.101 765.055ZM432.315 758.208C431.662 758.208 431.012 757.937 430.545 757.409C429.688 756.43 429.785 754.945 430.761 754.086C431.909 753.08 433.05 752.041 434.184 750.976C435.126 750.083 436.62 750.13 437.509 751.077C438.398 752.023 438.352 753.513 437.405 754.404C436.233 755.508 435.052 756.583 433.866 757.626C433.42 758.015 432.866 758.208 432.315 758.208ZM248.427 752.344C248.356 752.344 248.285 752.339 248.213 752.334C246.616 752.188 245.035 752.021 243.466 751.834C242.177 751.682 241.253 750.51 241.407 749.223C241.561 747.932 242.717 746.957 244.022 747.164C245.545 747.344 247.085 747.509 248.636 747.646C249.932 747.766 250.885 748.91 250.768 750.202C250.658 751.425 249.631 752.344 248.427 752.344ZM229.808 749.651C229.659 749.651 229.507 749.637 229.353 749.605C227.777 749.297 226.219 748.961 224.677 748.608C223.411 748.314 222.62 747.054 222.912 745.786C223.204 744.522 224.452 743.727 225.734 744.022C227.226 744.366 228.733 744.692 230.258 744.991C231.533 745.239 232.363 746.475 232.115 747.749C231.894 748.875 230.911 749.651 229.808 749.651ZM211.609 744.89C211.363 744.89 211.115 744.853 210.869 744.77C209.346 744.265 207.841 743.741 206.354 743.199C205.136 742.749 204.511 741.397 204.959 740.176C205.409 738.953 206.772 738.347 207.98 738.779C209.416 739.312 210.875 739.818 212.348 740.304C213.582 740.713 214.25 742.046 213.841 743.278C213.516 744.265 212.597 744.89 211.609 744.89ZM445.486 744.803C444.948 744.803 444.406 744.618 443.965 744.241C442.974 743.4 442.855 741.916 443.696 740.924C444.682 739.766 445.656 738.575 446.621 737.353C447.427 736.337 448.907 736.163 449.927 736.962C450.945 737.767 451.12 739.246 450.316 740.267C449.314 741.536 448.303 742.772 447.28 743.975C446.816 744.522 446.152 744.803 445.486 744.803ZM194.201 737.786C193.849 737.786 193.491 737.708 193.156 737.538C191.718 736.825 190.3 736.09 188.905 735.332C187.763 734.711 187.34 733.282 187.961 732.138C188.584 731.003 190.01 730.58 191.152 731.196C192.496 731.927 193.864 732.634 195.251 733.329C196.414 733.908 196.889 735.318 196.311 736.481C195.899 737.307 195.068 737.786 194.201 737.786ZM456.635 729.665C456.2 729.665 455.762 729.546 455.371 729.293C454.275 728.595 453.955 727.143 454.654 726.044C455.474 724.762 456.285 723.447 457.085 722.106C457.749 720.985 459.199 720.622 460.311 721.289C461.428 721.955 461.793 723.398 461.129 724.515C460.302 725.903 459.468 727.254 458.62 728.582C458.169 729.284 457.411 729.665 456.635 729.665ZM178.075 728.121C177.599 728.121 177.119 727.978 176.703 727.68C175.398 726.739 174.116 725.778 172.864 724.789C171.842 723.989 171.664 722.51 172.468 721.485C173.268 720.469 174.748 720.286 175.773 721.094C176.975 722.035 178.202 722.959 179.452 723.856C180.507 724.619 180.748 726.085 179.987 727.142C179.528 727.781 178.806 728.121 178.075 728.121ZM163.854 715.855C163.238 715.855 162.623 715.616 162.161 715.138C161.049 713.985 159.962 712.799 158.907 711.595C158.052 710.616 158.151 709.131 159.13 708.277C160.102 707.418 161.586 707.514 162.45 708.498C163.454 709.647 164.486 710.769 165.547 711.866C166.45 712.804 166.423 714.293 165.488 715.194C165.031 715.634 164.443 715.855 163.854 715.855ZM586.988 713.829H585.913C584.681 713.829 583.456 713.819 582.245 713.802C580.947 713.783 579.908 712.712 579.929 711.411C579.95 710.125 581 709.096 582.282 709.096C582.293 709.096 582.305 709.096 582.319 709.096C583.505 709.115 584.704 709.123 585.913 709.123H586.988C588.289 709.123 589.341 710.176 589.341 711.476C589.341 712.776 588.289 713.829 586.988 713.829ZM601.095 713.382C599.868 713.382 598.834 712.431 598.749 711.186C598.662 709.89 599.643 708.769 600.939 708.681C602.492 708.576 604.034 708.452 605.564 708.304C606.864 708.226 608.006 709.136 608.128 710.428C608.252 711.719 607.303 712.867 606.01 712.991C604.433 713.138 602.85 713.271 601.256 713.378C601.2 713.382 601.147 713.382 601.095 713.382ZM465.784 713.236C465.442 713.236 465.093 713.163 464.761 713.002C463.592 712.437 463.102 711.03 463.667 709.858C464.334 708.479 464.991 707.078 465.634 705.653C466.172 704.467 467.566 703.958 468.747 704.476C469.931 705.014 470.456 706.407 469.921 707.592C469.259 709.053 468.588 710.491 467.903 711.907C467.498 712.749 466.66 713.236 465.784 713.236ZM568.181 713.18C568.121 713.18 568.061 713.18 568.002 713.176C566.405 713.051 564.824 712.913 563.264 712.762C561.97 712.633 561.026 711.48 561.152 710.189C561.281 708.897 562.409 707.988 563.723 708.075C565.251 708.226 566.795 708.364 568.355 708.479C569.651 708.581 570.623 709.71 570.524 711.006C570.43 712.239 569.399 713.18 568.181 713.18ZM619.764 711.094C618.647 711.094 617.657 710.299 617.45 709.159C617.22 707.881 618.068 706.654 619.348 706.425C620.876 706.149 622.395 705.85 623.9 705.533C625.161 705.253 626.416 706.075 626.687 707.352C626.956 708.621 626.14 709.871 624.869 710.137C623.318 710.463 621.758 710.771 620.184 711.056C620.044 711.081 619.902 711.094 619.764 711.094ZM549.52 710.833C549.38 710.833 549.237 710.819 549.095 710.796C547.512 710.507 545.951 710.198 544.414 709.872C543.141 709.601 542.33 708.351 542.599 707.083C542.87 705.814 544.132 705.02 545.388 705.268C546.884 705.585 548.403 705.883 549.94 706.164C551.218 706.398 552.065 707.626 551.831 708.903C551.625 710.038 550.635 710.833 549.52 710.833ZM638.038 706.636C637.034 706.636 636.105 705.992 635.79 704.982C635.404 703.746 636.096 702.422 637.337 702.036C638.812 701.577 640.275 701.095 641.723 700.585C642.943 700.152 644.294 700.801 644.724 702.023C645.156 703.251 644.51 704.592 643.286 705.024C641.783 705.552 640.269 706.054 638.739 706.532C638.505 706.604 638.27 706.636 638.038 706.636ZM531.269 706.283C531.028 706.283 530.782 706.246 530.541 706.168C528.999 705.667 527.487 705.139 526.005 704.587C524.787 704.132 524.169 702.776 524.624 701.559C525.077 700.341 526.437 699.73 527.65 700.176C529.072 700.708 530.52 701.21 531.997 701.693C533.233 702.097 533.909 703.425 533.507 704.662C533.183 705.653 532.261 706.283 531.269 706.283ZM152.181 701.163C151.411 701.163 150.656 700.786 150.205 700.093C149.332 698.746 148.489 697.372 147.68 695.98C147.025 694.859 147.409 693.416 148.533 692.763C149.648 692.106 151.093 692.488 151.748 693.617C152.52 694.945 153.322 696.246 154.154 697.528C154.862 698.622 154.552 700.079 153.46 700.786C153.064 701.039 152.62 701.163 152.181 701.163ZM655.573 699.831C654.689 699.831 653.843 699.33 653.443 698.479C652.889 697.303 653.392 695.901 654.569 695.35C655.968 694.688 657.352 694.007 658.719 693.304C659.87 692.698 661.295 693.162 661.887 694.32C662.482 695.474 662.03 696.894 660.874 697.487C659.456 698.217 658.022 698.925 656.572 699.605C656.248 699.757 655.908 699.831 655.573 699.831ZM513.969 698.944C513.592 698.944 513.211 698.851 512.857 698.663C511.428 697.896 510.031 697.092 508.666 696.26C507.556 695.585 507.205 694.137 507.88 693.03C508.556 691.918 510.001 691.559 511.115 692.244C512.407 693.03 513.73 693.789 515.086 694.519C516.23 695.134 516.66 696.564 516.044 697.708C515.619 698.493 514.807 698.944 513.969 698.944ZM473.087 695.901C472.82 695.901 472.547 695.855 472.28 695.758C471.06 695.313 470.43 693.961 470.876 692.743C471.4 691.301 471.915 689.839 472.42 688.354C472.839 687.123 474.182 686.474 475.405 686.883C476.634 687.302 477.294 688.639 476.873 689.87C476.358 691.382 475.834 692.88 475.297 694.35C474.95 695.308 474.047 695.901 473.087 695.901ZM671.958 690.589C671.197 690.589 670.453 690.222 669.998 689.541C669.276 688.461 669.568 687 670.648 686.278C671.93 685.424 673.196 684.546 674.439 683.64C675.494 682.891 676.962 683.112 677.725 684.168C678.488 685.221 678.253 686.691 677.201 687.454C675.907 688.387 674.595 689.302 673.263 690.193C672.861 690.46 672.407 690.589 671.958 690.589ZM498.507 688.296C497.956 688.296 497.404 688.103 496.956 687.712C495.736 686.642 494.553 685.543 493.411 684.413C492.488 683.498 492.478 682.009 493.393 681.085C494.305 680.162 495.799 680.147 496.72 681.067C497.798 682.132 498.908 683.167 500.059 684.173C501.035 685.027 501.134 686.517 500.277 687.49C499.812 688.024 499.16 688.296 498.507 688.296ZM143.508 684.476C142.579 684.476 141.699 683.925 141.327 683.01C140.725 681.526 140.16 680.028 139.622 678.506C139.19 677.284 139.833 675.938 141.058 675.506C142.285 675.078 143.629 675.717 144.061 676.944C144.571 678.392 145.113 679.826 145.688 681.237C146.178 682.441 145.596 683.815 144.392 684.302C144.102 684.422 143.804 684.476 143.508 684.476ZM686.759 678.994C686.122 678.994 685.486 678.737 685.022 678.231C684.146 677.271 684.213 675.782 685.171 674.904C686.304 673.87 687.418 672.808 688.512 671.728C689.438 670.814 690.925 670.823 691.842 671.747C692.754 672.671 692.745 674.164 691.821 675.074C690.681 676.2 689.526 677.299 688.347 678.379C687.896 678.792 687.326 678.994 686.759 678.994ZM483.273 678.842C483.119 678.842 482.965 678.828 482.809 678.796C481.249 678.483 479.725 678.152 478.239 677.808L478.747 675.612H478.745L476.486 674.95C476.824 673.732 478.085 672.951 479.3 673.222C480.745 673.557 482.223 673.879 483.733 674.182C485.008 674.44 485.833 675.676 485.578 676.953C485.352 678.07 484.371 678.842 483.273 678.842ZM138.048 666.494C136.959 666.494 135.983 665.736 135.748 664.629C135.419 663.075 135.123 661.504 134.854 659.913C134.638 658.632 135.504 657.418 136.784 657.202C138.073 656.976 139.28 657.85 139.495 659.132C139.75 660.658 140.038 662.165 140.352 663.654C140.621 664.927 139.808 666.173 138.537 666.444C138.372 666.475 138.209 666.494 138.048 666.494ZM699.564 665.24C699.061 665.24 698.551 665.079 698.121 664.743C697.096 663.948 696.91 662.469 697.71 661.444C698.65 660.23 699.56 659.004 700.435 657.754C701.182 656.692 702.65 656.426 703.714 657.179C704.778 657.924 705.035 659.39 704.291 660.456C703.37 661.77 702.414 663.061 701.423 664.33C700.959 664.927 700.265 665.24 699.564 665.24ZM709.592 649.348C709.238 649.348 708.877 649.27 708.539 649.1C707.376 648.516 706.908 647.1 707.492 645.938C708.177 644.578 708.829 643.19 709.45 641.788C709.978 640.602 711.362 640.065 712.554 640.594C713.742 641.122 714.277 642.51 713.751 643.7C713.098 645.166 712.414 646.618 711.696 648.053C711.285 648.875 710.453 649.348 709.592 649.348ZM135.642 647.859C134.406 647.859 133.37 646.894 133.296 645.644C133.202 644.068 133.13 642.482 133.078 640.882C133.034 639.586 134.05 638.497 135.351 638.451C136.497 638.456 137.738 639.426 137.78 640.725C137.833 642.279 137.904 643.828 137.993 645.367C138.071 646.663 137.081 647.775 135.783 647.853C135.736 647.859 135.688 647.859 135.642 647.859ZM716.4 631.835C716.187 631.835 715.968 631.807 715.752 631.743C714.502 631.384 713.781 630.084 714.139 628.834C714.56 627.368 714.95 625.879 715.315 624.376C715.618 623.116 716.891 622.363 718.155 622.644C719.419 622.952 720.193 624.225 719.887 625.489C719.508 627.056 719.099 628.6 718.66 630.131C718.365 631.163 717.425 631.835 716.4 631.835ZM135.465 629.045C135.433 629.045 135.403 629.045 135.373 629.045C134.075 628.994 133.062 627.9 133.112 626.601C133.172 625.029 133.248 623.444 133.344 621.849C133.42 620.553 134.552 619.482 135.832 619.643C137.13 619.721 138.118 620.833 138.04 622.134C137.948 623.692 137.872 625.24 137.812 626.784C137.765 628.052 136.722 629.045 135.465 629.045ZM720.099 613.397C720.005 613.397 719.908 613.392 719.812 613.378C718.523 613.222 717.604 612.05 717.762 610.758C717.946 609.242 718.107 607.711 718.242 606.158C718.357 604.867 719.526 603.966 720.79 604.021C722.086 604.135 723.042 605.275 722.93 606.571C722.789 608.171 722.624 609.756 722.431 611.328C722.287 612.524 721.271 613.397 720.099 613.397ZM136.979 610.286C136.885 610.286 136.789 610.281 136.692 610.267C135.403 610.111 134.484 608.939 134.64 607.647C134.83 606.084 135.039 604.513 135.265 602.937C135.449 601.65 136.643 600.8 137.928 600.938C139.212 601.122 140.109 602.312 139.925 603.599C139.704 605.147 139.5 606.682 139.312 608.217C139.167 609.413 138.154 610.286 136.979 610.286ZM721.138 594.624C719.844 594.624 718.792 593.581 718.785 592.285C718.776 590.75 718.746 589.206 718.698 587.643C718.655 586.347 719.675 585.258 720.973 585.216C722.306 585.165 723.361 586.195 723.4 587.495C723.453 589.095 723.483 590.684 723.492 592.256C723.499 593.557 722.453 594.614 721.153 594.623C721.147 594.624 721.142 594.624 721.138 594.624ZM139.973 591.706C139.821 591.706 139.667 591.692 139.513 591.66C138.238 591.407 137.41 590.171 137.663 588.893C137.969 587.353 138.29 585.805 138.626 584.251C138.902 582.982 140.161 582.178 141.425 582.449C142.693 582.72 143.5 583.974 143.226 585.243C142.896 586.769 142.578 588.29 142.277 589.811C142.057 590.928 141.074 591.706 139.973 591.706ZM720.058 575.837C718.87 575.837 717.848 574.941 717.721 573.733C717.558 572.203 717.379 570.664 717.181 569.11C717.018 567.819 717.931 566.642 719.22 566.476C720.527 566.32 721.688 567.23 721.851 568.512C722.053 570.103 722.237 571.679 722.4 573.237C722.538 574.528 721.601 575.686 720.309 575.824C720.223 575.833 720.14 575.837 720.058 575.837ZM144.245 573.383C144.045 573.383 143.843 573.36 143.64 573.305C142.383 572.974 141.634 571.682 141.968 570.428C142.372 568.902 142.79 567.376 143.225 565.846C143.579 564.596 144.879 563.874 146.129 564.224C147.379 564.578 148.105 565.883 147.751 567.133C147.326 568.635 146.913 570.133 146.517 571.631C146.24 572.684 145.286 573.383 144.245 573.383ZM717.351 557.358C716.236 557.358 715.248 556.563 715.039 555.432C714.758 553.911 714.46 552.385 714.147 550.855C713.885 549.583 714.708 548.336 715.98 548.075C717.244 547.813 718.496 548.636 718.756 549.909C719.077 551.475 719.381 553.029 719.666 554.578C719.9 555.855 719.057 557.083 717.777 557.321C717.636 557.344 717.491 557.358 717.351 557.358ZM149.617 555.34C149.374 555.34 149.125 555.303 148.882 555.221C147.648 554.817 146.977 553.484 147.381 552.252C147.873 550.763 148.374 549.265 148.888 547.762C149.311 546.531 150.641 545.873 151.877 546.301C153.106 546.719 153.761 548.061 153.341 549.287C152.831 550.771 152.335 552.252 151.852 553.723C151.527 554.715 150.605 555.34 149.617 555.34ZM713.245 538.99C712.202 538.99 711.248 538.291 710.97 537.229C710.579 535.731 710.173 534.228 709.752 532.726C709.4 531.476 710.131 530.175 711.383 529.826C712.624 529.481 713.934 530.208 714.283 531.458C714.713 532.988 715.124 534.519 715.524 536.044C715.853 537.299 715.099 538.586 713.842 538.912C713.642 538.966 713.443 538.99 713.245 538.99ZM155.952 537.62C155.672 537.62 155.385 537.57 155.109 537.464C153.896 536.995 153.289 535.635 153.755 534.422L155.481 530.025C155.957 528.811 157.321 528.218 158.53 528.692C159.739 529.166 160.336 530.535 159.861 531.744L158.149 536.114C157.788 537.046 156.897 537.62 155.952 537.62ZM707.9 520.947C706.912 520.947 705.993 520.322 705.667 519.335C705.178 517.859 704.679 516.384 704.166 514.914C703.741 513.686 704.391 512.345 705.621 511.917C706.848 511.494 708.187 512.147 708.615 513.369C709.132 514.863 709.64 516.361 710.134 517.854C710.543 519.086 709.875 520.418 708.641 520.828C708.394 520.911 708.146 520.947 707.9 520.947ZM163.048 520.18C162.738 520.18 162.426 520.119 162.122 519.992C160.927 519.477 160.373 518.098 160.886 516.903L162.768 512.565C163.288 511.375 164.675 510.836 165.868 511.356C167.058 511.88 167.598 513.268 167.074 514.459L165.21 518.751C164.828 519.647 163.96 520.18 163.048 520.18ZM71.1023 512.868C71.0583 512.868 71.0123 512.868 70.9693 512.864C69.3493 512.772 67.7273 512.62 66.1003 512.399C64.8113 512.229 63.9103 511.044 64.0823 509.753C64.2573 508.466 65.4263 507.515 66.7293 507.74C68.2323 507.942 69.7353 508.085 71.2313 508.167C72.5293 508.241 73.5223 509.349 73.4483 510.649C73.3793 511.899 72.3403 512.868 71.1023 512.868ZM85.1303 511.789C84.0433 511.789 83.0643 511.03 82.8303 509.923C82.5613 508.654 83.3733 507.404 84.6453 507.134C86.1133 506.821 87.5613 506.445 88.9903 506.003C90.2403 505.612 91.5503 506.316 91.9333 507.552C92.3193 508.792 91.6253 510.112 90.3823 510.497C88.8193 510.984 87.2293 511.398 85.6183 511.738C85.4563 511.77 85.2903 511.789 85.1303 511.789ZM139.762 510.787C138.475 510.787 137.425 509.753 137.409 508.462C137.393 507.161 138.434 506.095 139.734 506.081C141.262 506.062 142.802 506.021 144.353 505.952C145.743 505.855 146.754 506.894 146.814 508.19C146.874 509.491 145.872 510.588 144.574 510.649C142.968 510.727 141.373 510.768 139.79 510.787C139.781 510.787 139.771 510.787 139.762 510.787ZM125.663 510.286C125.596 510.286 125.53 510.281 125.463 510.276C123.85 510.143 122.258 509.973 120.689 509.775C119.398 509.615 118.485 508.438 118.646 507.147C118.809 505.86 119.986 504.922 121.273 505.106C122.782 505.294 124.311 505.456 125.859 505.588C127.155 505.698 128.115 506.834 128.005 508.13C127.901 509.357 126.874 510.286 125.663 510.286ZM158.523 509.467C157.354 509.467 156.338 508.594 156.191 507.404C156.03 506.118 156.945 504.941 158.234 504.78C159.762 504.592 161.292 504.376 162.832 504.141C164.102 503.925 165.318 504.826 165.514 506.108C165.711 507.395 164.829 508.594 163.545 508.792C161.964 509.036 160.388 509.252 158.818 509.449C158.718 509.463 158.62 509.467 158.523 509.467ZM52.7563 508.953C52.4833 508.953 52.2053 508.907 51.9333 508.806C50.4213 508.242 48.9213 507.625 47.4343 506.954C46.2483 506.421 45.7203 505.028 46.2533 503.843C46.7893 502.657 48.1793 502.124 49.3643 502.662C50.7593 503.287 52.1633 503.866 53.5783 504.394C54.7963 504.849 55.4143 506.205 54.9593 507.422C54.6063 508.369 53.7103 508.953 52.7563 508.953ZM107.119 507.188C106.921 507.188 106.722 507.165 106.524 507.11C104.955 506.706 103.413 506.264 101.894 505.796C100.653 505.41 99.9593 504.096 100.343 502.855C100.727 501.615 102.046 500.907 103.286 501.302C104.736 501.752 106.209 502.165 107.709 502.561C108.966 502.887 109.719 504.169 109.393 505.429C109.118 506.485 108.165 507.188 107.119 507.188ZM701.462 503.273C700.527 503.273 699.642 502.711 699.274 501.789C698.7 500.341 698.114 498.898 697.519 497.455C697.023 496.256 697.593 494.882 698.794 494.385C699.993 493.884 701.372 494.459 701.866 495.663C702.47 497.124 703.065 498.586 703.649 500.052C704.127 501.26 703.539 502.625 702.33 503.108C702.046 503.217 701.751 503.273 701.462 503.273ZM36.1573 500.166C35.6903 500.166 35.2193 500.028 34.8103 499.739C33.4893 498.815 32.1933 497.845 30.9223 496.83C29.9043 496.021 29.7383 494.541 30.5473 493.525C31.3543 492.505 32.8383 492.336 33.8543 493.153C35.0513 494.104 36.2693 495.019 37.5083 495.887C38.5743 496.632 38.8313 498.098 38.0873 499.164C37.6303 499.817 36.8993 500.166 36.1573 500.166ZM22.1773 487.62C21.5243 487.62 20.8743 487.349 20.4083 486.821C19.4983 485.782 18.4503 484.537 17.3203 483.093C16.5163 482.072 16.6953 480.593 17.7173 479.789C18.7373 478.989 20.2173 479.168 21.0193 480.188C22.0903 481.553 23.0823 482.729 23.9463 483.712C24.8033 484.691 24.7053 486.176 23.7283 487.035C23.2823 487.427 22.7283 487.62 22.1773 487.62ZM694.01 485.979C693.123 485.979 692.275 485.478 691.876 484.619C691.216 483.209 690.548 481.798 689.87 480.396C689.305 479.224 689.794 477.818 690.964 477.252C692.143 476.682 693.542 477.179 694.107 478.346C694.794 479.766 695.472 481.196 696.141 482.633C696.69 483.81 696.18 485.211 695.003 485.758C694.681 485.911 694.341 485.979 694.01 485.979ZM11.3683 472.234C10.5393 472.234 9.73729 471.797 9.30729 471.021C8.54929 469.647 7.80229 468.213 7.08829 466.714C6.52529 465.542 7.01928 464.141 8.19128 463.575C9.36528 463.01 10.7673 463.507 11.3303 464.682C12.0083 466.088 12.7093 467.449 13.4263 468.741C14.0563 469.876 13.6443 471.309 12.5073 471.939C12.1453 472.137 11.7543 472.234 11.3683 472.234ZM685.563 469.141C684.725 469.141 683.914 468.691 683.488 467.905C682.748 466.526 681.999 465.162 681.238 463.801C680.601 462.67 681.006 461.237 682.139 460.598C683.279 459.968 684.712 460.368 685.342 461.503C686.116 462.882 686.879 464.274 687.633 465.671C688.249 466.816 687.819 468.244 686.675 468.86C686.322 469.049 685.94 469.141 685.563 469.141ZM4.32629 454.831C3.28129 454.831 2.32428 454.128 2.05128 453.066C1.64928 451.508 1.29328 449.927 0.996284 448.309C0.762284 447.027 1.60728 445.805 2.88528 445.566C4.16728 445.364 5.39029 446.182 5.62429 447.455C5.90229 448.962 6.23129 450.442 6.60529 451.89C6.93229 453.15 6.17529 454.431 4.91629 454.758C4.71929 454.807 4.52129 454.831 4.32629 454.831ZM676.118 452.85C675.332 452.85 674.562 452.454 674.116 451.738C673.291 450.415 672.457 449.1 671.618 447.8C670.913 446.706 671.227 445.249 672.319 444.546C673.41 443.829 674.865 444.16 675.57 445.245C676.427 446.573 677.275 447.905 678.113 449.257C678.798 450.36 678.46 451.808 677.357 452.496C676.972 452.735 676.542 452.85 676.118 452.85ZM665.626 437.225C664.897 437.225 664.178 436.889 663.719 436.25C662.802 434.986 661.876 433.741 660.943 432.5C660.162 431.461 660.368 429.986 661.407 429.205C662.446 428.429 663.918 428.631 664.702 429.669C665.653 430.929 666.593 432.201 667.528 433.492C668.291 434.541 668.056 436.015 667.004 436.778C666.586 437.078 666.103 437.225 665.626 437.225ZM2.35628 436.186C2.31328 436.186 2.27129 436.186 2.22829 436.182C0.930286 436.113 -0.0647122 435.005 0.00328777 433.709L0.0492854 432.914C0.132285 431.544 0.267287 430.184 0.449287 428.833C0.621287 427.546 1.78629 426.576 3.09629 426.815C4.38329 426.985 5.28629 428.17 5.11429 429.458C4.94729 430.698 4.82428 431.948 4.74628 433.203L4.70528 433.957C4.63628 435.212 3.59728 436.186 2.35628 436.186ZM653.891 422.51C653.247 422.51 652.606 422.247 652.142 421.733C651.101 420.575 650.051 419.445 648.99 418.346C648.087 417.411 648.114 415.922 649.05 415.019C649.988 414.118 651.479 414.146 652.377 415.079C653.476 416.217 654.562 417.386 655.64 418.581C656.509 419.551 656.431 421.035 655.465 421.903C655.014 422.312 654.451 422.51 653.891 422.51ZM6.44829 417.915C6.14729 417.915 5.83929 417.854 5.54529 417.73C4.34529 417.232 3.77529 415.855 4.27629 414.656C4.90329 413.146 5.59529 411.662 6.35329 410.21C6.95329 409.054 8.37129 408.606 9.52629 409.21C10.6803 409.812 11.1253 411.232 10.5263 412.383C9.83229 413.716 9.19628 415.076 8.61928 416.462C8.24528 417.367 7.37029 417.915 6.44829 417.915ZM643.335 409.233C642.802 409.233 642.264 409.052 641.821 408.679C640.828 407.843 640.699 406.358 641.538 405.364C642.531 404.187 643.514 402.988 644.491 401.77C645.309 400.759 646.789 400.598 647.8 401.407C648.814 402.22 648.977 403.702 648.163 404.716C647.164 405.961 646.152 407.188 645.137 408.397C644.672 408.948 644.006 409.233 643.335 409.233ZM16.5063 402.11C15.9413 402.11 15.3733 401.908 14.9233 401.497C13.9633 400.624 13.8923 399.135 14.7673 398.174C15.2683 397.623 15.7813 397.078 16.3053 396.545L16.2703 396.139C16.1693 394.845 17.1363 393.712 18.4323 393.609C19.7193 393.513 20.8613 394.473 20.9623 395.772L21.0863 397.219C21.1503 397.925 20.8953 398.623 20.3873 399.119C19.6493 399.841 18.9373 400.583 18.2453 401.341C17.7813 401.85 17.1453 402.11 16.5063 402.11ZM654.752 394.272C654.29 394.272 653.826 394.137 653.417 393.854C652.349 393.116 652.08 391.65 652.82 390.582C653.697 389.309 654.566 388.024 655.423 386.722C656.134 385.638 657.594 385.332 658.681 386.051C659.766 386.763 660.067 388.222 659.352 389.309C658.477 390.639 657.59 391.956 656.689 393.256C656.235 393.919 655.499 394.272 654.752 394.272ZM18.0963 384.206C18.0893 384.206 18.0803 384.206 18.0713 384.206C16.7733 384.192 15.7293 383.128 15.7433 381.828C15.7603 380.245 15.8013 378.65 15.8723 377.041C15.9323 375.745 16.9473 374.732 18.3263 374.794C19.6243 374.851 20.6313 375.95 20.5733 377.248C20.5073 378.802 20.4653 380.346 20.4493 381.878C20.4353 383.167 19.3853 384.206 18.0963 384.206ZM664.716 378.31C664.325 378.31 663.932 378.213 663.567 378.009C662.434 377.375 662.03 375.941 662.666 374.806C663.422 373.459 664.162 372.099 664.888 370.725C665.497 369.579 666.919 369.14 668.068 369.746C669.217 370.352 669.656 371.777 669.047 372.926C668.302 374.332 667.544 375.724 666.77 377.108C666.338 377.878 665.538 378.31 664.716 378.31ZM19.6273 365.456C19.5053 365.456 19.3783 365.447 19.2523 365.426C17.9703 365.221 17.0973 364.015 17.3013 362.731C17.5513 361.162 17.8373 359.585 18.1543 358.007C18.4093 356.734 19.6363 355.909 20.9273 356.166C22.2003 356.423 23.0253 357.666 22.7673 358.939C22.4613 360.453 22.1883 361.965 21.9473 363.473C21.7633 364.631 20.7643 365.456 19.6273 365.456ZM673.098 361.469C672.785 361.469 672.466 361.407 672.158 361.271C670.968 360.752 670.423 359.364 670.945 358.174C671.565 356.754 672.165 355.325 672.753 353.891C673.25 352.685 674.628 352.12 675.823 352.604C677.027 353.098 677.602 354.472 677.11 355.674C676.508 357.145 675.892 358.606 675.255 360.058C674.869 360.943 674.006 361.469 673.098 361.469ZM24.1673 347.216C23.9123 347.216 23.6523 347.174 23.3953 347.085C22.1683 346.66 21.5183 345.32 21.9453 344.091C22.4663 342.586 23.0293 341.081 23.6323 339.58C24.1143 338.373 25.4823 337.781 26.6903 338.273C27.8973 338.755 28.4833 340.125 27.9983 341.331C27.4233 342.763 26.8883 344.199 26.3903 345.635C26.0533 346.607 25.1413 347.216 24.1673 347.216ZM679.725 343.861C679.491 343.861 679.254 343.827 679.017 343.753C677.779 343.362 677.089 342.041 677.48 340.8C677.946 339.325 678.39 337.843 678.817 336.351C679.173 335.101 680.494 334.389 681.726 334.738C682.973 335.094 683.697 336.397 683.339 337.647C682.902 339.175 682.445 340.698 681.969 342.215C681.653 343.22 680.724 343.861 679.725 343.861ZM31.9913 330.132C31.5913 330.132 31.1843 330.031 30.8143 329.815C29.6883 329.163 29.3053 327.724 29.9573 326.601C30.7543 325.222 31.5953 323.852 32.4803 322.488C33.1883 321.399 34.6443 321.087 35.7343 321.794C36.8233 322.5 37.1353 323.956 36.4283 325.047C35.5893 326.343 34.7903 327.649 34.0293 328.958C33.5933 329.711 32.8023 330.132 31.9913 330.132ZM684.334 325.619C684.189 325.619 684.042 325.605 683.895 325.578C682.618 325.336 681.779 324.105 682.02 322.829C682.307 321.31 682.571 319.789 682.808 318.266C683.01 316.984 684.184 316.113 685.496 316.304C686.778 316.504 687.658 317.708 687.458 318.992C687.212 320.566 686.938 322.138 686.642 323.703C686.43 324.833 685.444 325.619 684.334 325.619ZM410.318 321.92C409.289 321.92 408.344 321.24 408.052 320.199C407.705 318.947 408.438 317.649 409.688 317.299L414.233 316.045C415.467 315.698 416.779 316.433 417.124 317.69C417.469 318.942 416.733 320.236 415.479 320.581L410.952 321.836C410.74 321.892 410.527 321.92 410.318 321.92ZM398.298 321.14C397.579 321.14 396.869 320.812 396.407 320.189L393.597 316.439C392.813 315.403 393.018 313.928 394.054 313.142C395.091 312.358 396.563 312.559 397.351 313.6L400.184 317.387C400.958 318.43 400.74 319.903 399.697 320.678C399.277 320.989 398.785 321.14 398.298 321.14ZM428.487 317C427.442 317 426.488 316.299 426.212 315.24C425.886 313.981 426.639 312.696 427.896 312.37L432.478 311.201C433.728 310.884 435.015 311.649 435.332 312.91C435.649 314.169 434.884 315.447 433.622 315.764L429.082 316.924C428.882 316.977 428.684 317 428.487 317ZM42.6853 314.661C42.1773 314.661 41.6673 314.498 41.2373 314.16C40.2133 313.358 40.0333 311.881 40.8353 310.858C41.8123 309.61 42.8093 308.374 43.8293 307.142C44.6573 306.147 46.1433 306.002 47.1423 306.834C48.1423 307.663 48.2803 309.146 47.4503 310.147C46.4573 311.341 45.4883 312.545 44.5393 313.756C44.0753 314.35 43.3843 314.661 42.6853 314.661ZM446.788 312.579C445.708 312.579 444.736 311.832 444.493 310.734C444.213 309.465 445.014 308.209 446.283 307.928C447.82 307.588 449.364 307.255 450.913 306.933C452.177 306.66 453.429 307.482 453.696 308.755C453.963 310.026 453.147 311.274 451.874 311.537C450.344 311.859 448.818 312.187 447.299 312.523C447.129 312.561 446.956 312.579 446.788 312.579ZM465.263 308.99C464.133 308.99 463.133 308.172 462.945 307.021C462.734 305.739 463.6 304.528 464.882 304.316C466.442 304.059 468.007 303.813 469.572 303.581C470.854 303.388 472.053 304.277 472.244 305.564C472.434 306.851 471.545 308.046 470.261 308.236C468.719 308.464 467.182 308.705 465.649 308.958C465.518 308.981 465.389 308.99 465.263 308.99ZM686.623 306.947C686.579 306.947 686.536 306.947 686.492 306.943C685.196 306.874 684.201 305.764 684.272 304.466C684.355 302.929 684.41 301.387 684.442 299.845C684.469 298.547 685.641 297.506 686.843 297.54C688.141 297.568 689.173 298.643 689.148 299.941C689.116 301.538 689.056 303.13 688.968 304.723C688.902 305.975 687.864 306.947 686.623 306.947ZM386.747 306.283C386.067 306.283 385.396 305.991 384.93 305.429C383.942 304.229 382.94 303.044 381.929 301.868C381.081 300.882 381.192 299.398 382.177 298.55C383.154 297.7 384.645 297.81 385.495 298.798C386.529 299.998 387.549 301.211 388.56 302.433C389.388 303.435 389.245 304.919 388.243 305.746C387.804 306.106 387.273 306.283 386.747 306.283ZM55.0613 300.486C54.4713 300.486 53.8803 300.266 53.4233 299.822C52.4903 298.919 52.4673 297.428 53.3723 296.495C54.4683 295.365 55.5853 294.236 56.7203 293.118C57.6513 292.205 59.1403 292.221 60.0483 293.141C60.9603 294.067 60.9513 295.556 60.0253 296.468C58.9133 297.564 57.8233 298.665 56.7513 299.772C56.2883 300.247 55.6743 300.486 55.0613 300.486ZM476.6 297.6C476.345 297.6 476.085 297.558 475.832 297.471C474.603 297.046 473.95 295.706 474.376 294.479C474.884 293.008 475.412 291.517 475.964 290.003C476.405 288.781 477.756 288.153 478.981 288.599C480.201 289.045 480.831 290.393 480.385 291.616C479.843 293.102 479.323 294.571 478.824 296.014C478.487 296.988 477.576 297.6 476.6 297.6ZM385.226 291.51C384.769 291.51 384.309 291.377 383.903 291.101C382.83 290.368 382.552 288.905 383.285 287.831C384.165 286.542 385.031 285.248 385.886 283.952C386.605 282.868 388.062 282.571 389.144 283.281C390.231 283.996 390.529 285.455 389.815 286.539C388.946 287.858 388.066 289.17 387.172 290.482C386.717 291.152 385.977 291.51 385.226 291.51ZM686.29 288.144C685.088 288.144 684.063 287.23 683.948 286.009C683.808 284.476 683.635 282.946 683.436 281.416C683.27 280.127 684.181 278.946 685.467 278.778C686.747 278.629 687.937 279.52 688.105 280.809C688.31 282.399 688.486 283.984 688.636 285.572C688.756 286.868 687.804 288.012 686.511 288.134C686.434 288.142 686.361 288.144 686.29 288.144ZM68.7533 287.584C68.0943 287.584 67.4373 287.306 66.9703 286.768C66.1223 285.782 66.2333 284.298 67.2163 283.448C68.4113 282.421 69.6193 281.401 70.8463 280.383C71.8433 279.553 73.3263 279.694 74.1593 280.696C74.9863 281.698 74.8483 283.18 73.8463 284.009C72.6423 285.004 71.4563 286.006 70.2893 287.015C69.8453 287.395 69.2983 287.584 68.7533 287.584ZM483.383 280.031C483.073 280.031 482.758 279.968 482.455 279.84C481.26 279.328 480.708 277.944 481.221 276.75C481.841 275.305 482.482 273.854 483.144 272.398C483.679 271.219 485.065 270.684 486.26 271.23C487.443 271.768 487.965 273.163 487.427 274.346C486.779 275.771 486.152 277.193 485.545 278.606C485.161 279.498 484.295 280.031 483.383 280.031ZM83.4803 275.869C82.7563 275.869 82.0413 275.536 81.5823 274.909C80.8123 273.861 81.0383 272.388 82.0853 271.621C83.3493 270.69 84.6313 269.764 85.9293 268.843C86.9883 268.087 88.4613 268.34 89.2103 269.401C89.9613 270.461 89.7133 271.929 88.6543 272.68C87.3743 273.587 86.1153 274.499 84.8693 275.412C84.4523 275.72 83.9623 275.869 83.4803 275.869ZM395.364 275.647C394.95 275.647 394.532 275.539 394.153 275.309C393.038 274.64 392.68 273.193 393.351 272.08C394.16 270.736 394.957 269.392 395.743 268.054C396.403 266.935 397.846 266.556 398.965 267.218C400.086 267.877 400.458 269.321 399.802 270.439C399.006 271.79 398.2 273.148 397.382 274.506C396.94 275.24 396.161 275.647 395.364 275.647ZM683.056 269.626C682.024 269.626 681.078 268.941 680.79 267.898C680.376 266.396 679.926 264.934 679.455 263.519C679.044 262.285 679.71 260.953 680.942 260.543C682.18 260.129 683.506 260.798 683.918 262.03C684.417 263.523 684.89 265.063 685.327 266.648C685.672 267.901 684.936 269.196 683.684 269.541C683.475 269.599 683.264 269.626 683.056 269.626ZM99.0043 265.235C98.2283 265.235 97.4693 264.851 97.0193 264.151C96.3213 263.055 96.6403 261.601 97.7343 260.899C99.0553 260.056 100.392 259.213 101.746 258.376C102.849 257.689 104.304 258.032 104.984 259.137C105.669 260.24 105.329 261.69 104.223 262.375C102.892 263.202 101.573 264.031 100.271 264.866C99.8773 265.116 99.4383 265.235 99.0043 265.235ZM491.55 263.062C491.173 263.062 490.789 262.972 490.433 262.779C489.291 262.161 488.864 260.734 489.482 259.589C490.233 258.199 491.003 256.809 491.794 255.425C492.437 254.297 493.876 253.899 495.004 254.55C496.132 255.193 496.525 256.632 495.88 257.76C495.108 259.111 494.357 260.469 493.623 261.827C493.197 262.613 492.386 263.062 491.55 263.062ZM404.734 259.236C404.362 259.236 403.992 259.149 403.649 258.961C402.512 258.331 402.057 256.973 402.684 255.836L402.767 255.691L404.941 251.72C405.557 250.58 406.988 250.153 408.132 250.78C409.272 251.4 409.695 252.829 409.072 253.972L406.887 257.963C406.449 258.757 405.596 259.236 404.734 259.236ZM115.137 255.543C114.314 255.543 113.517 255.113 113.085 254.346C112.446 253.213 112.848 251.78 113.979 251.14C115.346 250.371 116.723 249.603 118.115 248.838C119.259 248.215 120.686 248.633 121.311 249.769C121.936 250.909 121.52 252.34 120.38 252.965C119.001 253.721 117.639 254.479 116.29 255.24C115.925 255.447 115.527 255.543 115.137 255.543ZM676.338 252.069C675.456 252.069 674.61 251.57 674.208 250.72C673.517 249.257 672.834 247.852 672.177 246.511C671.607 245.346 672.09 243.935 673.257 243.363C674.42 242.791 675.833 243.276 676.405 244.443C677.072 245.803 677.763 247.226 678.464 248.712C679.018 249.886 678.515 251.29 677.34 251.844C677.016 251.998 676.673 252.069 676.338 252.069ZM501.329 246.984C500.87 246.984 500.405 246.851 499.998 246.57C498.927 245.835 498.656 244.369 499.392 243.298C500.295 241.984 501.221 240.683 502.165 239.399C502.932 238.353 504.408 238.124 505.453 238.896C506.501 239.665 506.726 241.139 505.956 242.184C505.039 243.431 504.145 244.691 503.27 245.964C502.813 246.628 502.078 246.984 501.329 246.984ZM131.722 246.602C130.872 246.602 130.051 246.14 129.631 245.334C129.18 244.463 129.325 243.443 129.918 242.735C129.79 241.97 129.663 241.2 129.541 240.428C129.339 239.146 130.217 237.942 131.501 237.737C132.795 237.551 133.987 238.413 134.192 239.697C134.39 240.95 134.596 242.195 134.812 243.433C134.992 244.442 134.498 245.448 133.592 245.924L132.804 246.338C132.457 246.517 132.087 246.602 131.722 246.602ZM413.489 242.662C413.14 242.662 412.784 242.584 412.448 242.418C411.283 241.841 410.805 240.43 411.382 239.265C412.076 237.861 412.756 236.462 413.425 235.06C413.979 233.888 415.382 233.383 416.561 233.95C417.733 234.508 418.231 235.914 417.671 237.086C416.993 238.506 416.304 239.928 415.601 241.351C415.189 242.181 414.355 242.662 413.489 242.662ZM671.634 234.872C671.365 234.872 671.09 234.826 670.823 234.727C669.603 234.279 668.978 232.928 669.426 231.708L671.041 227.294C671.487 226.074 672.836 225.451 674.056 225.888C675.276 226.331 675.908 227.68 675.462 228.903L673.842 233.331C673.493 234.282 672.593 234.872 671.634 234.872ZM513.002 232.223C512.434 232.223 511.864 232.018 511.414 231.607C510.456 230.729 510.389 229.24 511.265 228.282C512.345 227.101 513.448 225.941 514.572 224.805C515.484 223.884 516.978 223.875 517.899 224.787C518.823 225.701 518.832 227.19 517.918 228.114C516.835 229.208 515.778 230.322 514.74 231.457C514.275 231.965 513.638 232.223 513.002 232.223ZM130.063 228.42C128.868 228.42 127.845 227.515 127.724 226.301C127.568 224.736 127.423 223.16 127.292 221.572C127.184 220.276 128.147 219.139 129.44 219.033C130.738 218.872 131.874 219.885 131.979 221.181C132.11 222.741 132.25 224.29 132.407 225.832C132.535 227.124 131.593 228.277 130.3 228.408C130.221 228.415 130.141 228.42 130.063 228.42ZM421.368 225.566C421.058 225.566 420.745 225.506 420.442 225.376C419.247 224.866 418.693 223.483 419.206 222.288C419.819 220.849 420.421 219.413 421.007 217.982C421.504 216.778 422.882 216.204 424.077 216.695C425.279 217.189 425.855 218.561 425.364 219.765C424.769 221.22 424.158 222.679 423.531 224.14C423.149 225.031 422.28 225.566 421.368 225.566ZM526.8 219.459C526.095 219.459 525.399 219.144 524.934 218.542C524.141 217.513 524.332 216.035 525.362 215.243C526.637 214.259 527.935 213.31 529.259 212.393C530.323 211.653 531.789 211.92 532.533 212.988C533.273 214.056 533.006 215.523 531.938 216.262C530.679 217.133 529.445 218.036 528.234 218.969C527.806 219.3 527.301 219.459 526.8 219.459ZM678.029 217.163C677.769 217.163 677.505 217.119 677.245 217.03C676.02 216.595 675.377 215.254 675.809 214.027L677.365 209.595C677.792 208.37 679.136 207.727 680.361 208.147C681.588 208.574 682.236 209.916 681.809 211.143L680.249 215.594C679.907 216.559 678.999 217.163 678.029 217.163ZM128.82 209.635C127.556 209.635 126.51 208.631 126.471 207.358C126.418 205.784 126.379 204.201 126.354 202.61C126.334 201.312 127.37 200.241 128.67 200.22C129.757 200.165 131.039 201.238 131.06 202.536C131.085 204.099 131.124 205.654 131.172 207.205C131.216 208.503 130.195 209.59 128.898 209.632C128.873 209.635 128.847 209.635 128.82 209.635ZM542.788 209.594C541.908 209.594 541.064 209.1 540.662 208.252C540.101 207.08 540.6 205.676 541.774 205.118C543.221 204.427 544.696 203.774 546.197 203.163C547.405 202.669 548.773 203.248 549.264 204.452C549.755 205.656 549.177 207.03 547.975 207.519C546.557 208.098 545.164 208.714 543.795 209.364C543.47 209.521 543.126 209.594 542.788 209.594ZM428.24 208.046C427.978 208.046 427.709 208.002 427.447 207.908C426.224 207.472 425.586 206.125 426.025 204.9C426.551 203.427 427.061 201.957 427.562 200.491C427.98 199.262 429.317 198.597 430.547 199.023C431.777 199.441 432.436 200.778 432.015 202.008C431.51 203.497 430.99 204.99 430.455 206.486C430.113 207.446 429.206 208.046 428.24 208.046ZM559.621 201.692C559.256 201.692 558.884 201.607 558.536 201.425C557.383 200.825 556.937 199.403 557.536 198.252C558.046 197.271 558.689 195.75 559.326 194.153C559.808 192.945 561.185 192.356 562.382 192.838C563.59 193.319 564.179 194.688 563.696 195.894C562.99 197.661 562.273 199.343 561.708 200.425C561.29 201.233 560.472 201.692 559.621 201.692ZM684.102 199.344C683.86 199.344 683.615 199.307 683.371 199.229C682.137 198.825 681.461 197.497 681.864 196.26L683.303 191.796C683.701 190.557 685.01 189.87 686.26 190.268C687.499 190.664 688.181 191.987 687.788 193.226L686.34 197.723C686.016 198.714 685.093 199.344 684.102 199.344ZM128.806 190.805C128.781 190.805 128.756 190.805 128.73 190.805C127.432 190.763 126.412 189.679 126.451 188.378C126.501 186.804 126.561 185.226 126.633 183.642C126.693 182.342 127.927 181.321 129.089 181.397C130.387 181.457 131.394 182.555 131.334 183.853C131.263 185.413 131.203 186.969 131.157 188.524C131.115 189.799 130.07 190.805 128.806 190.805ZM433.983 190.123C433.772 190.123 433.556 190.096 433.344 190.036C432.092 189.684 431.363 188.384 431.715 187.134C432.14 185.626 432.547 184.124 432.942 182.63C433.275 181.373 434.578 180.631 435.816 180.955C437.073 181.286 437.822 182.572 437.491 183.829C437.091 185.35 436.675 186.876 436.245 188.407C435.954 189.445 435.01 190.123 433.983 190.123ZM566.416 184.128C566.15 184.128 565.881 184.084 565.617 183.988C564.394 183.545 563.763 182.196 564.204 180.976L565.817 176.541C566.263 175.321 567.612 174.7 568.834 175.139C570.057 175.585 570.684 176.936 570.238 178.158L568.63 182.577C568.282 183.533 567.379 184.128 566.416 184.128ZM689.644 181.361C689.43 181.361 689.21 181.331 688.992 181.269C687.744 180.908 687.023 179.605 687.384 178.355L688.535 174.281C688.88 173.033 690.224 172.075 691.481 172.422C692.733 172.765 693.531 173.838 693.193 175.09C692.69 176.914 692.301 178.289 691.906 179.66C691.609 180.69 690.667 181.361 689.644 181.361ZM129.953 172.009C129.882 172.009 129.808 172.007 129.734 172C128.438 171.878 127.487 170.734 127.607 169.44C127.754 167.866 127.91 166.29 128.08 164.713C128.216 163.422 129.358 162.454 130.67 162.625C131.961 162.763 132.897 163.923 132.759 165.214C132.594 166.767 132.437 168.321 132.295 169.872C132.18 171.092 131.155 172.009 129.953 172.009ZM438.409 171.832C438.255 171.832 438.101 171.818 437.945 171.786C436.67 171.531 435.845 170.29 436.1 169.017C436.408 167.485 436.698 165.956 436.971 164.438C437.203 163.16 438.442 162.324 439.708 162.542C440.985 162.774 441.836 163.999 441.604 165.279C441.321 166.825 441.027 168.381 440.715 169.941C440.488 171.06 439.507 171.832 438.409 171.832ZM572.93 166.465C572.654 166.465 572.374 166.417 572.1 166.314C570.885 165.857 570.268 164.501 570.728 163.283L572.405 158.869C572.869 157.658 574.227 157.056 575.445 157.515C576.658 157.979 577.265 159.342 576.798 160.555L575.13 164.941C574.778 165.884 573.882 166.465 572.93 166.465ZM693.213 162.921C693.158 162.921 693.103 162.919 693.048 162.916C691.752 162.824 690.773 161.701 690.862 160.405C690.97 158.875 691.023 157.363 691.025 155.862C691.027 154.566 692.08 153.514 693.378 153.514C693.38 153.514 693.38 153.514 693.382 153.514C694.68 153.517 695.733 154.571 695.731 155.871C695.729 157.473 695.671 159.095 695.559 160.731C695.472 161.972 694.437 162.921 693.213 162.921ZM132.26 153.312C132.141 153.312 132.019 153.303 131.897 153.284C130.612 153.084 129.732 151.88 129.932 150.598C130.176 149.033 130.431 147.473 130.7 145.91C130.921 144.635 132.127 143.787 133.418 143.991C134.698 144.211 135.557 145.427 135.337 146.709C135.072 148.244 134.822 149.781 134.583 151.318C134.401 152.483 133.399 153.312 132.26 153.312ZM441.322 153.245C441.235 153.245 441.147 153.241 441.06 153.231C439.769 153.087 438.838 151.923 438.981 150.632C439.153 149.083 439.308 147.541 439.441 146.004C439.553 144.711 440.709 143.761 441.989 143.865C443.283 143.977 444.241 145.117 444.129 146.413C443.991 147.987 443.837 149.565 443.66 151.151C443.523 152.356 442.505 153.245 441.322 153.245ZM579.796 148.937C579.5 148.937 579.198 148.882 578.907 148.762C577.703 148.27 577.126 146.899 577.618 145.695C578.213 144.236 578.817 142.777 579.428 141.322C579.936 140.12 581.317 139.569 582.509 140.065C583.706 140.568 584.269 141.949 583.766 143.146C583.159 144.587 582.564 146.027 581.973 147.473C581.602 148.385 580.722 148.937 579.796 148.937ZM691.88 144.211C690.802 144.211 689.83 143.466 689.586 142.37C689.255 140.891 688.869 139.434 688.428 138.004C688.044 136.763 688.741 135.444 689.981 135.063C691.231 134.689 692.541 135.376 692.922 136.616C693.4 138.165 693.818 139.741 694.177 141.345C694.462 142.613 693.662 143.87 692.394 144.153C692.222 144.192 692.05 144.211 691.88 144.211ZM135.752 134.81C135.582 134.81 135.412 134.792 135.24 134.755C133.972 134.472 133.172 133.216 133.452 131.947C133.796 130.403 134.153 128.861 134.525 127.324C134.831 126.06 136.113 125.286 137.363 125.589C138.627 125.892 139.403 127.163 139.098 128.427C138.735 129.937 138.383 131.451 138.048 132.967C137.805 134.064 136.83 134.81 135.752 134.81ZM442.482 134.465C442.473 134.465 442.466 134.465 442.457 134.465C441.157 134.451 440.116 133.385 440.129 132.087L440.138 130.216C440.138 129.29 440.131 128.366 440.115 127.447C440.092 126.147 441.128 125.076 442.427 125.053C443.682 125.135 444.799 126.066 444.822 127.364C444.838 128.311 444.845 129.262 444.845 130.216L444.836 132.137C444.822 133.429 443.771 134.465 442.482 134.465ZM587.473 131.761C587.082 131.761 586.685 131.665 586.32 131.458C585.19 130.819 584.787 129.385 585.426 128.252C586.23 126.828 587.08 125.44 587.979 124.093C588.698 123.009 590.162 122.719 591.242 123.44C592.324 124.162 592.616 125.623 591.894 126.703C591.06 127.953 590.269 129.24 589.525 130.563C589.093 131.331 588.296 131.761 587.473 131.761ZM684.879 126.835C684.091 126.835 683.321 126.439 682.878 125.721C682.085 124.446 681.24 123.205 680.344 122.005C679.565 120.964 679.779 119.489 680.82 118.713C681.865 117.934 683.336 118.15 684.112 119.189C685.091 120.499 686.015 121.85 686.877 123.245C687.562 124.348 687.221 125.8 686.116 126.482C685.729 126.722 685.301 126.835 684.879 126.835ZM599.042 117.011C598.413 117.011 597.785 116.761 597.323 116.264C596.436 115.315 596.487 113.826 597.436 112.939C598.628 111.824 599.862 110.758 601.133 109.745C602.151 108.93 603.628 109.102 604.439 110.115C605.251 111.131 605.085 112.61 604.069 113.422C602.895 114.362 601.753 115.345 600.648 116.377C600.196 116.802 599.619 117.011 599.042 117.011ZM140.481 116.6C140.26 116.6 140.033 116.568 139.808 116.501C138.562 116.131 137.855 114.819 138.227 113.573C138.68 112.056 139.144 110.545 139.625 109.04C140.023 107.804 141.344 107.112 142.582 107.512C143.821 107.908 144.503 109.231 144.11 110.469C143.639 111.946 143.18 113.43 142.736 114.92C142.432 115.941 141.497 116.6 140.481 116.6ZM441.635 115.675C440.442 115.675 439.42 114.774 439.296 113.563C439.137 112.019 438.958 110.486 438.752 108.963C438.58 107.676 439.482 106.49 440.77 106.315C442.059 106.131 443.242 107.046 443.417 108.333C443.628 109.907 443.817 111.49 443.98 113.08C444.111 114.374 443.171 115.53 441.88 115.663C441.795 115.67 441.715 115.675 441.635 115.675ZM672.356 112.921C671.853 112.921 671.345 112.76 670.915 112.427C669.741 111.515 668.517 110.646 667.246 109.826C666.155 109.123 665.84 107.666 666.545 106.575C667.248 105.479 668.705 105.167 669.797 105.874C671.182 106.768 672.517 107.714 673.802 108.709C674.827 109.504 675.015 110.984 674.218 112.011C673.753 112.609 673.059 112.921 672.356 112.921ZM614.571 106.513C613.684 106.513 612.834 106.009 612.436 105.153C611.887 103.974 612.397 102.575 613.576 102.028C615.055 101.339 616.563 100.709 618.091 100.144C619.322 99.6908 620.662 100.314 621.115 101.532C621.568 102.752 620.945 104.105 619.727 104.556C618.314 105.08 616.926 105.659 615.561 106.293C615.24 106.442 614.902 106.513 614.571 106.513ZM655.826 104.112C655.578 104.112 655.323 104.073 655.074 103.987C653.642 103.507 652.199 103.089 650.747 102.73C649.486 102.422 648.713 101.147 649.022 99.8847C649.332 98.6237 650.624 97.8438 651.869 98.1618C653.45 98.5478 655.022 99.0028 656.577 99.5288C657.809 99.9428 658.47 101.278 658.055 102.51C657.723 103.491 656.809 104.112 655.826 104.112ZM632.613 101.502C631.421 101.502 630.398 100.599 630.274 99.3877C630.143 98.0937 631.085 96.9408 632.377 96.8078C634.001 96.6428 635.635 96.5457 637.278 96.5177C638.423 96.4147 639.645 97.5358 639.668 98.8338C639.689 100.132 638.652 101.203 637.352 101.224C635.847 101.247 634.346 101.339 632.855 101.491C632.772 101.497 632.691 101.502 632.613 101.502ZM146.55 98.7948C146.267 98.7948 145.98 98.7438 145.702 98.6358C144.491 98.1698 143.887 96.8067 144.355 95.5937C144.925 94.1137 145.511 92.6457 146.11 91.1837C146.602 89.9797 147.978 89.4058 149.18 89.9018C150.382 90.3938 150.956 91.7678 150.462 92.9718C149.876 94.4008 149.304 95.8418 148.743 97.2898C148.383 98.2218 147.494 98.7948 146.55 98.7948ZM438.532 97.1217C437.466 97.1217 436.498 96.3917 436.243 95.3087C435.889 93.8017 435.51 92.3058 435.108 90.8238C434.768 89.5698 435.508 88.2778 436.762 87.9378C438.019 87.5928 439.31 88.3348 439.648 89.5918C440.064 91.1248 440.457 92.6707 440.824 94.2287C441.12 95.4947 440.337 96.7607 439.073 97.0597C438.893 97.1007 438.712 97.1217 438.532 97.1217ZM154.075 81.5708C153.728 81.5708 153.374 81.4927 153.041 81.3297C151.874 80.7577 151.393 79.3467 151.966 78.1817C152.667 76.7547 153.384 75.3417 154.116 73.9397C154.721 72.7907 156.136 72.3357 157.292 72.9467C158.443 73.5487 158.889 74.9707 158.285 76.1217C157.571 77.4867 156.872 78.8628 156.189 80.2528C155.78 81.0878 154.944 81.5708 154.075 81.5708ZM432.96 79.1618C432.02 79.1618 431.131 78.5947 430.768 77.6637C430.207 76.2277 429.621 74.8058 429.008 73.3968C428.486 72.2068 429.031 70.8187 430.221 70.2987C431.427 69.7707 432.799 70.3237 433.318 71.5117C433.959 72.9777 434.568 74.4578 435.151 75.9538C435.625 77.1648 435.025 78.5268 433.814 79.0008C433.535 79.1118 433.245 79.1618 432.96 79.1618ZM163.209 65.1457C162.784 65.1457 162.352 65.0308 161.963 64.7878C160.862 64.1008 160.527 62.6487 161.216 61.5457C162.062 60.1927 162.928 58.8547 163.808 57.5337C164.527 56.4537 165.986 56.1638 167.073 56.8838C168.153 57.6078 168.445 59.0668 167.723 60.1488C166.866 61.4288 166.027 62.7248 165.205 64.0418C164.76 64.7528 163.992 65.1457 163.209 65.1457ZM424.824 62.2068C424.01 62.2068 423.22 61.7837 422.784 61.0307C422.016 59.6987 421.221 58.3837 420.403 57.0807C419.709 55.9797 420.04 54.5277 421.138 53.8357C422.248 53.1457 423.693 53.4728 424.383 54.5708C425.238 55.9258 426.06 57.2937 426.86 58.6767C427.51 59.8027 427.124 61.2418 425.998 61.8918C425.628 62.1058 425.223 62.2068 424.824 62.2068ZM174.102 49.8128C173.585 49.8128 173.064 49.6428 172.629 49.2928C171.618 48.4798 171.457 46.9977 172.271 45.9837C173.277 44.7317 174.295 43.5067 175.329 42.3047C176.179 41.3217 177.662 41.2108 178.647 42.0558C179.631 42.9018 179.743 44.3887 178.896 45.3737C177.898 46.5337 176.913 47.7218 175.939 48.9328C175.474 49.5108 174.792 49.8128 174.102 49.8128ZM414.201 46.6967C413.511 46.6967 412.829 46.3958 412.365 45.8188C411.405 44.6238 410.419 43.4458 409.41 42.2798C408.558 41.2988 408.664 39.8148 409.644 38.9618C410.623 38.1068 412.11 38.2078 412.962 39.1958C414.012 40.4018 415.034 41.6268 416.032 42.8678C416.846 43.8808 416.684 45.3627 415.674 46.1767C415.238 46.5267 414.718 46.6967 414.201 46.6967ZM186.837 35.9707C186.214 35.9707 185.594 35.7248 185.132 35.2378C184.236 34.2958 184.275 32.8068 185.217 31.9128C186.382 30.8028 187.563 29.7248 188.757 28.6778C189.738 27.8188 191.218 27.9148 192.077 28.8918C192.936 29.8688 192.84 31.3548 191.864 32.2118C190.715 33.2228 189.58 34.2587 188.456 35.3227C188.002 35.7567 187.418 35.9707 186.837 35.9707ZM401.354 32.9768C400.784 32.9768 400.212 32.7718 399.759 32.3548C398.649 31.3318 397.516 30.3237 396.361 29.3307L399.387 25.7257C400.623 26.7897 401.797 27.8348 402.948 28.8938C403.904 29.7738 403.964 31.2627 403.083 32.2187C402.62 32.7207 401.989 32.9768 401.354 32.9768ZM201.426 24.1067C200.679 24.1067 199.946 23.7537 199.489 23.0907C198.749 22.0227 199.016 20.5568 200.086 19.8188C201.407 18.9038 202.742 18.0218 204.091 17.1698C205.192 16.4788 206.646 16.8067 207.338 17.9027C208.032 19.0037 207.703 20.4557 206.605 21.1497C205.311 21.9647 204.031 22.8108 202.761 23.6888C202.354 23.9708 201.887 24.1067 201.426 24.1067ZM386.508 21.4467C386.076 21.4467 385.639 21.3268 385.247 21.0788C383.953 20.2558 382.641 19.4637 381.313 18.7047C380.185 18.0607 379.792 16.6227 380.438 15.4947C381.081 14.3667 382.518 13.9697 383.648 14.6197C385.041 15.4147 386.417 16.2448 387.775 17.1078C388.871 17.8068 389.195 19.2587 388.497 20.3567C388.048 21.0597 387.287 21.4467 386.508 21.4467ZM217.728 14.7478C216.841 14.7478 215.991 14.2447 215.593 13.3877C215.044 12.2087 215.554 10.8097 216.733 10.2627C218.185 9.58473 219.651 8.94173 221.129 8.32773C222.328 7.83873 223.707 8.39874 224.203 9.60074C224.702 10.8027 224.13 12.1788 222.93 12.6748C221.512 13.2608 220.111 13.8808 218.718 14.5268C218.397 14.6768 218.059 14.7478 217.728 14.7478ZM369.75 12.9438C369.465 12.9438 369.176 12.8937 368.895 12.7827C367.468 12.2267 366.03 11.7068 364.578 11.2198C363.347 10.8058 362.68 9.47273 363.094 8.24173C363.505 7.00773 364.843 6.35072 366.072 6.75772C367.598 7.26772 369.11 7.81477 370.606 8.39877C371.817 8.86977 372.414 10.2348 371.943 11.4458C371.579 12.3768 370.69 12.9438 369.75 12.9438ZM309.585 8.73477C308.494 8.73477 307.515 7.97176 307.285 6.86276C307.018 5.59176 307.834 4.34374 309.107 4.07974C310.678 3.75074 312.25 3.45178 313.819 3.18778C315.092 2.96678 316.312 3.83577 316.53 5.11777C316.746 6.39777 315.882 7.61277 314.6 7.82877C313.091 8.08377 311.578 8.36877 310.067 8.68277C309.907 8.71877 309.743 8.73477 309.585 8.73477ZM295.913 8.48673C295.727 8.48673 295.539 8.46576 295.35 8.41776C293.842 8.04776 292.337 7.70576 290.837 7.38876C289.564 7.12076 288.751 5.87178 289.02 4.60178C289.289 3.32878 290.539 2.52176 291.807 2.78476C293.358 3.11076 294.914 3.46674 296.472 3.85074C297.736 4.16074 298.505 5.43377 298.195 6.69577C297.933 7.76977 296.97 8.48673 295.913 8.48673ZM235.38 8.32773C234.341 8.32773 233.39 7.63372 233.109 6.58072C232.773 5.32372 233.521 4.03475 234.775 3.70175C236.324 3.28775 237.879 2.90672 239.446 2.55972C240.712 2.27072 241.971 3.07976 242.254 4.34976C242.534 5.61876 241.734 6.87273 240.466 7.15573C238.963 7.48873 237.472 7.85174 235.987 8.24674C235.785 8.30274 235.582 8.32773 235.38 8.32773ZM351.669 7.84775C351.531 7.84775 351.389 7.83676 351.249 7.81076C349.748 7.53976 348.234 7.30073 346.711 7.09873C345.424 6.92873 344.519 5.74576 344.689 4.45676C344.859 3.16976 346.049 2.26172 347.331 2.43472C348.928 2.64572 350.511 2.89672 352.085 3.17972C353.365 3.41172 354.213 4.63673 353.983 5.91373C353.776 7.05073 352.786 7.84775 351.669 7.84775ZM328.236 6.33975C326.989 6.33975 325.947 5.35677 325.888 4.09677C325.828 2.79877 326.83 1.69777 328.128 1.63577C329.736 1.55977 331.338 1.52075 332.935 1.51675C332.938 1.51675 332.94 1.51675 332.942 1.51675C334.238 1.51675 335.29 2.56476 335.295 3.86276C335.3 5.16376 334.25 6.21875 332.949 6.22275C331.421 6.22775 329.889 6.26674 328.349 6.33774C328.312 6.33974 328.273 6.33975 328.236 6.33975ZM277.389 5.22873C277.308 5.22873 277.226 5.22377 277.143 5.21677C275.601 5.05577 274.066 4.92475 272.54 4.82175C271.242 4.73175 270.263 3.61073 270.351 2.31473C270.44 1.01873 271.601 0.0897262 272.858 0.124726C274.444 0.232726 276.033 0.368723 277.63 0.533723C278.921 0.668723 279.861 1.82474 279.726 3.11874C279.601 4.32774 278.578 5.22873 277.389 5.22873ZM253.893 5.04672C252.691 5.04672 251.666 4.13177 251.552 2.91177C251.432 1.61777 252.384 0.471763 253.678 0.349763C255.263 0.202763 256.86 0.0897218 258.469 0.0077218C259.625 -0.100278 260.873 0.93874 260.939 2.23874C261.006 3.53674 260.006 4.64277 258.708 4.70877C257.169 4.78677 255.636 4.89475 254.115 5.03775C254.04 5.04475 253.967 5.04672 253.893 5.04672Z" fill="#636466"/>
<path d="M509.289 338.885C520.387 339.416 530.364 341.148 539.797 344.177C567.57 353.094 586.095 369.046 596.428 392.941C596.685 393.534 597.214 393.965 597.846 394.104C597.986 394.131 598.126 394.146 598.264 394.146C598.76 394.146 599.245 393.962 599.618 393.622C620.764 374.212 636.208 347.556 641.991 320.483C645.224 305.341 647.593 289.291 643.073 274.516C640.89 267.39 637.441 261.17 634.107 255.155C631.979 251.318 629.78 247.351 627.951 243.211C625.221 237.037 628.716 229.057 631.8 222.017C632.721 219.914 633.595 217.913 634.252 216.086C640.302 199.28 646.557 181.899 651.536 163.974C654.785 151.226 651.69 142.825 642.816 140.316C641.258 139.875 639.696 139.652 638.174 139.652C631.513 139.652 625.456 144.034 621.952 151.419C614.199 168.877 607.662 187.188 601.341 204.896L599.439 210.222C599 211.447 598.584 212.676 598.173 213.894C595.689 221.238 593.343 228.173 586.417 232.369C582.463 234.765 577.994 236.461 573.671 238.102C569.346 239.743 564.873 241.44 560.806 243.862C550.392 250.066 541.242 259.958 532.835 274.106C520.084 295.558 511.773 315.96 507.428 336.475C507.306 337.047 507.444 337.647 507.802 338.111C508.159 338.573 508.703 338.858 509.289 338.885Z" fill="#FF915B"/>
<path d="M389.357 368.262C389.105 368.811 389.114 369.448 389.385 369.992C395.619 382.497 398.592 394.103 398.475 405.477C398.188 433.363 381.474 451.483 367.501 461.769C366.8 462.289 366.513 463.194 366.791 464.021C367.064 464.834 367.83 465.381 368.687 465.381C368.696 465.381 370.146 465.371 370.146 465.371C388.791 465.371 405.987 470.872 421.263 481.718C429.531 487.586 436.415 496.723 441.725 508.864C442.044 509.594 442.764 510.063 443.559 510.063C443.561 510.063 443.563 510.063 443.566 510.063C451.059 510.036 458.136 508.753 464.982 507.517C467.875 506.993 470.791 506.469 473.775 506.023C479.763 505.136 486.201 503.974 492.709 501.442C493.212 501.244 493.679 500.678 493.89 500.182C504.49 475.201 527.153 440.987 556.006 426.855C556.199 426.819 556.656 426.694 556.831 426.602C557.015 426.51 557.178 426.396 557.113 426.386C566.012 422.894 574.567 421.124 582.543 421.124C587.237 421.124 591.864 421.735 596.29 422.943C596.462 422.99 596.639 423.012 596.816 423.012C597.303 423.012 597.78 422.837 598.152 422.502C598.658 422.047 598.899 421.366 598.791 420.695C591.553 375.309 558.437 346.221 512.369 344.788C510.469 344.728 508.577 344.698 506.686 344.698C474.853 344.698 444.021 352.979 414.205 360.987C406.372 363.092 398.541 365.195 390.692 367.154C390.102 367.304 389.613 367.711 389.357 368.262Z" fill="#FF915B"/>
<path d="M237.526 116.414C216.68 164.557 208.615 215.582 215.382 256.168C215.368 256.283 215.352 256.644 215.359 256.761C215.41 257.639 216.028 258.379 216.88 258.588C236.96 263.505 256.592 279.928 267.142 294.02C271.558 299.921 275.628 306.713 278.913 313.659C279.244 314.36 279.95 314.805 280.722 314.805C280.741 314.805 280.759 314.805 280.777 314.803C321.995 313.647 348.192 275.357 366.411 242.126C398.372 183.834 425.777 105.167 374.842 61.4369C361.786 50.2289 347.135 44.5459 331.297 44.5459C290.605 44.5459 252.614 81.5729 237.526 116.414Z" fill="#FF915B"/>
<path d="M180.364 261.114C180.559 261.114 180.759 261.084 180.957 261.024C189.406 258.402 197.18 257.127 204.719 257.127C205.723 257.127 206.732 257.15 207.745 257.198C207.775 257.198 207.807 257.2 207.837 257.2C208.4 257.2 208.94 256.961 209.321 256.54C209.721 256.099 209.902 255.499 209.818 254.909C202.001 201.586 216.443 133.988 244.937 90.5233C255.36 74.6293 271.888 60.0703 290.289 50.5833C291.029 50.2023 291.454 49.4022 291.36 48.5772C291.266 47.7502 290.669 47.0672 289.862 46.8652C283.086 45.1512 276.271 44.2822 269.602 44.2822C218.348 44.2822 182.906 92.9982 174.389 141.118C168.495 174.422 163.633 218.009 178.479 259.783C178.769 260.6 179.539 261.114 180.364 261.114Z" fill="#FF915B"/>
<path d="M241.328 419.393C255.434 406.171 274.751 388.066 280.174 365.642C286.038 341.384 276.41 309.631 257.777 291.78C243.659 278.255 224.466 262.729 201.194 262.729C194.381 262.729 187.437 264.076 180.557 266.73C163.825 273.182 147.273 281.351 131.366 291.009C111.058 303.334 83.2446 320.216 69.4036 344.786C56.4026 367.869 58.0226 389.983 61.3226 408.573C61.4196 409.12 61.7386 409.602 62.2046 409.906C62.5316 410.118 62.9106 410.223 63.2916 410.223C63.4546 410.223 63.6206 410.204 63.7816 410.163C65.6606 409.689 67.5356 409.451 69.3586 409.451C72.2926 409.451 75.2506 410.076 78.1476 411.312C79.1696 411.744 79.5536 412.392 79.3606 413.348C79.0956 414.635 77.7586 416.018 76.1876 416.018C75.7856 416.018 75.3736 415.931 74.9626 415.751C73.5976 415.172 72.0096 414.878 70.2406 414.878C61.0866 414.878 47.9106 422.874 44.6106 430.439C38.7786 443.798 50.5646 458.744 60.3646 464.635C65.7276 467.861 69.6966 469.299 73.2276 469.299C78.1766 469.299 82.2756 466.462 86.1296 460.378C87.1336 458.788 88.3726 457.222 89.6266 455.632C93.7536 450.384 98.4346 444.442 96.0486 436.643C95.7976 435.825 95.8816 435.125 96.2946 434.57C96.8046 433.876 97.7786 433.43 98.7766 433.43C99.5026 433.43 100.799 433.674 101.297 435.31C103.207 441.551 102.274 446.803 98.1806 452.873C97.6416 453.673 97.7486 454.743 98.4376 455.419C107.046 463.857 120.954 468.32 138.661 468.32C157.652 468.32 176.409 463.301 187.627 458.605C207.41 450.318 224.317 435.326 241.328 419.393Z" fill="#FF915B"/>
<path d="M236.616 430.772C235.902 431.378 235.706 432.408 236.15 433.235C249.401 458.042 273.981 483.074 299.02 483.074C301.66 483.074 304.307 482.799 306.881 482.261C307.092 482.22 307.303 482.198 307.506 482.198C307.701 482.198 307.889 482.216 308.069 482.253C308.198 482.28 308.327 482.291 308.455 482.291C308.818 482.291 309.174 482.193 309.489 482.005C312.359 480.273 315.086 478.844 317.825 477.645C327.62 473.334 337.34 470.104 346.715 468.041C347.071 467.963 347.489 467.704 347.754 467.451C347.997 467.222 348.13 467.097 348.282 467.024C375.109 454.027 400.534 427.507 391.426 392.052C383.17 359.913 356.12 322.784 327.108 303.767C326.775 303.547 326.394 303.438 326.012 303.438C325.582 303.438 325.155 303.576 324.796 303.85C312.354 313.369 298.753 318.772 284.374 319.909C283.751 319.957 283.185 320.297 282.848 320.824C282.51 321.35 282.439 322.006 282.655 322.594C286.876 334.09 290.782 351.132 285.41 367.031C276.157 394.425 255.553 414.623 236.616 430.772Z" fill="#FF915B"/>
<path d="M255.039 647.256C256.008 614.104 261.613 578.75 271.245 545.024C277.045 524.725 283.389 505.368 297.157 491.6C297.709 491.048 297.89 490.226 297.619 489.491C297.35 488.76 296.677 488.25 295.9 488.19C277.019 486.692 261.24 473.958 251.328 463.535C250.937 463.121 250.409 462.915 249.878 462.915C249.453 462.915 249.025 463.048 248.665 463.323C224.789 481.509 205.138 514.228 190.258 560.575C182.19 585.694 174.89 612.588 176.088 639.045C178.648 695.603 224.16 708.857 261.887 710.01C261.908 710.01 261.929 710.01 261.949 710.01C262.604 710.01 263.22 709.689 263.595 709.151C263.981 708.59 264.059 707.874 263.799 707.249C256.194 688.828 255.096 667.495 255.039 647.256Z" fill="#FF915B"/>
<path d="M394.866 474.164C386.842 471.972 377.44 470.813 367.674 470.813C346.038 470.813 325.199 476.341 310.505 485.974C310.284 486.117 310.096 486.304 309.949 486.521C309.744 486.82 309.4 487.054 308.927 487.219C308.752 487.283 308.585 487.37 308.433 487.476C300.731 492.955 294.936 499.448 291.204 506.773C267.835 552.632 261.583 608.414 260.451 647.201C260.548 682.509 264.571 717.538 293.109 734.619C307.408 743.181 324.224 747.703 341.737 747.703C359.572 747.703 377.061 743.065 392.309 734.287C420.269 718.198 430.02 697.724 436.691 669.908C443.166 642.904 449.646 611.066 448.6 579.633C447.848 556.966 445.56 487.996 394.866 474.164Z" fill="#FF915B"/>
<path d="M492.827 565.396C492.535 562.446 492.179 559.325 491.809 556.089C490.141 541.508 488.252 524.982 490.821 510.822C490.943 510.151 490.713 509.462 490.212 508.998C489.838 508.648 489.35 508.465 488.852 508.465C488.684 508.465 488.514 508.484 488.349 508.529C484.983 509.402 481.629 509.976 478.079 510.584C475.11 511.094 472.128 511.604 469.136 512.298C461.194 514.136 454.183 515.115 447.074 515.382C446.442 515.404 445.861 515.722 445.502 516.241C445.144 516.76 445.049 517.417 445.249 518.014C452.88 540.822 454.015 566.447 454.011 579.696C454.006 593.943 453.524 606.677 452.538 618.617C452.492 619.181 452.687 619.738 453.076 620.151C462.279 629.94 483.354 637.904 500.054 637.904C501.959 637.904 503.783 637.799 505.477 637.587C506.086 637.514 506.626 637.164 506.943 636.641C507.26 636.117 507.32 635.474 507.106 634.904C498.153 610.962 494.773 585.18 492.827 565.396Z" fill="#FF915B"/>
<path d="M677.435 563.116C670.167 531.256 641.696 427.299 580.442 427.299C573.422 427.299 566.142 428.719 558.621 431.601C532.607 444.592 510.363 475.015 500.702 497.782C494.161 513.196 495.525 531.555 496.729 547.76L496.897 550.002C498.404 570.567 501.103 597.383 508.64 622.424C518.081 653.779 536.035 668.068 568.673 670.204C574.741 670.603 580.291 670.797 585.637 670.797C618.139 670.797 641.735 663.389 657.776 648.154C678.473 628.489 685.456 598.291 677.435 563.116Z" fill="#FF915B"/>
<path d="M261.947 710.008C262.602 710.008 263.218 709.687 263.593 709.149C263.979 708.588 264.057 707.872 263.797 707.247C256.193 688.828 255.095 667.495 255.038 647.256C256.007 614.104 261.612 578.75 271.244 545.024C277.044 524.725 283.388 505.368 297.156 491.6C297.708 491.048 297.889 490.226 297.618 489.491C297.349 488.76 296.676 488.25 295.899 488.19C280.138 486.94 266.593 477.859 256.763 468.829C258.757 471.462 261.034 473.861 263.757 476.609C280.52 493.544 267.981 515.561 261.218 532.326C251.6 556.168 248.608 583.121 246.299 608.576C243.9 635.042 241.835 700.796 195.851 678.595C191.239 676.37 187.098 673.351 183.321 669.808C198.011 700.654 232.296 709.105 261.885 710.01C261.906 710.008 261.927 710.008 261.947 710.008Z" fill="#FF564D"/>
<path d="M678.777 569.738C676.036 602.964 669.629 629.682 651.399 643.474C635.101 655.808 599.808 648.451 568.946 635.881C492.551 604.774 508.592 510.11 532.726 468.676C543.475 450.229 554.67 434.65 557.441 432.241C531.941 445.551 510.214 475.357 500.702 497.779C494.161 513.193 495.526 531.552 496.73 547.757L496.897 549.999C498.404 570.564 501.104 597.38 508.641 622.421C518.082 653.776 536.035 668.065 568.673 670.201C574.741 670.6 580.291 670.794 585.637 670.794C618.139 670.794 641.736 663.386 657.777 648.151C677.161 629.733 684.515 602.072 678.777 569.738Z" fill="#FF564D"/>
<path d="M327.109 303.766C326.776 303.546 326.395 303.438 326.013 303.438C325.583 303.438 325.156 303.575 324.797 303.849C312.355 313.368 298.754 318.771 284.375 319.908C283.752 319.956 283.186 320.296 282.849 320.823C282.511 321.349 282.44 322.005 282.656 322.593C286.877 334.089 290.783 351.132 285.411 367.031C276.936 392.12 258.95 411.127 241.436 426.563C253.826 420.501 264.874 411.889 274.071 399.583C283.926 386.398 293.718 371.847 297.507 355.708C298.766 350.352 299.257 345.236 299.295 340.241C299.322 336.42 319.773 324.726 345.724 340.089C367.024 352.695 384.256 381.098 385.91 406.615C387.224 426.886 372.381 448.381 353.127 464.515C378.058 450.784 399.983 425.361 391.427 392.052C383.17 359.911 356.121 322.782 327.109 303.766Z" fill="#FF564D"/>
<path d="M538.436 424.95C512.524 436.274 493.643 456.462 466.623 465.966C453.546 470.571 438.188 468.379 425.589 463.646C415.407 459.818 405.662 442.377 407.085 431.711C408.889 418.177 404.192 403.099 396.895 390.759C397.98 395.741 398.526 400.635 398.476 405.479C398.189 433.365 381.475 451.485 367.502 461.771C366.801 462.291 366.514 463.196 366.792 464.023C367.065 464.836 367.831 465.383 368.688 465.383C368.697 465.383 370.147 465.373 370.147 465.373C388.792 465.373 405.988 470.874 421.264 481.72C429.532 487.588 436.416 496.725 441.726 508.866C442.045 509.596 442.765 510.065 443.56 510.065C443.562 510.065 443.564 510.065 443.567 510.065C451.06 510.038 458.137 508.755 464.983 507.519C467.876 506.995 470.792 506.471 473.776 506.025C479.764 505.138 486.202 503.976 492.71 501.444C493.213 501.246 493.68 500.68 493.891 500.184C504.491 475.203 527.154 440.989 556.007 426.857C556.2 426.821 556.657 426.696 556.832 426.604C557.016 426.512 557.179 426.398 557.114 426.388C560.207 425.175 563.24 424.246 566.239 423.451C557.556 421.049 548.81 420.419 538.436 424.95Z" fill="#FF564D"/>
<path d="M394.987 383.594C395.69 381.657 394.782 379.387 393.022 378.171C393.742 379.994 394.412 381.804 394.987 383.594Z" fill="#FF564D"/>
<path d="M643.073 274.515C640.89 267.389 637.441 261.169 634.107 255.154C632.423 252.116 630.743 248.969 629.188 245.744C640.038 275.921 640.121 308.026 625.516 340.533C617.503 358.378 594.397 367.151 584.985 359.322C563.976 341.847 541.947 337.923 521.855 340.131C528.107 341.037 534.072 342.339 539.796 344.178C567.569 353.095 586.094 369.047 596.427 392.942C596.684 393.535 597.213 393.966 597.845 394.105C597.985 394.132 598.125 394.147 598.263 394.147C598.759 394.147 599.244 393.963 599.617 393.623C620.763 374.213 636.207 347.557 641.99 320.484C645.223 305.34 647.593 289.29 643.073 274.515Z" fill="#FF564D"/>
<path d="M374.843 61.4361C371.723 58.7571 368.506 56.4151 365.209 54.3701C403.164 96.4151 390.071 145.783 375.714 189.749C366.178 218.959 335.181 273.396 303.947 283.083C282.908 289.608 273.359 265.043 228.784 260.726C226.98 260.551 225.227 260.595 223.492 260.636C241.178 267.118 257.757 281.479 267.143 294.018C271.559 299.919 275.629 306.711 278.914 313.657C279.245 314.358 279.951 314.803 280.723 314.803C280.742 314.803 280.76 314.803 280.778 314.801C321.996 313.645 348.193 275.355 366.412 242.124C398.373 183.833 425.778 105.166 374.843 61.4361Z" fill="#FF564D"/>
<path d="M257.778 291.78C255.411 289.512 252.888 287.189 250.239 284.891C278.849 323.77 264.575 388.044 231.792 415.636C218.113 427.148 189.028 452.681 151.705 458.347C127.852 461.973 120.474 454.468 113.344 444.091C110.862 440.475 106.905 436.665 100.616 433.415C100.49 433.352 100.368 433.498 100.244 433.54C100.074 433.411 99.9476 433.236 99.7016 433.181C88.7686 430.631 89.1196 443.218 85.0256 449.918C78.7896 460.13 72.3806 466.026 58.3936 463.337C59.0556 463.806 59.7146 464.243 60.3656 464.634C65.7286 467.86 69.6976 469.298 73.2286 469.298C78.1776 469.298 82.2766 466.462 86.1306 460.378C87.1346 458.788 88.3736 457.221 89.6276 455.631C93.7546 450.383 98.4356 444.441 96.0496 436.642C95.7986 435.824 95.8826 435.125 96.2956 434.57C96.8056 433.876 97.7796 433.43 98.7776 433.43C99.5036 433.43 100.8 433.673 101.298 435.309C103.084 441.146 102.346 446.122 98.9036 451.706C98.6646 452.097 98.4486 452.477 98.1816 452.873C97.6426 453.673 97.7496 454.743 98.4386 455.419C99.5556 456.513 100.769 457.533 102.058 458.493C102.228 458.618 102.421 458.723 102.594 458.843C103.759 459.68 104.979 460.47 106.275 461.2C106.339 461.237 106.41 461.264 106.475 461.302C109.395 462.919 112.647 464.252 116.192 465.319C122.729 467.281 130.25 468.32 138.662 468.32C157.653 468.32 176.41 463.301 187.628 458.605C207.41 450.319 224.317 435.328 241.328 419.395C255.434 406.173 274.751 388.067 280.174 365.643C286.038 341.384 276.411 309.631 257.778 291.78Z" fill="#FF564D"/>
<path d="M492.828 565.396C492.536 562.446 492.18 559.325 491.81 556.089C490.142 541.508 488.253 524.982 490.822 510.822C490.944 510.151 490.714 509.462 490.213 508.998C489.839 508.648 489.351 508.465 488.853 508.465C488.685 508.465 488.515 508.484 488.35 508.529C484.984 509.402 481.629 509.976 478.079 510.584C475.11 511.094 472.128 511.604 469.136 512.298C461.194 514.136 454.184 515.115 447.075 515.382C446.443 515.404 445.862 515.722 445.503 516.241C445.262 516.59 445.188 517.004 445.195 517.417C482.575 539.65 495.811 616.121 493.053 637.468C495.441 637.748 497.789 637.905 500.054 637.905C501.959 637.905 503.783 637.8 505.477 637.588C506.086 637.515 506.626 637.165 506.943 636.642C507.26 636.118 507.32 635.475 507.106 634.905C498.154 610.962 494.774 585.18 492.828 565.396Z" fill="#FF564D"/>
<path d="M392.309 734.287C420.269 718.198 430.02 697.724 436.691 669.908C443.166 642.904 449.646 611.066 448.6 579.633C447.966 560.483 446.229 508.286 415.135 484.21C450.222 548.769 427.61 634.881 413.752 666.415C392.867 713.947 335.517 747.592 279.54 723.271C283.297 727.6 287.773 731.424 293.108 734.618C307.407 743.18 324.223 747.702 341.736 747.702C359.572 747.702 377.06 743.065 392.309 734.287Z" fill="#FF564D"/>
<path d="M254.869 77.8135C230.701 96.1225 213.941 125.883 206.17 154.104C198.056 183.571 198.541 215.898 196.659 246.158C196.42 249.993 196.259 253.865 196.259 257.711C199.12 257.362 201.944 257.128 204.72 257.128C205.724 257.128 206.733 257.15 207.746 257.198C207.776 257.198 207.808 257.201 207.838 257.201C208.401 257.201 208.941 256.961 209.322 256.54C209.722 256.099 209.903 255.499 209.819 254.909C202.002 201.586 216.444 133.988 244.938 90.5235C247.803 86.1545 251.167 81.9025 254.869 77.8135Z" fill="#FF564D"/>
<path d="M241.665 188.191C255.5 167.006 268.885 143.729 285.187 124.324C301.063 105.429 322.772 93.8281 338.567 75.3491C340.8 72.7361 340.428 69.2031 337.526 67.2661C312.569 50.6161 284.732 77.2381 270.508 96.5491C251.739 122.036 236.06 154.913 237.28 187.004C237.371 189.384 240.381 190.161 241.665 188.191Z" fill="#FEC771"/>
<path d="M83.2881 384.335C100.041 358.517 127.061 345.481 152.925 330.274C174.715 317.464 204.308 310.329 222.826 293.726C226.001 290.876 224.646 286.194 221.576 284.024C192.716 263.65 152.3 295.159 127.812 310.164C99.2251 327.685 72.5521 346.55 78.0461 383.65C78.4371 386.297 82.0841 386.186 83.2881 384.335Z" fill="#FEC771"/>
<path d="M266.635 449.884C277.834 477.761 345.991 462.78 338.505 431.438C338.248 430.358 337.303 429.458 336.244 429.177C324.21 425.996 315.143 435.896 304.388 439.108C291.594 442.931 277.726 437.297 267.279 447.449C266.694 448.014 266.315 449.089 266.635 449.884Z" fill="#FEC771"/>
<path d="M266.887 450.482C274.605 465.786 297.312 460.84 310.554 457.082C322.33 453.736 339.339 447.155 338.619 432.298C338.566 431.223 338.056 430 337.017 429.504C324.108 423.364 309.345 432.945 296.654 435.975C292.781 436.898 261.637 440.073 266.887 450.482Z" fill="#FEC771"/>
<path d="M251.893 491.825C213.584 509.95 188.851 583.953 205.935 620.979C207.104 623.516 210.88 623.13 212.157 620.979C224.611 599.977 227.362 574.95 234.494 551.825C240.512 532.312 248.993 513.681 255.025 494.233C255.622 492.307 253.478 491.076 251.893 491.825Z" fill="#FEC771"/>
<path d="M351.986 503.162C314.05 499.867 294.203 548.764 287.884 578.869C279.945 616.691 272.746 669.944 298.509 703.115C299.557 704.467 302.206 704.076 302.898 702.551C316.483 672.597 314.87 636.135 316.915 604.022C318.728 575.534 318.937 518.411 352.533 507.207C354.805 506.447 354.288 503.364 351.986 503.162Z" fill="#FEC771"/>
<path d="M350.947 503.442C312.946 520.859 293.224 558.865 285.246 598.318C278.525 631.544 276.165 674.65 298.509 703.115C299.564 704.457 302.201 704.081 302.898 702.551C315.06 675.832 314.164 642.937 316.368 614.242C319.256 576.613 327.891 535.652 353.443 506.678C355.042 504.862 353.061 502.472 350.947 503.442Z" fill="#FEC771"/>
<path d="M630.091 632.151C670.42 613.333 659.156 562.859 647.315 527.776C637.258 497.983 618.62 445.028 579.147 450.75C576.284 451.168 575.834 454.583 576.73 456.692C588.288 483.912 602.259 509.182 611.519 537.648C620.198 564.33 632.357 600.046 625.338 628.498C624.616 631.421 627.561 633.333 630.091 632.151Z" fill="#FEC771"/>
<path d="M417.964 387.51C435.338 398.967 454.386 394.624 473.821 391.66C497.36 388.076 522.636 391.554 545.395 384.362C547.698 383.636 549.269 380.734 547.769 378.53C533.495 357.56 509.373 356.66 486.076 358.886C462.457 361.14 434.69 364.775 417.296 382.312C415.73 383.888 416.192 386.342 417.964 387.51Z" fill="#FEC771"/>
<path d="M594.985 252.973C577.092 247.828 561.98 253.35 551.047 269.354C541.539 283.274 532.06 301.923 539.51 318.697C545.172 331.447 560.406 308.993 563.303 305.179C569.475 297.052 574.167 287.629 580.003 279.217C583.73 273.845 588.48 261.549 594.985 259.072C597.799 257.999 598.183 253.892 594.985 252.973Z" fill="#FEC771"/>
<path d="M190.149 629.357C189.944 632.827 189.275 636.006 189.783 639.495C190.332 643.282 192.341 647.377 195.151 650.028C197.725 652.455 201.622 653.131 204.735 651.264C205.314 650.919 205.916 650.556 206.337 650.028C208.651 647.11 209.407 643.88 207.573 640.442C206.056 637.601 203.986 634.885 201.911 632.436C200.192 630.405 198.035 628.861 196.3 626.811C194.115 624.228 190.317 626.494 190.149 629.357Z" fill="#FEC771"/>
<path d="M232.412 197.424C226.808 201.243 225.649 210.17 230.151 215.17C233.972 219.412 240.28 215.809 240.601 210.841C240.806 207.681 239.516 203.155 237.483 200.721C236.64 199.712 234.301 196.135 232.412 197.424Z" fill="#FEC771"/>
<path d="M227.784 71.5121C209.335 83.7961 191.516 110.786 196.118 133.925C196.548 136.092 199.51 136.163 200.553 134.504C206.465 125.102 209.671 114.097 214.413 104.086C219.164 94.0562 225.433 84.3922 231.203 74.9322C232.476 72.8472 229.901 70.1011 227.784 71.5121Z" fill="#FEC771"/>
<path d="M133.793 437.224C146.33 439.834 157.074 439.604 169.563 436.535C180.137 433.938 194.062 427.293 197.368 416.236C198.021 414.053 196.18 411.263 193.751 411.489C184.211 412.366 176.49 419.15 167.873 422.968C157.179 427.71 145.272 431.052 133.792 433.253C131.803 433.634 131.838 436.815 133.793 437.224Z" fill="#FEC771"/>
<path d="M350.667 448.295C353.661 447.629 355.359 445.34 356.559 442.721C358.018 439.527 359.215 436.204 357.023 432.95C355.516 430.717 352.396 428.768 349.585 429.927C346.014 431.398 344.424 433.575 343.611 437.261C342.924 440.386 342.543 442.436 343.845 445.52C344.916 448.051 348.275 448.828 350.667 448.295Z" fill="#FEC771"/>
<path d="M536.507 566.108C535.108 568.875 533.35 570.653 532.989 573.925C532.642 577.086 533.27 580.574 534.294 583.571C536.482 589.977 541.452 599.642 548.538 601.173C553.228 602.184 556.966 599.808 558.621 595.446C561.201 588.649 555.9 582.841 552.226 577.712C550.556 575.382 548.759 573.269 546.881 571.113C545.39 569.403 542.729 567.974 541.585 566.108C540.491 564.325 537.536 564.072 536.507 566.108Z" fill="#FEC771"/>
<path d="M429.633 445.24C429.084 452.671 441.827 456.618 447.62 456.655C453.806 456.687 468.162 455.35 468.162 446.417C468.162 439.004 453.886 440.383 449.591 440.681C445.186 440.99 440.853 441.38 436.436 441.068C433.511 440.855 429.895 441.701 429.633 445.24Z" fill="#FEC771"/>
<path d="M374.735 691.314C382.232 686.92 388.267 683.144 393.774 676.292C399.261 669.468 406.044 659.531 404.898 650.404C403.944 642.812 396.594 639.656 390.521 644.449C384.689 649.058 381.561 657.914 378.648 664.619C375.197 672.56 373.023 679.909 370.737 688.245C370.107 690.543 372.67 692.527 374.735 691.314Z" fill="#FEC771"/>
<path d="M289.474 252.85C295.039 257.243 299.607 259.55 306.715 257.048C313.537 254.649 318.955 250.833 324.573 246.354C333.272 239.419 344.863 223.962 337.089 212.632C335.699 210.605 333.291 208.611 330.613 208.916C319.888 210.139 312.275 219.621 304.52 226.301C300.372 229.874 296.576 233.516 293.15 237.779C291.23 240.166 285.879 250.015 289.474 252.85Z" fill="#FEC771"/>
<path d="M56.19 432.414C57.665 433.774 59.887 434.055 61.792 434.5C64.184 435.065 66.284 436.462 68.743 436.853C71.08 437.23 73.331 436.642 74.604 434.468C75.916 432.23 75.326 428.522 72.743 427.368C69.368 425.86 66.178 425.814 62.656 426.894C60.338 427.602 57.236 428.277 55.948 430.539C55.616 431.127 55.678 431.94 56.19 432.414Z" fill="#FEC771"/>
<path d="M684.56 561.062C677.476 522.708 657.823 478.437 633.593 447.798C625.314 437.329 616.408 429.585 606.706 424.778C606.706 424.553 606.787 424.374 606.754 424.126C605.706 416.079 604.068 408.58 601.839 401.604C601.92 401.544 602.007 401.534 602.085 401.465C634.165 373.71 660.833 322.208 651.545 278.736C647.501 259.807 631.322 245.462 638.22 226.753C645.608 206.716 652.952 186.564 658.673 165.979C661.89 153.355 660.242 139.299 646.366 133.796C633.923 128.86 621.09 136.023 615.656 147.477C608.023 164.66 601.674 182.403 595.249 200.062C588.096 219.732 583.909 227.678 561.972 235.352C526.524 247.753 506.349 302.934 499.787 336.732C461.504 337.362 422.097 351.754 386.497 360.557C383.321 355.208 379.831 350.049 376.242 345.109C363.025 326.91 351.325 311.539 333.462 299.159C351.58 282.521 365.356 259.461 376.709 238.753C406.721 184.013 432.171 100.923 376.169 52.8455C354.505 34.2445 327.088 33.8884 301.98 43.2314C301.548 42.8664 301.068 42.5305 300.45 42.3085C178.938 -1.40153 141.792 178.081 171.491 262.258C160.634 266.555 150.17 272.21 140.023 277.587C110.694 293.124 81.7047 313.117 63.0237 341.016C48.8147 362.234 49.9977 387.977 54.4347 411.934C50.5147 414.205 46.7557 417.133 43.1367 420.281C29.1117 432.492 37.2157 452.036 47.4157 463.465C56.4967 473.64 73.8448 482.836 85.9638 473.107C89.3708 470.373 92.0438 466.048 94.5938 461.899C111.616 477.096 140.393 476.609 161.365 472.979C189.965 468.029 209.423 455.736 230.538 438.448C234.095 444.923 238.553 451.577 243.718 457.901C216.733 479.123 200.85 512.528 188.463 543.705C175.812 575.543 166.448 611.747 169.125 646.273C173.247 699.449 219.292 717.261 266.604 717.496C269.318 722.17 272.56 726.591 276.457 730.653C300.607 755.846 336.845 758.379 368.941 751.292C427.077 738.457 447.07 684.52 453.366 630.447C460.106 635.42 468.24 638.19 476.459 640.451C486.788 643.296 498.153 646.467 508.897 644.532C509.106 645.006 509.281 645.497 509.495 645.966C523.073 675.727 562.588 678.549 590.995 678.085C620.537 677.602 649.382 668.725 669.722 646.573C690.923 623.479 689.861 589.766 684.56 561.062ZM534.556 275.126C541.442 263.539 550.144 252.541 561.831 245.579C569.79 240.839 579.363 238.982 587.453 234.079C596.196 228.783 598.135 219.803 601.323 210.894C608.365 191.211 615.293 171.342 623.781 152.229C627.235 144.952 633.886 139.872 642.271 142.241C652.236 145.058 651.561 155.775 649.596 163.479C644.713 181.055 638.544 198.251 632.369 215.407C629.449 223.518 622.163 235.065 626.119 244.019C630.851 254.725 637.657 263.665 641.158 275.102C645.593 289.594 643.107 305.669 640.032 320.065C634.195 347.388 618.844 373.256 598.263 392.147C587.886 368.151 569.095 351.485 540.407 342.273C530.255 339.013 519.876 337.39 509.385 336.887C514.027 314.972 523.127 294.354 534.556 275.126ZM512.306 346.791C557.963 348.213 589.813 377.116 596.814 421.016C584.67 417.703 571.313 418.667 556.382 424.527C556.193 424.601 556.086 424.739 555.916 424.826C555.693 424.899 555.481 424.89 555.256 425.001C527.099 438.788 503.969 471.302 492.046 499.403C492.023 499.459 492.005 499.523 491.982 499.578C485.969 501.917 479.866 503.103 473.482 504.046C463.305 505.563 453.946 508.025 443.558 508.067C438.569 496.661 431.759 486.72 422.42 480.089C405.34 467.961 387.165 463.111 368.686 463.383C387.404 449.601 400.226 429.858 400.476 405.497C400.609 392.583 396.825 380.433 391.175 369.1C431.061 359.143 470.441 345.486 512.306 346.791ZM373.54 62.9554C426.525 108.445 391.302 192.564 364.657 241.163C347.109 273.171 321.089 311.671 280.723 312.804C277.267 305.494 273.131 298.681 268.745 292.82C257.5 277.797 237.293 261.527 217.357 256.644C217.345 256.449 217.41 256.281 217.376 256.077C209.91 211.162 221.415 158.66 239.363 117.21C260.225 69.0334 323.761 20.2164 373.54 62.9554ZM176.358 141.468C186.133 86.2474 231.167 34.0925 289.373 48.8055C270.391 58.5945 253.7 73.5135 243.265 89.4285C214.037 134.009 200.094 202.376 207.838 255.201C198.381 254.762 189.24 256.36 180.366 259.113C166.751 220.806 169.366 180.981 176.358 141.468ZM186.856 456.756C163.835 466.393 119.623 473.384 99.8408 453.99C103.904 447.965 105.459 442.072 103.212 434.724C101.443 428.938 92.3577 431.406 94.1357 437.224C96.8907 446.231 88.6828 452.597 84.4398 459.307C77.9968 469.486 71.6318 469.076 61.3978 462.917C51.5768 457.012 41.2438 443.151 46.4458 431.235C49.8398 423.46 66.2508 414.213 74.1798 417.59C79.6968 419.944 84.4988 411.837 78.9318 409.465C73.4288 407.121 68.2327 406.974 63.2927 408.22C59.3587 386.055 59.6508 366.177 71.1488 345.763C84.3288 322.367 110.089 306.26 132.406 292.714C147.875 283.323 164.391 275.104 181.278 268.591C211.106 257.089 235.313 273.026 256.395 293.221C274.304 310.379 284.015 341.242 278.231 365.167C273.109 386.348 255.26 403.591 239.961 417.929C224.175 432.72 206.921 448.354 186.856 456.756ZM237.915 432.293C258.843 414.449 278.352 394.183 287.306 367.671C292.173 353.266 290.054 336.937 284.533 321.903C300.406 320.648 314.11 314.545 326.013 305.439C354.239 323.941 381.199 360.277 389.49 392.547C397.895 425.273 375.28 451.719 347.41 465.221C346.927 465.455 346.617 465.773 346.286 466.085C336.49 468.24 326.695 471.554 317.019 475.809C313.933 477.164 311.121 478.682 308.455 480.289C307.848 480.17 307.191 480.156 306.477 480.304C277.571 486.333 250.369 455.606 237.915 432.293ZM178.086 638.953C176.893 612.62 184.187 586.02 192.162 561.185C203.033 527.33 220.71 487.132 249.878 464.913C262.615 478.305 278.57 488.823 295.742 490.184C281.748 504.178 275.402 523.191 269.322 544.473C259.887 577.506 254.044 612.823 253.04 647.198C253.095 667.41 254.18 689.187 261.949 708.01C217.265 706.64 180.333 688.608 178.086 638.953ZM434.744 669.439C427.821 698.313 417.63 717.408 391.311 732.554C361.661 749.617 323.412 750.427 294.135 732.899C264.79 715.335 262.533 677.679 262.451 647.197C263.79 601.343 271.973 548.92 292.986 507.683C296.807 500.179 302.621 494.068 309.592 489.109C310.49 488.792 311.162 488.29 311.6 487.647C335.093 472.247 370.842 469.679 394.339 476.094C438.165 488.052 445.324 541.278 446.6 579.697C447.6 609.799 441.732 640.302 434.744 669.439ZM454.533 618.782C455.64 605.367 456.008 592.129 456.012 579.697C456.017 561.788 454.071 538.07 447.147 517.381C454.787 517.096 461.945 516.016 469.585 514.246C476.072 512.743 482.52 512.109 488.852 510.464C485.649 528.125 489.243 549.413 490.835 565.594C493.147 589.091 496.897 613.309 505.231 635.602C489.39 637.568 464.783 629.682 454.533 618.782ZM656.399 646.7C633.619 668.341 598.262 670.138 568.805 668.208C536.11 666.066 519.446 651.361 510.558 621.844C503.563 598.609 500.661 573.967 498.892 549.854C497.674 533.237 495.895 514.229 502.545 498.562C512.887 474.188 535.295 445.488 559.514 433.392C627.907 407.28 663.884 512.708 675.484 563.562C682.276 593.346 679.351 624.894 656.399 646.7Z" fill="#68182B"/>
</svg>
