<svg width="74" height="74" viewBox="0 0 74 74" fill="none" xmlns="http://www.w3.org/2000/svg">
<path d="M20.076 64.823L9 66.083L14.738 56.525L10.117 46.379L20.981 48.883L29.202 41.353L30.177 52.459L39.878 57.951L29.618 62.311L27.392 73.234L20.076 64.823Z" fill="black"/>
<path d="M27.4272 45.917L28.1182 53.783L34.9902 57.673L27.7232 60.762L26.1462 68.499L20.9642 62.542L13.1182 63.433L17.1822 56.663L13.9092 49.477L21.6042 51.25L27.4272 45.917Z" fill="#DA2444"/>
<path d="M26.5611 70.078L20.6671 63.302L11.7441 64.317L16.3661 56.617L12.6441 48.444L21.3951 50.461L28.0181 44.395L28.8031 53.342L36.6181 57.766L28.3531 61.278L26.5611 70.078ZM21.2591 61.781L25.7301 66.921L27.0901 60.246L33.3611 57.582L27.4321 54.226L26.8361 47.439L21.8121 52.041L15.1731 50.51L17.9971 56.711L14.4901 62.551L21.2591 61.781Z" fill="black"/>
<path d="M52.6477 24.795L43.8387 31.627L43.7737 20.479L34.5537 14.212L45.1367 10.706L48.2467 0L54.8517 8.98199L65.9937 8.63199L59.4937 17.689L63.2697 28.179L52.6477 24.795Z" fill="black"/>
<path d="M49.1028 4.82178L53.7808 11.1828L61.6738 10.9358L57.0698 17.3508L59.7438 24.7808L52.2198 22.3838L45.9798 27.2238L45.9348 19.3268L39.4038 14.8878L46.8998 12.4048L49.1028 4.82178Z" fill="#E9A628"/>
<path d="M60.9186 25.9138L52.3616 23.1878L45.2656 28.6918L45.2136 19.7119L37.7866 14.6638L46.3116 11.8388L48.8176 3.21484L54.1376 10.4508L63.1136 10.1689L57.8776 17.4648L60.9186 25.9138ZM52.0776 21.5808L58.5686 23.6488L56.2616 17.2388L60.2346 11.7039L53.4246 11.9178L49.3886 6.42883L47.4876 12.9709L41.0206 15.1129L46.6556 18.9428L46.6946 25.7549L52.0776 21.5808Z" fill="black"/>
</svg>
