<svg width="68" height="74" viewBox="0 0 68 74" fill="none" xmlns="http://www.w3.org/2000/svg">
<path d="M42.269 64.4538L24.746 40.2278L17.002 51.2048L3.843 12.1818L0 1.38379L6.656 10.6298L18.963 25.7648L27.419 14.4848L45.124 62.9368L48.611 73.0358L42.269 64.4538Z" fill="black"/>
<path d="M7.60596 15.6792L17.781 45.8532L24.721 36.0162L40.807 58.2552L26.67 19.5662L19.042 29.7422L7.60596 15.6792Z" fill="#E9A628"/>
<path d="M43.5911 63.4981L24.7291 37.4202L17.5211 47.6371L5.39014 11.6602L19.0151 28.4162L26.9191 17.8721L43.5911 63.4981ZM24.7131 34.6131L38.0231 53.0142L26.4201 21.2612L19.0681 31.0681L9.82314 19.6991L18.0411 44.0702L24.7131 34.6131Z" fill="black"/>
<path d="M42.6128 20.379L50.6148 19.961L47.4438 9.59999L44.0528 0L50.2998 8.129L66.0958 28.713L58.4238 28.893L64.2298 44.624L67.4178 54.441L61.3788 46.15L42.6128 20.379Z" fill="black"/>
<path d="M51.1065 13.2021L61.2175 26.3792L54.9405 26.5262L59.8965 39.9561L47.2495 22.5882L53.8735 22.2421L51.1065 13.2021Z" fill="#DA2444"/>
<path d="M62.6986 45.189L45.7046 21.852L52.7886 21.482L49.0056 9.12305L62.8446 27.158L56.1016 27.316L62.6986 45.189ZM48.7956 23.325L57.0956 34.723L53.7796 25.737L59.5926 25.601L53.2096 17.283L54.9606 23.003L48.7956 23.325Z" fill="black"/>
</svg>
