<svg width="137" height="150" viewBox="0 0 137 150" fill="none" xmlns="http://www.w3.org/2000/svg">
<path d="M63.356 148.937C32.141 145.385 8.9 118.985 9.297 87.5299L9.609 62.3719C9.639 60.3039 9.905 58.2929 10.397 56.3829C10.426 56.2349 10.568 55.4789 10.568 55.4789C17.198 20.0719 25.214 14.3499 32.89 13.4419C33.979 13.3129 35.091 13.3109 36.195 13.4369C44.025 14.3279 51.4 21.6819 58.139 35.3079L58.614 35.2439C59.092 35.1789 59.57 35.1209 60.047 35.0629L60.11 35.0549C61.776 34.8609 63.369 34.7129 64.871 34.6109L65.066 34.5979C65.504 34.4159 65.983 34.3179 66.482 34.3219L68.8 34.3419L72.299 34.1029C72.519 34.0879 72.738 34.0929 72.954 34.1179C73.316 34.1589 73.669 34.2549 74 34.4009C74.803 34.4199 75.589 34.4459 76.37 34.4789C76.783 34.3729 77.221 34.3369 77.668 34.3859L80.806 34.7299L85.322 34.9979C85.387 35.0019 85.452 35.0069 85.517 35.0149C85.98 35.0679 86.425 35.2089 86.829 35.4279C87.837 35.5639 88.841 35.7119 89.829 35.8709L91.054 36.0689C98.984 25.6589 110.31 14.4039 121.535 15.6809C122.586 15.7999 123.622 16.0249 124.614 16.3489C138.037 20.7279 136.57 38.7019 136.088 44.6089C135.53 51.4429 134.17 58.0739 133.483 61.1299C133.57 62.0519 133.609 62.9919 133.598 63.9329L133.279 89.0979C132.847 122.75 105.121 149.782 71.474 149.358L69.523 149.328C67.479 149.301 65.401 149.17 63.356 148.937Z" fill="#E9D1A3"/>
<path d="M76.2399 144.049C45.1889 148.83 15.8249 129.471 7.93585 99.0178L1.62085 74.6628C1.10685 72.6598 0.833856 70.6488 0.805856 68.6778C0.794856 68.5268 0.733854 67.7608 0.733854 67.7608C-2.18015 31.8568 4.04986 24.2288 11.2159 21.3338C12.2329 20.9228 13.3059 20.6288 14.4039 20.4598C22.1929 19.2608 31.2419 24.4158 41.3269 35.7898L41.7679 35.6028C42.2119 35.4148 42.6579 35.2328 43.1029 35.0518L43.1609 35.0278C44.7179 34.4028 46.2149 33.8408 47.6379 33.3478L47.8229 33.2838C48.1969 32.9928 48.6339 32.7728 49.1169 32.6458L51.3589 32.0548L54.6719 30.9038C54.8799 30.8318 55.0929 30.7788 55.3069 30.7458C55.6669 30.6898 56.0319 30.6898 56.3899 30.7438C57.1699 30.5508 57.9349 30.3688 58.6969 30.1958C59.0669 29.9848 59.4799 29.8358 59.9249 29.7648L63.0429 29.2718L67.4709 28.3428C67.5349 28.3298 67.5988 28.3178 67.6628 28.3078C68.1238 28.2368 68.5898 28.2568 69.0368 28.3618C70.0448 28.2278 71.0529 28.1068 72.0479 28.0008L73.2819 27.8688C78.1949 15.7398 86.1628 1.90282 97.3288 0.183821C98.3738 0.0228206 99.4328 -0.0331803 100.475 0.0188197C114.577 0.71382 117.888 18.4408 118.977 24.2668C120.236 31.0068 120.668 37.7628 120.808 40.8908C121.135 41.7578 121.419 42.6538 121.656 43.5648L127.966 67.9288C136.398 100.51 116.757 133.882 84.1819 142.32L82.2909 142.804C80.3139 143.316 78.2739 143.736 76.2399 144.049Z" fill="white"/>
<path d="M75.4711 139.052C46.9951 143.436 20.0661 125.681 12.8311 97.7498L6.51608 73.3938C6.09608 71.7568 5.87708 70.1218 5.86208 68.5228L5.86108 68.4638C5.84608 68.2278 5.81508 67.8508 5.77408 67.3528C3.10208 34.4248 8.29108 27.9678 13.1111 26.0208C13.7671 25.7558 14.4611 25.5658 15.1741 25.4558C23.7861 24.1298 34.4201 35.2588 39.9721 41.9818L39.9491 41.8658L43.7421 40.2578C44.1621 40.0798 44.5861 39.9068 45.0101 39.7338L45.0791 39.7058C46.5291 39.1238 47.9481 38.5918 49.2951 38.1238L51.6221 37.3148L51.6111 37.2158L52.8361 36.8928L54.7671 36.2218L54.7981 36.3758L55.8311 36.1038C57.7971 35.5858 59.6551 35.1448 61.5111 34.7558L62.0901 34.6348L62.0801 34.5418L63.9241 34.2498L66.9561 33.6148L66.9731 33.7678L67.3551 33.7078C69.0991 33.4398 70.8591 33.2098 72.5881 33.0248L76.8781 32.5678C80.0161 24.2018 87.7411 6.77284 98.1021 5.17784C98.8101 5.06884 99.5261 5.03084 100.231 5.06584C110.345 5.56384 113.104 20.3388 114.011 25.1938C115.339 32.3078 115.705 39.4888 115.795 41.9558C116.182 42.8738 116.507 43.8378 116.766 44.8338L123.075 69.1938C130.809 99.0758 112.794 129.684 82.9171 137.423L81.0411 137.903C79.2141 138.378 77.3361 138.765 75.4711 139.052Z" fill="black"/>
<path d="M118.877 70.2829L112.569 45.9249C112.299 44.8849 111.942 43.8949 111.491 42.9559C111.491 42.9559 111.49 42.9489 111.488 42.9349C111.467 41.9439 110.695 9.92291 100.017 9.39691C89.1712 8.86691 79.7202 37.5219 79.7202 37.5219C77.4952 37.6449 75.2942 37.8229 73.1232 38.0549L67.6372 38.7829L67.6302 38.7839C65.9242 39.0469 64.2242 39.3519 62.5472 39.7059L57.1182 40.9949C55.0272 41.5579 52.9692 42.1959 50.9502 42.8949C49.6182 43.3559 48.3052 43.8499 47.0132 44.3779C48.3142 43.8559 49.6262 43.3619 50.9512 42.9019L45.7142 44.9139C43.4972 45.8469 41.3332 46.8819 39.2122 48.0119C39.2122 48.0119 23.1202 26.6519 14.7332 30.0399C6.75219 33.2639 9.95819 64.7639 10.1842 68.1789L10.1892 68.2149C10.1962 68.2579 10.2002 68.2859 10.1912 68.3239C10.1912 68.3749 10.1932 68.4329 10.1942 68.4839C10.2062 69.7459 10.3812 71.0279 10.7092 72.3069L17.0242 96.6639C24.1772 124.275 52.3512 140.86 79.9632 133.707L81.8262 133.23C109.439 126.077 126.021 97.8879 118.877 70.2829Z" fill="#E9A628"/>
<path d="M74.944 135.478C48.728 139.514 23.119 123.065 16.326 96.845L10.011 72.488C9.66603 71.144 9.48503 69.799 9.47303 68.491L9.46403 68.227C9.44703 67.98 9.41503 67.585 9.37303 67.063C7.51503 44.167 9.22703 31.486 14.463 29.371C18.225 27.849 23.666 30.495 30.621 37.237C34.789 41.278 38.291 45.651 39.413 47.09C41.398 46.051 43.42 45.097 45.434 44.249L46.753 43.742L46.74 43.71C48.037 43.18 49.374 42.677 50.714 42.213C52.801 41.492 54.892 40.847 56.93 40.299L62.379 39.005C64.038 38.655 65.761 38.343 67.519 38.072L73.027 37.341C75.058 37.124 77.124 36.953 79.19 36.83C80.517 32.956 89.427 8.15603 100.051 8.67603C104.871 8.91403 108.372 14.695 110.457 25.86C111.919 33.686 112.174 41.595 112.205 42.78C112.641 43.709 112.998 44.705 113.268 45.745L119.576 70.103C126.81 98.057 109.958 126.69 82.009 133.93L80.144 134.407C78.412 134.855 76.675 135.212 74.944 135.478ZM10.915 68.367L10.917 68.474C10.928 69.669 11.094 70.897 11.41 72.127L17.725 96.482C24.766 123.662 52.608 140.054 79.784 133.007L81.649 132.53C108.825 125.49 125.213 97.647 118.178 70.463L111.87 46.105C111.611 45.105 111.264 44.15 110.84 43.268L110.77 43.018L110.766 42.949C110.53 31.765 107.974 10.511 99.982 10.117C89.808 9.62103 80.5 37.466 80.406 37.747L80.251 38.215L79.759 38.242C77.555 38.364 75.348 38.543 73.199 38.773L67.731 39.499C66.007 39.764 64.309 40.072 62.694 40.412L57.284 41.697C55.306 42.23 53.255 42.861 51.207 43.569L51.209 43.575L45.972 45.587C43.837 46.486 41.669 47.52 39.551 48.649L39.006 48.939L38.634 48.446C34.25 42.629 21.467 28.103 15.002 30.709C12.423 31.751 8.44903 37.844 10.811 66.945C10.854 67.477 10.887 67.879 10.903 68.131C10.912 68.166 10.926 68.252 10.915 68.367Z" fill="black"/>
<path d="M45.0567 102.289L44.3637 102.094L38.4507 100.286L38.8397 98.8951C40.4017 99.2921 42.2017 99.8681 44.2867 100.535L45.4827 100.918L45.0567 102.289ZM97.7107 89.0321L96.7847 87.924L98.0047 86.9021C99.2897 85.8241 100.526 84.7861 101.695 83.8311L102.614 84.9451L97.7107 89.0321Z" fill="black"/>
<path d="M34.7288 52.451C29.9208 54.828 21.9118 59.153 16.6828 63.875C15.9838 64.509 14.8588 64.039 14.8008 63.09C13.9208 48.259 14.9888 41.437 15.9688 38.356C16.4768 36.765 18.3568 36.066 19.7778 36.944C23.7438 39.395 30.9518 45.776 35.0958 50.714C35.5638 51.277 35.3808 52.131 34.7288 52.451Z" fill="#CE273E"/>
<path d="M16.2166 64.8659C15.8946 64.9159 15.5586 64.8779 15.2396 64.7489C14.5696 64.4759 14.1246 63.8579 14.0796 63.1349C13.2026 48.3549 14.2486 41.3829 15.2806 38.1369C15.5916 37.1629 16.3216 36.4019 17.2826 36.0459C18.2426 35.6919 19.2906 35.7939 20.1576 36.3289C24.3746 38.9359 31.6146 45.4409 35.6496 50.2489C36.0176 50.6939 36.1576 51.2679 36.0376 51.8279C35.9176 52.3859 35.5566 52.8489 35.0476 53.0989C30.6276 55.2849 22.4266 59.6599 17.1666 64.4109C16.8936 64.6579 16.5636 64.8129 16.2166 64.8659ZM18.1526 37.3049C18.0286 37.3239 17.9046 37.3559 17.7846 37.4009C17.2426 37.6019 16.8316 38.0299 16.6576 38.5759C15.6636 41.7039 14.6586 48.4909 15.5226 63.0479C15.5376 63.2849 15.7106 63.3809 15.7846 63.4109C15.8546 63.4389 16.0336 63.4899 16.1986 63.3399C21.5896 58.4719 29.9216 54.0229 34.4086 51.8039L34.4106 51.8029C34.5616 51.7289 34.6106 51.5969 34.6256 51.5249C34.6416 51.4519 34.6506 51.3089 34.5406 51.1749C30.5876 46.4649 23.5106 40.0999 19.3996 37.5589C19.0216 37.3249 18.5826 37.2389 18.1526 37.3049Z" fill="black"/>
<path d="M106.828 43.148C106.862 43.983 106.016 44.567 105.248 44.232C98.2736 41.228 89.8636 39.907 85.2866 39.369C84.6466 39.292 84.2396 38.646 84.4596 38.035C88.1176 27.95 93.9206 17.6581 98.0986 15.5531C99.0826 15.0581 100.274 15.299 100.995 16.138C101.352 16.558 101.739 17.1271 102.149 17.8901C103.214 19.8741 104.397 23.1861 105.374 28.4871C106.331 33.7021 106.698 40.069 106.828 43.148Z" fill="#CE273E"/>
<path d="M105.982 45.0279C105.642 45.0799 105.289 45.0369 104.96 44.8929C98.0538 41.9179 89.6168 40.6039 85.2028 40.0849C84.6738 40.0219 84.2128 39.7269 83.9348 39.2769C83.6578 38.8289 83.6018 38.2859 83.7808 37.7889C87.2728 28.1609 93.1998 17.2119 97.7748 14.9069C99.0548 14.2619 100.606 14.5739 101.544 15.6659C101.964 16.1599 102.381 16.7919 102.787 17.5459C104.107 20.0049 105.217 23.6409 106.086 28.3539C107.035 33.5279 107.411 39.8239 107.551 43.1169V43.1189C107.577 43.7629 107.275 44.3639 106.745 44.7259C106.511 44.8849 106.25 44.9869 105.982 45.0279ZM98.9198 16.0389C98.7508 16.0649 98.5828 16.1179 98.4238 16.1979C94.7438 18.0519 89.0328 27.5459 85.1388 38.2809C85.0988 38.3899 85.1368 38.4769 85.1628 38.5199C85.1898 38.5629 85.2518 38.6379 85.3718 38.6519C89.8628 39.1799 98.4548 40.5199 105.533 43.5689C105.716 43.6489 105.858 43.5819 105.928 43.5349C105.984 43.4959 106.114 43.3849 106.106 43.1779C105.968 39.9229 105.596 33.7039 104.664 28.6169C103.616 22.9309 102.372 19.8309 101.513 18.2309C101.156 17.5659 100.797 17.0189 100.445 16.6059C100.06 16.1559 99.4798 15.9529 98.9198 16.0389Z" fill="black"/>
<path d="M51.6867 83.3478C50.8777 83.4728 50.0597 83.0318 49.7397 82.2398C47.2757 76.1488 44.2227 72.4918 40.6667 71.3698C37.4917 70.3688 33.6297 71.3228 29.1877 74.2038C28.3507 74.7478 27.2337 74.5088 26.6907 73.6718C26.1477 72.8348 26.3857 71.7168 27.2227 71.1748C32.6117 67.6788 37.5007 66.5858 41.7527 67.9268C46.3857 69.3878 50.1987 73.7478 53.0867 80.8868C53.4607 81.8108 53.0147 82.8638 52.0897 83.2378C51.9577 83.2898 51.8217 83.3268 51.6867 83.3478Z" fill="black"/>
<path d="M82.0737 75.9588C82.0077 75.9688 81.9397 75.9758 81.8717 75.9788C80.8747 76.0198 80.0337 75.2458 79.9927 74.2498C79.6747 66.5558 81.3467 61.0098 84.9627 57.7658C88.2807 54.7888 93.1837 53.7658 99.5367 54.7228C100.523 54.8718 101.202 55.7918 101.054 56.7778C100.905 57.7648 99.9857 58.4428 98.9987 58.2938C93.7627 57.5038 89.8517 58.2308 87.3747 60.4538C84.5997 62.9438 83.3297 67.5348 83.6007 74.0998C83.6397 75.0278 82.9707 75.8208 82.0737 75.9588Z" fill="black"/>
<path d="M93.9416 118.313C82.5306 127.21 68.8956 127.745 57.4136 125.033C57.4136 125.033 56.8746 115.455 71.6886 115.461L71.6136 118.483C74.8516 111.043 91.3806 109.229 93.9416 118.313Z" fill="#D9283F"/>
<path d="M76.2138 126.709C69.2278 127.785 62.5798 126.996 57.2478 125.736C56.9368 125.663 56.7108 125.393 56.6928 125.074C56.6848 124.937 56.5348 121.681 59.2298 118.831C61.7988 116.114 65.9898 114.738 71.6888 114.74C71.8838 114.74 72.0698 114.819 72.2058 114.958C72.3418 115.097 72.4158 115.286 72.4108 115.48L72.3988 115.953C75.3048 112.681 80.6788 111.198 85.0448 111.496C90.0508 111.836 93.5468 114.249 94.6368 118.117C94.7158 118.399 94.6168 118.702 94.3858 118.883C88.5018 123.47 82.2328 125.782 76.2138 126.709ZM58.1568 124.463C67.6468 126.601 81.1778 127.102 93.1008 118.048C91.6128 113.845 86.9398 113.071 84.9468 112.936C80.1108 112.607 74.0478 114.7 72.2758 118.772C72.1378 119.088 71.7958 119.263 71.4568 119.189C71.1198 119.114 70.8818 118.811 70.8908 118.466L70.9478 116.192C66.0628 116.301 62.4818 117.512 60.3018 119.799C58.6228 121.561 58.2408 123.538 58.1568 124.463Z" fill="black"/>
<path d="M102.19 109.75C99.6318 113.213 96.8588 116.037 93.9418 118.313C91.3808 109.229 74.8528 111.043 71.6138 118.484L71.6888 115.462C56.8748 115.455 57.4138 125.034 57.4138 125.034C52.9618 123.98 48.8378 122.445 45.2908 120.718C30.2648 113.4 29.1748 103.095 31.4498 100.502C33.0228 98.7109 35.2608 98.7239 38.6618 99.5959L39.0528 108.59C39.0978 109.548 40.3308 109.913 40.8888 109.126L44.2868 104.284L43.8558 108.509C43.8558 108.509 55.7278 113.806 73.6158 110.139C91.5038 106.471 101.551 93.4139 101.551 93.4139L100.22 91.8869L103.763 94.3959C104.386 94.8339 105.217 94.2519 105.009 93.5169L102.416 84.1749C103.24 83.4999 104.021 82.8759 104.766 82.2999C109.425 78.7099 118.581 87.5379 102.19 109.75Z" fill="#000009"/>
<path d="M44.6845 102.117C44.5805 102.133 44.4715 102.127 44.3635 102.094L38.4505 100.286C38.0755 100.171 37.8605 99.7778 37.9665 99.4008C38.0725 99.0228 38.4595 98.7988 38.8395 98.8948C40.4015 99.2918 42.2015 99.8678 44.2855 100.535L44.7985 100.699C45.1765 100.819 45.3865 101.222 45.2685 101.601L45.2635 101.616C45.1805 101.89 44.9485 102.076 44.6845 102.117Z" fill="black"/>
<path d="M97.3586 89.1907C97.1166 89.2277 96.8616 89.1417 96.6936 88.9407C96.4386 88.6347 96.4786 88.1797 96.7846 87.9237L98.0046 86.9017C99.2896 85.8237 100.526 84.7857 101.695 83.8307C102.004 83.5797 102.456 83.6237 102.709 83.9307C102.962 84.2367 102.92 84.6907 102.615 84.9447L97.7116 89.0317C97.6056 89.1187 97.4836 89.1717 97.3586 89.1907Z" fill="black"/>
<path d="M54.6719 61.4239C54.9679 62.9199 53.9949 64.3859 52.4989 64.6819C50.9959 64.9789 49.5389 64.0119 49.2409 62.5089L45.7129 44.9138C46.1449 44.7308 46.5779 44.5539 47.0119 44.3779C48.3129 43.8559 49.6249 43.3619 50.9499 42.9019L54.6719 61.4239Z" fill="#DD6818"/>
<path d="M52.4906 65.4158C50.6516 65.6988 48.8956 64.4848 48.5326 62.6478L44.8896 44.4778L45.4316 44.2478C45.8506 44.0698 46.2717 43.8988 46.6917 43.7268C48.0927 43.1638 49.4286 42.6638 50.7126 42.2178L51.4946 41.9458L55.3796 61.2828C55.7536 63.1738 54.5236 65.0158 52.6386 65.3888C52.5896 65.3998 52.5406 65.4088 52.4906 65.4158ZM46.5387 45.3508L49.9496 62.3658C50.1686 63.4718 51.2357 64.1858 52.3587 63.9718C53.4627 63.7528 54.1826 62.6728 53.9636 61.5638L50.4066 43.8588C49.3866 44.2248 48.3386 44.6228 47.2816 45.0468C47.0216 45.1528 46.7767 45.2528 46.5387 45.3508Z" fill="black"/>
<path d="M62.5457 39.7061L64.6917 58.9611C64.8607 60.4841 63.7627 61.8521 62.2477 62.0271C60.7237 62.1891 59.3637 61.0971 59.1877 59.5751L57.1167 40.995C58.9147 40.52 60.7117 40.0901 62.5457 39.7061Z" fill="#DD6818"/>
<path d="M62.4636 62.7259C62.4196 62.7329 62.3756 62.7379 62.3306 62.7439C60.4196 62.9469 58.6906 61.5609 58.4706 59.6569L56.3296 40.4549L56.9326 40.2959C58.8256 39.7969 60.6126 39.3729 62.3976 38.9989L63.1756 38.8359L65.4096 58.8799C65.6166 60.7459 64.3036 62.4419 62.4636 62.7259ZM57.9036 41.5349L59.9066 59.4929C60.0356 60.6109 61.0526 61.4259 62.1726 61.3069C63.2816 61.1779 64.0986 60.1609 63.9746 59.0389L61.9166 40.5779C60.6026 40.8649 59.2796 41.1799 57.9036 41.5349Z" fill="black"/>
<path d="M73.1217 38.0547L75.2527 57.2097C75.4277 58.7247 74.3307 60.0997 72.8137 60.2597C71.2987 60.4347 69.9237 59.3377 69.7567 57.8217L67.6367 38.7827C69.4407 38.4977 71.2737 38.2517 73.1217 38.0547Z" fill="#DD6818"/>
<path d="M73.0558 60.9568C73.0008 60.9658 72.9458 60.9728 72.8898 60.9788C71.9718 61.0848 71.0598 60.8228 70.3298 60.2408C69.5998 59.6588 69.1408 58.8278 69.0378 57.9018L66.8418 38.1768L67.5228 38.0688C69.3738 37.7758 71.2338 37.5288 73.0438 37.3358L73.7588 37.2598L75.9688 57.1288C76.0758 58.0528 75.8128 58.9648 75.2288 59.6948C74.6818 60.3808 73.9148 60.8248 73.0558 60.9568ZM68.4308 39.3908L70.4738 57.7428C70.5338 58.2848 70.8028 58.7698 71.2308 59.1108C71.6578 59.4518 72.1908 59.6048 72.7318 59.5428C73.2738 59.4888 73.7618 59.2198 74.1028 58.7938C74.4448 58.3668 74.5978 57.8338 74.5358 57.2928L72.4848 38.8518C71.1478 39.0038 69.7898 39.1838 68.4308 39.3908Z" fill="black"/>
<path d="M74.4777 85.969C75.0597 88.846 73.1907 91.655 70.3057 92.239L69.1287 92.471L68.5477 92.59C65.6617 93.166 62.8597 91.295 62.2767 88.411L62.2007 88.014C61.9577 86.816 62.7357 85.652 63.9337 85.409L71.7957 83.833C72.9947 83.597 74.1587 84.368 74.4007 85.566L74.4777 85.969Z" fill="#CE273E"/>
<path d="M68.4249 93.3438C65.2509 93.8328 62.2109 91.7318 61.5679 88.5528L61.4909 88.1478C61.1709 86.5718 62.2019 85.0219 63.7899 84.6989L71.6529 83.1229C73.2279 82.8169 74.7879 83.8419 75.1079 85.4209L75.1849 85.8298C75.8429 89.0928 73.7179 92.2858 70.4469 92.9468L68.6899 93.2979C68.6029 93.3149 68.5139 93.3308 68.4249 93.3438ZM71.9959 84.5289C71.9749 84.5319 71.9549 84.5359 71.9339 84.5399L64.0749 86.1159C63.6859 86.1949 63.3479 86.4209 63.1279 86.7529C62.9069 87.0839 62.8289 87.4808 62.9079 87.8698L62.9849 88.2759C63.4859 90.7569 65.9079 92.3828 68.4039 91.8818L70.1639 91.5309C72.6519 91.0279 74.2699 88.5969 73.7679 86.1129C73.7679 86.1099 73.7669 86.1068 73.7659 86.1048L73.6889 85.6999C73.5339 84.9259 72.7809 84.4079 71.9959 84.5289Z" fill="black"/>
<path d="M56.5617 91.1101C56.3877 91.1371 56.2037 91.1001 56.0467 90.9941C52.5287 88.6141 45.1337 88.4261 45.0587 88.4241C44.6597 88.4151 44.3437 88.0851 44.3517 87.6861C44.3607 87.2871 44.6877 86.9721 45.0897 86.9791C45.4097 86.9861 52.9847 87.1781 56.8557 89.7971C57.1867 90.0211 57.2727 90.4701 57.0497 90.8001C56.9327 90.9751 56.7537 91.0811 56.5617 91.1101Z" fill="black"/>
<path d="M56.5604 93.8691C56.4594 93.8851 56.3524 93.879 56.2474 93.848C52.2354 92.672 46.9144 95.153 46.8604 95.178C46.5004 95.351 46.0694 95.1941 45.8984 94.8341C45.7274 94.4731 45.8814 94.043 46.2414 93.872C46.4794 93.759 52.1094 91.1291 56.6534 92.4611C57.0364 92.5731 57.2554 92.9751 57.1434 93.3581C57.0624 93.6371 56.8284 93.8281 56.5604 93.8691Z" fill="black"/>
<path d="M49.7624 99.2999C49.5494 99.3329 49.3244 99.2709 49.1564 99.1119C48.8674 98.8389 48.8524 98.3839 49.1244 98.0939C49.2334 97.9779 51.8384 95.2549 56.5994 95.1189C56.9984 95.1079 57.3304 95.4219 57.3414 95.8209C57.3524 96.2189 57.0374 96.5519 56.6394 96.5629C52.5094 96.6789 50.1994 99.0599 50.1764 99.0839C50.0624 99.2039 49.9154 99.2759 49.7624 99.2999Z" fill="black"/>
<path d="M80.3458 84.9648C80.1538 84.9948 79.9508 84.9468 79.7868 84.8168C79.4738 84.5688 79.4218 84.1148 79.6698 83.8018C82.5738 80.1398 89.7398 77.6788 90.0428 77.5758C90.4228 77.4468 90.8308 77.6508 90.9588 78.0278C91.0868 78.4048 90.8848 78.8148 90.5068 78.9438C90.4368 78.9678 83.4398 81.3718 80.8018 84.6998C80.6838 84.8478 80.5198 84.9378 80.3458 84.9648Z" fill="black"/>
<path d="M81.1767 87.5959C80.9087 87.6379 80.6277 87.5249 80.4667 87.2849C80.2447 86.9529 80.3327 86.5049 80.6637 86.2829C84.5967 83.6459 90.7568 84.4599 91.0178 84.4959C91.4128 84.5499 91.6887 84.9149 91.6337 85.3099C91.5787 85.7039 91.2157 85.9819 90.8197 85.9269C90.7617 85.9189 84.9397 85.1529 81.4677 87.4819C81.3787 87.5429 81.2787 87.5809 81.1767 87.5959Z" fill="black"/>
<path d="M89.2935 90.7306C89.1405 90.7546 88.9775 90.7286 88.8325 90.6476C88.8035 90.6316 85.8875 89.0556 81.9105 90.1876C81.5235 90.2966 81.1275 90.0746 81.0175 89.6906C80.9085 89.3066 81.1305 88.9076 81.5145 88.7976C86.0955 87.4916 89.3995 89.3077 89.5385 89.3867C89.8865 89.5827 90.0095 90.0226 89.8135 90.3696C89.7005 90.5716 89.5055 90.6976 89.2935 90.7306Z" fill="black"/>
<path d="M101.551 93.4121C101.551 93.4121 91.5034 106.469 73.6164 110.137C55.7284 113.805 43.8564 108.507 43.8564 108.507L44.2874 104.282L46.0014 101.84C46.5004 101.997 47.0154 102.159 47.5444 102.319C56.4424 105.049 65.7044 104.551 68.9814 103.476C72.2584 102.401 69.1284 92.4701 69.1284 92.4701L70.3055 92.2381C70.3055 92.2381 71.5325 101.345 74.6245 101.826C77.7235 102.306 81.5454 100.687 87.6414 96.1901C90.5814 94.0201 93.5704 91.5571 96.4064 89.1841L100.22 91.8851L101.551 93.4121Z" fill="#FFFDFF"/>
<path d="M70.5176 111.427C54.4386 113.903 44.0246 109.374 43.5616 109.167C43.2766 109.04 43.1056 108.744 43.1376 108.434L43.5686 104.209C43.5806 104.086 43.6256 103.969 43.6956 103.868L45.4096 101.426C45.5906 101.169 45.9166 101.058 46.2176 101.152C46.7546 101.321 47.2466 101.476 47.7526 101.629C56.7156 104.379 65.8536 103.741 68.7556 102.791C70.5266 102.21 69.6136 96.419 68.4386 92.688C68.3766 92.492 68.4016 92.279 68.5056 92.102C68.6106 91.925 68.7856 91.802 68.9866 91.762L70.1636 91.53C70.3636 91.495 70.5616 91.536 70.7236 91.651C70.8856 91.767 70.9926 91.945 71.0196 92.142C71.5006 95.702 72.9706 100.838 74.7336 101.113C77.6396 101.562 81.3706 99.917 87.2106 95.609C90.1266 93.457 93.1296 90.983 95.9406 88.631C96.1926 88.42 96.5546 88.406 96.8216 88.595L100.636 91.296C100.683 91.329 100.726 91.368 100.763 91.411L102.094 92.938C102.32 93.197 102.332 93.58 102.122 93.853C102.02 93.986 91.7026 107.166 73.7586 110.845C72.6576 111.071 71.5746 111.264 70.5176 111.427ZM44.6306 108.04C47.0086 108.945 58.0216 112.594 73.4716 109.43C88.9956 106.247 98.6366 95.744 100.606 93.426L99.7326 92.425L96.4426 90.095C93.7376 92.354 90.8686 94.705 88.0696 96.771C81.8086 101.39 77.8816 103.061 74.5126 102.54C73.0106 102.306 71.9236 100.647 71.1586 98.715C71.3546 101.207 71.0136 103.57 69.2056 104.163C65.6726 105.324 56.2806 105.756 47.3316 103.011C46.9786 102.904 46.6306 102.796 46.2886 102.689L44.9866 104.544L44.6306 108.04Z" fill="black"/>
<path d="M44.3976 104.997C44.2796 105.015 44.1546 105.004 44.0366 104.96C43.7286 104.845 43.5366 104.538 43.5696 104.211L43.8566 101.331C43.8616 101.283 43.8706 101.235 43.8856 101.188C43.9426 101.004 44.0736 100.843 44.2446 100.754C44.4166 100.665 44.6186 100.64 44.8016 100.7L45.2756 100.851C45.5776 100.947 45.8826 101.045 46.1956 101.148C46.3656 101.196 46.5156 101.305 46.6126 101.461C46.7656 101.707 46.7596 102.02 46.5936 102.256L44.8796 104.698C44.7626 104.863 44.5866 104.968 44.3976 104.997Z" fill="black"/>
<path d="M100.331 92.599C100.151 92.627 99.9618 92.587 99.8038 92.475L95.9898 89.774C95.8078 89.645 95.6948 89.439 95.6858 89.216C95.6758 88.993 95.7698 88.778 95.9408 88.634L96.7468 87.956C96.9468 87.788 97.2408 87.727 97.4838 87.818C97.5998 87.861 97.7038 87.93 97.7858 88.016L97.7928 88.01L100.765 91.411C101.006 91.687 101.002 92.098 100.757 92.37C100.642 92.497 100.49 92.575 100.331 92.599Z" fill="black"/>
<path d="M44.5746 101.403L44.2876 104.283L40.8896 109.125C40.3316 109.913 39.0986 109.547 39.0536 108.589L38.6626 99.5947L44.5746 101.403Z" fill="#FFFDFF"/>
<path d="M40.3346 110.257C40.0886 110.295 39.8306 110.279 39.5766 110.205C38.8556 109.994 38.3666 109.373 38.3316 108.624L37.9406 99.6267C37.9306 99.3927 38.0346 99.1677 38.2196 99.0247C38.4066 98.8817 38.6496 98.8377 38.8726 98.9047L44.7856 100.713C45.1146 100.814 45.3276 101.133 45.2926 101.476L45.0056 104.356C44.9926 104.48 44.9496 104.598 44.8786 104.699L41.4806 109.541C41.1976 109.938 40.7856 110.188 40.3346 110.257ZM39.4276 100.584L39.7746 108.557C39.7826 108.733 39.9076 108.796 39.9826 108.818C40.0566 108.84 40.1956 108.855 40.2996 108.707L43.5876 104.023L43.7976 101.921L39.4276 100.584Z" fill="black"/>
<path d="M44.3976 104.997C44.2796 105.015 44.1546 105.004 44.0366 104.96C43.7286 104.846 43.5366 104.538 43.5696 104.211L43.8566 101.331C43.8776 101.115 43.9956 100.921 44.1756 100.801C44.3566 100.681 44.5806 100.648 44.7886 100.713L46.1846 101.145C46.3586 101.192 46.5136 101.302 46.6116 101.461C46.7646 101.707 46.7586 102.02 46.5926 102.256L44.8786 104.698C44.7626 104.863 44.5866 104.968 44.3976 104.997Z" fill="black"/>
<path d="M105.01 93.5158C105.218 94.2508 104.387 94.8318 103.764 94.3948L100.221 91.8858L97.2486 88.4848L97.2476 88.4778L102.151 84.3908L102.417 84.1748L105.01 93.5158Z" fill="#FFFDFF"/>
<path d="M104.461 95.251C104.081 95.31 103.685 95.221 103.35 94.985L99.8037 92.474C99.7577 92.441 99.7146 92.403 99.6776 92.36L96.7056 88.959C96.6156 88.856 96.5566 88.729 96.5356 88.594C96.4976 88.344 96.5916 88.084 96.7856 87.922L101.963 83.612C102.152 83.458 102.405 83.41 102.638 83.485C102.87 83.559 103.049 83.745 103.114 83.98L105.707 93.321C105.884 93.951 105.655 94.603 105.121 94.981C104.917 95.126 104.692 95.216 104.461 95.251ZM100.708 91.345L104.181 93.805C104.197 93.816 104.232 93.84 104.283 93.804C104.331 93.77 104.321 93.737 104.314 93.713C104.314 93.713 104.314 93.711 104.313 93.709L102.018 85.44L98.2737 88.561L100.708 91.345Z" fill="black"/>
<path d="M100.331 92.5988C100.151 92.6268 99.9615 92.5868 99.8035 92.4748L95.9896 89.7738C95.8066 89.6438 95.6935 89.4368 95.6845 89.2118C95.6765 88.9878 95.7725 88.7718 95.9445 88.6288L96.7866 87.9298C97.0896 87.6798 97.5345 87.7148 97.7915 88.0098L100.764 91.4108C101.005 91.6868 101.001 92.0978 100.756 92.3698C100.642 92.4968 100.49 92.5748 100.331 92.5988Z" fill="black"/>
<path d="M33.9128 80.3837C34.2478 80.2907 34.2478 79.8207 33.9108 79.7337C30.6558 78.8867 22.4008 77.5257 17.6418 83.7937C14.0468 88.5287 19.7528 93.3667 22.7298 88.7947C25.2338 84.9497 30.5128 81.3287 33.9128 80.3837Z" fill="white"/>
<path d="M20.3617 91.3109C20.0457 91.3599 19.7647 91.3599 19.5377 91.3429C18.1057 91.2309 16.8177 90.2769 16.1787 88.8509C15.4037 87.1239 15.7277 85.1209 17.0677 83.3569C22.0757 76.7599 30.6427 78.1369 34.0937 79.0349C34.5647 79.1569 34.8837 79.5649 34.8867 80.0489C34.8907 80.5349 34.5777 80.9489 34.1067 81.0799C30.8677 81.9809 25.7667 85.4539 23.3357 89.1889C22.3667 90.6769 21.2327 91.1759 20.3617 91.3109ZM25.7727 79.8979C23.0627 80.3149 20.2827 81.5099 18.2177 84.2299C17.2077 85.5609 16.9437 87.0289 17.4967 88.2589C17.9137 89.1879 18.7587 89.832 19.6497 89.902C20.5697 89.973 21.4477 89.4399 22.1247 88.3999C24.4307 84.8579 28.9877 81.5309 32.4277 80.1339C30.6727 79.7859 28.2527 79.5159 25.7727 79.8979Z" fill="black"/>
<path d="M96.8868 68.2513C96.5388 68.2633 96.3988 67.8153 96.6928 67.6303C99.5428 65.8433 107.006 62.0623 113.429 66.6083C118.282 70.0433 114.295 76.3733 110.081 72.9083C106.539 69.9953 100.414 68.1313 96.8868 68.2513Z" fill="white"/>
<path d="M113.098 74.5961C112.227 74.7301 110.996 74.5951 109.623 73.4671C106.18 70.6361 100.27 68.8581 96.9108 68.9741C96.4228 68.9901 95.9998 68.6891 95.8578 68.2251C95.7158 67.7621 95.8978 67.2781 96.3088 67.0201C99.3298 65.1261 107.086 61.2361 113.847 66.0201C115.656 67.3001 116.567 69.1121 116.347 70.9921C116.166 72.5441 115.225 73.8421 113.893 74.3791C113.683 74.4631 113.414 74.5471 113.098 74.5961ZM98.2288 67.5671C101.929 67.8641 107.276 69.6661 110.541 72.3511C111.499 73.1391 112.496 73.3821 113.353 73.0381C114.182 72.7041 114.794 71.8351 114.912 70.8241C115.069 69.4851 114.376 68.1641 113.012 67.1981C107.674 63.4201 101.511 65.7671 98.2288 67.5671ZM96.8618 67.5301H96.8638H96.8618Z" fill="black"/>
</svg>
