<svg width="190" height="112" viewBox="0 0 190 112" fill="none" xmlns="http://www.w3.org/2000/svg">
<path d="M133.46 110.739C126.537 110.277 120.224 106.743 116.217 101.175L105.02 100.427C103.332 100.314 101.993 99.0588 101.707 97.4668C97.6936 99.2138 93.2596 99.9888 88.7386 99.6868C84.6426 99.4128 80.7796 98.3108 77.3186 96.4488C76.6696 97.6598 75.3536 98.4448 73.8936 98.3468L61.3925 97.5118C56.6815 102.497 49.9545 105.159 43.0305 104.697C38.8285 104.416 34.6806 102.931 31.2086 100.484C30.8846 100.481 30.5616 100.469 30.2406 100.448C29.7946 100.418 29.3476 100.37 28.9026 100.304C26.3006 101.568 23.3596 102.152 20.4756 101.959C13.1446 101.469 7.11356 96.3288 5.41356 89.2878C1.62156 85.3498 -0.325443 80.0208 0.0445569 74.4828C0.275557 71.0198 1.38955 67.7458 3.28555 64.9188C3.10855 63.5808 3.06455 62.2208 3.15555 60.8578C3.17355 60.5898 3.19755 60.3198 3.22655 60.0498C1.46655 56.9068 0.634553 53.3018 0.871553 49.7528C0.966553 48.3308 1.22656 46.9318 1.64856 45.5748C1.43456 44.9098 1.26356 44.2258 1.13756 43.5298C0.404559 39.3868 1.32356 35.2258 3.72156 31.7948C6.11156 28.3668 9.70355 26.0738 13.8345 25.3428C15.0495 25.1208 16.3236 25.0508 17.6026 25.1358C19.4776 25.2608 21.3325 25.7298 23.0455 26.5068C23.3265 26.4418 23.6096 26.3848 23.8936 26.3358C25.1656 26.1108 26.4856 26.0398 27.8016 26.1278C28.1176 26.1488 28.4346 26.1788 28.7496 26.2188C47.4856 11.7498 70.9186 4.67879 94.9286 6.28179C118.956 7.88679 141.24 18.0168 157.872 34.8568C158.251 34.8558 158.63 34.8678 159.008 34.8928C160.323 34.9808 161.623 35.2268 162.87 35.6238C163.138 35.7078 163.405 35.7998 163.67 35.8998C165.47 35.3588 167.368 35.1398 169.24 35.2648C170.525 35.3508 171.783 35.5918 172.981 35.9808C176.94 37.2428 180.189 39.9908 182.111 43.7118C184.035 47.4358 184.393 51.6818 183.118 55.6678C182.904 56.3418 182.644 57.0038 182.34 57.6438C182.577 59.0438 182.649 60.4668 182.554 61.8888C182.317 65.4308 181.014 68.8918 178.851 71.7778C178.844 72.0508 178.832 72.3228 178.814 72.5918C178.723 73.9558 178.498 75.2978 178.145 76.5998C179.648 79.6538 180.317 83.0468 180.085 86.5108C179.715 92.0458 177.076 97.0668 172.79 100.468C170.174 107.222 163.516 111.514 156.181 111.024C153.298 110.831 150.46 109.861 148.049 108.262C147.599 108.268 147.149 108.256 146.703 108.227C146.381 108.206 146.058 108.174 145.736 108.133C141.972 110.099 137.665 111.02 133.46 110.739Z" fill="#E9D1A3"/>
<path d="M143.495 101.654C136.556 101.654 130.021 98.549 125.653 93.261H114.431C112.74 93.261 111.32 92.098 110.928 90.528C107.041 92.539 102.668 93.608 98.1366 93.608C94.0306 93.608 90.1036 92.765 86.5266 91.139C85.9596 92.39 84.6996 93.261 83.2356 93.261H70.7066C66.3386 98.549 59.8036 101.654 52.8646 101.654C48.6526 101.654 44.4156 100.449 40.7886 98.239C40.4656 98.257 40.1426 98.267 39.8206 98.267C39.3736 98.267 38.9246 98.249 38.4756 98.213C35.9636 99.648 33.0676 100.426 30.1776 100.426C22.8306 100.426 16.4706 95.699 14.3046 88.788C10.2586 85.112 7.9606 79.925 7.9606 74.374C7.9606 70.904 8.85359 67.563 10.5566 64.615C10.2906 63.292 10.1556 61.938 10.1556 60.571C10.1556 60.302 10.1616 60.031 10.1726 59.76C8.2066 56.741 7.13659 53.2 7.13659 49.643C7.13659 48.218 7.3026 46.804 7.6326 45.423C7.3756 44.773 7.15859 44.102 6.98559 43.417C5.97859 39.332 6.6176 35.119 8.7816 31.536C10.9376 27.956 14.3696 25.429 18.4416 24.424C19.6396 24.122 20.9056 23.966 22.1876 23.966C24.0666 23.966 25.9486 24.311 27.7096 24.971C27.9856 24.888 28.2646 24.812 28.5446 24.744C29.7986 24.435 31.1106 24.276 32.4296 24.276C32.7466 24.276 33.0646 24.285 33.3816 24.304C51.1116 8.619 74.0206 0 98.0846 0C122.165 0 145.075 8.622 162.793 24.315C163.171 24.289 163.55 24.275 163.929 24.275C165.247 24.275 166.561 24.434 167.832 24.747C168.105 24.813 168.378 24.887 168.649 24.969C170.409 24.309 172.288 23.964 174.164 23.964C175.451 23.964 176.723 24.12 177.944 24.429C181.978 25.424 185.403 27.949 187.569 31.534C189.737 35.122 190.377 39.334 189.371 43.396C189.202 44.083 188.987 44.76 188.726 45.42C189.056 46.802 189.222 48.216 189.222 49.642C189.222 53.192 188.152 56.733 186.186 59.756C186.197 60.029 186.203 60.301 186.203 60.571C186.203 61.938 186.068 63.292 185.802 64.615C187.505 67.562 188.398 70.903 188.398 74.374C188.398 79.922 186.099 85.107 182.049 88.786C179.889 95.699 173.532 100.426 166.181 100.426C163.291 100.426 160.395 99.647 157.883 98.213C157.434 98.249 156.985 98.267 156.538 98.267C156.216 98.267 155.891 98.257 155.567 98.238C151.945 100.448 147.71 101.654 143.495 101.654Z" fill="white"/>
<path d="M184.462 42.1812C184.216 43.1852 183.834 44.1312 183.321 45.0052C183.877 46.4862 184.166 48.0532 184.166 49.6422C184.166 52.8132 183.025 55.8542 180.981 58.3092C181.089 59.0532 181.147 59.8112 181.147 60.5702C181.147 62.2892 180.865 63.9572 180.331 65.5182C182.274 68.0242 183.343 71.1082 183.343 74.3732C183.343 79.0032 181.176 83.2432 177.557 85.9442C176.546 91.3032 171.829 95.3702 166.181 95.3702C163.566 95.3702 161.074 94.4962 159.066 92.9362C158.243 93.1172 157.398 93.2102 156.538 93.2102C155.787 93.2102 155.043 93.1382 154.306 92.9932C151.2 95.3112 147.379 96.5972 143.493 96.5972C137.224 96.5972 131.503 93.3832 128.217 88.2042H115.873V79.9772C111.799 85.2282 105.429 88.5502 98.1344 88.5502C91.6414 88.5502 85.8634 85.9352 81.7894 81.6812V88.2032H68.1384C64.8524 93.3822 59.1244 96.5962 52.8624 96.5962C48.9694 96.5962 45.1554 95.3102 42.0424 92.9922C41.3134 93.1362 40.5694 93.2092 39.8174 93.2092C38.9574 93.2092 38.1124 93.1152 37.2894 92.9352C35.2814 94.4952 32.7824 95.3692 30.1754 95.3692C24.5274 95.3692 19.8104 91.3032 18.7924 85.9432C15.1734 83.2422 13.0144 79.0022 13.0144 74.3722C13.0144 71.1072 14.0834 68.0232 16.0264 65.5172C15.4914 63.9572 15.2104 62.2882 15.2104 60.5692C15.2104 59.8112 15.2684 59.0522 15.3764 58.3082C13.3254 55.8522 12.1914 52.8122 12.1914 49.6412C12.1914 48.0522 12.4804 46.4852 13.0364 45.0042C12.5234 44.1302 12.1404 43.1842 11.8884 42.1802C11.2094 39.4282 11.6424 36.5752 13.1094 34.1482C14.5754 31.7142 16.9014 30.0092 19.6534 29.3312C20.4844 29.1212 21.3364 29.0202 22.1884 29.0202C24.0884 29.0202 25.9224 29.5262 27.5264 30.4572C28.2274 30.1102 28.9634 29.8432 29.7364 29.6552C30.6174 29.4382 31.5204 29.3302 32.4304 29.3302C33.3044 29.3302 34.1784 29.4312 35.0304 29.6332C52.0834 13.7652 74.3584 5.0542 98.0854 5.0542C121.833 5.0542 144.123 13.7722 161.176 29.6762C162.072 29.4452 162.996 29.3292 163.928 29.3292C164.831 29.3292 165.741 29.4372 166.622 29.6542C167.395 29.8422 168.132 30.1092 168.832 30.4562C170.436 29.5242 172.27 29.0192 174.162 29.0192C175.021 29.0192 175.874 29.1202 176.704 29.3302C182.381 30.7332 185.87 36.4972 184.462 42.1812Z" fill="black"/>
<path d="M154.87 64.16C151.786 65.995 148.694 67.829 145.61 69.664C124.238 33.601 71.9313 33.601 50.5663 69.664C47.4753 67.829 44.3913 65.995 41.2993 64.16C66.8323 21.069 129.338 21.069 154.87 64.16Z" fill="#D9283F"/>
<path d="M145.359 70.6541L144.99 70.0321C135.085 53.3181 117.55 43.3391 98.0856 43.3391C98.0836 43.3391 98.0846 43.3391 98.0826 43.3391C78.6196 43.3401 61.0896 53.3191 51.1886 70.0321L50.8195 70.6541L40.3105 64.4121L40.6786 63.7911C52.8006 43.3341 74.2636 31.1191 98.0856 31.1191C98.0866 31.1191 98.0846 31.1191 98.0856 31.1191C121.911 31.1191 143.371 43.3331 155.493 63.7911L155.86 64.4111L145.359 70.6541ZM42.2915 63.9091L50.3166 68.6751C60.5436 51.8921 78.3446 41.8951 98.0806 41.8941C98.0816 41.8941 98.0835 41.8941 98.0845 41.8941C117.823 41.8941 135.627 51.8901 145.859 68.6751L153.877 63.9091C141.954 44.2661 121.152 32.5641 98.0836 32.5641C75.0186 32.5641 54.2155 44.2681 42.2915 63.9091Z" fill="black"/>
<path d="M173.549 53.0593C170.465 54.8943 167.374 56.7283 164.289 58.5633C134.517 8.33629 61.6526 8.33629 31.8886 58.5633C28.7976 56.7283 25.7126 54.8943 22.6216 53.0593C56.5546 -4.20271 139.616 -4.20271 173.549 53.0593Z" fill="#E9A628"/>
<path d="M164.037 59.5532L163.668 58.9312C149.818 35.5652 125.301 21.6152 98.0868 21.6152C98.0848 21.6152 98.0828 21.6152 98.0828 21.6152C70.8698 21.6162 46.3568 35.5662 32.5108 58.9312L32.1418 59.5532L21.6328 53.3112L22.0008 52.6902C38.0678 25.5772 66.5108 9.38916 98.0858 9.38916C129.661 9.38916 158.104 25.5762 174.171 52.6902L174.539 53.3102L164.037 59.5532ZM23.6138 52.8072L31.6388 57.5742C45.8118 34.1402 70.5958 20.1712 98.0828 20.1702C125.573 20.1702 150.361 34.1372 164.539 57.5742L172.557 52.8082C156.689 26.5102 128.904 10.8352 98.0848 10.8352C67.2658 10.8352 39.4818 26.5102 23.6138 52.8072Z" fill="black"/>
<path d="M164.288 58.5619C161.146 60.4249 158.011 62.2958 154.87 64.1598C129.337 21.0688 66.8322 21.0688 41.2992 64.1598C38.1642 62.2968 35.0222 60.4259 31.8882 58.5619C61.6532 8.33485 134.516 8.33485 164.288 58.5619Z" fill="white"/>
<path d="M41.2994 64.8819C41.1704 64.8819 41.0434 64.8469 40.9304 64.7799L31.5194 59.1819C31.1774 58.9779 31.0644 58.5359 31.2674 58.1929C45.3764 34.3849 70.3544 20.1699 98.0824 20.1689C125.813 20.1679 150.796 34.3819 164.91 58.1929C165.113 58.5359 165 58.9789 164.657 59.1829L155.239 64.7809C155.075 64.8779 154.878 64.9059 154.692 64.8589C154.506 64.8119 154.348 64.6919 154.25 64.5269C142.391 44.5129 121.395 32.5629 98.0864 32.5629C74.7774 32.5629 53.7814 44.5119 41.9224 64.5269C41.8244 64.6919 41.6654 64.8109 41.4794 64.8589C41.4194 64.8749 41.3594 64.8819 41.2994 64.8819ZM98.0844 31.1199C98.0864 31.1199 98.0834 31.1199 98.0844 31.1199C121.667 31.1199 142.934 43.087 155.119 63.172L163.296 58.312C149.382 35.318 125.058 21.6149 98.0854 21.6149C98.0834 21.6149 98.0824 21.6149 98.0814 21.6149C71.1084 21.6159 46.7894 35.32 32.8794 58.312L41.0494 63.1709C53.2354 43.0869 74.5034 31.1199 98.0844 31.1199Z" fill="black"/>
<path d="M52.8605 65.4565C50.4375 65.4565 48.1775 66.1285 46.2335 67.2795C45.1235 65.9605 43.5015 65.0925 41.6725 64.9715C40.9945 61.9575 38.3075 59.7035 35.0885 59.7035C34.9495 59.7035 34.8145 59.7155 34.6775 59.7245C34.5905 58.6515 34.3355 57.6395 33.9525 56.7175C36.2575 55.0455 37.7315 52.5005 37.7315 49.6465C37.7315 48.0225 37.2495 46.5005 36.4135 45.1805C38.1115 43.7185 38.9495 41.3815 38.3755 39.0575C37.5635 35.7655 34.2365 33.7555 30.9445 34.5675C29.3395 34.9635 28.0435 35.9595 27.2265 37.2555C26.1185 34.9125 23.4805 33.5935 20.8675 34.2385C17.8845 34.9745 16.0635 37.9895 16.7995 40.9725C17.1535 42.4095 18.0405 43.5725 19.1945 44.3145C17.9755 45.8155 17.2475 47.6545 17.2475 49.6475C17.2475 52.5015 18.7215 55.0465 21.0265 56.7185C20.5445 57.8805 20.2665 59.1855 20.2665 60.5715C20.2665 62.8855 21.0275 64.9825 22.2585 66.5375C19.7325 68.2275 18.0685 71.1045 18.0685 74.3705C18.0685 78.2255 20.3875 81.5355 23.7035 82.9935C23.6715 83.2555 23.6495 83.5205 23.6495 83.7915C23.6495 87.3955 26.5715 90.3175 30.1755 90.3175C32.6645 90.3175 34.8265 88.9235 35.9275 86.8745C37.0145 87.6835 38.3565 88.1675 39.8145 88.1675C41.0475 88.1675 42.1965 87.8195 43.1795 87.2255C45.5665 89.8725 49.0135 91.5475 52.8585 91.5475C60.0625 91.5475 65.9035 85.7075 65.9035 78.5035C65.9045 71.2965 60.0645 65.4565 52.8605 65.4565Z" fill="white"/>
<path d="M52.8606 92.2673C49.1726 92.2673 45.6256 90.7653 43.0386 88.1263C40.8686 89.2083 38.2186 89.1083 36.1546 87.8893C34.8116 89.8493 32.5866 91.0383 30.1776 91.0383C26.1816 91.0383 22.9296 87.7863 22.9296 83.7903C22.9296 83.6733 22.9326 83.5543 22.9396 83.4313C19.5256 81.7153 17.3476 78.2143 17.3476 74.3703C17.3476 71.2303 18.7936 68.2943 21.2506 66.3763C20.1466 64.7233 19.5456 62.6913 19.5456 60.5713C19.5456 59.3253 19.7516 58.1143 20.1596 56.9633C17.8436 55.0953 16.5256 52.4583 16.5256 49.6463C16.5256 47.8003 17.0946 46.0223 18.1786 44.4623C17.1496 43.6083 16.4216 42.4533 16.0986 41.1433C15.6966 39.5133 15.9526 37.8243 16.8206 36.3873C17.6886 34.9503 19.0646 33.9373 20.6946 33.5353C23.2096 32.9143 25.8236 33.9183 27.2986 35.9603C28.2136 34.9303 29.4156 34.1993 30.7726 33.8653C32.5526 33.4253 34.3966 33.7073 35.9646 34.6543C37.5336 35.6023 38.6396 37.1043 39.0776 38.8833C39.6506 41.2073 38.9826 43.6163 37.3296 45.3103C38.0676 46.6573 38.4546 48.1443 38.4546 49.6463C38.4546 52.4583 37.1376 55.0953 34.8206 56.9633C35.0526 57.6183 35.2196 58.2953 35.3196 58.9853C38.5636 59.0823 41.3246 61.2183 42.2436 64.3053C43.8046 64.5243 45.2656 65.2543 46.3766 66.3693C48.3756 65.2983 50.6046 64.7343 52.8596 64.7343C60.4506 64.7343 66.6266 70.9103 66.6266 78.5013C66.6266 86.0913 60.4516 92.2673 52.8606 92.2673ZM43.3186 86.2973L43.7176 86.7393C46.0576 89.3333 49.3896 90.8214 52.8606 90.8214C59.6546 90.8214 65.1826 85.2933 65.1826 78.4993C65.1826 71.7043 59.6546 66.1773 52.8606 66.1773C50.6696 66.1773 48.5056 66.7733 46.6006 67.8993L46.0736 68.2113L45.6796 67.7433C44.6556 66.5253 43.2156 65.7963 41.6246 65.6913L41.0866 65.6553L40.9676 65.1303C40.3546 62.4053 37.8826 60.4263 35.0876 60.4263C35.0006 60.4263 34.9156 60.4323 34.8296 60.4393L34.0136 60.4903L33.9566 59.7833C33.8786 58.8203 33.6526 57.8823 33.2846 56.9943L33.0666 56.4683L33.5286 56.1333C35.7406 54.5283 37.0096 52.1653 37.0096 49.6473C37.0096 48.2253 36.5926 46.8143 35.8036 45.5673L35.4706 45.0403L35.9436 44.6333C37.5026 43.2903 38.1666 41.2203 37.6756 39.2303C37.3286 37.8253 36.4556 36.6393 35.2176 35.8913C33.9786 35.1433 32.5226 34.9223 31.1186 35.2683C29.7556 35.6053 28.5906 36.4473 27.8376 37.6403L27.1366 38.7533L26.5746 37.5643C25.5956 35.4933 23.2696 34.3933 21.0416 34.9393C19.7866 35.2493 18.7266 36.0293 18.0576 37.1363C17.3886 38.2433 17.1916 39.5433 17.5006 40.7983C17.7976 42.0003 18.5366 43.0323 19.5846 43.7053L20.2636 44.1423L19.7546 44.7683C18.5866 46.2063 17.9696 47.8923 17.9696 49.6463C17.9696 52.1643 19.2386 54.5283 21.4506 56.1323L21.9126 56.4673L21.6946 56.9933C21.2266 58.1213 20.9896 59.3243 20.9896 60.5703C20.9896 62.6333 21.6416 64.5933 22.8256 66.0873L23.3116 66.7013L22.6616 67.1363C20.2386 68.7583 18.7926 71.4614 18.7926 74.3694C18.7926 77.8154 20.8346 80.9413 23.9966 82.3313L24.4876 82.5473L24.4226 83.0793C24.3946 83.3123 24.3746 83.5493 24.3746 83.7893C24.3746 86.9893 26.9776 89.5934 30.1786 89.5934C32.3196 89.5934 34.2796 88.4193 35.2936 86.5303L35.6896 85.7923L36.3616 86.2923C37.3726 87.0453 38.5676 87.4424 39.8176 87.4424C40.8666 87.4424 41.9016 87.1523 42.8096 86.6033L43.3186 86.2973Z" fill="black"/>
<path d="M143.496 65.456C145.919 65.456 148.179 66.128 150.123 67.279C151.233 65.96 152.855 65.092 154.684 64.971C155.362 61.957 158.049 59.703 161.268 59.703C161.407 59.703 161.542 59.715 161.679 59.724C161.766 58.651 162.021 57.639 162.404 56.717C160.099 55.045 158.624 52.5 158.624 49.646C158.624 48.022 159.106 46.5 159.942 45.18C158.244 43.718 157.406 41.381 157.98 39.057C158.792 35.765 162.119 33.755 165.411 34.567C167.016 34.963 168.312 35.959 169.129 37.255C170.237 34.912 172.875 33.593 175.488 34.238C178.471 34.974 180.292 37.989 179.556 40.972C179.201 42.409 178.315 43.572 177.161 44.314C178.38 45.815 179.107 47.654 179.107 49.647C179.107 52.501 177.633 55.046 175.328 56.718C175.81 57.88 176.088 59.185 176.088 60.571C176.088 62.885 175.328 64.982 174.096 66.537C176.622 68.227 178.286 71.104 178.286 74.37C178.286 78.225 175.967 81.535 172.651 82.993C172.683 83.255 172.705 83.52 172.705 83.791C172.705 87.395 169.783 90.317 166.179 90.317C163.69 90.317 161.528 88.923 160.428 86.874C159.341 87.683 157.999 88.167 156.54 88.167C155.307 88.167 154.158 87.819 153.175 87.225C150.787 89.872 147.341 91.547 143.496 91.547C136.292 91.547 130.452 85.707 130.452 78.503C130.452 71.296 136.292 65.456 143.496 65.456Z" fill="white"/>
<path d="M143.495 92.2672C135.904 92.2672 129.729 86.0922 129.729 78.5012C129.729 70.9102 135.904 64.7342 143.495 64.7342C145.751 64.7342 147.98 65.2982 149.978 66.3692C151.09 65.2542 152.55 64.5252 154.111 64.3052C155.03 61.2182 157.792 59.0822 161.035 58.9852C161.135 58.2952 161.302 57.6192 161.534 56.9632C159.218 55.0962 157.9 52.4582 157.9 49.6462C157.9 48.1452 158.287 46.6572 159.026 45.3102C157.372 43.6162 156.704 41.2072 157.277 38.8832C157.716 37.1042 158.821 35.6022 160.39 34.6542C161.958 33.7062 163.802 33.4262 165.582 33.8652C166.939 34.2002 168.141 34.9302 169.056 35.9602C170.531 33.9182 173.147 32.9132 175.66 33.5352C179.025 34.3652 181.087 37.7782 180.257 41.1422C179.934 42.4522 179.205 43.6072 178.176 44.4612C179.259 46.0202 179.829 47.7982 179.829 49.6452C179.829 52.4562 178.512 55.0942 176.196 56.9622C176.604 58.1122 176.81 59.3232 176.81 60.5702C176.81 62.6902 176.209 64.7222 175.104 66.3752C177.561 68.2932 179.007 71.2292 179.007 74.3692C179.007 78.2132 176.829 81.7142 173.415 83.4302C173.422 83.5532 173.425 83.6722 173.425 83.7892C173.425 87.7852 170.173 91.0372 166.177 91.0372C163.769 91.0372 161.544 89.8482 160.2 87.8882C158.135 89.1082 155.484 89.2072 153.316 88.1252C150.73 90.7642 147.183 92.2672 143.495 92.2672ZM143.495 66.1782C136.701 66.1782 131.173 71.7062 131.173 78.5002C131.173 85.2942 136.701 90.8222 143.495 90.8222C146.965 90.8222 150.298 89.3342 152.638 86.7402L153.037 86.2972L153.547 86.6052C154.456 87.1542 155.49 87.4442 156.539 87.4442C157.789 87.4442 158.984 87.0462 159.995 86.2942L160.667 85.7942L161.063 86.5312C162.078 88.4212 164.038 89.5942 166.178 89.5942C169.378 89.5942 171.982 86.9912 171.982 83.7902C171.982 83.5752 171.966 83.3432 171.934 83.0822L171.868 82.5492L172.36 82.3322C175.521 80.9422 177.563 77.8162 177.563 74.3702C177.563 71.4622 176.116 68.7582 173.694 67.1372L173.043 66.7022L173.53 66.0882C174.714 64.5942 175.366 62.6352 175.366 60.5712C175.366 59.3252 175.129 58.1212 174.661 56.9952L174.442 56.4682L174.904 56.1332C177.116 54.5282 178.385 52.1652 178.385 49.6472C178.385 47.8922 177.768 46.2062 176.6 44.7692L176.092 44.1432L176.77 43.7062C177.818 43.0332 178.558 42.0002 178.855 40.7992C179.494 38.2082 177.906 35.5792 175.315 34.9402C173.085 34.3932 170.76 35.4952 169.781 37.5652L169.219 38.7532L168.517 37.6412C167.764 36.4482 166.599 35.6052 165.237 35.2692C163.831 34.9222 162.376 35.1442 161.138 35.8922C159.899 36.6402 159.026 37.8262 158.68 39.2312C158.189 41.2212 158.853 43.2922 160.412 44.6342L160.885 45.0412L160.551 45.5682C159.762 46.8152 159.345 48.2262 159.345 49.6482C159.345 52.1662 160.614 54.5302 162.826 56.1342L163.287 56.4682L163.069 56.9952C162.701 57.8832 162.475 58.8212 162.398 59.7842L162.341 60.4912L161.525 60.4402C161.44 60.4342 161.354 60.4272 161.267 60.4272C158.429 60.4272 156.011 62.3612 155.388 65.1312L155.269 65.6572L154.73 65.6932C153.139 65.7982 151.699 66.5272 150.675 67.7452L150.281 68.2132L149.754 67.9012C147.851 66.7732 145.687 66.1782 143.495 66.1782Z" fill="black"/>
<path d="M66.7988 48.5991V75.4991H77.4588V83.8681H55.7397V48.5991H66.7988Z" fill="#000009"/>
<path d="M98.1356 84.217C88.1226 84.217 79.9536 76.695 79.9536 66.085C79.9536 55.474 88.1226 48.002 98.1356 48.002C108.199 48.002 116.219 55.474 116.219 66.085C116.219 76.695 108.099 84.217 98.1356 84.217ZM98.1356 73.906C102.569 73.906 105.01 70.768 105.01 66.085C105.01 61.303 102.569 58.214 98.1356 58.214C93.6026 58.214 91.2116 61.303 91.2116 66.085C91.2106 70.768 93.6016 73.906 98.1356 73.906Z" fill="#000009"/>
<path d="M131.266 48.5991V75.4991H141.927V83.8681H120.207V48.5991H131.266Z" fill="#000009"/>
<path d="M66.7988 44.2163V71.1163H77.4588V79.4853H55.7397V44.2163H66.7988Z" fill="#DA2444"/>
<path d="M78.1816 80.2081H55.0176V43.4941H67.5206V70.3951H78.1806L78.1816 80.2081ZM56.4626 78.7631H76.7376V71.8391H66.0776V44.9381H56.4636L56.4626 78.7631Z" fill="black"/>
<path d="M98.1356 79.8332C88.1226 79.8332 79.9536 72.3112 79.9536 61.7012C79.9536 51.0902 88.1226 43.6182 98.1356 43.6182C108.199 43.6182 116.219 51.0902 116.219 61.7012C116.219 72.3112 108.099 79.8332 98.1356 79.8332ZM98.1356 69.5222C102.569 69.5222 105.01 66.3842 105.01 61.7012C105.01 56.9192 102.569 53.8302 98.1356 53.8302C93.6026 53.8302 91.2116 56.9192 91.2116 61.7012C91.2106 66.3842 93.6016 69.5222 98.1356 69.5222Z" fill="#DA2444"/>
<path d="M98.1355 80.556C87.3575 80.556 79.2305 72.45 79.2305 61.701C79.2305 50.98 87.3575 42.895 98.1355 42.895C108.855 42.895 116.94 50.98 116.94 61.701C116.94 72.45 108.855 80.556 98.1355 80.556ZM98.1355 44.34C88.1815 44.34 80.6745 51.804 80.6745 61.701C80.6745 71.627 88.1805 79.111 98.1355 79.111C108.032 79.111 115.496 71.626 115.496 61.701C115.496 51.804 108.032 44.34 98.1355 44.34ZM98.1355 70.244C93.4185 70.244 90.4885 66.971 90.4885 61.701C90.4885 56.32 93.3475 53.108 98.1355 53.108C102.821 53.108 105.732 56.4 105.732 61.701C105.731 66.971 102.82 70.244 98.1355 70.244ZM98.1355 54.553C94.1935 54.553 91.9335 57.159 91.9335 61.702C91.9335 66.213 94.1945 68.801 98.1355 68.801C101.987 68.801 104.287 66.147 104.287 61.702C104.287 57.158 102.045 54.553 98.1355 54.553Z" fill="black"/>
<path d="M131.266 44.2163V71.1163H141.927V79.4853H120.207V44.2163H131.266Z" fill="#DA2444"/>
<path d="M142.648 80.2081H119.484V43.4941H131.988V70.3951H142.649V80.2081H142.648ZM120.928 78.7631H141.203V71.8391H130.542V44.9381H120.927L120.928 78.7631Z" fill="black"/>
<path d="M66.7988 38.9795V65.8805H77.4588V74.2495H55.7397V38.9795H66.7988Z" fill="#E9A527"/>
<path d="M78.1816 74.9713H55.0176V38.2573H67.5206V65.1583H78.1806L78.1816 74.9713ZM56.4626 73.5263H76.7376V66.6023H66.0776V39.7013H56.4636L56.4626 73.5263Z" fill="black"/>
<path d="M98.1356 74.5973C88.1226 74.5973 79.9536 67.0753 79.9536 56.4653C79.9536 45.8543 88.1226 38.3823 98.1356 38.3823C108.199 38.3823 116.219 45.8553 116.219 56.4653C116.219 67.0753 108.099 74.5973 98.1356 74.5973ZM98.1356 64.2853C102.569 64.2853 105.01 61.1473 105.01 56.4643C105.01 51.6823 102.569 48.5933 98.1356 48.5933C93.6026 48.5933 91.2116 51.6823 91.2116 56.4643C91.2106 61.1473 93.6016 64.2853 98.1356 64.2853Z" fill="#E9A527"/>
<path d="M98.1355 75.3192C87.3575 75.3192 79.2305 67.2132 79.2305 56.4642C79.2305 45.7432 87.3575 37.6582 98.1355 37.6582C108.855 37.6582 116.94 45.7432 116.94 56.4642C116.94 67.2142 108.855 75.3192 98.1355 75.3192ZM98.1355 39.1032C88.1815 39.1032 80.6745 46.5672 80.6745 56.4642C80.6745 66.3902 88.1805 73.8742 98.1355 73.8742C108.032 73.8742 115.496 66.3902 115.496 56.4642C115.496 46.5672 108.032 39.1032 98.1355 39.1032ZM98.1355 65.0082C93.4185 65.0082 90.4885 61.7352 90.4885 56.4652C90.4885 51.0842 93.3475 47.8712 98.1355 47.8712C102.821 47.8712 105.732 51.1642 105.732 56.4652C105.731 61.7342 102.82 65.0082 98.1355 65.0082ZM98.1355 49.3152C94.1935 49.3152 91.9335 51.9212 91.9335 56.4642C91.9335 60.9752 94.1945 63.5632 98.1355 63.5632C101.987 63.5632 104.287 60.9092 104.287 56.4642C104.287 51.9212 102.045 49.3152 98.1355 49.3152Z" fill="black"/>
<path d="M131.266 38.9795V65.8805H141.927V74.2495H120.207V38.9795H131.266Z" fill="#E9A527"/>
<path d="M142.648 74.9713H119.484V38.2573H131.988V65.1583H142.649V74.9713H142.648ZM120.928 73.5263H141.203V66.6023H130.542V39.7013H120.927L120.928 73.5263Z" fill="black"/>
</svg>
