<svg width="85" height="42" viewBox="0 0 85 42" fill="none" xmlns="http://www.w3.org/2000/svg">
<path d="M46.847 37.262C46.333 37.457 45.811 37.648 45.279 37.836C24.653 45.135 14.187 39.751 10.221 36.564C10.008 36.697 2.603 41.391 2.603 41.391L0 38.233L5.67799 32.228C7.09699 30.729 14.417 22.809 19.262 13.953C21.008 10.766 23.365 8.593 26.269 7.493C26.662 7.344 27.066 7.215 27.478 7.106C30.879 6.211 34.171 6.90099 36.503 7.73899C37.694 5.56499 39.704 2.867 42.846 1.286C43.225 1.095 43.611 0.924994 44.003 0.776994C46.905 -0.322006 50.109 -0.25501 53.525 0.97699C63.004 4.40299 73.723 5.481 75.775 5.663L84.09 6.396L84.235 10.486L76.028 11.801C75.765 11.843 75.502 11.887 75.239 11.932C73.404 17.149 67.039 29.615 46.847 37.262Z" fill="black"/>
<path d="M75.5398 8.74677C74.6348 8.89077 73.7338 9.04477 72.8268 9.21177C67.3928 10.1778 62.0238 11.3728 56.6988 12.8278C44.7448 16.0538 33.0858 20.5238 21.7568 26.3908C18.0138 28.3268 14.3058 30.4148 10.6368 32.6638C9.73181 33.2158 8.8318 33.7778 7.9248 34.3528C8.4288 33.8198 16.6198 25.2278 21.9748 15.4378C27.5168 5.32377 38.0618 11.8598 38.0618 11.8598C38.0618 11.8598 41.6328 -0.0222285 52.4748 3.88777C62.9618 7.67777 74.8098 8.68177 75.5398 8.74677Z" fill="#CE273E"/>
<path d="M83.909 8.44997L75.702 9.76497C74.805 9.90797 73.9121 10.061 73.0141 10.226C67.5431 11.199 62.1461 12.409 56.9711 13.823C44.9121 17.078 33.226 21.614 22.231 27.307C18.486 29.244 14.767 31.342 11.176 33.544C10.275 34.094 9.37904 34.653 8.47704 35.225L1.49805 39.65L7.17604 33.645C8.64504 32.093 16.103 24.024 21.07 14.943C22.776 11.828 25.105 9.86297 28.002 9.10097C31.876 8.08197 35.688 9.51797 37.507 10.395C38.289 8.53297 40.193 4.92997 43.772 3.12897C46.439 1.78397 49.489 1.71497 52.825 2.91697C62.549 6.43097 73.498 7.53198 75.594 7.71698L83.909 8.44997ZM39.818 17.205C45.255 15.146 50.802 13.351 56.431 11.833C60.428 10.742 64.5561 9.76897 68.7471 8.93297C64.1441 8.21097 57.928 6.95398 52.125 4.85698C49.342 3.85298 46.844 3.89498 44.7 4.96998C40.635 7.01598 39.066 12.104 39.051 12.155L38.665 13.439L37.521 12.735C37.476 12.707 32.901 9.93597 28.516 11.097C26.198 11.709 24.301 13.338 22.88 15.931C19.931 21.322 16.133 26.358 13.173 29.942C15.837 28.382 18.555 26.885 21.285 25.474C27.274 22.373 33.471 19.609 39.818 17.205Z" fill="black"/>
<path d="M72.8272 9.21289C72.5062 10.6359 68.3822 26.3869 44.2482 34.9199C18.9402 43.8759 10.6372 32.6649 10.6372 32.6649C14.3062 30.4159 18.0132 28.3279 21.7572 26.3919C21.7572 26.3919 33.4822 25.9099 40.1912 23.3909C47.8742 20.5029 54.9702 14.3759 56.6992 12.8279C62.0252 11.3739 67.3942 10.1789 72.8272 9.21289Z" fill="#CE273E"/>
<path d="M46.1162 35.3338C45.6162 35.5228 45.1102 35.7088 44.5922 35.8918C18.8612 44.9978 10.1662 33.7608 9.80818 33.2788L9.13818 32.3748L10.0982 31.7868C13.7322 29.5588 17.4952 27.4358 21.2832 25.4768L21.4862 25.3717L21.7152 25.3628C21.8302 25.3578 33.3542 24.8578 39.8292 22.4268C39.8522 22.4178 39.8772 22.4087 39.9002 22.3997C47.2352 19.6217 54.0832 13.7878 56.0122 12.0608L56.1932 11.8988L56.4272 11.8348C61.6632 10.4048 67.1212 9.18075 72.6472 8.19775L74.1762 7.92676L73.8342 9.44076C73.4372 11.1938 69.3442 26.5378 46.1162 35.3338ZM12.2772 32.8737C14.8602 35.1697 23.9222 41.0188 43.9052 33.9468C63.7792 26.9208 69.7882 14.8248 71.3452 10.5308C66.5312 11.4318 61.7822 12.5158 57.2042 13.7598C54.9862 15.7248 48.0792 21.5058 40.6302 24.3268C40.6042 24.3368 40.5802 24.3458 40.5552 24.3558C34.2112 26.7378 23.7632 27.3278 22.0312 27.4108C18.7352 29.1208 15.4612 30.9547 12.2772 32.8737Z" fill="black"/>
<path d="M72.8521 9.104C72.8521 9.104 72.8441 9.14 72.8271 9.213Z" fill="#CE273E"/>
<path d="M73.8322 9.44289L71.8232 8.98089L71.8463 8.87988L73.8582 9.32689L73.8322 9.44289Z" fill="black"/>
<path d="M57.0982 12.457C57.0982 12.457 56.9602 12.587 56.6982 12.829Z" fill="#CE273E"/>
<path d="M57.4001 13.5851L55.998 12.0721L56.3921 11.7051L57.8051 13.2071L57.4001 13.5851Z" fill="black"/>
</svg>
