<svg width="1080" height="1080" viewBox="0 0 1080 1080" fill="none" xmlns="http://www.w3.org/2000/svg">
<path d="M1078 2H2V1078H1078V2Z" fill="#FFB962"/>
<path d="M1076 4V1076H4V4H1076ZM1080 0H0V1080H1080V0Z" fill="black"/>
<path d="M924.939 803.624C924.939 803.624 733.922 403.858 718.788 227.134C714.466 176.659 653.923 309.022 653.923 309.022L382.908 312.41C382.908 312.41 345.854 225.995 344.058 197.773C341.081 151.015 162.709 620.689 159.321 803.625L924.939 803.624Z" fill="#B4FF74"/>
<path d="M929.807 806.697H156.193L156.25 803.572C158.2 698.416 217.199 509.326 242.476 432.91C268.485 354.278 327.139 191.791 342.42 191.446C343.794 191.359 346.763 191.953 347.126 197.576C348.725 222.673 379.535 296.533 384.933 309.309L651.944 305.974C663.389 281.117 697.771 209.86 714.068 212.688C720.732 213.843 721.572 223.647 721.848 226.871C736.76 401.016 925.802 798.31 927.709 802.299L929.807 806.697ZM162.467 800.555H920.084C899.258 756.36 729.884 392.68 715.728 227.394C715.146 220.58 713.575 218.838 713.017 218.738C712.897 218.717 712.771 218.708 712.639 218.708C703.966 218.708 677.063 265.81 656.717 310.299L655.907 312.069L380.897 315.503L380.087 313.619C378.59 310.131 344.049 229.307 341.119 199.517C329.341 214.87 289.972 308.134 246.547 440.171C195.148 596.457 164.611 727.43 162.467 800.555Z" fill="#191C26"/>
<path d="M671.224 449.937C676.465 461.233 653.197 483.158 619.252 498.907C585.307 514.656 553.541 518.267 548.3 506.971C543.059 495.675 566.328 473.751 600.273 458.001C634.217 442.252 665.983 438.642 671.224 449.937Z" fill="white"/>
<path d="M565.196 516.644C555.503 516.644 548.245 514.149 545.513 508.27C538.513 493.166 567.836 469.665 598.985 455.215C615.69 447.462 632.449 442.337 646.167 440.777C661.169 439.058 670.826 441.785 674.005 448.644C677.19 455.5 673.051 464.611 662.038 474.989C651.991 484.457 637.253 493.941 620.542 501.69C601.534 510.514 580.384 516.638 565.196 516.644ZM654.259 446.428C652.004 446.428 649.526 446.578 646.863 446.881C633.781 448.366 617.693 453.305 601.564 460.788C566.99 476.83 547.207 497.324 551.088 505.685C554.963 514.035 583.395 512.163 617.957 496.124C634.086 488.638 648.242 479.548 657.828 470.517C666.346 462.488 670.317 455.278 668.439 451.23H668.433C666.987 448.11 661.865 446.428 654.259 446.428Z" fill="#191C26"/>
<path d="M325.201 444.193C319.96 455.489 343.229 477.413 377.174 493.163C411.118 508.913 442.885 512.523 448.126 501.227C453.367 489.931 430.098 468.007 396.153 452.257C392.145 450.397 388.167 448.707 384.26 447.19C355.077 435.862 329.824 434.23 325.201 444.193Z" fill="white"/>
<path d="M431.232 510.892C416.044 510.892 394.894 504.768 375.88 495.944C344.734 481.497 315.411 457.996 322.414 442.901C328.664 429.432 358.542 433.91 385.372 444.326C389.367 445.88 393.431 447.61 397.447 449.473C414.155 457.226 428.89 466.709 438.94 476.18C449.956 486.557 454.095 495.668 450.913 502.524C448.184 508.402 440.922 510.892 431.232 510.892ZM327.987 445.486C324.109 453.842 343.888 474.332 378.466 490.377C413.046 506.41 441.463 508.3 445.341 499.932C447.219 495.889 443.254 488.679 434.73 480.647C425.148 471.617 410.989 462.523 394.862 455.043C390.966 453.234 387.025 451.555 383.147 450.052C353.171 438.414 331.172 438.627 327.987 445.486Z" fill="#191C26"/>
<path d="M393.834 479.522L384.262 447.19L410.58 459.664L399.531 480.115C398.217 482.547 394.618 482.172 393.834 479.522Z" fill="#191C26"/>
<path d="M600.271 458.001C602.09 458.613 609.187 468.579 613.974 475.543C615.581 477.88 619.213 476.991 619.586 474.18L622.915 449.143L600.271 458.001Z" fill="#191C26"/>
<path d="M374.678 416.275H320.204C318.506 416.275 317.133 414.901 317.133 413.204C317.133 411.507 318.507 410.133 320.204 410.133H374.678C376.375 410.133 377.749 411.507 377.749 413.204C377.749 414.901 376.376 416.275 374.678 416.275Z" fill="#191C26"/>
<path d="M690.759 420.92H636.288C634.59 420.92 633.217 419.546 633.217 417.849C633.217 416.151 634.591 414.778 636.288 414.778H690.759C692.457 414.778 693.83 416.152 693.83 417.849C693.83 419.547 692.456 420.92 690.759 420.92Z" fill="#191C26"/>
<path d="M683.955 314.438C683.955 314.438 690.709 297.092 694.539 287.558C695.293 285.681 697.975 285.831 698.565 287.766L706.699 314.438" fill="#B4FF74"/>
<path d="M706.702 317.51C705.382 317.51 704.171 316.658 703.763 315.336L696.397 291.178C692.51 300.937 686.818 315.552 686.818 315.555L681.096 313.324C681.096 313.324 687.856 295.959 691.689 286.416C692.517 284.344 694.442 282.988 696.722 283.165C698.965 283.258 700.843 284.713 701.509 286.869L709.643 313.543C710.135 315.166 709.223 316.881 707.598 317.376C707.302 317.468 706.996 317.51 706.702 317.51Z" fill="#191C26"/>
<path d="M341.378 316.267C341.378 316.267 336.022 285.916 331.558 284.577C327.095 283.238 316.382 316.267 316.382 316.267" fill="#B4FF74"/>
<path d="M316.383 319.339C316.068 319.339 315.75 319.291 315.435 319.189C313.821 318.667 312.937 316.934 313.461 315.32C325.104 279.42 330.071 280.92 332.441 281.634C333.995 282.102 338.717 283.521 344.401 315.734C344.698 317.405 343.582 318.997 341.912 319.291C340.248 319.603 338.647 318.472 338.356 316.802C336.401 305.741 333.244 292.998 331.064 288.622C328.194 292.812 323.005 305.81 319.304 317.216C318.884 318.514 317.679 319.339 316.383 319.339Z" fill="#191C26"/>
<path d="M683.955 643.567C683.955 643.567 697.416 623.94 709.945 630.923C732.631 643.567 716.455 803.624 716.455 803.624" fill="#B4FF74"/>
<path d="M716.461 806.697C716.353 806.697 716.251 806.691 716.149 806.679C714.457 806.511 713.228 805.006 713.402 803.32C719.574 742.209 723.689 642.098 708.453 633.604C698.502 628.092 686.607 645.133 686.487 645.307C685.527 646.705 683.62 647.058 682.216 646.099C680.818 645.139 680.464 643.226 681.424 641.828C682.03 640.934 696.636 619.97 711.44 628.242C735.205 641.486 721.187 787.347 719.508 803.932C719.352 805.516 718.015 806.697 716.461 806.697Z" fill="#191C26"/>
<path d="M683.955 643.567C683.955 643.567 698.902 565.094 678.251 564.062C657.6 563.029 648.307 634.275 648.307 634.275" fill="#B4FF74"/>
<path d="M683.962 646.639C683.77 646.639 683.578 646.621 683.38 646.585C681.712 646.267 680.621 644.659 680.939 642.992C684.124 626.263 690.452 580.376 681.611 569.129C680.591 567.833 679.476 567.198 678.096 567.126C678 567.126 677.898 567.12 677.802 567.12C664.966 567.12 654.781 608.418 651.356 634.673C651.134 636.353 649.538 637.534 647.913 637.324C646.228 637.102 645.046 635.561 645.262 633.881C646.864 621.626 655.891 560.978 677.809 560.978C678.007 560.978 678.205 560.984 678.409 560.996C681.552 561.152 684.329 562.652 686.441 565.333C698.606 580.803 688.199 637.708 686.975 644.145C686.692 645.613 685.408 646.639 683.962 646.639Z" fill="#191C26"/>
<path d="M609.762 803.624C609.762 803.624 609.677 664.771 622.916 634.274C631.096 615.43 643.144 619.818 648.307 634.274" fill="#B4FF74"/>
<path d="M609.764 806.697C608.066 806.697 606.693 805.323 606.693 803.626C606.687 797.934 606.765 663.782 620.099 633.053C625.653 620.265 632.539 618.423 636.186 618.669C642.4 618.873 648.015 624.325 651.2 633.245C651.77 634.84 650.942 636.598 649.341 637.168C647.746 637.738 645.994 636.91 645.418 635.309C643.181 629.047 639.48 624.926 635.983 624.806C632.3 624.608 628.737 628.591 625.738 635.501C612.902 665.067 612.836 802.242 612.836 803.627C612.835 805.318 611.461 806.697 609.764 806.697Z" fill="#191C26"/>
<path d="M465.169 537.348C465.169 537.348 480.334 562.922 492.216 561.301C504.098 559.681 523.498 536.808 519.177 534.107C514.856 531.407 457.969 530.451 465.169 537.348Z" fill="#191C26"/>
<path d="M384.41 549.995C383.735 549.995 383.057 549.773 382.491 549.317C369.061 538.526 344.918 521.293 337.636 521.755C330.069 522.013 315.277 529.085 305.488 533.764C301.52 535.659 298.383 537.159 296.347 537.933C287.164 541.418 250.628 523.225 243.229 509.249C238.94 501.127 208.271 507.096 196.727 509.345C190.129 510.635 187.754 511.066 186.311 510.845C184.635 510.599 183.477 509.034 183.726 507.36C183.969 505.704 185.483 504.499 187.124 504.763C188.156 504.853 192.046 504.001 195.552 503.317C218.132 498.908 242.723 495.165 248.658 506.376C255.259 518.846 288.784 534.184 294.17 532.187C296.035 531.479 299.119 530.004 302.841 528.222C313.704 523.034 328.58 515.92 337.427 515.614C337.52 515.614 337.616 515.614 337.709 515.614C350 515.614 382.63 541.551 386.34 544.532C387.66 545.594 387.869 547.525 386.808 548.851C386.2 549.605 385.309 549.995 384.41 549.995Z" fill="#191C26"/>
<path d="M390.477 578.78C390.096 578.78 389.712 578.708 389.34 578.564C387.757 577.928 350.567 563.094 347.235 561.583C344.563 560.515 329.132 561.607 326.955 565.536C323.32 572.11 297.156 576.963 286.077 578.744C284.409 578.972 282.826 577.868 282.556 576.195C282.286 574.522 283.426 572.944 285.099 572.674C301.108 570.101 319.595 565.41 321.599 562.537C325.894 554.763 345.499 554.049 349.773 555.993C352.337 557.157 378.265 567.534 391.614 572.854C393.192 573.484 393.959 575.271 393.33 576.849C392.849 578.049 391.695 578.78 390.477 578.78Z" fill="#191C26"/>
<path d="M604.557 549.995C603.291 549.995 602.11 549.209 601.666 547.956C601.096 546.354 601.93 544.597 603.525 544.033C614.262 540.212 667.647 521.401 677.004 521.401C677.124 521.401 677.238 521.407 677.352 521.413C680.267 521.593 684.634 523.542 692.102 526.973C701.651 531.364 716.059 537.992 721.956 535.731C722.898 535.365 723.498 534.789 723.893 533.859C728.596 522.786 741.636 505.817 753.872 502.764C758.611 501.582 763.055 502.494 766.678 505.421C772.28 509.944 777.751 509.998 781.356 509.242C787.312 507.994 791.751 504.012 793.509 500.616C796.79 494.27 817.22 476.299 841.915 470.295C860.504 465.772 877.395 468.786 892.133 479.233C893.519 480.214 893.842 482.133 892.865 483.516C891.875 484.908 889.968 485.226 888.582 484.248C875.35 474.873 860.15 472.188 843.367 476.264C819.422 482.085 800.953 499.597 798.968 503.436C796.005 509.152 789.587 513.795 782.617 515.253C777.704 516.285 770.29 516.243 762.817 510.196C760.7 508.486 758.252 508.001 755.361 508.726C745.578 511.167 733.731 526.409 729.544 536.258C728.506 538.705 726.647 540.505 724.17 541.459C715.88 544.692 701.886 538.232 689.536 532.551C684.545 530.26 678.889 527.662 676.976 527.542C676.91 527.536 676.838 527.536 676.766 527.536C670.57 527.536 630.015 541.134 605.59 549.814C605.247 549.94 604.899 549.995 604.557 549.995Z" fill="#191C26"/>
<path d="M628.327 578.804C621.255 578.804 593.201 575.103 587.359 574.317C585.679 574.095 584.498 572.547 584.726 570.868C584.948 569.182 586.52 567.935 588.175 568.235C602.223 570.112 625.652 572.974 628.711 572.656C630.445 572.452 631.908 573.694 632.088 575.385C632.268 577.07 631.044 578.582 629.359 578.762C629.095 578.792 628.747 578.804 628.327 578.804Z" fill="#191C26"/>
<path d="M432.714 566.428C430.498 566.708 428.94 568.726 429.27 570.935C430.638 580.08 435.204 600.1 442.581 596.695C449.221 593.631 450.926 577.093 451.365 568.799C451.496 566.314 449.361 564.322 446.892 564.635L432.714 566.428Z" fill="white"/>
<path d="M440.925 600.158C439.815 600.158 438.715 599.87 437.659 599.3C430.344 595.353 427.063 576.938 426.229 571.39C425.947 569.507 426.427 567.629 427.576 566.118C428.737 564.588 430.425 563.623 432.333 563.383L446.504 561.59C448.606 561.344 450.655 561.992 452.19 563.419C453.726 564.847 454.541 566.868 454.43 568.962C453.509 586.405 449.955 596.674 443.867 599.487C442.896 599.936 441.906 600.158 440.925 600.158ZM447.401 567.677C447.362 567.677 447.32 567.677 447.275 567.683L433.095 569.477C432.753 569.519 432.555 569.717 432.471 569.831C432.369 569.963 432.261 570.179 432.306 570.479C434.036 582.044 437.671 592.331 440.578 593.896C440.83 594.028 440.971 594.058 441.295 593.908C444.825 592.282 447.572 582.361 448.295 568.637C448.316 568.259 448.124 568.025 448.01 567.917C447.884 567.803 447.686 567.677 447.401 567.677Z" fill="#191C26"/>
<path d="M553.583 566.428C555.798 566.708 557.357 568.726 557.027 570.935C555.659 580.08 551.093 600.1 543.716 596.695C537.077 593.631 535.371 577.093 534.933 568.799C534.802 566.314 536.937 564.322 539.406 564.635L553.583 566.428Z" fill="white"/>
<path d="M545.371 600.158C544.39 600.158 543.401 599.936 542.429 599.486C536.341 596.673 532.787 586.404 531.866 568.961C531.755 566.867 532.571 564.846 534.106 563.418C535.639 561.99 537.711 561.337 539.789 561.589L553.96 563.382C555.867 563.622 557.559 564.588 558.717 566.117C559.869 567.628 560.343 569.506 560.061 571.389C559.233 576.937 555.958 595.346 548.64 599.299C547.584 599.87 546.48 600.158 545.371 600.158ZM538.896 567.677C538.611 567.677 538.413 567.803 538.29 567.917C538.173 568.025 537.981 568.259 538.002 568.637C538.725 582.361 541.475 592.276 545.002 593.908C545.323 594.058 545.458 594.034 545.719 593.896C548.628 592.324 552.257 582.043 553.991 570.479C554.033 570.179 553.925 569.963 553.823 569.831C553.739 569.717 553.541 569.519 553.205 569.477H553.199L539.019 567.683C538.977 567.677 538.935 567.677 538.896 567.677Z" fill="#191C26"/>
<path d="M733.291 629.421C714.755 605.076 697.18 630.528 698.537 621.733C704.485 583.203 687.576 566.295 687.576 566.295C692.218 589.426 683.954 643.567 683.954 643.567C683.954 643.567 701.343 610.848 714.227 637.309C727.112 663.771 702.998 803.625 702.998 803.625H741.786C741.786 803.625 751.826 653.766 733.291 629.421Z" fill="#191C26"/>
<path d="M1077 790.049H3V1077H1077V790.049Z" fill="white"/>
<path d="M1074 793.049V1074H6V793.049H1074ZM1080 787.049H0V1080H1080V787.049Z" fill="#222221"/>
<path d="M75.9375 974.075L69.293 912.2H81.3867L84.7969 951.259L88.2773 912.2H99.8086L103.113 951.259L106.418 912.2H118.652L111.902 974.075H97.0664L93.9727 944.298L91.0195 974.075H75.9375ZM122.133 974.075V912.2H135.07V926.579C135.75 924.61 136.793 923.157 138.199 922.22C139.605 921.259 141.246 920.778 143.121 920.778C146.777 920.778 149.438 921.927 151.102 924.224C152.766 926.521 153.598 929.603 153.598 933.47V974.075H140.871V934.278C140.871 933.13 140.625 932.192 140.133 931.466C139.664 930.739 138.914 930.376 137.883 930.376C137.016 930.376 136.324 930.751 135.809 931.501C135.316 932.251 135.07 933.142 135.07 934.173V974.075H122.133ZM173.32 974.638C169.57 974.638 166.582 973.935 164.355 972.528C162.129 971.122 160.535 969.095 159.574 966.446C158.613 963.798 158.133 960.61 158.133 956.884V935.685C158.133 930.786 159.539 927.083 162.352 924.575C165.164 922.044 169.031 920.778 173.953 920.778C184.078 920.778 189.141 925.747 189.141 935.685V939.517C189.141 944.157 189.094 947.274 189 948.868H170.719V959.063C170.719 960.001 170.777 960.927 170.895 961.841C171.012 962.731 171.27 963.47 171.668 964.056C172.09 964.642 172.758 964.935 173.672 964.935C174.984 964.935 175.805 964.372 176.133 963.247C176.461 962.099 176.625 960.61 176.625 958.782V953.72H189.141V956.708C189.141 960.646 188.648 963.95 187.664 966.622C186.703 969.271 185.062 971.274 182.742 972.634C180.445 973.97 177.305 974.638 173.32 974.638ZM170.648 942.61H176.625V935.509C176.625 933.61 176.391 932.251 175.922 931.431C175.453 930.587 174.75 930.165 173.812 930.165C172.805 930.165 172.02 930.563 171.457 931.36C170.918 932.157 170.648 933.54 170.648 935.509V942.61ZM193.711 974.075V921.341H206.297V928.056C206.766 926.04 207.633 924.329 208.898 922.923C210.188 921.493 211.969 920.778 214.242 920.778C217.898 920.778 220.547 921.903 222.188 924.153C223.852 926.403 224.684 929.485 224.684 933.399V974.075H212.273V934.7C212.273 933.669 212.062 932.72 211.641 931.853C211.219 930.962 210.492 930.517 209.461 930.517C208.5 930.517 207.785 930.856 207.316 931.536C206.871 932.192 206.59 933.024 206.473 934.032C206.355 935.017 206.297 936.001 206.297 936.985V974.075H193.711ZM257.344 974.638C253.945 974.638 251.648 973.923 250.453 972.493C249.281 971.04 248.695 968.825 248.695 965.849V932.978H245.145V923.38H248.695V912.2H260.93V923.38H264.48V932.978H260.93V962.896C260.93 963.763 261.07 964.372 261.352 964.724C261.633 965.075 262.172 965.251 262.969 965.251C263.531 965.251 264.035 965.204 264.48 965.11V973.688C264.199 973.782 263.32 973.958 261.844 974.216C260.367 974.497 258.867 974.638 257.344 974.638ZM268.523 974.075V912.2H281.461V926.579C282.141 924.61 283.184 923.157 284.59 922.22C285.996 921.259 287.637 920.778 289.512 920.778C293.168 920.778 295.828 921.927 297.492 924.224C299.156 926.521 299.988 929.603 299.988 933.47V974.075H287.262V934.278C287.262 933.13 287.016 932.192 286.523 931.466C286.055 930.739 285.305 930.376 284.273 930.376C283.406 930.376 282.715 930.751 282.199 931.501C281.707 932.251 281.461 933.142 281.461 934.173V974.075H268.523ZM319.711 974.638C315.961 974.638 312.973 973.935 310.746 972.528C308.52 971.122 306.926 969.095 305.965 966.446C305.004 963.798 304.523 960.61 304.523 956.884V935.685C304.523 930.786 305.93 927.083 308.742 924.575C311.555 922.044 315.422 920.778 320.344 920.778C330.469 920.778 335.531 925.747 335.531 935.685V939.517C335.531 944.157 335.484 947.274 335.391 948.868H317.109V959.063C317.109 960.001 317.168 960.927 317.285 961.841C317.402 962.731 317.66 963.47 318.059 964.056C318.48 964.642 319.148 964.935 320.062 964.935C321.375 964.935 322.195 964.372 322.523 963.247C322.852 962.099 323.016 960.61 323.016 958.782V953.72H335.531V956.708C335.531 960.646 335.039 963.95 334.055 966.622C333.094 969.271 331.453 971.274 329.133 972.634C326.836 973.97 323.695 974.638 319.711 974.638ZM317.039 942.61H323.016V935.509C323.016 933.61 322.781 932.251 322.312 931.431C321.844 930.587 321.141 930.165 320.203 930.165C319.195 930.165 318.41 930.563 317.848 931.36C317.309 932.157 317.039 933.54 317.039 935.509V942.61ZM339.082 982.864V974.884H345.129C346.043 974.884 346.5 974.567 346.5 973.935C346.5 973.606 346.465 973.267 346.395 972.915L338.133 921.341H350.191L353.707 960.153L357.855 921.341H369.984L360.211 976.817C359.859 978.81 359.18 980.31 358.172 981.317C357.188 982.349 355.559 982.864 353.285 982.864H339.082ZM399.762 974.638C396.832 974.638 394.594 973.958 393.047 972.599C391.523 971.239 390.48 969.376 389.918 967.009C389.355 964.642 389.074 961.958 389.074 958.958C389.074 955.747 389.391 953.122 390.023 951.083C390.656 949.021 391.734 947.333 393.258 946.021C394.805 944.708 396.926 943.595 399.621 942.681L407.426 940.009V934.595C407.426 931.759 406.5 930.341 404.648 930.341C402.961 930.341 402.117 931.489 402.117 933.786V936.95H389.883C389.859 936.763 389.848 936.528 389.848 936.247C389.848 935.942 389.848 935.603 389.848 935.228C389.848 929.978 391.078 926.263 393.539 924.083C396.023 921.88 399.949 920.778 405.316 920.778C408.129 920.778 410.648 921.282 412.875 922.29C415.102 923.274 416.859 924.739 418.148 926.685C419.461 928.63 420.117 931.032 420.117 933.892V974.075H407.602V967.817C406.992 970.021 405.984 971.708 404.578 972.88C403.172 974.052 401.566 974.638 399.762 974.638ZM404.719 964.864C405.75 964.864 406.453 964.431 406.828 963.563C407.203 962.696 407.391 961.759 407.391 960.751V946.056C405.656 946.759 404.309 947.649 403.348 948.728C402.387 949.782 401.906 951.341 401.906 953.403V960.188C401.906 963.306 402.844 964.864 404.719 964.864ZM439.418 974.638C429.012 974.638 423.809 969.364 423.809 958.817V954.634H436.465V960.821C436.465 962.017 436.699 962.954 437.168 963.634C437.637 964.313 438.387 964.653 439.418 964.653C441.246 964.653 442.16 963.282 442.16 960.54C442.16 958.243 441.68 956.532 440.719 955.407C439.758 954.259 438.586 953.157 437.203 952.103L430.488 946.935C428.379 945.294 426.773 943.56 425.672 941.731C424.57 939.903 424.02 937.36 424.02 934.103C424.02 931.079 424.734 928.583 426.164 926.614C427.617 924.646 429.527 923.181 431.895 922.22C434.285 921.259 436.863 920.778 439.629 920.778C449.848 920.778 454.957 925.876 454.957 936.071V937.056H441.949V935.052C441.949 933.997 441.762 932.978 441.387 931.993C441.035 931.009 440.332 930.517 439.277 930.517C437.496 930.517 436.605 931.454 436.605 933.329C436.605 935.228 437.355 936.716 438.855 937.794L446.66 943.489C449.098 945.247 451.137 947.333 452.777 949.747C454.441 952.161 455.273 955.372 455.273 959.38C455.273 964.349 453.855 968.134 451.02 970.735C448.207 973.337 444.34 974.638 439.418 974.638ZM459.141 974.075V912.2H471.586V939.517L477.633 921.341H490.676L482.766 944.263L492.82 974.075H479.426L471.586 949.22V974.075H459.141ZM511.383 974.075V921.341H523.688V927.458C524.25 925.302 525.211 923.649 526.57 922.501C527.93 921.353 529.922 920.778 532.547 920.778C534.656 920.778 536.449 921.271 537.926 922.255C539.426 923.216 540.48 924.493 541.09 926.087C542.051 924.353 543.176 923.04 544.465 922.149C545.777 921.235 547.641 920.778 550.055 920.778C552.984 920.778 555.234 921.411 556.805 922.677C558.398 923.919 559.5 925.653 560.109 927.88C560.742 930.083 561.059 932.638 561.059 935.544V974.075H548.508V935.333C548.508 931.935 547.641 930.235 545.906 930.235C544.992 930.235 544.289 930.552 543.797 931.185C543.305 931.794 542.965 932.556 542.777 933.47C542.59 934.384 542.496 935.298 542.496 936.212V974.075H529.945V935.333C529.945 934.231 529.805 933.13 529.523 932.028C529.266 930.927 528.586 930.376 527.484 930.376C526.547 930.376 525.82 930.716 525.305 931.396C524.789 932.075 524.438 932.919 524.25 933.927C524.062 934.911 523.969 935.884 523.969 936.845V974.075H511.383ZM580.781 974.638C577.031 974.638 574.043 973.935 571.816 972.528C569.59 971.122 567.996 969.095 567.035 966.446C566.074 963.798 565.594 960.61 565.594 956.884V935.685C565.594 930.786 567 927.083 569.812 924.575C572.625 922.044 576.492 920.778 581.414 920.778C591.539 920.778 596.602 925.747 596.602 935.685V939.517C596.602 944.157 596.555 947.274 596.461 948.868H578.18V959.063C578.18 960.001 578.238 960.927 578.355 961.841C578.473 962.731 578.73 963.47 579.129 964.056C579.551 964.642 580.219 964.935 581.133 964.935C582.445 964.935 583.266 964.372 583.594 963.247C583.922 962.099 584.086 960.61 584.086 958.782V953.72H596.602V956.708C596.602 960.646 596.109 963.95 595.125 966.622C594.164 969.271 592.523 971.274 590.203 972.634C587.906 973.97 584.766 974.638 580.781 974.638ZM578.109 942.61H584.086V935.509C584.086 933.61 583.852 932.251 583.383 931.431C582.914 930.587 582.211 930.165 581.273 930.165C580.266 930.165 579.48 930.563 578.918 931.36C578.379 932.157 578.109 933.54 578.109 935.509V942.61ZM628.875 974.638C625.477 974.638 623.18 973.923 621.984 972.493C620.812 971.04 620.227 968.825 620.227 965.849V932.978H616.676V923.38H620.227V912.2H632.461V923.38H636.012V932.978H632.461V962.896C632.461 963.763 632.602 964.372 632.883 964.724C633.164 965.075 633.703 965.251 634.5 965.251C635.062 965.251 635.566 965.204 636.012 965.11V973.688C635.73 973.782 634.852 973.958 633.375 974.216C631.898 974.497 630.398 974.638 628.875 974.638ZM655.383 974.638C644.883 974.638 639.633 969.188 639.633 958.29V937.126C639.633 932.157 641.027 928.196 643.816 925.243C646.605 922.267 650.461 920.778 655.383 920.778C660.328 920.778 664.195 922.267 666.984 925.243C669.773 928.196 671.168 932.157 671.168 937.126V958.29C671.168 969.188 665.906 974.638 655.383 974.638ZM655.383 964.935C656.438 964.935 657.188 964.56 657.633 963.81C658.102 963.036 658.336 962.063 658.336 960.892V935.122C658.336 932.052 657.352 930.517 655.383 930.517C653.414 930.517 652.43 932.052 652.43 935.122V960.892C652.43 962.063 652.652 963.036 653.098 963.81C653.566 964.56 654.328 964.935 655.383 964.935ZM707.168 974.638C696.762 974.638 691.559 969.364 691.559 958.817V954.634H704.215V960.821C704.215 962.017 704.449 962.954 704.918 963.634C705.387 964.313 706.137 964.653 707.168 964.653C708.996 964.653 709.91 963.282 709.91 960.54C709.91 958.243 709.43 956.532 708.469 955.407C707.508 954.259 706.336 953.157 704.953 952.103L698.238 946.935C696.129 945.294 694.523 943.56 693.422 941.731C692.32 939.903 691.77 937.36 691.77 934.103C691.77 931.079 692.484 928.583 693.914 926.614C695.367 924.646 697.277 923.181 699.645 922.22C702.035 921.259 704.613 920.778 707.379 920.778C717.598 920.778 722.707 925.876 722.707 936.071V937.056H709.699V935.052C709.699 933.997 709.512 932.978 709.137 931.993C708.785 931.009 708.082 930.517 707.027 930.517C705.246 930.517 704.355 931.454 704.355 933.329C704.355 935.228 705.105 936.716 706.605 937.794L714.41 943.489C716.848 945.247 718.887 947.333 720.527 949.747C722.191 952.161 723.023 955.372 723.023 959.38C723.023 964.349 721.605 968.134 718.77 970.735C715.957 973.337 712.09 974.638 707.168 974.638ZM726.891 974.075V921.341H739.195V927.458C739.758 925.302 740.719 923.649 742.078 922.501C743.438 921.353 745.43 920.778 748.055 920.778C750.164 920.778 751.957 921.271 753.434 922.255C754.934 923.216 755.988 924.493 756.598 926.087C757.559 924.353 758.684 923.04 759.973 922.149C761.285 921.235 763.148 920.778 765.562 920.778C768.492 920.778 770.742 921.411 772.312 922.677C773.906 923.919 775.008 925.653 775.617 927.88C776.25 930.083 776.566 932.638 776.566 935.544V974.075H764.016V935.333C764.016 931.935 763.148 930.235 761.414 930.235C760.5 930.235 759.797 930.552 759.305 931.185C758.812 931.794 758.473 932.556 758.285 933.47C758.098 934.384 758.004 935.298 758.004 936.212V974.075H745.453V935.333C745.453 934.231 745.312 933.13 745.031 932.028C744.773 930.927 744.094 930.376 742.992 930.376C742.055 930.376 741.328 930.716 740.812 931.396C740.297 932.075 739.945 932.919 739.758 933.927C739.57 934.911 739.477 935.884 739.477 936.845V974.075H726.891ZM781.453 918.106V907.63H794.039V918.106H781.453ZM781.453 974.075V921.341H794.039V974.075H781.453ZM799.031 974.075V912.2H811.828V974.075H799.031ZM831.656 974.638C827.906 974.638 824.918 973.935 822.691 972.528C820.465 971.122 818.871 969.095 817.91 966.446C816.949 963.798 816.469 960.61 816.469 956.884V935.685C816.469 930.786 817.875 927.083 820.688 924.575C823.5 922.044 827.367 920.778 832.289 920.778C842.414 920.778 847.477 925.747 847.477 935.685V939.517C847.477 944.157 847.43 947.274 847.336 948.868H829.055V959.063C829.055 960.001 829.113 960.927 829.23 961.841C829.348 962.731 829.605 963.47 830.004 964.056C830.426 964.642 831.094 964.935 832.008 964.935C833.32 964.935 834.141 964.372 834.469 963.247C834.797 962.099 834.961 960.61 834.961 958.782V953.72H847.477V956.708C847.477 960.646 846.984 963.95 846 966.622C845.039 969.271 843.398 971.274 841.078 972.634C838.781 973.97 835.641 974.638 831.656 974.638ZM828.984 942.61H834.961V935.509C834.961 933.61 834.727 932.251 834.258 931.431C833.789 930.587 833.086 930.165 832.148 930.165C831.141 930.165 830.355 930.563 829.793 931.36C829.254 932.157 828.984 933.54 828.984 935.509V942.61ZM868.922 974.075V921.341H881.227V927.458C881.789 925.302 882.75 923.649 884.109 922.501C885.469 921.353 887.461 920.778 890.086 920.778C892.195 920.778 893.988 921.271 895.465 922.255C896.965 923.216 898.02 924.493 898.629 926.087C899.59 924.353 900.715 923.04 902.004 922.149C903.316 921.235 905.18 920.778 907.594 920.778C910.523 920.778 912.773 921.411 914.344 922.677C915.938 923.919 917.039 925.653 917.648 927.88C918.281 930.083 918.598 932.638 918.598 935.544V974.075H906.047V935.333C906.047 931.935 905.18 930.235 903.445 930.235C902.531 930.235 901.828 930.552 901.336 931.185C900.844 931.794 900.504 932.556 900.316 933.47C900.129 934.384 900.035 935.298 900.035 936.212V974.075H887.484V935.333C887.484 934.231 887.344 933.13 887.062 932.028C886.805 930.927 886.125 930.376 885.023 930.376C884.086 930.376 883.359 930.716 882.844 931.396C882.328 932.075 881.977 932.919 881.789 933.927C881.602 934.911 881.508 935.884 881.508 936.845V974.075H868.922ZM938.883 974.638C928.383 974.638 923.133 969.188 923.133 958.29V937.126C923.133 932.157 924.527 928.196 927.316 925.243C930.105 922.267 933.961 920.778 938.883 920.778C943.828 920.778 947.695 922.267 950.484 925.243C953.273 928.196 954.668 932.157 954.668 937.126V958.29C954.668 969.188 949.406 974.638 938.883 974.638ZM938.883 964.935C939.938 964.935 940.688 964.56 941.133 963.81C941.602 963.036 941.836 962.063 941.836 960.892V935.122C941.836 932.052 940.852 930.517 938.883 930.517C936.914 930.517 935.93 932.052 935.93 935.122V960.892C935.93 962.063 936.152 963.036 936.598 963.81C937.066 964.56 937.828 964.935 938.883 964.935ZM959.344 974.075V921.341H972.141V927.212C972.75 925.173 973.828 923.579 975.375 922.431C976.922 921.282 978.867 920.708 981.211 920.708V931.22C980.18 931.22 978.949 931.337 977.52 931.571C976.09 931.782 974.836 932.087 973.758 932.485C972.68 932.86 972.141 933.282 972.141 933.751V974.075H959.344ZM999.07 974.638C995.32 974.638 992.332 973.935 990.105 972.528C987.879 971.122 986.285 969.095 985.324 966.446C984.363 963.798 983.883 960.61 983.883 956.884V935.685C983.883 930.786 985.289 927.083 988.102 924.575C990.914 922.044 994.781 920.778 999.703 920.778C1009.83 920.778 1014.89 925.747 1014.89 935.685V939.517C1014.89 944.157 1014.84 947.274 1014.75 948.868H996.469V959.063C996.469 960.001 996.527 960.927 996.645 961.841C996.762 962.731 997.02 963.47 997.418 964.056C997.84 964.642 998.508 964.935 999.422 964.935C1000.73 964.935 1001.55 964.372 1001.88 963.247C1002.21 962.099 1002.38 960.61 1002.38 958.782V953.72H1014.89V956.708C1014.89 960.646 1014.4 963.95 1013.41 966.622C1012.45 969.271 1010.81 971.274 1008.49 972.634C1006.2 973.97 1003.05 974.638 999.07 974.638ZM996.398 942.61H1002.38V935.509C1002.38 933.61 1002.14 932.251 1001.67 931.431C1001.2 930.587 1000.5 930.165 999.562 930.165C998.555 930.165 997.77 930.563 997.207 931.36C996.668 932.157 996.398 933.54 996.398 935.509V942.61Z" fill="black"/>
</svg>
