<svg width="153" height="142" viewBox="0 0 153 142" fill="none" xmlns="http://www.w3.org/2000/svg">
<path d="M61.7482 141.613C55.3962 141.89 48.7092 141.469 41.8722 140.359C27.3962 138.01 16.3812 130.93 9.1352 119.316C1.2582 106.69 -1.54483 89.1942 0.804175 67.3172C2.55917 50.9762 6.66518 38.2092 6.70518 38.0882C13.7042 17.0592 37.3212 1.02316 49.8262 0.477163C51.4422 0.406163 52.9982 0.555164 54.4512 0.920164C58.1662 1.85716 61.2152 4.12316 63.2732 7.47616C65.5442 11.1742 66.4102 16.2112 65.9222 23.1112C65.9222 23.1112 71.9322 22.6762 71.9732 22.6742C72.7562 22.6402 73.5292 22.8252 74.2082 23.1942L75.4872 23.2832L82.7962 23.4762C83.5412 23.4962 84.2612 23.7112 84.8892 24.0872L88.7942 24.5212C100.613 11.1442 110.198 4.46516 118.059 4.12216C119.044 4.07916 120.026 4.12616 120.978 4.26116C126.181 5.00316 130.47 8.22616 132.747 13.1062C138.081 24.5352 133.955 39.7082 130.756 48.2702C131.551 59.8012 130.965 70.6972 129.013 80.7152C131.634 83.1762 133.59 86.2452 134.628 89.5762C136.459 95.4522 136.456 104.53 126.046 114.412C120.826 119.366 114.42 122.432 106.496 123.763C106.346 123.903 106.196 124.04 106.046 124.178C94.1882 134.982 79.2852 140.846 61.7482 141.613Z" fill="#E9D1A3"/>
<path d="M59.1703 140.475C52.8353 139.654 46.2913 138.091 39.7213 135.828C25.8093 131.037 16.1573 122.205 11.0353 109.58C5.46828 95.8539 5.78129 78.2319 11.9673 57.2019C16.5883 41.4939 22.9043 29.6919 22.9663 29.5809C33.6043 10.1819 59.8083 -1.46708 72.2813 0.148922C73.8933 0.357922 75.4073 0.770921 76.7803 1.37892C80.2923 2.93592 82.9093 5.68092 84.3543 9.31992C85.9493 13.3329 85.9173 18.4179 84.2163 25.0939C84.2163 25.0939 90.2413 25.7019 90.2813 25.7069C91.0623 25.8079 91.7943 26.1229 92.4013 26.6009L93.6513 26.9079L100.85 28.3539C101.584 28.5019 102.259 28.8359 102.814 29.3129L106.602 30.4099C120.66 19.3369 131.325 14.4429 139.165 15.4579C140.147 15.5849 141.111 15.7999 142.03 16.0969C147.048 17.7189 150.724 21.6149 152.117 26.7869C155.379 38.9019 148.618 53.0579 143.941 60.8959C142.692 72.3299 140.19 82.9049 136.49 92.3839C138.649 95.2459 140.044 98.5889 140.483 102.031C141.258 108.102 139.653 116.996 127.606 124.888C121.565 128.844 114.685 130.746 106.607 130.687C106.434 130.798 106.261 130.907 106.088 131.016C92.4453 139.558 76.6613 142.74 59.1703 140.475Z" fill="white"/>
<path d="M59.7662 134.761C53.8352 133.993 47.6903 132.523 41.5023 130.392C29.3163 126.195 20.8863 118.516 16.4453 107.57C4.18226 77.336 27.8703 32.883 28.1123 32.443C37.5253 15.279 61.0343 4.48203 71.6833 5.86203C72.7243 5.99703 73.6783 6.25403 74.5213 6.62703C76.5483 7.52503 78.0723 9.13702 78.9263 11.289C80.4483 15.119 79.6283 21.443 76.4913 30.136C77.3793 30.194 78.2763 30.269 79.1783 30.36L79.4103 30.383L79.4552 30.287L81.7283 30.618L87.3933 31.19L87.2583 31.494C88.0833 31.644 88.9242 31.805 89.7872 31.979L90.4693 32.116L90.5043 32.035L92.4823 32.521L97.5953 33.549L97.4753 33.772C98.1423 33.948 98.8213 34.132 99.5213 34.328C100.017 34.467 100.513 34.608 101.019 34.754L108.037 36.786C117.995 28.675 130.607 20.141 138.568 21.173C139.187 21.253 139.79 21.387 140.36 21.571C143.391 22.551 145.62 24.938 146.477 28.12C149.446 39.145 141.634 53.443 138.264 58.898C136.978 71.682 134.102 83.271 129.696 93.431C132.43 95.842 134.242 99.082 134.69 102.593C135.262 107.077 133.921 113.745 124.281 120.06C118.815 123.64 112.414 125.224 104.76 124.881C104.12 125.318 103.489 125.731 102.856 126.129C90.3752 133.942 75.8772 136.848 59.7662 134.761Z" fill="black"/>
<path d="M132.58 56.8628C127.489 112.69 91.596 141.595 43.283 124.956C-5.02997 108.317 32.847 36.0538 33.259 35.3058C42.652 18.1768 66.867 9.48477 72.26 11.8728C77.654 14.2618 67.788 35.9158 67.788 35.9158C69.382 35.7838 71.0271 35.7268 72.6831 35.7488C74.6831 35.7668 76.722 35.8858 78.751 36.0908C80.179 36.2278 81.604 36.4028 83.015 36.6048C84.977 36.8978 86.903 37.2438 88.777 37.6218C90.584 37.9818 92.329 38.3808 93.994 38.7898C95.974 39.2778 97.835 39.7898 99.53 40.2798C105.332 41.9488 109.199 43.4538 109.199 43.4538C109.199 43.4538 138.009 18.9428 140.838 29.4478C143.668 39.9538 132.58 56.8628 132.58 56.8628Z" fill="#E9A628"/>
<path d="M60.277 129.864C54.69 129.14 48.928 127.764 43.029 125.733C32.324 122.046 24.94 115.355 21.083 105.847C9.87003 78.2007 32.292 35.3177 32.524 34.8977C41.933 17.7407 66.667 8.50374 72.584 11.1237C73.354 11.4647 73.924 12.0887 74.277 12.9777C76.216 17.8567 70.992 30.6867 69.116 34.9997C70.292 34.9357 71.483 34.9107 72.67 34.9257C74.64 34.9437 76.708 35.0597 78.813 35.2717C80.181 35.4037 81.629 35.5767 83.112 35.7907C84.985 36.0697 86.884 36.4047 88.922 36.8157C90.566 37.1427 92.284 37.5277 94.174 37.9917C95.948 38.4287 97.769 38.9187 99.745 39.4897C104.366 40.8187 107.806 42.0607 109.015 42.5107C112.586 39.5077 131.621 23.8967 138.928 26.2587C140.296 26.7007 141.235 27.7377 141.644 29.2567C144.415 39.5467 134.614 55.2537 133.392 57.1557C130.607 87.2237 118.784 110.224 100.09 121.932C88.617 129.119 75.071 131.78 60.277 129.864ZM70.93 12.3657C64.508 11.5337 42.736 19.7737 33.994 35.7147C33.766 36.1307 11.714 78.4137 22.637 105.294C26.302 114.312 33.333 120.666 43.537 124.18C64.561 131.419 83.798 130.16 99.168 120.536C117.474 109.072 129.044 86.4247 131.749 56.7657L131.767 56.5677L131.875 56.4017C131.984 56.2357 142.733 39.6687 140.032 29.6387C139.769 28.6647 139.266 28.0867 138.449 27.8227C132.759 25.9747 115.805 38.9367 109.753 44.0847L109.38 44.4017L108.911 44.2197C108.873 44.2037 105.009 42.7067 99.317 41.0707C97.364 40.5057 95.563 40.0217 93.812 39.5897C91.948 39.1327 90.253 38.7527 88.633 38.4297C86.622 38.0237 84.751 37.6937 82.912 37.4207C81.46 37.2107 80.038 37.0407 78.692 36.9117C76.635 36.7047 74.619 36.5907 72.697 36.5737C71.079 36.5527 69.459 36.6087 67.879 36.7387L66.434 36.8577L67.024 35.5627C69.171 30.8507 74.379 17.7067 72.724 13.5417C72.54 13.0787 72.282 12.7787 71.935 12.6257C71.665 12.5027 71.326 12.4167 70.93 12.3657Z" fill="black"/>
<path d="M64.2594 18.379C65.8854 17.848 67.4874 19.364 67.0344 20.996C66.0234 24.633 64.3514 29.257 62.4544 33.43L62.4474 33.445C61.9554 34.527 60.8214 35.16 59.6104 35.032C54.4424 34.483 48.2054 34.492 43.5254 34.637C42.3804 34.672 41.6884 33.326 42.4274 32.482C48.7284 25.285 57.9154 20.452 64.2594 18.379Z" fill="#CE273E"/>
<path d="M43.2142 35.4418C42.4892 35.3478 41.8582 34.9038 41.5192 34.2258C41.1292 33.4478 41.2332 32.5678 41.7892 31.9318C48.1982 24.6128 57.4532 19.7278 63.9772 17.5968C65.0202 17.2558 66.1742 17.5198 66.9882 18.2838C67.8052 19.0518 68.1312 20.1818 67.8392 21.2348C66.7712 25.0738 65.0442 29.7658 63.2172 33.7848C62.5782 35.1908 61.1052 36.0158 59.5452 35.8498C54.2132 35.2838 47.9172 35.3248 43.5762 35.4588C43.4532 35.4628 43.3322 35.4568 43.2142 35.4418ZM64.5412 19.1618C58.2212 21.2268 49.2602 25.9538 43.0642 33.0298C42.8892 33.2298 42.9672 33.4468 43.0092 33.5308C43.0432 33.5988 43.1772 33.8238 43.4752 33.8128C47.8702 33.6778 54.2482 33.6368 59.6752 34.2128C60.5302 34.3038 61.3372 33.8528 61.6842 33.0898C63.4852 29.1268 65.1822 24.5218 66.2282 20.7568C66.3592 20.2878 66.2192 19.8028 65.8552 19.4618C65.4952 19.1218 65.0042 19.0108 64.5412 19.1618Z" fill="black"/>
<path d="M126.246 52.9119C123.714 51.0009 120.362 49.0769 117.535 47.5789C116.339 46.9449 116.168 45.3199 117.204 44.5079C122.647 40.2419 128.171 36.5639 132.2 34.4659C133.654 33.7089 135.389 34.9919 135.065 36.5929C134.164 41.0469 129.942 49.2709 128.213 52.5209C127.837 53.2299 126.907 53.4109 126.246 52.9119Z" fill="#CE273E"/>
<path d="M126.821 53.9989C126.439 53.9499 126.07 53.8009 125.752 53.5599C123.669 51.9889 120.778 50.2189 117.158 48.3019C116.348 47.8729 115.805 47.0799 115.705 46.1829C115.605 45.2819 115.968 44.4119 116.674 43.8579C122.024 39.6649 127.677 35.8799 131.795 33.7359C132.758 33.2329 133.908 33.3359 134.796 33.9989C135.68 34.6589 136.095 35.7229 135.883 36.7769C134.964 41.3199 130.731 49.5799 128.954 52.9209C128.663 53.4679 128.145 53.8519 127.531 53.9759C127.296 54.0219 127.056 54.0289 126.821 53.9989ZM133.27 35.0749C133.048 35.0459 132.819 35.0859 132.607 35.1959C128.572 37.2979 123.012 41.0229 117.735 45.1579C117.46 45.3739 117.325 45.6989 117.364 46.0509C117.402 46.3979 117.603 46.6909 117.915 46.8569C121.615 48.8169 124.585 50.6359 126.742 52.2639C126.907 52.3889 127.07 52.3779 127.154 52.3619C127.235 52.3459 127.384 52.2929 127.474 52.1229C129.219 48.8439 133.371 40.7479 134.249 36.4099C134.335 35.9829 134.174 35.5679 133.817 35.3009C133.648 35.1749 133.461 35.0989 133.27 35.0749Z" fill="black"/>
<path d="M56.0029 63.9615C55.1569 63.8515 54.4999 63.1235 54.5079 62.2675C54.5529 57.3765 53.2939 53.7536 50.7659 51.5006C47.1909 48.3136 42.2169 48.8375 42.1669 48.8425C41.2569 48.9475 40.4109 48.2975 40.2789 47.3945C40.1479 46.4905 40.7809 45.6746 41.6929 45.5706C41.9579 45.5406 48.2469 44.8796 52.9619 49.0846C56.2559 52.0196 57.8979 56.4976 57.8439 62.3906C57.8359 63.2996 57.0819 64.0086 56.1609 63.9746C56.1079 63.9726 56.0549 63.9685 56.0029 63.9615Z" fill="black"/>
<path d="M85.2482 71.4527C85.1152 71.4357 84.9812 71.4027 84.8502 71.3517C83.9842 71.0177 83.5352 70.0627 83.8482 69.2157C85.8792 63.7287 88.9832 60.2277 93.0732 58.8107C98.9312 56.7817 104.529 59.8857 104.764 60.0197C105.573 60.4767 105.872 61.4847 105.431 62.2707C104.991 63.0557 103.981 63.3207 103.173 62.8687C103.093 62.8237 98.6182 60.3957 94.2282 61.9317C91.1022 63.0267 88.6642 65.8837 86.9842 70.4237C86.7202 71.1417 85.9922 71.5487 85.2482 71.4527Z" fill="black"/>
<path d="M78.7508 36.092L72.5178 49.459C71.8748 50.824 70.2158 51.391 68.8138 50.727C67.4028 50.052 66.7798 48.397 67.4228 47.032L72.6828 35.75C74.6828 35.768 76.7218 35.887 78.7508 36.092Z" fill="#DD6818"/>
<path d="M69.5869 51.7969C69.2099 51.7479 68.8338 51.6399 68.4698 51.4679C67.5788 51.0409 66.9028 50.3059 66.5628 49.3959C66.2258 48.4919 66.2608 47.5229 66.6638 46.6669L72.1398 34.9209L72.6658 34.9259C74.6398 34.9429 76.7069 35.0589 78.8119 35.2709L80.0038 35.3909L73.2758 49.8189C72.6098 51.2369 71.0969 51.9929 69.5869 51.7969ZM73.2238 36.5799L68.1819 47.3939C67.9639 47.8569 67.9449 48.3789 68.1269 48.8659C68.3109 49.3589 68.6778 49.7569 69.1598 49.9889C70.1378 50.4519 71.3089 50.0529 71.7599 49.0949L77.4929 36.8009C76.0379 36.6779 74.6088 36.6049 73.2238 36.5799Z" fill="black"/>
<path d="M88.778 37.6225L83.015 49.9595C82.382 51.3255 80.723 51.8935 79.311 51.2275C77.909 50.5535 77.287 48.8995 77.92 47.5325L83.015 36.6055C84.977 36.8985 86.904 37.2445 88.778 37.6225Z" fill="#DD6818"/>
<path d="M80.0911 52.2977C79.7131 52.2487 79.3351 52.1407 78.9701 51.9687C77.1491 51.0927 76.3401 48.9427 77.1611 47.1727L82.5101 35.7017L83.1181 35.7917C84.9861 36.0697 86.8851 36.4047 88.9231 36.8157L89.9841 37.0297L83.7751 50.3217C83.1191 51.7377 81.6061 52.4947 80.0911 52.2977ZM83.5211 37.5127L78.6801 47.8947C78.2371 48.8517 78.6761 50.0167 79.6601 50.4907C80.6441 50.9547 81.8131 50.5567 82.2561 49.5997L87.5721 38.2197C86.1731 37.9497 84.8361 37.7157 83.5211 37.5127Z" fill="black"/>
<path d="M99.5313 40.2805L94.3342 51.4265C93.6912 52.7915 92.0322 53.3585 90.6292 52.6945C89.2182 52.0195 88.5953 50.3645 89.2383 48.9995L93.9933 38.7915C95.9753 39.2785 97.8363 39.7905 99.5313 40.2805Z" fill="#DD6818"/>
<path d="M91.4041 53.7636C91.0271 53.7146 90.6501 53.6066 90.2871 53.4346C89.3961 53.0076 88.7191 52.2726 88.3801 51.3626C88.0421 50.4586 88.0781 49.4896 88.4811 48.6336L93.5141 37.8286L94.1742 37.9916C95.9472 38.4286 97.7691 38.9186 99.7441 39.4896L100.698 39.7656L95.0931 51.7866C94.4271 53.2036 92.9131 53.9586 91.4041 53.7636ZM94.4741 39.7536L89.9991 49.3606C89.7811 49.8236 89.7611 50.3456 89.9431 50.8326C90.1271 51.3256 90.4942 51.7236 90.9762 51.9556C91.9542 52.4166 93.1251 52.0196 93.5761 51.0606L98.3621 40.7966C97.0111 40.4146 95.7271 40.0696 94.4741 39.7536Z" fill="black"/>
<path d="M65.4944 77.3158L65.3504 77.2618C61.8374 75.9428 59.9924 72.0908 61.2284 68.6598L61.8754 66.8638C62.1964 65.9718 63.1964 65.5278 64.1094 65.8698L73.6694 69.4598C74.5824 69.8028 75.0614 70.8028 74.7404 71.6948L74.0934 73.4908C72.8574 76.9228 69.0074 78.6348 65.4944 77.3158Z" fill="#CE273E"/>
<path d="M67.8802 78.9026C67.3972 78.8396 66.9132 78.7206 66.4352 78.5416L63.8542 77.5726C62.2702 76.9776 60.9993 75.8165 60.2733 74.3015C59.5483 72.7875 59.4552 71.1006 60.0122 69.5536L61.1992 66.2576C61.3992 65.7046 61.8072 65.2656 62.3492 65.0246C62.8912 64.7826 63.5012 64.7655 64.0692 64.9815L74.2622 68.8076C75.4322 69.2476 76.0492 70.5356 75.6372 71.6786L74.4503 74.9746C73.4683 77.7046 70.7022 79.2686 67.8802 78.9026ZM66.9893 77.0046C69.3923 77.9106 72.0322 76.7316 72.8782 74.3856L74.0652 71.0906C74.1712 70.7946 74.0122 70.4606 73.7092 70.3476L63.5162 66.5206C63.3702 66.4636 63.2122 66.4686 63.0712 66.5316C62.9312 66.5936 62.8253 66.7076 62.7733 66.8506L61.5862 70.1456C61.1772 71.2816 61.2452 72.5206 61.7782 73.6336C62.3112 74.7456 63.2452 75.5986 64.4092 76.0356L66.9893 77.0046Z" fill="black"/>
<path d="M89.1219 83.2727L88.4289 89.9167C59.9199 100.287 41.6709 84.7857 41.6709 84.7857L43.7529 78.8597C47.9059 81.0357 52.2679 82.7507 55.5609 83.3347C62.1479 84.5107 64.2409 76.7817 64.2409 76.7817L64.9949 77.1277C64.9949 77.1277 61.3179 84.5687 66.2289 85.3617C69.2119 85.8477 80.0499 84.8767 89.1219 83.2727Z" fill="#FFFDFF"/>
<path d="M62.698 93.8637C49.244 92.1207 41.2569 85.5068 41.1359 85.4038C40.8699 85.1778 40.768 84.8168 40.881 84.4968L42.963 78.5698C43.041 78.3468 43.214 78.1718 43.437 78.0888C43.66 78.0058 43.912 78.0228 44.126 78.1358C48.415 80.3828 52.6279 81.9828 55.6839 82.5248C61.4259 83.5448 63.3549 76.8338 63.4339 76.5468C63.4969 76.3178 63.6589 76.1288 63.8779 76.0308C64.0969 75.9338 64.352 75.9358 64.573 76.0368L65.327 76.3828C65.535 76.4788 65.696 76.6518 65.775 76.8638C65.854 77.0748 65.843 77.3068 65.745 77.5068C65.184 78.6448 63.923 81.9588 64.806 83.5998C64.984 83.9298 65.3359 84.3878 66.3389 84.5508C69.2289 84.9958 80.221 84.0068 88.952 82.4638C89.211 82.4178 89.482 82.4978 89.68 82.6798C89.877 82.8608 89.9779 83.1218 89.9509 83.3818L89.2569 90.0257C89.2249 90.3307 89.024 90.5867 88.736 90.6917C78.729 94.3297 69.925 94.8007 62.698 93.8637ZM42.6539 84.5198C45.5939 86.7188 62.644 98.1898 87.651 89.3118L88.177 84.2758C79.238 85.7858 69.138 86.6788 66.116 86.1728C64.496 85.9108 63.711 85.0298 63.338 84.3358C62.847 83.4218 62.767 82.3068 62.885 81.2138C61.283 83.1938 58.8379 84.7378 55.4339 84.1438C52.4189 83.6088 48.378 82.1188 44.233 80.0238L42.6539 84.5198Z" fill="black"/>
<path d="M104.869 91.2529C99.8097 105.24 83.6847 114.741 67.5747 114.747C51.4647 114.753 39.5847 108.706 31.3547 93.4769C23.1327 78.2489 28.1827 66.6759 33.1527 71.5809C35.6377 74.0369 39.5907 76.6839 43.7517 78.8609L41.6697 84.7869C41.6697 84.7869 59.9197 100.288 88.4277 89.9179L89.1207 83.2739C94.9627 82.2439 100.067 80.9529 101.903 79.6269C106.596 76.2379 109.919 77.2639 104.869 91.2529Z" fill="#000009"/>
<path d="M60.4178 115.13C47.0388 113.397 37.4668 106.515 30.6208 93.8478C24.3218 82.1808 25.5908 72.6428 28.9288 70.2438C30.3898 69.1938 32.1858 69.4788 33.7328 71.0058C36.0448 73.2908 39.8318 75.8898 44.1248 78.1348C44.4978 78.3298 44.6758 78.7628 44.5398 79.1488L42.6528 84.5188C45.5928 86.7178 62.6428 98.1888 87.6498 89.3108L88.2918 83.1638C88.3288 82.8088 88.5958 82.5238 88.9518 82.4608C95.3338 81.3348 99.8708 80.0568 101.399 78.9548C103.89 77.1568 105.785 76.7198 107.031 77.6488C108.262 78.5698 109.459 81.0118 105.655 91.5468C100.624 105.459 84.6188 115.563 67.5988 115.569C65.0918 115.571 62.6978 115.425 60.4178 115.13ZM31.0558 71.2778C30.6648 71.2268 30.2908 71.3288 29.9358 71.5838C27.4878 73.3438 26.1138 82.0398 32.0878 93.1048C39.7678 107.313 51.0348 113.927 67.5508 113.923C83.9078 113.916 99.2718 104.257 104.083 90.9548V90.9558C107.729 80.8568 106.362 79.1848 106.05 78.9518C105.629 78.6338 104.449 78.8208 102.41 80.2948C100.267 81.8408 94.5448 83.1338 89.8898 83.9758L89.2588 90.0238C89.2268 90.3288 89.0258 90.5848 88.7368 90.6898C60.1008 101.107 41.3238 85.5618 41.1378 85.4038C40.8718 85.1778 40.7698 84.8168 40.8828 84.4968L42.7288 79.2398C38.5558 76.9968 34.8818 74.4358 32.5718 72.1538C32.0428 71.6328 31.5368 71.3398 31.0558 71.2778Z" fill="black"/>
<path d="M78.3021 74.3238C78.0001 74.2848 77.7261 74.0848 77.6091 73.7838C77.4431 73.3548 77.6561 72.8838 78.0851 72.7318C83.1161 70.9488 91.6911 72.9048 92.0531 72.9888C92.5041 73.0928 92.7941 73.5368 92.7011 73.9788C92.6081 74.4218 92.1641 74.6858 91.7161 74.5908C91.6311 74.5688 83.2601 72.6628 78.6881 74.2828C78.5611 74.3288 78.4291 74.3408 78.3021 74.3238Z" fill="black"/>
<path d="M88.3778 81.7115C88.2268 81.6915 88.0768 81.6305 87.9478 81.5275C87.8948 81.4845 82.5398 77.2235 77.7268 77.3755C77.2658 77.3895 76.8718 77.0325 76.8448 76.5785C76.8168 76.1245 77.1678 75.7435 77.6278 75.7285C83.0868 75.5635 88.7428 80.0725 88.9818 80.2645C89.3428 80.5565 89.4048 81.0745 89.1198 81.4235C88.9348 81.6485 88.6528 81.7475 88.3778 81.7115Z" fill="black"/>
<path d="M83.844 85.3058C83.589 85.2728 83.349 85.1248 83.21 84.8858C83.19 84.8538 81.206 81.5668 76.586 80.2568C76.14 80.1308 75.872 79.6738 75.988 79.2378C76.103 78.8008 76.559 78.5478 77.004 78.6758C82.326 80.1838 84.557 83.9368 84.65 84.0958C84.882 84.4938 84.748 84.9948 84.35 85.2118C84.19 85.2998 84.013 85.3278 83.844 85.3058Z" fill="black"/>
<path d="M57.1708 69.8057C56.9548 69.7777 56.7478 69.6667 56.6018 69.4817C53.5578 65.5937 45.4868 62.6207 45.4058 62.5907C44.9698 62.4317 44.7369 61.9577 44.8849 61.5317C45.0329 61.1067 45.5098 60.8897 45.9428 61.0487C46.2928 61.1767 54.5628 64.2257 57.9098 68.4977C58.1948 68.8627 58.1338 69.3787 57.7718 69.6497C57.5958 69.7827 57.3798 69.8327 57.1708 69.8057Z" fill="black"/>
<path d="M56.2072 72.7748C56.0752 72.7578 55.9452 72.7098 55.8272 72.6288C51.8222 69.8558 45.0992 70.5297 45.0322 70.5367C44.5782 70.5867 44.1552 70.2588 44.0932 69.8058C44.0312 69.3538 44.3502 68.9478 44.8062 68.8998C45.1062 68.8678 52.2222 68.1498 56.7582 71.2888C57.1402 71.5538 57.2412 72.0678 56.9842 72.4378C56.8072 72.6938 56.5032 72.8128 56.2072 72.7748Z" fill="black"/>
<path d="M46.832 76.0669C46.57 76.0329 46.3249 75.8789 46.1879 75.6299C45.9649 75.2279 46.107 74.7329 46.508 74.5229C46.668 74.4389 50.487 72.4869 55.772 74.1269C56.215 74.2639 56.4709 74.7269 56.3439 75.1609C56.2169 75.5949 55.7569 75.8329 55.3129 75.6959C50.7259 74.2679 47.3529 75.9659 47.3209 75.9819C47.1649 76.0619 46.995 76.0879 46.832 76.0669Z" fill="black"/>
<path d="M38.2031 75.5811L36.3871 86.299C36.2491 87.113 37.2821 87.6301 37.8401 87.0251L44.8641 79.4301L38.2031 75.5811Z" fill="#FFFDFF"/>
<path d="M37.0511 88.097C36.8621 88.073 36.674 88.016 36.494 87.925C35.815 87.586 35.4421 86.868 35.5661 86.139L37.382 75.422C37.427 75.16 37.5981 74.938 37.8421 74.829C38.0861 74.718 38.373 74.737 38.61 74.873L45.2721 78.722C45.4931 78.85 45.6461 79.068 45.6891 79.316C45.7311 79.563 45.6581 79.813 45.4901 79.995L38.4661 87.59C38.0971 87.987 37.5721 88.165 37.0511 88.097ZM38.8311 76.886L37.2101 86.456L43.55 79.611L38.8311 76.886Z" fill="black"/>
<path d="M87.6147 83.5303L89.9258 92.3293C90.0808 92.9183 90.9058 92.9813 91.1168 92.4203L95.0287 82.0693L87.6147 83.5303Z" fill="#FFFDFF"/>
<path d="M90.3798 93.6185C89.7748 93.5405 89.2738 93.1055 89.1188 92.5145L86.8078 83.7165C86.7508 83.4995 86.7848 83.2705 86.9018 83.0845C87.0188 82.8975 87.2088 82.7675 87.4288 82.7235L94.8438 81.2615C95.1418 81.2035 95.4538 81.3115 95.6558 81.5435C95.8578 81.7765 95.9178 82.0955 95.8118 82.3765L91.8998 92.7275C91.6778 93.3145 91.0988 93.6755 90.4588 93.6265C90.4328 93.6245 90.4058 93.6215 90.3798 93.6185ZM88.6388 84.1735L90.5648 91.5055L93.7138 83.1735L88.6388 84.1735Z" fill="black"/>
<path d="M53.7271 112.893C54.1781 111.953 67.4271 96.2956 85.8751 100.203C104.323 104.109 111.385 100.892 116.778 96.2106C122.171 91.5296 138.708 103.6 120.959 115.226C103.21 126.852 79.0021 108.402 62.2151 114.505" fill="#D9283F"/>
<path d="M62.1299 115.322C61.8309 115.283 61.5579 115.086 61.4389 114.787C61.2689 114.36 61.4779 113.887 61.9059 113.732C69.5929 110.937 78.4949 113.064 87.9189 115.315C99.2229 118.017 110.911 120.808 120.483 114.537C127.372 110.025 128.411 105.898 128.071 103.23C127.653 99.9617 124.955 97.5127 122.467 96.5347C120.406 95.7277 118.488 95.8377 117.337 96.8367C111.296 102.08 103.607 104.795 85.7209 101.008C68.6959 97.3997 55.6219 111.281 54.4719 113.281C54.2529 113.661 53.7529 113.811 53.3549 113.598C52.9559 113.386 52.7809 112.919 52.9709 112.524C53.7129 110.978 67.5649 95.5067 86.0269 99.3977C105.164 103.452 111.644 99.5547 116.217 95.5857C117.837 94.1787 120.389 93.9617 123.045 95.0067C126.66 96.4257 129.282 99.5907 129.726 103.069C130.124 106.191 129.009 110.953 121.433 115.916C111.267 122.575 99.2199 119.697 87.5699 116.914C78.3999 114.725 69.7389 112.655 62.5209 115.278C62.3929 115.326 62.2589 115.338 62.1299 115.322Z" fill="black"/>
<path d="M67.9003 109.391C67.5923 109.351 67.3143 109.144 67.2013 108.834C67.0443 108.402 67.2663 107.937 67.6983 107.793C68.1303 107.65 78.4133 104.326 91.5203 108.531C103.944 112.508 116.201 102.974 116.323 102.878C116.677 102.598 117.203 102.66 117.497 103.019C117.791 103.377 117.742 103.894 117.388 104.175C116.86 104.592 104.316 114.354 91.0463 110.096C78.4943 106.073 68.3703 109.323 68.2693 109.356C68.1463 109.396 68.0213 109.407 67.9003 109.391Z" fill="black"/>
</svg>
