<svg width="142" height="145" viewBox="0 0 142 145" fill="none" xmlns="http://www.w3.org/2000/svg">
<path d="M77.6115 144.427C76.4685 144.455 75.3045 144.451 74.1515 144.415L72.1985 144.349C55.7335 143.837 40.4405 136.935 29.1455 124.914C17.8515 112.893 11.9146 97.1934 12.4266 80.7064L13.2025 55.5584C13.2725 53.4384 13.5826 51.3814 14.1226 49.4334C14.1596 49.2544 14.2215 48.9554 14.2975 48.5804C19.3395 24.1584 25.3035 7.63943 38.0335 6.36943C38.4025 6.33343 38.7695 6.31043 39.1385 6.30143C48.1435 6.08143 56.3945 13.8264 63.6845 29.3304L64.2655 29.2674C64.6795 29.0834 65.1345 28.9744 65.6105 28.9584L68.1786 28.8724L72.9865 28.3884C73.0775 28.3794 73.1686 28.3734 73.2596 28.3714C73.7536 28.3594 74.2385 28.4484 74.6885 28.6284C74.6885 28.6284 79.0115 28.4494 79.0315 28.4484C79.6485 28.4334 80.2515 28.5764 80.7875 28.8554C81.0295 28.7974 81.2795 28.7644 81.5355 28.7574C81.7205 28.7524 81.9085 28.7624 82.0975 28.7874L87.0445 29.4364C87.2395 29.3994 87.4376 29.3774 87.6376 29.3724C87.8816 29.3664 88.1275 29.3854 88.3715 29.4294L92.0176 30.0914L94.9105 30.4724C94.9895 30.4824 95.0685 30.4964 95.1455 30.5114C102.695 20.9354 113.422 10.3724 124.146 10.1104C126.17 10.0614 128.137 10.3614 129.994 11.0044C138.462 13.9414 146.78 24.2674 138.532 56.7284C138.595 57.6344 138.613 58.5504 138.584 59.4614L137.801 84.6084C136.778 117.351 110.339 143.627 77.6115 144.427Z" fill="#E9D1A3"/>
<path d="M57.3037 141.989C56.1667 141.871 55.0127 141.718 53.8737 141.535L51.9447 141.219C35.6807 138.607 21.3947 129.808 11.7277 116.443C2.0627 103.078 -1.8203 86.7484 0.795696 70.4613L4.7797 45.6193C5.1197 43.5263 5.6897 41.5243 6.4747 39.6613C6.5347 39.4893 6.6337 39.2003 6.7577 38.8383C14.8787 15.2603 22.9047 -0.36067 35.6927 0.00633048C36.0627 0.0173305 36.4297 0.0413356 36.7977 0.0803356C45.7577 1.01234 52.9507 9.74833 58.1997 26.0573L58.7847 26.0693C59.2187 25.9393 59.6837 25.8903 60.1577 25.9353L62.7157 26.1774L67.5457 26.3113C67.6377 26.3143 67.7287 26.3203 67.8187 26.3293C68.3097 26.3803 68.7797 26.5303 69.2027 26.7663C69.2027 26.7663 73.5127 27.1403 73.5337 27.1423C74.1477 27.2063 74.7277 27.4253 75.2237 27.7703C75.4707 27.7433 75.7237 27.7423 75.9787 27.7693C76.1627 27.7883 76.3477 27.8224 76.5327 27.8714L81.3567 29.1474C81.5547 29.1354 81.7537 29.1393 81.9527 29.1603C82.1957 29.1853 82.4367 29.2353 82.6727 29.3113L86.2037 30.4343L89.0237 31.1813C89.1007 31.2023 89.1777 31.2253 89.2517 31.2503C97.9627 22.7173 109.952 13.6113 120.622 14.7213C122.636 14.9313 124.548 15.4803 126.308 16.3553C134.331 20.3503 141.262 31.6543 128.934 62.7953C128.881 63.7013 128.781 64.6123 128.636 65.5123L124.646 90.3523C119.444 122.696 89.8647 145.377 57.3037 141.989Z" fill="white"/>
<path d="M57.8268 136.962C56.7818 136.853 55.7208 136.712 54.6748 136.544L52.7618 136.231C37.8218 133.832 24.6998 125.752 15.8258 113.481C6.95275 101.21 3.38775 86.2175 5.78875 71.2635L9.77175 46.4205C10.0488 44.7155 10.5128 43.0905 11.1518 41.5825L11.2048 41.4485C11.2828 41.2295 11.3968 40.8985 11.5428 40.4725C20.1738 15.4145 27.3518 4.82547 35.5468 5.06147C35.7888 5.06847 36.0308 5.08448 36.2748 5.10948C45.6428 6.08448 51.4448 20.5595 54.4548 31.1335C55.6088 31.1015 56.7558 31.0935 57.8888 31.1095L58.4038 31.1195L58.4228 31.1165L60.9408 31.1855L60.9618 31.0885L62.4078 31.2255L65.4868 31.3105L65.4228 31.5115L71.3328 32.0245L71.2718 32.2605C72.9828 32.5325 74.6807 32.8445 76.3587 33.1945L76.5838 33.2425L76.6178 33.1215L82.5527 34.6915L82.5818 34.5845L84.7578 35.2765L86.3408 35.6965L86.3208 35.7735L88.2747 36.3995L90.5378 37.1295C97.1948 30.2415 109.993 18.6955 120.102 19.7475C121.512 19.8945 122.844 20.2755 124.06 20.8795C136.209 26.9285 128.297 50.8455 123.921 61.7215C123.9 62.7075 123.809 63.7075 123.648 64.7055L119.658 89.5485C114.878 119.246 87.7198 140.072 57.8268 136.962Z" fill="black"/>
<path d="M114.661 88.7493L118.652 63.9062C118.822 62.8452 118.892 61.7953 118.855 60.7543C118.855 60.7543 118.857 60.7473 118.861 60.7333C119.239 59.8173 131.375 30.1752 121.805 25.4102C112.082 20.5752 91.9307 43.0333 91.9307 43.0333C89.9727 42.3033 88.0147 41.6253 86.0657 41.0023L82.5887 54.0763C82.1547 55.7093 80.4737 56.6903 78.8337 56.2543C77.1937 55.8183 76.2217 54.1323 76.6557 52.4993L80.1677 39.2933C78.8767 38.9503 77.5777 38.6343 76.2767 38.3553L72.2097 53.6483C71.7737 55.2883 70.0877 56.2603 68.4547 55.8263L68.4477 55.8242C66.8147 55.3902 65.8407 53.7112 66.2767 52.0702L70.2267 37.2163C70.0997 37.1903 69.9627 37.1683 69.8337 37.1493C68.1957 36.9003 66.5517 36.7023 64.9197 36.5453L62.1037 47.1343C61.6697 48.7673 59.9817 49.7463 58.3477 49.3123C56.7077 48.8763 55.7357 47.1902 56.1697 45.5572L58.6627 36.1833C58.3807 36.1753 58.0987 36.1673 57.8147 36.1673C55.4097 36.1333 53.0117 36.2133 50.6157 36.3983C50.6157 36.3983 44.4417 10.3772 35.3997 10.1172C26.7957 9.86924 17.0987 40.0112 15.9367 43.2292L15.9277 43.2642C15.9167 43.3062 15.9087 43.3343 15.8857 43.3653C15.8657 43.4123 15.8437 43.4663 15.8237 43.5133C15.3277 44.6743 14.9747 45.9183 14.7627 47.2223L10.7797 72.0653C6.25768 100.227 25.4157 126.719 53.5777 131.241L55.4757 131.551C83.6377 136.074 110.134 116.902 114.661 88.7493ZM22.2077 40.4183C27.3497 26.4793 31.0647 20.6582 33.1987 18.2292C34.3017 16.9752 36.3047 17.0893 37.2547 18.4633C39.9047 22.2993 43.9487 31.0352 45.7637 37.2212C45.9657 37.9252 45.4557 38.6342 44.7297 38.6652C39.3717 38.9142 30.3037 39.6573 23.6177 41.8923C22.7227 42.1923 21.8807 41.3103 22.2077 40.4183ZM34.2227 75.2203C28.7777 73.7723 25.7037 67.5433 27.3607 61.3103C29.0187 55.0773 34.7787 51.2053 40.2237 52.6533C45.6757 54.1033 48.7517 60.3243 47.0937 66.5583C45.4367 72.7913 39.6747 76.6703 34.2227 75.2203ZM66.7227 88.1903C65.8927 91.3103 62.6957 93.1583 59.5757 92.3283L57.2517 91.7103C54.1387 90.8823 52.2817 87.6902 53.1117 84.5702L53.2047 84.2212C53.6057 82.7132 55.1537 81.8103 56.6617 82.2113L64.8077 84.3773C66.3157 84.7783 67.2177 86.3333 66.8167 87.8413L66.7227 88.1903ZM88.9057 89.7623C83.4547 88.3123 80.3797 82.0842 82.0377 75.8502C83.6957 69.6172 89.4557 65.7452 94.9077 67.1952C100.353 68.6432 103.429 74.8653 101.771 81.0983C100.113 87.3313 94.3497 91.2103 88.9057 89.7623ZM114.507 59.0593C114.203 59.8383 113.194 60.0333 112.625 59.4183C107.441 53.8693 100.267 49.2863 96.2897 46.9573C95.7337 46.6303 95.6207 45.8753 96.0677 45.4033C103.464 37.6313 112.908 30.5323 117.579 30.2793C118.678 30.2203 119.674 30.9183 119.998 31.9763C120.157 32.5043 120.283 33.1803 120.353 34.0433C120.533 36.2883 120.288 39.7963 119.059 45.0373C117.84 50.2073 115.622 56.1873 114.507 59.0593Z" fill="#E9A628"/>
<path d="M58.2747 132.65C57.3047 132.549 56.3347 132.421 55.3607 132.265L53.4607 131.954C39.6517 129.736 27.5327 122.274 19.3367 110.941C11.1417 99.6094 7.84973 85.7614 10.0677 71.9504L14.0517 47.1064C14.2747 45.7344 14.6477 44.4294 15.1617 43.2284L15.2587 42.9824C15.3427 42.7494 15.4727 42.3744 15.6427 41.8794C23.1237 20.1604 29.7787 9.23138 35.4227 9.39338C44.1987 9.63838 50.1567 31.5944 51.1727 35.6314C53.4077 35.4754 55.6427 35.4124 57.8267 35.4434C58.1077 35.4444 58.3957 35.4514 58.6837 35.4604L59.5967 35.4854L56.8697 45.7424C56.7087 46.3464 56.7927 46.9784 57.1077 47.5214C57.4227 48.0654 57.9297 48.4524 58.5347 48.6144C59.7827 48.9444 61.0737 48.2004 61.4067 46.9484L64.3807 35.7674L64.9907 35.8264C66.7017 35.9924 68.3727 36.1974 69.9427 36.4354C70.0847 36.4564 70.2357 36.4804 70.3757 36.5104L71.1207 36.6664L66.9757 52.2564C66.8137 52.8634 66.8977 53.4954 67.2117 54.0374C67.5247 54.5784 68.0297 54.9654 68.6327 55.1254C69.8927 55.4574 71.1787 54.7124 71.5127 53.4624L75.7557 37.5044L76.4287 37.6484C77.6837 37.9174 79.0047 38.2354 80.3537 38.5934L81.0517 38.7784L77.3547 52.6834C77.1937 53.2874 77.2777 53.9194 77.5927 54.4624C77.9077 55.0064 78.4147 55.3944 79.0197 55.5554C80.2767 55.8904 81.5587 55.1414 81.8917 53.8894L85.5637 40.0824L86.2867 40.3134C88.0867 40.8894 89.9147 41.5174 91.7257 42.1854C94.4957 39.1694 112.605 20.0274 122.127 24.7614C131.977 29.6654 121.12 57.1304 119.582 60.8774C119.608 61.9004 119.536 62.9564 119.365 64.0184L115.374 88.8614C110.946 116.398 85.6797 135.502 58.2747 132.65ZM16.5307 43.6924L16.4897 43.7924C16.0207 44.8904 15.6797 46.0814 15.4757 47.3374L11.4927 72.1804C9.33672 85.6104 12.5377 99.0764 20.5077 110.096C28.4777 121.116 40.2627 128.373 53.6927 130.529L55.5927 130.84C83.3257 135.282 109.49 116.357 113.948 88.6354L117.939 63.7924C118.103 62.7704 118.168 61.7564 118.133 60.7804L118.129 60.6584L118.193 60.4584C122.463 50.1194 128.645 29.6244 121.483 26.0574C112.349 21.5134 92.6667 43.2964 92.4687 43.5174L92.1397 43.8834L91.6787 43.7114C89.9797 43.0784 88.2637 42.4784 86.5677 41.9254L83.2867 54.2634C82.7497 56.2844 80.6687 57.4904 78.6477 56.9534C77.6687 56.6934 76.8497 56.0664 76.3407 55.1884C75.8337 54.3124 75.6967 53.2914 75.9567 52.3144L79.2827 39.8094C78.4357 39.5914 77.6047 39.3914 76.7967 39.2104L72.9077 53.8364C72.3687 55.8564 70.2867 57.0634 68.2687 56.5264C67.2837 56.2644 66.4667 55.6394 65.9597 54.7644C65.4527 53.8884 65.3177 52.8664 65.5777 51.8874L69.3217 37.8064C68.0837 37.6254 66.7857 37.4544 65.4587 37.3274L62.8007 47.3224C62.2627 49.3424 60.1807 50.5504 58.1617 50.0124C57.1827 49.7524 56.3637 49.1254 55.8547 48.2474C55.3477 47.3714 55.2107 46.3504 55.4707 45.3734L57.7267 36.8894C55.4077 36.8594 53.0367 36.9364 50.6707 37.1194L50.0547 37.1664L49.9127 36.5654C48.2297 29.4784 42.3537 11.0434 35.3787 10.8394C32.5977 10.7594 26.5137 14.7464 17.0057 42.3514C16.8317 42.8564 16.7007 43.2384 16.6147 43.4754C16.6117 43.5004 16.5897 43.5874 16.5307 43.6924ZM60.4027 93.2134C60.0657 93.1784 59.7277 93.1164 59.3907 93.0264L57.0657 92.4084C53.5717 91.4794 51.4847 87.8804 52.4127 84.3844L52.5047 84.0364C53.0097 82.1414 54.9587 81.0094 56.8457 81.5124L64.9917 83.6784C65.9077 83.9214 66.6747 84.5084 67.1507 85.3314C67.6277 86.1534 67.7557 87.1104 67.5127 88.0264L67.4207 88.3754C66.5807 91.5334 63.5587 93.5414 60.4027 93.2134ZM56.1527 82.8494C55.1417 82.7444 54.1727 83.3914 53.9017 84.4064L53.8107 84.7544C53.0857 87.4804 54.7127 90.2864 57.4377 91.0114L59.7627 91.6294C62.4997 92.3544 65.3007 90.7284 66.0257 88.0044L66.1177 87.6554C66.2627 87.1114 66.1857 86.5434 65.9027 86.0554C65.6207 85.5674 65.1647 85.2184 64.6227 85.0744L56.4767 82.9084C56.3677 82.8804 56.2597 82.8614 56.1527 82.8494ZM90.2267 90.7374C89.7217 90.6844 89.2187 90.5924 88.7207 90.4604C85.8797 89.7044 83.5487 87.7374 82.1577 84.9204C80.7827 82.1354 80.4927 78.8494 81.3387 75.6654C83.0957 69.0614 89.2637 64.9434 95.0917 66.4984C97.9297 67.2524 100.259 69.2184 101.649 72.0334C103.023 74.8164 103.314 78.1014 102.468 81.2844C101.621 84.4674 99.7367 87.1764 97.1607 88.9104C95.0137 90.3564 92.5987 90.9844 90.2267 90.7374ZM93.4477 67.6594C88.7907 67.1744 84.1567 70.6894 82.7347 76.0364C81.9777 78.8814 82.2327 81.8094 83.4527 84.2804C84.6567 86.7184 86.6587 88.4174 89.0907 89.0644C91.5207 89.7094 94.0987 89.2304 96.3537 87.7114C98.6397 86.1724 100.315 83.7574 101.071 80.9124C101.828 78.0674 101.573 75.1414 100.353 72.6724C99.1497 70.2364 97.1497 68.5394 94.7197 67.8934C94.2987 67.7814 93.8727 67.7034 93.4477 67.6594ZM35.5287 76.1924C35.0307 76.1404 34.5327 76.0504 34.0377 75.9184C28.2137 74.3694 24.9057 67.7334 26.6627 61.1244C28.4197 54.5204 34.5847 50.4074 40.4097 51.9554C43.2517 52.7114 45.5817 54.6774 46.9727 57.4914C48.3487 60.2744 48.6387 63.5594 47.7927 66.7434C46.1837 72.7904 40.8817 76.7494 35.5287 76.1924ZM34.4087 74.5224C39.4647 75.8644 44.8437 72.2124 46.3957 66.3724C47.1527 63.5274 46.8977 60.6014 45.6777 58.1324C44.4737 55.6964 42.4717 53.9994 40.0387 53.3524C34.9867 52.0074 29.6107 55.6614 28.0597 61.4974C26.5067 67.3344 29.3557 73.1784 34.4087 74.5224ZM113.259 60.4944C112.819 60.4484 112.406 60.2444 112.094 59.9084C106.961 54.4134 99.7597 49.8254 95.9247 47.5804C95.4647 47.3094 95.1607 46.8544 95.0867 46.3304C95.0137 45.8094 95.1797 45.2894 95.5437 44.9064C102.604 37.4874 112.426 29.8344 117.54 29.5574C118.971 29.4824 120.267 30.3884 120.688 31.7644C120.874 32.3814 121.003 33.1284 121.072 33.9854C121.295 36.7684 120.854 40.5414 119.761 45.2014C118.552 50.3334 116.372 56.2494 115.18 59.3194L115.179 59.3204C114.944 59.9204 114.427 60.3504 113.796 60.4694C113.616 60.5054 113.436 60.5124 113.259 60.4944ZM117.881 31.0074C117.795 30.9984 117.707 30.9964 117.618 31.0014C113.504 31.2234 104.465 37.6294 96.5917 45.9024C96.5117 45.9864 96.5117 46.0814 96.5187 46.1304C96.5257 46.1804 96.5537 46.2744 96.6577 46.3364C100.559 48.6204 107.892 53.2934 113.154 58.9264C113.288 59.0724 113.447 59.0694 113.529 59.0534C113.596 59.0404 113.76 58.9904 113.835 58.7974C115.013 55.7624 117.166 49.9184 118.355 44.8734C119.673 39.2514 119.777 35.9134 119.632 34.1034C119.571 33.3484 119.461 32.7034 119.305 32.1864C119.106 31.5334 118.54 31.0764 117.881 31.0074ZM23.0697 42.6634C22.6507 42.6204 22.2527 42.4314 21.9437 42.1134C21.4387 41.5954 21.2797 40.8504 21.5287 40.1704L21.5297 40.1694C26.6537 26.2784 30.4077 20.3124 32.6547 17.7534C33.3297 16.9864 34.3037 16.5814 35.3267 16.6414C36.3387 16.6974 37.2667 17.2154 37.8467 18.0534C40.6647 22.1344 44.6877 30.9954 46.4547 37.0184C46.6137 37.5734 46.5127 38.1554 46.1777 38.6204C45.8447 39.0834 45.3277 39.3634 44.7597 39.3874C39.8277 39.6164 30.5487 40.3364 23.8447 42.5774C23.5897 42.6624 23.3267 42.6904 23.0697 42.6634ZM22.8857 40.6664C22.8037 40.8914 22.9237 41.0484 22.9787 41.1054C23.0317 41.1594 23.1767 41.2774 23.3867 41.2064C29.9127 39.0244 38.5757 38.2274 44.6957 37.9424C44.8657 37.9354 44.9637 37.8334 45.0067 37.7744C45.0497 37.7134 45.1167 37.5864 45.0687 37.4194C43.3377 31.5204 39.4077 22.8514 36.6597 18.8734C36.3347 18.4044 35.8137 18.1184 35.2437 18.0814C34.6667 18.0484 34.1187 18.2754 33.7407 18.7054C31.5737 21.1724 27.9327 26.9864 22.8857 40.6664Z" fill="black"/>
<path d="M82.369 85.8601C82.369 85.8601 74.758 85.2061 70.77 87.3221Z" fill="#E9A628"/>
<path d="M70.6948 88.0402C70.4638 88.0162 70.2478 87.8812 70.1308 87.6602C69.9438 87.3082 70.0778 86.8702 70.4298 86.6832C74.5578 84.4922 82.1098 85.1122 82.4298 85.1392C82.8488 85.1682 83.1218 85.5232 83.0878 85.9202C83.0538 86.3172 82.7038 86.6122 82.3068 86.5782C82.2318 86.5722 74.8588 85.9672 71.1078 87.9582C70.9768 88.0292 70.8328 88.0542 70.6948 88.0402Z" fill="black"/>
<path d="M80.1706 92.4862C80.1706 92.4862 74.9176 89.2652 70.4746 90.0652Z" fill="#E9A628"/>
<path d="M80.0946 93.2042C79.9906 93.1932 79.8876 93.1602 79.7926 93.1022C79.7426 93.0712 74.7146 90.0373 70.6026 90.7763C70.2106 90.8483 69.8336 90.5852 69.7636 90.1932C69.6926 89.8002 69.9546 89.4252 70.3466 89.3542C75.0086 88.5152 80.3236 91.7322 80.5476 91.8702C80.8876 92.0782 80.9936 92.5232 80.7856 92.8632C80.6366 93.1082 80.3626 93.2322 80.0946 93.2042Z" fill="black"/>
<path d="M76.6535 96.1923C76.6535 96.1923 74.4925 93.3253 70.0195 92.7163Z" fill="#E9A628"/>
<path d="M76.5786 96.9114C76.3876 96.8914 76.2036 96.7954 76.0776 96.6294C76.0466 96.5894 74.0066 93.9883 69.9226 93.4323C69.5266 93.3783 69.2506 93.0144 69.3046 92.6194C69.3576 92.2244 69.7226 91.9343 70.1176 92.0013C74.8346 92.6433 77.1356 95.6314 77.2316 95.7584C77.4716 96.0774 77.4076 96.5304 77.0896 96.7694C76.9366 96.8834 76.7546 96.9294 76.5786 96.9114Z" fill="black"/>
<path d="M40.7925 74.8032C40.7925 74.8032 47.7235 78.0162 50.1335 81.8342Z" fill="#E9A628"/>
<path d="M50.0596 82.5522C49.8466 82.5302 49.6456 82.4142 49.5226 82.2192C47.2526 78.6232 40.5556 75.4892 40.4886 75.4582C40.1266 75.2902 39.9696 74.8612 40.1366 74.4992C40.3036 74.1372 40.7336 73.9782 41.0956 74.1472C41.3866 74.2822 48.2486 77.4952 50.7446 81.4472C50.9566 81.7842 50.8566 82.2312 50.5186 82.4432C50.3776 82.5352 50.2146 82.5682 50.0596 82.5522Z" fill="black"/>
<path d="M39.4087 81.6464C39.4087 81.6464 45.5677 81.4604 49.0267 84.3614Z" fill="#E9A628"/>
<path d="M48.9509 85.0793C48.8129 85.0653 48.6769 85.0103 48.5629 84.9143C45.3509 82.2213 39.4889 82.3653 39.4309 82.3683C39.0199 82.3753 38.6989 82.0663 38.6869 81.6683C38.6749 81.2703 38.9889 80.9363 39.3869 80.9243C39.6509 80.9163 45.8639 80.7653 49.4909 83.8083C49.7969 84.0643 49.8369 84.5203 49.5809 84.8263C49.4199 85.0163 49.1819 85.1033 48.9509 85.0793Z" fill="black"/>
<path d="M40.6196 86.6104C40.6196 86.6104 43.9196 85.1954 48.1046 86.8894Z" fill="#E9A628"/>
<path d="M40.5455 87.3282C40.2935 87.3022 40.0625 87.1441 39.9555 86.8941C39.7975 86.5271 39.9675 86.1021 40.3345 85.9451C40.4805 85.8831 43.9595 84.4311 48.3755 86.2181C48.7445 86.3681 48.9235 86.7892 48.7735 87.1592C48.6235 87.5292 48.2045 87.7061 47.8325 87.5571C43.9695 85.9921 40.9335 87.2591 40.9035 87.2731C40.7865 87.3241 40.6635 87.3402 40.5455 87.3282Z" fill="black"/>
<path d="M119.058 45.0388C120.287 39.7978 120.532 36.2908 120.352 34.0448C120.283 33.1818 120.156 32.5058 119.997 31.9778C119.673 30.9198 118.678 30.2218 117.578 30.2808C112.907 30.5338 103.463 37.6328 96.0668 45.4048C95.6198 45.8758 95.7328 46.6318 96.2888 46.9588C100.266 49.2868 107.441 53.8708 112.624 59.4198C113.193 60.0348 114.201 59.8388 114.506 59.0608C115.622 56.1878 117.84 50.2078 119.058 45.0388ZM45.7628 37.2208C43.9478 31.0358 39.9028 22.2998 37.2538 18.4628C36.3038 17.0888 34.3018 16.9748 33.1978 18.2288C31.0648 20.6588 27.3488 26.4788 22.2068 40.4178C21.8798 41.3098 22.7218 42.1918 23.6158 41.8908C30.3018 39.6548 39.3698 38.9128 44.7278 38.6638C45.4548 38.6338 45.9648 37.9248 45.7628 37.2208Z" fill="#E9A628"/>
<path d="M113.259 60.4946C112.82 60.4486 112.406 60.2456 112.095 59.9086C106.962 54.4136 99.7609 49.8256 95.9259 47.5806C95.4659 47.3096 95.1619 46.8546 95.0879 46.3306C95.0149 45.8086 95.1809 45.2896 95.5449 44.9066C102.605 37.4876 112.427 29.8346 117.541 29.5576C118.972 29.4826 120.268 30.3886 120.689 31.7646C120.875 32.3816 121.004 33.1286 121.073 33.9856C121.296 36.7686 120.855 40.5416 119.762 45.2016V45.2026C118.553 50.3346 116.373 56.2496 115.181 59.3196C114.945 59.9216 114.428 60.3506 113.797 60.4706C113.616 60.5056 113.436 60.5126 113.259 60.4946ZM117.881 31.0076C117.795 30.9986 117.707 30.9966 117.618 31.0016C113.504 31.2236 104.465 37.6296 96.5919 45.9026C96.5119 45.9866 96.5119 46.0816 96.5189 46.1306C96.5259 46.1806 96.5539 46.2746 96.6579 46.3366C100.559 48.6206 107.892 53.2946 113.154 58.9266C113.288 59.0726 113.447 59.0696 113.529 59.0536C113.596 59.0406 113.76 58.9906 113.835 58.7976C115.012 55.7646 117.166 49.9206 118.355 44.8736C119.673 39.2506 119.778 35.9126 119.632 34.1026C119.571 33.3476 119.461 32.7026 119.305 32.1856C119.106 31.5336 118.54 31.0766 117.881 31.0076ZM23.0699 42.6636C22.6509 42.6206 22.2529 42.4316 21.9439 42.1136C21.4389 41.5956 21.2799 40.8506 21.5289 40.1706C26.6539 26.2786 30.4079 20.3126 32.6549 17.7526C33.3299 16.9856 34.3039 16.5806 35.3269 16.6406C36.3389 16.6966 37.2669 17.2146 37.8469 18.0526C40.6649 22.1336 44.6879 30.9946 46.4549 37.0176L46.4569 37.0216C46.6149 37.5716 46.5129 38.1536 46.1779 38.6196C45.8449 39.0826 45.3279 39.3626 44.7599 39.3866C39.8279 39.6156 30.5489 40.3356 23.8449 42.5766C23.5899 42.6626 23.3269 42.6906 23.0699 42.6636ZM35.3309 18.0896C35.3019 18.0866 35.2729 18.0846 35.2439 18.0826C34.6669 18.0496 34.1189 18.2766 33.7409 18.7066C31.5749 21.1726 27.9319 26.9856 22.8859 40.6686C22.8049 40.8926 22.9239 41.0496 22.9799 41.1056C23.0329 41.1596 23.1779 41.2776 23.3879 41.2066C29.9139 39.0246 38.5769 38.2276 44.6969 37.9426C44.8669 37.9356 44.9649 37.8336 45.0079 37.7746C45.0509 37.7136 45.1169 37.5876 45.0699 37.4216C43.3369 31.5176 39.4079 22.8516 36.6599 18.8736C36.3519 18.4286 35.8699 18.1456 35.3309 18.0896Z" fill="black"/>
<path d="M40.2238 52.6531C34.7798 51.2051 29.0188 55.0772 27.3608 61.3102C25.7028 67.5431 28.7778 73.7722 34.2228 75.2202C39.6738 76.6702 45.4368 72.7911 47.0938 66.5581C48.7518 60.3241 45.6758 54.1031 40.2238 52.6531ZM63.4208 36.4151C61.8318 36.2911 60.2458 36.2132 58.6628 36.1812L56.1698 45.5551C55.7358 47.1881 56.7068 48.8742 58.3478 49.3102C59.9808 49.7442 61.6688 48.7661 62.1038 47.1321L64.9198 36.5432C64.4148 36.5002 63.9178 36.4581 63.4208 36.4151ZM75.3228 38.1451C73.6238 37.7901 71.9268 37.4812 70.2258 37.2162L66.2758 52.0701C65.8398 53.7101 66.8128 55.3891 68.4468 55.8241L68.4538 55.8261C70.0868 56.2601 71.7728 55.2891 72.2088 53.6481L76.2758 38.3551C75.9608 38.2781 75.6408 38.2151 75.3228 38.1451ZM64.8068 84.3771L56.6608 82.2112C55.1528 81.8102 53.6048 82.7141 53.2038 84.2211L53.1108 84.5701C52.2808 87.6901 54.1378 90.8821 57.2508 91.7101L59.5748 92.3282C62.6948 93.1582 65.8918 91.3102 66.7218 88.1902L66.8148 87.8412C67.2168 86.3332 66.3148 84.7781 64.8068 84.3771ZM85.6728 40.8752C83.9008 40.3142 82.1238 39.8041 80.3488 39.3401L80.1668 39.2921L76.6548 52.4981C76.2208 54.1311 77.1918 55.8171 78.8328 56.2531C80.4728 56.6891 82.1538 55.7091 82.5878 54.0751L86.0648 41.0011L85.6728 40.8752ZM94.9068 67.1951C89.4558 65.7451 83.6948 69.6171 82.0368 75.8501C80.3788 82.0831 83.4538 88.3121 88.9048 89.7621C94.3498 91.2101 100.112 87.3311 101.77 81.0981C103.428 74.8651 100.352 68.6431 94.9068 67.1951Z" fill="#E9A628"/>
<path d="M60.4028 93.2132C60.0658 93.1782 59.7278 93.1162 59.3908 93.0262L57.0658 92.4082C53.5718 91.4792 51.4848 87.8802 52.4128 84.3842L52.5048 84.0362C53.0098 82.1412 54.9588 81.0092 56.8458 81.5122L64.9918 83.6782C65.9078 83.9212 66.6748 84.5082 67.1508 85.3312C67.6278 86.1532 67.7558 87.1102 67.5128 88.0262L67.4208 88.3742C66.5808 91.5332 63.5588 93.5412 60.4028 93.2132ZM56.1528 82.8492C55.1418 82.7442 54.1728 83.3902 53.9018 84.4062L53.8108 84.7542C53.0858 87.4802 54.7128 90.2862 57.4378 91.0112L59.7628 91.6292C62.5008 92.3562 65.3018 90.7282 66.0258 88.0032L66.1178 87.6552C66.2628 87.1112 66.1858 86.5432 65.9028 86.0552C65.6208 85.5672 65.1648 85.2182 64.6228 85.0742L56.4768 82.9082C56.3678 82.8802 56.2598 82.8612 56.1528 82.8492ZM90.2268 90.7372C89.7218 90.6842 89.2188 90.5922 88.7208 90.4602C85.8798 89.7042 83.5488 87.7372 82.1578 84.9202C80.7828 82.1352 80.4928 78.8492 81.3388 75.6652C83.0958 69.0612 89.2638 64.9432 95.0918 66.4982C97.9298 67.2522 100.259 69.2182 101.649 72.0332C103.023 74.8162 103.314 78.1012 102.468 81.2842C101.621 84.4672 99.7368 87.1762 97.1608 88.9102C95.0138 90.3562 92.5988 90.9842 90.2268 90.7372ZM93.4478 67.6592C88.7908 67.1742 84.1568 70.6892 82.7348 76.0362C81.9778 78.8812 82.2328 81.8092 83.4528 84.2802C84.6568 86.7182 86.6588 88.4172 89.0908 89.0642C91.5208 89.7092 94.0988 89.2302 96.3538 87.7112C98.6398 86.1722 100.315 83.7572 101.071 80.9122C101.828 78.0672 101.573 75.1412 100.353 72.6722C99.1498 70.2362 97.1498 68.5392 94.7198 67.8932C94.2988 67.7812 93.8728 67.7032 93.4478 67.6592ZM35.5288 76.1922C35.0308 76.1402 34.5328 76.0502 34.0378 75.9182C28.2138 74.3692 24.9058 67.7332 26.6628 61.1242C28.4198 54.5202 34.5848 50.4072 40.4098 51.9552C43.2518 52.7112 45.5818 54.6772 46.9728 57.4912C48.3488 60.2742 48.6388 63.5592 47.7928 66.7432C46.1838 72.7902 40.8818 76.7492 35.5288 76.1922ZM38.7678 53.1172C34.1138 52.6332 29.4818 56.1482 28.0598 61.4952C26.5068 67.3342 29.3558 73.1772 34.4088 74.5212C39.4648 75.8632 44.8438 72.2112 46.3958 66.3712C47.1528 63.5262 46.8978 60.6002 45.6778 58.1312C44.4738 55.6952 42.4718 53.9982 40.0388 53.3512C39.6168 53.2392 39.1918 53.1612 38.7678 53.1172ZM68.8528 56.6312C68.6588 56.6112 68.4638 56.5752 68.2688 56.5232C67.2838 56.2612 66.4668 55.6362 65.9598 54.7612C65.4528 53.8852 65.3178 52.8632 65.5778 51.8842L69.6938 36.4022L70.3358 36.5022C72.0418 36.7682 73.7698 37.0832 75.4688 37.4382L75.7898 37.5062C76.0088 37.5522 76.2278 37.5992 76.4448 37.6512L77.1618 37.8252L72.9058 53.8322C72.4218 55.6592 70.6748 56.8212 68.8528 56.6312ZM70.7568 38.0322L66.9748 52.2562C66.8128 52.8632 66.8968 53.4952 67.2108 54.0372C67.5238 54.5782 68.0288 54.9652 68.6318 55.1252C69.8918 55.4572 71.1778 54.7122 71.5118 53.4622L75.3848 38.8972L75.1748 38.8522C73.7118 38.5472 72.2288 38.2722 70.7568 38.0322ZM79.2318 57.0592C79.0378 57.0392 78.8428 57.0032 78.6478 56.9512C77.6688 56.6912 76.8498 56.0642 76.3408 55.1862C75.8338 54.3102 75.6968 53.2892 75.9568 52.3122L79.6548 38.4082L80.5348 38.6422C82.3588 39.1192 84.1618 39.6392 85.8908 40.1872L86.9398 40.5262L83.2868 54.2622C82.8018 56.0882 81.0548 57.2492 79.2318 57.0592ZM80.6798 40.1742L77.3538 52.6842C77.1928 53.2882 77.2768 53.9202 77.5918 54.4632C77.9068 55.0072 78.4138 55.3952 79.0188 55.5562C80.2758 55.8912 81.5578 55.1422 81.8908 53.8902L85.1908 41.4812C83.7288 41.0232 82.2148 40.5842 80.6798 40.1742ZM58.7458 50.1172C58.5518 50.0972 58.3568 50.0612 58.1618 50.0102C57.1828 49.7502 56.3638 49.1232 55.8548 48.2452C55.3478 47.3692 55.2108 46.3482 55.4708 45.3712L58.1098 35.4492L58.6768 35.4612C60.2618 35.4932 61.8768 35.5722 63.4758 35.6972H63.4818L65.8368 35.9022L62.8008 47.3212C62.3158 49.1452 60.5688 50.3072 58.7458 50.1172ZM59.2148 36.9172L56.8688 45.7412C56.7078 46.3452 56.7918 46.9772 57.1068 47.5202C57.4218 48.0642 57.9288 48.4512 58.5338 48.6132C59.7818 48.9432 61.0728 48.1992 61.4058 46.9472L64.0008 37.1902L63.3628 37.1352C61.9818 37.0282 60.5888 36.9552 59.2148 36.9172Z" fill="black"/>
<path d="M44.7288 38.6648C39.3708 38.9138 30.3028 39.6568 23.6168 41.8918C22.7218 42.1918 21.8808 41.3108 22.2078 40.4188C27.3498 26.4798 31.0648 20.6587 33.1988 18.2297C34.3018 16.9757 36.3048 17.0898 37.2548 18.4638C39.9048 22.2998 43.9488 31.0358 45.7638 37.2218C45.9648 37.9248 45.4548 38.6338 44.7288 38.6648Z" fill="#CE273E"/>
<path d="M23.0699 42.6636C22.6509 42.6206 22.2529 42.4316 21.9439 42.1136C21.4389 41.5956 21.2799 40.8506 21.5289 40.1706C26.6539 26.2786 30.4079 20.3126 32.6549 17.7526C33.3299 16.9856 34.3039 16.5806 35.3269 16.6406C36.3389 16.6966 37.2669 17.2146 37.8469 18.0526C40.6649 22.1336 44.6879 30.9946 46.4549 37.0176C46.6139 37.5726 46.5129 38.1546 46.1779 38.6196C45.8449 39.0826 45.3279 39.3616 44.7609 39.3866C39.8259 39.6166 30.5479 40.3356 23.8449 42.5776C23.5899 42.6626 23.3269 42.6906 23.0699 42.6636ZM35.3299 18.0896C35.3009 18.0866 35.2719 18.0846 35.2439 18.0826C34.6669 18.0496 34.1189 18.2766 33.7409 18.7066C31.5749 21.1726 27.9319 26.9856 22.8859 40.6686C22.8049 40.8926 22.9239 41.0496 22.9799 41.1056C23.0329 41.1596 23.1779 41.2776 23.3879 41.2066C29.9139 39.0246 38.5769 38.2276 44.6969 37.9426H44.6989C44.8669 37.9356 44.9649 37.8336 45.0069 37.7746C45.0509 37.7136 45.1169 37.5866 45.0699 37.4196C43.3389 31.5206 39.4089 22.8516 36.6609 18.8736C36.3519 18.4286 35.8699 18.1456 35.3299 18.0896Z" fill="black"/>
<path d="M114.507 59.0594C114.203 59.8384 113.194 60.0334 112.625 59.4184C107.441 53.8694 100.267 49.2864 96.2895 46.9574C95.7335 46.6304 95.6205 45.8753 96.0675 45.4033C103.464 37.6313 112.908 30.5324 117.579 30.2794C118.678 30.2204 119.674 30.9183 119.998 31.9763C120.157 32.5043 120.283 33.1804 120.353 34.0434C120.533 36.2884 120.288 39.7963 119.059 45.0373C117.84 50.2073 115.622 56.1874 114.507 59.0594Z" fill="#CE273E"/>
<path d="M113.259 60.4946C112.82 60.4486 112.406 60.2456 112.095 59.9086C106.962 54.4136 99.7607 49.8256 95.9257 47.5806C95.4657 47.3096 95.1617 46.8546 95.0877 46.3306C95.0147 45.8086 95.1807 45.2896 95.5447 44.9066C102.605 37.4876 112.427 29.8346 117.541 29.5576C118.972 29.4826 120.268 30.3886 120.689 31.7646C120.875 32.3816 121.004 33.1286 121.073 33.9856C121.296 36.7686 120.855 40.5416 119.762 45.2016C118.553 50.3336 116.373 56.2496 115.181 59.3196L115.18 59.3206C114.945 59.9206 114.428 60.3506 113.797 60.4696C113.616 60.5056 113.436 60.5126 113.259 60.4946ZM117.881 31.0076C117.795 30.9986 117.707 30.9966 117.618 31.0016C113.504 31.2236 104.465 37.6296 96.5917 45.9026C96.5117 45.9866 96.5117 46.0816 96.5187 46.1306C96.5257 46.1806 96.5537 46.2746 96.6577 46.3366C100.559 48.6206 107.892 53.2946 113.154 58.9266C113.288 59.0726 113.447 59.0696 113.529 59.0536C113.596 59.0406 113.76 58.9906 113.835 58.7976C115.013 55.7626 117.166 49.9186 118.355 44.8736C119.673 39.2516 119.777 35.9136 119.632 34.1036C119.571 33.3486 119.461 32.7035 119.305 32.1865C119.106 31.5335 118.54 31.0766 117.881 31.0076Z" fill="black"/>
<path d="M47.0948 66.5586C41.1288 61.9306 34.6018 59.9406 27.3618 61.3106C29.0198 55.0776 34.7798 51.2056 40.2248 52.6536C45.6758 54.1036 48.7518 60.3246 47.0948 66.5586Z" fill="white"/>
<path d="M47.5127 67.7964L46.6517 67.1284C40.5617 62.4044 34.2947 60.7324 27.4967 62.0204L26.3687 62.2344L26.6637 61.1255C28.4207 54.5215 34.5857 50.4085 40.4107 51.9565C43.2527 52.7125 45.5827 54.6784 46.9737 57.4924C48.3497 60.2754 48.6397 63.5604 47.7937 66.7444L47.5127 67.7964ZM34.1417 60.2914C38.4607 60.7404 42.6387 62.4174 46.6317 65.3084C47.0747 62.8064 46.7467 60.2934 45.6777 58.1314C44.4737 55.6954 42.4717 53.9984 40.0387 53.3514C35.3107 52.0944 30.2957 55.2144 28.4017 60.4064C30.3387 60.1334 32.2537 60.0954 34.1417 60.2914Z" fill="black"/>
<path d="M101.77 81.0984C96.2281 75.3794 89.5521 74.0074 82.0371 75.8504C83.6951 69.6174 89.4551 65.7454 94.9071 67.1954C100.352 68.6434 103.428 74.8654 101.77 81.0984Z" fill="white"/>
<path d="M102.14 82.5174L101.251 81.6003C96.1299 76.3163 89.9019 74.6654 82.2089 76.5514L81.0259 76.8414L81.3389 75.6644C83.0959 69.0604 89.2639 64.9423 95.0919 66.4973C97.9299 67.2513 100.259 69.2173 101.649 72.0323C103.023 74.8153 103.314 78.1003 102.468 81.2833L102.14 82.5174ZM90.1229 74.4813C94.3229 74.9183 98.0729 76.6494 101.338 79.6674C101.734 77.2264 101.396 74.7824 100.354 72.6724C99.1509 70.2364 97.1509 68.5393 94.7209 67.8933C90.0089 66.6413 85.0189 69.7253 83.1039 74.8723C85.5649 74.3803 87.9079 74.2503 90.1229 74.4813Z" fill="black"/>
<path d="M66.816 87.8414L66.723 88.1904C65.893 91.3104 62.696 93.1584 59.576 92.3284L57.252 91.7104C54.139 90.8824 52.282 87.6904 53.112 84.5704L53.205 84.2214C53.606 82.7134 55.154 81.8104 56.662 82.2114L64.808 84.3774C66.315 84.7784 67.217 86.3334 66.816 87.8414Z" fill="#E9A628"/>
<path d="M60.4029 93.2135C60.0659 93.1785 59.7279 93.1165 59.3909 93.0265L57.0659 92.4085C53.5719 91.4795 51.4849 87.8805 52.4129 84.3845L52.5049 84.0365C53.0099 82.1415 54.9589 81.0095 56.8459 81.5125L64.9919 83.6785C66.8849 84.1815 68.0159 86.1315 67.5129 88.0245L67.4199 88.3735C66.5809 91.5335 63.5589 93.5415 60.4029 93.2135ZM56.1529 82.8495C55.1419 82.7445 54.1729 83.3905 53.9019 84.4065L53.8109 84.7545C53.0859 87.4805 54.7129 90.2865 57.4379 91.0115L59.7629 91.6295C62.5009 92.3565 65.3019 90.7285 66.0269 88.0035L66.1189 87.6545C66.4179 86.5305 65.7469 85.3735 64.6239 85.0745L56.4779 82.9085C56.3679 82.8805 56.2599 82.8615 56.1529 82.8495Z" fill="black"/>
<path d="M61.5548 104.447C57.5898 107.047 52.3528 105.692 49.9048 101.461C56.9078 100.169 57.9768 91.9043 57.9768 91.9043L59.4778 92.3033C59.4778 92.3033 56.3858 99.7993 61.5118 104.413C61.5238 104.423 61.5428 104.436 61.5548 104.447Z" fill="white"/>
<path d="M56.2726 106.447C55.8956 106.408 55.5186 106.344 55.1426 106.255C52.6776 105.67 50.5956 104.096 49.2806 101.822L48.7686 100.936L49.7756 100.75C56.1856 99.5682 57.2526 91.8882 57.2616 91.8102L57.3676 90.9932L60.4596 91.8152L60.1476 92.5772C60.1186 92.6472 57.3186 99.6652 61.9976 103.876L62.6936 104.503L61.9526 105.051C60.2396 106.173 58.2586 106.654 56.2726 106.447ZM51.0716 101.922C52.1766 103.405 53.7106 104.43 55.4756 104.849C57.1416 105.245 58.8496 105.047 60.3676 104.296C57.2776 100.943 57.6266 96.5822 58.1956 94.0612C57.4066 96.5632 55.4786 100.605 51.0716 101.922Z" fill="black"/>
<path d="M65.1798 107.351C63.5468 106.76 62.1658 105.964 61.0728 104.985L62.0368 103.909C62.9898 104.764 64.2128 105.465 65.6708 105.992L65.1798 107.351Z" fill="black"/>
<path d="M46.6018 102.277C46.2568 102.241 45.9048 102.192 45.5488 102.13L45.7948 100.707C47.2498 100.958 48.5878 100.973 49.7728 100.751L50.0388 102.171C48.9808 102.37 47.8288 102.405 46.6018 102.277Z" fill="black"/>
<path d="M44.278 88.5308C48.232 97.8448 46.138 105.717 37.998 112.147Z" fill="#E9A628"/>
<path d="M38.4448 112.714L37.5498 111.581C45.4748 105.321 47.4588 97.8735 43.6128 88.8135L44.9418 88.2485C49.0208 97.8555 46.8348 106.088 38.4448 112.714Z" fill="black"/>
<path d="M73.1287 96.2036C64.9537 102.293 62.8607 110.165 66.8487 119.82Z" fill="#E9A628"/>
<path d="M66.1805 120.096C62.0695 110.141 64.2615 101.908 72.6975 95.6245L73.5595 96.7825C65.6125 102.703 63.6345 110.147 67.5155 119.544L66.1805 120.096Z" fill="black"/>
<path d="M46.4611 63.355C45.2871 67.769 41.2081 70.515 37.3491 69.489C33.4901 68.463 31.3141 64.053 32.4881 59.639C33.6621 55.225 37.7411 52.479 41.6001 53.505C45.4581 54.531 47.6351 58.941 46.4611 63.355Z" fill="#000009"/>
<path d="M38.2649 70.3902C37.8959 70.3522 37.5279 70.2842 37.1629 70.1872C32.9259 69.0602 30.5149 64.2452 31.7889 59.4542C33.0639 54.6612 37.5509 51.6812 41.7849 52.8072C43.8559 53.3582 45.5529 54.7902 46.5649 56.8402C47.5609 58.8572 47.7719 61.2372 47.1589 63.5412C46.5459 65.8452 45.1809 67.8052 43.3149 69.0622C41.7529 70.1132 39.9939 70.5702 38.2649 70.3902ZM40.5459 54.0432C37.3499 53.7112 34.1669 56.1372 33.1859 59.8252C32.1159 63.8472 34.0669 67.8692 37.5339 68.7912C39.1939 69.2332 40.9619 68.9042 42.5079 67.8632C44.0839 66.8022 45.2399 65.1352 45.7619 63.1692C46.2849 61.2032 46.1099 59.1822 45.2699 57.4792C44.4449 55.8082 43.0759 54.6452 41.4139 54.2032C41.1259 54.1262 40.8359 54.0732 40.5459 54.0432Z" fill="black"/>
<path d="M101.574 78.6687C100.334 83.3327 96.0231 86.2347 91.9461 85.1507C87.8691 84.0667 85.5691 79.4067 86.8091 74.7427C88.0491 70.0787 92.36 67.1767 96.437 68.2607C100.515 69.3447 102.815 74.0047 101.574 78.6687Z" fill="#000009"/>
<path d="M92.9178 86.0616C92.5298 86.0216 92.1438 85.9506 91.7608 85.8486C87.3048 84.6636 84.7708 79.5976 86.1118 74.5566C87.4528 69.5156 92.1748 66.3796 96.6238 67.5626C98.7998 68.1416 100.585 69.6466 101.648 71.8026C102.696 73.9256 102.917 76.4296 102.273 78.8546C101.628 81.2786 100.192 83.3426 98.2278 84.6646C96.5848 85.7706 94.7348 86.2506 92.9178 86.0616ZM95.3288 68.7886C91.9328 68.4356 88.5488 71.0116 87.5078 74.9276C86.3708 79.1986 88.4458 83.4716 92.1308 84.4526C93.9008 84.9216 95.7768 84.5726 97.4208 83.4666C99.0948 82.3396 100.321 80.5706 100.876 78.4836C101.431 76.3976 101.245 74.2516 100.352 72.4426C99.4758 70.6666 98.0198 69.4296 96.2518 68.9596C95.9448 68.8766 95.6368 68.8206 95.3288 68.7886Z" fill="black"/>
<path d="M76.2769 38.3543L72.2099 53.6473C71.7739 55.2873 70.0879 56.2593 68.4549 55.8253L68.4479 55.8233C66.8149 55.3893 65.8409 53.7103 66.2769 52.0693L70.2269 37.2153C71.9279 37.4803 73.6239 37.7903 75.3239 38.1443C75.6409 38.2153 75.9609 38.2783 76.2769 38.3543Z" fill="#DD6818"/>
<path d="M68.8529 56.6314C68.6589 56.6114 68.4639 56.5754 68.2689 56.5234C67.2839 56.2614 66.4669 55.6364 65.9599 54.7614C65.4529 53.8854 65.3179 52.8634 65.5779 51.8844L69.5269 37.0304C69.6219 36.6734 69.9749 36.4474 70.3359 36.5024C72.0419 36.7684 73.7699 37.0834 75.4689 37.4384L75.7899 37.5064C76.0089 37.5524 76.2279 37.5994 76.4449 37.6514C76.6339 37.6974 76.7959 37.8174 76.8959 37.9844C76.9959 38.1514 77.0229 38.3514 76.9739 38.5394L72.9069 53.8324C72.4219 55.6594 70.6749 56.8214 68.8529 56.6314ZM70.7569 38.0324L66.9749 52.2564C66.8129 52.8634 66.8969 53.4954 67.2109 54.0374C67.5239 54.5784 68.0289 54.9654 68.6319 55.1254C69.8919 55.4574 71.1779 54.7124 71.5119 53.4624L75.3849 38.8974L75.1689 38.8514C73.7109 38.5474 72.2289 38.2724 70.7569 38.0324Z" fill="black"/>
<path d="M86.0646 41.0024L82.5876 54.0764C82.1536 55.7094 80.4726 56.6905 78.8326 56.2545C77.1926 55.8185 76.2206 54.1325 76.6546 52.4995L80.1666 39.2935L80.3486 39.3415C82.1236 39.8065 83.9006 40.3164 85.6726 40.8764L86.0646 41.0024Z" fill="#DD6818"/>
<path d="M79.2318 57.0594C79.0378 57.0394 78.8428 57.0034 78.6478 56.9514C77.6688 56.6914 76.8498 56.0644 76.3408 55.1864C75.8338 54.3104 75.6968 53.2894 75.9568 52.3124L79.4688 39.1064C79.5188 38.9214 79.6388 38.7634 79.8058 38.6674C79.9708 38.5714 80.1648 38.5434 80.3538 38.5944L80.5348 38.6424C82.3588 39.1194 84.1618 39.6394 85.8908 40.1874L86.2868 40.3154C86.6528 40.4334 86.8618 40.8164 86.7638 41.1884L83.2868 54.2624C82.8018 56.0884 81.0548 57.2494 79.2318 57.0594ZM80.6798 40.1744L77.3538 52.6844C77.1928 53.2884 77.2768 53.9204 77.5918 54.4634C77.9068 55.0074 78.4138 55.3954 79.0188 55.5564C80.2758 55.8914 81.5578 55.1424 81.8908 53.8904L85.1908 41.4814C83.7308 41.0234 82.2158 40.5844 80.6798 40.1744Z" fill="black"/>
<path d="M64.9188 36.5456L62.1028 47.1346C61.6688 48.7676 59.9808 49.7466 58.3468 49.3126C56.7068 48.8766 55.7348 47.1906 56.1688 45.5576L58.6618 36.1836C60.2448 36.2156 61.8308 36.2936 63.4198 36.4176C63.9178 36.4586 64.4148 36.5006 64.9188 36.5456Z" fill="#DD6818"/>
<path d="M58.746 50.1176C58.552 50.0976 58.357 50.0616 58.162 50.0106C57.183 49.7506 56.364 49.1236 55.855 48.2456C55.348 47.3696 55.211 46.3486 55.471 45.3716L57.964 35.9976C58.05 35.6756 58.344 35.4546 58.677 35.4616C60.262 35.4936 61.877 35.5726 63.476 35.6976L64.982 35.8276C65.196 35.8526 65.387 35.9576 65.51 36.1326C65.632 36.3066 65.672 36.5266 65.617 36.7326L62.801 47.3216C62.316 49.1456 60.569 50.3076 58.746 50.1176ZM59.215 36.9176L56.869 45.7416C56.708 46.3456 56.792 46.9776 57.107 47.5206C57.422 48.0646 57.929 48.4516 58.534 48.6136C59.782 48.9436 61.073 48.1986 61.406 46.9476L64.001 37.1906L63.361 37.1356C61.983 37.0286 60.59 36.9556 59.215 36.9176Z" fill="black"/>
<path d="M47.0949 66.5585C45.4369 72.7915 39.6749 76.6705 34.2239 75.2205C28.7789 73.7725 25.7049 67.5435 27.3619 61.3105C34.6019 59.9395 41.1279 61.9295 47.0949 66.5585Z" fill="#CE273E"/>
<path d="M35.5288 76.1926C35.0308 76.1406 34.5328 76.0506 34.0378 75.9186C28.2138 74.3696 24.9058 67.7336 26.6628 61.1246L26.7798 60.6856L27.2258 60.6006C34.3558 59.2506 41.1888 61.0636 47.5368 65.9876L47.9148 66.2806L47.7918 66.7436C46.1838 72.7906 40.8818 76.7496 35.5288 76.1926ZM27.9498 61.9386C26.6518 67.6276 29.4828 73.2126 34.4088 74.5226C39.3308 75.8316 44.5578 72.4026 46.2648 66.8326C40.4328 62.4376 34.4318 60.8346 27.9498 61.9386Z" fill="black"/>
<path d="M101.77 81.0986C100.112 87.3316 94.3501 91.2106 88.9051 89.7626C83.4541 88.3126 80.3791 82.0846 82.0371 75.8506C89.5531 74.0076 96.2291 75.3796 101.77 81.0986Z" fill="#CE273E"/>
<path d="M90.227 90.7375C89.722 90.6845 89.2189 90.5925 88.7209 90.4605C85.8799 89.7045 83.549 87.7375 82.158 84.9205C80.783 82.1355 80.493 78.8495 81.339 75.6655L81.449 75.2515L81.865 75.1495C89.985 73.1585 96.857 74.9915 102.289 80.5955L102.573 80.8885L102.468 81.2835C101.621 84.4665 99.737 87.1755 97.161 88.9095C95.014 90.3565 92.599 90.9845 90.227 90.7375ZM82.632 76.4515C82.006 79.1655 82.292 81.9295 83.453 84.2805C84.657 86.7185 86.659 88.4175 89.091 89.0645C91.521 89.7095 94.099 89.2305 96.354 87.7115C98.533 86.2445 100.158 83.9805 100.96 81.3055C95.9909 76.3515 89.988 74.7605 82.632 76.4515Z" fill="black"/>
<path d="M40.716 98.3146C40.1989 100.261 35.674 100.746 30.611 99.3996C25.547 98.0526 21.862 95.3846 22.379 93.4386C22.896 91.4936 27.421 91.0076 32.484 92.3536C37.548 93.7006 41.233 96.3696 40.716 98.3146Z" fill="#CE273E"/>
<path d="M89.6256 111.321C89.1086 113.267 84.5836 113.752 79.5206 112.406C74.4566 111.059 70.7716 108.391 71.2886 106.445C71.8056 104.499 76.3306 104.014 81.3936 105.36C86.4576 106.707 90.1426 109.375 89.6256 111.321Z" fill="#CE273E"/>
</svg>
