<svg width="156" height="135" viewBox="0 0 156 135" fill="none" xmlns="http://www.w3.org/2000/svg">
<path d="M72.2955 133.543C67.9895 132.822 64.7855 130.801 62.2105 129.177C61.5635 128.77 60.4154 128.044 59.8664 127.797C59.2984 127.821 58.0415 128.059 57.1835 128.221C55.3785 128.562 53.1615 128.98 50.7065 129.04C49.2245 129.075 47.7304 128.968 46.2634 128.722C40.9704 127.836 35.9245 125.118 32.0545 121.07C27.0515 115.839 24.4525 108.92 24.9255 102.085C25.0065 100.907 25.1655 99.82 25.3005 98.926C24.3945 98.467 23.1885 97.9791 22.0075 97.5011C20.5205 96.9001 18.8415 96.221 17.1245 95.357C15.6075 94.593 10.9895 92.2691 8.54045 87.1121C6.41645 82.6441 7.02147 78.24 7.21947 76.792C7.55647 74.341 8.15546 71.9441 9.00746 69.6351C7.73346 68.7321 6.37647 67.5761 5.17647 66.0571C0.0194697 59.5291 -0.223559 49.6761 0.0904409 44.3841C0.612441 35.5641 4.78647 27.6831 11.2535 23.3031C17.7315 18.9141 24.6805 18.7491 30.2645 18.6161C32.5435 18.5621 34.8984 18.5071 36.5094 18.1251C38.7434 17.5951 41.5985 15.95 44.3605 14.361C50.2895 10.948 57.6685 6.70006 67.0155 7.87106C67.3595 7.91406 67.7044 7.96406 68.0484 8.02206C70.5544 8.44206 72.7324 9.19406 74.4834 9.79906C75.6424 10.1991 76.7364 10.5781 77.4314 10.6941C79.6574 11.0671 83.0184 9.71607 86.9104 8.15307C90.2934 6.79307 93.7924 5.38605 97.8404 4.54705C101.01 3.88905 103.852 3.78805 106.529 4.23605C107.587 4.41305 108.625 4.67905 109.614 5.02605C112.437 6.01505 114.553 7.55206 115.952 8.57006L116.115 8.68804C116.406 8.89804 116.641 9.07106 116.885 9.22906C117.471 9.61006 118.171 9.87605 118.912 10.0001C119.476 10.0951 120.03 10.102 120.557 10.021C121.255 9.91405 122.347 9.60906 123.309 9.34106C126.44 8.46806 130.73 7.27104 135.665 8.09804C136.297 8.20404 136.928 8.34205 137.543 8.50805C146.529 10.954 150.798 18.834 152.543 23.313C156.329 33.029 155.988 44.4871 151.633 53.9621C150.252 56.9701 148.648 59.4871 147.097 61.9221C146.571 62.7491 146.043 63.579 145.552 64.391C148.506 68.435 150.08 72.6831 150.237 77.0521C150.662 88.7921 141.353 96.7131 132.5 100.212L131.587 100.57C131.042 100.782 130.587 100.965 130.206 101.123C130.206 101.905 130.174 102.784 130.061 103.724C129.248 110.465 124.7 116.551 118.191 119.608C113.582 121.773 108.123 122.42 102.404 121.48C100.697 121.176 99.1844 120.835 98.1894 120.603C97.1384 120.359 96.1835 120.138 95.3995 120.007C95.2045 119.974 95.0385 119.951 94.9005 119.934C94.3435 120.613 93.5714 121.729 93.1474 122.342C90.5054 126.16 86.0844 132.55 77.6174 133.644C75.8624 133.871 74.0714 133.836 72.2974 133.539L72.2955 133.543Z" fill="#E9D1A3"/>
<path d="M87.3284 134.187C82.9624 134.187 79.4684 132.723 76.6604 131.547C75.9554 131.252 74.7024 130.727 74.1214 130.574C73.5644 130.691 72.3645 131.134 71.5455 131.436C69.8215 132.07 67.7044 132.849 65.2934 133.314C63.8374 133.593 62.3465 133.735 60.8595 133.735C55.4925 133.735 50.0665 131.888 45.5815 128.536C39.7835 124.204 36.0774 117.808 35.4144 110.99C35.2994 109.815 35.2775 108.716 35.2625 107.813C34.2925 107.51 33.0225 107.228 31.7795 106.951C30.2135 106.604 28.4465 106.212 26.6095 105.643C24.9875 105.14 20.0485 103.611 16.7815 98.929C13.9485 94.873 13.8175 90.429 13.7745 88.969C13.7025 86.496 13.8975 84.033 14.3555 81.615C12.9505 80.935 11.4205 80.019 9.98647 78.719C3.82247 73.132 1.95546 63.455 1.39046 58.184C0.448461 49.399 3.26244 40.937 8.91845 35.548C14.5824 30.15 21.4095 28.838 26.8945 27.785C29.1335 27.356 31.4465 26.912 32.9715 26.269C35.0865 25.377 37.6315 23.283 40.0935 21.26C45.3765 16.914 51.9525 11.506 61.3655 11.117C61.7115 11.103 62.0605 11.095 62.4085 11.095C64.9495 11.095 67.2224 11.477 69.0484 11.784C70.2584 11.987 71.3994 12.18 72.1034 12.18C74.3604 12.18 77.4525 10.293 81.0325 8.108C84.1445 6.208 87.3634 4.242 91.2164 2.746C94.2344 1.574 97.0205 1.004 99.7345 1.004C100.807 1.004 101.874 1.09501 102.908 1.27301C105.855 1.78201 108.196 2.94901 109.745 3.72101L109.925 3.811C110.246 3.97 110.507 4.10101 110.774 4.21701C111.414 4.49601 112.15 4.64301 112.901 4.64301C113.473 4.64301 114.02 4.558 114.527 4.392C115.198 4.171 116.224 3.69 117.129 3.267C120.073 1.888 124.106 0 129.11 0C129.75 0 130.395 0.0320012 131.03 0.0950012C140.297 1.023 145.809 8.08899 148.27 12.219C153.609 21.176 155.166 32.533 152.435 42.597C151.57 45.791 150.404 48.54 149.276 51.197C148.894 52.099 148.51 53.006 148.16 53.888C151.741 57.388 153.995 61.318 154.873 65.601C157.231 77.109 149.359 86.46 141.205 91.373L140.364 91.877C139.862 92.176 139.442 92.432 139.093 92.65C139.223 93.422 139.336 94.293 139.379 95.24C139.69 102.023 136.21 108.777 130.296 112.867C126.108 115.763 120.831 117.303 115.035 117.321C113.302 117.303 111.753 117.216 110.734 117.153C109.657 117.086 108.678 117.026 107.884 117.026C107.686 117.026 107.519 117.03 107.379 117.036C106.942 117.798 106.365 119.026 106.048 119.701C104.073 123.903 100.768 130.935 92.5994 133.413C90.9054 133.927 89.1345 134.188 87.3355 134.188L87.3284 134.187Z" fill="white"/>
<path d="M87.3277 128.623C84.0787 128.623 81.2777 127.449 78.8077 126.414C77.2167 125.748 75.5737 125.059 74.3927 124.997C74.3007 124.992 74.2317 124.989 74.1627 124.989C72.9467 124.989 71.4037 125.557 69.6187 126.215C68.0077 126.808 66.2127 127.469 64.2387 127.85C63.1337 128.062 61.9977 128.17 60.8587 128.17C56.6847 128.17 52.4417 126.717 48.9117 124.078C44.3657 120.681 41.4637 115.713 40.9517 110.45C40.8507 109.417 40.8357 108.419 40.8227 107.538C40.8047 106.368 40.7837 104.931 40.5157 104.471C40.5107 104.461 40.3547 104.201 39.7547 103.794C38.0617 102.645 35.7057 102.122 32.9767 101.516C31.4487 101.177 29.8687 100.826 28.2527 100.326C26.2197 99.6959 23.2907 98.5349 21.3427 95.7429C19.6547 93.3259 19.3867 90.6249 19.3337 88.8039C19.2467 85.8379 19.6197 82.8929 20.4407 80.0469L20.6447 79.3609C20.7437 79.0329 20.8647 78.6369 20.9487 78.3139C20.4917 78.1029 19.8367 77.8559 19.3507 77.6729C17.6417 77.0289 15.5237 76.2299 13.7217 74.5969C8.92168 70.2469 7.40069 62.0759 6.92069 57.5919C6.16269 50.5149 8.34267 43.7799 12.7547 39.5779C17.2357 35.3069 22.9247 34.2149 27.9447 33.2509C30.4657 32.7669 33.0697 32.2669 35.1327 31.3969C37.9937 30.1909 40.8567 27.8359 43.6257 25.5589C48.5097 21.5419 54.0447 16.9899 61.5927 16.6779C61.8597 16.6669 62.1327 16.6609 62.4067 16.6609C64.4797 16.6609 66.4157 16.9859 68.1237 17.2729C69.6557 17.5309 70.9377 17.7459 72.1017 17.7459C75.9217 17.7459 79.6327 15.4819 83.9287 12.8589C86.8347 11.0839 89.8397 9.24991 93.2277 7.93491C95.5937 7.01691 97.7217 6.56992 99.7327 6.56992C100.484 6.56992 101.234 6.6329 101.959 6.7579C104.1 7.1279 105.853 8.00191 107.261 8.70291L107.337 8.74091C107.741 8.94091 108.143 9.1439 108.554 9.3219C109.888 9.9019 111.391 10.2089 112.899 10.2089C114.064 10.2089 115.196 10.0309 116.263 9.6799C117.249 9.3559 118.386 8.8239 119.486 8.3089C122.102 7.0839 125.345 5.56689 129.109 5.56689C129.567 5.56689 130.027 5.58892 130.478 5.63492C137.315 6.31992 141.563 11.8409 143.488 15.0709C148.07 22.7589 149.406 32.5059 147.062 41.1439C146.294 43.9779 145.201 46.5539 144.144 49.0439C143.216 51.2339 142.257 53.4939 141.687 55.6469L141.737 55.6849C146.004 58.9509 148.588 62.6629 149.419 66.7199C151.195 75.3869 144.856 82.6779 138.331 86.6099L137.506 87.1039C136.094 87.9439 133.172 89.6819 133.079 90.5159C133.049 90.7849 133.216 91.5979 133.338 92.1909C133.527 93.1119 133.76 94.2449 133.818 95.4979C134.042 100.382 131.479 105.285 127.129 108.293C123.871 110.546 119.682 111.745 115.016 111.76C113.498 111.744 112.046 111.663 111.08 111.602C109.933 111.531 108.861 111.464 107.881 111.464C106.102 111.464 104.978 111.691 104.235 112.2C103.038 113.019 102.006 115.215 101.009 117.338C99.2247 121.134 96.7837 126.33 90.9817 128.09C89.8107 128.446 88.5827 128.626 87.3327 128.626H87.3277V128.623Z" fill="#000009"/>
<path d="M12.4538 56.9982C11.9378 52.1842 13.0879 46.9442 16.5929 43.6042C21.9349 38.5132 30.4958 39.3902 37.2948 36.5222C46.1418 32.7912 52.2289 22.6322 61.8229 22.2352C65.2709 22.0922 68.6509 23.3072 72.1019 23.3082C80.6229 23.3082 87.2988 16.2042 95.2418 13.1202C97.0788 12.4072 99.0718 11.9042 101.015 12.2402C102.91 12.5682 104.572 13.6562 106.336 14.4232C109.986 16.0112 114.222 16.2072 118.003 14.9632C122.011 13.6442 125.734 10.7492 129.933 11.1692C133.744 11.5502 136.749 14.6252 138.709 17.9162C142.561 24.3792 143.664 32.4222 141.693 39.6842C140.291 44.8532 137.434 49.5502 136.173 54.7552C135.937 55.7302 135.763 56.7812 136.124 57.7182C136.522 58.7492 137.481 59.4322 138.359 60.1042C140.943 62.0822 143.316 64.6472 143.969 67.8352C145.14 73.5492 140.456 78.8312 135.46 81.8432C132.109 83.8632 127.986 86.0052 127.55 89.8932C127.33 91.8542 128.169 93.7792 128.26 95.7502C128.405 98.8952 126.555 101.922 123.966 103.713C121.376 105.504 118.148 106.182 115 106.193C110.251 106.209 105.01 104.924 101.092 107.607C95.6858 111.309 95.6368 120.862 89.3668 122.764C84.4848 124.245 79.7819 119.709 74.6879 119.441C70.7129 119.232 67.0948 121.634 63.1868 122.387C55.5098 123.866 47.2498 117.693 46.4918 109.912C46.2198 107.122 46.7378 104.097 45.3278 101.674C44.7388 100.661 43.8519 99.8492 42.8819 99.1912C39.1009 96.6252 34.2689 96.3642 29.9029 95.0122C28.3829 94.5412 26.8199 93.8662 25.9089 92.5612C25.1249 91.4382 24.9389 90.0092 24.8989 88.6402C24.8289 86.2632 25.1308 83.8752 25.7898 81.5902C26.2338 80.0532 26.8459 78.4702 26.5369 76.9012C25.6979 72.6322 20.1729 72.9332 17.4599 70.4742C14.2129 67.5302 12.8948 61.1122 12.4538 56.9982Z" fill="#DA2444"/>
<path d="M87.3317 123.853C85.0397 123.854 82.8177 122.922 80.6507 122.014C78.6847 121.19 76.6517 120.339 74.6447 120.233C72.4007 120.104 70.2287 120.908 67.9447 121.748C66.4607 122.295 64.9257 122.859 63.3357 123.166C59.4577 123.912 55.2397 122.852 51.7677 120.257C48.2937 117.661 46.0827 113.918 45.6997 109.987C45.6177 109.144 45.6047 108.283 45.5927 107.451C45.5627 105.476 45.5357 103.611 44.6397 102.072C44.1737 101.272 43.4317 100.523 42.4337 99.8461C39.9877 98.1861 37.0857 97.5411 34.0117 96.8591C32.5767 96.5411 31.0937 96.2121 29.6657 95.7691C28.1877 95.3111 26.3517 94.5841 25.2557 93.0131C24.3067 91.6551 24.1407 89.9741 24.1017 88.6611C24.0297 86.1911 24.3397 83.7371 25.0237 81.3671C25.0887 81.1431 25.1577 80.9181 25.2257 80.6921C25.6137 79.4111 25.9807 78.2021 25.7547 77.0521C25.3167 74.8231 23.3317 74.0751 21.0337 73.2091C19.5707 72.6571 18.0577 72.0871 16.9247 71.0611C13.1627 67.6511 11.9927 60.1501 11.6637 57.0821C11.0617 51.4691 12.6987 46.2161 16.0447 43.0281C19.5107 39.7241 24.2557 38.8131 28.8437 37.9321C31.6047 37.4021 34.4607 36.8541 36.9857 35.7891C40.4847 34.3141 43.6217 31.7351 46.6547 29.2401C51.1697 25.5271 55.8387 21.6881 61.7887 21.4411C63.6897 21.3591 65.5617 21.6771 67.3727 21.9811C68.9997 22.2541 70.5367 22.5131 72.1007 22.5131C77.2617 22.5131 81.7067 19.8001 86.4137 16.9271C89.1417 15.2621 91.9627 13.5401 94.9527 12.3801C97.3767 11.4391 99.3457 11.1461 101.148 11.4571C102.595 11.7071 103.884 12.3491 105.132 12.9711C105.636 13.2211 106.139 13.4721 106.651 13.6951C110.116 15.2011 114.162 15.3911 117.753 14.2091C119.014 13.7951 120.287 13.1981 121.518 12.6221C124.195 11.3691 126.96 10.0781 130.01 10.3791C134.757 10.8551 137.925 15.0511 139.391 17.5101C143.324 24.1101 144.471 32.4781 142.459 39.8931C141.776 42.4121 140.748 44.8361 139.754 47.1801C138.69 49.6901 137.589 52.2861 136.945 54.9431C136.736 55.8041 136.582 56.7011 136.864 57.4331C137.157 58.1901 137.895 58.7521 138.676 59.3471L138.84 59.4731C142.165 62.0181 144.152 64.7771 144.746 67.6751C146.023 73.9081 140.997 79.4321 135.868 82.5231L135.058 83.0071C131.93 84.8681 128.695 86.7931 128.337 89.9821C128.222 91.0031 128.437 92.0471 128.665 93.1521C128.835 93.9791 129.011 94.8331 129.052 95.7151C129.202 98.9711 127.426 102.287 124.415 104.368C121.953 106.07 118.698 106.977 115 106.989C113.8 106.977 112.569 106.915 111.376 106.841C107.72 106.614 104.264 106.396 101.538 108.264C99.2707 109.816 97.9587 112.61 96.6887 115.31C95.0557 118.786 93.3657 122.381 89.5937 123.525C88.8337 123.754 88.0787 123.853 87.3317 123.853ZM74.1967 118.632C74.3727 118.632 74.5497 118.636 74.7277 118.645C77.0117 118.765 79.1737 119.671 81.2637 120.548C83.9997 121.694 86.5797 122.777 89.1347 122.002C92.2297 121.063 93.6977 117.94 95.2507 114.633C96.6107 111.739 98.0167 108.746 100.64 106.95C103.82 104.773 107.712 105.018 111.476 105.252C112.645 105.325 113.873 105.383 114.996 105.397C118.371 105.386 121.316 104.577 123.513 103.059C126.037 101.313 127.589 98.4591 127.465 95.7861C127.43 95.0301 127.274 94.2721 127.11 93.4711C126.868 92.2941 126.617 91.0751 126.759 89.8041C127.206 85.8291 130.947 83.6041 134.247 81.6401L135.049 81.1611C139.713 78.3501 144.301 73.4151 143.191 67.9941C142.676 65.4821 140.888 63.0391 137.877 60.7341L137.715 60.6111C136.835 59.9411 135.838 59.1811 135.384 58.0041C134.943 56.8611 135.146 55.6251 135.403 54.5671C136.077 51.7821 137.203 49.1271 138.293 46.5571C139.266 44.2621 140.273 41.8891 140.928 39.4751C142.829 32.4671 141.746 24.5591 138.028 18.3221C136.716 16.1201 133.909 12.3661 129.855 11.9601C127.239 11.6931 124.79 12.8471 122.195 14.0611C120.921 14.6571 119.605 15.2731 118.253 15.7181C114.298 17.0181 109.84 16.8131 106.02 15.1511C105.482 14.9171 104.954 14.6541 104.426 14.3921C103.229 13.7961 102.097 13.2321 100.881 13.0221C99.3727 12.7601 97.6747 13.0281 95.5317 13.8611C92.6737 14.9691 89.9137 16.6541 87.2457 18.2831C82.5587 21.1441 77.7117 24.1021 72.1047 24.1021C70.4077 24.1021 68.7327 23.8201 67.1127 23.5491C65.3027 23.2451 63.5957 22.9581 61.8577 23.0291C56.4397 23.2531 52.1787 26.7581 47.6677 30.4671C44.5467 33.0341 41.3187 35.6881 37.6067 37.2541C34.9277 38.3841 31.9887 38.9481 29.1467 39.4941C24.5827 40.3701 20.2717 41.1971 17.1437 44.1791C14.1547 47.0281 12.6967 51.7881 13.2467 56.9131C13.5567 59.7991 14.6377 66.8391 17.9957 69.8821C18.9037 70.7061 20.2117 71.1991 21.5967 71.7201C23.9927 72.6241 26.7087 73.6481 27.3177 76.7441C27.6207 78.2831 27.1777 79.7421 26.7497 81.1531C26.6827 81.3731 26.6167 81.5911 26.5537 81.8081C25.9147 84.0191 25.6257 86.3091 25.6937 88.6141C25.7257 89.7051 25.8537 91.0891 26.5617 92.1031C27.3807 93.2781 28.9027 93.8671 30.1377 94.2501C31.5037 94.6721 32.9537 94.9951 34.3577 95.3061C37.4417 95.9911 40.6297 96.6991 43.3277 98.5301C44.5227 99.3401 45.4277 100.263 46.0147 101.271C47.1197 103.169 47.1517 105.333 47.1827 107.426C47.1947 108.226 47.2067 109.054 47.2817 109.832C47.6217 113.319 49.6027 116.654 52.7187 118.982C55.8357 121.31 59.5977 122.267 63.0347 121.603C64.4977 121.322 65.9707 120.779 67.3957 120.255C69.5677 119.457 71.8107 118.632 74.1967 118.632Z" fill="black"/>
<path d="M86.6157 114.116C85.9307 113.884 85.0157 113.5 84.3357 113.216C81.8737 112.184 78.8087 110.9 75.1447 110.708C74.8267 110.691 74.5097 110.682 74.1947 110.682C70.3947 110.682 67.2087 111.855 64.6497 112.797C63.4717 113.231 62.3597 113.64 61.5317 113.799C61.3157 113.841 61.0897 113.862 60.8567 113.862C58.2827 113.862 55.4237 111.44 55.1917 109.063C55.1477 108.61 55.1387 107.979 55.1277 107.31C55.0907 104.786 55.0337 100.972 52.8817 97.2739C51.6897 95.2269 49.9757 93.4369 47.7857 91.9519C43.8337 89.2699 39.5337 88.3149 36.0777 87.5479C35.2327 87.3599 34.4177 87.1789 33.6627 86.9859C33.7317 85.9809 33.9067 84.9859 34.1877 84.0139L34.3527 83.4609C34.8927 81.6779 35.7977 78.6939 35.1127 75.2109C33.6507 67.7719 27.3997 65.4159 24.3957 64.2839C24.0297 64.1459 23.5267 63.9559 23.1947 63.8129C22.6647 62.9999 21.6077 60.3789 21.1457 56.0669C20.8707 53.5029 21.4637 51.0379 22.6217 49.9349C24.0607 48.5639 27.2557 47.9509 30.6397 47.3009C33.7337 46.7069 37.2417 46.0329 40.6897 44.5789C45.4677 42.5639 49.3157 39.3999 52.7117 36.6069C56.3147 33.6439 59.4257 31.0849 62.1807 30.9709C62.2527 30.9689 62.3227 30.9669 62.3937 30.9669C63.2867 30.9669 64.5027 31.1709 65.7897 31.3879C67.6417 31.6989 69.7387 32.0519 72.0997 32.0519C79.9407 32.0519 86.0197 28.3419 91.3817 25.0689C93.8627 23.5549 96.2047 22.1249 98.4027 21.2719C99.0287 21.0289 99.4067 20.9349 99.5977 20.8989C99.9217 21.0319 100.464 21.3009 100.88 21.5079C101.458 21.7959 102.112 22.1219 102.843 22.4399C105.967 23.7979 109.442 24.5169 112.894 24.5169C115.579 24.5169 118.217 24.097 120.733 23.269C122.539 22.675 124.145 21.9229 125.561 21.2599C126.677 20.7379 128.337 19.9609 129.009 19.8779C129.379 20.0709 130.276 20.8479 131.196 22.3919C133.832 26.8149 134.601 32.4229 133.252 37.3929C132.739 39.2849 131.88 41.3099 130.971 43.4539C129.813 46.1839 128.502 49.2779 127.674 52.6949C127.2 54.6469 126.714 57.6209 127.963 60.8619C129.23 64.1409 131.614 65.957 132.894 66.933L133.042 67.045C134.822 68.407 135.355 69.3619 135.402 69.5889C135.49 70.0179 134.272 72.3459 130.945 74.3519L130.181 74.808C126.279 77.131 119.746 81.0179 118.858 88.9149C118.575 91.4429 119.007 93.5399 119.322 95.0719C119.382 95.3639 119.459 95.7369 119.499 95.9809C119.416 96.1239 119.238 96.347 118.99 96.519C118.146 97.104 116.681 97.4409 114.97 97.4469H114.968C114.041 97.4469 113.037 97.3839 111.972 97.3169C110.679 97.2359 109.341 97.1519 107.91 97.1519C104.891 97.1519 100.386 97.4879 96.1487 100.389C91.7417 103.407 89.6117 107.94 88.0567 111.25C87.6427 112.133 87.0747 113.343 86.6157 114.116Z" fill="#E9A628"/>
<path d="M86.6157 114.911C86.5307 114.911 86.4447 114.898 86.3607 114.869C85.6507 114.628 84.7147 114.236 84.0307 113.949C81.6237 112.941 78.6297 111.686 75.1037 111.501C74.7997 111.485 74.4967 111.476 74.1957 111.476C70.5397 111.476 67.4287 112.62 64.9297 113.54C63.7187 113.986 62.5787 114.406 61.6827 114.579C61.4197 114.63 61.1417 114.656 60.8587 114.656C57.8717 114.656 54.6737 111.923 54.4027 109.139C54.3557 108.657 54.3457 108.013 54.3347 107.332C54.2987 104.881 54.2447 101.192 52.1967 97.674C51.0647 95.732 49.4317 94.028 47.3417 92.609C43.5137 90.011 39.2957 89.075 35.9077 88.324C35.0277 88.128 34.2187 87.948 33.4677 87.756C33.0957 87.661 32.8457 87.314 32.8717 86.932C32.9457 85.868 33.1317 84.812 33.4257 83.794L33.5937 83.234C34.1137 81.516 34.9817 78.652 34.3347 75.365C32.9577 68.359 26.9877 66.109 24.1177 65.028C23.7297 64.881 23.2197 64.688 22.8827 64.543C22.7387 64.482 22.6167 64.378 22.5307 64.247C21.9497 63.356 20.8397 60.648 20.3577 56.152C20.0537 53.31 20.7277 50.644 22.0767 49.36C23.6837 47.829 26.9887 47.194 30.4897 46.522C33.5487 45.935 37.0097 45.271 40.3847 43.848C45.0577 41.878 48.8567 38.753 52.2107 35.995C55.9227 32.941 59.1297 30.304 62.1517 30.179L62.3967 30.174C63.3597 30.174 64.6057 30.384 65.9247 30.606C67.7447 30.912 69.8067 31.259 72.1027 31.259C79.7207 31.259 85.6967 27.611 90.9707 24.393C93.4917 22.854 95.8587 21.41 98.1177 20.533C98.7837 20.275 99.2097 20.166 99.4517 20.12C99.6017 20.093 99.7597 20.108 99.9017 20.165C100.255 20.31 100.799 20.581 101.237 20.799C101.804 21.082 102.446 21.402 103.163 21.714C106.188 23.029 109.553 23.725 112.896 23.725C115.497 23.725 118.05 23.319 120.487 22.517C122.243 21.939 123.823 21.201 125.216 20.548C126.807 19.803 128.176 19.182 128.914 19.092C129.075 19.072 129.236 19.102 129.379 19.176C129.933 19.466 130.92 20.375 131.881 21.988C134.625 26.592 135.425 32.43 134.021 37.604C133.492 39.554 132.624 41.6 131.705 43.768C130.558 46.471 129.26 49.533 128.448 52.885C127.999 54.737 127.537 57.547 128.707 60.58C129.892 63.646 132.158 65.374 133.376 66.302L133.526 66.417C135.31 67.783 136.072 68.895 136.182 69.433C136.387 70.435 134.65 73.051 131.357 75.036L130.59 75.493C126.812 77.742 120.494 81.502 119.65 89.007C119.381 91.409 119.798 93.435 120.103 94.915C120.171 95.246 120.245 95.613 120.285 95.856C120.315 96.038 120.281 96.226 120.188 96.386C120.019 96.677 119.741 96.973 119.443 97.179C118.457 97.861 116.87 98.241 114.973 98.247C114.014 98.247 112.998 98.183 111.923 98.116C110.632 98.035 109.311 97.953 107.91 97.953C104.997 97.953 100.654 98.274 96.5977 101.051C92.3687 103.948 90.2917 108.367 88.7767 111.594C88.3447 112.514 87.7717 113.729 87.2997 114.527C87.1527 114.768 86.8897 114.911 86.6157 114.911ZM74.1947 109.887C74.5237 109.887 74.8557 109.895 75.1877 109.913C78.9887 110.113 82.1247 111.427 84.6437 112.483C85.1157 112.68 85.7107 112.929 86.2517 113.137C86.6167 112.448 87.0137 111.603 87.3237 110.944C88.9317 107.521 91.1147 102.876 95.7007 99.734C100.121 96.708 104.787 96.358 107.911 96.358C109.362 96.358 110.707 96.442 112.008 96.523C113.073 96.59 114.064 96.652 114.969 96.652C116.501 96.647 117.835 96.353 118.539 95.866C118.582 95.836 118.621 95.805 118.654 95.773C118.621 95.605 118.584 95.424 118.552 95.265C118.22 93.648 117.773 91.479 118.07 88.826C119.002 80.537 125.746 76.523 129.775 74.125L130.54 73.669C133.362 71.968 134.407 70.166 134.59 69.68C134.439 69.429 133.865 68.673 132.562 67.676L132.415 67.564C131.07 66.539 128.571 64.634 127.225 61.148C125.895 57.7 126.405 54.565 126.904 52.507C127.746 49.028 129.071 45.902 130.241 43.145C131.14 41.027 131.988 39.028 132.488 37.184C133.781 32.418 133.044 27.039 130.515 22.798C129.824 21.638 129.179 20.996 128.847 20.726C128.124 20.939 126.656 21.626 125.901 21.979C124.456 22.656 122.83 23.416 120.984 24.024C118.387 24.878 115.666 25.311 112.897 25.311C109.338 25.311 105.753 24.57 102.53 23.168C101.775 22.84 101.113 22.51 100.529 22.218C100.216 22.062 99.8287 21.869 99.5257 21.731C99.3427 21.781 99.0717 21.865 98.6937 22.012C96.5667 22.837 94.2577 24.246 91.8147 25.737C86.3477 29.073 80.1677 32.845 72.1037 32.845C69.6757 32.845 67.5427 32.486 65.6617 32.17C64.4097 31.959 63.2277 31.76 62.3977 31.76L62.2107 31.763C59.7287 31.866 56.7127 34.346 53.2207 37.219C49.7837 40.045 45.8887 43.248 41.0037 45.31C37.4757 46.797 33.9267 47.478 30.7947 48.08C27.6697 48.679 24.4437 49.3 23.1747 50.508C22.2017 51.435 21.6947 53.684 21.9407 55.98C22.3667 59.955 23.3017 62.347 23.7497 63.179C24.0427 63.297 24.3937 63.43 24.6687 63.534C27.8187 64.721 34.3487 67.182 35.8967 75.056C36.6207 78.732 35.6797 81.834 35.1177 83.688L34.9527 84.242C34.7527 84.935 34.6067 85.652 34.5207 86.378C35.0637 86.508 35.6307 86.633 36.2117 86.763C39.7747 87.553 44.1557 88.526 48.2347 91.294C50.5237 92.846 52.3177 94.724 53.5707 96.874C55.8277 100.752 55.8857 104.691 55.9247 107.298C55.9347 107.956 55.9447 108.567 55.9847 108.985C56.1777 110.969 58.6827 113.067 60.8577 113.067C61.0397 113.067 61.2157 113.051 61.3807 113.019C62.1497 112.871 63.2307 112.472 64.3747 112.051C66.9977 111.086 70.2557 109.887 74.1947 109.887Z" fill="black"/>
<path d="M63.7355 103.837C63.4875 100.792 62.7535 96.8505 60.4405 92.8765C58.5825 89.6865 55.9775 86.9425 52.6965 84.7165C49.7155 82.6935 46.7065 81.4254 43.9395 80.5464C44.1815 78.5134 44.2055 76.1245 43.6945 73.5235C41.7585 63.6775 34.6305 59.2225 30.1495 57.1905C30.0985 56.9285 30.0485 56.6475 30.0015 56.3455C30.7795 56.1805 31.6105 56.0215 32.2885 55.8905C35.6335 55.2485 39.7925 54.4505 44.0905 52.6375C50.0425 50.1275 54.6045 46.3755 58.2695 43.3625C59.7165 42.1715 61.8105 40.4494 62.9475 39.7874C63.3855 39.8514 63.9285 39.9425 64.3425 40.0125C66.4225 40.3615 69.0115 40.7975 72.1025 40.7975C82.4005 40.7975 90.2255 36.0215 95.9395 32.5355C97.1625 31.7885 98.3435 31.0685 99.4045 30.4805C103.61 32.3015 108.272 33.2625 112.895 33.2625C116.509 33.2625 120.066 32.6955 123.466 31.5775C124.024 31.3945 124.561 31.2015 125.075 31.0055C125.248 32.3885 125.168 33.8025 124.814 35.1045C124.455 36.4265 123.711 38.1815 122.922 40.0405C121.695 42.9325 120.172 46.5275 119.176 50.6385C118.744 52.4195 117.428 57.8455 119.805 64.0105C120.597 66.0595 121.629 67.7614 122.701 69.1584C117.828 72.3804 111.286 78.0025 110.169 87.9395C110.149 88.1145 110.132 88.2885 110.116 88.4595C109.414 88.4295 108.678 88.4105 107.909 88.4105C105.5 88.4105 98.1705 88.4105 91.2085 93.1765C86.9405 96.0995 84.2135 99.8714 82.3495 103.167C80.3655 102.582 78.1015 102.107 75.6025 101.975C75.1395 101.95 74.6645 101.938 74.1935 101.938C70.0165 101.938 66.4595 102.908 63.7355 103.837Z" fill="white"/>
<path d="M63.7356 104.631C63.5826 104.631 63.4306 104.587 63.2996 104.501C63.0946 104.367 62.9636 104.146 62.9436 103.901C62.6166 99.8772 61.5736 96.4012 59.7536 93.2752C57.9576 90.1912 55.4326 87.5322 52.2496 85.3722C49.7256 83.6592 46.9286 82.3272 43.6986 81.3022C43.3356 81.1862 43.1046 80.8292 43.1496 80.4502C43.4236 78.1432 43.3446 75.8632 42.9136 73.6752C41.5066 66.5182 37.1006 61.2142 29.8196 57.9132C29.5856 57.8072 29.4176 57.5942 29.3676 57.3422C29.3146 57.0702 29.2626 56.7782 29.2146 56.4652C29.1496 56.0482 29.4226 55.6542 29.8346 55.5662C30.5796 55.4082 31.3736 55.2562 32.0356 55.1272L32.1356 55.1082C35.4446 54.4732 39.5596 53.6842 43.7796 51.9042C49.6246 49.4392 54.1366 45.7292 57.7616 42.7482C59.2756 41.5022 61.3476 39.7972 62.5456 39.0992C62.7006 39.0092 62.8816 38.9752 63.0596 39.0002C63.5036 39.0642 64.0536 39.1572 64.4736 39.2272C66.5316 39.5732 69.0806 40.0012 72.1016 40.0012C82.1746 40.0012 89.8886 35.2942 95.5216 31.8572C96.7096 31.1312 97.9366 30.3832 99.0186 29.7842C99.2346 29.6642 99.4926 29.6522 99.7196 29.7502C103.824 31.5282 108.38 32.4672 112.895 32.4672C116.426 32.4672 119.899 31.9142 123.217 30.8212C123.764 30.6422 124.288 30.4542 124.791 30.2612C125.018 30.1742 125.275 30.1972 125.483 30.3222C125.693 30.4482 125.832 30.6632 125.863 30.9052C126.052 32.4132 125.954 33.9372 125.58 35.3122C125.206 36.6882 124.452 38.4672 123.653 40.3492C122.439 43.2112 120.928 46.7742 119.948 50.8242C119.529 52.5472 118.257 57.7872 120.546 63.7242C121.228 65.4882 122.165 67.1542 123.331 68.6742C123.465 68.8492 123.521 69.0712 123.485 69.2892C123.449 69.5062 123.324 69.6992 123.139 69.8212C115.772 74.6932 111.787 80.6482 110.958 88.0272C110.938 88.1992 110.922 88.3652 110.907 88.5302C110.869 88.9532 110.502 89.2852 110.082 89.2532C109.39 89.2242 108.665 89.2052 107.908 89.2052C105.56 89.2052 98.4146 89.2052 91.6556 93.8322C88.2336 96.1762 85.4156 99.3572 83.0396 103.558C82.8576 103.88 82.4796 104.032 82.1226 103.929C79.8616 103.262 77.7156 102.883 75.5586 102.769C75.1086 102.745 74.6486 102.733 74.1916 102.733C69.9296 102.733 66.3276 103.793 63.9886 104.589C63.9086 104.617 63.8216 104.631 63.7356 104.631ZM44.7966 79.9882C47.9156 81.0332 50.6516 82.3672 53.1416 84.0572C56.5236 86.3512 59.2096 89.1842 61.1266 92.4752C62.9146 95.5462 63.9986 98.9232 64.4306 102.769C66.8536 101.997 70.2446 101.142 74.1936 101.142C74.6786 101.142 75.1676 101.154 75.6456 101.18C77.7326 101.29 79.8086 101.635 81.9706 102.231C84.4026 98.0812 87.2826 94.9002 90.7586 92.5192C97.9236 87.6142 105.44 87.6142 107.91 87.6142C108.422 87.6142 108.921 87.6232 109.404 87.6372C110.312 80.0972 114.296 73.9772 121.571 68.9622C120.542 67.5092 119.7 65.9422 119.064 64.2962C116.596 57.8962 117.957 52.2922 118.404 50.4492C119.415 46.2742 120.953 42.6452 122.19 39.7292C122.967 37.8982 123.701 36.1682 124.047 34.8962C124.284 34.0232 124.391 33.0752 124.364 32.1122C124.15 32.1862 123.934 32.2602 123.713 32.3322C120.235 33.4762 116.595 34.0572 112.895 34.0572C108.298 34.0572 103.659 33.1272 99.4506 31.3642C98.4906 31.9082 97.4486 32.5442 96.3526 33.2132C90.5556 36.7502 82.6216 41.5912 72.1016 41.5912C68.9496 41.5912 66.3266 41.1512 64.2206 40.7972C63.8876 40.7412 63.4826 40.6732 63.1136 40.6152C61.9806 41.3352 60.0686 42.9092 58.7736 43.9752C55.0676 47.0222 50.4576 50.8132 44.3986 53.3692C40.0246 55.2142 35.8196 56.0212 32.4396 56.6692L32.3376 56.6882C32.0316 56.7472 31.6976 56.8122 31.3536 56.8792C38.5126 60.3962 43.0406 66.0802 44.4736 73.3682C44.8956 75.5142 45.0046 77.7382 44.7966 79.9882Z" fill="black"/>
<path d="M78.3436 93.4358C77.5846 93.3468 76.8256 93.2838 76.0646 93.2428C75.4546 93.2098 74.8226 93.1928 74.1946 93.1928C72.8466 93.1928 71.5586 93.2688 70.3376 93.3988C69.6976 91.6958 68.9196 90.0588 67.9976 88.4758C65.4756 84.1458 61.9796 80.4458 57.6056 77.4778C56.0436 76.4178 54.4126 75.4738 52.6906 74.6338C52.5946 73.6918 52.4566 72.7578 52.2736 71.8328C51.4566 67.6768 49.9106 63.9158 47.6826 60.6088C54.7096 57.6068 59.9706 53.2818 63.8216 50.1138C64.1306 49.8598 64.6396 49.4408 65.1856 48.9998C67.1216 49.2848 69.4406 49.5388 72.1026 49.5388C84.7306 49.5388 94.0786 43.9108 100.306 40.1118C104.308 41.3388 108.52 41.9848 112.706 42.0038C111.972 43.9958 111.254 46.2048 110.679 48.5788C109.116 55.0178 109.407 61.1798 111.549 66.8928C107.58 70.7148 104.747 75.0558 103.07 79.8868C98.6956 80.3438 92.4446 81.7318 86.2696 85.9598C83.2846 88.0048 80.6616 90.4748 78.3436 93.4358Z" fill="#DA2444"/>
<path d="M78.3438 94.2309C78.3138 94.2309 78.2828 94.2289 78.2518 94.2259C77.5218 94.1409 76.7718 94.0779 76.0228 94.0379C74.2148 93.9389 72.2988 93.9909 70.4208 94.1899C70.0628 94.2269 69.7208 94.018 69.5928 93.679C68.9728 92.03 68.2058 90.4149 67.3108 88.8769C64.8488 84.6509 61.4338 81.0369 57.1588 78.1369C55.6338 77.1029 54.0138 76.1649 52.3418 75.3489C52.0948 75.2289 51.9268 74.9889 51.8988 74.7159C51.8048 73.7929 51.6678 72.8749 51.4928 71.9879C50.7008 67.9599 49.1968 64.281 47.0228 61.054C46.8898 60.858 46.8518 60.6119 46.9198 60.3849C46.9868 60.1569 47.1518 59.9719 47.3698 59.8789C54.2948 56.9209 59.5088 52.6319 63.3158 49.5019L63.3978 49.4349C63.7118 49.1769 64.1838 48.7899 64.6848 48.3839C64.8578 48.2439 65.0798 48.1849 65.3008 48.2159C67.7588 48.5779 69.9208 48.7459 72.1018 48.7459C84.6288 48.7459 93.8138 43.1429 99.8908 39.4349C100.084 39.3169 100.322 39.2869 100.538 39.3539C104.499 40.5679 108.593 41.1919 112.709 41.2109C112.968 41.2119 113.21 41.3399 113.358 41.5529C113.506 41.7669 113.541 42.0379 113.451 42.2809C112.61 44.5629 111.955 46.6849 111.451 48.7689C109.926 55.0519 110.209 61.0569 112.292 66.6169C112.403 66.9139 112.328 67.2479 112.099 67.4689C108.235 71.1899 105.449 75.4569 103.82 80.1509C103.719 80.4419 103.458 80.6489 103.152 80.6799C97.0768 81.3139 91.5478 83.3119 86.7198 86.6189C83.7788 88.6319 81.2448 91.0229 78.9698 93.9279C78.8178 94.1199 78.5868 94.2309 78.3438 94.2309ZM74.1948 92.3989C74.8368 92.3989 75.4838 92.4169 76.1078 92.4489C76.7388 92.4829 77.3718 92.533 77.9938 92.597C80.2988 89.719 82.8628 87.3299 85.8198 85.3049C90.7368 81.9389 96.3418 79.87 102.487 79.153C104.164 74.559 106.899 70.3679 110.625 66.6829C108.591 60.9579 108.349 54.8069 109.906 48.3909C110.347 46.5719 110.897 44.7259 111.581 42.7789C107.807 42.6649 104.058 42.0589 100.416 40.9759C94.1858 44.7739 84.8678 50.3339 72.1028 50.3339C69.9458 50.3339 67.8118 50.1759 65.4168 49.8359C65.0228 50.1569 64.6638 50.4519 64.4088 50.6599L64.3268 50.7279C60.6048 53.7899 55.5618 57.9359 48.8598 60.9599C50.8748 64.1679 52.2848 67.769 53.0538 71.679C53.2108 72.473 53.3378 73.2909 53.4328 74.1139C55.0328 74.9159 56.5848 75.8249 58.0508 76.8199C62.5238 79.8549 66.1008 83.6409 68.6838 88.0759C69.5198 89.5119 70.2508 91.0139 70.8608 92.5479C71.9738 92.4489 73.0928 92.3989 74.1948 92.3989Z" fill="black"/>
<path d="M75.3304 83.6989C72.1624 78.3909 67.8524 73.8649 62.5144 70.2439C61.8934 69.8219 61.2594 69.4139 60.6154 69.0199C60.2564 67.4239 59.8094 65.8679 59.2734 64.3579C62.6854 62.2179 65.5454 59.9909 67.8594 58.1109C69.2964 58.2279 70.6914 58.2849 72.1014 58.2849C84.9904 58.2849 94.8454 53.4709 101.548 49.5649C100.662 54.7229 100.742 59.7549 101.785 64.6029C99.8804 66.9379 98.2594 69.4189 96.9324 72.0299C91.2844 73.2619 86.0544 75.5119 81.3294 78.7469C79.1964 80.2059 77.1914 81.8629 75.3304 83.6989Z" fill="#E9A628"/>
<path d="M75.3306 84.4941C75.2976 84.4941 75.2635 84.4921 75.2295 84.4881C74.9875 84.4571 74.7735 84.3161 74.6485 84.1071C71.5405 78.8991 67.3076 74.4561 62.0676 70.9021C61.4606 70.4911 60.8325 70.0851 60.1995 69.6981C60.0165 69.5861 59.8866 69.4051 59.8396 69.1951C59.4896 67.6371 59.0465 66.0981 58.5235 64.6231C58.3995 64.2721 58.5355 63.8821 58.8505 63.6841C62.3035 61.5191 65.2106 59.2391 67.3576 57.4941C67.5166 57.3641 67.7205 57.3061 67.9235 57.3191C69.3365 57.4351 70.7025 57.4911 72.1015 57.4911C84.8925 57.4911 94.8045 52.5761 101.148 48.8791C101.415 48.7241 101.749 48.7361 102.002 48.9131C102.256 49.0891 102.385 49.3961 102.332 49.7001C101.466 54.7411 101.544 59.6991 102.563 64.4361C102.614 64.6721 102.554 64.9181 102.402 65.1051C100.54 67.3871 98.9386 69.8381 97.6416 72.3901C97.5336 72.6031 97.3356 72.7561 97.1016 72.8061C91.5616 74.0151 86.4056 76.2341 81.7786 79.4031C79.6956 80.8301 77.7135 82.4661 75.8885 84.2661C75.7385 84.4121 75.5376 84.4941 75.3306 84.4941ZM61.3155 68.5181C61.8725 68.8641 62.4246 69.2221 62.9606 69.5861C68.1056 73.0761 72.3175 77.3971 75.4915 82.4401C77.1805 80.8461 78.9895 79.3851 80.8795 78.0901C85.5745 74.8751 90.7936 72.6031 96.3956 71.3341C97.6556 68.9101 99.1796 66.5801 100.93 64.3951C100.049 60.0901 99.9095 55.6171 100.515 51.0711C93.9935 54.7281 84.3465 59.0791 72.1015 59.0791C70.7645 59.0791 69.4565 59.0291 68.1135 58.9281C66.0715 60.5811 63.3915 62.6671 60.2295 64.6921C60.6495 65.9371 61.0135 67.2191 61.3155 68.5181Z" fill="black"/>
<path d="M36.6128 52.112L57.7258 46.478L60.5338 56.999L48.7958 60.131L50.3598 65.99L58.8048 63.736L61.4688 73.719L53.0238 75.973L57.2838 91.934L47.9098 94.436L36.6128 52.112Z" fill="black"/>
<path d="M62.5859 52.5572L71.9179 50.0672L78.2839 73.9192C79.2569 77.5662 80.9889 79.9852 83.8169 79.2302C86.6459 78.4752 87.0679 75.4812 86.0949 71.8342L79.7299 47.9822L89.0609 45.4922L95.4269 69.3442C98.7619 81.8382 94.4309 89.8462 86.9569 91.8412C79.4829 93.8362 72.2869 88.9042 68.9529 76.4102L62.5859 52.5572Z" fill="black"/>
<path d="M119.921 29.877L131.217 72.2009L121.843 74.7029L106.24 56.071L111.92 77.3519L102.546 79.8529L91.25 37.5289L100.624 35.028L116.323 54.0199L110.547 32.3799L119.921 29.877Z" fill="black"/>
<path d="M33.3008 50.3894L54.4138 44.7554L57.2218 55.2764L45.4838 58.4084L47.0468 64.2674L55.4918 62.0134L58.1558 71.9964L49.7108 74.2504L53.9708 90.2114L44.5968 92.7134L33.3008 50.3894Z" fill="white"/>
<path d="M43.7528 94.1734L31.8418 49.5454L55.2588 43.2964L58.6818 56.1214L46.9438 59.2534L47.8928 62.8084L56.3378 60.5544L59.6168 72.8414L51.1718 75.0954L55.4318 91.0554L43.7528 94.1734ZM34.7608 51.2344L45.4428 91.2544L52.5128 89.3674L48.2528 73.4064L56.6978 71.1524L54.6488 63.4734L46.2038 65.7274L44.0258 57.5644L55.7638 54.4324L53.5708 46.2154L34.7608 51.2344Z" fill="#000009"/>
<path d="M59.2739 50.8355L68.6059 48.3455L74.9719 72.1975C75.9449 75.8445 77.6769 78.2635 80.5049 77.5085C83.3339 76.7535 83.7559 73.7595 82.7829 70.1125L76.4179 46.2605L85.7489 43.7705L92.1149 67.6225C95.4499 80.1165 91.1189 88.1255 83.6449 90.1195C76.1709 92.1145 68.9749 87.1825 65.6409 74.6885L59.2739 50.8355Z" fill="#E9A527"/>
<path d="M80.444 91.7436C77.539 91.7436 74.785 90.7395 72.34 88.7635C68.855 85.9475 66.1399 81.1865 64.4879 74.9945L57.814 49.9905L69.45 46.8856L76.124 71.8896C77.042 75.3306 78.414 76.8325 80.198 76.3565C82.526 75.7345 82.262 72.7846 81.631 70.4196L74.9579 45.4156L86.593 42.3105L93.267 67.3145C94.91 73.4715 94.83 78.9886 93.033 83.2696C91.333 87.3206 88.1079 90.1625 83.9529 91.2705C82.7649 91.5875 81.593 91.7436 80.444 91.7436ZM60.733 51.6796L66.792 74.3795C68.314 80.0795 70.75 84.4125 73.839 86.9085C76.634 89.1665 79.9189 89.8765 83.3369 88.9655C86.8129 88.0375 89.405 85.7486 90.834 82.3456C92.424 78.5556 92.469 73.5706 90.963 67.9286L84.904 45.2285L77.877 47.1035L83.935 69.8036C85.739 76.5626 82.353 78.2475 80.813 78.6595C78.95 79.1585 75.5599 79.0185 73.8199 72.5035L67.761 49.8036L60.733 51.6796Z" fill="#000009"/>
<path d="M116.609 28.1553L127.905 70.4793L118.531 72.9813L102.928 54.3493L108.608 75.6303L99.234 78.1313L87.938 35.8073L97.312 33.3063L113.011 52.2983L107.235 30.6573L116.609 28.1553Z" fill="white"/>
<path d="M98.39 79.5903L86.479 34.9623L97.744 31.9563L110.451 47.3283L105.775 29.8123L117.453 26.6953L129.364 71.3233L118.104 74.3283L105.467 59.2383L110.067 76.4743L98.39 79.5903ZM89.398 36.6513L100.079 76.6713L107.149 74.7843L100.389 49.4583L118.957 71.6323L126.446 69.6333L115.764 29.6133L108.694 31.5003L115.571 57.2653L96.88 34.6533L89.398 36.6513Z" fill="#000009"/>
</svg>
