<svg width="148" height="150" viewBox="0 0 148 150" fill="none" xmlns="http://www.w3.org/2000/svg">
<path d="M126.451 148.46H20.8054C20.8054 132.661 37.2444 107.851 37.2444 107.851H110C110 107.851 126.451 132.661 126.451 148.46Z" fill="#FFDB44"/>
<path d="M108.577 108.519C111.543 112.873 114.181 117.486 116.602 122.16C120.644 129.964 124.81 138.932 124.885 147.892C124.898 149.452 128.028 148.942 128.016 147.626C127.94 138.5 123.919 129.589 119.848 121.606C117.325 116.658 114.552 111.779 111.422 107.185C110.675 106.087 107.706 107.24 108.577 108.519Z" fill="#222038"/>
<path d="M22.3775 147.65C22.4525 138.698 26.4965 129.893 30.5105 122.077C32.9285 117.368 35.5655 112.715 38.5465 108.335C39.6605 106.698 36.7695 106.148 35.9395 107.368C32.8305 111.936 30.0595 116.773 27.5375 121.685C23.4435 129.658 19.3085 138.735 19.2325 147.867C19.2195 149.523 22.3655 149.095 22.3775 147.65Z" fill="#222038"/>
<path d="M37.6435 148.071C39.8165 144.533 41.9896 140.994 44.1616 137.456C44.4696 136.954 44.7785 136.452 45.0865 135.95C45.4435 135.369 43.6146 135.634 43.4636 135.665C42.9256 135.774 42.3885 135.922 41.8865 136.147C41.5905 136.279 41.2005 136.441 41.0245 136.728C38.8515 140.266 36.6785 143.805 34.5055 147.343C34.1975 147.845 33.8885 148.347 33.5805 148.849C33.2245 149.43 35.0525 149.165 35.2035 149.134C35.7415 149.025 36.2785 148.877 36.7805 148.652C37.0775 148.52 37.4675 148.358 37.6435 148.071Z" fill="#222038"/>
<path d="M113.91 147.906C111.737 144.368 109.564 140.83 107.391 137.291C107.083 136.789 106.774 136.287 106.466 135.785C105.897 134.858 102.077 136.473 102.334 136.892C104.507 140.43 106.68 143.969 108.853 147.507C109.161 148.009 109.47 148.511 109.778 149.013C110.348 149.941 114.167 148.325 113.91 147.906Z" fill="#222038"/>
<path d="M108.56 108.455C111.608 112.93 114.311 117.675 116.776 122.491C120.791 130.335 124.826 139.198 124.901 148.173C124.909 149.118 128.01 148.535 128 147.343C127.924 138.226 123.777 129.222 119.674 121.27C117.194 116.464 114.486 111.72 111.439 107.247C110.864 106.403 107.857 107.422 108.56 108.455Z" fill="#222038"/>
<path d="M22.3584 147.577C22.4344 138.541 26.5105 129.625 30.5745 121.743C33.0195 117.001 35.6895 112.323 38.6935 107.909C39.5175 106.699 36.3984 106.908 35.7954 107.795C32.7094 112.329 29.9715 117.14 27.4765 122.02C23.4275 129.936 19.3295 138.885 19.2535 147.941C19.2415 149.282 22.3494 148.658 22.3584 147.577Z" fill="#222038"/>
<path d="M142.383 106.869C134.798 116.736 117.017 129.412 73.6284 129.412C30.2394 129.412 12.4594 116.736 4.87342 106.869C-2.71258 96.9879 5.11541 82.4299 5.11541 82.4299C5.11541 82.4299 11.9884 45.7859 27.0594 26.5939C36.0134 15.2159 54.9634 11.1519 66.4134 9.95387C67.7534 7.55887 71.7174 0.870887 74.3694 0.999887C76.2234 1.09989 76.1234 7.57289 76.1234 7.57289C76.1234 7.57289 78.6184 4.89188 80.2864 4.97788C81.4414 5.04888 81.9834 8.19988 82.2114 10.1109C93.7464 11.4799 111.598 15.6579 120.196 26.5939C135.267 45.7859 142.14 82.4299 142.14 82.4299C142.14 82.4299 149.968 96.9879 142.383 106.869Z" fill="#FFDB44"/>
<path opacity="0.1" d="M142.382 106.869C134.796 116.736 117.016 129.412 73.6274 129.412C30.2384 129.412 12.4584 116.736 4.87242 106.869C-2.05758 97.8427 3.41842 84.8967 4.88642 82.7437C3.77442 86.1657 -1.30158 116.893 73.6264 116.893C148.241 116.893 143.55 86.4227 142.395 82.7867C143.95 85.0817 149.268 97.9007 142.382 106.869Z" fill="#222221"/>
<path d="M141.112 106.51C130.975 119.623 113.551 124.702 97.8334 126.886C83.0104 128.945 67.6834 129 52.8284 127.224C42.3524 125.972 31.7494 123.614 22.2644 118.858C16.5054 115.97 11.1564 112.163 7.04742 107.161C3.37742 102.695 2.55342 97.2299 3.54742 91.6359C3.94442 89.4039 4.57942 87.2029 5.42142 85.0979C5.78442 84.1919 6.30743 83.3229 6.62743 82.4059C7.15743 80.8899 7.31742 79.1519 7.67542 77.5869C8.57942 73.6259 9.60042 69.6909 10.7264 65.7869C13.9064 54.7679 17.8574 43.7639 23.6954 33.8489C26.6214 28.8789 29.9704 24.3179 34.7634 21.0049C39.7114 17.5839 45.4184 15.3599 51.1894 13.7639C54.0334 12.9769 56.9204 12.3329 59.8284 11.8369C61.0044 11.6359 62.1834 11.4569 63.3654 11.2979C64.5084 11.1439 66.0104 11.2289 67.0644 10.7329C67.9704 10.3069 68.3534 9.20986 68.8444 8.39486C69.5454 7.23186 70.2824 6.08487 71.0944 4.99587C71.8384 3.99887 72.7124 3.22487 73.5384 2.31887C73.4344 2.43187 74.0884 1.92885 73.9784 2.00985C73.5734 2.30785 73.5104 1.68287 73.6024 2.01687C73.7144 2.42287 74.0094 2.82885 74.1254 3.26485C74.5064 4.69585 74.5814 6.25087 74.5644 7.72787C74.5474 9.11287 76.8164 8.54488 77.3944 7.93188C77.6724 7.63788 77.9664 7.35385 78.2714 7.08785C78.5254 6.86785 78.7864 6.65685 79.0644 6.46685C79.2314 6.34485 79.4044 6.23185 79.5834 6.12685C79.9474 6.00185 79.9784 5.95786 79.6784 5.99486C79.3134 5.72986 79.8084 6.58787 79.8484 6.68087C80.0154 7.06687 80.1204 7.50785 80.2194 7.91485C80.4284 8.77285 80.5524 9.65088 80.6624 10.5269C80.7154 10.9529 81.3174 11.0789 81.6434 11.1189C91.4474 12.3019 101.566 14.7139 110.103 19.8429C118.838 25.0899 123.937 34.0299 128.083 43.0619C131.969 51.5249 134.938 60.4069 137.388 69.3829C138.246 72.5239 139.036 75.6829 139.749 78.8599C140.042 80.1639 140.215 81.5379 140.585 82.8219C140.747 83.3829 140.536 82.7199 140.775 83.2109C141.008 83.6899 141.23 84.1739 141.44 84.6639C142.224 86.4969 142.86 88.3989 143.326 90.3379C144.68 95.9709 144.475 101.963 140.919 106.764C140.452 107.394 141.322 107.816 141.813 107.878C142.582 107.975 143.395 107.585 143.844 106.979C149.116 99.8609 147.594 89.9319 143.9 82.4349C143.852 82.3379 143.534 81.5949 143.63 81.9049C143.717 82.1869 143.641 81.7689 143.629 81.7069C143.493 81.0499 143.363 80.3919 143.223 79.7359C142.611 76.8739 141.927 74.0259 141.191 71.1929C138.825 62.0849 135.931 53.0719 132.169 44.4389C128.237 35.4149 123.379 25.7909 115.186 19.9329C105.877 13.2779 93.9744 10.4579 82.7804 9.10686C83.1074 9.30386 83.4344 9.50187 83.7614 9.69887C83.5034 7.64787 83.2474 3.90785 80.4604 3.97985C78.2834 4.03685 76.2804 5.70687 74.8534 7.21587C75.7964 7.28387 76.7404 7.35185 77.6834 7.41985C77.7134 4.94985 77.8684 -0.441139 74.1724 0.0288606C71.9344 0.313861 70.2284 2.14986 68.9014 3.82186C67.4064 5.70686 66.1284 7.75386 64.9504 9.84786C65.4954 9.54986 66.0414 9.25286 66.5864 8.95486C55.8464 10.0989 44.8174 12.6629 35.4174 18.1509C25.5724 23.8989 19.9534 33.9379 15.4644 44.0819C11.3354 53.4129 8.21742 63.1989 5.71442 73.0829C5.01742 75.8339 4.36742 78.5979 3.79542 81.3779C3.75542 81.5699 3.41942 82.9429 3.64642 82.3339C3.29042 83.2909 2.76042 84.2009 2.38542 85.1579C0.663421 89.5579 -0.384578 94.3249 0.132422 99.0639C0.611422 103.461 2.77343 107.037 5.72143 110.208C10.2164 115.043 15.8514 118.721 21.8264 121.464C31.2244 125.779 41.4624 128.017 51.6904 129.239C65.9224 130.94 80.5884 130.936 94.8204 129.233C111.291 127.262 129.552 122.568 141.297 110.002C142.125 109.116 142.909 108.19 143.651 107.231C144.818 105.722 141.869 105.531 141.112 106.51Z" fill="#222038"/>
<path d="M27.2905 89.5835C33.0605 89.2305 37.2845 91.3005 37.8355 93.4175C38.3865 95.5345 32.0355 96.7755 28.1665 96.7755C24.2975 96.7755 18.3115 96.0455 18.0925 93.7825C17.8735 91.5195 21.8885 89.9135 27.2905 89.5835Z" fill="#FF8A8A"/>
<path d="M118.594 89.5835C124.364 89.2305 128.588 91.3005 129.139 93.4175C129.69 95.5345 123.339 96.7755 119.47 96.7755C115.601 96.7755 109.615 96.0455 109.396 93.7825C109.177 91.5195 113.192 89.9135 118.594 89.5835Z" fill="#FF8A8A"/>
<path opacity="0.1" d="M33.1364 68.2076C31.9784 64.5236 38.8194 57.7796 46.5054 58.4306C51.4824 58.8526 53.7874 66.1956 49.8654 68.9106C46.9334 70.9406 34.4394 72.3566 33.1364 68.2076Z" fill="#222221"/>
<path opacity="0.1" d="M114.122 68.2076C115.28 64.5236 108.438 57.7796 100.752 58.4306C95.7755 58.8526 93.4705 66.1956 97.3925 68.9106C100.324 70.9406 112.818 72.3566 114.122 68.2076Z" fill="#222221"/>
<path d="M77.3714 91.5638C75.8454 92.4758 74.3624 93.1608 73.6214 93.1608C73.0794 93.1608 71.6254 92.4768 70.0854 91.5638C71.6254 91.4638 73.0654 91.3218 73.6214 91.3218C74.3634 91.3208 75.8454 91.4638 77.3714 91.5638Z" fill="#FF9F1F"/>
<path opacity="0.1" d="M77.3714 91.5638C75.8454 92.4758 74.3624 93.1608 73.6214 93.1608C73.0794 93.1608 71.6254 92.4768 70.0854 91.5638C71.6254 91.4638 73.0654 91.3218 73.6214 91.3218C74.3634 91.3208 75.8454 91.4638 77.3714 91.5638Z" fill="#222221"/>
<path d="M82.0674 90.9977C82.0674 92.2527 75.4704 91.3157 73.6284 91.3157C72.2334 91.3157 65.1895 92.2527 65.1895 90.9977C65.1895 89.7287 68.1184 84.6558 73.6284 84.6558C79.1384 84.6558 82.0674 89.7287 82.0674 90.9977Z" fill="#FF9F1F"/>
<path d="M55.1234 89.6017C54.7774 90.9357 44.0315 87.9417 39.9155 87.7667C35.3245 87.5717 27.1435 89.4307 26.5885 88.8147C26.0345 88.1987 34.0674 81.5137 39.9924 81.5137C46.3624 81.5137 55.6224 87.6777 55.1234 89.6017Z" fill="#222038"/>
<path d="M92.4525 89.6017C92.7985 90.9357 103.544 87.9417 107.66 87.7667C112.25 87.5717 120.432 89.4307 120.987 88.8147C121.541 88.1987 113.508 81.5137 107.583 81.5137C101.213 81.5137 91.9535 87.6777 92.4525 89.6017Z" fill="#222038"/>
<path opacity="0.1" d="M66.8835 98.6816C71.1965 101.362 75.9795 101.496 80.2605 98.6816C77.4355 103.369 69.7715 103.24 66.8835 98.6816Z" fill="#222221"/>
</svg>
