<svg width="148" height="150" viewBox="0 0 148 150" fill="none" xmlns="http://www.w3.org/2000/svg">
<path d="M126.449 148.461H20.8035C20.8035 132.663 37.2425 107.853 37.2425 107.853H109.998C109.998 107.853 126.449 132.662 126.449 148.461Z" fill="#FFDB44"/>
<path d="M108.559 108.456C111.607 112.931 114.31 117.676 116.775 122.492C120.79 130.336 124.825 139.199 124.9 148.174C124.908 149.119 128.009 148.536 127.999 147.344C127.922 138.227 123.776 129.223 119.673 121.271C117.193 116.465 114.484 111.721 111.437 107.248C110.862 106.403 107.856 107.423 108.559 108.456Z" fill="#222038"/>
<path d="M22.3565 147.578C22.4325 138.542 26.5085 129.626 30.5725 121.744C33.0175 117.002 35.6875 112.324 38.6915 107.91C39.5155 106.7 36.3965 106.909 35.7935 107.796C32.7075 112.33 29.9695 117.141 27.4735 122.021C23.4245 129.937 19.3265 138.886 19.2505 147.942C19.2395 149.282 22.3475 148.659 22.3565 147.578Z" fill="#222038"/>
<path d="M35.7976 148.072C37.9706 144.534 40.1435 140.996 42.3155 137.457C42.6235 136.955 42.9326 136.453 43.2406 135.951C43.5976 135.37 41.7685 135.635 41.6175 135.666C41.0785 135.775 40.5425 135.923 40.0405 136.148C39.7445 136.28 39.3545 136.442 39.1785 136.729C37.0055 140.267 34.8325 143.805 32.6605 147.344C32.3525 147.846 32.0436 148.348 31.7356 148.85C31.3786 149.43 33.2075 149.166 33.3585 149.135C33.8965 149.026 34.4336 148.878 34.9356 148.653C35.2306 148.521 35.6216 148.358 35.7976 148.072Z" fill="#222038"/>
<path d="M142.381 106.87C134.795 116.737 117.015 129.413 73.6265 129.413C30.2375 129.413 12.4575 116.737 4.87146 106.87C-2.71454 96.9889 5.11347 82.4309 5.11347 82.4309C5.11347 82.4309 11.9865 45.7859 27.0575 26.5949C36.0115 15.2159 54.9615 11.1529 66.4105 9.95486C67.7505 7.55986 71.7145 0.871864 74.3665 1.00086C76.2205 1.10086 76.1205 7.57386 76.1205 7.57386C76.1205 7.57386 78.6155 4.89286 80.2835 4.97886C81.4385 5.04986 81.9805 8.20186 82.2085 10.1119C93.7435 11.4809 111.595 15.6579 120.193 26.5949C135.264 45.7869 142.137 82.4309 142.137 82.4309C142.137 82.4309 149.967 96.9889 142.381 106.87Z" fill="#FFDB44"/>
<path opacity="0.1" d="M142.38 106.87C134.794 116.737 117.014 129.413 73.6255 129.413C30.2365 129.413 12.4565 116.737 4.87048 106.87C-2.05952 97.8436 3.41645 84.8976 4.88445 82.7446C3.77245 86.1666 -1.30353 116.894 73.6245 116.894C148.239 116.894 143.548 86.4226 142.393 82.7876C143.948 85.0826 149.267 97.9006 142.38 106.87Z" fill="#222221"/>
<path d="M141.11 106.511C130.973 119.624 113.55 124.703 97.8314 126.887C83.0084 128.946 67.6814 129 52.8264 127.225C42.3504 125.973 31.7474 123.615 22.2624 118.859C16.5034 115.971 11.1544 112.164 7.04542 107.162C3.37542 102.696 2.55142 97.2309 3.54542 91.6379C3.94242 89.4059 4.57741 87.2049 5.41941 85.0999C5.78141 84.1939 6.30543 83.3249 6.62543 82.4079C7.15543 80.8919 7.31541 79.1539 7.67341 77.5899C8.57741 73.6289 9.59843 69.6939 10.7244 65.7899C13.9044 54.7709 17.8554 43.7669 23.6934 33.8519C26.6194 28.8819 29.9684 24.3209 34.7614 21.0069C39.7094 17.5859 45.4164 15.3619 51.1874 13.7659C54.0314 12.9789 56.9184 12.3349 59.8264 11.8389C61.0024 11.6379 62.1814 11.4589 63.3634 11.2999C64.5064 11.1469 66.0084 11.2309 67.0624 10.7349C67.9684 10.3089 68.3514 9.21186 68.8424 8.39686C69.5434 7.23386 70.2804 6.08686 71.0924 4.99786C71.8364 4.00086 72.7104 3.22686 73.5364 2.31986C73.4334 2.43386 74.0864 1.92986 73.9764 2.01086C73.5714 2.30886 73.5084 1.68386 73.6004 2.01686C73.7124 2.42286 74.0074 2.82786 74.1234 3.26486C74.5044 4.69586 74.5794 6.25086 74.5614 7.72786C74.5444 9.11286 76.8134 8.54486 77.3914 7.93186C77.6694 7.63786 77.9634 7.35386 78.2694 7.08786C78.5234 6.86786 78.7844 6.65686 79.0624 6.46686C79.2294 6.34486 79.4024 6.23186 79.5814 6.12686C79.9444 6.00186 79.9764 5.95786 79.6764 5.99486C79.3114 5.72886 79.8064 6.58786 79.8464 6.68086C80.0134 7.06686 80.1184 7.50786 80.2174 7.91486C80.4264 8.77386 80.5504 9.65086 80.6614 10.5269C80.7144 10.9529 81.3164 11.0789 81.6424 11.1189C91.4464 12.3019 101.565 14.7139 110.102 19.8419C118.837 25.0889 123.935 34.0289 128.082 43.0609C131.968 51.5239 134.937 60.4059 137.387 69.3819C138.245 72.5229 139.035 75.6819 139.748 78.8589C140.041 80.1639 140.214 81.5369 140.584 82.8209C140.746 83.3819 140.535 82.7189 140.773 83.2099C141.006 83.6889 141.228 84.1729 141.438 84.6629C142.222 86.4959 142.858 88.3979 143.324 90.3369C144.678 95.9699 144.473 101.962 140.917 106.763C140.45 107.393 141.32 107.815 141.811 107.877C142.58 107.974 143.393 107.584 143.842 106.978C149.114 99.8599 147.592 89.9309 143.898 82.4339C143.85 82.3369 143.532 81.5949 143.628 81.9039C143.715 82.1859 143.639 81.7679 143.627 81.7059C143.491 81.0489 143.361 80.3909 143.22 79.7349C142.608 76.8719 141.924 74.0249 141.188 71.1919C138.822 62.0839 135.928 53.0709 132.166 44.4379C128.234 35.4139 123.376 25.7899 115.183 19.9319C105.874 13.2769 93.9714 10.4559 82.7774 9.10586C83.1044 9.30286 83.4314 9.49986 83.7584 9.69786C83.5014 7.64786 83.2454 3.90686 80.4574 3.97886C78.2804 4.03586 76.2774 5.70586 74.8504 7.21586C75.7934 7.28386 76.7374 7.35186 77.6804 7.41986C77.7104 4.94986 77.8654 -0.441139 74.1704 0.0288606C71.9324 0.313861 70.2264 2.14986 68.8994 3.82186C67.4044 5.70686 66.1264 7.75386 64.9484 9.84786C65.4934 9.54986 66.0394 9.25286 66.5844 8.95486C55.8444 10.0999 44.8154 12.6629 35.4164 18.1509C25.5714 23.8989 19.9524 33.9379 15.4634 44.0819C11.3344 53.4129 8.21642 63.1989 5.71442 73.0829C5.01742 75.8339 4.36742 78.5979 3.79542 81.3779C3.75542 81.5699 3.42043 82.9429 3.64643 82.3339C3.28943 83.2909 2.76041 84.2009 2.38541 85.1579C0.663414 89.5579 -0.384577 94.3249 0.132423 99.0639C0.611423 103.462 2.77341 107.037 5.72141 110.208C10.2164 115.043 15.8514 118.721 21.8254 121.464C31.2234 125.779 41.4614 128.017 51.6894 129.239C65.9214 130.94 80.5874 130.936 94.8194 129.233C111.29 127.262 129.551 122.568 141.296 110.002C142.124 109.116 142.908 108.191 143.65 107.231C144.816 105.723 141.867 105.532 141.11 106.511Z" fill="#222038"/>
<path d="M42.4424 78.5195C37.4184 78.5195 33.6204 82.5865 33.7704 87.9685C33.9184 93.2895 37.8074 96.4615 42.4424 96.4615C47.4964 96.4615 51.0844 92.1855 51.0844 87.4905C51.0844 82.7955 47.6454 78.5195 42.4424 78.5195Z" fill="#222038"/>
<path d="M104.811 78.5195C109.835 78.5195 113.633 82.5865 113.483 87.9685C113.335 93.2895 109.446 96.4615 104.811 96.4615C99.7574 96.4615 96.1694 92.1855 96.1694 87.4905C96.1694 82.7955 99.6074 78.5195 104.811 78.5195Z" fill="#222038"/>
<path d="M27.2883 94.1548C33.0583 93.8018 37.2823 95.8718 37.8333 97.9888C38.3843 100.106 32.0333 101.347 28.1643 101.347C24.2953 101.347 18.3093 100.617 18.0903 98.3538C17.8713 96.0918 21.8863 94.4848 27.2883 94.1548Z" fill="#FF8A8A"/>
<path d="M118.593 94.1548C124.363 93.8018 128.587 95.8718 129.138 97.9888C129.689 100.106 123.338 101.347 119.469 101.347C115.6 101.347 109.614 100.617 109.395 98.3538C109.176 96.0918 113.191 94.4848 118.593 94.1548Z" fill="#FF8A8A"/>
<path opacity="0.1" d="M33.1342 72.11C31.9762 68.426 38.8172 61.682 46.5032 62.333C51.4802 62.755 53.7852 70.098 49.8632 72.813C46.9312 74.843 34.4382 76.258 33.1342 72.11Z" fill="#222221"/>
<path opacity="0.1" d="M114.119 64.8478C115.277 61.1638 108.436 54.4198 100.75 55.0708C95.7733 55.4928 93.4683 62.8358 97.3903 65.5508C100.322 67.5808 112.815 68.9968 114.119 64.8478Z" fill="#222221"/>
<path d="M77.8253 89.9248C77.8253 89.9248 76.5853 100.304 73.6273 100.304C70.6693 100.304 69.4463 89.9248 69.4463 89.9248H77.8253Z" fill="#FF9F1F"/>
<path d="M77.8202 89.9248C77.8202 89.9248 77.6922 91.0228 77.4062 92.5198C76.8362 95.5858 75.6242 100.305 73.6272 100.305C71.7022 100.305 70.5192 95.9558 69.9342 92.8908C69.5922 91.2228 69.4492 89.9248 69.4492 89.9248H77.8202Z" fill="#FF9F1F"/>
<path d="M76.1194 90.7339C76.1194 90.7339 75.3844 97.7309 73.6304 97.7309C71.8764 97.7309 71.1514 90.7339 71.1514 90.7339H76.1194Z" fill="#FF8A8A"/>
<path opacity="0.1" d="M77.8202 89.9248C77.8202 89.9248 77.6922 91.0228 77.4062 92.5198L69.9352 92.8908C69.5932 91.2228 69.4502 89.9248 69.4502 89.9248H77.8202Z" fill="#222221"/>
<path d="M82.0662 90.9987C82.0662 92.2537 75.4692 91.3167 73.6272 91.3167C72.2322 91.3167 65.1882 92.2537 65.1882 90.9987C65.1882 89.7297 68.1172 84.6567 73.6272 84.6567C79.1372 84.6567 82.0662 89.7297 82.0662 90.9987Z" fill="#FF9F1F"/>
<path d="M124.582 145.355C124.582 145.355 134.956 113.113 124.508 106.367C119.595 103.196 102.564 127.213 102.564 127.213" fill="#F9DB49"/>
<path d="M126.123 145.129C127.245 141.631 128.126 138.038 128.881 134.445C130.217 128.085 131.303 121.307 130.466 114.807C129.944 110.758 127.787 104.16 122.507 105.531C120.235 106.121 118.274 107.635 116.544 109.159C114.199 111.225 112.073 113.538 110.033 115.9C106.897 119.532 103.917 123.327 101.139 127.241C100.414 128.262 103.472 127.919 103.992 127.185C106.022 124.326 108.174 121.545 110.388 118.827C113.659 114.812 117.286 109.953 121.846 107.317C122.14 107.147 122.486 106.913 122.827 106.841C122.635 106.882 122.797 106.833 122.886 106.87C123.696 107.202 124.43 108.021 124.959 108.711C126.491 110.711 127.089 113.352 127.39 115.803C128.14 121.911 127.161 128.23 125.942 134.214C125.163 138.038 124.236 141.861 123.043 145.58C122.757 146.469 125.822 146.067 126.123 145.129Z" fill="#222038"/>
</svg>
