<svg width="148" height="150" viewBox="0 0 148 150" fill="none" xmlns="http://www.w3.org/2000/svg">
<path d="M126.451 148.46H20.8062C20.8062 132.661 37.2451 107.851 37.2451 107.851H110.001C110.001 107.851 126.451 132.661 126.451 148.46Z" fill="#FFDB44"/>
<path d="M108.578 108.519C111.544 112.873 114.182 117.486 116.603 122.16C120.645 129.964 124.811 138.932 124.886 147.892C124.899 149.452 128.028 148.942 128.017 147.626C127.941 138.5 123.92 129.589 119.849 121.606C117.326 116.658 114.552 111.779 111.423 107.185C110.676 106.087 107.707 107.24 108.578 108.519Z" fill="#222038"/>
<path d="M22.3782 147.65C22.4532 138.698 26.4972 129.893 30.5112 122.077C32.9292 117.368 35.5662 112.715 38.5472 108.335C39.6612 106.698 36.7702 106.148 35.9402 107.368C32.8312 111.936 30.0602 116.773 27.5382 121.685C23.4442 129.658 19.3092 138.735 19.2332 147.867C19.2192 149.523 22.3662 149.095 22.3782 147.65Z" fill="#222038"/>
<path d="M37.6442 148.071C39.8172 144.533 41.9902 140.994 44.1622 137.456C44.4702 136.954 44.7792 136.452 45.0872 135.95C45.4442 135.369 43.6152 135.634 43.4642 135.665C42.9252 135.774 42.3892 135.922 41.8872 136.147C41.5922 136.279 41.2012 136.441 41.0252 136.728C38.8522 140.266 36.6793 143.805 34.5073 147.343C34.1993 147.845 33.8902 148.347 33.5822 148.849C33.2252 149.43 35.0543 149.165 35.2053 149.134C35.7433 149.025 36.2802 148.877 36.7822 148.652C37.0772 148.52 37.4682 148.358 37.6442 148.071Z" fill="#222038"/>
<path d="M113.911 147.906C111.738 144.368 109.565 140.83 107.392 137.291C107.084 136.789 106.775 136.287 106.467 135.785C105.898 134.858 102.078 136.473 102.335 136.892C104.508 140.43 106.681 143.969 108.854 147.507C109.162 148.009 109.471 148.511 109.779 149.013C110.348 149.941 114.168 148.325 113.911 147.906Z" fill="#222038"/>
<path d="M108.561 108.455C111.609 112.93 114.312 117.675 116.777 122.491C120.792 130.335 124.827 139.198 124.902 148.173C124.91 149.118 128.011 148.535 128.001 147.343C127.925 138.226 123.778 129.222 119.675 121.27C117.195 116.464 114.487 111.72 111.44 107.247C110.864 106.403 107.857 107.422 108.561 108.455Z" fill="#222038"/>
<path d="M22.3582 147.577C22.4342 138.541 26.5102 129.625 30.5742 121.743C33.0192 117.001 35.6892 112.323 38.6932 107.909C39.5172 106.699 36.3982 106.908 35.7952 107.795C32.7092 112.329 29.9712 117.14 27.4752 122.02C23.4262 129.936 19.3282 138.885 19.2532 147.941C19.2422 149.282 22.3492 148.658 22.3582 147.577Z" fill="#222038"/>
<path d="M142.382 106.869C134.796 116.736 117.016 129.412 73.6272 129.412C30.2382 129.412 12.4582 116.736 4.87219 106.869C-2.71381 96.9879 5.1142 82.4299 5.1142 82.4299C5.1142 82.4299 11.9872 45.7859 27.0582 26.5939C36.0122 15.2159 54.9622 11.1519 66.4122 9.95387C67.7522 7.55887 71.7162 0.870887 74.3682 0.999887C76.2222 1.09989 76.1222 7.57289 76.1222 7.57289C76.1222 7.57289 78.6172 4.89188 80.2862 4.97788C81.4412 5.04888 81.9832 8.19988 82.2112 10.1109C93.7462 11.4799 111.598 15.6579 120.196 26.5939C135.267 45.7859 142.14 82.4299 142.14 82.4299C142.14 82.4299 149.967 96.9879 142.382 106.869Z" fill="#FFDB44"/>
<path opacity="0.1" d="M142.381 106.869C134.796 116.736 117.015 129.412 73.626 129.412C30.237 129.412 12.457 116.736 4.87098 106.869C-2.05902 97.8427 3.41596 84.8967 4.88496 82.7437C3.77296 86.1657 -1.30302 116.893 73.625 116.893C148.24 116.893 143.549 86.4227 142.394 82.7867C143.949 85.0817 149.267 97.9007 142.381 106.869Z" fill="#222221"/>
<path d="M141.111 106.51C130.974 119.623 113.551 124.702 97.832 126.886C83.009 128.945 67.682 129 52.827 127.224C42.351 125.972 31.7481 123.614 22.2631 118.858C16.5041 115.97 11.1551 112.163 7.04607 107.161C3.37607 102.695 2.55207 97.2299 3.54607 91.6359C3.94307 89.4039 4.57806 87.2029 5.42006 85.0979C5.78306 84.1919 6.30606 83.3229 6.62606 82.4059C7.15606 80.8899 7.31606 79.1519 7.67406 77.5869C8.57806 73.6259 9.59905 69.6909 10.7251 65.7869C13.9051 54.7679 17.8561 43.7639 23.6941 33.8489C26.6201 28.8789 29.969 24.3179 34.762 21.0049C39.71 17.5839 45.4171 15.3599 51.1881 13.7639C54.0321 12.9769 56.919 12.3329 59.827 11.8369C61.003 11.6359 62.1821 11.4569 63.3641 11.2979C64.5071 11.1439 66.0091 11.2289 67.0631 10.7329C67.9691 10.3069 68.3521 9.20986 68.8431 8.39486C69.5441 7.23186 70.2811 6.08487 71.0931 4.99587C71.8371 3.99887 72.7111 3.22487 73.5371 2.31887C73.4331 2.43187 74.0871 1.92885 73.9771 2.00985C73.5721 2.30785 73.5091 1.68287 73.6011 2.01687C73.7131 2.42287 74.008 2.82885 74.124 3.26485C74.505 4.69585 74.5801 6.25087 74.5621 7.72787C74.5451 9.11287 76.814 8.54488 77.392 7.93188C77.67 7.63788 77.9641 7.35385 78.2691 7.08785C78.5231 6.86785 78.7841 6.65685 79.0621 6.46685C79.2291 6.34485 79.4021 6.23185 79.5811 6.12685C79.9441 6.00185 79.976 5.95786 79.676 5.99486C79.311 5.72986 79.8061 6.58787 79.8461 6.68087C80.0131 7.06687 80.1181 7.50785 80.2171 7.91485C80.4261 8.77285 80.5511 9.65088 80.6611 10.5269C80.7141 10.9529 81.316 11.0789 81.642 11.1189C91.446 12.3019 101.565 14.7139 110.102 19.8429C118.837 25.0899 123.935 34.0299 128.082 43.0619C131.968 51.5249 134.937 60.4069 137.387 69.3829C138.244 72.5239 139.035 75.6829 139.748 78.8599C140.041 80.1639 140.214 81.5379 140.584 82.8219C140.746 83.3829 140.535 82.7199 140.774 83.2109C141.007 83.6899 141.229 84.1739 141.439 84.6639C142.223 86.4969 142.859 88.3989 143.325 90.3379C144.679 95.9709 144.474 101.963 140.918 106.764C140.451 107.394 141.321 107.816 141.812 107.878C142.581 107.975 143.394 107.585 143.843 106.979C149.115 99.8609 147.593 89.9319 143.899 82.4349C143.851 82.3379 143.533 81.5949 143.629 81.9049C143.716 82.1869 143.64 81.7689 143.628 81.7069C143.492 81.0499 143.362 80.3919 143.222 79.7359C142.61 76.8739 141.926 74.0259 141.19 71.1929C138.824 62.0849 135.93 53.0719 132.168 44.4389C128.236 35.4149 123.378 25.7909 115.185 19.9329C105.876 13.2779 93.9731 10.4579 82.7791 9.10686C83.1061 9.30386 83.4331 9.50187 83.7601 9.69887C83.5031 7.64787 83.2461 3.90785 80.4591 3.97985C78.2821 4.03685 76.2791 5.70687 74.8521 7.21587C75.7951 7.28387 76.7391 7.35185 77.6821 7.41985C77.7121 4.94985 77.8671 -0.441139 74.1711 0.0288606C71.9331 0.313861 70.227 2.14986 68.9 3.82186C67.405 5.70686 66.1271 7.75386 64.9491 9.84786C65.4941 9.54986 66.04 9.25286 66.585 8.95486C55.845 10.0989 44.8161 12.6629 35.4171 18.1509C25.5721 23.8989 19.9531 33.9379 15.4641 44.0819C11.3351 53.4129 8.21707 63.1989 5.71407 73.0829C5.01707 75.8339 4.36706 78.5979 3.79506 81.3779C3.75506 81.5699 3.41907 82.9429 3.64607 82.3339C3.28907 83.2909 2.76006 84.2009 2.38506 85.1579C0.663058 89.5579 -0.383933 94.3249 0.132067 99.0639C0.611067 103.461 2.77306 107.037 5.72106 110.208C10.2161 115.043 15.8511 118.721 21.8251 121.464C31.2231 125.779 41.461 128.017 51.689 129.239C65.921 130.94 80.587 130.936 94.819 129.233C111.29 127.262 129.551 122.568 141.296 110.002C142.124 109.116 142.908 108.19 143.65 107.231C144.817 105.722 141.868 105.531 141.111 106.51Z" fill="#222038"/>
<path d="M104.811 78.5186C109.835 78.5186 113.633 82.5856 113.483 87.9686C113.335 93.2896 109.446 96.4616 104.811 96.4616C99.7569 96.4616 96.1689 92.1856 96.1689 87.4906C96.1689 82.7956 99.6079 78.5186 104.811 78.5186Z" fill="#222038"/>
<path d="M27.3399 82.5458C26.1469 82.8238 42.2849 75.4478 52.7369 88.1418C53.3929 88.9378 52.7329 91.1238 52.0959 91.2918C51.4599 91.4588 42.7229 89.3228 34.2769 93.4878C33.1419 94.0478 39.1619 87.5738 47.0889 87.9088C47.0889 87.9088 40.1789 81.9438 28.2059 83.2308C27.0449 83.3558 27.3399 82.5458 27.3399 82.5458Z" fill="#222038"/>
<path d="M27.288 94.1538C33.058 93.8008 37.282 95.8708 37.833 97.9878C38.384 100.105 32.033 101.346 28.164 101.346C24.295 101.346 18.309 100.616 18.09 98.3528C17.872 96.0908 21.886 94.4848 27.288 94.1538Z" fill="#FF8A8A"/>
<path d="M118.593 94.1538C124.363 93.8008 128.587 95.8708 129.138 97.9878C129.689 100.105 123.338 101.346 119.469 101.346C115.6 101.346 109.614 100.616 109.395 98.3528C109.176 96.0908 113.191 94.4848 118.593 94.1538Z" fill="#FF8A8A"/>
<path opacity="0.1" d="M32.4989 73.0118C32.4549 69.1508 40.952 64.6698 48.121 67.5128C52.764 69.3538 52.851 77.0498 48.312 78.5168C44.918 79.6128 32.5489 77.3608 32.4989 73.0118Z" fill="#222221"/>
<path opacity="0.1" d="M114.12 68.2076C115.278 64.5236 108.437 57.7796 100.751 58.4306C95.774 58.8526 93.469 66.1956 97.391 68.9106C100.322 70.9406 112.816 72.3566 114.12 68.2076Z" fill="#222221"/>
<path d="M77.37 91.5638C75.844 92.4758 74.361 93.1608 73.62 93.1608C73.078 93.1608 71.624 92.4768 70.084 91.5638C71.624 91.4638 73.064 91.3218 73.62 91.3218C74.361 91.3208 75.844 91.4638 77.37 91.5638Z" fill="#FF9F1F"/>
<path opacity="0.1" d="M77.37 91.5638C75.844 92.4758 74.361 93.1608 73.62 93.1608C73.078 93.1608 71.624 92.4768 70.084 91.5638C71.624 91.4638 73.064 91.3218 73.62 91.3218C74.361 91.3208 75.844 91.4638 77.37 91.5638Z" fill="#222221"/>
<path d="M82.066 90.9977C82.066 92.2527 75.469 91.3157 73.627 91.3157C72.232 91.3157 65.188 92.2527 65.188 90.9977C65.188 89.7287 68.117 84.6558 73.627 84.6558C79.137 84.6558 82.066 89.7287 82.066 90.9977Z" fill="#FF9F1F"/>
</svg>
