<svg width="147" height="149" viewBox="0 0 147 149" fill="none" xmlns="http://www.w3.org/2000/svg">
<path d="M127.872 147.938H22.2256C22.2256 132.14 38.6636 107.33 38.6636 107.33H111.42C111.42 107.33 127.872 132.139 127.872 147.938Z" fill="#FFDB44"/>
<path d="M109.981 107.933C113.029 112.408 115.732 117.153 118.197 121.969C122.212 129.813 126.247 138.676 126.322 147.651C126.33 148.596 129.431 148.013 129.421 146.821C129.344 137.704 125.198 128.7 121.095 120.748C118.615 115.942 115.907 111.198 112.86 106.725C112.285 105.88 109.277 106.9 109.981 107.933Z" fill="#222038"/>
<path d="M23.7786 147.055C23.8546 138.019 27.9306 129.103 31.9946 121.221C34.4396 116.479 37.1096 111.801 40.1136 107.387C40.9376 106.177 37.8186 106.386 37.2156 107.273C34.1296 111.807 31.3916 116.618 28.8966 121.498C24.8476 129.414 20.7496 138.363 20.6736 147.419C20.6616 148.759 23.7696 148.136 23.7786 147.055Z" fill="#222038"/>
<path d="M142.727 96.4291C136.58 107.251 120.726 122.266 77.7548 128.273C34.7838 134.279 15.4198 124.187 6.5418 115.465C-2.3382 106.729 3.3988 91.2281 3.3988 91.2281C3.3988 91.2281 5.13279 53.9851 17.4018 32.8911C24.6948 20.3831 42.8998 13.7351 54.0728 10.9641C55.0688 8.40608 58.0688 1.23508 60.7128 0.994078C62.5628 0.836078 63.3598 7.26108 63.3598 7.26108C63.3598 7.26108 65.4598 4.26108 67.1238 4.11508C68.2778 4.02608 69.2508 7.07207 69.7408 8.93207C81.3548 8.69107 99.6128 10.3571 109.642 19.9981C127.225 36.9191 139.104 72.2591 139.104 72.2591C139.104 72.2591 148.872 85.5931 142.727 96.4291Z" fill="#FFDB44"/>
<path opacity="0.1" d="M142.726 96.4287C136.579 107.251 120.725 122.266 77.7537 128.273C34.7827 134.279 15.4187 124.187 6.54069 115.465C-1.57231 107.485 2.05868 93.9047 3.21468 91.5697C2.58668 95.1127 1.81368 126.247 76.0207 115.875C149.918 105.546 141.054 76.0177 139.406 72.5767C141.264 74.6347 148.305 86.5927 142.726 96.4287Z" fill="#222221"/>
<path d="M141.264 96.3209C133.103 110.601 116.628 118.049 101.496 122.397C87.0977 126.534 71.9017 128.724 56.9317 129.052C46.1387 129.288 35.0697 128.37 24.8107 124.815C18.7237 122.706 12.8347 119.547 8.1867 115.03C4.2057 111.161 2.89271 105.719 3.17671 100.309C3.28971 98.1449 3.6247 95.9909 4.1377 93.8869C4.3637 92.9589 4.7647 92.0359 4.9467 91.1039C5.2287 89.6669 5.14871 88.0659 5.27171 86.6059C5.60871 82.5959 6.0647 78.5949 6.6267 74.6099C8.2217 63.2939 10.5487 51.8489 14.8727 41.2319C17.0727 35.8299 19.7337 30.6929 24.0027 26.6309C28.4217 22.4269 33.8487 19.3579 39.4027 16.9169C42.0787 15.7409 44.8157 14.7059 47.5977 13.8059C48.7567 13.4309 49.9217 13.0769 51.0937 12.7439C52.2467 12.4159 53.6457 12.2629 54.7237 11.7419C55.6787 11.2799 55.8757 10.1939 56.2637 9.28586C56.7977 8.03686 57.3717 6.80186 58.0217 5.60886C58.5937 4.55886 59.2047 3.45886 60.0317 2.58386C60.0797 2.53286 60.6057 2.10386 60.6137 2.03886C60.6467 1.75186 60.1797 1.86286 60.1497 2.07586C60.1257 2.24986 60.7317 3.10286 60.8287 3.35886C61.3507 4.72586 61.6267 6.22586 61.8107 7.67386C61.9807 9.00686 64.4177 7.93686 64.8227 7.36586C65.0277 7.07786 67.0887 4.95786 67.1347 5.06886C66.8877 5.07186 66.6407 5.07486 66.3927 5.07686C66.5267 5.20586 66.6427 5.34886 66.7407 5.50586C66.8847 5.88686 67.1567 6.25086 67.3187 6.63786C67.6837 7.51186 67.9447 8.42986 68.1917 9.34286C68.3467 9.91486 69.1057 9.93686 69.5677 9.92886C79.5897 9.74086 90.2587 10.7629 99.4827 14.9369C108.632 19.0769 114.795 27.3649 120.042 35.6379C124.998 43.4529 129.117 51.7909 132.742 60.2969C133.975 63.1889 135.148 66.1069 136.251 69.0509C136.691 70.2249 137.01 71.5239 137.55 72.6559C137.856 73.2969 138.337 73.8729 138.706 74.4789C139.754 76.2029 140.649 78.0199 141.377 79.9029C143.431 85.2199 144.078 91.1539 141.264 96.3209C140.491 97.7399 143.617 97.5879 144.19 96.5359C148.441 88.7279 145.639 79.1389 140.92 72.1759C140.858 72.0839 140.469 71.4779 140.596 71.7299C140.726 71.9889 140.577 71.6129 140.552 71.5439C140.321 70.9139 140.106 70.2779 139.877 69.6479C138.895 66.9519 137.845 64.2809 136.749 61.6299C133.158 52.9489 129.056 44.4359 124.174 36.4029C119.102 28.0579 112.972 19.0889 104.146 14.3899C93.8187 8.89086 81.4347 7.71486 69.9157 7.93086C70.3747 8.12586 70.8327 8.32087 71.2917 8.51687C70.6987 6.32487 69.8677 2.60586 66.8777 3.19186C64.7387 3.61086 63.1077 5.45386 61.8987 7.15386C62.9027 7.05086 63.9067 6.94886 64.9107 6.84586C64.5807 4.25686 63.9117 -0.81214 60.2257 0.11086C58.1737 0.62486 56.8037 2.53587 55.7607 4.23887C54.4857 6.32187 53.5017 8.58486 52.6117 10.8559C53.0167 10.5839 53.4217 10.3119 53.8267 10.0399C43.2577 12.6829 32.4427 16.8029 23.9257 23.7559C15.1077 30.9549 11.0657 41.7899 8.07871 52.4629C5.32971 62.2849 3.6397 72.4099 2.5697 82.5449C2.2897 85.1949 2.0507 87.8499 1.8897 90.5099C1.8067 91.8809 1.27171 93.1219 0.955706 94.4639C-0.0432943 98.7109 -0.388294 103.269 0.551706 107.559C1.50471 111.911 3.95371 115.275 7.30371 118.097C12.4347 122.418 18.5567 125.375 24.9377 127.355C35.0447 130.49 45.7767 131.276 56.3047 131.061C70.7777 130.766 85.4427 128.692 99.4297 124.955C115.335 120.706 132.459 113.54 142.255 99.5909C142.948 98.6039 143.593 97.5839 144.191 96.5369C144.987 95.1409 141.858 95.2829 141.264 96.3209Z" fill="#222038"/>
<path d="M65.1856 81.4668C64.4376 81.8418 63.9256 82.4768 63.4116 83.1198C62.8836 83.7818 62.3976 84.4618 61.9176 85.1588C61.4486 85.8398 61.0416 86.5808 60.6696 87.3188C60.4836 87.6878 60.2976 88.0558 60.1116 88.4248C59.9146 88.8158 59.8006 89.2378 59.6026 89.6248C59.5066 89.8128 59.7786 89.9308 59.9026 89.7958C60.1916 89.4808 60.5426 89.2318 60.8356 88.9168C61.1076 88.6238 61.3796 88.3298 61.6516 88.0368C62.2236 87.4198 62.7826 86.7788 63.2666 86.0888C63.7406 85.4138 64.1956 84.7388 64.6206 84.0318C65.0516 83.3158 65.4927 82.6138 65.5847 81.7668C65.6067 81.5608 65.3876 81.3648 65.1856 81.4668Z" fill="#FF8A8A"/>
<path d="M71.2157 80.624C70.4677 80.999 69.9547 81.634 69.4417 82.277C68.9137 82.939 68.4277 83.619 67.9477 84.316C67.4787 84.997 67.0717 85.738 66.6997 86.476C66.5137 86.845 66.3277 87.213 66.1417 87.582C65.9447 87.973 65.8307 88.395 65.6327 88.782C65.5367 88.97 65.8087 89.088 65.9327 88.953C66.2217 88.638 66.5727 88.389 66.8657 88.074C67.1377 87.781 67.4097 87.488 67.6817 87.194C68.2537 86.577 68.8127 85.936 69.2967 85.246C69.7707 84.571 70.2247 83.896 70.6507 83.189C71.0817 82.473 71.5227 81.771 71.6147 80.924C71.6367 80.718 71.4187 80.522 71.2157 80.624Z" fill="#FF8A8A"/>
<path d="M77.2467 79.7813C76.4987 80.1563 75.9857 80.7913 75.4727 81.4343C74.9447 82.0963 74.4587 82.7763 73.9787 83.4733C73.5097 84.1543 73.1027 84.8953 72.7307 85.6333C72.5447 86.0023 72.3587 86.3703 72.1727 86.7393C71.9757 87.1303 71.8617 87.5523 71.6637 87.9393C71.5677 88.1273 71.8397 88.2453 71.9637 88.1103C72.2527 87.7953 72.6037 87.5463 72.8967 87.2313C73.1687 86.9383 73.4407 86.6443 73.7127 86.3513C74.2847 85.7343 74.8437 85.0933 75.3277 84.4033C75.8017 83.7283 76.2567 83.0533 76.6817 82.3463C77.1127 81.6303 77.5537 80.9283 77.6457 80.0813C77.6677 79.8753 77.4487 79.6793 77.2467 79.7813Z" fill="#FF8A8A"/>
<path d="M83.2767 78.938C82.5287 79.313 82.0157 79.948 81.5027 80.591C80.9747 81.253 80.4887 81.933 80.0087 82.63C79.5397 83.311 79.1327 84.052 78.7607 84.79C78.5747 85.159 78.3887 85.527 78.2027 85.896C78.0057 86.287 77.8917 86.709 77.6937 87.096C77.5977 87.284 77.8697 87.403 77.9937 87.267C78.2827 86.952 78.6337 86.703 78.9267 86.388C79.1987 86.095 79.4707 85.802 79.7427 85.508C80.3157 84.891 80.8737 84.25 81.3577 83.56C81.8317 82.885 82.2867 82.21 82.7117 81.503C83.1427 80.787 83.5837 80.085 83.6757 79.238C83.6977 79.033 83.4787 78.837 83.2767 78.938Z" fill="#FF8A8A"/>
<path d="M39.8256 82.1859C34.8496 82.8809 31.6516 87.4349 32.5446 92.7449C33.4276 97.9939 37.7186 100.597 42.3086 99.9549C47.3136 99.2549 50.2756 94.5229 49.6256 89.8739C48.9766 85.2249 44.9786 81.4659 39.8256 82.1859Z" fill="#222038"/>
<path d="M101.594 73.553C106.569 72.858 110.894 76.36 111.491 81.711C112.081 87.001 108.669 90.681 104.078 91.322C99.0725 92.022 94.9265 88.283 94.2765 83.634C93.6265 78.984 96.4405 74.273 101.594 73.553Z" fill="#222038"/>
<path d="M26.9817 99.7688C32.6477 98.6208 37.1167 100.086 37.9557 102.106C38.7947 104.126 32.6767 106.235 28.8447 106.77C25.0127 107.306 18.9837 107.411 18.4537 105.2C17.9237 102.99 21.6777 100.844 26.9817 99.7688Z" fill="#FF8A8A"/>
<path d="M117.408 87.1301C123.074 85.9821 127.543 87.4471 128.382 89.4671C129.221 91.4871 123.103 93.5951 119.271 94.1311C115.439 94.6671 109.41 94.7721 108.88 92.5621C108.35 90.3511 112.104 88.2041 117.408 87.1301Z" fill="#FF8A8A"/>
<path opacity="0.1" d="M34.2788 69.2259C31.9208 66.1689 36.0118 57.4769 43.4498 55.4349C48.2658 54.1119 52.9648 60.2079 50.2218 64.1099C48.1708 67.0269 36.9348 72.6689 34.2788 69.2259Z" fill="#222221"/>
<path opacity="0.1" d="M103.375 59.5679C104.805 55.9809 98.4866 48.7449 90.7736 48.8199C85.7786 48.8689 82.9316 56.0189 86.6396 59.0199C89.4126 61.2619 101.765 63.6079 103.375 59.5679Z" fill="#222221"/>
<path d="M75.9425 91.54C74.7015 92.495 73.5185 93.223 72.8625 93.308C72.3775 93.379 71.0945 93.009 69.6545 92.438C70.9375 92.167 72.0785 91.882 72.5635 91.811C73.2335 91.712 74.5455 91.654 75.9425 91.54Z" fill="#FF9F1F"/>
<path opacity="0.1" d="M75.9425 91.54C74.7015 92.495 73.5185 93.223 72.8625 93.308C72.3775 93.379 71.0945 93.009 69.6545 92.438C70.9375 92.167 72.0785 91.882 72.5635 91.811C73.2335 91.712 74.5455 91.654 75.9425 91.54Z" fill="#222221"/>
<path d="M80.8686 90.2848C81.0496 91.5268 74.3866 91.5498 72.5636 91.8148C71.1826 92.0158 64.3476 93.9578 64.1666 92.7158C63.9836 91.4598 66.1516 86.0178 71.6046 85.2248C77.0556 84.4308 80.6856 89.0288 80.8686 90.2848Z" fill="#FF9F1F"/>
<path d="M80.8616 90.2861C80.9756 91.0701 78.3516 91.3701 75.9426 91.5411C74.5456 91.6551 73.2336 91.7121 72.5636 91.8121C72.0786 91.8831 70.9376 92.1681 69.6546 92.4391C67.2306 92.9811 64.2796 93.523 64.1656 92.71C64.0946 92.254 64.3366 91.256 64.9356 90.115C65.7196 88.632 67.1176 86.907 69.2416 85.923C69.9546 85.595 70.7386 85.3531 71.6086 85.2241C72.4786 85.0961 73.3056 85.11 74.0756 85.238C76.4996 85.58 78.4106 86.9491 79.5656 88.2041C80.3486 89.0591 80.8046 89.8581 80.8616 90.2861Z" fill="#FF9F1F"/>
<path d="M29.0317 134.987C29.0317 134.987 43.8477 104.53 56.0587 106.888C61.7997 107.997 57.4817 137.121 57.4817 137.121" fill="#F9DB49"/>
<path d="M30.5717 134.761C32.0087 131.812 33.6446 128.949 35.3546 126.152C38.5396 120.943 42.1006 115.673 46.6416 111.54C48.7036 109.663 54.5426 104.938 56.3526 109.225C57.2116 111.26 57.3416 113.639 57.4366 115.816C57.5656 118.79 57.4547 121.774 57.2607 124.742C56.9847 128.954 56.5567 133.171 55.9397 137.347C55.7877 138.377 58.8846 137.819 59.0206 136.895C59.5946 133.011 59.9987 129.092 60.2807 125.177C60.5087 122.019 60.6557 118.845 60.5607 115.678C60.4887 113.284 60.3976 110.635 59.4516 108.395C57.4116 103.565 50.2067 106.805 47.1817 108.839C41.7947 112.463 37.7396 118.084 34.2406 123.452C31.7776 127.23 29.4667 131.157 27.4897 135.214C27.1327 135.948 30.1307 135.667 30.5717 134.761Z" fill="#222038"/>
<path d="M110.279 134.987C110.279 134.987 95.4625 104.53 83.2515 106.888C77.5105 107.997 81.8285 137.121 81.8285 137.121" fill="#F9DB49"/>
<path d="M111.829 134.572C110.212 131.253 108.352 128.035 106.401 124.904C102.949 119.366 99.0536 113.685 93.9086 109.576C91.8306 107.917 89.4196 106.471 86.7476 106.086C84.6156 105.779 81.8696 105.988 80.4956 107.876C79.2326 109.611 79.0316 112.098 78.8706 114.16C78.6346 117.194 78.7016 120.25 78.8616 123.287C79.1126 128.049 79.5826 132.819 80.2806 137.537C80.4096 138.409 83.5296 137.719 83.3796 136.707C82.8696 133.255 82.5016 129.775 82.2196 126.298C81.7906 121.002 81.1826 115.127 82.5176 109.914C82.7326 109.075 83.0646 108.398 83.4736 107.654C83.7396 107.169 83.7466 107.655 83.3136 107.572C83.3586 107.581 84.1236 107.529 84.4726 107.56C86.9076 107.776 89.1546 109.242 91.0136 110.727C95.8296 114.573 99.5516 119.823 102.83 124.986C104.965 128.349 106.984 131.822 108.73 135.405C109.188 136.342 112.195 135.324 111.829 134.572Z" fill="#222038"/>
<path d="M106.579 5.41504L107.299 8.70504C108.028 12.037 110.617 14.648 113.943 15.405L116.91 16.079L114.274 16.679C110.78 17.474 108.116 20.308 107.541 23.845L106.58 29.752L105.619 23.845C105.043 20.308 102.38 17.474 98.8858 16.679L96.2498 16.079L99.2158 15.405C102.542 14.648 105.132 12.038 105.86 8.70504L106.579 5.41504Z" fill="white"/>
<path d="M106.579 34.1891L104.914 23.9591C104.382 20.6941 101.954 18.1091 98.7257 17.3741L93.0337 16.0821L99.0557 14.7111C102.1 14.0191 104.496 11.6031 105.163 8.55508L106.579 2.08008L107.995 8.55508C108.662 11.6031 111.058 14.0191 114.101 14.7111L120.125 16.0821L114.431 17.3741C111.205 18.1091 108.776 20.6941 108.243 23.9591L106.579 34.1891ZM99.4427 16.0841C103.04 17.0641 105.719 20.0251 106.32 23.7301L106.579 25.3131L106.837 23.7301C107.44 20.0251 110.12 17.0641 113.716 16.0841C110.17 15.2491 107.382 12.4211 106.604 8.85708L106.58 8.75008L106.556 8.85708C105.777 12.4211 102.989 15.2491 99.4427 16.0841Z" fill="#222038"/>
<path d="M91.1497 21.3779L91.5048 23.0019C91.8648 24.6459 93.1418 25.9349 94.7838 26.3079L96.2478 26.6409L94.9468 26.9369C93.2228 27.3289 91.9087 28.7269 91.6237 30.4729L91.1497 33.3879L90.6748 30.4729C90.3908 28.7279 89.0768 27.3289 87.3528 26.9369L86.0518 26.6409L87.5158 26.3079C89.1568 25.9349 90.4348 24.6469 90.7948 23.0019L91.1497 21.3779Z" fill="white"/>
<path d="M91.1497 37.82L89.9717 30.586C89.7317 29.121 88.6437 27.96 87.1937 27.63L82.8337 26.64L87.3567 25.612C88.7237 25.301 89.7987 24.217 90.0987 22.849L91.1497 18.041L92.2007 22.849C92.4997 24.216 93.5747 25.301 94.9407 25.612L99.4647 26.64L95.1037 27.63C93.6557 27.96 92.5667 29.12 92.3277 30.586L91.1497 37.82ZM88.6777 26.66C89.8297 27.241 90.7167 28.242 91.1507 29.466C91.5847 28.242 92.4707 27.241 93.6237 26.66C92.5337 26.152 91.6517 25.267 91.1507 24.174C90.6487 25.267 89.7677 26.151 88.6777 26.66Z" fill="#222038"/>
</svg>
