<svg width="148" height="153" viewBox="0 0 148 153" fill="none" xmlns="http://www.w3.org/2000/svg">
<path d="M126.45 148.461H20.804C20.804 132.663 37.243 107.853 37.243 107.853H109.999C109.999 107.853 126.45 132.662 126.45 148.461Z" fill="#FFDB44"/>
<path d="M108.559 108.456C111.607 112.931 114.31 117.676 116.775 122.492C120.79 130.336 124.825 139.199 124.9 148.174C124.908 149.119 128.009 148.536 127.999 147.344C127.923 138.227 123.776 129.223 119.673 121.271C117.193 116.465 114.485 111.721 111.438 107.248C110.862 106.403 107.855 107.423 108.559 108.456Z" fill="#222038"/>
<path d="M22.357 147.578C22.433 138.542 26.509 129.626 30.573 121.744C33.018 117.002 35.688 112.324 38.692 107.91C39.516 106.7 36.397 106.909 35.794 107.796C32.708 112.33 29.97 117.141 27.475 122.021C23.426 129.937 19.328 138.886 19.252 147.942C19.24 149.282 22.348 148.659 22.357 147.578Z" fill="#222038"/>
<path d="M142.382 106.87C134.796 116.737 117.016 129.413 73.6272 129.413C30.2382 129.413 12.4582 116.737 4.87219 106.87C-2.71381 96.9889 5.1142 82.4309 5.1142 82.4309C5.1142 82.4309 11.9872 45.7859 27.0582 26.5949C36.0122 15.2159 54.9622 11.1529 66.4122 9.95486C67.7522 7.55986 71.7162 0.871864 74.3682 1.00086C76.2222 1.10086 76.1222 7.57386 76.1222 7.57386C76.1222 7.57386 78.6172 4.89286 80.2862 4.97886C81.4412 5.04986 81.9832 8.20186 82.2112 10.1119C93.7462 11.4809 111.598 15.6579 120.196 26.5949C135.267 45.7869 142.14 82.4309 142.14 82.4309C142.14 82.4309 149.967 96.9889 142.382 106.87Z" fill="#FFDB44"/>
<path opacity="0.1" d="M142.381 106.87C134.796 116.737 117.015 129.413 73.626 129.413C30.237 129.413 12.457 116.737 4.87098 106.87C-2.05902 97.8436 3.41596 84.8976 4.88496 82.7446C3.77296 86.1666 -1.30302 116.894 73.625 116.894C148.24 116.894 143.549 86.4226 142.394 82.7876C143.949 85.0826 149.267 97.9006 142.381 106.87Z" fill="#222221"/>
<path d="M141.111 106.511C130.974 119.624 113.551 124.703 97.832 126.887C83.009 128.946 67.682 129 52.827 127.225C42.351 125.973 31.7481 123.615 22.2631 118.859C16.5041 115.971 11.1551 112.164 7.04607 107.162C3.37607 102.696 2.55207 97.2309 3.54607 91.6379C3.94307 89.4059 4.57806 87.2049 5.42006 85.0999C5.78306 84.1939 6.30606 83.3249 6.62606 82.4079C7.15606 80.8919 7.31606 79.1539 7.67406 77.5899C8.57806 73.6289 9.59905 69.6939 10.7251 65.7899C13.9051 54.7709 17.8561 43.7669 23.6941 33.8519C26.6201 28.8819 29.969 24.3209 34.762 21.0069C39.71 17.5859 45.4171 15.3619 51.1881 13.7659C54.0321 12.9789 56.919 12.3349 59.827 11.8389C61.003 11.6379 62.1821 11.4589 63.3641 11.2999C64.5071 11.1469 66.0091 11.2309 67.0631 10.7349C67.9691 10.3089 68.3521 9.21186 68.8431 8.39686C69.5441 7.23386 70.2811 6.08686 71.0931 4.99786C71.8371 4.00086 72.7111 3.22686 73.5371 2.31986C73.4331 2.43386 74.0871 1.92986 73.9771 2.01086C73.5721 2.30886 73.5091 1.68386 73.6011 2.01686C73.7131 2.42286 74.008 2.82786 74.124 3.26486C74.505 4.69586 74.5801 6.25086 74.5621 7.72786C74.5451 9.11286 76.814 8.54486 77.392 7.93186C77.67 7.63786 77.9641 7.35386 78.2691 7.08786C78.5231 6.86786 78.7841 6.65686 79.0621 6.46686C79.2291 6.34486 79.4021 6.23186 79.5811 6.12686C79.9441 6.00186 79.976 5.95786 79.676 5.99486C79.311 5.72886 79.8061 6.58786 79.8461 6.68086C80.0131 7.06686 80.1181 7.50786 80.2171 7.91486C80.4261 8.77386 80.5511 9.65086 80.6611 10.5269C80.7141 10.9529 81.316 11.0789 81.642 11.1189C91.446 12.3019 101.565 14.7139 110.102 19.8419C118.837 25.0889 123.935 34.0289 128.082 43.0609C131.968 51.5239 134.937 60.4059 137.387 69.3819C138.244 72.5229 139.035 75.6819 139.748 78.8589C140.041 80.1639 140.214 81.5369 140.584 82.8209C140.746 83.3819 140.535 82.7189 140.774 83.2099C141.007 83.6889 141.229 84.1729 141.439 84.6629C142.223 86.4959 142.859 88.3979 143.325 90.3369C144.679 95.9699 144.474 101.962 140.918 106.763C140.451 107.393 141.321 107.815 141.812 107.877C142.581 107.974 143.394 107.584 143.843 106.978C149.115 99.8599 147.593 89.9309 143.899 82.4339C143.851 82.3369 143.533 81.5949 143.629 81.9039C143.716 82.1859 143.64 81.7679 143.628 81.7059C143.492 81.0489 143.362 80.3909 143.222 79.7349C142.61 76.8719 141.926 74.0249 141.19 71.1919C138.824 62.0839 135.93 53.0709 132.168 44.4379C128.236 35.4139 123.378 25.7899 115.185 19.9319C105.876 13.2769 93.9731 10.4559 82.7791 9.10586C83.1061 9.30286 83.4331 9.49986 83.7601 9.69786C83.5031 7.64786 83.2461 3.90686 80.4591 3.97886C78.2821 4.03586 76.2791 5.70586 74.8521 7.21586C75.7951 7.28386 76.7391 7.35186 77.6821 7.41986C77.7121 4.94986 77.8671 -0.441139 74.1711 0.0288606C71.9331 0.313861 70.227 2.14986 68.9 3.82186C67.405 5.70686 66.1271 7.75386 64.9491 9.84786C65.4941 9.54986 66.04 9.25286 66.585 8.95486C55.845 10.0999 44.8161 12.6629 35.4171 18.1509C25.5721 23.8989 19.9531 33.9379 15.4641 44.0819C11.3351 53.4129 8.21707 63.1989 5.71407 73.0829C5.01707 75.8339 4.36706 78.5979 3.79506 81.3779C3.75506 81.5699 3.41907 82.9429 3.64607 82.3339C3.28907 83.2909 2.76006 84.2009 2.38506 85.1579C0.663058 89.5579 -0.383933 94.3249 0.132067 99.0639C0.611067 103.462 2.77306 107.037 5.72106 110.208C10.2161 115.043 15.8511 118.721 21.8251 121.464C31.2231 125.779 41.461 128.017 51.689 129.239C65.921 130.94 80.587 130.936 94.819 129.233C111.29 127.262 129.551 122.568 141.296 110.002C142.124 109.116 142.908 108.191 143.65 107.231C144.817 105.723 141.868 105.532 141.111 106.511Z" fill="#222038"/>
<path d="M27.288 94.1548C33.058 93.8018 37.282 95.8718 37.833 97.9888C38.384 100.106 32.033 101.347 28.164 101.347C24.295 101.347 18.309 100.617 18.09 98.3538C17.872 96.0918 21.886 94.4848 27.288 94.1548Z" fill="#FF8A8A"/>
<path d="M118.593 94.1548C124.363 93.8018 128.587 95.8718 129.138 97.9888C129.689 100.106 123.338 101.347 119.469 101.347C115.6 101.347 109.614 100.617 109.395 98.3538C109.176 96.0908 113.191 94.4848 118.593 94.1548Z" fill="#FF8A8A"/>
<path opacity="0.1" d="M33.6861 68.9726C34.6971 65.2466 44.0951 63.2556 50.2161 67.9486C54.1801 70.9876 52.1611 78.4146 47.3951 78.5866C43.8321 78.7146 32.5471 73.1696 33.6861 68.9726Z" fill="#222221"/>
<path opacity="0.1" d="M113.567 68.9726C112.556 65.2466 103.158 63.2556 97.0362 67.9486C93.0722 70.9876 95.0912 78.4146 99.8582 78.5866C103.422 78.7146 114.707 73.1696 113.567 68.9726Z" fill="#222221"/>
<path d="M78.019 94.9876C76.229 96.0586 74.489 96.8616 73.619 96.8616C72.983 96.8616 71.277 96.0586 69.47 94.9876C71.277 94.8706 72.967 94.7036 73.619 94.7036C74.489 94.7036 76.229 94.8706 78.019 94.9876Z" fill="#FF9F1F"/>
<path opacity="0.1" d="M78.019 94.9876C76.229 96.0586 74.489 96.8616 73.619 96.8616C72.983 96.8616 71.277 96.0586 69.47 94.9876C71.277 94.8706 72.967 94.7036 73.619 94.7036C74.489 94.7036 76.229 94.8706 78.019 94.9876Z" fill="#222221"/>
<path d="M83.5301 94.3248C83.5301 95.7968 75.7891 94.6978 73.6271 94.6978C71.9901 94.6978 63.7241 95.7978 63.7241 94.3248C63.7241 92.8358 67.1621 86.8828 73.6271 86.8828C80.0931 86.8828 83.5301 92.8358 83.5301 94.3248Z" fill="#FF9F1F"/>
<path d="M59.166 85.4175C64.446 88.8235 66.652 96.4425 63.312 101.922C62.876 102.685 62.315 103.373 61.781 104.046C62.046 103.204 62.431 102.446 62.673 101.636C64.738 95.9555 62.9 90.0985 59.166 85.4175Z" fill="#222038"/>
<path d="M88.0881 85.4175C84.3551 90.0975 82.5161 95.9555 84.5811 101.636C84.8231 102.446 85.207 103.204 85.473 104.046C84.94 103.373 84.3781 102.685 83.9421 101.922C80.6011 96.4425 82.8081 88.8235 88.0881 85.4175Z" fill="#222038"/>
<path d="M24.9529 88.0298C24.9529 88.0298 24.2289 84.1848 24.4699 83.7518C24.6989 83.3408 54.4559 87.5518 55.0159 88.0458C55.3719 88.3598 54.0119 91.0078 53.9949 91.3008C53.9779 91.5948 53.8289 93.8058 53.6379 94.0298C53.4469 94.2538 24.5289 90.7198 24.2409 90.5848C23.9529 90.4518 24.8529 88.7148 24.9529 88.0298Z" fill="#222038"/>
<path d="M122.301 88.0298C122.301 88.0298 123.025 84.1848 122.785 83.7518C122.556 83.3408 92.7988 87.5518 92.2388 88.0458C91.8828 88.3598 93.2428 91.0078 93.2598 91.3008C93.2768 91.5948 93.4258 93.8058 93.6168 94.0298C93.8078 94.2538 122.726 90.7198 123.014 90.5848C123.301 90.4518 122.401 88.7148 122.301 88.0298Z" fill="#222038"/>
<path d="M62.178 128.928C62.178 128.928 89.779 151.172 106.157 148.735C118.815 146.851 123.271 130.553 112.474 123.997C97.639 114.987 62.178 128.928 62.178 128.928Z" fill="#F9DB49"/>
<path d="M60.9769 129.799C66.5979 134.322 72.7189 138.351 79.0089 141.869C87.7329 146.748 99.5699 152.661 109.723 148.882C119.406 145.278 124.145 132.053 115.692 124.613C111.978 121.344 106.783 120.245 101.976 119.956C96.4059 119.622 90.8229 120.283 85.3509 121.287C77.2529 122.772 69.1739 125.05 61.5029 128.059C60.9089 128.292 60.3639 128.985 60.7559 129.599C61.1749 130.256 62.2889 130.019 62.8519 129.798C68.0459 127.76 74.2839 125.922 80.0609 124.552C85.1169 123.353 90.2599 122.439 95.4539 122.147C100.046 121.889 104.902 122.067 109.213 123.832C113.636 125.643 116.851 129.598 116.994 134.475C117.131 139.138 114.637 143.789 110.583 146.137C106.433 148.541 101.409 148.001 96.9669 146.814C91.9119 145.462 87.1099 143.238 82.5269 140.744C75.8279 137.099 69.3259 132.844 63.3779 128.058C62.3559 127.234 59.6169 128.705 60.9769 129.799Z" fill="#222038"/>
<path d="M84.8859 143.529C84.8859 143.529 51.9849 156.726 37.0369 149.605C25.4829 144.101 25.9899 127.213 38.2319 124.101C55.0539 119.825 84.8859 143.529 84.8859 143.529Z" fill="#F9DB49"/>
<path d="M84.291 142.957C78.431 145.302 72.31 147.124 66.175 148.578C61.013 149.801 55.7189 150.739 50.4049 150.877C45.7439 150.998 40.642 150.587 36.628 147.974C32.562 145.326 30.088 140.601 30.256 135.745C30.416 131.113 33.074 126.568 37.606 125.043C41.832 123.621 46.762 124.649 50.896 125.901C55.81 127.389 60.5 129.584 65.003 132.03C71.438 135.525 77.699 139.562 83.442 144.118C84.249 144.759 87.0969 143.55 86.3289 142.941C80.8889 138.626 74.978 134.792 68.93 131.396C60.269 126.531 49.331 121.146 39.093 123.162C34.104 124.145 29.696 127.238 27.942 132.132C26.286 136.751 27.27 142.052 30.244 145.912C36.969 154.641 50.8429 153.007 60.3189 151.299C68.8679 149.758 77.408 147.334 85.4799 144.103C85.9079 143.932 86.6999 143.484 86.3289 142.942C85.9779 142.429 84.698 142.794 84.291 142.957Z" fill="#222038"/>
<path d="M122.286 54.5587C122.286 57.4897 120.903 60.8817 117.11 60.8817C113.317 60.8817 111.934 57.4897 111.934 54.5587C111.934 49.2477 117.11 41.0347 117.11 41.0347C117.11 41.0347 122.286 49.2467 122.286 54.5587Z" fill="white"/>
</svg>
