<svg width="148" height="149" viewBox="0 0 148 149" fill="none" xmlns="http://www.w3.org/2000/svg">
<path d="M126.449 148.46H20.803C20.803 132.661 37.242 107.851 37.242 107.851H109.998C109.998 107.851 126.449 132.661 126.449 148.46Z" fill="#FFDB44"/>
<path d="M108.558 108.455C111.606 112.93 114.309 117.675 116.774 122.491C120.789 130.335 124.824 139.198 124.899 148.173C124.907 149.118 128.008 148.535 127.998 147.343C127.922 138.226 123.775 129.222 119.672 121.27C117.192 116.464 114.484 111.72 111.437 107.247C110.862 106.403 107.855 107.422 108.558 108.455Z" fill="#222038"/>
<path d="M22.356 147.577C22.432 138.541 26.508 129.625 30.572 121.743C33.017 117.001 35.687 112.323 38.691 107.909C39.515 106.699 36.396 106.908 35.792 107.795C32.706 112.329 29.968 117.14 27.473 122.02C23.424 129.936 19.326 138.885 19.25 147.941C19.239 149.282 22.347 148.658 22.356 147.577Z" fill="#222038"/>
<path d="M142.381 106.869C134.795 116.736 117.015 129.412 73.626 129.412C30.237 129.412 12.457 116.736 4.87098 106.869C-2.71502 96.9879 5.11295 82.4299 5.11295 82.4299C5.11295 82.4299 11.986 45.7859 27.057 26.5939C36.011 15.2159 54.961 11.1519 66.411 9.95387C67.751 7.55887 71.715 0.870887 74.367 0.999887C76.221 1.09989 76.121 7.57289 76.121 7.57289C76.121 7.57289 78.616 4.89188 80.285 4.97788C81.44 5.04888 81.982 8.19988 82.21 10.1109C93.745 11.4799 111.597 15.6579 120.195 26.5939C135.266 45.7859 142.139 82.4299 142.139 82.4299C142.139 82.4299 149.966 96.9879 142.381 106.869Z" fill="#FFDB44"/>
<path opacity="0.1" d="M142.38 106.869C134.794 116.736 117.014 129.412 73.625 129.412C30.236 129.412 12.456 116.736 4.86999 106.869C-2.06001 97.8427 3.41597 84.8967 4.88397 82.7437C3.77197 86.1657 -1.30402 116.893 73.624 116.893C148.239 116.893 143.548 86.4227 142.393 82.7867C143.948 85.0817 149.266 97.9007 142.38 106.869Z" fill="#222221"/>
<path d="M141.11 106.51C130.973 119.623 113.55 124.702 97.8311 126.886C83.0081 128.945 67.6811 129 52.8261 127.224C42.3501 125.972 31.7471 123.614 22.2621 118.858C16.5031 115.97 11.1541 112.163 7.04506 107.161C3.37506 102.695 2.55106 97.2299 3.54506 91.6359C3.94206 89.4039 4.57705 87.2029 5.41905 85.0979C5.78105 84.1919 6.30508 83.3229 6.62508 82.4059C7.15508 80.8899 7.31505 79.1519 7.67305 77.5869C8.57705 73.6259 9.59808 69.6909 10.7241 65.7869C13.9041 54.7679 17.8551 43.7639 23.6931 33.8489C26.6191 28.8789 29.9681 24.3179 34.7611 21.0049C39.7091 17.5839 45.4161 15.3599 51.1871 13.7639C54.0311 12.9769 56.9181 12.3329 59.8261 11.8369C61.0021 11.6359 62.1811 11.4569 63.3631 11.2979C64.5051 11.1439 66.0081 11.2289 67.0621 10.7329C67.9681 10.3069 68.3511 9.20986 68.8421 8.39486C69.5431 7.23186 70.2801 6.08487 71.0921 4.99587C71.8361 3.99887 72.7101 3.22487 73.5361 2.31887C73.4331 2.43287 74.0861 1.92885 73.9761 2.00985C73.5711 2.30785 73.5081 1.68287 73.6001 2.01687C73.7121 2.42287 74.0071 2.82885 74.1231 3.26485C74.5041 4.69585 74.5791 6.25087 74.5611 7.72787C74.5441 9.11287 76.8131 8.54488 77.3911 7.93188C77.6691 7.63788 77.9631 7.35385 78.2691 7.08785C78.5231 6.86785 78.7841 6.65685 79.0621 6.46685C79.2291 6.34485 79.4021 6.23185 79.5811 6.12685C79.9441 6.00185 79.9761 5.95786 79.6761 5.99486C79.3111 5.72986 79.8061 6.58787 79.8461 6.68087C80.0131 7.06687 80.1181 7.50785 80.2171 7.91485C80.4261 8.77285 80.55 9.65088 80.66 10.5269C80.713 10.9529 81.3151 11.0789 81.6411 11.1189C91.4461 12.3019 101.564 14.7139 110.101 19.8429C118.836 25.0899 123.934 34.0299 128.081 43.0619C131.967 51.5249 134.936 60.4069 137.387 69.3829C138.245 72.5239 139.035 75.6829 139.748 78.8599C140.041 80.1639 140.214 81.5379 140.584 82.8219C140.746 83.3829 140.535 82.7199 140.774 83.2109C141.007 83.6899 141.229 84.1739 141.439 84.6639C142.223 86.4969 142.859 88.3989 143.325 90.3379C144.679 95.9709 144.474 101.963 140.918 106.764C140.451 107.394 141.321 107.816 141.812 107.878C142.581 107.975 143.394 107.585 143.843 106.979C149.115 99.8609 147.593 89.9319 143.899 82.4349C143.851 82.3379 143.533 81.5949 143.629 81.9049C143.716 82.1869 143.64 81.7689 143.628 81.7069C143.492 81.0499 143.362 80.3919 143.222 79.7359C142.61 76.8739 141.926 74.0259 141.19 71.1929C138.824 62.0849 135.93 53.0719 132.168 44.4389C128.236 35.4149 123.378 25.7909 115.185 19.9329C105.876 13.2779 93.9731 10.4579 82.7791 9.10686C83.1061 9.30386 83.4331 9.50187 83.7601 9.69887C83.5031 7.64787 83.2471 3.90785 80.4591 3.97985C78.2821 4.03685 76.2791 5.70687 74.8521 7.21587C75.7961 7.28387 76.7391 7.35185 77.6821 7.41985C77.7121 4.94985 77.8671 -0.441139 74.1711 0.0288606C71.9331 0.313861 70.2271 2.14986 68.9001 3.82186C67.4051 5.70686 66.1271 7.75386 64.9491 9.84786C65.4941 9.54986 66.0401 9.25286 66.5851 8.95486C55.8451 10.0989 44.8161 12.6629 35.4161 18.1509C25.5711 23.8989 19.9521 33.9379 15.4631 44.0819C11.3341 53.4129 8.21607 63.1989 5.71407 73.0829C5.01707 75.8339 4.36706 78.5979 3.79506 81.3779C3.75506 81.5699 3.41907 82.9429 3.64607 82.3339C3.28907 83.2909 2.76006 84.2009 2.38506 85.1579C0.663058 89.5579 -0.383933 94.3249 0.132067 99.0639C0.611067 103.461 2.77306 107.037 5.72106 110.208C10.2161 115.043 15.8511 118.721 21.8261 121.464C31.2241 125.779 41.4621 128.017 51.6901 129.239C65.9221 130.94 80.5881 130.936 94.8201 129.233C111.291 127.262 129.552 122.568 141.297 110.002C142.125 109.116 142.909 108.19 143.651 107.231C144.816 105.722 141.866 105.531 141.11 106.51Z" fill="#222038"/>
<path d="M27.2881 94.1538C33.0581 93.8008 37.2821 95.8708 37.8331 97.9878C38.3841 100.105 32.0331 101.346 28.1641 101.346C24.2951 101.346 18.3091 100.616 18.0901 98.3528C17.8711 96.0908 21.8861 94.4848 27.2881 94.1538Z" fill="#FF8A8A"/>
<path d="M118.592 94.1538C124.362 93.8008 128.586 95.8708 129.137 97.9878C129.688 100.105 123.337 101.346 119.468 101.346C115.599 101.346 109.613 100.616 109.394 98.3528C109.175 96.0908 113.19 94.4848 118.592 94.1538Z" fill="#FF8A8A"/>
<path opacity="0.1" d="M33.133 68.2076C31.975 64.5236 38.816 57.7796 46.502 58.4306C51.479 58.8526 53.784 66.1956 49.862 68.9106C46.93 70.9406 34.437 72.3566 33.133 68.2076Z" fill="#222221"/>
<path opacity="0.1" d="M114.118 68.2076C115.276 64.5236 108.435 57.7796 100.749 58.4306C95.7721 58.8526 93.4671 66.1956 97.3891 68.9106C100.321 70.9406 112.814 72.3566 114.118 68.2076Z" fill="#222221"/>
<path d="M81.2612 88.2573C81.2612 88.2573 79.0042 99.1213 73.6162 99.1213C68.2282 99.1213 66.0012 88.2573 66.0012 88.2573H81.2612Z" fill="#FF9F1F"/>
<path d="M81.2523 88.2563C81.2523 88.2563 81.0183 89.4054 80.4993 90.9724C79.4603 94.1814 77.2533 99.1213 73.6173 99.1213C70.1123 99.1213 67.9563 94.5694 66.8923 91.3604C66.2693 89.6144 66.0093 88.2563 66.0093 88.2563H81.2523Z" fill="#FF9F1F"/>
<path d="M79.1831 88.2563C79.1831 88.2563 77.5411 97.1703 73.6201 97.1703C69.7001 97.1703 68.0791 88.2563 68.0791 88.2563H79.1831Z" fill="#FF8A8A"/>
<path opacity="0.1" d="M81.2523 88.2563C81.2523 88.2563 81.0183 89.4054 80.4993 90.9724L66.8923 91.3604C66.2693 89.6144 66.0093 88.2563 66.0093 88.2563H81.2523Z" fill="#222221"/>
<path d="M82.0701 88.5764C82.0701 89.8314 75.4731 88.8944 73.6311 88.8944C72.2361 88.8944 65.1921 89.8314 65.1921 88.5764C65.1921 87.3074 68.1211 82.2344 73.6311 82.2344C79.1411 82.2344 82.0701 87.3074 82.0701 88.5764Z" fill="#FF9F1F"/>
<path d="M43.1651 74.6396C36.8671 74.6396 32.1062 79.7377 32.2932 86.4857C32.4782 93.1557 37.3541 97.1317 43.1651 97.1317C49.5001 97.1317 53.9992 91.7707 53.9992 85.8857C53.9992 80.0007 49.6881 74.6396 43.1651 74.6396Z" fill="#222038"/>
<path d="M33.7211 87.0928C30.2941 87.0928 27.7032 89.8668 27.8052 93.5388C27.9062 97.1688 30.5591 99.3318 33.7211 99.3318C37.1691 99.3318 39.6162 96.4148 39.6162 93.2118C39.6162 90.0098 37.2701 87.0928 33.7211 87.0928Z" fill="#222038"/>
<path d="M51.5542 85.8828C51.5542 90.4468 48.0692 94.6007 43.1642 94.6007C40.8272 94.6007 38.6952 93.7808 37.1652 92.2638C37.2472 92.5648 37.2882 92.8788 37.2882 93.2068C37.2882 95.1608 35.8122 96.9237 33.7212 96.9237C31.7942 96.9237 30.1962 95.6117 30.1272 93.4117C30.0582 91.1837 31.6442 89.5038 33.7212 89.5038C34.4322 89.5038 35.0742 89.6947 35.5932 90.0367C35.0742 88.9707 34.7732 87.7277 34.7322 86.3467C34.5952 81.1267 38.2852 77.1777 43.1632 77.1777C48.2202 77.1777 51.5542 81.3318 51.5542 85.8828Z" fill="white"/>
<path d="M104.019 74.6396C110.317 74.6396 115.078 79.7377 114.89 86.4857C114.705 93.1557 109.829 97.1317 104.019 97.1317C97.684 97.1317 93.1851 91.7707 93.1851 85.8857C93.1851 80.0007 97.496 74.6396 104.019 74.6396Z" fill="#222038"/>
<path d="M113.463 87.0928C116.89 87.0928 119.481 89.8668 119.379 93.5388C119.278 97.1688 116.625 99.3318 113.463 99.3318C110.015 99.3318 107.567 96.4148 107.567 93.2118C107.568 90.0098 109.914 87.0928 113.463 87.0928Z" fill="#222038"/>
<path d="M95.6301 85.8828C95.6301 90.4468 99.1151 94.6007 104.02 94.6007C106.357 94.6007 108.489 93.7808 110.019 92.2638C109.937 92.5648 109.896 92.8788 109.896 93.2068C109.896 95.1608 111.372 96.9237 113.463 96.9237C115.39 96.9237 116.988 95.6117 117.057 93.4117C117.125 91.1837 115.54 89.5038 113.463 89.5038C112.752 89.5038 112.11 89.6947 111.591 90.0367C112.11 88.9707 112.411 87.7277 112.452 86.3467C112.589 81.1267 108.899 77.1777 104.021 77.1777C98.9641 77.1777 95.6301 81.3318 95.6301 85.8828Z" fill="white"/>
<path d="M39.7742 128.367C39.7742 128.367 62.3902 104.197 71.0062 109.034C76.2312 111.967 60.9932 140.15 60.9932 140.15" fill="#F9DB49"/>
<path d="M41.2011 128.339C43.5781 125.802 46.1051 123.393 48.6881 121.069C53.1611 117.044 57.9991 112.866 63.5111 110.332C65.1911 109.56 67.2351 108.751 69.0811 109.412C70.6491 109.973 70.6401 111.715 70.4901 113.144C69.9171 118.587 67.3301 123.986 65.1021 128.912C63.3481 132.791 61.4761 136.629 59.4521 140.376C59.1341 140.965 60.5281 140.922 60.7501 140.892C61.3991 140.806 62.2041 140.533 62.5331 139.924C64.3881 136.49 66.1091 132.977 67.7391 129.432C69.1181 126.434 70.4271 123.397 71.5481 120.292C72.4531 117.786 73.3481 115.159 73.5901 112.49C73.7351 110.892 73.7011 109.071 72.0901 108.256C69.9531 107.175 67.2481 107.604 65.0571 108.267C58.8601 110.144 53.4201 114.535 48.5791 118.68C45.0131 121.733 41.5571 124.966 38.3461 128.394C37.8401 128.935 38.7821 129.137 39.1421 129.141C39.8541 129.151 40.7071 128.866 41.2011 128.339Z" fill="#222038"/>
<path d="M107.463 128.367C107.463 128.367 84.847 104.197 76.231 109.034C71.006 111.967 86.244 140.15 86.244 140.15" fill="#F9DB49"/>
<path d="M108.911 127.792C106.262 124.964 103.434 122.287 100.537 119.716C95.7561 115.473 90.4771 110.998 84.4491 108.653C81.1501 107.369 73.9331 106.542 73.6091 111.647C73.4571 114.032 74.2111 116.485 74.9281 118.729C75.9191 121.831 77.1631 124.852 78.4781 127.829C80.3851 132.147 82.4521 136.41 84.6961 140.564C85.2001 141.498 88.1781 140.442 87.7951 139.734C86.1301 136.651 84.5781 133.502 83.0931 130.329C80.6771 125.165 78.1481 119.753 77.0161 114.132C76.7451 112.786 76.2271 110.56 77.2131 109.369C77.1731 109.417 77.3611 109.27 77.5321 109.238C77.7071 109.204 78.1461 109.157 78.4591 109.169C79.5701 109.209 80.6751 109.553 81.7081 109.939C87.3691 112.056 92.3271 116.223 96.8261 120.148C100.016 122.931 103.12 125.85 106.016 128.941C106.665 129.634 109.596 128.524 108.911 127.792Z" fill="#222038"/>
<path d="M68.1541 72.2749C68.1541 73.9219 68.1541 75.5679 68.1541 77.2149C68.1541 77.4479 68.1541 77.6809 68.1541 77.9139C68.1541 78.3729 68.867 78.3739 68.867 77.9139C68.867 76.2669 68.867 74.6209 68.867 72.9739C68.867 72.7409 68.867 72.5079 68.867 72.2749C68.867 71.8159 68.1541 71.8159 68.1541 72.2749Z" fill="#222038"/>
<path d="M73.2751 71.1909C73.2751 73.7019 73.2751 76.2129 73.2751 78.7239C73.2751 79.0789 73.2751 79.434 73.2751 79.789C73.2751 80.248 73.9881 80.249 73.9881 79.789C73.9881 77.278 73.9881 74.7669 73.9881 72.2559C73.9881 71.9009 73.9881 71.5459 73.9881 71.1909C73.9881 70.7319 73.2751 70.7319 73.2751 71.1909Z" fill="#222038"/>
<path d="M78.3481 72.2749C78.3481 73.9219 78.3481 75.5679 78.3481 77.2149C78.3481 77.4479 78.3481 77.6809 78.3481 77.9139C78.3481 78.3729 79.0611 78.3739 79.0611 77.9139C79.0611 76.2669 79.0611 74.6209 79.0611 72.9739C79.0611 72.7409 79.0611 72.5079 79.0611 72.2749C79.0611 71.8159 78.3481 71.8159 78.3481 72.2749Z" fill="#222038"/>
</svg>
