<svg width="173" height="144" viewBox="0 0 173 144" fill="none" xmlns="http://www.w3.org/2000/svg">
<path d="M66.34 143.866C49.406 143.866 31.014 138.898 27.837 128.062C26.39 127.947 24.955 127.723 23.55 127.391C15.108 125.397 7.60795 119.471 3.48595 111.539C-0.763047 103.366 -1.15104 93.702 2.44996 85.691C6.46296 76.76 15.504 70.503 24.949 70.119C25.253 70.106 25.567 70.099 25.883 70.099C26.392 70.099 26.902 70.116 27.415 70.151C27.694 67.368 29.093 63.708 33.621 60.318C36.266 58.337 39.685 56.668 43.804 55.342C47.658 19.633 63.706 0.003 89.128 0C90.537 0 91.922 0.0879934 93.25 0.261993C94.842 0.0879934 96.483 0 98.136 0C99.54 0 100.924 0.0869885 102.256 0.256989C103.824 0.0869885 105.464 0 107.138 0C108.553 0 109.938 0.0880005 111.261 0.263C112.853 0.0880005 114.494 0 116.147 0C117.54 0 118.921 0.0869956 120.257 0.257996C121.835 0.0869956 123.481 0 125.155 0C134.045 0 141.724 3.435 147.982 10.211C168.697 32.645 168.055 87.487 166.543 112.565C170.643 114.31 173.278 118.751 172.773 123.287C172.707 123.873 172.592 124.451 172.432 125.008C171.21 129.228 167.223 132.174 162.734 132.174H121.179C118.103 132.174 115.22 130.807 113.272 128.422C111.365 126.086 110.613 123.068 111.21 120.14L111.243 119.981C112.072 116.117 114.979 112.91 118.67 111.558C120.68 77.811 118.024 37.576 104.971 20.373C96.081 29.985 92.854 46.01 91.683 56.345C95.013 57.655 97.776 59.212 99.917 60.989C104.384 64.695 105.322 68.635 105.322 71.288L105.321 124.71C105.322 137.286 85.712 143.866 66.34 143.866ZM25.773 89.947C23.781 90.028 21.492 91.731 20.551 93.824C19.45 96.273 19.663 99.634 21.094 102.387C22.458 105.012 24.761 107.012 27.356 107.863V90.247C26.871 90.052 26.367 89.944 25.896 89.944L25.773 89.947Z" fill="url(#paint0_linear_35_11344)"/>
<path d="M66.3403 140.895C49.1443 140.895 30.8833 135.392 30.3423 125.18C30.2643 125.181 30.1873 125.181 30.1103 125.181C28.1253 125.181 26.1493 124.952 24.2343 124.499C16.6213 122.701 9.85127 117.344 6.12227 110.169C2.28827 102.794 1.92927 94.0979 5.16027 86.9079C8.72227 78.9799 16.7233 73.4259 25.0703 73.0859C25.3393 73.0739 25.6113 73.0689 25.8833 73.0689C27.3583 73.0689 28.8543 73.2399 30.3293 73.5729V71.2889C30.3293 69.1009 31.2093 65.834 35.4023 62.696C38.1383 60.648 41.9673 58.9069 46.5623 57.6149C48.5643 36.2559 56.8673 2.97495 89.1293 2.97095C90.5363 2.97095 91.9093 3.06695 93.2163 3.25595C94.8143 3.06595 96.4673 2.97095 98.1373 2.97095C99.5363 2.97095 100.91 3.06495 102.226 3.25195C103.797 3.06495 105.447 2.97095 107.139 2.97095C108.55 2.97095 109.922 3.06693 111.226 3.25693C112.827 3.06693 114.48 2.97095 116.148 2.97095C117.541 2.97095 118.911 3.06595 120.226 3.25195C121.802 3.06595 123.457 2.97095 125.156 2.97095C133.184 2.97095 140.129 6.08493 145.8 12.2269C166.516 34.6619 164.947 92.1649 163.425 114.794C163.881 114.843 164.327 114.936 164.762 115.072C168.033 116.096 170.209 119.486 169.822 122.959C169.775 123.379 169.692 123.79 169.578 124.185C168.723 127.14 165.91 129.204 162.735 129.204H121.179C118.998 129.204 116.955 128.234 115.573 126.542C114.233 124.901 113.703 122.784 114.121 120.733C114.121 120.733 114.136 120.655 114.142 120.629C114.893 117.131 117.948 114.361 121.499 113.906C123.967 76.4799 120.862 32.6689 105.184 16.0249C93.3773 26.3339 89.6513 45.8919 88.4903 58.3459C92.4453 59.6739 95.7093 61.3589 98.0193 63.2769C101.599 66.2469 102.351 69.2739 102.351 71.2899C102.351 71.3149 102.35 124.712 102.35 124.712C102.351 135.223 83.7973 140.895 66.3403 140.895ZM25.6403 86.9789C22.5273 87.1069 19.2503 89.4729 17.8423 92.6069C16.3603 95.9029 16.5973 100.176 18.4593 103.758C20.3473 107.392 23.7013 110.087 27.4313 110.968C28.2533 111.162 29.1193 111.261 30.0033 111.261C30.1113 111.261 30.2213 111.259 30.3293 111.256V88.567C29.0573 87.567 27.4383 86.9729 25.8973 86.9729C25.8113 86.9739 25.7263 86.9739 25.6403 86.9789Z" fill="url(#paint1_linear_35_11344)"/>
<path d="M30.1103 122.209C28.3763 122.209 26.6323 122.012 24.9183 121.607C18.1353 120.005 12.0943 115.217 8.7583 108.799C5.3403 102.222 5.0073 94.4928 7.8693 88.1248C10.9803 81.1998 17.9413 76.3488 25.1903 76.0548C33.0243 75.7248 40.6243 80.9578 42.8443 88.2018L35.2323 90.5358C34.0573 86.7028 29.7673 83.8288 25.5143 84.0108C21.2763 84.1838 17.0073 87.2178 15.1323 91.3898C13.2883 95.4948 13.5523 100.759 15.8233 105.129C18.1053 109.519 22.1893 112.783 26.7483 113.86C31.3453 114.945 36.4483 113.672 39.7483 110.614L45.1603 116.454C41.1403 120.177 35.6763 122.209 30.1103 122.209Z" fill="url(#paint2_linear_35_11344)"/>
<path d="M99.3798 71.2878H33.2988V124.711C33.2988 132.008 48.0928 137.924 66.3398 137.924C84.5868 137.924 99.3798 132.009 99.3798 124.711V71.2878Z" fill="url(#paint3_linear_35_11344)"/>
<path d="M66.3408 84.502C84.5883 84.502 99.3808 78.5863 99.3808 71.2889C99.3808 63.9916 84.5883 58.0759 66.3408 58.0759C48.0933 58.0759 33.3008 63.9916 33.3008 71.2889C33.3008 78.5863 48.0933 84.502 66.3408 84.502Z" fill="url(#paint4_linear_35_11344)"/>
<path d="M99.3808 71.2879C99.3808 72.5239 98.9548 73.7219 98.1618 74.8559C94.2738 69.2929 81.4988 65.2089 66.3398 65.2089C51.1818 65.2089 38.4058 69.2929 34.5178 74.8559C33.7248 73.7219 33.2988 72.5239 33.2988 71.2879C33.2988 63.9939 48.0908 58.0779 66.3398 58.0779C84.5888 58.0779 99.3808 63.9939 99.3808 71.2879Z" fill="url(#paint5_linear_35_11344)"/>
<path d="M66.3408 60.0769C84.6328 60.0769 97.3808 65.9859 97.3808 71.2899C97.3808 76.5939 84.6328 82.5029 66.3408 82.5029C48.0488 82.5029 35.3008 76.5939 35.3008 71.2899C35.3008 65.9859 48.0488 60.0769 66.3408 60.0769ZM66.3408 58.0769C48.0938 58.0769 33.3008 63.9919 33.3008 71.2899C33.3008 78.5879 48.0938 84.5029 66.3408 84.5029C84.5878 84.5029 99.3808 78.5869 99.3808 71.2899C99.3808 63.9929 84.5888 58.0769 66.3408 58.0769Z" fill="url(#paint6_linear_35_11344)"/>
<path d="M58.037 74.4759H49.029C49.029 74.4759 45.077 5.94692 89.129 5.94092C90.528 5.94092 91.876 6.04291 93.172 6.25391C54.386 11.2189 58.037 74.4759 58.037 74.4759Z" fill="url(#paint7_linear_35_11344)"/>
<path d="M102.186 6.24888C100.446 6.47088 98.791 6.8119 97.221 7.2559C63.713 16.7529 67.04 74.4769 67.04 74.4769H58.037C58.037 74.4769 54.386 11.2199 93.171 6.25489C94.752 6.04989 96.407 5.9419 98.136 5.9419C99.541 5.9409 100.889 6.04388 102.186 6.24888Z" fill="url(#paint8_linear_35_11344)"/>
<path d="M111.178 6.25391C109.449 6.46991 107.8 6.81091 106.236 7.25491C104.485 7.74991 102.835 8.37492 101.283 9.12592C73.0575 22.6159 76.0495 74.4759 76.0495 74.4759H67.0415C67.0415 74.4759 63.7145 16.7519 97.2225 7.25491C98.7915 6.81091 100.448 6.46992 102.188 6.24792H102.194C103.769 6.04292 105.419 5.94092 107.142 5.94092C108.539 5.94092 109.887 6.04391 111.178 6.25391Z" fill="url(#paint9_linear_35_11344)"/>
<path d="M120.186 6.24888C118.451 6.47088 116.802 6.8119 115.232 7.2559C113.492 7.7509 111.848 8.37589 110.307 9.12089C108.538 9.95689 106.9 10.9519 105.371 12.0729C82.4296 28.8779 85.0566 74.4769 85.0566 74.4769H76.0486C76.0486 74.4769 73.0566 22.6169 101.282 9.1269C102.834 8.3759 104.484 7.7509 106.235 7.2559C107.799 6.8119 109.448 6.47089 111.177 6.25489C111.183 6.24889 111.183 6.24889 111.188 6.25489C112.769 6.04989 114.424 5.9419 116.147 5.9419C117.547 5.9409 118.889 6.04388 120.186 6.24888Z" fill="url(#paint10_linear_35_11344)"/>
<path d="M132.896 121.474H123.888C123.888 121.474 132.527 35.9519 105.371 12.0719C106.901 10.9519 108.539 9.95587 110.307 9.11987C142.365 27.7169 132.896 121.474 132.896 121.474Z" fill="url(#paint11_linear_35_11344)"/>
<path d="M141.899 121.474H132.896C132.896 121.474 142.365 27.7169 110.307 9.12085C111.848 8.37585 113.492 7.74986 115.232 7.25586C152.153 20.0219 141.899 121.474 141.899 121.474Z" fill="url(#paint12_linear_35_11344)"/>
<path d="M150.907 121.474H141.899C141.899 121.474 152.153 20.0228 115.232 7.25479C116.802 6.81079 118.451 6.4698 120.186 6.2478H120.192C161.888 12.7998 150.907 121.474 150.907 121.474Z" fill="url(#paint13_linear_35_11344)"/>
<path d="M159.915 121.474H150.907C150.907 121.474 161.889 12.7999 120.191 6.24887C121.772 6.04387 123.427 5.94189 125.156 5.94189C171.585 5.93589 159.915 121.474 159.915 121.474Z" fill="url(#paint14_linear_35_11344)"/>
<path d="M85.687 70.7729C84.295 70.1579 82.49 70.4979 81.598 71.7299C81.472 70.1679 80.515 68.6969 79.137 67.9499C77.759 67.2029 76.004 67.2029 74.627 67.9509C73.25 68.6979 71.978 70.1559 71.853 71.7179C71.925 70.7439 71.287 69.7609 70.368 69.4299C69.449 69.0989 68.253 69.4679 67.687 70.2629C67.507 68.2529 66.197 66.3829 64.369 65.5279C62.541 64.6729 60.265 64.8669 58.608 66.0169C56.95 67.1679 56.1 69.2089 56.262 71.2199C55.925 70.7269 55.278 70.4679 54.694 70.5909C54.11 70.7139 53.648 71.1039 53.538 71.6909C52.973 70.5759 51.813 69.7859 50.569 69.6679C49.325 69.5499 48.037 70.1069 47.272 71.0949C46.507 72.0829 46.289 73.4689 46.715 74.6439L46.93 76.6159H87.617V74.5269C87.927 73.0379 87.08 71.3879 85.687 70.7729Z" fill="url(#paint15_linear_35_11344)"/>
<path d="M166.87 122.629C167.094 120.621 165.803 118.51 163.875 117.906C162.212 117.386 160.251 118.004 159.306 119.404C160.01 117.628 159.543 115.411 158.14 114.086C156.538 112.572 153.916 112.318 152.005 113.417C150.441 114.316 149.426 115.956 149.253 117.719C149.087 117.14 148.695 116.618 148.162 116.331C147.272 115.852 146.102 116.018 145.323 116.663C144.932 116.987 144.653 117.361 144.484 117.78C144.448 116.017 143.458 114.265 141.918 113.372C139.973 112.245 137.347 112.515 135.601 113.931C133.985 115.242 132.822 117.365 133.006 119.422C132.834 118.68 132.328 118.016 131.64 117.685C130.802 117.282 129.74 117.392 129.002 117.958C128.264 118.524 127.693 119.594 127.865 120.508C127.028 118.231 124.588 116.653 122.167 116.823C119.747 116.994 117.552 118.899 117.044 121.272C117.04 121.289 117.037 121.307 117.033 121.324C116.514 123.874 118.578 126.23 121.181 126.23H162.736C164.545 126.23 166.222 125.094 166.724 123.356C166.793 123.12 166.842 122.876 166.87 122.629Z" fill="url(#paint16_linear_35_11344)"/>
<path d="M52.458 120.078C54.682 125.53 60.029 129.376 66.28 129.376C72.531 129.376 77.878 125.53 80.102 120.078" stroke="url(#paint17_linear_35_11344)" stroke-width="3" stroke-miterlimit="10" stroke-linecap="round" stroke-linejoin="round"/>
<path d="M77.8291 116.158C77.8291 116.158 78.5831 121.58 84.9051 121.182" stroke="url(#paint18_linear_35_11344)" stroke-width="3" stroke-miterlimit="10" stroke-linecap="round" stroke-linejoin="round"/>
<path d="M54.8514 116.158C54.8514 116.158 54.0974 121.58 47.7754 121.182" stroke="url(#paint19_linear_35_11344)" stroke-width="3" stroke-miterlimit="10" stroke-linecap="round" stroke-linejoin="round"/>
<path d="M60.4898 95.4429C60.4898 100.494 59.3708 105.01 57.6278 108.001C56.9838 107.803 56.3208 107.644 55.6568 107.536C55.4488 107.496 55.2408 107.467 55.0328 107.447C54.1808 107.338 53.3198 107.308 52.4578 107.348C52.2498 107.358 52.0518 107.368 51.8538 107.397C51.8238 107.387 51.7948 107.387 51.7648 107.397C51.5468 107.417 51.3288 107.447 51.1018 107.476C50.8738 107.506 50.6458 107.545 50.4188 107.585C50.1908 107.625 49.9538 107.674 49.7258 107.733C49.0518 107.901 48.3788 108.109 47.7348 108.377C45.8528 105.396 44.6348 100.712 44.6348 95.4429C44.6348 94.6409 44.6648 93.8579 44.7138 93.0859H60.4108C60.4608 93.8589 60.4898 94.6409 60.4898 95.4429Z" fill="url(#paint20_linear_35_11344)"/>
<path d="M58.5092 95.443C58.5092 100.573 57.3602 105.049 55.6572 107.535C55.4492 107.505 55.2412 107.466 55.0332 107.446C54.1812 107.337 53.3202 107.307 52.4582 107.347C52.2602 107.357 52.0622 107.367 51.8542 107.396C51.8242 107.386 51.7952 107.386 51.7652 107.396C51.5472 107.406 51.3292 107.436 51.1022 107.475C50.8742 107.495 50.6462 107.534 50.4192 107.584C50.1912 107.624 49.9542 107.673 49.7262 107.732C49.6872 107.732 49.6572 107.742 49.6172 107.752C48.8352 106.692 48.1712 105.236 47.6662 103.484L51.9442 100.255L46.9632 100.205C46.7352 98.719 46.6162 97.115 46.6162 95.441C46.6162 94.639 46.6462 93.847 46.6952 93.084H58.4312C58.4802 93.849 58.5092 94.641 58.5092 95.443Z" fill="url(#paint21_linear_35_11344)"/>
<path d="M42.6943 91.9739C53.6093 96.9689 61.7953 91.9739 61.7953 91.9739" stroke="url(#paint22_linear_35_11344)" stroke-width="3" stroke-miterlimit="10" stroke-linecap="round" stroke-linejoin="round"/>
<path d="M44.9785 108.976C47.7695 107.582 53.4035 105.756 60.2415 108.84" stroke="url(#paint23_linear_35_11344)" stroke-width="3" stroke-miterlimit="10" stroke-linecap="round" stroke-linejoin="round"/>
<path d="M88.313 95.4429C88.313 100.494 87.194 105.01 85.451 108.001C84.807 107.803 84.144 107.644 83.48 107.536C83.272 107.496 83.064 107.467 82.856 107.447C82.004 107.338 81.143 107.308 80.281 107.348C80.073 107.358 79.875 107.368 79.677 107.397C79.647 107.387 79.618 107.387 79.588 107.397C79.37 107.417 79.152 107.447 78.925 107.476C78.697 107.506 78.469 107.545 78.242 107.585C78.014 107.625 77.777 107.674 77.549 107.733C76.876 107.901 76.202 108.109 75.558 108.377C73.676 105.396 72.458 100.712 72.458 95.4429C72.458 94.6409 72.488 93.8579 72.537 93.0859H88.234C88.284 93.8589 88.313 94.6409 88.313 95.4429Z" fill="url(#paint24_linear_35_11344)"/>
<path d="M86.3334 95.443C86.3334 100.573 85.1844 105.049 83.4814 107.535C83.2734 107.505 83.0654 107.466 82.8574 107.446C82.0054 107.337 81.1444 107.307 80.2824 107.347C80.0844 107.357 79.8864 107.367 79.6784 107.396C79.6484 107.386 79.6194 107.386 79.5894 107.396C79.3714 107.406 79.1534 107.436 78.9264 107.475C78.6984 107.495 78.4704 107.534 78.2434 107.584C78.0154 107.624 77.7784 107.673 77.5504 107.732C77.5114 107.732 77.4814 107.742 77.4414 107.752C76.6594 106.692 75.9954 105.236 75.4904 103.484L79.7684 100.255L74.7874 100.205C74.5594 98.719 74.4404 97.115 74.4404 95.441C74.4404 94.639 74.4704 93.847 74.5194 93.084H86.2554C86.3034 93.849 86.3334 94.641 86.3334 95.443Z" fill="url(#paint25_linear_35_11344)"/>
<path d="M70.5186 91.9739C81.4336 96.9689 89.6196 91.9739 89.6196 91.9739" stroke="url(#paint26_linear_35_11344)" stroke-width="3" stroke-miterlimit="10" stroke-linecap="round" stroke-linejoin="round"/>
<path d="M72.8018 108.976C75.5938 107.582 81.2267 105.756 88.0647 108.84" stroke="url(#paint27_linear_35_11344)" stroke-width="3" stroke-miterlimit="10" stroke-linecap="round" stroke-linejoin="round"/>
<defs>
<linearGradient id="paint0_linear_35_11344" x1="-0.000144855" y1="71.9325" x2="172.836" y2="71.9325" gradientUnits="userSpaceOnUse">
<stop stop-color="#C9CCD1"/>
<stop offset="1" stop-color="white"/>
</linearGradient>
<linearGradient id="paint1_linear_35_11344" x1="2.96857" y1="71.9325" x2="169.866" y2="71.9325" gradientUnits="userSpaceOnUse">
<stop stop-color="#0A0A0A"/>
<stop offset="1" stop-color="#1F1F1F"/>
</linearGradient>
<linearGradient id="paint2_linear_35_11344" x1="45.1592" y1="99.1246" x2="5.9366" y2="99.1246" gradientUnits="userSpaceOnUse">
<stop stop-color="#0087FF"/>
<stop offset="1" stop-color="#00F2FF"/>
</linearGradient>
<linearGradient id="paint3_linear_35_11344" x1="66.6144" y1="70.9551" x2="65.9345" y2="137.924" gradientUnits="userSpaceOnUse">
<stop stop-color="#0087FF"/>
<stop offset="1" stop-color="#00F2FF"/>
</linearGradient>
<linearGradient id="paint4_linear_35_11344" x1="66.3412" y1="61.7204" x2="66.3412" y2="81.8679" gradientUnits="userSpaceOnUse">
<stop stop-color="#1F1F1F"/>
<stop offset="1" stop-color="#0A0A0A"/>
</linearGradient>
<linearGradient id="paint5_linear_35_11344" x1="66.34" y1="59.3638" x2="66.34" y2="143.306" gradientUnits="userSpaceOnUse">
<stop stop-color="#00F2FF"/>
<stop offset="1" stop-color="#0087FF"/>
</linearGradient>
<linearGradient id="paint6_linear_35_11344" x1="66.3412" y1="84.502" x2="66.3412" y2="58.0767" gradientUnits="userSpaceOnUse">
<stop stop-color="#00F2FF"/>
<stop offset="1" stop-color="#0087FF"/>
</linearGradient>
<linearGradient id="paint7_linear_35_11344" x1="60.0486" y1="74.9007" x2="77.7889" y2="3.35462" gradientUnits="userSpaceOnUse">
<stop stop-color="#FF8300"/>
<stop offset="1" stop-color="#FF560E"/>
</linearGradient>
<linearGradient id="paint8_linear_35_11344" x1="67.3425" y1="74.8321" x2="86.0575" y2="8.3548" gradientUnits="userSpaceOnUse">
<stop stop-color="#FFFA00"/>
<stop offset="1" stop-color="#FFAA0E"/>
</linearGradient>
<linearGradient id="paint9_linear_35_11344" x1="75.1285" y1="72.1478" x2="98.1324" y2="0.406817" gradientUnits="userSpaceOnUse">
<stop stop-color="#9BCB21"/>
<stop offset="1" stop-color="#589522"/>
</linearGradient>
<linearGradient id="paint10_linear_35_11344" x1="83.1672" y1="70.2064" x2="103.247" y2="13.2815" gradientUnits="userSpaceOnUse">
<stop stop-color="#C60EFF"/>
<stop offset="1" stop-color="#1E00FF"/>
</linearGradient>
<linearGradient id="paint11_linear_35_11344" x1="129.614" y1="118.152" x2="117.137" y2="22.0425" gradientUnits="userSpaceOnUse">
<stop stop-color="#FF8300"/>
<stop offset="1" stop-color="#FF560E"/>
</linearGradient>
<linearGradient id="paint12_linear_35_11344" x1="135.868" y1="119.035" x2="125.926" y2="34.6225" gradientUnits="userSpaceOnUse">
<stop stop-color="#FFFA00"/>
<stop offset="1" stop-color="#FFAA0E"/>
</linearGradient>
<linearGradient id="paint13_linear_35_11344" x1="140.108" y1="116.847" x2="132.7" y2="30.8753" gradientUnits="userSpaceOnUse">
<stop stop-color="#9BCB21"/>
<stop offset="1" stop-color="#589522"/>
</linearGradient>
<linearGradient id="paint14_linear_35_11344" x1="146.762" y1="116.839" x2="140.134" y2="35.5455" gradientUnits="userSpaceOnUse">
<stop stop-color="#C60EFF"/>
<stop offset="1" stop-color="#1E00FF"/>
</linearGradient>
<linearGradient id="paint15_linear_35_11344" x1="67.0907" y1="61.7205" x2="67.0907" y2="81.8677" gradientUnits="userSpaceOnUse">
<stop stop-color="#1F1F1F"/>
<stop offset="1" stop-color="#0A0A0A"/>
</linearGradient>
<linearGradient id="paint16_linear_35_11344" x1="141.923" y1="125.979" x2="141.923" y2="113.545" gradientUnits="userSpaceOnUse">
<stop stop-color="#C9CCD1"/>
<stop offset="1" stop-color="white"/>
</linearGradient>
<linearGradient id="paint17_linear_35_11344" x1="50.9582" y1="124.727" x2="81.6018" y2="124.727" gradientUnits="userSpaceOnUse">
<stop offset="1.3e-07" stop-color="#141414"/>
<stop offset="1" stop-color="#141414"/>
</linearGradient>
<linearGradient id="paint18_linear_35_11344" x1="76.3293" y1="118.68" x2="86.4056" y2="118.68" gradientUnits="userSpaceOnUse">
<stop offset="1.3e-07" stop-color="#141414"/>
<stop offset="1" stop-color="#141414"/>
</linearGradient>
<linearGradient id="paint19_linear_35_11344" x1="56.3509" y1="118.68" x2="46.2747" y2="118.68" gradientUnits="userSpaceOnUse">
<stop offset="1.3e-07" stop-color="#141414"/>
<stop offset="1" stop-color="#141414"/>
</linearGradient>
<linearGradient id="paint20_linear_35_11344" x1="52.5621" y1="108.377" x2="52.5621" y2="92.9387" gradientUnits="userSpaceOnUse">
<stop stop-color="#C9CCD1"/>
<stop offset="1" stop-color="white"/>
</linearGradient>
<linearGradient id="paint21_linear_35_11344" x1="52.5626" y1="107.753" x2="52.5626" y2="92.9449" gradientUnits="userSpaceOnUse">
<stop stop-color="#1F1F1F"/>
<stop offset="1" stop-color="#0A0A0A"/>
</linearGradient>
<linearGradient id="paint22_linear_35_11344" x1="41.1948" y1="93.0842" x2="63.296" y2="93.0842" gradientUnits="userSpaceOnUse">
<stop offset="1.3e-07" stop-color="#141414"/>
<stop offset="1" stop-color="#141414"/>
</linearGradient>
<linearGradient id="paint23_linear_35_11344" x1="43.4785" y1="108.065" x2="61.7411" y2="108.065" gradientUnits="userSpaceOnUse">
<stop offset="1.3e-07" stop-color="#141414"/>
<stop offset="1" stop-color="#141414"/>
</linearGradient>
<linearGradient id="paint24_linear_35_11344" x1="80.3856" y1="108.377" x2="80.3856" y2="92.9387" gradientUnits="userSpaceOnUse">
<stop stop-color="#C9CCD1"/>
<stop offset="1" stop-color="white"/>
</linearGradient>
<linearGradient id="paint25_linear_35_11344" x1="80.386" y1="107.753" x2="80.386" y2="92.9449" gradientUnits="userSpaceOnUse">
<stop stop-color="#1F1F1F"/>
<stop offset="1" stop-color="#0A0A0A"/>
</linearGradient>
<linearGradient id="paint26_linear_35_11344" x1="69.0183" y1="93.0842" x2="91.1195" y2="93.0842" gradientUnits="userSpaceOnUse">
<stop offset="1.3e-07" stop-color="#141414"/>
<stop offset="1" stop-color="#141414"/>
</linearGradient>
<linearGradient id="paint27_linear_35_11344" x1="71.302" y1="108.065" x2="89.5645" y2="108.065" gradientUnits="userSpaceOnUse">
<stop offset="1.3e-07" stop-color="#141414"/>
<stop offset="1" stop-color="#141414"/>
</linearGradient>
</defs>
</svg>
