<svg width="121" height="112" viewBox="0 0 121 112" fill="none" xmlns="http://www.w3.org/2000/svg">
<path d="M60.3291 112C91.257 112 116.329 86.9279 116.329 56C116.329 25.0721 91.257 0 60.3291 0C29.4011 0 4.3291 25.0721 4.3291 56C4.3291 86.9279 29.4011 112 60.3291 112Z" fill="#E5BF2B"/>
<path d="M36.6381 71.3481C33.8001 71.3481 32.2381 74.6251 34.0001 76.8501C40.1511 84.6121 49.6561 89.5921 60.3291 89.5921C71.0021 89.5921 80.5071 84.6121 86.6581 76.8501C88.4211 74.6251 86.8591 71.3481 84.0211 71.3481H36.6381Z" fill="#F2F2F2"/>
<path d="M86.7501 76.7161C88.3521 74.4961 86.8041 71.3481 84.0211 71.3481H36.6381C33.8551 71.3481 32.3071 74.4961 33.9091 76.7161H86.7501Z" fill="#E1E1E3"/>
<path d="M34.184 66.4939C23.6 66.4939 15.021 57.9138 15.021 47.3298V45.6999C15.021 42.0139 18.008 39.0269 21.694 39.0269H46.674C50.36 39.0269 53.347 42.0139 53.347 45.6999V47.3298C53.347 57.9138 44.767 66.4939 34.184 66.4939Z" fill="#2D2E30"/>
<path d="M86.476 66.4939C75.892 66.4939 67.313 57.9138 67.313 47.3298V45.6999C67.313 42.0139 70.301 39.0269 73.986 39.0269H98.966C102.651 39.0269 105.639 42.0139 105.639 45.6999V47.3298C105.639 57.9138 97.059 66.4939 86.476 66.4939Z" fill="#2D2E30"/>
<path d="M3 49.7881H117.66" stroke="#2D2E30" stroke-width="6" stroke-miterlimit="10" stroke-linecap="round"/>
<mask id="mask0_10_3298" style="mask-type:luminance" maskUnits="userSpaceOnUse" x="67" y="39" width="39" height="28">
<path d="M86.476 66.4939C75.892 66.4939 67.313 57.9138 67.313 47.3298V45.6999C67.313 42.0139 70.301 39.0269 73.986 39.0269H98.966C102.651 39.0269 105.639 42.0139 105.639 45.6999V47.3298C105.639 57.9138 97.059 66.4939 86.476 66.4939Z" fill="white"/>
</mask>
<g mask="url(#mask0_10_3298)">
<path d="M76.2439 51.0221L90.3529 36.9131" stroke="#F2F2F2" stroke-width="4" stroke-miterlimit="10" stroke-linecap="round"/>
<path d="M80.875 57.7541L101.716 36.9131" stroke="#F2F2F2" stroke-width="4" stroke-miterlimit="10" stroke-linecap="round"/>
</g>
<mask id="mask1_10_3298" style="mask-type:luminance" maskUnits="userSpaceOnUse" x="15" y="39" width="39" height="28">
<path d="M34.184 66.4939C23.6 66.4939 15.021 57.9138 15.021 47.3298V45.6999C15.021 42.0139 18.008 39.0269 21.694 39.0269H46.674C50.36 39.0269 53.347 42.0139 53.347 45.6999V47.3298C53.347 57.9138 44.767 66.4939 34.184 66.4939Z" fill="white"/>
</mask>
<g mask="url(#mask1_10_3298)">
<path d="M23.9519 51.0221L38.0609 36.9131" stroke="#F2F2F2" stroke-width="4" stroke-miterlimit="10" stroke-linecap="round"/>
<path d="M28.583 57.7541L49.424 36.9131" stroke="#F2F2F2" stroke-width="4" stroke-miterlimit="10" stroke-linecap="round"/>
</g>
<path d="M35.176 17.5658C42.559 12.7098 51.397 9.88379 60.894 9.88379" stroke="#F7E05D" stroke-width="6" stroke-miterlimit="10" stroke-linecap="round"/>
<path d="M24.531 27.1857C25.428 26.0837 25.94 25.4367 26.619 24.7197" stroke="#F7E05D" stroke-width="6" stroke-miterlimit="10" stroke-linecap="round"/>
</svg>
