<svg width="112" height="112" viewBox="0 0 112 112" fill="none" xmlns="http://www.w3.org/2000/svg">
<path d="M56 112C86.9279 112 112 86.9279 112 56C112 25.0721 86.9279 0 56 0C25.0721 0 0 25.0721 0 56C0 86.9279 25.0721 112 56 112Z" fill="#E5BF2B"/>
<path d="M30.283 16.8221C37.666 11.9661 46.5039 9.14014 56.0009 9.14014" stroke="#F7E05D" stroke-width="6" stroke-miterlimit="10" stroke-linecap="round"/>
<path d="M19.637 26.4421C20.534 25.3401 21.0459 24.6941 21.7249 23.9761" stroke="#F7E05D" stroke-width="6" stroke-miterlimit="10" stroke-linecap="round"/>
<path d="M43.1821 48.8237L30.4451 61.5607" stroke="#2D2E30" stroke-width="6" stroke-miterlimit="10" stroke-linecap="round"/>
<path d="M30.4451 48.8237L43.1821 61.5607" stroke="#2D2E30" stroke-width="6" stroke-miterlimit="10" stroke-linecap="round"/>
<path d="M81.6982 48.8237L68.9612 61.5607" stroke="#2D2E30" stroke-width="6" stroke-miterlimit="10" stroke-linecap="round"/>
<path d="M68.9612 48.8237L81.6982 61.5607" stroke="#2D2E30" stroke-width="6" stroke-miterlimit="10" stroke-linecap="round"/>
<path d="M67.084 80.3169C67.084 86.4379 62.1219 91.4009 56.0009 91.4009C49.8799 91.4009 44.918 86.4379 44.918 80.3169C44.918 74.1959 49.8799 69.2339 56.0009 69.2339C62.1209 69.2339 67.084 74.1959 67.084 80.3169Z" fill="#2D2E30"/>
</svg>
