<svg width="112" height="112" viewBox="0 0 112 112" fill="none" xmlns="http://www.w3.org/2000/svg">
<path d="M56 112C86.9279 112 112 86.9279 112 56C112 25.0721 86.9279 0 56 0C25.0721 0 0 25.0721 0 56C0 86.9279 25.0721 112 56 112Z" fill="#E5BF2B"/>
<path d="M30.282 16.8221C37.665 11.9661 46.503 9.14014 56 9.14014" stroke="#F7E05D" stroke-width="6" stroke-miterlimit="10" stroke-linecap="round"/>
<path d="M19.637 26.4421C20.534 25.3401 21.046 24.6941 21.725 23.9761" stroke="#F7E05D" stroke-width="6" stroke-miterlimit="10" stroke-linecap="round"/>
<path d="M31.2522 74.2993C29.335 74.2993 27.4828 73.9419 25.6955 73.227C23.9083 72.5446 22.316 71.4885 20.9188 70.0587C19.5215 68.6614 18.4166 66.9067 17.6042 64.7945C16.7919 62.6498 16.3857 60.1477 16.3857 57.2881C16.3857 53.9086 17.0031 50.8703 18.2379 48.1732C19.5052 45.4436 21.4062 43.2827 23.9408 41.6904C26.5079 40.0982 29.7249 39.302 33.5919 39.302C37.1013 39.302 40.0909 39.9682 42.5605 41.3005C45.0626 42.6328 46.9636 44.5338 48.2634 47.0034C49.5957 49.4405 50.2619 52.3163 50.2619 55.6309C50.2619 57.743 49.9694 59.6765 49.3845 61.4312C48.8321 63.1535 47.9872 64.5345 46.8499 65.5744C45.7125 66.6142 44.2665 67.1341 42.5118 67.1341C41.0495 67.1341 39.8472 66.7929 38.9048 66.1105C37.9949 65.3956 37.4425 64.502 37.2476 63.4297C36.4677 64.4695 35.5741 65.3307 34.5667 66.013C33.5919 66.663 32.4383 66.9879 31.106 66.9879C30.1636 66.9879 29.2213 66.7929 28.2789 66.403C27.3365 65.9806 26.5567 65.3469 25.9393 64.502C25.3218 63.6247 25.0131 62.5361 25.0131 61.2363C25.0131 59.6765 25.4518 58.4579 26.3292 57.5806C27.2066 56.6707 28.3926 56.0208 29.8874 55.6309C31.3822 55.2409 33.0557 55.0459 34.9079 55.0459H36.224V54.4123C36.224 53.3724 35.9315 52.5926 35.3466 52.0726C34.7617 51.5527 33.8518 51.2928 32.617 51.2928C31.6746 51.2928 30.8948 51.4065 30.2774 51.634C29.6599 51.8614 29.1563 52.0889 28.7663 52.3163C28.4089 52.5438 28.0839 52.6575 27.7915 52.6575C27.4665 52.6575 27.1741 52.4951 26.9141 52.1701C26.6541 51.8127 26.4429 51.4227 26.2805 51.0003C26.1505 50.5454 26.0855 50.1717 26.0855 49.8792C26.0855 49.1968 26.4429 48.5957 27.1578 48.0757C27.9052 47.5233 28.8313 47.0846 29.9362 46.7597C31.041 46.4347 32.1783 46.2723 33.3481 46.2723C34.7454 46.2723 36.0615 46.516 37.2963 47.0034C38.5636 47.4908 39.5872 48.222 40.3671 49.1968C41.1795 50.1717 41.5857 51.4065 41.5857 52.9013V61.2363C41.7481 62.1461 41.9269 62.7635 42.1218 63.0885C42.3168 63.3809 42.593 63.5272 42.9505 63.5272C43.5679 63.5272 44.0553 63.2835 44.4127 62.796C44.7702 62.3086 45.0301 61.7074 45.1926 60.9926C45.3551 60.2777 45.4526 59.5465 45.4851 58.7991C45.5501 58.0192 45.5826 57.3693 45.5826 56.8494C45.5826 52.4951 44.624 49.1643 42.7067 46.8572C40.822 44.55 37.8 43.3964 33.6406 43.3964C31.2035 43.3964 29.1725 43.7701 27.5478 44.5175C25.923 45.2324 24.6394 46.2398 23.6971 47.5396C22.7872 48.8394 22.1211 50.3179 21.6986 51.9752C21.3087 53.6324 21.1137 55.3871 21.1137 57.2394C21.1137 58.9616 21.2924 60.6026 21.6499 62.1624C22.0073 63.7221 22.5923 65.1032 23.4046 66.3055C24.2495 67.5078 25.3868 68.4502 26.8166 69.1326C28.2464 69.8475 30.0336 70.2049 32.1783 70.2049C33.4456 70.2049 34.4692 70.1074 35.2491 69.9125C36.029 69.7175 36.6626 69.5225 37.1501 69.3276C37.67 69.1326 38.1087 69.0351 38.4661 69.0351C39.0835 69.0351 39.5385 69.2951 39.8309 69.815C40.1234 70.3674 40.2696 70.8223 40.2696 71.1798C40.2696 71.7647 39.9447 72.2521 39.2948 72.6421C38.6448 73.0645 37.8162 73.3894 36.8089 73.6169C35.834 73.8769 34.8429 74.0556 33.8356 74.1531C32.8282 74.2506 31.9671 74.2993 31.2522 74.2993ZM32.617 63.1372C33.2344 63.1372 33.8356 62.9423 34.4205 62.5523C35.0054 62.1624 35.4928 61.6749 35.8828 61.09C36.3052 60.4726 36.5164 59.8227 36.5164 59.1403V58.068H35.639C34.6317 58.068 33.7706 58.1817 33.0557 58.4092C32.3733 58.6367 31.8534 58.9779 31.4959 59.4328C31.1385 59.8877 30.9597 60.4564 30.9597 61.1388C30.9597 61.7562 31.106 62.2436 31.3984 62.6011C31.6909 62.9585 32.0971 63.1372 32.617 63.1372Z" fill="#2D2E30"/>
<path d="M76.8616 74.2993C74.9444 74.2993 73.0921 73.9419 71.3049 73.227C69.5177 72.5446 67.9254 71.4885 66.5281 70.0587C65.1308 68.6614 64.026 66.9067 63.2136 64.7945C62.4012 62.6498 61.9951 60.1477 61.9951 57.2881C61.9951 53.9086 62.6125 50.8703 63.8473 48.1732C65.1146 45.4436 67.0156 43.2827 69.5502 41.6904C72.1173 40.0982 75.3343 39.302 79.2012 39.302C82.7107 39.302 85.7003 39.9682 88.1699 41.3005C90.672 42.6328 92.573 44.5338 93.8728 47.0034C95.2051 49.4405 95.8712 52.3163 95.8712 55.6309C95.8712 57.743 95.5788 59.6765 94.9939 61.4312C94.4414 63.1535 93.5966 64.5345 92.4592 65.5744C91.3219 66.6142 89.8759 67.1341 88.1211 67.1341C86.6589 67.1341 85.4565 66.7929 84.5142 66.1105C83.6043 65.3956 83.0519 64.502 82.8569 63.4297C82.077 64.4695 81.1834 65.3307 80.1761 66.013C79.2012 66.663 78.0477 66.9879 76.7154 66.9879C75.773 66.9879 74.8306 66.7929 73.8883 66.403C72.9459 65.9806 72.166 65.3469 71.5486 64.502C70.9312 63.6247 70.6225 62.5361 70.6225 61.2363C70.6225 59.6765 71.0612 58.4579 71.9386 57.5806C72.8159 56.6707 74.002 56.0208 75.4968 55.6309C76.9916 55.2409 78.6651 55.0459 80.5173 55.0459H81.8333V54.4123C81.8333 53.3724 81.5409 52.5926 80.956 52.0726C80.3711 51.5527 79.4612 51.2928 78.2264 51.2928C77.284 51.2928 76.5041 51.4065 75.8867 51.634C75.2693 51.8614 74.7656 52.0889 74.3757 52.3163C74.0183 52.5438 73.6933 52.6575 73.4008 52.6575C73.0759 52.6575 72.7834 52.4951 72.5235 52.1701C72.2635 51.8127 72.0523 51.4227 71.8898 51.0003C71.7598 50.5454 71.6949 50.1717 71.6949 49.8792C71.6949 49.1968 72.0523 48.5957 72.7672 48.0757C73.5146 47.5233 74.4407 47.0846 75.5455 46.7597C76.6504 46.4347 77.7877 46.2723 78.9575 46.2723C80.3548 46.2723 81.6709 46.516 82.9057 47.0034C84.173 47.4908 85.1966 48.222 85.9765 49.1968C86.7888 50.1717 87.195 51.4065 87.195 52.9013V61.2363C87.3575 62.1461 87.5362 62.7635 87.7312 63.0885C87.9262 63.3809 88.2024 63.5272 88.5598 63.5272C89.1772 63.5272 89.6647 63.2835 90.0221 62.796C90.3796 62.3086 90.6395 61.7074 90.802 60.9926C90.9645 60.2777 91.062 59.5465 91.0944 58.7991C91.1594 58.0192 91.1919 57.3693 91.1919 56.8494C91.1919 52.4951 90.2333 49.1643 88.3161 46.8572C86.4314 44.55 83.4094 43.3964 79.25 43.3964C76.8128 43.3964 74.7819 43.7701 73.1571 44.5175C71.5324 45.2324 70.2488 46.2398 69.3065 47.5396C68.3966 48.8394 67.7304 50.3179 67.308 51.9752C66.9181 53.6324 66.7231 55.3871 66.7231 57.2394C66.7231 58.9616 66.9018 60.6026 67.2593 62.1624C67.6167 63.7221 68.2016 65.1032 69.014 66.3055C69.8589 67.5078 70.9962 68.4502 72.426 69.1326C73.8558 69.8475 75.643 70.2049 77.7877 70.2049C79.055 70.2049 80.0786 70.1074 80.8585 69.9125C81.6384 69.7175 82.272 69.5225 82.7594 69.3276C83.2794 69.1326 83.7181 69.0351 84.0755 69.0351C84.6929 69.0351 85.1478 69.2951 85.4403 69.815C85.7328 70.3674 85.879 70.8223 85.879 71.1798C85.879 71.7647 85.554 72.2521 84.9041 72.6421C84.2542 73.0645 83.4256 73.3894 82.4182 73.6169C81.4434 73.8769 80.4523 74.0556 79.4449 74.1531C78.4376 74.2506 77.5765 74.2993 76.8616 74.2993ZM78.2264 63.1372C78.8438 63.1372 79.4449 62.9423 80.0299 62.5523C80.6148 62.1624 81.1022 61.6749 81.4921 61.09C81.9146 60.4726 82.1258 59.8227 82.1258 59.1403V58.068H81.2484C80.2411 58.068 79.38 58.1817 78.6651 58.4092C77.9827 58.6367 77.4627 58.9779 77.1053 59.4328C76.7478 59.8877 76.5691 60.4564 76.5691 61.1388C76.5691 61.7562 76.7154 62.2436 77.0078 62.6011C77.3003 62.9585 77.7065 63.1372 78.2264 63.1372Z" fill="#2D2E30"/>
<path d="M43.1409 80.3169H69.2229" stroke="#2D2E30" stroke-width="6" stroke-miterlimit="10" stroke-linecap="round"/>
</svg>
