<svg width="128" height="139" viewBox="0 0 128 139" fill="none" xmlns="http://www.w3.org/2000/svg">
<path d="M63.963 138.847C55.704 138.847 47.674 137.296 40.093 134.238C37.56 133.215 35.635 131.137 34.814 128.537C33.981 125.909 34.368 123.064 35.877 120.733C35.918 120.669 35.945 120.602 35.96 120.525C35.971 120.468 35.975 120.432 35.975 120.396C35.975 120.184 35.868 119.983 35.688 119.86C33.966 118.674 32.937 116.718 32.937 114.628C32.937 112.538 33.965 110.582 35.686 109.395C35.868 109.27 35.975 109.069 35.975 108.857C35.975 108.57 35.759 108.297 35.484 108.238C33.531 107.818 31.869 106.481 31.041 104.659C30.213 102.842 30.295 100.712 31.26 98.962C31.269 98.937 31.288 98.889 31.288 98.889L31.32 98.782L31.329 98.731L31.327 98.591L31.31 98.478C31.249 98.287 31.121 98.149 30.955 98.078C30.955 98.078 30.769 98.038 30.749 98.036L30.577 98.047C30.039 98.189 29.493 98.26 28.944 98.26C27.401 98.26 25.913 97.7 24.754 96.681C23.136 95.263 22.351 93.14 22.656 91.008C22.656 90.642 22.367 90.352 22.01 90.352C21.89 90.352 21.774 90.388 21.666 90.459C20.624 91.138 19.424 91.495 18.188 91.495C17.334 91.495 16.501 91.325 15.711 90.993C13.751 90.16 12.347 88.42 11.949 86.336C11.896 86.061 11.626 85.827 11.347 85.817C11.319 85.816 11.292 85.815 11.267 85.814C11.233 85.816 11.206 85.819 11.185 85.823C10.525 85.969 9.854 86.042 9.187 86.042C4.246 86.042 0.230998 82.206 0.0459976 77.309C0.0159976 76.504 0 75.691 0 74.875C0 53.646 10.411 33.98 27.912 22.038C29.272 17.919 31.04 14.489 33.188 11.794C32.578 10.697 32.236 9.462 32.198 8.171C32.138 6.048 32.906 4.031 34.362 2.489C35.858 0.907 37.961 0.00100136 40.136 0.00100136C42.172 0.00100136 44.109 0.772001 45.589 2.172C47.216 3.707 51.694 7.365 58.086 8.122C60.113 8.363 61.934 9.349 63.237 10.909C63.479 10.906 63.722 10.905 63.964 10.905C64.207 10.905 64.45 10.906 64.693 10.909C65.996 9.35 67.816 8.363 69.844 8.122C76.235 7.364 80.718 3.704 82.348 2.165C83.83 0.768001 85.765 0 87.796 0C89.972 0 92.078 0.908001 93.572 2.491C95.025 4.032 95.792 6.048 95.733 8.167C95.695 9.459 95.353 10.695 94.743 11.791C96.912 14.51 98.692 17.979 100.058 22.15C116.741 33.627 127.119 52.317 127.884 72.376C128.554 89.95 122.221 106.591 110.053 119.232C97.882 131.881 81.513 138.847 63.963 138.847Z" fill="url(#paint0_linear_35_11248)"/>
<path d="M63.9627 135.671C56.1147 135.671 48.4827 134.198 41.2817 131.292C39.6307 130.625 38.3767 129.272 37.8417 127.579C37.2957 125.857 37.5517 123.99 38.5427 122.458C38.8077 122.048 38.9887 121.597 39.0787 121.118C39.1277 120.871 39.1497 120.633 39.1497 120.395C39.1497 119.137 38.5287 117.959 37.4877 117.243C36.6267 116.651 36.1117 115.673 36.1117 114.628C36.1117 113.582 36.6257 112.604 37.4867 112.011C38.5287 111.295 39.1497 110.116 39.1497 108.858C39.1497 107.075 37.8887 105.509 36.1517 105.134C35.1697 104.923 34.3457 104.258 33.9297 103.345C33.5127 102.43 33.5547 101.373 34.0417 100.493C34.1077 100.373 34.1647 100.246 34.2177 100.117C34.2207 100.111 34.2607 100.001 34.2637 99.995C34.3007 99.895 34.3317 99.802 34.3587 99.708L34.4007 99.559C34.4247 99.459 34.4467 99.337 34.4667 99.212C34.4697 99.191 34.4777 99.141 34.4857 99.098C34.5007 98.953 34.5077 98.827 34.5087 98.699C34.5087 98.692 34.4977 98.404 34.4977 98.404L34.4877 98.267C34.4857 98.253 34.4317 97.876 34.4297 97.867C34.1827 96.668 33.3497 95.65 32.2037 95.16C32.0477 95.096 31.9357 95.056 31.8207 95.021C31.7027 94.987 31.5707 94.952 31.4357 94.928L31.2657 94.902C31.0697 94.875 30.8877 94.852 30.7017 94.852L30.4457 94.875L30.1857 94.89C30.0817 94.901 29.9397 94.929 29.7997 94.968C29.5177 95.047 29.2297 95.085 28.9447 95.085C28.1837 95.085 27.4367 94.811 26.8507 94.296C26.0437 93.588 25.6497 92.521 25.8017 91.458C25.8237 91.309 25.8337 91.154 25.8337 90.999C25.8337 88.891 24.1197 87.177 22.0117 87.177C21.2747 87.177 20.5537 87.393 19.9277 87.803C19.4027 88.145 18.7977 88.32 18.1897 88.32C17.7687 88.32 17.3477 88.236 16.9477 88.068C15.9727 87.653 15.2687 86.781 15.0707 85.741C14.7387 84.009 13.2217 82.706 11.4607 82.644C11.4137 82.642 11.3677 82.64 11.3197 82.636C11.0157 82.639 10.7537 82.668 10.5007 82.724C10.0647 82.82 9.62571 82.868 9.18871 82.868C5.96271 82.868 3.34171 80.375 3.22171 77.191C3.19271 76.425 3.17871 75.653 3.17871 74.877C3.17871 54.265 13.4067 35.36 30.6057 24.06C32.2227 18.743 34.5547 14.59 37.3947 11.894C37.2157 11.733 37.0397 11.57 36.8677 11.407C35.9437 10.535 35.4127 9.35298 35.3757 8.07998C35.3397 6.80698 35.8007 5.59698 36.6737 4.67198C37.5697 3.72398 38.8337 3.17898 40.1377 3.17898C41.3607 3.17898 42.5217 3.64198 43.4097 4.48098C45.2657 6.23198 50.3797 10.408 57.7137 11.278C58.9777 11.428 60.1077 12.061 60.8947 13.061C61.1557 13.393 61.3697 13.753 61.5327 14.131C62.3437 14.099 63.1547 14.082 63.9667 14.082C64.7457 14.082 65.5307 14.096 66.3167 14.126C66.3457 14.127 66.3747 14.128 66.4027 14.129C66.5657 13.752 66.7787 13.392 67.0407 13.06C67.8277 12.06 68.9577 11.427 70.2217 11.277C77.5547 10.406 82.6717 6.23098 84.5307 4.47698C85.4207 3.63898 86.5807 3.17798 87.7997 3.17798C89.1057 3.17798 90.3687 3.72298 91.2647 4.67298C92.1367 5.59798 92.5977 6.80898 92.5607 8.07998C92.5237 9.35098 91.9927 10.533 91.0677 11.407C90.8947 11.569 90.7197 11.731 90.5427 11.892C93.4007 14.606 95.7447 18.797 97.3627 24.165C113.772 35.033 123.969 53.012 124.712 72.501C125.349 89.204 119.331 105.019 107.766 117.033C96.1977 129.052 80.6407 135.671 63.9627 135.671ZM63.9627 60.438C56.0017 60.438 49.5237 66.916 49.5237 74.877C49.5237 82.844 56.0017 89.327 63.9627 89.327C71.9307 89.327 78.4127 82.844 78.4127 74.877C78.4127 66.915 71.9307 60.438 63.9627 60.438Z" fill="url(#paint1_linear_35_11248)"/>
<path d="M66.1965 17.3001C33.3575 16.0591 6.35547 42.3141 6.35547 74.8761C6.35547 75.6101 6.36947 76.3421 6.39647 77.0701C6.46147 78.8021 8.12147 79.9941 9.81447 79.6221C10.2995 79.5151 10.8035 79.4591 11.3205 79.4591C11.4055 79.4591 11.4895 79.4591 11.5745 79.4701C14.8775 79.5871 17.5875 81.9901 18.1905 85.1441C19.2915 84.4241 20.6045 84.0011 22.0115 84.0011C25.8755 84.0011 29.0085 87.1341 29.0085 90.9981C29.0085 91.3051 28.9875 91.6121 28.9455 91.9081C29.5065 91.7491 30.0885 91.6751 30.7015 91.6751C33.8075 91.6751 36.5525 93.6191 37.3975 96.6071C37.9645 98.6101 37.6685 100.495 36.8215 102.028C39.9655 102.706 42.3265 105.5 42.3265 108.856C42.3265 111.248 41.1195 113.366 39.2885 114.625C41.1195 115.885 42.3265 118.002 42.3265 120.394C42.3265 120.839 42.2845 121.283 42.1995 121.707C42.0305 122.603 41.6885 123.44 41.2095 124.181C40.2395 125.68 40.8165 127.678 42.4725 128.346C49.1125 131.025 56.3655 132.494 63.9645 132.494C96.5335 132.494 122.793 105.469 121.539 72.6211C120.399 42.7581 96.0605 18.4291 66.1965 17.3001ZM63.9635 92.5021C54.2355 92.5021 46.3485 84.6051 46.3485 74.8771C46.3485 65.1481 54.2345 57.2621 63.9635 57.2621C73.7025 57.2621 81.5885 65.1481 81.5885 74.8771C81.5885 84.6051 73.7025 92.5021 63.9635 92.5021Z" fill="url(#paint2_linear_35_11248)"/>
<path d="M117.824 74.877C117.824 69.404 111.007 65.064 109.398 60.12C107.736 54.996 110.647 47.491 107.535 43.225C104.402 38.917 96.3455 39.372 92.0365 36.239C87.7705 33.127 85.7385 25.315 80.6145 23.642C75.6605 22.033 69.4465 27.114 63.9625 27.114C58.4785 27.114 52.2655 22.033 47.3115 23.642C42.1875 25.315 40.1555 33.127 35.9005 36.239C31.5815 39.372 23.5255 38.917 20.3925 43.225C17.2805 47.491 20.2015 54.996 18.5295 60.12C16.9205 65.063 10.1035 69.404 10.1035 74.877C10.1035 76.497 10.6965 78.01 11.5745 79.471C14.8775 79.588 17.5875 81.991 18.1905 85.145C19.2915 84.425 20.6045 84.002 22.0115 84.002C25.8755 84.002 29.0085 87.135 29.0085 90.999C29.0085 91.306 28.9875 91.613 28.9455 91.909C29.5065 91.75 30.0885 91.676 30.7025 91.676C34.5665 91.676 37.6895 94.799 37.6895 98.663C37.6895 99.891 37.3725 101.034 36.8215 102.029C39.9655 102.707 42.3265 105.501 42.3265 108.857C42.3265 111.249 41.1195 113.367 39.2885 114.626C41.1195 115.886 42.3265 118.003 42.3265 120.395C42.3265 120.84 42.2845 121.284 42.1995 121.708C43.6285 123.719 45.2165 125.434 47.3125 126.112C52.2665 127.721 58.4805 122.64 63.9635 122.64C69.4465 122.64 75.6605 127.721 80.6155 126.112C85.7395 124.45 87.7715 116.627 92.0375 113.526C96.3465 110.382 104.402 110.848 107.536 106.539C110.648 102.273 107.737 94.768 109.399 89.644C111.007 84.7 117.824 80.36 117.824 74.877ZM63.9635 92.502C54.2355 92.502 46.3485 84.605 46.3485 74.877C46.3485 65.148 54.2345 57.262 63.9635 57.262C73.7025 57.262 81.5885 65.148 81.5885 74.877C81.5885 84.605 73.7025 92.502 63.9635 92.502Z" fill="url(#paint3_linear_35_11248)"/>
<path d="M51.9039 118.452L48.1449 111.941C47.8849 111.492 48.0389 110.917 48.4889 110.657C48.9379 110.397 49.5129 110.551 49.7729 111.001L53.5319 117.512C53.7919 117.962 53.6369 118.536 53.1879 118.796C52.7379 119.056 52.1639 118.902 51.9039 118.452Z" fill="url(#paint4_linear_35_11248)"/>
<path d="M99.6052 98.78L92.1392 97.894C91.6242 97.833 91.2562 97.366 91.3172 96.85C91.3782 96.335 91.8462 95.966 92.3612 96.028L99.8272 96.914C100.343 96.975 100.711 97.443 100.649 97.958C100.587 98.473 100.12 98.841 99.6052 98.78Z" fill="url(#paint5_linear_35_11248)"/>
<path d="M60.3372 101.37L66.3382 96.8402C66.7522 96.5272 67.3422 96.6102 67.6542 97.0242C67.9672 97.4382 67.8842 98.0272 67.4702 98.3402L61.4702 102.87C61.0562 103.183 60.4662 103.1 60.1532 102.686C59.8412 102.272 59.9232 101.683 60.3372 101.37Z" fill="url(#paint6_linear_35_11248)"/>
<path d="M91.169 60.5191L97.17 55.9891C97.584 55.6761 98.174 55.7591 98.486 56.1731C98.799 56.5871 98.716 57.1761 98.302 57.4891L92.302 62.0191C91.888 62.3321 91.299 62.2491 90.986 61.8351C90.673 61.4211 90.755 60.8311 91.169 60.5191Z" fill="url(#paint7_linear_35_11248)"/>
<path d="M20.0582 76.722L25.6042 71.645C25.9872 71.295 26.5812 71.321 26.9312 71.704C27.2812 72.087 27.2552 72.681 26.8722 73.032L21.3272 78.108C20.9442 78.458 20.3492 78.432 19.9992 78.049C19.6492 77.667 19.6752 77.072 20.0582 76.722Z" fill="url(#paint8_linear_35_11248)"/>
<path d="M35.7624 61.9492L29.6354 57.5902C29.2124 57.2892 29.1134 56.7022 29.4144 56.2792C29.7154 55.8562 30.3024 55.7572 30.7254 56.0582L36.8514 60.4162C37.2744 60.7172 37.3734 61.3042 37.0724 61.7272C36.7714 62.1512 36.1844 62.2502 35.7624 61.9492Z" fill="url(#paint9_linear_35_11248)"/>
<path d="M81.8508 110.428L82.2078 117.938C82.2328 118.456 81.8318 118.897 81.3138 118.921C80.7948 118.946 80.3548 118.545 80.3308 118.027L79.9738 110.517C79.9488 109.999 80.3498 109.558 80.8678 109.534C81.3858 109.509 81.8258 109.91 81.8508 110.428Z" fill="url(#paint10_linear_35_11248)"/>
<path d="M42.1778 88.95L35.1548 86.266C34.6698 86.081 34.4268 85.537 34.6118 85.052C34.7968 84.567 35.3398 84.324 35.8248 84.51L42.8478 87.194C43.3328 87.379 43.5758 87.923 43.3908 88.407C43.2058 88.893 42.6628 89.136 42.1778 88.95Z" fill="url(#paint11_linear_35_11248)"/>
<path d="M90.4598 75.47L97.3168 78.554C97.7898 78.767 98.0008 79.323 97.7878 79.797C97.5748 80.27 97.0188 80.481 96.5458 80.268L89.6888 77.184C89.2158 76.971 89.0048 76.415 89.2178 75.942C89.4298 75.468 89.9868 75.258 90.4598 75.47Z" fill="url(#paint12_linear_35_11248)"/>
<path d="M59.2776 40.1431C59.2766 41.0131 59.2576 41.8821 59.2196 42.7341C58.1286 42.2891 56.9815 41.8811 55.7785 41.5461C52.5785 40.6361 49.0816 40.1331 45.3986 40.1301C41.7166 40.1271 38.2185 40.6231 35.0165 41.5271C33.8135 41.8591 32.6655 42.2651 31.5735 42.7081C31.5375 41.8571 31.5195 40.9871 31.5205 40.1171C31.5345 24.3331 37.7646 11.5521 45.4246 11.5591C53.0866 11.5671 59.2926 24.3591 59.2776 40.1431Z" fill="url(#paint13_linear_35_11248)"/>
<path d="M55.7993 40.14C55.7983 40.621 55.7983 41.084 55.7793 41.546C52.5793 40.636 49.0823 40.133 45.3993 40.13C41.7173 40.127 38.2193 40.623 35.0173 41.527C34.9993 41.064 34.9993 40.602 35.0003 40.121C35.0133 26.41 39.6673 15.311 45.4223 15.316C48.9753 15.319 52.1173 19.578 53.9803 26.057L46.4993 31.712L55.2143 31.794C55.6003 34.404 55.8013 37.198 55.7993 40.14Z" fill="url(#paint14_linear_35_11248)"/>
<path d="M31.5703 42.7001C35.6033 41.0621 40.3373 40.1221 45.3993 40.1261C50.4613 40.1311 55.1933 41.0801 59.2233 42.7251" stroke="url(#paint15_linear_35_11248)" stroke-width="3" stroke-miterlimit="10" stroke-linecap="round" stroke-linejoin="round"/>
<path d="M40.1377 7.94104C42.5787 10.246 48.5377 14.984 57.1537 16.008" stroke="url(#paint16_linear_35_11248)" stroke-width="3" stroke-miterlimit="10" stroke-linecap="round" stroke-linejoin="round"/>
<path d="M68.6592 40.1431C68.6602 41.0131 68.6792 41.8821 68.7172 42.7341C69.8082 42.2891 70.9552 41.8811 72.1582 41.5461C75.3582 40.6361 78.8552 40.1331 82.5382 40.1301C86.2202 40.1271 89.7182 40.6231 92.9202 41.5271C94.1232 41.8591 95.2712 42.2651 96.3632 42.7081C96.3992 41.8571 96.4172 40.9871 96.4162 40.1171C96.4022 24.3331 90.1722 11.5521 82.5122 11.5591C74.8502 11.5671 68.6452 24.3591 68.6592 40.1431Z" fill="url(#paint17_linear_35_11248)"/>
<path d="M72.1377 40.14C72.1377 40.621 72.1387 41.084 72.1577 41.546C75.3577 40.636 78.8547 40.133 82.5377 40.13C86.2197 40.127 89.7177 40.623 92.9197 41.527C92.9377 41.064 92.9377 40.602 92.9377 40.121C92.9247 26.41 88.2697 15.311 82.5157 15.316C78.9627 15.319 75.8207 19.578 73.9577 26.057L81.4387 31.712L72.7237 31.794C72.3357 34.404 72.1347 37.198 72.1377 40.14Z" fill="url(#paint18_linear_35_11248)"/>
<path d="M96.3659 42.7001C92.3329 41.0621 87.5999 40.1221 82.5369 40.1261C77.4749 40.1311 72.7429 41.0801 68.7129 42.7251" stroke="url(#paint19_linear_35_11248)" stroke-width="3" stroke-miterlimit="10" stroke-linecap="round" stroke-linejoin="round"/>
<path d="M87.7992 7.94104C85.3582 10.246 79.3992 14.984 70.7832 16.008" stroke="url(#paint20_linear_35_11248)" stroke-width="3" stroke-miterlimit="10" stroke-linecap="round" stroke-linejoin="round"/>
<path d="M37.6324 43.43C37.6324 45.707 35.0904 47.552 31.9544 47.552C28.8184 47.552 26.2764 45.706 26.2764 43.43C26.2764 41.153 28.8184 39.308 31.9544 39.308C35.0904 39.308 37.6324 41.153 37.6324 43.43Z" fill="url(#paint21_linear_35_11248)"/>
<path d="M101.661 43.43C101.661 45.707 99.1187 47.552 95.9827 47.552C92.8467 47.552 90.3047 45.706 90.3047 43.43C90.3047 41.153 92.8467 39.308 95.9827 39.308C99.1187 39.308 101.661 41.153 101.661 43.43Z" fill="url(#paint22_linear_35_11248)"/>
<path d="M56.627 53.478C57.472 50.271 60.3919 47.906 63.8649 47.906C67.3379 47.906 70.258 50.271 71.103 53.478" stroke="url(#paint23_linear_35_11248)" stroke-width="3" stroke-miterlimit="10" stroke-linecap="round" stroke-linejoin="round"/>
<path d="M54.9248 53.658C55.9448 53.434 57.0758 53.842 57.7178 54.666" stroke="url(#paint24_linear_35_11248)" stroke-width="3" stroke-miterlimit="10" stroke-linecap="round" stroke-linejoin="round"/>
<path d="M72.7461 53.658C71.7271 53.434 70.5951 53.842 69.9531 54.666" stroke="url(#paint25_linear_35_11248)" stroke-width="3" stroke-miterlimit="10" stroke-linecap="round" stroke-linejoin="round"/>
<defs>
<linearGradient id="paint0_linear_35_11248" x1="63.9688" y1="138.32" x2="63.9688" y2="7.95359" gradientUnits="userSpaceOnUse">
<stop stop-color="#C9CCD1"/>
<stop offset="1" stop-color="white"/>
</linearGradient>
<linearGradient id="paint1_linear_35_11248" x1="63.9684" y1="135.168" x2="63.9684" y2="10.7656" gradientUnits="userSpaceOnUse">
<stop offset="1e-08" stop-color="#1F1F1F"/>
<stop offset="1" stop-color="#0A0A0A"/>
</linearGradient>
<linearGradient id="paint2_linear_35_11248" x1="40.5501" y1="129.369" x2="87.4385" y2="20.2627" gradientUnits="userSpaceOnUse">
<stop offset="1.3e-07" stop-color="#FF560E"/>
<stop offset="1" stop-color="#FFBF00"/>
</linearGradient>
<linearGradient id="paint3_linear_35_11248" x1="10.1031" y1="74.8767" x2="117.824" y2="74.8767" gradientUnits="userSpaceOnUse">
<stop stop-color="#FB00FF"/>
<stop offset="1" stop-color="#FF0062"/>
</linearGradient>
<linearGradient id="paint4_linear_35_11248" x1="48.4889" y1="110.658" x2="53.1879" y2="118.796" gradientUnits="userSpaceOnUse">
<stop stop-color="#E0FDFF"/>
<stop offset="1" stop-color="#F5FFFF"/>
</linearGradient>
<linearGradient id="paint5_linear_35_11248" x1="91.3164" y1="96.8497" x2="100.649" y2="97.9578" gradientUnits="userSpaceOnUse">
<stop stop-color="#E0FDFF"/>
<stop offset="1" stop-color="#F5FFFF"/>
</linearGradient>
<linearGradient id="paint6_linear_35_11248" x1="67.6545" y1="97.024" x2="60.154" y2="102.686" gradientUnits="userSpaceOnUse">
<stop stop-color="#E0FDFF"/>
<stop offset="1" stop-color="#F5FFFF"/>
</linearGradient>
<linearGradient id="paint7_linear_35_11248" x1="98.486" y1="56.1728" x2="90.9855" y2="61.8351" gradientUnits="userSpaceOnUse">
<stop stop-color="#E0FDFF"/>
<stop offset="1" stop-color="#F5FFFF"/>
</linearGradient>
<linearGradient id="paint8_linear_35_11248" x1="26.9319" y1="71.7039" x2="19.9999" y2="78.0494" gradientUnits="userSpaceOnUse">
<stop stop-color="#E0FDFF"/>
<stop offset="1" stop-color="#F5FFFF"/>
</linearGradient>
<linearGradient id="paint9_linear_35_11248" x1="29.4146" y1="56.2801" x2="37.0723" y2="61.7276" gradientUnits="userSpaceOnUse">
<stop stop-color="#E0FDFF"/>
<stop offset="1" stop-color="#F5FFFF"/>
</linearGradient>
<linearGradient id="paint10_linear_35_11248" x1="81.3133" y1="118.921" x2="80.8669" y2="109.534" gradientUnits="userSpaceOnUse">
<stop stop-color="#E0FDFF"/>
<stop offset="1" stop-color="#F5FFFF"/>
</linearGradient>
<linearGradient id="paint11_linear_35_11248" x1="34.613" y1="85.0531" x2="43.3915" y2="88.4081" gradientUnits="userSpaceOnUse">
<stop stop-color="#E0FDFF"/>
<stop offset="1" stop-color="#F5FFFF"/>
</linearGradient>
<linearGradient id="paint12_linear_35_11248" x1="97.7879" y1="79.7971" x2="89.2175" y2="75.9419" gradientUnits="userSpaceOnUse">
<stop stop-color="#E0FDFF"/>
<stop offset="1" stop-color="#F5FFFF"/>
</linearGradient>
<linearGradient id="paint13_linear_35_11248" x1="45.3975" y1="42.7216" x2="45.4258" y2="11.2593" gradientUnits="userSpaceOnUse">
<stop stop-color="#C9CCD1"/>
<stop offset="1" stop-color="white"/>
</linearGradient>
<linearGradient id="paint14_linear_35_11248" x1="45.3982" y1="41.5371" x2="45.422" y2="15.0634" gradientUnits="userSpaceOnUse">
<stop stop-color="#0A0A0A"/>
<stop offset="1" stop-color="#1F1F1F"/>
</linearGradient>
<linearGradient id="paint15_linear_35_11248" x1="30.0719" y1="41.4055" x2="60.7249" y2="41.4331" gradientUnits="userSpaceOnUse">
<stop offset="1.3e-07" stop-color="#141414"/>
<stop offset="1" stop-color="#141414"/>
</linearGradient>
<linearGradient id="paint16_linear_35_11248" x1="38.6381" y1="11.975" x2="58.6544" y2="11.975" gradientUnits="userSpaceOnUse">
<stop offset="1.3e-07" stop-color="#141414"/>
<stop offset="1" stop-color="#141414"/>
</linearGradient>
<linearGradient id="paint17_linear_35_11248" x1="82.5399" y1="42.7216" x2="82.5116" y2="11.2593" gradientUnits="userSpaceOnUse">
<stop stop-color="#C9CCD1"/>
<stop offset="1" stop-color="white"/>
</linearGradient>
<linearGradient id="paint18_linear_35_11248" x1="82.5386" y1="41.5371" x2="82.5148" y2="15.0634" gradientUnits="userSpaceOnUse">
<stop stop-color="#0A0A0A"/>
<stop offset="1" stop-color="#1F1F1F"/>
</linearGradient>
<linearGradient id="paint19_linear_35_11248" x1="97.8649" y1="41.4054" x2="67.212" y2="41.433" gradientUnits="userSpaceOnUse">
<stop offset="1.3e-07" stop-color="#141414"/>
<stop offset="1" stop-color="#141414"/>
</linearGradient>
<linearGradient id="paint20_linear_35_11248" x1="89.2995" y1="11.975" x2="69.2832" y2="11.975" gradientUnits="userSpaceOnUse">
<stop offset="1.3e-07" stop-color="#141414"/>
<stop offset="1" stop-color="#141414"/>
</linearGradient>
<linearGradient id="paint21_linear_35_11248" x1="31.9546" y1="46.5737" x2="31.9546" y2="40.2911" gradientUnits="userSpaceOnUse">
<stop stop-color="#00F2FF"/>
<stop offset="1" stop-color="#0087FF"/>
</linearGradient>
<linearGradient id="paint22_linear_35_11248" x1="95.9831" y1="46.5737" x2="95.9831" y2="40.2911" gradientUnits="userSpaceOnUse">
<stop stop-color="#00F2FF"/>
<stop offset="1" stop-color="#0087FF"/>
</linearGradient>
<linearGradient id="paint23_linear_35_11248" x1="55.1269" y1="50.6917" x2="72.6026" y2="50.6917" gradientUnits="userSpaceOnUse">
<stop offset="1.3e-07" stop-color="#141414"/>
<stop offset="1" stop-color="#141414"/>
</linearGradient>
<linearGradient id="paint24_linear_35_11248" x1="53.4525" y1="54.2798" x2="59.188" y2="54.0076" gradientUnits="userSpaceOnUse">
<stop offset="1.3e-07" stop-color="#141414"/>
<stop offset="1" stop-color="#141414"/>
</linearGradient>
<linearGradient id="paint25_linear_35_11248" x1="74.2179" y1="54.2799" x2="68.4827" y2="54.0077" gradientUnits="userSpaceOnUse">
<stop offset="1.3e-07" stop-color="#141414"/>
<stop offset="1" stop-color="#141414"/>
</linearGradient>
</defs>
</svg>
