<svg width="112" height="112" viewBox="0 0 112 112" fill="none" xmlns="http://www.w3.org/2000/svg">
<path d="M56 112C86.9279 112 112 86.9279 112 56C112 25.0721 86.9279 0 56 0C25.0721 0 0 25.0721 0 56C0 86.9279 25.0721 112 56 112Z" fill="#E5BF2B"/>
<path d="M30.282 16.8231C37.665 11.9661 46.503 9.14111 56 9.14111" stroke="#F7E05D" stroke-width="6" stroke-miterlimit="10" stroke-linecap="round"/>
<path d="M19.637 26.443C20.534 25.341 21.046 24.694 21.725 23.978" stroke="#F7E05D" stroke-width="6" stroke-miterlimit="10" stroke-linecap="round"/>
<path d="M32.308 71.3472C29.471 71.3472 27.908 74.6252 29.671 76.8492C35.822 84.6112 45.327 89.5922 56 89.5922C66.673 89.5922 76.178 84.6112 82.329 76.8492C84.092 74.6252 82.53 71.3472 79.692 71.3472H32.308Z" fill="#F2F2F2"/>
<path d="M83.0441 75.1472C83.2731 73.2552 81.8561 71.3472 79.6921 71.3472H32.3081C30.1431 71.3472 28.7271 73.2552 28.9561 75.1472H83.0441Z" fill="#E1E1E3"/>
<path d="M25.5161 59.861C25.5161 55.002 29.4551 51.063 34.3141 51.063C39.1731 51.063 43.1121 55.002 43.1121 59.861" stroke="#2D2E30" stroke-width="6" stroke-miterlimit="10" stroke-linecap="round"/>
<path d="M68.8872 59.861C68.8872 55.002 72.8262 51.063 77.6852 51.063C82.5442 51.063 86.4842 55.002 86.4842 59.861" stroke="#2D2E30" stroke-width="6" stroke-miterlimit="10" stroke-linecap="round"/>
</svg>
