<svg width="112" height="121" viewBox="0 0 112 121" fill="none" xmlns="http://www.w3.org/2000/svg">
<path d="M56 120.07C86.9279 120.07 112 94.9983 112 64.0703C112 33.1424 86.9279 8.07031 56 8.07031C25.0721 8.07031 0 33.1424 0 64.0703C0 94.9983 25.0721 120.07 56 120.07Z" fill="#DE3205"/>
<path d="M39.4709 94.5033C42.7759 88.7903 48.9539 84.9453 56.0299 84.9453C63.0629 84.9453 69.2089 88.7433 72.5289 94.4013" stroke="#2D2E30" stroke-width="6" stroke-miterlimit="10" stroke-linecap="round"/>
<path d="M25.6499 71.0703H43.0179" stroke="#2D2E30" stroke-width="6" stroke-miterlimit="10" stroke-linecap="round"/>
<path d="M68.9819 71.0703H86.3499" stroke="#2D2E30" stroke-width="6" stroke-miterlimit="10" stroke-linecap="round"/>
<path d="M30.385 23.8163C37.768 18.9603 46.606 16.1343 56.103 16.1343" stroke="#E57654" stroke-width="6" stroke-miterlimit="10" stroke-linecap="round"/>
<path d="M19.739 33.4362C20.636 32.3332 21.148 31.6872 21.827 30.9702" stroke="#E57654" stroke-width="6" stroke-miterlimit="10" stroke-linecap="round"/>
<path d="M36.026 24.7812C36.026 32.2092 30.004 38.2313 22.576 38.2313C15.148 38.2313 9.12598 32.2092 9.12598 24.7812C9.12598 16.9822 16.191 7.51025 20.08 1.37325C21.241 -0.45775 23.911 -0.45775 25.072 1.37325C28.961 7.51025 36.026 16.9822 36.026 24.7812Z" fill="#4AB6BF"/>
</svg>
