<svg width="278" height="296" viewBox="0 0 278 296" fill="none" xmlns="http://www.w3.org/2000/svg">
<g opacity="0.15">
<path d="M20.2275 3.78324C20.2265 3.78324 20.2265 3.78324 20.2275 3.78324C13.6905 7.92924 10.2775 14.2932 10.6105 21.7102C10.7175 24.0862 11.1555 26.3782 11.9115 28.5202C12.8445 31.1672 14.0685 33.6873 15.6055 36.1233C13.2155 37.5043 11.0745 39.3932 9.22946 41.7673C4.16946 48.2783 2.85246 56.0303 5.41846 64.1853C7.39946 70.4793 11.3665 75.9802 17.2085 80.5332C21.6115 83.9652 26.8325 86.4072 33.6375 88.2182C45.6915 91.4262 57.1105 90.1653 67.5755 84.4723C68.2135 84.1253 68.8695 83.7602 69.5375 83.3692C70.6195 87.3242 72.7725 91.0813 75.9805 94.6003C78.5885 97.4633 81.5545 100.224 84.8075 102.821C86.3905 107.32 87.6135 111.494 88.5385 115.55L88.8625 116.968C90.0935 122.362 91.3665 127.939 92.5115 133.408C93.9785 140.417 95.3715 146.813 96.7725 152.963L97.1605 154.677C98.1345 158.996 99.1415 163.463 100.703 167.936C101.805 171.093 102.958 174.265 104.073 177.332C105.088 180.125 106.138 183.013 107.132 185.843C108.78 190.536 110.66 195.198 112.761 199.807C112.501 199.77 112.24 199.736 111.979 199.705C106.818 199.087 102.465 199.898 98.6715 202.187C94.8905 204.468 92.6285 207.755 91.0815 210.362C89.1535 213.61 88.2755 217.214 88.4715 221.07C88.6845 225.263 89.9345 229.39 92.1855 233.337C94.0295 236.57 96.4355 239.657 99.5415 242.775C105.578 248.836 112.409 253.235 119.844 255.851C125.168 257.724 130.198 258.837 135.22 259.254C141.067 259.74 146.716 258.327 152.021 255.053C155.014 257.809 158.181 260.568 161.6 263.399C168.964 269.497 176.964 274.948 185.376 279.6C193.445 284.062 200.946 286.988 208.308 288.545C212.139 289.355 215.894 289.769 219.526 290.169C221.196 290.353 222.773 290.527 224.346 290.736C226.149 290.976 227.833 290.997 229.403 290.999C240.308 291.008 249.476 287.058 256.245 283.616C258.241 282.601 259.903 281.387 261.37 280.317L262.066 279.811C266.734 276.445 270.029 272.538 272.14 267.863C272.359 267.378 272.606 266.829 272.794 266.515C275.192 262.499 276.582 257.914 277.036 252.506C277.043 252.42 277.05 252.333 277.057 252.246C277.733 243.616 276.998 235.769 274.81 228.259C272.698 221.004 270.647 214.48 266.928 208.099C264.329 203.643 261.149 199.065 256.92 193.693C251.065 186.256 244.984 180.298 238.33 175.477L238.054 175.277C237.694 175.016 237.332 174.754 236.968 174.491C237.576 172.962 238.037 171.306 238.359 169.514C239.518 163.049 239.038 156.381 236.933 149.698C233.545 138.949 228.212 129.502 221.082 121.619C217.916 118.121 215.003 115.508 211.914 113.399C208.983 111.397 204.958 108.965 199.813 107.918C194.092 106.753 188.391 107.95 183.327 111.38C179.431 114.018 177.047 117.991 176.238 123.194C175.564 122.172 174.876 121.099 174.168 119.97C172.669 117.579 171.159 115.196 169.65 112.813C168.38 110.808 167.11 108.803 165.846 106.794C162.955 102.197 159.983 97.7623 157.457 94.0303C153.962 88.8653 150.568 84.4113 147.083 80.4173C143.288 76.0673 139.123 71.9483 134.699 68.1683C132.738 64.4983 130.401 60.8132 127.398 56.6502C124.215 52.2372 120.186 48.3653 115.422 45.1423C113.041 43.5313 110.533 42.4252 107.97 41.8562C103.27 40.8102 98.7775 41.6373 94.9685 44.1853C92.9465 43.3933 90.7725 42.5893 88.5415 41.8673C87.6815 41.5883 86.7905 41.3063 85.8685 41.0323C84.2665 35.5093 81.5015 30.3133 77.4305 25.1673C75.0075 22.1053 72.6995 19.4893 70.3725 17.1693C67.7155 14.5223 64.4965 11.4663 60.7585 8.87125C53.3255 3.70925 45.1925 0.759257 36.5875 0.100257C30.3435 -0.378743 24.8375 0.86024 20.2275 3.78324Z" fill="white"/>
<path d="M19.5365 4.46391C12.9995 8.60991 9.58655 14.9739 9.91955 22.3919C10.0266 24.7679 10.4645 27.0599 11.2205 29.2019C12.1535 31.8489 13.3775 34.3689 14.9145 36.8039C12.5245 38.1849 10.3835 40.0739 8.53855 42.4479C3.47855 48.9589 2.16155 56.7109 4.72755 64.8659C6.70855 71.1609 10.6755 76.6609 16.5175 81.2139C20.9205 84.6459 26.1415 87.0879 32.9465 88.8989C45.0005 92.1069 56.4195 90.8459 66.8845 85.1529C67.5225 84.8059 68.1785 84.4399 68.8465 84.0499C69.9285 88.0049 72.0816 91.7619 75.2896 95.2809C77.8976 98.1439 80.8635 100.905 84.1165 103.502C85.6995 108.001 86.9225 112.175 87.8475 116.231L88.1715 117.649C89.4025 123.043 90.6755 128.62 91.8205 134.089C93.2865 141.098 94.6805 147.495 96.0815 153.644L96.4695 155.358C97.4435 159.677 98.4505 164.144 100.013 168.617C101.115 171.774 102.268 174.946 103.383 178.012C104.399 180.805 105.448 183.693 106.443 186.524C108.091 191.217 109.971 195.879 112.072 200.488C111.812 200.451 111.551 200.417 111.29 200.385C106.129 199.767 101.776 200.578 97.9815 202.867C94.2005 205.148 91.9385 208.435 90.3915 211.042C88.4635 214.29 87.5855 217.894 87.7815 221.75C87.9945 225.943 89.2445 230.07 91.4955 234.017C93.3395 237.25 95.7455 240.337 98.8515 243.455C104.889 249.516 111.72 253.915 119.156 256.531C124.48 258.404 129.51 259.517 134.532 259.934C140.379 260.42 146.028 259.007 151.333 255.733C154.326 258.489 157.493 261.248 160.912 264.08C168.276 270.178 176.275 275.628 184.688 280.281C192.757 284.743 200.258 287.669 207.62 289.226C211.451 290.036 215.206 290.45 218.838 290.85C220.508 291.034 222.086 291.208 223.658 291.417C225.461 291.657 227.145 291.678 228.715 291.68C239.62 291.689 248.789 287.739 255.557 284.297C257.553 283.282 259.215 282.068 260.682 280.998L261.378 280.492C266.046 277.126 269.341 273.219 271.452 268.543C271.671 268.058 271.919 267.509 272.107 267.195C274.505 263.179 275.895 258.594 276.349 253.186C276.356 253.1 276.363 253.013 276.37 252.926C277.046 244.296 276.311 236.449 274.123 228.939C272.011 221.684 269.96 215.16 266.241 208.779C263.642 204.323 260.462 199.745 256.233 194.373C250.378 186.936 244.297 180.978 237.643 176.157L237.368 175.957C237.008 175.696 236.646 175.434 236.282 175.171C236.89 173.642 237.351 171.986 237.673 170.194C238.832 163.729 238.352 157.061 236.247 150.378C232.859 139.629 227.526 130.182 220.396 122.299C217.231 118.801 214.317 116.188 211.228 114.079C208.297 112.077 204.272 109.645 199.127 108.598C193.406 107.433 187.705 108.63 182.641 112.06C178.745 114.698 176.361 118.671 175.552 123.874C174.878 122.852 174.189 121.779 173.482 120.65C171.983 118.26 170.474 115.876 168.964 113.493C167.693 111.488 166.424 109.483 165.16 107.474C162.269 102.877 159.297 98.4419 156.771 94.7099C153.276 89.5449 149.882 85.0909 146.397 81.0969C142.602 76.7469 138.437 72.6279 134.013 68.8479C132.052 65.1779 129.715 61.4929 126.712 57.3299C123.529 52.9169 119.5 49.0449 114.736 45.8219C112.355 44.2109 109.847 43.1049 107.284 42.5359C102.584 41.4899 98.0905 42.3169 94.2805 44.8649C92.2585 44.0729 90.0845 43.2689 87.8545 42.5469C86.9945 42.2679 86.1035 41.9859 85.1815 41.7119C83.5795 36.1889 80.8145 30.9929 76.7435 25.8469C74.3205 22.7849 72.0125 20.1689 69.6855 17.8489C67.0285 15.2019 63.8095 12.1459 60.0715 9.55089C52.6385 4.38889 44.5055 1.43889 35.9005 0.779889C29.6535 0.300889 24.1475 1.54091 19.5365 4.46391Z" fill="#D4D4D4"/>
<path d="M18.8468 5.14483C12.3098 9.29083 8.8968 15.6548 9.2298 23.0718C9.3368 25.4478 9.7748 27.7398 10.5308 29.8818C11.4638 32.5288 12.6868 35.0489 14.2248 37.4839C11.8348 38.8649 9.69379 40.7539 7.84879 43.1279C2.78879 49.6389 1.4718 57.3908 4.0388 65.5458C6.0198 71.8398 9.9868 77.3409 15.8288 81.8939C20.2318 85.3259 25.4528 87.7678 32.2578 89.5788C44.3118 92.7858 55.7308 91.5259 66.1958 85.8329C66.8338 85.4859 67.4898 85.1199 68.1578 84.7299C69.2398 88.6849 71.3928 92.4419 74.6008 95.9609C77.2088 98.8229 80.1748 101.585 83.4278 104.182C85.0108 108.681 86.2338 112.855 87.1588 116.911L87.4828 118.329C88.7138 123.723 89.9868 129.3 91.1318 134.769C92.5978 141.778 93.9918 148.175 95.3928 154.324L95.7808 156.038C96.7548 160.357 97.7618 164.824 99.3238 169.297C100.426 172.455 101.579 175.626 102.694 178.693C103.71 181.486 104.759 184.374 105.754 187.204C107.402 191.897 109.282 196.559 111.383 201.168C111.123 201.131 110.862 201.097 110.601 201.065C105.44 200.447 101.087 201.258 97.2928 203.547C93.5118 205.828 91.2498 209.115 89.7028 211.722C87.7748 214.97 86.8968 218.574 87.0928 222.43C87.3058 226.623 88.5558 230.75 90.8068 234.697C92.6508 237.93 95.0568 241.017 98.1628 244.135C104.2 250.196 111.031 254.595 118.467 257.211C123.791 259.084 128.821 260.197 133.843 260.614C139.69 261.1 145.339 259.687 150.644 256.413C153.637 259.169 156.804 261.928 160.223 264.759C167.587 270.857 175.587 276.307 183.999 280.96C192.068 285.422 199.569 288.348 206.93 289.905C210.761 290.715 214.516 291.129 218.148 291.529C219.818 291.713 221.396 291.887 222.968 292.096C224.771 292.336 226.455 292.357 228.025 292.359C238.93 292.368 248.099 288.418 254.867 284.976C256.863 283.961 258.525 282.747 259.992 281.677L260.688 281.171C265.356 277.805 268.651 273.898 270.762 269.222C270.981 268.737 271.228 268.188 271.416 267.874C273.815 263.858 275.204 259.273 275.658 253.865C275.665 253.779 275.672 253.692 275.679 253.605C276.355 244.975 275.62 237.128 273.432 229.618C271.32 222.363 269.269 215.839 265.55 209.458C262.951 205.002 259.771 200.424 255.542 195.052C249.687 187.615 243.606 181.657 236.952 176.836L236.676 176.636C236.316 176.375 235.954 176.113 235.59 175.85C236.198 174.321 236.659 172.665 236.981 170.873C238.14 164.407 237.66 157.74 235.555 151.057C232.167 140.308 226.834 130.861 219.704 122.978C216.539 119.48 213.625 116.867 210.536 114.758C207.605 112.756 203.58 110.324 198.435 109.277C192.714 108.112 187.013 109.309 181.949 112.739C178.053 115.377 175.669 119.35 174.86 124.553C174.186 123.531 173.497 122.458 172.79 121.329C171.291 118.938 169.782 116.555 168.272 114.172C167.002 112.167 165.732 110.162 164.468 108.153C161.577 103.556 158.605 99.1198 156.079 95.3888C152.584 90.2238 149.19 85.7699 145.705 81.7759C141.91 77.4259 137.745 73.3068 133.321 69.5268C131.36 65.8568 129.023 62.1718 126.02 58.0088C122.837 53.5958 118.807 49.7238 114.044 46.5008C111.663 44.8898 109.155 43.7838 106.592 43.2148C101.892 42.1688 97.3988 42.9959 93.5888 45.5439C91.5668 44.7519 89.3928 43.9478 87.1618 43.2258C86.3018 42.9468 85.4108 42.6649 84.4888 42.3909C82.8868 36.8679 80.1218 31.6719 76.0508 26.5259C73.6278 23.4639 71.3198 20.8478 68.9928 18.5278C66.3358 15.8808 63.1168 12.8249 59.3788 10.2299C51.9458 5.06785 43.8128 2.11785 35.2078 1.45885C28.9628 0.981854 23.4578 2.22183 18.8468 5.14483Z" fill="#AAAAAA"/>
<path d="M18.1564 5.82652C11.6194 9.97252 8.20636 16.3365 8.53936 23.7535C8.64636 26.1295 9.08437 28.4215 9.84037 30.5635C10.7734 33.2105 11.9964 35.7305 13.5344 38.1665C11.1444 39.5475 9.00337 41.4365 7.15837 43.8105C2.09837 50.3215 0.781365 58.0735 3.34836 66.2285C5.32936 72.5235 9.29636 78.0235 15.1384 82.5765C19.5414 86.0085 24.7624 88.4505 31.5674 90.2615C43.6214 93.4685 55.0404 92.2085 65.5054 86.5155C66.1434 86.1685 66.7994 85.8035 67.4674 85.4125C68.5494 89.3675 70.7024 93.1245 73.9104 96.6435C76.5184 99.5065 79.4844 102.268 82.7374 104.866C84.3204 109.365 85.5434 113.539 86.4684 117.595L86.7924 119.012C88.0234 124.406 89.2964 129.983 90.4414 135.452C91.9084 142.461 93.3014 148.858 94.7024 155.007L95.0904 156.722C96.0644 161.041 97.0714 165.508 98.6334 169.981C99.7354 173.138 100.888 176.31 102.003 179.377C103.019 182.17 104.068 185.058 105.063 187.889C106.711 192.582 108.591 197.244 110.692 201.853C110.432 201.816 110.171 201.781 109.91 201.749C104.749 201.131 100.396 201.942 96.6024 204.231C92.8214 206.512 90.5594 209.8 89.0124 212.407C87.0844 215.655 86.2064 219.258 86.4024 223.114C86.6154 227.307 87.8654 231.434 90.1164 235.381C91.9604 238.614 94.3664 241.702 97.4724 244.82C103.509 250.881 110.34 255.279 117.776 257.895C123.1 259.768 128.13 260.882 133.151 261.299C138.998 261.785 144.647 260.372 149.952 257.098C152.945 259.854 156.112 262.612 159.531 265.443C166.895 271.541 174.895 276.992 183.307 281.645C191.376 286.107 198.877 289.032 206.238 290.589C210.069 291.399 213.824 291.813 217.456 292.213C219.126 292.397 220.704 292.571 222.276 292.78C224.079 293.02 225.763 293.042 227.333 293.044C238.238 293.053 247.407 289.102 254.175 285.66C256.171 284.645 257.833 283.432 259.3 282.362L259.996 281.855C264.664 278.489 267.959 274.582 270.07 269.906C270.289 269.421 270.537 268.872 270.725 268.558C273.123 264.542 274.513 259.958 274.967 254.55C274.974 254.464 274.982 254.377 274.988 254.29C275.664 245.66 274.929 237.812 272.741 230.302C270.629 223.047 268.578 216.524 264.859 210.143C262.26 205.687 259.08 201.108 254.851 195.736C248.996 188.299 242.915 182.341 236.261 177.52L235.986 177.321C235.626 177.06 235.264 176.798 234.9 176.535C235.508 175.006 235.97 173.35 236.291 171.558C237.45 165.093 236.97 158.425 234.865 151.742C231.477 140.993 226.144 131.546 219.014 123.663C215.849 120.165 212.935 117.551 209.846 115.442C206.915 113.44 202.89 111.009 197.745 109.962C192.024 108.797 186.323 109.993 181.259 113.424C177.363 116.062 174.979 120.035 174.17 125.238C173.496 124.216 172.808 123.143 172.1 122.014C170.601 119.623 169.092 117.239 167.582 114.856C166.312 112.851 165.042 110.847 163.778 108.838C160.887 104.241 157.915 99.8055 155.389 96.0735C151.894 90.9085 148.5 86.4545 145.015 82.4605C141.22 78.1105 137.055 73.9915 132.631 70.2115C130.67 66.5415 128.333 62.8565 125.33 58.6935C122.147 54.2805 118.117 50.4085 113.354 47.1855C110.973 45.5745 108.465 44.4685 105.902 43.8995C101.202 42.8535 96.7094 43.6805 92.8994 46.2285C90.8774 45.4365 88.7034 44.6325 86.4724 43.9105C85.6124 43.6315 84.7214 43.3495 83.7994 43.0755C82.1974 37.5525 79.4324 32.3565 75.3614 27.2105C72.9384 24.1485 70.6304 21.5325 68.3034 19.2125C65.6464 16.5655 62.4264 13.5095 58.6894 10.9145C51.2564 5.75253 43.1234 2.80254 34.5184 2.14354C28.2724 1.66354 22.7664 2.90352 18.1564 5.82652Z" fill="#808080"/>
<path d="M17.4664 6.50682C17.4654 6.50682 17.4654 6.50682 17.4664 6.50682C10.9294 10.6528 7.51642 17.0168 7.84942 24.4338C7.95642 26.8098 8.39442 29.1018 9.15042 31.2438C10.0834 33.8908 11.3064 36.4109 12.8444 38.8459C10.4544 40.2269 8.31342 42.1159 6.46842 44.4899C1.40842 51.0009 0.0914233 58.7528 2.65842 66.9078C4.63942 73.2028 8.60643 78.7028 14.4484 83.2558C18.8514 86.6878 24.0724 89.1298 30.8774 90.9408C42.9314 94.1488 54.3504 92.8879 64.8154 87.1949C65.4534 86.8479 66.1094 86.4828 66.7774 86.0918C67.8594 90.0468 70.0124 93.8039 73.2204 97.3229C75.8284 100.186 78.7944 102.947 82.0474 105.544C83.6304 110.043 84.8534 114.217 85.7784 118.273L86.1024 119.691C87.3334 125.085 88.6064 130.662 89.7514 136.131C91.2184 143.14 92.6114 149.537 94.0124 155.686L94.4004 157.4C95.3744 161.719 96.3814 166.186 97.9434 170.659C99.0464 173.816 100.198 176.988 101.313 180.055C102.329 182.848 103.378 185.736 104.373 188.567C106.021 193.26 107.901 197.922 110.002 202.531C109.742 202.494 109.481 202.46 109.22 202.429C104.059 201.811 99.7064 202.622 95.9124 204.911C92.1314 207.192 89.8694 210.479 88.3224 213.086C86.3944 216.334 85.5164 219.938 85.7124 223.794C85.9254 227.987 87.1754 232.114 89.4264 236.061C91.2704 239.294 93.6764 242.381 96.7824 245.499C102.819 251.56 109.65 255.959 117.086 258.575C122.41 260.448 127.44 261.561 132.461 261.978C138.308 262.464 143.957 261.051 149.262 257.777C152.255 260.533 155.422 263.292 158.841 266.123C166.205 272.221 174.205 277.671 182.617 282.324C190.686 286.786 198.187 289.712 205.549 291.269C209.38 292.079 213.135 292.493 216.767 292.893C218.437 293.077 220.015 293.251 221.587 293.46C223.39 293.7 225.074 293.721 226.644 293.722C237.549 293.731 246.718 289.781 253.486 286.339C255.482 285.324 257.144 284.11 258.611 283.04L259.307 282.534C263.975 279.168 267.27 275.261 269.381 270.585C269.6 270.1 269.847 269.551 270.036 269.237C272.434 265.221 273.824 260.636 274.278 255.228C274.285 255.142 274.293 255.055 274.299 254.968C274.974 246.338 274.24 238.491 272.052 230.981C269.94 223.726 267.889 217.202 264.17 210.821C261.571 206.365 258.391 201.787 254.162 196.415C248.307 188.978 242.226 183.02 235.572 178.199L235.296 178C234.936 177.739 234.574 177.477 234.21 177.214C234.818 175.685 235.279 174.029 235.601 172.237C236.76 165.771 236.28 159.104 234.175 152.421C230.787 141.672 225.454 132.225 218.324 124.342C215.158 120.844 212.245 118.231 209.156 116.122C206.225 114.12 202.2 111.688 197.055 110.641C191.334 109.476 185.633 110.673 180.569 114.103C176.673 116.741 174.289 120.714 173.481 125.917C172.807 124.895 172.119 123.822 171.411 122.693C169.912 120.302 168.403 117.919 166.893 115.536C165.623 113.531 164.353 111.526 163.089 109.517C160.198 104.92 157.226 100.485 154.7 96.7529C151.205 91.5869 147.811 87.1338 144.326 83.1398C140.531 78.7898 136.366 74.6709 131.942 70.8909C129.981 67.2209 127.644 63.5358 124.641 59.3728C121.458 54.9598 117.428 51.0879 112.665 47.8649C110.284 46.2539 107.776 45.1478 105.213 44.5788C100.513 43.5328 96.0204 44.3598 92.2104 46.9078C90.1884 46.1158 88.0144 45.3118 85.7834 44.5898C84.9234 44.3108 84.0324 44.0289 83.1104 43.7549C81.5084 38.2319 78.7434 33.0358 74.6724 27.8898C72.2494 24.8278 69.9414 22.2118 67.6144 19.8918C64.9574 17.2448 61.7384 14.1889 58.0004 11.5939C50.5674 6.43186 42.4344 3.48186 33.8294 2.82286C27.5824 2.34386 22.0764 3.58382 17.4664 6.50682Z" fill="#555555"/>
<path d="M16.7765 7.18816C16.7755 7.18816 16.7755 7.18816 16.7765 7.18816C10.2395 11.3342 6.82648 17.6982 7.15948 25.1152C7.26648 27.4912 7.70448 29.7832 8.46048 31.9252C9.39348 34.5722 10.6165 37.0921 12.1545 39.5281C9.76448 40.9091 7.62348 42.7982 5.77848 45.1722C0.718481 51.6832 -0.598517 59.4351 1.96848 67.5901C3.94948 73.8841 7.91548 79.3852 13.7585 83.9382C18.1615 87.3702 23.3825 89.8122 30.1875 91.6232C42.2415 94.8302 53.6605 93.5701 64.1255 87.8771C64.7635 87.5301 65.4195 87.1642 66.0875 86.7742C67.1695 90.7292 69.3225 94.4862 72.5305 98.0052C75.1385 100.867 78.1045 103.629 81.3575 106.226C82.9405 110.725 84.1635 114.899 85.0885 118.955L85.4125 120.373C86.6435 125.767 87.9165 131.344 89.0615 136.813C90.5285 143.822 91.9215 150.218 93.3225 156.368L93.7105 158.082C94.6845 162.401 95.6925 166.868 97.2535 171.341C98.3555 174.498 99.5085 177.67 100.623 180.737C101.639 183.53 102.688 186.418 103.683 189.248C105.331 193.941 107.211 198.603 109.312 203.212C109.052 203.175 108.791 203.141 108.53 203.109C103.369 202.491 99.0165 203.302 95.2225 205.591C91.4415 207.872 89.1795 211.159 87.6325 213.766C85.7045 217.014 84.8265 220.618 85.0225 224.474C85.2355 228.667 86.4855 232.794 88.7365 236.741C90.5805 239.974 92.9865 243.061 96.0925 246.179C102.129 252.24 108.96 256.639 116.396 259.255C121.72 261.128 126.75 262.241 131.771 262.658C137.618 263.144 143.267 261.731 148.572 258.457C151.565 261.213 154.732 263.972 158.151 266.803C165.515 272.901 173.514 278.351 181.927 283.004C189.996 287.466 197.497 290.392 204.858 291.949C208.689 292.759 212.444 293.172 216.076 293.573C217.746 293.757 219.324 293.931 220.896 294.14C222.699 294.38 224.383 294.401 225.953 294.403C236.858 294.412 246.027 290.462 252.795 287.02C254.791 286.005 256.453 284.791 257.92 283.721L258.616 283.215C263.284 279.849 266.579 275.942 268.69 271.266C268.909 270.781 269.156 270.232 269.345 269.918C271.743 265.902 273.133 261.317 273.587 255.909C273.594 255.823 273.602 255.736 273.608 255.649C274.283 247.019 273.549 239.172 271.361 231.662C269.25 224.407 267.199 217.883 263.479 211.502C260.88 207.046 257.7 202.468 253.471 197.096C247.616 189.659 241.535 183.701 234.881 178.88L234.606 178.68C234.246 178.419 233.884 178.157 233.52 177.894C234.128 176.365 234.589 174.709 234.911 172.917C236.07 166.451 235.59 159.784 233.485 153.101C230.097 142.352 224.764 132.905 217.635 125.022C214.469 121.524 211.556 118.911 208.467 116.802C205.536 114.8 201.511 112.368 196.366 111.321C190.645 110.156 184.944 111.353 179.88 114.783C175.984 117.421 173.6 121.394 172.791 126.597C172.117 125.575 171.429 124.502 170.721 123.373C169.222 120.982 167.713 118.599 166.203 116.216C164.933 114.211 163.663 112.206 162.399 110.197C159.508 105.6 156.536 101.164 154.01 97.4332C150.515 92.2682 147.121 87.8142 143.636 83.8202C139.841 79.4702 135.676 75.3512 131.252 71.5712C129.291 67.9012 126.954 64.2162 123.95 60.0532C120.767 55.6402 116.738 51.7682 111.974 48.5452C109.593 46.9342 107.085 45.8281 104.522 45.2591C99.8225 44.2131 95.3295 45.0401 91.5195 47.5881C89.4975 46.7961 87.3235 45.9921 85.0935 45.2701C84.2335 44.9911 83.3425 44.7092 82.4205 44.4352C80.8185 38.9122 78.0535 33.7162 73.9825 28.5702C71.5595 25.5082 69.2515 22.8921 66.9245 20.5721C64.2675 17.9251 61.0485 14.8692 57.3105 12.2742C49.8775 7.11216 41.7445 4.16216 33.1395 3.50316C26.8925 3.02516 21.3865 4.26516 16.7765 7.18816Z" fill="#2B2B2B"/>
<path d="M16.0856 7.86887C9.54856 12.0149 6.13556 18.3789 6.46856 25.7959C6.57556 28.1719 7.01357 30.4639 7.76957 32.6059C8.70257 35.2529 9.92557 37.7729 11.4636 40.2089C9.07357 41.5899 6.93256 43.4789 5.08756 45.8529C0.0275626 52.3639 -1.28944 60.1159 1.27756 68.2709C3.25856 74.5659 7.22556 80.0659 13.0676 84.6189C17.4706 88.0509 22.6916 90.4929 29.4966 92.3039C41.5506 95.5119 52.9696 94.2509 63.4346 88.5579C64.0726 88.2109 64.7286 87.8459 65.3966 87.4549C66.4786 91.4099 68.6316 95.1669 71.8396 98.6859C74.4486 101.549 77.4136 104.31 80.6666 106.908C82.2496 111.407 83.4726 115.581 84.3976 119.637L84.7216 121.055C85.9526 126.449 87.2256 132.026 88.3706 137.495C89.8376 144.504 91.2306 150.9 92.6316 157.05L93.0196 158.764C93.9936 163.083 95.0016 167.55 96.5626 172.023C97.6646 175.18 98.8176 178.352 99.9326 181.419C100.949 184.212 101.998 187.1 102.993 189.93C104.641 194.623 106.521 199.285 108.622 203.894C108.362 203.857 108.101 203.823 107.84 203.791C102.679 203.173 98.3256 203.984 94.5316 206.273C90.7506 208.554 88.4886 211.841 86.9416 214.448C85.0136 217.696 84.1356 221.3 84.3316 225.156C84.5446 229.349 85.7946 233.476 88.0456 237.423C89.8896 240.656 92.2956 243.743 95.4016 246.861C101.439 252.922 108.27 257.321 115.706 259.937C121.03 261.81 126.06 262.923 131.081 263.34C136.928 263.826 142.577 262.413 147.882 259.139C150.875 261.895 154.042 264.654 157.461 267.485C164.825 273.583 172.825 279.033 181.237 283.686C189.306 288.148 196.807 291.074 204.168 292.631C207.999 293.441 211.754 293.855 215.386 294.255C217.056 294.439 218.634 294.613 220.206 294.822C222.009 295.062 223.693 295.083 225.263 295.085C236.168 295.094 245.336 291.144 252.105 287.702C254.101 286.687 255.763 285.473 257.23 284.403L257.926 283.897C262.594 280.531 265.889 276.624 268 271.948C268.219 271.463 268.466 270.914 268.655 270.6C271.053 266.584 272.443 261.999 272.897 256.591C272.904 256.505 272.912 256.418 272.918 256.331C273.594 247.701 272.859 239.854 270.671 232.344C268.559 225.089 266.508 218.565 262.789 212.184C260.19 207.728 257.01 203.15 252.781 197.778C246.926 190.341 240.845 184.383 234.191 179.562L233.916 179.362C233.556 179.101 233.193 178.839 232.83 178.576C233.438 177.047 233.899 175.391 234.221 173.599C235.38 167.133 234.9 160.466 232.795 153.783C229.407 143.034 224.074 133.587 216.944 125.704C213.779 122.206 210.865 119.593 207.776 117.484C204.845 115.482 200.82 113.05 195.675 112.003C189.954 110.838 184.253 112.035 179.189 115.466C175.293 118.104 172.909 122.077 172.1 127.28C171.426 126.258 170.738 125.185 170.03 124.056C168.531 121.665 167.022 119.282 165.512 116.899C164.242 114.894 162.972 112.889 161.708 110.88C158.817 106.283 155.845 101.848 153.319 98.1159C149.824 92.9509 146.43 88.4969 142.945 84.5029C139.15 80.1529 134.985 76.0339 130.561 72.2539C128.6 68.5839 126.263 64.8989 123.26 60.7359C120.077 56.3229 116.048 52.4509 111.284 49.2279C108.903 47.6169 106.395 46.5109 103.832 45.9419C99.1316 44.8959 94.6386 45.7229 90.8286 48.2709C88.8066 47.4789 86.6326 46.6749 84.4026 45.9539C83.5426 45.6749 82.6516 45.3929 81.7296 45.1189C80.1276 39.5959 77.3626 34.3999 73.2916 29.2539C70.8686 26.1919 68.5606 23.5759 66.2336 21.2559C63.5766 18.6089 60.3576 15.5529 56.6196 12.9579C49.1866 7.79692 41.0536 4.84587 32.4486 4.18687C26.2026 3.70587 20.6966 4.94587 16.0856 7.86887Z" fill="black"/>
</g>
<path d="M16.0856 7.86887C9.54856 12.0149 6.13556 18.3789 6.46856 25.7959C6.57556 28.1719 7.01357 30.4639 7.76957 32.6059C8.70257 35.2529 9.92557 37.7729 11.4636 40.2089C9.07357 41.5899 6.93256 43.4789 5.08756 45.8529C0.0275626 52.3639 -1.28944 60.1159 1.27756 68.2709C3.25856 74.5659 7.22556 80.0659 13.0676 84.6189C17.4706 88.0509 22.6916 90.4929 29.4966 92.3039C41.5506 95.5119 52.9696 94.2509 63.4346 88.5579C64.0726 88.2109 64.7286 87.8459 65.3966 87.4549C66.4786 91.4099 68.6316 95.1669 71.8396 98.6859C74.4486 101.549 77.4136 104.31 80.6666 106.908C82.2496 111.407 83.4726 115.581 84.3976 119.637L84.7216 121.055C85.9526 126.449 87.2256 132.026 88.3706 137.495C89.8376 144.504 91.2306 150.9 92.6316 157.05L93.0196 158.764C93.9936 163.083 95.0016 167.55 96.5626 172.023C97.6646 175.18 98.8176 178.352 99.9326 181.419C100.949 184.212 101.998 187.1 102.993 189.93C104.641 194.623 106.521 199.285 108.622 203.894C108.362 203.857 108.101 203.823 107.84 203.791C102.679 203.173 98.3256 203.984 94.5316 206.273C90.7506 208.554 88.4886 211.841 86.9416 214.448C85.0136 217.696 84.1356 221.3 84.3316 225.156C84.5446 229.349 85.7946 233.476 88.0456 237.423C89.8896 240.656 92.2956 243.743 95.4016 246.861C101.439 252.922 108.27 257.321 115.706 259.937C121.03 261.81 126.06 262.923 131.081 263.34C136.928 263.826 142.577 262.413 147.882 259.139C150.875 261.895 154.042 264.654 157.461 267.485C164.825 273.583 172.825 279.033 181.237 283.686C189.306 288.148 196.807 291.074 204.168 292.631C207.999 293.441 211.754 293.855 215.386 294.255C217.056 294.439 218.634 294.613 220.206 294.822C222.009 295.062 223.693 295.083 225.263 295.085C236.168 295.094 245.336 291.144 252.105 287.702C254.101 286.687 255.763 285.473 257.23 284.403L257.926 283.897C262.594 280.531 265.889 276.624 268 271.948C268.219 271.463 268.466 270.914 268.655 270.6C271.053 266.584 272.443 261.999 272.897 256.591C272.904 256.505 272.912 256.418 272.918 256.331C273.594 247.701 272.859 239.854 270.671 232.344C268.559 225.089 266.508 218.565 262.789 212.184C260.19 207.728 257.01 203.15 252.781 197.778C246.926 190.341 240.845 184.383 234.191 179.562L233.916 179.362C233.556 179.101 233.193 178.839 232.83 178.576C233.438 177.047 233.899 175.391 234.221 173.599C235.38 167.133 234.9 160.466 232.795 153.783C229.407 143.034 224.074 133.587 216.944 125.704C213.779 122.206 210.865 119.593 207.776 117.484C204.845 115.482 200.82 113.05 195.675 112.003C189.954 110.838 184.253 112.035 179.189 115.466C175.293 118.104 172.909 122.077 172.1 127.28C171.426 126.258 170.738 125.185 170.03 124.056C168.531 121.665 167.022 119.282 165.512 116.899C164.242 114.894 162.972 112.889 161.708 110.88C158.817 106.283 155.845 101.848 153.319 98.1159C149.824 92.9509 146.43 88.4969 142.945 84.5029C139.15 80.1529 134.985 76.0339 130.561 72.2539C128.6 68.5839 126.263 64.8989 123.26 60.7359C120.077 56.3229 116.048 52.4509 111.284 49.2279C108.903 47.6169 106.395 46.5109 103.832 45.9419C99.1316 44.8959 94.6386 45.7229 90.8286 48.2709C88.8066 47.4789 86.6326 46.6749 84.4026 45.9539C83.5426 45.6749 82.6516 45.3929 81.7296 45.1189C80.1276 39.5959 77.3626 34.3999 73.2916 29.2539C70.8686 26.1919 68.5606 23.5759 66.2336 21.2559C63.5766 18.6089 60.3576 15.5529 56.6196 12.9579C49.1866 7.79692 41.0536 4.84587 32.4486 4.18687C26.2026 3.70587 20.6966 4.94587 16.0856 7.86887Z" fill="white"/>
<path d="M121.26 119.07C121.537 119.654 121.695 120.042 121.897 120.406C125.07 126.118 127.868 132.017 130.53 137.977C134.865 147.684 139.363 157.306 144.804 166.455C147.044 170.221 149.312 173.971 151.585 177.718C152.191 178.717 152.365 178.737 153.381 178.143C155.268 177.039 157.294 176.443 159.483 176.323C162.141 176.177 164.568 176.925 166.907 178.081C168.274 178.757 169.632 179.449 171.003 180.117C171.995 180.601 173.043 180.925 174.141 181.05C176.32 181.299 177.725 180.188 178.015 178.03C178.183 176.778 178.035 175.553 177.686 174.354C177.326 173.119 176.917 171.899 176.527 170.673C175.682 168.011 175.178 165.305 175.622 162.506C176.002 160.111 177.123 158.211 179.39 157.121C179.637 157.002 179.938 156.927 180.073 156.462C174.952 151.684 170.339 146.338 165.782 140.696C164.978 142.335 164.152 143.652 163.111 144.832C160.469 147.83 156.033 149.142 152.458 147.935C149.802 147.038 147.627 145.378 145.941 143.22C143.78 140.453 142.306 137.303 141.675 133.802C141.37 132.109 140.907 130.457 140.137 128.908C139.551 127.729 139.468 127.651 138.295 128.233C135.456 129.642 132.952 129.045 130.607 127.124C128.889 125.717 127.618 123.93 126.334 122.155C125.139 120.5 123.601 119.413 121.26 119.07Z" fill="white"/>
<path d="M159.977 209.876C156.267 208.525 152.596 207.088 149.2 205.036C148.971 204.898 148.732 204.68 148.401 204.838C148.101 205.237 148.293 205.661 148.407 206.05C149.053 208.243 150.225 210.084 151.972 211.595C154.781 214.025 158.151 213.065 160.365 211.452C160.516 211.342 160.644 211.192 160.757 211.042C161.072 210.625 161.113 210.262 160.517 210.061C160.337 210 160.156 209.941 159.977 209.876Z" fill="#D35B30"/>
<path d="M59.9579 54.0635C59.9099 54.1715 59.8629 54.2805 59.8149 54.3885C60.0989 54.6245 60.3649 54.8885 60.6709 55.0915C64.2239 57.4545 67.3279 60.3585 70.1919 63.4725C74.1519 67.7785 78.0859 72.1334 80.9719 77.2964C81.9319 79.0134 82.1469 78.9705 83.4799 77.5575C86.2449 74.6275 89.6099 73.3085 93.6479 73.9005C94.2129 73.9835 94.7739 74.0965 95.3349 74.2085C99.6259 75.0625 103.488 76.8045 106.75 79.7645C109.124 81.9195 111.161 84.3635 112.899 87.0575C113.905 88.6175 114.881 90.1975 115.927 91.7305C117.594 94.1735 119.688 95.2705 122.781 94.3495C125.616 93.5045 127.11 94.4365 128.305 97.1935C128.874 98.5075 129.28 99.8775 129.702 101.242C130.238 102.976 131.435 104.02 133.135 104.582C134.889 105.161 136.519 104.748 138.131 104.072C139.908 103.326 140.013 102.914 138.841 101.378C138.783 101.302 138.722 101.229 138.661 101.156C135.769 97.6805 132.973 94.1275 129.76 90.9225C126.723 87.8925 123.591 84.9765 120.249 82.2925C110.889 74.7775 100.779 68.4495 89.9609 63.2505C81.7229 59.2925 73.1999 56.1924 64.1519 54.6744C62.7579 54.4414 61.3559 54.2655 59.9579 54.0635Z" fill="white"/>
<path d="M176.332 210.249C176.776 210.259 177.269 210.412 177.685 210.002C177.394 209.465 176.878 209.278 176.452 209.009C168.817 204.189 162.185 198.216 156.259 191.437C154.157 189.033 152.297 186.44 150.455 183.834C146.218 177.837 142.387 171.584 138.753 165.21C133.887 156.674 129.801 147.746 125.658 138.849C122.057 131.116 118.349 123.437 114.04 116.067C113.237 114.693 112.482 113.28 111.488 112.017C111.232 112.225 111.278 112.427 111.297 112.605C111.824 117.411 111.486 122.216 111.363 127.027C111.22 132.656 111.533 138.274 112.586 143.823C113.167 146.885 114.425 149.64 116.652 151.866C117.728 152.941 118.906 153.916 120.056 154.916C121.387 156.074 122.638 157.303 123.824 158.615C125.195 160.133 125.585 161.76 125.168 163.753C124.689 166.04 124.469 168.369 124.932 170.71C125.98 176.02 128.424 180.678 131.732 184.877C135.188 189.264 139.096 193.24 143.358 196.858C147.337 200.236 151.573 203.202 156.455 205.169C160.224 206.688 164.143 207.717 168.039 208.814C170.745 209.578 173.499 210.184 176.332 210.249ZM159.527 202.025C158.792 202.192 158.232 201.896 157.674 201.678C156.07 201.05 154.571 200.211 153.155 199.24C149.453 196.7 146.027 193.82 142.878 190.624C139.557 187.254 137.226 183.216 135.27 178.95C133.361 174.787 131.597 170.569 130.749 166.033C130.65 165.503 130.421 165.08 130.028 164.682C124.389 158.961 120.113 152.401 117.746 144.667C117.325 143.293 117.07 141.891 116.919 140.468C116.828 139.611 116.875 138.754 117.033 137.906C117.078 137.667 117.159 137.41 117.419 137.354C117.777 137.278 117.919 137.57 118.013 137.838C118.8 140.088 119.78 142.261 120.637 144.482C122.542 149.421 125.198 153.914 128.567 157.97C129.898 159.574 131.324 161.133 133.052 162.352C133.834 162.904 134.307 163.627 134.507 164.558C135.534 169.333 137.404 173.818 139.202 178.332C141.575 184.289 145.407 189.241 149.798 193.793C151.912 195.984 154.194 198.015 156.663 199.818C157.318 200.296 157.976 200.763 158.699 201.136C159.023 201.305 159.428 201.407 159.527 202.025Z" fill="#FFF0DB"/>
<path d="M97.9145 60.2371C102.944 62.7451 107.72 65.685 112.415 68.759C114.034 69.819 115.62 70.9311 117.222 72.0181C117.255 71.9831 117.289 71.948 117.322 71.913C116.581 70.952 115.823 70.0041 115.104 69.0271C112.221 65.1081 108.675 61.9201 104.525 59.3981C103.381 58.7031 102.147 58.2011 100.814 57.9841C99.4945 57.7691 98.2575 58.006 97.1095 58.684C96.3555 59.129 96.3675 59.3791 97.1565 59.8421C97.4005 59.9861 97.6585 60.1091 97.9145 60.2371Z" fill="#FFF0DB"/>
<path d="M183.309 159.4C182.536 158.71 181.803 158.623 180.845 159.085C179.327 159.818 178.476 160.935 178.31 162.604C178.055 165.154 178.347 167.647 179.105 170.085C179.628 171.768 180.182 173.441 180.564 175.166C180.826 176.349 180.834 177.531 180.645 178.717C180.129 181.951 177.459 184.119 174.195 183.98C172.55 183.91 171.005 183.433 169.504 182.809C167.744 182.077 166.013 181.278 164.249 180.558C161.173 179.301 158.178 179.704 155.266 181.119C154.295 181.59 154.223 181.754 154.806 182.615C155.926 184.269 157.087 185.899 158.299 187.487C160.326 190.142 162.705 192.491 164.994 194.911C166.627 196.637 168.459 198.173 170.185 199.812C170.765 200.363 171.302 200.43 171.948 199.923C172.696 199.336 173.531 198.853 174.246 198.231C175.558 197.09 177.024 196.24 178.618 195.567C180.114 194.935 181.644 194.4 183.198 193.952C187.888 192.599 192.141 193.469 195.925 196.58C197.858 198.169 199.274 200.221 200.753 201.928C202.029 203.564 203.208 205.002 204.503 206.337C206.073 207.956 207.813 209.345 209.952 210.171C212.89 211.306 215.308 210.497 216.935 207.798C217.181 207.391 217.366 206.945 217.63 206.551C218.373 205.442 219.459 205.337 220.384 206.285C220.613 206.52 220.768 206.827 220.966 207.094C222.614 209.306 224.094 211.652 226.24 213.458C227.804 214.774 229.472 215.818 231.586 215.913C233.052 215.979 234.318 215.535 235.273 214.387C237.233 212.03 238.305 209.343 238.237 206.245C238.184 203.828 237.426 201.564 236.715 199.29C236.612 198.962 236.409 198.702 236.165 198.468C234.824 197.184 233.528 195.849 232.135 194.623C226.141 189.349 219.567 184.873 212.72 180.802C203.9 175.558 195.373 169.912 187.631 163.144C186.193 161.888 184.729 160.668 183.309 159.4Z" fill="#D35B30"/>
<path d="M196.181 256.835C195.638 254.843 194.893 252.949 193.442 251.405C192.25 250.137 190.819 249.526 189.081 249.776C188.092 249.918 187.11 250.114 186.133 250.325C184.686 250.638 183.231 250.857 181.75 250.918C178.036 251.072 174.937 249.773 172.471 247.003C171.141 245.509 169.911 243.932 168.715 242.325C165.094 237.462 160.316 235.137 154.205 235.98C151.632 236.335 149.268 237.402 146.928 238.469C145.795 238.985 145.794 239.21 146.655 240.17C147.856 241.347 149.117 242.577 150.372 243.813C155.126 248.494 160.115 252.914 165.281 257.13C172.272 262.837 179.768 267.807 187.644 272.21C190.602 273.864 193.652 275.317 196.799 276.566C197.757 276.946 198.001 276.814 198.105 275.805C198.187 275.002 198.158 274.188 198.173 273.379C198.271 267.773 197.658 262.251 196.181 256.835Z" fill="#D35B30"/>
<path d="M202.24 168.517C202.528 168.714 202.804 169.052 203.256 168.885C203.361 168.315 203.038 167.864 202.86 167.385C200.209 160.237 197.528 153.099 195.162 145.85C194.482 143.767 193.811 141.68 193.163 139.586C193.048 139.216 192.717 138.662 193.244 138.467C193.694 138.301 193.927 138.875 194.133 139.226C194.689 140.169 195.241 141.118 195.741 142.092C197.92 146.339 199.671 150.771 201.348 155.232C203.327 160.495 205.283 165.766 207.244 171.035C207.447 171.58 207.679 172.088 208.208 172.405C209.185 172.991 210.154 173.589 211.227 174.244C211.57 173.544 211.372 173.026 211.313 172.523C210.734 167.553 210.102 162.588 209.556 157.614C209.177 154.157 208.836 150.693 208.685 147.216C208.666 146.79 208.586 146.345 208.774 145.946C208.926 145.623 209.223 145.555 209.436 145.868C209.618 146.137 209.723 146.468 209.815 146.785C210.216 148.157 210.638 149.524 210.984 150.91C213.002 159.015 214.433 167.225 215.254 175.537C215.336 176.369 215.559 177.007 216.363 177.359C216.623 177.473 216.852 177.654 217.1 177.795C218.157 178.398 218.341 178.38 219.237 177.591C220.662 176.337 221.357 174.673 221.788 172.891C222.663 169.275 222.686 165.621 222.137 161.956C221.589 158.293 220.254 154.872 218.831 151.487C216.736 146.502 214.174 141.785 210.686 137.615C209.096 135.715 207.48 133.844 205.706 132.105C202.997 129.448 200.026 127.173 196.616 125.494C194.843 124.621 192.975 123.985 190.984 124.08C186.02 124.317 184.155 126.453 183.83 130.389C183.72 131.719 183.577 133.045 183.639 134.384C183.851 138.967 184.978 143.337 186.864 147.495C188.851 151.877 190.964 156.202 193.013 160.557C193.469 161.527 194.121 162.336 194.943 163.006C197.305 164.936 199.722 166.795 202.24 168.517Z" fill="#FFF0DB"/>
<path d="M76.9266 79.3291C76.6026 80.7361 76.6876 82.0911 76.9476 83.4471C77.8616 88.2101 81.2056 91.3301 84.4636 94.5221C82.0806 89.3971 79.6846 84.2841 76.9266 79.3291Z" fill="#FFF0DB"/>
<path d="M129.223 249.783C133.824 250.601 138.125 249.95 142.271 247.9C143.097 247.491 143.811 246.941 144.389 246.234C145.107 245.355 144.936 244.557 143.97 243.987C143.612 243.776 143.232 243.834 142.857 243.856C141.422 243.94 139.995 243.815 138.582 243.606C132.121 242.65 125.709 241.438 119.394 239.753C116.771 239.053 114.142 238.354 111.626 237.316C111.175 237.13 110.344 237.064 110.481 236.466C110.644 235.755 111.438 236.172 111.961 236.141C112.291 236.121 112.626 236.176 112.958 236.212C115.231 236.461 117.504 236.712 119.776 236.964C124.18 237.452 128.568 238.058 132.937 238.802C135.375 239.217 137.821 239.578 140.264 239.963C139.42 238.659 138.779 237.308 137.249 236.756C130.338 234.264 123.665 231.217 117.095 227.94C115.39 227.09 113.695 226.219 111.997 225.353C111.752 225.228 111.401 225.094 111.556 224.75C111.705 224.419 112.055 224.558 112.32 224.641C113.32 224.955 114.317 225.278 115.312 225.609C121.599 227.701 127.721 230.233 133.897 232.62C134.206 232.74 134.516 233.004 134.984 232.785C134.097 231.543 133.207 230.421 132.461 229.21C131.939 228.363 131.259 227.773 130.442 227.253C127.79 225.565 125.157 223.847 122.521 222.134C119.683 220.291 116.852 218.43 113.69 217.17C110.786 216.013 107.802 215.237 104.633 215.563C103.541 215.675 102.413 215.785 101.517 216.481C97.5396 219.572 96.0986 222.897 97.7286 227.422C97.9546 228.049 98.1966 228.672 98.4756 229.277C100.545 233.753 103.836 237.231 107.615 240.276C113.955 245.388 121.23 248.363 129.223 249.783Z" fill="#FFF0DB"/>
<path d="M43.0478 50.5481C45.6678 50.3451 48.2838 50.4171 50.8938 50.7311C51.3658 50.7881 51.8508 50.8961 52.3148 50.8451C54.4438 50.6101 56.5698 50.3442 58.6918 50.0552C59.5968 49.9322 59.6538 49.7241 59.0448 48.9861C58.7418 48.6191 58.4128 48.2721 58.0788 47.9331C56.4068 46.2401 54.7768 44.5001 53.0388 42.8771C51.4678 41.4101 50.1308 39.7311 48.6098 38.2181C46.7888 36.4061 45.0938 34.4651 43.3738 32.5541C43.0538 32.1991 42.3998 31.7441 42.8538 31.2541C43.2938 30.7791 43.8048 31.3892 44.2098 31.6542C46.4428 33.1172 48.5458 34.7571 50.6428 36.4081C55.1408 39.9491 59.4108 43.7512 63.2198 48.0212C64.5038 49.4602 65.7108 50.5491 67.7448 50.3871C68.2988 50.3431 68.8718 50.5492 69.4358 50.6382C69.8118 50.6972 70.1888 50.7581 70.5668 50.8041C71.1928 50.8801 71.3408 50.5901 71.1308 50.0431C70.8398 49.2871 70.5498 48.5311 70.2548 47.7781C68.8378 44.1661 67.0448 40.7651 64.5738 37.7521C62.4888 35.2111 60.3868 32.6871 57.9658 30.4461C54.7428 27.4621 51.3598 24.6971 47.5618 22.4601C42.9468 19.7431 37.9798 17.9882 32.7108 17.1492C28.9668 16.5532 25.2918 16.7721 21.9448 18.8661C19.8558 20.1731 18.7218 22.0771 18.5568 24.5071C18.4488 26.0861 18.7578 27.6252 19.2908 29.1332C21.0488 34.1082 24.2718 38.0992 27.8398 41.8392C29.5528 43.6352 31.1638 45.5112 32.7648 47.3992C32.9188 47.5802 33.0648 47.7712 33.1918 47.9712C33.5978 48.6122 33.7648 49.2942 33.3768 49.9972C32.9838 50.7092 32.3088 50.9221 31.5498 50.8561C30.9348 50.8021 30.3198 50.7051 29.7158 50.5741C27.7088 50.1401 25.6828 49.8761 23.6308 49.7641C18.1618 49.4641 14.2418 53.0541 12.8768 57.2801C11.8268 60.5311 12.2078 63.6821 13.6088 66.7381C15.9218 71.7841 19.6568 75.4502 24.5788 77.9512C29.4588 80.4302 34.6728 81.6831 40.1028 81.9551C51.0558 82.5031 60.1308 78.5782 67.2038 70.1802C69.2328 67.7712 68.9778 68.7021 67.0538 66.3741C66.5398 65.7521 66.0188 65.6782 65.3058 66.0082C63.9098 66.6552 62.4068 66.9471 60.8898 67.1291C57.5308 67.5311 54.1738 67.9571 50.8068 68.2701C47.1088 68.6131 43.3998 68.9092 39.6828 68.5472C39.0558 68.4862 38.0498 68.6991 37.9338 67.9721C37.7898 67.0671 38.8828 67.0911 39.4898 66.8731C43.7158 65.3591 48.1308 64.5521 52.4758 63.4891C55.2048 62.8211 57.9638 62.2751 60.7068 61.6631C61.0218 61.5931 61.3798 61.5981 61.7468 61.1661C59.5278 59.1191 57.1228 57.4421 54.5648 55.9651C53.1068 55.1231 51.5788 54.5311 49.9218 54.1911C47.4918 53.6931 45.1438 52.8881 42.8308 51.9961C42.3798 51.8221 41.6278 51.7371 41.7268 51.0871C41.8238 50.4311 42.5628 50.5861 43.0478 50.5481Z" fill="#FFF0DB"/>
<path d="M126.691 210.094C126.892 209.772 127.067 209.429 127.216 209.08C128.004 207.232 128.567 205.311 128.967 203.348C129.571 200.388 129.238 197.561 127.603 194.958C127.223 194.353 126.823 193.761 126.429 193.164C125.287 191.433 124.879 191.278 122.899 191.824C120.259 192.551 118.65 191.735 117.83 189.119C117.375 187.668 117.066 186.167 116.748 184.677C116.215 182.181 115.221 179.866 114.003 177.646C113.25 176.273 112.191 175.136 110.922 173.883C110.705 174.749 110.997 175.167 111.145 175.601C112.021 178.172 112.919 180.734 113.813 183.299C116.825 191.948 120.198 200.443 124.593 208.5C124.89 209.044 125.148 209.609 125.471 210.137C125.917 210.863 126.219 210.848 126.691 210.094Z" fill="#D35B30"/>
<path d="M96.6207 108.389C97.2907 109.15 98.0837 109.758 98.9727 110.227C100.621 111.096 102.34 111.796 104.138 112.294C104.645 112.435 105.16 112.539 105.69 112.455C106.499 112.327 106.745 112.012 106.67 111.2C106.652 111.011 106.615 110.822 106.573 110.637C105.682 106.698 105.4 102.609 103.658 98.8779C103.39 98.3049 103.227 97.6439 103.926 97.2319C104.523 96.8799 105.042 97.1959 105.45 97.6349C105.943 98.1659 106.539 98.5549 107.115 98.9769C108.469 99.9689 109.676 101.118 110.664 102.475C113.467 106.326 116.167 110.252 118.496 114.409C119.095 115.479 119.788 115.977 120.967 115.86C121.108 115.846 121.253 115.863 121.396 115.866C124.068 115.931 126.299 116.958 128.047 118.978C129.138 120.237 130.257 121.477 131.145 122.9C131.686 123.767 132.478 124.395 133.291 124.973C134.295 125.687 135.386 125.801 136.535 125.251C137.22 124.923 137.922 124.604 138.649 124.394C140.022 123.998 141.051 124.396 141.889 125.563C142.365 126.226 142.674 126.978 142.953 127.739C143.611 129.535 144.027 131.393 144.342 133.276C144.887 136.527 145.968 139.542 148.193 142.061C148.681 142.583 149.135 143.142 149.662 143.62C151.915 145.664 154.462 146.762 157.517 145.71C160.399 144.717 162.19 142.545 163.471 139.882C164.028 138.725 163.808 137.7 163.06 136.691C160.052 132.636 157.33 128.382 154.526 124.187C150.426 118.052 146.413 111.858 142.118 105.855C141.532 105.036 141.514 105.018 140.657 105.538C138.869 106.624 136.945 107.248 134.842 107.271C131.262 107.311 128.505 105.333 127.42 101.943C127.202 101.263 127.032 100.566 126.802 99.8909C126.557 99.1709 126.319 98.4389 125.982 97.7609C125.459 96.7079 124.924 96.4609 123.779 96.6509C123.216 96.7439 122.663 96.8989 122.107 97.0319C119.879 97.5629 117.851 97.1019 116.016 95.7679C114.815 94.8939 113.755 93.8699 112.91 92.6379C111.725 90.9109 110.581 89.1539 109.353 87.4569C105.145 81.6369 99.6827 77.8109 92.4057 76.9039C90.8997 76.7159 89.4827 76.8799 88.1107 77.5959C86.5207 78.4249 85.2687 79.6659 83.9357 80.8129C83.5097 81.1799 83.4587 81.6019 83.7347 82.0869C83.8997 82.3759 84.0257 82.6869 84.1877 82.9779C87.5527 89.0329 90.2787 95.3709 92.5727 101.899C93.4407 104.367 94.9127 106.448 96.6207 108.389Z" fill="#D35B30"/>
<path d="M145.115 236.509C147.407 235.226 149.816 234.202 152.268 233.278C153.525 232.805 154.836 232.513 156.18 232.523C162.502 232.568 167.664 234.856 171.201 240.31C172.392 242.147 173.623 243.956 175.058 245.626C176.519 247.326 178.334 248.184 180.536 248.312C182.262 248.412 183.96 248.207 185.645 247.845C186.53 247.655 187.413 247.442 188.307 247.314C192.117 246.768 195.131 248.255 197.049 251.601C197.74 252.807 198.238 254.088 198.582 255.437C199.662 259.671 199.905 264.001 200.042 268.337C200.129 271.096 200.213 273.863 199.932 276.618C199.816 277.755 199.771 277.781 200.822 278.175C203.321 279.113 205.837 279.981 208.498 280.39C210.899 280.759 213.286 281.224 215.669 281.695C220.917 282.733 226.195 282.876 231.445 281.913C238.441 280.63 245.086 278.361 250.942 274.169C254.158 271.867 256.883 269.112 258.73 265.563C260.723 261.734 261.288 257.6 261.246 253.367C261.173 246.012 259.82 238.883 257.38 231.942C255.446 226.439 253.124 221.143 249.901 216.248C247.778 213.024 245.505 209.911 243.237 206.794C242.495 205.774 241.617 204.854 240.789 203.875C240.709 203.983 240.658 204.021 240.661 204.053C240.691 204.335 240.733 204.616 240.766 204.898C241.194 208.628 240.568 212.115 238.368 215.233C237.678 216.211 236.913 217.103 235.839 217.709C232.561 219.558 228.487 219.103 225.302 216.496C223.327 214.88 221.816 212.855 220.304 210.831C220.162 210.641 220.061 210.419 219.916 210.232C219.423 209.598 219.226 209.583 218.691 210.132C218.558 210.268 218.458 210.436 218.325 210.571C215.803 213.134 212.87 214.106 209.348 212.955C207.367 212.307 205.626 211.263 204.029 209.953C202.181 208.437 200.563 206.693 199.004 204.887C197.039 202.612 194.956 200.448 192.509 198.683C190.205 197.021 187.614 196.295 184.805 196.851C182.75 197.258 180.737 197.91 178.882 198.909C177.288 199.767 175.851 200.884 174.459 202.042C173.807 202.585 173.827 202.842 174.407 203.448C174.603 203.653 174.841 203.818 175.061 204.001C176.709 205.371 178.361 206.737 180.005 208.113C180.887 208.851 181.657 209.704 182.305 210.647C183.155 211.883 182.698 213.098 181.264 213.557C181.038 213.629 180.802 213.686 180.567 213.707C177.664 213.959 174.767 214.074 171.888 213.435C169.653 212.938 167.446 212.344 165.261 211.665C164.289 211.363 163.978 211.049 163.316 212.331C163.009 212.926 162.551 213.45 161.991 213.81C157.601 216.629 153.226 216.773 149.372 212.635C147.078 210.172 145.703 207.318 145.68 203.899C145.674 203.066 145.345 202.493 144.648 202.001C143.404 201.124 142.204 200.177 141.037 199.199C137.819 196.504 134.888 193.521 132.015 190.458C128.488 186.699 125.602 182.55 123.465 177.874C121.403 173.362 120.323 168.664 121.178 163.698C121.448 162.129 120.953 161.031 119.842 160.045C118.56 158.907 117.291 157.754 116.043 156.579C112.602 153.34 109.974 149.617 109.149 144.84C108.93 143.573 108.713 142.305 108.521 141.033C107.463 134.036 107.381 126.986 107.371 119.931C107.369 118.407 107.297 116.883 107.251 115.359C107.237 114.897 107.166 114.458 106.525 114.609C104.461 115.093 102.575 114.38 100.668 113.765C98.8617 113.182 97.2227 112.281 95.4917 110.969C95.8617 112.401 96.1777 113.541 96.4497 114.691C98.6107 123.826 100.618 132.994 102.511 142.188C103.558 147.274 104.704 152.34 105.87 157.4C106.843 161.626 108.003 165.803 109.3 169.943C109.527 170.669 109.811 171.051 110.669 171.032C111.977 171.003 113.056 171.628 113.896 172.621C116.659 175.884 118.47 179.62 119.372 183.794C119.664 185.144 119.839 186.52 120.168 187.859C120.536 189.356 120.841 189.47 122.266 188.905C124.8 187.901 126.318 188.281 128.113 190.328C131.679 194.395 133.03 199.077 131.961 204.394C131.364 207.366 130.332 210.173 128.326 212.527C127.415 213.597 127.394 213.6 128.14 214.868C130.436 218.768 132.876 222.572 135.511 226.256C137.951 229.667 140.475 233.009 143.213 236.187C144.016 237.114 144.045 237.108 145.115 236.509ZM249.039 233.845C249.166 232.384 249.871 231.192 251.388 230.763C252.867 230.345 254.108 230.849 255.066 232.015C257.035 234.411 257.788 237.233 257.587 240.254C257.408 242.942 254.689 244.122 252.429 242.631C251.947 242.313 251.56 241.899 251.183 241.463C249.441 239.215 248.797 236.635 249.039 233.845ZM216.669 271.289C216.884 271.195 217.123 271.134 217.357 271.109C220.483 270.775 223.154 271.726 225.377 273.927C225.931 274.568 226.31 275.27 226.458 276.09C226.765 277.782 225.821 279.24 224.159 279.641C223.598 279.776 223.03 279.788 222.458 279.744C220.541 279.596 218.722 279.057 216.956 278.328C216.521 278.149 216.11 277.89 215.724 277.616C214.559 276.79 213.865 275.687 214.047 274.219C214.241 272.669 215.353 271.866 216.669 271.289Z" fill="white"/>
<path d="M118.392 252.296C122.724 253.82 127.162 254.887 131.751 255.268C136.26 255.643 140.334 254.382 144.079 251.96C145.197 251.237 146.207 250.358 146.966 249.223C147.829 247.93 147.848 247.942 149.012 249.041C149.081 249.106 149.146 249.177 149.214 249.243C153.512 253.437 158.003 257.418 162.626 261.246C169.654 267.066 177.171 272.181 185.156 276.598C191.691 280.212 198.511 283.156 205.842 284.706C210.925 285.781 216.128 286.108 221.274 286.792C222.591 286.967 223.937 286.983 225.269 286.984C233.597 286.991 241.153 284.183 248.433 280.481C250.118 279.624 251.646 278.438 253.19 277.325C256.369 275.032 258.982 272.239 260.617 268.617C260.95 267.879 261.287 267.137 261.702 266.444C263.682 263.131 264.548 259.481 264.844 255.697C265.402 248.563 264.909 241.521 262.896 234.606C261.055 228.281 259.136 221.997 255.793 216.262C253.029 211.521 249.811 207.095 246.419 202.787C241.472 196.503 235.94 190.829 229.442 186.121C227.165 184.472 224.892 182.821 222.567 181.239C221.767 180.695 221.735 180.539 222.364 179.949C224.622 177.829 225.714 175.148 226.249 172.168C227.221 166.746 226.715 161.434 225.071 156.217C222.124 146.868 217.54 138.435 210.939 131.138C208.598 128.55 206.098 126.145 203.209 124.172C200.397 122.252 197.444 120.628 194.06 119.939C190.29 119.171 186.855 120.056 183.733 122.171C181.404 123.749 180.42 126.156 180.058 128.853C179.351 134.121 180.331 139.196 181.832 144.213C182.931 147.885 184.696 151.271 186.27 154.741C186.414 155.057 186.651 155.351 186.603 155.845C182.424 152.319 178.789 148.413 175.162 144.511C170.573 139.576 166.744 134.058 163.17 128.358C160.412 123.96 157.618 119.584 154.854 115.19C152.192 110.956 149.418 106.796 146.615 102.654C143.597 98.1954 140.391 93.8904 136.845 89.8274C133.107 85.5434 129.07 81.5834 124.729 77.9234C124.359 77.6114 124.051 77.2724 123.825 76.8374C121.758 72.8544 119.32 69.1144 116.694 65.4724C113.949 61.6664 110.605 58.5444 106.749 55.9354C105.323 54.9704 103.779 54.2254 102.077 53.8464C98.6368 53.0814 95.7798 54.1104 93.4258 56.6544C92.4918 57.6644 92.5118 57.6904 91.2778 57.1824C88.1928 55.9114 85.0918 54.6874 81.9148 53.6594C79.9178 53.0134 77.9128 52.4004 75.8658 51.9424C75.0458 51.7594 74.6348 51.3784 74.6198 50.4994C74.6048 49.5924 74.3268 48.7184 74.0868 47.8434C72.7028 42.7954 70.1648 38.3504 66.9428 34.2784C64.9328 31.7384 62.8218 29.2884 60.5198 26.9934C57.8478 24.3304 55.1078 21.7654 52.0038 19.6104C45.9268 15.3904 39.2318 12.8284 31.8338 12.2624C27.8098 11.9544 23.9058 12.5044 20.4258 14.7114C16.5238 17.1864 14.3488 20.6794 14.5628 25.4324C14.6318 26.9624 14.9008 28.4674 15.4108 29.9144C16.8578 34.0184 19.1808 37.5914 22.0768 40.8094C23.5698 42.4694 25.0008 44.1864 26.7838 45.7814C25.1868 45.6934 23.8578 45.5854 22.5258 45.5524C17.9588 45.4394 14.2558 47.2594 11.4848 50.8244C7.96776 55.3494 7.31076 60.4564 9.00476 65.8414C10.6158 70.9614 13.8568 74.9654 18.0478 78.2324C22.0688 81.3664 26.7008 83.1794 31.5808 84.4774C41.3068 87.0654 50.6568 86.2904 59.5668 81.4434C62.6298 79.7774 65.5648 77.9444 67.9588 75.3344C68.9278 74.2774 69.8608 73.2104 70.6708 72.0284C71.1518 71.3264 71.3448 71.3254 71.8388 71.9294C72.5028 72.7404 73.1418 73.5724 73.8048 74.3834C74.1778 74.8394 74.2758 75.2784 73.9248 75.8084C73.1088 77.0394 72.8718 78.4514 72.7458 79.8854C72.2788 85.1554 74.4098 89.4804 77.8298 93.2324C80.4608 96.1184 83.3618 98.7464 86.4498 101.151C87.1538 101.699 87.6418 102.346 87.9428 103.185C89.6698 107.988 91.1638 112.861 92.2988 117.838C93.6658 123.831 95.0438 129.822 96.3028 135.838C97.6598 142.322 99.0618 148.794 100.533 155.252C101.612 159.991 102.609 164.758 104.214 169.354C106.303 175.336 108.538 181.268 110.638 187.246C114.331 197.76 119.098 207.761 124.822 217.313C125.666 218.721 126.51 220.129 127.397 221.608C126.877 221.601 126.656 221.326 126.388 221.143C124.579 219.906 122.783 218.649 120.962 217.43C116.67 214.557 112.064 212.454 106.88 211.834C104.033 211.493 101.254 211.681 98.7198 213.209C96.5708 214.505 95.1588 216.48 93.9108 218.583C92.7858 220.478 92.3128 222.539 92.4248 224.744C92.5828 227.86 93.5568 230.729 95.0858 233.41C96.7228 236.28 98.8048 238.797 101.144 241.145C106.094 246.118 111.752 249.96 118.392 252.296ZM198.103 275.806C197.999 276.816 197.755 276.947 196.797 276.567C193.649 275.318 190.6 273.864 187.642 272.211C179.766 267.808 172.27 262.838 165.279 257.131C160.114 252.915 155.124 248.495 150.37 243.814C149.115 242.578 147.855 241.348 146.653 240.171C145.793 239.211 145.794 238.987 146.926 238.47C149.267 237.402 151.63 236.336 154.203 235.981C160.314 235.138 165.092 237.462 168.713 242.326C169.909 243.933 171.139 245.51 172.469 247.004C174.935 249.774 178.035 251.073 181.748 250.919C183.23 250.857 184.685 250.639 186.131 250.326C187.108 250.115 188.09 249.919 189.079 249.777C190.818 249.527 192.249 250.138 193.44 251.406C194.89 252.95 195.635 254.844 196.179 256.836C197.656 262.252 198.27 267.774 198.169 273.381C198.156 274.189 198.185 275.003 198.103 275.806ZM193.011 160.557C190.962 156.203 188.849 151.877 186.862 147.495C184.976 143.337 183.849 138.967 183.637 134.384C183.575 133.045 183.718 131.718 183.828 130.389C184.153 126.453 186.017 124.317 190.982 124.08C192.973 123.985 194.841 124.621 196.614 125.494C200.024 127.173 202.995 129.448 205.704 132.105C207.478 133.845 209.095 135.715 210.684 137.615C214.172 141.785 216.734 146.502 218.829 151.487C220.252 154.873 221.587 158.294 222.135 161.956C222.684 165.62 222.661 169.274 221.786 172.891C221.355 174.672 220.66 176.336 219.235 177.591C218.339 178.38 218.156 178.398 217.098 177.795C216.85 177.653 216.62 177.472 216.361 177.359C215.557 177.007 215.334 176.369 215.252 175.537C214.43 167.225 213 159.015 210.982 150.91C210.637 149.524 210.214 148.157 209.813 146.785C209.72 146.468 209.616 146.137 209.434 145.868C209.221 145.554 208.924 145.623 208.772 145.946C208.584 146.346 208.665 146.79 208.683 147.216C208.835 150.694 209.175 154.157 209.554 157.614C210.1 162.588 210.732 167.552 211.311 172.523C211.37 173.026 211.568 173.544 211.225 174.244C210.153 173.59 209.183 172.991 208.206 172.405C207.677 172.088 207.445 171.58 207.242 171.035C205.281 165.766 203.325 160.494 201.346 155.232C199.669 150.771 197.918 146.339 195.739 142.092C195.239 141.118 194.688 140.169 194.131 139.226C193.924 138.876 193.692 138.301 193.242 138.467C192.715 138.662 193.046 139.216 193.161 139.586C193.81 141.679 194.48 143.766 195.16 145.85C197.527 153.1 200.208 160.237 202.858 167.385C203.035 167.863 203.359 168.315 203.254 168.885C202.802 169.052 202.526 168.714 202.238 168.517C199.72 166.794 197.303 164.936 194.939 163.007C194.119 162.336 193.467 161.527 193.011 160.557ZM212.717 180.798C219.564 184.869 226.138 189.345 232.132 194.619C233.525 195.844 234.821 197.179 236.162 198.464C236.406 198.698 236.61 198.958 236.712 199.286C237.423 201.56 238.181 203.824 238.234 206.241C238.303 209.339 237.231 212.027 235.27 214.383C234.315 215.531 233.049 215.975 231.583 215.909C229.469 215.813 227.8 214.769 226.237 213.454C224.091 211.648 222.611 209.302 220.963 207.09C220.764 206.823 220.61 206.516 220.381 206.281C219.456 205.333 218.37 205.437 217.627 206.547C217.363 206.941 217.178 207.387 216.932 207.794C215.305 210.493 212.887 211.301 209.949 210.167C207.81 209.341 206.07 207.952 204.5 206.333C203.206 204.998 202.026 203.56 200.75 201.924C199.271 200.217 197.855 198.166 195.922 196.576C192.138 193.466 187.885 192.596 183.195 193.948C181.641 194.396 180.111 194.932 178.615 195.563C177.021 196.236 175.555 197.086 174.243 198.227C173.528 198.849 172.693 199.331 171.945 199.919C171.299 200.426 170.762 200.359 170.182 199.808C168.456 198.169 166.624 196.633 164.991 194.907C162.702 192.487 160.323 190.138 158.296 187.483C157.084 185.895 155.923 184.266 154.803 182.611C154.22 181.75 154.292 181.586 155.263 181.115C158.175 179.701 161.17 179.298 164.246 180.554C166.01 181.275 167.741 182.074 169.501 182.805C171.003 183.429 172.547 183.906 174.192 183.976C177.456 184.115 180.127 181.947 180.642 178.713C180.831 177.528 180.823 176.346 180.561 175.162C180.179 173.437 179.626 171.764 179.102 170.081C178.344 167.643 178.053 165.15 178.307 162.6C178.474 160.931 179.324 159.814 180.842 159.081C181.8 158.619 182.533 158.706 183.306 159.396C184.727 160.664 186.191 161.884 187.625 163.138C195.37 169.908 203.897 175.554 212.717 180.798ZM156.456 205.17C151.574 203.203 147.338 200.237 143.359 196.859C139.097 193.241 135.19 189.265 131.733 184.878C128.424 180.678 125.981 176.02 124.933 170.711C124.471 168.37 124.69 166.041 125.169 163.754C125.587 161.761 125.196 160.134 123.825 158.616C122.639 157.303 121.388 156.074 120.057 154.917C118.907 153.917 117.729 152.942 116.653 151.867C114.425 149.641 113.168 146.885 112.587 143.824C111.534 138.275 111.221 132.658 111.364 127.028C111.486 122.217 111.824 117.412 111.298 112.606C111.278 112.428 111.233 112.226 111.489 112.018C112.483 113.281 113.238 114.694 114.041 116.068C118.35 123.439 122.057 131.118 125.659 138.85C129.802 147.747 133.888 156.674 138.754 165.211C142.388 171.585 146.219 177.838 150.456 183.835C152.298 186.441 154.158 189.034 156.26 191.438C162.186 198.217 168.818 204.19 176.453 209.01C176.879 209.279 177.395 209.466 177.686 210.003C177.271 210.413 176.777 210.261 176.333 210.25C173.499 210.184 170.746 209.579 168.041 208.817C164.144 207.718 160.224 206.689 156.456 205.17ZM160.757 211.041C160.644 211.191 160.515 211.341 160.365 211.451C158.151 213.064 154.781 214.024 151.972 211.594C150.226 210.083 149.053 208.242 148.407 206.049C148.293 205.661 148.101 205.236 148.401 204.837C148.732 204.679 148.971 204.897 149.2 205.035C152.596 207.087 156.267 208.524 159.977 209.875C160.156 209.94 160.337 209.999 160.517 210.06C161.113 210.261 161.072 210.624 160.757 211.041ZM130.609 127.124C132.954 129.045 135.458 129.642 138.297 128.233C139.471 127.651 139.553 127.729 140.139 128.908C140.91 130.457 141.372 132.109 141.677 133.802C142.308 137.303 143.782 140.453 145.943 143.22C147.629 145.378 149.803 147.038 152.46 147.935C156.035 149.142 160.47 147.83 163.113 144.832C164.153 143.652 164.979 142.335 165.784 140.696C170.341 146.338 174.953 151.683 180.075 156.462C179.939 156.927 179.638 157.003 179.392 157.121C177.125 158.211 176.004 160.111 175.624 162.506C175.18 165.305 175.683 168.011 176.529 170.673C176.918 171.899 177.328 173.119 177.688 174.354C178.037 175.553 178.185 176.778 178.017 178.03C177.727 180.188 176.322 181.299 174.143 181.05C173.045 180.925 171.997 180.601 171.005 180.117C169.635 179.449 168.276 178.757 166.909 178.081C164.57 176.925 162.143 176.177 159.485 176.323C157.296 176.443 155.27 177.039 153.383 178.143C152.367 178.737 152.194 178.717 151.587 177.718C149.313 173.972 147.045 170.222 144.806 166.455C139.365 157.305 134.867 147.684 130.532 137.977C127.87 132.017 125.072 126.118 121.899 120.406C121.697 120.043 121.539 119.655 121.262 119.07C123.602 119.413 125.14 120.5 126.337 122.156C127.62 123.931 128.891 125.717 130.609 127.124ZM97.1088 58.6834C98.2578 58.0054 99.4938 57.7684 100.813 57.9834C102.146 58.2014 103.379 58.7024 104.524 59.3974C108.674 61.9184 112.22 65.1074 115.103 69.0264C115.822 70.0034 116.581 70.9514 117.321 71.9124C117.288 71.9474 117.254 71.9824 117.221 72.0174C115.62 70.9294 114.034 69.8184 112.414 68.7584C107.718 65.6844 102.943 62.7444 97.9138 60.2364C97.6588 60.1094 97.4008 59.9854 97.1548 59.8414C96.3668 59.3794 96.3548 59.1284 97.1088 58.6834ZM89.9588 63.2504C100.777 68.4484 110.887 74.7764 120.247 82.2924C123.59 84.9764 126.721 87.8924 129.758 90.9224C132.971 94.1274 135.767 97.6804 138.659 101.156C138.72 101.229 138.781 101.303 138.839 101.378C140.011 102.914 139.906 103.326 138.129 104.072C136.518 104.748 134.887 105.162 133.133 104.582C131.433 104.02 130.236 102.977 129.7 101.242C129.278 99.8774 128.872 98.5074 128.303 97.1934C127.109 94.4364 125.615 93.5044 122.779 94.3494C119.687 95.2714 117.592 94.1744 115.925 91.7304C114.879 90.1974 113.903 88.6174 112.897 87.0574C111.159 84.3634 109.122 81.9194 106.748 79.7644C103.486 76.8044 99.6228 75.0624 95.3328 74.2084C94.7718 74.0964 94.2118 73.9834 93.6458 73.9004C89.6068 73.3084 86.2428 74.6274 83.4778 77.5574C82.1448 78.9704 81.9288 79.0134 80.9698 77.2964C78.0838 72.1324 74.1498 67.7774 70.1898 63.4724C67.3258 60.3594 64.2218 57.4544 60.6688 55.0914C60.3628 54.8884 60.0968 54.6244 59.8128 54.3884C59.8608 54.2794 59.9078 54.1714 59.9558 54.0634C61.3538 54.2654 62.7558 54.4414 64.1478 54.6744C73.1978 56.1924 81.7208 59.2924 89.9588 63.2504ZM42.8298 51.9934C45.1428 52.8844 47.4908 53.6904 49.9208 54.1884C51.5778 54.5284 53.1058 55.1204 54.5638 55.9624C57.1218 57.4394 59.5268 59.1164 61.7458 61.1634C61.3788 61.5954 61.0218 61.5904 60.7058 61.6604C57.9628 62.2724 55.2038 62.8184 52.4748 63.4864C48.1298 64.5504 43.7138 65.3564 39.4888 66.8704C38.8808 67.0884 37.7878 67.0634 37.9328 67.9694C38.0488 68.6964 39.0548 68.4834 39.6818 68.5444C43.3988 68.9064 47.1078 68.6114 50.8058 68.2674C54.1728 67.9544 57.5298 67.5294 60.8888 67.1264C62.4058 66.9444 63.9078 66.6524 65.3048 66.0054C66.0178 65.6754 66.5388 65.7494 67.0528 66.3714C68.9768 68.6994 69.2318 67.7674 67.2028 70.1774C60.1298 78.5754 51.0558 82.5004 40.1018 81.9524C34.6728 81.6804 29.4578 80.4284 24.5778 77.9484C19.6558 75.4474 15.9208 71.7814 13.6078 66.7354C12.2068 63.6794 11.8258 60.5284 12.8758 57.2774C14.2408 53.0504 18.1608 49.4614 23.6298 49.7614C25.6818 49.8734 27.7068 50.1374 29.7148 50.5714C30.3188 50.7014 30.9338 50.7994 31.5488 50.8534C32.3078 50.9204 32.9828 50.7064 33.3758 49.9944C33.7638 49.2914 33.5958 48.6104 33.1908 47.9684C33.0638 47.7674 32.9178 47.5774 32.7638 47.3964C31.1628 45.5074 29.5518 43.6314 27.8388 41.8364C24.2718 38.0964 21.0488 34.1054 19.2898 29.1304C18.7568 27.6224 18.4488 26.0834 18.5558 24.5044C18.7208 22.0744 19.8548 20.1714 21.9438 18.8634C25.2908 16.7684 28.9658 16.5494 32.7098 17.1464C37.9788 17.9854 42.9448 19.7404 47.5608 22.4574C51.3588 24.6934 54.7418 27.4594 57.9648 30.4434C60.3858 32.6844 62.4878 35.2084 64.5728 37.7494C67.0438 40.7624 68.8378 44.1634 70.2538 47.7754C70.5498 48.5294 70.8398 49.2854 71.1298 50.0404C71.3398 50.5874 71.1918 50.8784 70.5658 50.8014C70.1878 50.7554 69.8108 50.6944 69.4348 50.6354C68.8698 50.5474 68.2968 50.3404 67.7438 50.3844C65.7108 50.5464 64.5028 49.4574 63.2188 48.0184C59.4098 43.7484 55.1398 39.9464 50.6418 36.4054C48.5458 34.7554 46.4428 33.1144 44.2088 31.6514C43.8038 31.3864 43.2938 30.7754 42.8528 31.2514C42.3988 31.7414 43.0528 32.1964 43.3728 32.5514C45.0938 34.4624 46.7878 36.4034 48.6088 38.2154C50.1298 39.7284 51.4658 41.4064 53.0378 42.8744C54.7758 44.4974 56.4058 46.2374 58.0778 47.9304C58.4128 48.2694 58.7408 48.6164 59.0438 48.9834C59.6528 49.7224 59.5958 49.9294 58.6908 50.0524C56.5688 50.3414 54.4428 50.6084 52.3138 50.8424C51.8498 50.8934 51.3658 50.7854 50.8928 50.7284C48.2828 50.4144 45.6668 50.3424 43.0468 50.5454C42.5618 50.5834 41.8228 50.4284 41.7238 51.0814C41.6268 51.7344 42.3788 51.8194 42.8298 51.9934ZM84.1868 82.9764C84.0248 82.6854 83.8988 82.3744 83.7338 82.0854C83.4578 81.6004 83.5088 81.1784 83.9348 80.8114C85.2678 79.6644 86.5198 78.4234 88.1098 77.5944C89.4818 76.8784 90.8988 76.7144 92.4048 76.9024C99.6818 77.8094 105.144 81.6354 109.352 87.4554C110.579 89.1524 111.724 90.9094 112.909 92.6364C113.754 93.8684 114.814 94.8924 116.015 95.7664C117.849 97.1014 119.877 97.5614 122.106 97.0304C122.662 96.8974 123.215 96.7424 123.778 96.6494C124.923 96.4594 125.458 96.7064 125.981 97.7594C126.318 98.4384 126.555 99.1694 126.801 99.8894C127.031 100.565 127.202 101.261 127.419 101.941C128.504 105.331 131.261 107.309 134.841 107.269C136.944 107.246 138.868 106.622 140.656 105.536C141.513 105.016 141.53 105.034 142.117 105.853C146.412 111.857 150.425 118.05 154.525 124.185C157.329 128.38 160.051 132.633 163.059 136.689C163.807 137.698 164.027 138.723 163.47 139.88C162.189 142.544 160.398 144.715 157.516 145.708C154.462 146.761 151.915 145.663 149.661 143.618C149.134 143.14 148.679 142.581 148.192 142.059C145.967 139.54 144.886 136.525 144.341 133.274C144.025 131.391 143.609 129.533 142.952 127.737C142.673 126.976 142.364 126.224 141.888 125.561C141.05 124.394 140.021 123.996 138.648 124.392C137.921 124.602 137.219 124.921 136.534 125.249C135.385 125.799 134.294 125.684 133.29 124.971C132.477 124.393 131.685 123.765 131.144 122.898C130.256 121.476 129.137 120.236 128.046 118.976C126.297 116.957 124.067 115.929 121.395 115.864C121.252 115.86 121.108 115.844 120.966 115.858C119.786 115.975 119.094 115.477 118.495 114.407C116.166 110.25 113.466 106.324 110.663 102.473C109.676 101.117 108.468 99.9674 107.114 98.9754C106.538 98.5534 105.942 98.1644 105.449 97.6334C105.041 97.1934 104.522 96.8784 103.925 97.2304C103.225 97.6424 103.389 98.3034 103.657 98.8764C105.399 102.607 105.681 106.696 106.572 110.635C106.614 110.821 106.652 111.009 106.669 111.198C106.745 112.01 106.498 112.325 105.689 112.453C105.159 112.537 104.644 112.433 104.137 112.292C102.339 111.794 100.62 111.094 98.9718 110.225C98.0818 109.756 97.2888 109.148 96.6198 108.387C94.9118 106.446 93.4398 104.366 92.5718 101.895C90.2788 95.3694 87.5528 89.0304 84.1868 82.9764ZM76.9478 83.4484C76.6878 82.0914 76.6028 80.7364 76.9268 79.3304C79.6848 84.2844 82.0808 89.3974 84.4638 94.5234C81.2058 91.3304 77.8618 88.2114 76.9478 83.4484ZM125.472 210.136C125.149 209.609 124.89 209.043 124.594 208.499C120.198 200.442 116.826 191.947 113.814 183.298C112.921 180.733 112.022 178.171 111.146 175.6C110.998 175.165 110.706 174.748 110.923 173.882C112.193 175.135 113.251 176.272 114.004 177.645C115.222 179.865 116.215 182.18 116.749 184.676C117.067 186.166 117.376 187.666 117.831 189.118C118.65 191.734 120.259 192.55 122.9 191.823C124.88 191.277 125.288 191.432 126.43 193.163C126.823 193.759 127.224 194.352 127.604 194.957C129.24 197.56 129.572 200.387 128.968 203.347C128.568 205.31 128.005 207.232 127.217 209.079C127.068 209.428 126.893 209.772 126.692 210.093C126.219 210.847 125.917 210.862 125.472 210.136ZM135.512 226.251C132.877 222.567 130.437 218.763 128.141 214.863C127.394 213.595 127.415 213.592 128.327 212.522C130.333 210.168 131.365 207.361 131.962 204.389C133.031 199.072 131.68 194.39 128.114 190.323C126.319 188.276 124.801 187.896 122.267 188.9C120.842 189.464 120.537 189.351 120.169 187.854C119.84 186.515 119.665 185.138 119.373 183.789C118.471 179.615 116.66 175.879 113.897 172.616C113.056 171.623 111.978 170.998 110.67 171.027C109.812 171.046 109.528 170.665 109.301 169.938C108.004 165.798 106.844 161.621 105.871 157.395C104.706 152.335 103.559 147.268 102.512 142.183C100.619 132.989 98.6118 123.821 96.4508 114.686C96.1788 113.536 95.8628 112.396 95.4928 110.964C97.2248 112.276 98.8628 113.178 100.669 113.76C102.576 114.375 104.461 115.087 106.526 114.604C107.168 114.454 107.238 114.892 107.252 115.354C107.298 116.878 107.37 118.402 107.372 119.926C107.382 126.981 107.464 134.031 108.522 141.028C108.714 142.299 108.932 143.567 109.15 144.835C109.975 149.612 112.603 153.335 116.044 156.574C117.292 157.749 118.561 158.902 119.843 160.04C120.954 161.026 121.449 162.124 121.179 163.693C120.324 168.659 121.404 173.358 123.466 177.869C125.603 182.545 128.489 186.694 132.016 190.453C134.889 193.515 137.821 196.499 141.038 199.194C142.206 200.172 143.405 201.118 144.649 201.996C145.345 202.487 145.675 203.061 145.681 203.894C145.703 207.313 147.079 210.167 149.373 212.63C153.227 216.768 157.602 216.624 161.992 213.805C162.552 213.445 163.01 212.922 163.317 212.326C163.979 211.044 164.29 211.357 165.262 211.66C167.447 212.34 169.654 212.934 171.889 213.43C174.768 214.069 177.664 213.954 180.568 213.702C180.803 213.682 181.039 213.624 181.265 213.552C182.699 213.093 183.155 211.878 182.306 210.642C181.658 209.699 180.887 208.847 180.006 208.108C178.362 206.732 176.71 205.366 175.062 203.996C174.842 203.814 174.604 203.648 174.408 203.443C173.828 202.837 173.808 202.58 174.46 202.037C175.852 200.879 177.288 199.762 178.883 198.904C180.737 197.906 182.751 197.253 184.806 196.846C187.615 196.29 190.206 197.016 192.51 198.678C194.957 200.444 197.041 202.607 199.005 204.882C200.564 206.688 202.182 208.432 204.03 209.948C205.627 211.258 207.368 212.302 209.349 212.95C212.872 214.102 215.804 213.129 218.326 210.566C218.459 210.431 218.559 210.263 218.692 210.127C219.227 209.578 219.424 209.592 219.917 210.227C220.063 210.414 220.163 210.636 220.305 210.826C221.817 212.85 223.328 214.875 225.303 216.491C228.489 219.097 232.562 219.552 235.84 217.704C236.914 217.098 237.68 216.206 238.369 215.228C240.569 212.11 241.195 208.622 240.767 204.893C240.735 204.611 240.692 204.33 240.662 204.048C240.659 204.016 240.71 203.978 240.79 203.87C241.617 204.849 242.496 205.77 243.238 206.789C245.506 209.907 247.779 213.019 249.902 216.243C253.125 221.138 255.447 226.434 257.381 231.937C259.821 238.878 261.174 246.007 261.247 253.362C261.289 257.596 260.724 261.73 258.731 265.558C256.884 269.106 254.158 271.862 250.943 274.164C245.087 278.356 238.441 280.625 231.446 281.908C226.196 282.871 220.918 282.728 215.67 281.69C213.287 281.219 210.899 280.754 208.499 280.385C205.839 279.976 203.323 279.108 200.823 278.17C199.772 277.776 199.817 277.75 199.933 276.613C200.214 273.858 200.13 271.091 200.043 268.332C199.906 263.996 199.663 259.666 198.583 255.432C198.239 254.083 197.741 252.801 197.05 251.596C195.132 248.25 192.118 246.764 188.308 247.309C187.414 247.437 186.531 247.65 185.646 247.84C183.961 248.201 182.263 248.407 180.537 248.307C178.336 248.179 176.52 247.321 175.059 245.621C173.623 243.951 172.392 242.142 171.202 240.305C167.665 234.851 162.503 232.564 156.181 232.518C154.837 232.508 153.525 232.8 152.269 233.273C149.817 234.197 147.408 235.221 145.116 236.504C144.046 237.103 144.017 237.109 143.215 236.178C140.476 233.005 137.952 229.663 135.512 226.251ZM98.4748 229.281C98.1958 228.677 97.9528 228.053 97.7278 227.426C96.0978 222.901 97.5398 219.576 101.516 216.485C102.412 215.789 103.54 215.679 104.632 215.567C107.801 215.241 110.785 216.017 113.689 217.174C116.851 218.434 119.682 220.294 122.52 222.138C125.157 223.85 127.789 225.569 130.441 227.257C131.258 227.777 131.938 228.367 132.46 229.214C133.206 230.425 134.096 231.547 134.983 232.789C134.514 233.008 134.204 232.743 133.896 232.624C127.72 230.237 121.598 227.705 115.311 225.613C114.316 225.282 113.319 224.959 112.319 224.645C112.054 224.562 111.704 224.423 111.555 224.754C111.4 225.098 111.751 225.231 111.996 225.357C113.693 226.223 115.389 227.093 117.094 227.944C123.664 231.221 130.336 234.267 137.248 236.76C138.778 237.312 139.419 238.663 140.263 239.967C137.82 239.582 135.374 239.22 132.936 238.806C128.567 238.063 124.179 237.456 119.775 236.968C117.502 236.716 115.23 236.464 112.957 236.216C112.626 236.18 112.29 236.125 111.96 236.145C111.438 236.176 110.643 235.76 110.48 236.47C110.343 237.067 111.174 237.133 111.625 237.32C114.142 238.358 116.77 239.057 119.393 239.757C125.707 241.441 132.119 242.653 138.581 243.61C139.994 243.819 141.421 243.944 142.856 243.86C143.232 243.838 143.611 243.78 143.969 243.991C144.935 244.561 145.107 245.36 144.388 246.238C143.81 246.945 143.097 247.495 142.27 247.904C138.125 249.954 133.824 250.605 129.222 249.787C121.229 248.367 113.954 245.392 107.613 240.284C103.835 237.235 100.543 233.757 98.4748 229.281Z" fill="black"/>
<path d="M257.587 240.253C257.788 237.232 257.034 234.41 255.066 232.014C254.108 230.848 252.867 230.345 251.388 230.763C249.871 231.192 249.165 232.383 249.039 233.844C248.797 236.634 249.441 239.214 251.183 241.463C251.56 241.899 251.947 242.313 252.429 242.631C254.689 244.122 257.408 242.942 257.587 240.253Z" fill="black"/>
<path d="M215.725 277.615C216.111 277.889 216.522 278.147 216.957 278.327C218.722 279.056 220.542 279.595 222.459 279.743C223.031 279.787 223.6 279.775 224.16 279.64C225.822 279.239 226.766 277.781 226.459 276.089C226.31 275.269 225.932 274.568 225.378 273.926C223.155 271.726 220.483 270.775 217.358 271.108C217.124 271.133 216.885 271.193 216.67 271.288C215.353 271.866 214.242 272.669 214.049 274.218C213.865 275.686 214.56 276.789 215.725 277.615Z" fill="black"/>
<path d="M156.662 199.817C154.193 198.014 151.911 195.983 149.797 193.792C145.406 189.241 141.574 184.288 139.201 178.331C137.403 173.817 135.532 169.331 134.506 164.557C134.306 163.626 133.833 162.903 133.051 162.351C131.323 161.132 129.898 159.573 128.566 157.969C125.198 153.912 122.542 149.419 120.636 144.481C119.779 142.261 118.799 140.087 118.012 137.837C117.918 137.568 117.776 137.277 117.418 137.353C117.159 137.408 117.077 137.666 117.032 137.905C116.874 138.753 116.827 139.61 116.918 140.467C117.069 141.89 117.325 143.292 117.745 144.666C120.112 152.399 124.388 158.96 130.027 164.681C130.419 165.079 130.649 165.502 130.748 166.032C131.596 170.568 133.36 174.786 135.269 178.949C137.225 183.215 139.556 187.253 142.877 190.623C146.026 193.818 149.452 196.698 153.154 199.239C154.57 200.211 156.069 201.049 157.673 201.677C158.23 201.895 158.79 202.191 159.526 202.024C159.427 201.406 159.022 201.303 158.697 201.136C157.975 200.762 157.317 200.296 156.662 199.817Z" fill="black"/>
</svg>
