<svg width="587" height="587" viewBox="0 0 587 587" fill="none" xmlns="http://www.w3.org/2000/svg">
<path d="M582.499 235.517C573.805 193.711 544.931 169.736 503.276 169.736C490.62 169.736 477.481 171.942 464.333 175.527C468.285 170.352 472.146 165.099 475.905 159.75C488.951 141.175 493.951 119.534 489.985 98.8092C485.858 77.2282 472.407 58.0141 452.118 44.7091C440.358 36.9981 426.639 32.9211 412.444 32.9211C386.474 32.9211 360.238 46.5292 343.983 68.4362C339.163 74.9302 334.825 81.7781 330.873 88.8451C330.009 82.3011 329.012 75.7572 327.867 69.2222C321.052 30.4362 288.942 2.2832 251.516 2.2832C246.176 2.2832 240.751 2.84818 235.394 3.96118C200.564 11.2012 184.608 30.9692 177.357 46.2732C166.562 69.0582 168.29 95.8502 175.606 122.555C171.645 119.449 167.637 116.388 163.586 113.382C147.704 101.604 129.93 95.3811 112.187 95.3811C85.4637 95.3811 60.8217 109.581 44.5837 134.347C19.6227 172.412 37.0097 219.204 68.2397 242.453C74.7197 247.274 81.5487 251.617 88.6047 255.569C82.2417 256.423 75.8817 257.393 69.5307 258.506C47.0747 262.435 27.2147 274.972 15.0437 292.903C3.54372 309.842 -0.437311 330.5 3.83669 351.065C12.5297 392.884 41.3367 416.869 82.8717 416.869C95.5877 416.869 108.791 414.622 121.985 410.987C118.012 416.208 114.129 421.51 110.36 426.911C97.3547 445.537 92.3907 467.205 96.3847 487.917C100.532 509.434 113.968 528.593 134.216 541.874C145.974 549.585 159.693 553.662 173.896 553.662C199.868 553.662 226.086 540.072 242.32 518.197C247.118 511.736 251.433 504.926 255.353 497.884C256.268 504.433 257.297 510.973 258.478 517.498C265.582 556.832 296.966 584.304 334.788 584.304C340.138 584.304 345.569 583.74 350.941 582.622C385.771 575.38 401.727 555.609 408.979 540.302C419.718 517.622 418.059 490.968 410.831 464.373C416.015 468.339 421.286 472.218 426.649 475.986C441.033 486.096 457.251 491.441 473.556 491.441C473.561 491.441 473.561 491.441 473.561 491.441C500.564 491.441 525.421 477.148 541.749 452.241C566.851 413.969 549.295 367.144 517.824 343.987C511.372 339.244 504.58 334.975 497.562 331.091C504.148 330.191 510.733 329.165 517.305 327.989C539.575 324 559.277 311.459 571.353 293.577C582.807 276.638 586.759 256.018 582.499 235.517Z" fill="#FBEB4C"/>
<path d="M335.334 586.657H334.787C333.349 586.657 331.924 586.62 330.509 586.542C329.208 586.474 328.216 585.365 328.284 584.069C328.348 582.773 329.456 581.725 330.757 581.845C332.09 581.913 333.432 581.95 334.787 581.95H335.334C336.635 581.95 337.687 583.003 337.687 584.303C337.686 585.604 336.634 586.657 335.334 586.657ZM349.364 585.283C348.252 585.283 347.263 584.492 347.052 583.357C346.818 582.08 347.663 580.852 348.941 580.614L350.476 580.315C351.468 580.113 352.456 579.892 353.426 579.662C354.708 579.346 355.963 580.149 356.257 581.409C356.556 582.678 355.775 583.941 354.511 584.24C353.495 584.478 352.461 584.709 351.413 584.925L349.795 585.246C349.649 585.269 349.506 585.283 349.364 585.283ZM316.694 584.492C316.51 584.492 316.322 584.47 316.138 584.424C314.562 584.042 312.999 583.606 311.459 583.123C310.218 582.732 309.528 581.409 309.915 580.173C310.306 578.932 311.634 578.225 312.865 578.633C314.312 579.084 315.774 579.492 317.249 579.856C318.513 580.164 319.285 581.437 318.978 582.696C318.716 583.771 317.755 584.492 316.694 584.492ZM367.448 580.149C366.506 580.149 365.614 579.58 365.256 578.646C364.782 577.433 365.385 576.073 366.598 575.604C368.055 575.039 369.466 574.446 370.83 573.834C372.02 573.311 373.413 573.839 373.941 575.024C374.469 576.214 373.936 577.602 372.751 578.135C371.313 578.774 369.828 579.395 368.298 579.988C368.017 580.099 367.732 580.149 367.448 580.149ZM299.171 577.764C298.794 577.764 298.412 577.672 298.056 577.484C296.634 576.716 295.235 575.908 293.861 575.052C292.756 574.367 292.418 572.915 293.103 571.813C293.79 570.709 295.235 570.375 296.343 571.054C297.635 571.854 298.951 572.617 300.29 573.338C301.433 573.954 301.859 575.383 301.244 576.527C300.818 577.318 300.007 577.764 299.171 577.764ZM384.111 571.505C383.357 571.505 382.613 571.142 382.163 570.466C381.433 569.391 381.717 567.929 382.797 567.203C384.084 566.334 385.311 565.442 386.492 564.533C387.513 563.747 388.992 563.935 389.792 564.965C390.582 565.994 390.389 567.47 389.36 568.265C388.106 569.23 386.795 570.177 385.426 571.1C385.026 571.376 384.566 571.505 384.111 571.505ZM283.868 566.896C283.298 566.896 282.728 566.689 282.275 566.275C281.085 565.181 279.927 564.055 278.801 562.893C277.898 561.959 277.924 560.471 278.856 559.566C279.796 558.665 281.283 558.688 282.183 559.621C283.245 560.72 284.336 561.781 285.46 562.81C286.416 563.688 286.48 565.177 285.6 566.132C285.136 566.638 284.502 566.896 283.868 566.896ZM398.201 559.101C397.65 559.101 397.098 558.909 396.652 558.518C395.673 557.663 395.573 556.178 396.432 555.2C397.452 554.033 398.412 552.856 399.308 551.679C400.099 550.636 401.583 550.443 402.604 551.234C403.638 552.02 403.839 553.5 403.049 554.529C402.089 555.788 401.064 557.048 399.97 558.298C399.506 558.83 398.854 559.101 398.201 559.101ZM178.059 555.898C176.82 555.898 175.782 554.928 175.713 553.678C175.639 552.378 176.632 551.271 177.93 551.197C179.444 551.11 180.956 550.981 182.466 550.802C183.78 550.636 184.929 551.565 185.086 552.856C185.24 554.143 184.321 555.315 183.032 555.471C181.421 555.668 179.808 555.806 178.193 555.894C178.148 555.898 178.103 555.898 178.059 555.898ZM163.978 555.342C163.872 555.342 163.767 555.337 163.659 555.319C162.052 555.103 160.456 554.833 158.87 554.51C157.597 554.248 156.774 553.007 157.034 551.735C157.291 550.458 158.539 549.644 159.807 549.896C161.291 550.2 162.787 550.453 164.292 550.66C165.579 550.834 166.482 552.02 166.308 553.306C166.147 554.488 165.138 555.342 163.978 555.342ZM271.625 552.654C270.867 552.654 270.125 552.291 269.669 551.615C268.773 550.278 267.911 548.913 267.086 547.521C266.424 546.399 266.794 544.957 267.913 544.294C269.034 543.642 270.475 544.009 271.134 545.121C271.913 546.44 272.729 547.731 273.575 548.986C274.299 550.066 274.014 551.527 272.934 552.254C272.533 552.525 272.075 552.654 271.625 552.654ZM196.556 552.64C195.54 552.64 194.605 551.978 194.299 550.958C193.929 549.712 194.639 548.402 195.885 548.03C197.342 547.598 198.787 547.125 200.221 546.605C201.436 546.16 202.792 546.789 203.236 548.011C203.682 549.234 203.052 550.58 201.83 551.026C200.309 551.583 198.771 552.083 197.227 552.543C197.002 552.608 196.777 552.64 196.556 552.64ZM145.864 550.42C145.559 550.42 145.251 550.36 144.952 550.236C143.463 549.611 141.993 548.935 140.54 548.218C139.377 547.639 138.902 546.223 139.48 545.061C140.057 543.898 141.463 543.42 142.635 543.999C143.995 544.679 145.378 545.309 146.776 545.896C147.973 546.402 148.536 547.781 148.033 548.975C147.654 549.878 146.781 550.42 145.864 550.42ZM213.872 545.356C213.042 545.356 212.241 544.919 211.811 544.143C211.182 543.003 211.595 541.574 212.732 540.944C214.067 540.205 215.384 539.432 216.682 538.624C217.783 537.93 219.238 538.27 219.924 539.373C220.612 540.476 220.276 541.928 219.173 542.613C217.806 543.467 216.416 544.286 215.007 545.062C214.647 545.259 214.256 545.356 213.872 545.356ZM408.587 543.472C408.237 543.472 407.884 543.394 407.548 543.228C406.381 542.659 405.903 541.248 406.478 540.081L406.845 539.305C407.373 538.183 407.87 537.062 408.339 535.927C408.83 534.723 410.214 534.144 411.408 534.649C412.607 535.141 413.182 536.515 412.685 537.719C412.189 538.928 411.665 540.122 411.104 541.308L410.696 542.159C410.288 542.99 409.456 543.472 408.587 543.472ZM129.612 541.022C129.127 541.022 128.637 540.871 128.217 540.563C126.914 539.602 125.644 538.615 124.407 537.599C123.403 536.776 123.254 535.291 124.078 534.289C124.896 533.283 126.376 533.132 127.389 533.958C128.566 534.919 129.772 535.861 131.011 536.775C132.056 537.547 132.279 539.018 131.507 540.066C131.046 540.692 130.334 541.022 129.612 541.022ZM262.974 535.981C262.03 535.981 261.138 535.407 260.777 534.474C260.205 532.98 259.665 531.458 259.167 529.914C258.77 528.679 259.447 527.354 260.686 526.955C261.927 526.551 263.25 527.235 263.648 528.472C264.119 529.933 264.627 531.371 265.171 532.783C265.637 533.996 265.031 535.356 263.817 535.825C263.542 535.93 263.254 535.981 262.974 535.981ZM229.274 534.598C228.617 534.598 227.96 534.322 227.495 533.785C226.645 532.802 226.751 531.317 227.734 530.467C228.885 529.47 230.011 528.441 231.114 527.379C232.047 526.478 233.541 526.501 234.441 527.434C235.342 528.372 235.316 529.861 234.381 530.761C233.218 531.887 232.028 532.972 230.813 534.024C230.371 534.41 229.821 534.598 229.274 534.598ZM115.685 528.403C115.042 528.403 114.401 528.141 113.936 527.627C112.852 526.423 111.811 525.195 110.804 523.95C109.988 522.934 110.147 521.455 111.158 520.641C112.171 519.818 113.653 519.984 114.467 520.99C115.418 522.172 116.409 523.334 117.434 524.474C118.302 525.443 118.224 526.927 117.259 527.801C116.809 528.205 116.246 528.403 115.685 528.403ZM414.668 525.705C414.502 525.705 414.337 525.686 414.171 525.654C412.902 525.383 412.09 524.133 412.36 522.86C412.677 521.376 412.953 519.873 413.187 518.366C413.385 517.079 414.566 516.215 415.871 516.398C417.154 516.596 418.036 517.795 417.839 519.083C417.595 520.682 417.301 522.268 416.965 523.844C416.726 524.947 415.752 525.705 414.668 525.705ZM244.208 519.598L242.09 518.508L240.38 516.863C241.276 515.649 242.108 514.501 242.924 513.342C243.673 512.276 245.139 512.019 246.203 512.768C247.267 513.517 247.522 514.983 246.775 516.044C245.936 517.24 245.081 518.426 244.208 519.598ZM258.114 517.837C256.993 517.837 255.998 517.033 255.798 515.889L255.003 511.229C254.79 509.947 255.656 508.734 256.938 508.523C258.245 508.293 259.434 509.179 259.645 510.458L260.436 515.081C260.659 516.358 259.804 517.581 258.524 517.802C258.385 517.828 258.247 517.837 258.114 517.837ZM104.757 513.146C103.932 513.146 103.132 512.713 102.701 511.942C101.91 510.521 101.166 509.088 100.467 507.635C99.9044 506.463 100.398 505.057 101.57 504.496C102.747 503.913 104.148 504.427 104.709 505.595C105.366 506.964 106.065 508.316 106.81 509.644C107.444 510.779 107.038 512.212 105.902 512.847C105.538 513.049 105.145 513.146 104.757 513.146ZM416.638 507.02C416.629 507.02 416.62 507.02 416.607 507.02C415.31 507.001 414.267 505.935 414.286 504.634L414.291 503.601C414.291 502.419 414.272 501.234 414.23 500.038C414.189 498.742 415.205 497.653 416.505 497.607C417.709 497.566 418.89 498.582 418.936 499.881C418.978 501.122 418.996 502.363 418.996 503.6L418.992 504.698C418.973 505.986 417.925 507.02 416.638 507.02ZM252.502 505.191C252.093 505.191 251.68 505.086 251.303 504.86C250.186 504.198 249.819 502.756 250.483 501.638C251.271 500.305 252.048 498.963 252.806 497.613C253.44 496.482 254.871 496.068 256.011 496.717C257.144 497.352 257.546 498.785 256.909 499.92C256.133 501.299 255.338 502.678 254.526 504.037C254.088 504.782 253.307 505.191 252.502 505.191ZM97.6544 495.765C96.6204 495.765 95.6714 495.076 95.3864 494.028C94.9614 492.47 94.5864 490.898 94.2604 489.308C93.9984 488.036 94.8184 486.794 96.0894 486.533C97.3824 486.234 98.6074 487.089 98.8694 488.362C99.1774 489.851 99.5284 491.331 99.9264 492.797C100.268 494.047 99.5284 495.343 98.2744 495.683C98.0684 495.738 97.8594 495.765 97.6544 495.765ZM475.871 493.757C474.603 493.757 473.556 492.75 473.518 491.473C473.482 490.172 474.501 489.087 475.802 489.051C477.323 489.009 478.839 488.913 480.347 488.771C481.537 488.693 482.787 489.598 482.911 490.894C483.03 492.185 482.084 493.333 480.788 493.458C479.18 493.609 477.561 493.706 475.939 493.757C475.918 493.757 475.894 493.757 475.871 493.757ZM461.804 492.869C461.68 492.869 461.556 492.86 461.432 492.842C459.837 492.589 458.247 492.29 456.661 491.942C455.392 491.662 454.593 490.402 454.873 489.133C455.153 487.869 456.367 487.066 457.682 487.346C459.166 487.677 460.664 487.957 462.167 488.192C463.448 488.394 464.326 489.598 464.124 490.884C463.941 492.042 462.939 492.869 461.804 492.869ZM494.415 490.862C493.39 490.862 492.448 490.191 492.153 489.157C491.795 487.907 492.516 486.606 493.766 486.248C495.223 485.83 496.666 485.365 498.095 484.852C499.326 484.428 500.664 485.049 501.11 486.267C501.551 487.494 500.918 488.84 499.695 489.282C498.165 489.834 496.621 490.325 495.062 490.771C494.846 490.833 494.626 490.862 494.415 490.862ZM415.334 488.26C414.181 488.26 413.174 487.41 413.009 486.234C412.797 484.717 412.559 483.192 412.292 481.666C412.066 480.384 412.921 479.166 414.203 478.945C415.449 478.688 416.703 479.57 416.924 480.857C417.199 482.438 417.448 484.009 417.668 485.582C417.848 486.868 416.951 488.059 415.665 488.238C415.554 488.251 415.444 488.26 415.334 488.26ZM443.725 487.759C443.426 487.759 443.122 487.704 442.829 487.58C441.34 486.969 439.865 486.311 438.408 485.613C437.236 485.051 436.74 483.645 437.301 482.473C437.862 481.292 439.281 480.81 440.44 481.366C441.824 482.028 443.215 482.648 444.622 483.232C445.827 483.728 446.396 485.102 445.9 486.301C445.527 487.212 444.649 487.759 443.725 487.759ZM511.689 483.513C510.876 483.513 510.085 483.09 509.649 482.336C509.001 481.21 509.386 479.773 510.512 479.119C511.831 478.361 513.127 477.566 514.405 476.725C515.476 476.012 516.942 476.311 517.664 477.4C518.376 478.485 518.077 479.946 516.988 480.659C515.636 481.546 514.259 482.395 512.866 483.2C512.494 483.411 512.089 483.513 511.689 483.513ZM427.232 478.743C426.781 478.743 426.326 478.615 425.926 478.348L425.279 477.902C424.199 477.148 423.105 476.367 422.015 475.586C420.958 474.828 420.719 473.357 421.478 472.301C422.236 471.239 423.702 471.009 424.763 471.763C425.834 472.535 426.909 473.298 427.994 474.056L428.536 474.433C429.616 475.155 429.91 476.616 429.188 477.696C428.734 478.375 427.99 478.743 427.232 478.743ZM95.0464 477.171C93.7624 477.171 92.7124 476.137 92.6934 474.851L92.6864 473.802C92.6864 472.538 92.7164 471.266 92.7784 469.997C92.8424 468.696 93.9914 467.672 95.2434 467.764C96.5414 467.824 97.5414 468.927 97.4794 470.227C97.4214 471.422 97.3924 472.613 97.3924 473.802L97.3994 474.786C97.4184 476.086 96.3794 477.152 95.0784 477.171C95.0674 477.171 95.0564 477.171 95.0464 477.171ZM526.799 472.36C526.165 472.36 525.535 472.107 525.071 471.601C524.188 470.65 524.248 469.162 525.204 468.279C526.316 467.25 527.41 466.188 528.476 465.086C529.376 464.152 530.874 464.13 531.803 465.03C532.736 465.935 532.763 467.425 531.858 468.357C530.728 469.524 529.57 470.65 528.393 471.735C527.944 472.153 527.37 472.36 526.799 472.36ZM411.643 469.814C410.591 469.814 409.635 469.106 409.364 468.04C409.107 467.024 408.836 466.009 408.56 464.993C408.292 464.014 408.679 462.98 409.52 462.42C410.357 461.855 411.468 461.897 412.263 462.508L413.449 463.417C414.488 464.203 414.69 465.678 413.904 466.712C413.9 466.722 413.89 466.731 413.886 466.735C413.9 466.786 413.913 466.832 413.922 466.882C414.244 468.141 413.482 469.418 412.222 469.739C412.029 469.79 411.832 469.814 411.643 469.814ZM97.1124 458.508C96.9334 458.508 96.7544 458.489 96.5724 458.445C95.3064 458.15 94.5224 456.882 94.8194 455.618C95.1894 454.047 95.6054 452.484 96.0694 450.93C96.4424 449.685 97.7374 448.995 98.9974 449.35C100.242 449.722 100.95 451.037 100.578 452.282C100.141 453.743 99.7484 455.214 99.4024 456.693C99.1464 457.778 98.1784 458.508 97.1124 458.508ZM539.226 458.265C538.747 458.265 538.265 458.118 537.847 457.82C536.794 457.056 536.556 455.586 537.319 454.534C538.16 453.371 538.982 452.177 539.777 450.954L541.886 452.034L543.844 453.339C542.879 454.815 542.02 456.065 541.133 457.291C540.673 457.925 539.952 458.265 539.226 458.265ZM548.44 441.905C548.141 441.905 547.842 441.85 547.553 441.73C546.349 441.239 545.77 439.869 546.261 438.665C546.84 437.245 547.365 435.825 547.837 434.396C548.256 433.168 549.589 432.498 550.816 432.907C552.047 433.32 552.714 434.653 552.305 435.885C551.794 437.406 551.234 438.928 550.618 440.44C550.246 441.353 549.369 441.905 548.44 441.905ZM103.493 440.843C103.144 440.843 102.79 440.765 102.454 440.6C101.289 440.025 100.808 438.615 101.386 437.447C102.096 436.009 102.849 434.585 103.645 433.174C104.279 432.039 105.715 431.634 106.85 432.278C107.981 432.917 108.383 434.351 107.744 435.481C106.99 436.819 106.278 438.169 105.605 439.535C105.196 440.361 104.362 440.843 103.493 440.843ZM113.45 424.882C112.976 424.882 112.496 424.74 112.083 424.442C111.026 423.683 110.782 422.217 111.541 421.161C112.458 419.879 113.381 418.601 114.312 417.328C115.082 416.285 116.557 416.055 117.6 416.822C118.648 417.59 118.875 419.065 118.108 420.113C117.187 421.367 116.272 422.635 115.365 423.899C114.904 424.542 114.183 424.882 113.45 424.882ZM553.169 423.739C553.072 423.739 552.977 423.734 552.875 423.72C551.588 423.559 550.669 422.387 550.83 421.096C551.014 419.588 551.147 418.076 551.234 416.565C551.308 415.273 552.328 414.216 553.715 414.35C555.011 414.423 556.004 415.531 555.931 416.831C555.843 418.444 555.701 420.057 555.498 421.675C555.352 422.866 554.336 423.739 553.169 423.739ZM80.4374 419.194C80.4184 419.194 80.4004 419.194 80.3824 419.194C78.7604 419.157 77.1564 419.079 75.5754 418.973C74.2794 418.885 73.3004 417.759 73.3874 416.463C73.4764 415.167 74.5724 414.202 75.8964 414.275C77.4084 414.381 78.9384 414.45 80.4924 414.487C81.7904 414.519 82.8204 415.594 82.7904 416.895C82.7604 418.178 81.7134 419.194 80.4374 419.194ZM94.5294 418.628C93.3324 418.628 92.3104 417.718 92.1904 416.505C92.0644 415.209 93.0104 414.06 94.3044 413.931C95.8274 413.785 97.3564 413.605 98.8904 413.398C100.172 413.16 101.36 414.125 101.537 415.412C101.712 416.703 100.808 417.884 99.5194 418.058C97.9294 418.274 96.3414 418.462 94.7614 418.619C94.6844 418.623 94.6064 418.628 94.5294 418.628ZM61.7884 416.942C61.6144 416.942 61.4364 416.923 61.2604 416.882C59.6724 416.519 58.1144 416.11 56.5794 415.668C55.3314 415.305 54.6124 414 54.9734 412.755C55.3334 411.509 56.6414 410.783 57.8894 411.147C59.3394 411.57 60.8124 411.951 62.3124 412.295C63.5784 412.585 64.3694 413.849 64.0794 415.112C63.8294 416.206 62.8614 416.942 61.7884 416.942ZM113.089 415.568C112.013 415.568 111.044 414.828 110.796 413.734C110.509 412.465 111.304 411.207 112.572 410.921C114.077 410.581 115.582 410.223 117.092 409.841C118.354 409.52 119.634 410.287 119.95 411.546C120.267 412.805 119.505 414.083 118.245 414.4C116.699 414.791 115.152 415.159 113.61 415.507C113.436 415.549 113.261 415.568 113.089 415.568ZM44.1184 410.604C43.7604 410.604 43.3974 410.522 43.0564 410.351C41.6044 409.612 40.1844 408.835 38.7964 408.007C37.6794 407.341 37.3144 405.898 37.9784 404.781C38.6444 403.664 40.0854 403.292 41.2044 403.963C42.5004 404.735 43.8284 405.466 45.1844 406.151C46.3444 406.74 46.8064 408.155 46.2184 409.318C45.8054 410.135 44.9784 410.604 44.1184 410.604ZM553.031 404.965C551.873 404.965 550.862 404.106 550.701 402.92C550.504 401.413 550.26 399.91 549.966 398.421C549.713 397.148 550.545 395.907 551.819 395.659C553.064 395.392 554.328 396.233 554.581 397.511C554.894 399.101 555.155 400.696 555.372 402.304C555.542 403.591 554.636 404.773 553.345 404.947C553.243 404.96 553.136 404.965 553.031 404.965ZM28.6864 399.96C28.1194 399.96 27.5494 399.758 27.0964 399.34C25.9014 398.246 24.7404 397.116 23.6174 395.944C22.7194 395.006 22.7484 393.517 23.6864 392.621C24.6264 391.716 26.1174 391.753 27.0134 392.69C28.0684 393.788 29.1554 394.845 30.2764 395.875C31.2344 396.753 31.2984 398.241 30.4214 399.197C29.9574 399.703 29.3234 399.96 28.6864 399.96ZM548.408 386.762C547.457 386.762 546.565 386.183 546.207 385.245C545.665 383.816 545.09 382.4 544.475 381.004C543.947 379.814 544.489 378.426 545.674 377.901C546.869 377.373 548.252 377.911 548.776 379.1C549.429 380.58 550.041 382.069 550.61 383.572C551.07 384.79 550.459 386.146 549.245 386.61C548.968 386.712 548.683 386.762 548.408 386.762ZM16.5864 385.6C15.8144 385.6 15.0604 385.223 14.6104 384.525C13.7394 383.182 12.9014 381.799 12.0994 380.388C11.4584 379.257 11.8554 377.82 12.9864 377.181C14.1104 376.523 15.5514 376.932 16.1944 378.068C16.9504 379.4 17.7384 380.701 18.5594 381.969C19.2664 383.058 18.9544 384.515 17.8654 385.223C17.4684 385.476 17.0254 385.6 16.5864 385.6ZM539.933 369.994C539.162 369.994 538.408 369.612 537.957 368.914C537.125 367.632 536.266 366.367 535.37 365.122C534.611 364.065 534.85 362.6 535.907 361.836C536.95 361.078 538.434 361.317 539.193 362.374C540.135 363.684 541.041 365.012 541.909 366.367C542.617 367.457 542.3 368.914 541.206 369.617C540.816 369.873 540.371 369.994 539.933 369.994ZM8.2244 368.788C7.2714 368.788 6.3724 368.205 6.0214 367.259C5.4654 365.77 4.94144 364.248 4.44944 362.699C4.05644 361.459 4.7414 360.139 5.9794 359.744C7.2254 359.353 8.53942 360.038 8.93442 361.274C9.40342 362.75 9.89944 364.197 10.4284 365.613C10.8834 366.831 10.2644 368.186 9.0474 368.641C8.7764 368.744 8.4984 368.788 8.2244 368.788ZM528.187 355.324C527.581 355.324 526.969 355.09 526.51 354.621C525.439 353.532 524.34 352.471 523.21 351.445C522.245 350.572 522.176 349.084 523.049 348.123C523.922 347.158 525.416 347.094 526.371 347.963C527.566 349.052 528.729 350.168 529.864 351.322C530.774 352.25 530.764 353.739 529.837 354.648C529.377 355.099 528.785 355.324 528.187 355.324ZM3.3104 350.65C2.1844 350.65 1.18942 349.841 0.994418 348.697C0.718418 347.098 0.493411 345.499 0.312411 343.9C0.167411 342.608 1.09844 341.445 2.38944 341.298C3.67644 341.165 4.84539 342.084 4.99039 343.375C5.15739 344.882 5.37338 346.39 5.63138 347.897C5.85138 349.178 4.99242 350.397 3.71042 350.618C3.57642 350.641 3.4404 350.65 3.3104 350.65ZM513.674 343.384C513.21 343.384 512.745 343.251 512.337 342.966C511.064 342.088 509.776 341.229 508.481 340.384C507.392 339.676 507.085 338.219 507.793 337.13C508.505 336.04 509.966 335.741 511.046 336.441C512.379 337.304 513.702 338.192 515.012 339.097C516.083 339.832 516.35 341.298 515.61 342.368C515.154 343.031 514.419 343.384 513.674 343.384ZM497.879 333.421L497.589 331.279L497.585 331.274L496.478 333.177C495.595 332.685 495.094 331.664 495.283 330.667C495.471 329.675 496.244 328.894 497.246 328.76L501.777 328.121C503.041 327.951 504.249 328.829 504.437 330.12C504.621 331.407 503.725 332.598 502.438 332.781L497.879 333.421ZM2.3544 331.905C2.2964 331.905 2.24142 331.905 2.18442 331.9C0.888421 331.804 -0.088619 330.678 0.00638099 329.382C0.121381 327.769 0.284385 326.16 0.498385 324.556C0.668385 323.27 1.84941 322.373 3.14041 322.535C4.42941 322.71 5.33439 323.89 5.16239 325.181C4.96239 326.684 4.8084 328.201 4.6984 329.722C4.6104 330.958 3.5764 331.905 2.3544 331.905ZM516.045 330.568C514.929 330.568 513.932 329.763 513.734 328.624C513.509 327.342 514.364 326.124 515.641 325.898L516.872 325.678C517.984 325.476 519.078 325.255 520.167 325.021C521.454 324.741 522.69 325.544 522.966 326.818C523.242 328.086 522.438 329.34 521.169 329.617C520.025 329.869 518.876 330.099 517.723 330.306L516.459 330.531C516.322 330.558 516.183 330.568 516.045 330.568ZM534.143 325.522C533.21 325.522 532.328 324.96 531.96 324.042C531.478 322.834 532.065 321.464 533.27 320.986C534.69 320.416 536.087 319.809 537.47 319.166C538.647 318.624 540.043 319.125 540.595 320.307C541.147 321.483 540.636 322.885 539.455 323.432C537.998 324.112 536.518 324.755 535.016 325.352C534.731 325.466 534.433 325.522 534.143 325.522ZM550.711 316.652C549.966 316.652 549.231 316.298 548.775 315.636C548.036 314.566 548.302 313.1 549.373 312.365C550.628 311.496 551.855 310.595 553.063 309.658C554.079 308.853 555.558 309.038 556.363 310.072C557.163 311.096 556.978 312.576 555.949 313.371C554.677 314.364 553.376 315.32 552.048 316.234C551.638 316.519 551.174 316.652 550.711 316.652ZM6.01242 313.491C5.76642 313.491 5.51543 313.454 5.26743 313.371C4.03543 312.958 3.36943 311.625 3.78043 310.393C4.29043 308.858 4.85344 307.341 5.46244 305.838C5.94944 304.634 7.32544 304.041 8.52744 304.542C9.73144 305.029 10.3104 306.399 9.8234 307.603C9.2514 309.014 8.7244 310.439 8.2424 311.882C7.9144 312.866 6.99842 313.491 6.01242 313.491ZM564.833 304.272C564.272 304.272 563.712 304.074 563.262 303.669C562.296 302.801 562.213 301.312 563.082 300.347C564.098 299.212 565.086 298.049 566.037 296.859C566.85 295.838 568.335 295.682 569.341 296.487C570.357 297.296 570.528 298.775 569.713 299.791C568.707 301.056 567.664 302.291 566.584 303.491C566.119 304.009 565.476 304.272 564.833 304.272ZM14.1644 296.578C13.7274 296.578 13.2874 296.459 12.8914 296.201C11.8004 295.498 11.4854 294.041 12.1884 292.952L13.0964 291.578C13.7004 290.691 14.3214 289.818 14.9554 288.959C15.7274 287.915 17.1984 287.695 18.2484 288.462C19.2914 289.234 19.5144 290.71 18.7424 291.753C18.1404 292.566 17.5564 293.394 16.9874 294.226L16.1464 295.498C15.6944 296.197 14.9364 296.578 14.1644 296.578ZM575.582 288.876C575.21 288.876 574.833 288.789 574.483 288.605C573.335 287.999 572.893 286.574 573.5 285.425C574.213 284.078 574.879 282.713 575.499 281.33C576.032 280.144 577.42 279.606 578.605 280.144C579.791 280.672 580.324 282.065 579.791 283.25C579.135 284.726 578.422 286.182 577.664 287.62C577.241 288.421 576.422 288.876 575.582 288.876ZM26.2394 282.199C25.6094 282.199 24.9824 281.947 24.5204 281.45C23.6334 280.504 23.6834 279.014 24.6324 278.128C25.8134 277.025 27.0244 275.954 28.2704 274.925C29.2674 274.093 30.7544 274.231 31.5814 275.233C32.4114 276.235 32.2724 277.719 31.2714 278.546C30.0994 279.521 28.9574 280.526 27.8454 281.566C27.3934 281.988 26.8164 282.199 26.2394 282.199ZM582.168 271.298C581.993 271.298 581.809 271.279 581.63 271.234C580.366 270.94 579.58 269.671 579.879 268.408C580.224 266.929 580.527 265.434 580.784 263.931C581.005 262.65 582.209 261.794 583.505 262.01C584.787 262.231 585.647 263.448 585.426 264.731C585.151 266.326 584.828 267.912 584.456 269.483C584.203 270.568 583.238 271.298 582.168 271.298ZM41.3564 271.04C40.5434 271.04 39.7504 270.618 39.3164 269.864C38.6664 268.738 39.0544 267.3 40.1804 266.647C41.5734 265.847 42.9934 265.08 44.4354 264.353C45.5914 263.765 47.0094 264.229 47.5954 265.397C48.1814 266.555 47.7154 267.97 46.5544 268.554C45.1894 269.242 43.8474 269.964 42.5294 270.727C42.1584 270.94 41.7544 271.04 41.3564 271.04ZM58.5694 263.513C57.5674 263.513 56.6414 262.869 56.3244 261.868C55.9354 260.627 56.6224 259.304 57.8644 258.917C59.3964 258.435 60.9504 257.993 62.5194 257.599C63.7764 257.259 65.0564 258.036 65.3774 259.299C65.6944 260.563 64.9314 261.84 63.6724 262.157C62.1904 262.534 60.7244 262.947 59.2744 263.402C59.0404 263.477 58.8014 263.513 58.5694 263.513ZM76.9614 259.617C75.8214 259.617 74.8224 258.79 74.6384 257.627C74.4384 256.345 75.3134 255.141 76.5984 254.939L81.2714 254.227C81.3954 254.208 81.5514 254.245 81.6324 254.199C81.5154 254.153 81.3984 254.094 81.2854 254.029C79.9274 253.207 78.5754 252.37 77.2364 251.51C76.1424 250.812 75.8234 249.355 76.5244 248.261C77.2204 247.163 78.6724 246.841 79.7734 247.549C81.0764 248.381 82.3904 249.198 83.7164 249.994C84.8284 250.665 85.1864 252.112 84.5154 253.224C84.0694 253.959 83.2884 254.184 82.4844 254.364C83.2384 254.663 83.8154 255.347 83.9434 256.207C84.1344 257.494 83.2454 258.688 81.9604 258.877L77.3284 259.589C77.2044 259.607 77.0834 259.617 76.9614 259.617ZM584.162 252.631C582.88 252.631 581.832 251.606 581.808 250.319C581.781 248.802 581.712 247.286 581.592 245.759C581.487 244.463 582.456 243.333 583.752 243.232C584.929 243.164 586.179 244.096 586.279 245.392C586.408 247.009 586.486 248.627 586.513 250.236C586.536 251.537 585.502 252.607 584.201 252.631C584.189 252.631 584.175 252.631 584.162 252.631ZM66.9244 243.807C66.4214 243.807 65.9134 243.647 65.4834 243.311C64.2124 242.328 62.9674 241.303 61.7474 240.246C60.7664 239.396 60.6604 237.907 61.5104 236.929C62.3644 235.946 63.8494 235.84 64.8304 236.69C65.9864 237.692 67.1674 238.662 68.3694 239.599C69.3964 240.394 69.5824 241.873 68.7854 242.899C68.3214 243.494 67.6274 243.807 66.9244 243.807ZM582.494 237.87C581.404 237.87 580.426 237.106 580.196 235.995C579.879 234.474 579.539 232.979 579.166 231.509C578.845 230.25 579.607 228.968 580.867 228.652C582.139 228.321 583.403 229.092 583.725 230.352C584.116 231.886 584.474 233.454 584.8 235.04C585.067 236.312 584.248 237.559 582.976 237.82C582.815 237.856 582.654 237.87 582.494 237.87ZM53.3994 230.77C52.7264 230.77 52.0604 230.485 51.5954 229.929C50.5614 228.697 49.5574 227.438 48.5874 226.152C47.8034 225.118 48.0104 223.642 49.0464 222.856C50.0834 222.075 51.5584 222.277 52.3414 223.321C53.2654 224.543 54.2184 225.738 55.1974 226.905C56.0334 227.902 55.9034 229.383 54.9084 230.218C54.4674 230.59 53.9324 230.77 53.3994 230.77ZM577.085 219.873C576.156 219.873 575.278 219.321 574.906 218.407C574.322 216.977 573.712 215.576 573.068 214.207C572.516 213.03 573.027 211.629 574.203 211.077C575.371 210.53 576.781 211.036 577.333 212.212C578.004 213.655 578.652 215.131 579.263 216.634C579.755 217.837 579.176 219.207 577.972 219.698C577.681 219.819 577.383 219.873 577.085 219.873ZM42.8454 215.214C42.0064 215.214 41.1954 214.763 40.7704 213.978C40.0094 212.562 39.2814 211.119 38.5964 209.663C38.0424 208.486 38.5454 207.085 39.7224 206.533C40.8964 205.977 42.2984 206.487 42.8514 207.659C43.5044 209.043 44.1914 210.402 44.9144 211.744C45.5304 212.889 45.1004 214.318 43.9564 214.933C43.6044 215.121 43.2224 215.214 42.8454 215.214ZM568.155 203.362C567.416 203.362 566.684 203.012 566.23 202.36C565.352 201.11 564.437 199.892 563.496 198.715C562.686 197.699 562.848 196.22 563.863 195.406C564.884 194.602 566.363 194.762 567.172 195.774C568.179 197.033 569.149 198.324 570.081 199.657C570.83 200.723 570.568 202.189 569.507 202.933C569.092 203.224 568.624 203.362 568.155 203.362ZM35.7524 197.82C34.7274 197.82 33.7854 197.144 33.4894 196.11C33.0484 194.561 32.6484 192.994 32.2964 191.422C32.0114 190.153 32.8114 188.895 34.0774 188.609C35.3664 188.338 36.6074 189.129 36.8884 190.392C37.2214 191.881 37.5984 193.356 38.0164 194.823C38.3724 196.073 37.6484 197.373 36.3984 197.727C36.1824 197.792 35.9634 197.82 35.7524 197.82ZM555.503 189.515C554.97 189.515 554.433 189.336 553.991 188.964C552.828 187.989 551.634 187.056 550.411 186.16C549.363 185.388 549.138 183.917 549.905 182.87C550.686 181.817 552.162 181.605 553.196 182.364C554.501 183.324 555.778 184.321 557.014 185.36C558.011 186.196 558.14 187.676 557.304 188.673C556.84 189.23 556.174 189.515 555.503 189.515ZM539.639 179.501C539.308 179.501 538.973 179.433 538.656 179.285C537.287 178.655 535.889 178.062 534.465 177.515C533.252 177.051 532.646 175.691 533.11 174.477C533.575 173.264 534.949 172.663 536.148 173.122C537.673 173.706 539.163 174.336 540.624 175.011C541.806 175.554 542.32 176.955 541.778 178.132C541.381 178.995 540.527 179.501 539.639 179.501ZM32.7404 179.286C31.4834 179.286 30.4404 178.293 30.3914 177.025C30.3504 175.996 30.3294 174.97 30.3294 173.936L30.3504 172.171C30.3824 170.87 31.3454 169.851 32.7604 169.873C34.0584 169.905 35.0854 170.985 35.0554 172.281L35.0344 173.935C35.0344 174.905 35.0554 175.874 35.0914 176.839C35.1424 178.14 34.1304 179.234 32.8324 179.284C32.8024 179.286 32.7724 179.286 32.7404 179.286ZM464.332 177.879C463.564 177.879 462.829 177.502 462.384 176.845C461.819 176.004 461.851 174.902 462.462 174.097L464.323 171.648C465.108 170.605 466.589 170.412 467.618 171.183C468.634 171.951 468.854 173.375 468.133 174.41C468.142 174.442 468.152 174.474 468.16 174.507C468.491 175.762 467.746 177.048 466.487 177.384L464.962 177.793C464.75 177.852 464.539 177.879 464.332 177.879ZM479.653 174.377C478.546 174.377 477.558 173.587 477.346 172.456C477.107 171.179 477.949 169.951 479.226 169.712C480.802 169.418 482.373 169.156 483.946 168.917C485.205 168.733 486.432 169.606 486.625 170.889C486.823 172.176 485.936 173.375 484.653 173.569C483.136 173.798 481.611 174.051 480.09 174.337C479.943 174.364 479.8 174.377 479.653 174.377ZM521.762 173.803C521.611 173.803 521.459 173.789 521.303 173.757C519.824 173.467 518.324 173.219 516.794 173.003C515.508 172.823 514.611 171.634 514.791 170.347C514.975 169.06 516.192 168.201 517.447 168.343C519.059 168.569 520.65 168.835 522.213 169.143C523.485 169.391 524.317 170.627 524.065 171.905C523.844 173.027 522.861 173.803 521.762 173.803ZM498.339 172.199C497.084 172.199 496.045 171.212 495.985 169.947C495.93 168.652 496.936 167.553 498.237 167.494C499.845 167.425 501.445 167.388 503.035 167.384C503.04 167.384 503.044 167.384 503.044 167.384C504.34 167.384 505.393 168.432 505.398 169.728C505.402 171.028 504.35 172.085 503.054 172.09C501.519 172.094 499.984 172.131 498.44 172.199C498.408 172.199 498.371 172.199 498.339 172.199ZM474.547 164.028C474.073 164.028 473.596 163.886 473.183 163.591C472.125 162.837 471.877 161.367 472.631 160.31L475.278 156.496C476.008 155.412 477.474 155.141 478.545 155.857C479.625 156.584 479.91 158.049 479.184 159.125L476.464 163.041C476.004 163.683 475.283 164.028 474.547 164.028ZM34.4034 160.586C34.2314 160.586 34.0584 160.567 33.8844 160.526C32.6164 160.241 31.8214 158.981 32.1064 157.717C32.4604 156.146 32.8644 154.573 33.3264 153.011C33.6914 151.766 34.9974 151.068 36.2494 151.421C37.4944 151.789 38.2074 153.099 37.8394 154.344C37.4094 155.806 37.0284 157.276 36.6974 158.746C36.4514 159.841 35.4794 160.586 34.4034 160.586ZM484.084 147.833C483.758 147.833 483.427 147.764 483.11 147.621C481.929 147.084 481.405 145.686 481.943 144.506C482.577 143.109 483.17 141.702 483.721 140.282C484.195 139.073 485.545 138.48 486.773 138.949C487.981 139.423 488.579 140.788 488.106 142.001C487.517 143.495 486.897 144.983 486.226 146.454C485.83 147.324 484.975 147.833 484.084 147.833ZM40.8834 142.971C40.5134 142.971 40.1384 142.884 39.7894 142.7C38.6384 142.094 38.1974 140.674 38.8034 139.52C39.5504 138.105 40.3454 136.699 41.1954 135.301C41.8714 134.189 43.3164 133.83 44.4284 134.515C45.5384 135.191 45.8924 136.638 45.2164 137.745C44.4174 139.059 43.6684 140.384 42.9674 141.716C42.5464 142.516 41.7294 142.971 40.8834 142.971ZM489.855 129.956C489.704 129.956 489.552 129.942 489.396 129.91C488.123 129.662 487.292 128.426 487.543 127.148C487.838 125.65 488.086 124.147 488.292 122.644C488.467 121.357 489.671 120.415 490.939 120.631C492.226 120.806 493.131 121.991 492.952 123.277C492.736 124.872 492.47 126.466 492.157 128.056C491.937 129.18 490.954 129.956 489.855 129.956ZM51.4484 127.438C50.9154 127.438 50.3774 127.259 49.9364 126.886C48.9414 126.05 48.8134 124.566 49.6494 123.573C50.6904 122.332 51.7494 121.128 52.8364 119.956C53.7114 119 55.2084 118.945 56.1614 119.827C57.1154 120.71 57.1724 122.198 56.2874 123.154C55.2554 124.271 54.2424 125.42 53.2524 126.596C52.7864 127.153 52.1194 127.438 51.4484 127.438ZM172.514 122.502C172.011 122.502 171.505 122.341 171.076 122.011L167.361 119.161C166.327 118.375 166.122 116.9 166.908 115.866C167.691 114.832 169.162 114.625 170.205 115.411L173.957 118.288C174.984 119.083 175.172 120.562 174.377 121.588C173.914 122.19 173.217 122.502 172.514 122.502ZM173.158 115.002C172.075 115.002 171.101 114.253 170.86 113.15C170.522 111.591 170.203 110.034 169.906 108.48C169.662 107.203 170.501 105.971 171.779 105.728C173.064 105.507 174.288 106.325 174.529 107.598C174.817 109.115 175.127 110.626 175.46 112.148C175.736 113.417 174.932 114.67 173.661 114.947C173.493 114.984 173.323 115.002 173.158 115.002ZM64.9364 114.35C64.2354 114.35 63.5444 114.037 63.0804 113.445C62.2804 112.42 62.4624 110.945 63.4844 110.145C64.7624 109.148 66.0604 108.192 67.3774 107.277C68.4484 106.533 69.9144 106.799 70.6544 107.866C71.3964 108.932 71.1324 110.398 70.0664 111.137C68.8184 112.006 67.5894 112.907 66.3854 113.849C65.9524 114.189 65.4424 114.35 64.9364 114.35ZM157.3 111.422C156.87 111.422 156.434 111.303 156.043 111.059C154.743 110.232 153.428 109.451 152.104 108.702C150.974 108.063 150.574 106.625 151.215 105.495C151.852 104.369 153.29 103.969 154.421 104.603C155.814 105.388 157.192 106.215 158.562 107.08C159.661 107.778 159.987 109.23 159.29 110.329C158.842 111.036 158.08 111.422 157.3 111.422ZM491.207 111.23C489.962 111.23 488.923 110.255 488.858 109.001C488.776 107.48 488.647 105.968 488.472 104.451C488.325 103.16 489.253 101.997 490.544 101.846C491.739 101.703 492.998 102.622 493.15 103.918C493.334 105.527 493.471 107.14 493.554 108.753C493.622 110.049 492.625 111.156 491.329 111.226C491.29 111.23 491.248 111.23 491.207 111.23ZM80.9634 104.575C80.0694 104.575 79.2164 104.065 78.8214 103.201C78.2814 102.02 78.8004 100.623 79.9814 100.081C81.4524 99.4101 82.9414 98.7801 84.4464 98.1971C85.6524 97.7371 87.0194 98.33 87.4884 99.543C87.9574 100.757 87.3554 102.121 86.1424 102.59C84.7244 103.137 83.3234 103.731 81.9394 104.364C81.6234 104.506 81.2904 104.575 80.9634 104.575ZM140.499 103.012C140.223 103.012 139.943 102.966 139.669 102.861C138.235 102.319 136.793 101.823 135.342 101.363C134.104 100.972 133.414 99.653 133.805 98.413C134.196 97.177 135.514 96.4921 136.758 96.8781C138.286 97.3561 139.812 97.8891 141.328 98.4591C142.543 98.9181 143.159 100.274 142.7 101.492C142.347 102.433 141.45 103.012 140.499 103.012ZM98.8584 98.9321C97.7444 98.9321 96.7544 98.1361 96.5464 97.0011C96.3124 95.7241 97.1604 94.496 98.4404 94.262C100.027 93.973 101.627 93.7391 103.238 93.5501C104.536 93.3621 105.696 94.3181 105.85 95.6091C106.002 96.9011 105.078 98.0681 103.789 98.2191C102.275 98.3991 100.772 98.6231 99.2814 98.8951C99.1394 98.9171 98.9994 98.9321 98.8584 98.9321ZM122.292 98.4032C122.188 98.4032 122.085 98.3991 121.979 98.3851C120.469 98.1831 118.957 98.0271 117.443 97.9201C116.147 97.8281 115.171 96.7021 115.262 95.4061C115.354 94.1101 116.475 93.1271 117.774 93.2231C119.385 93.3381 120.993 93.5031 122.599 93.7141C123.886 93.8891 124.793 95.0701 124.621 96.3571C124.465 97.5431 123.454 98.4032 122.292 98.4032ZM170.216 96.4271C169.014 96.4271 167.987 95.5121 167.875 94.2901C167.728 92.6901 167.608 91.1011 167.521 89.5151C167.448 88.2141 168.44 87.1071 169.739 87.0341C171.021 86.8871 172.144 87.9531 172.218 89.2491C172.305 90.7791 172.42 92.3141 172.563 93.8581C172.683 95.1541 171.729 96.298 170.435 96.418C170.361 96.422 170.288 96.4271 170.216 96.4271ZM487.871 92.7551C486.869 92.7551 485.94 92.1111 485.623 91.1051C485.168 89.6541 484.672 88.2191 484.13 86.7911C483.666 85.5771 484.273 84.2171 485.49 83.7581C486.699 83.2981 488.063 83.8961 488.523 85.1181C489.102 86.6301 489.635 88.1551 490.118 89.6991C490.504 90.9401 489.814 92.2601 488.574 92.6501C488.339 92.7231 488.1 92.7551 487.871 92.7551ZM330.641 89.5151C329.483 89.5151 328.477 88.6611 328.316 87.4801L327.664 82.8381C327.48 81.5561 328.372 80.3601 329.658 80.1721C330.872 80.0111 332.136 80.8751 332.324 82.1671L332.976 86.845C333.151 88.132 332.249 89.3181 330.963 89.4921C330.857 89.5111 330.748 89.5151 330.641 89.5151ZM337.25 80.5441C336.813 80.5441 336.377 80.4251 335.982 80.1721C334.888 79.4741 334.566 78.022 335.269 76.923C336.123 75.581 337.001 74.253 337.898 72.939C338.633 71.859 340.104 71.597 341.166 72.319C342.241 73.049 342.517 74.5111 341.786 75.5871C340.918 76.8641 340.067 78.1551 339.231 79.4611C338.785 80.1631 338.022 80.5441 337.25 80.5441ZM169.971 77.6221C169.911 77.6221 169.851 77.6221 169.789 77.6171C168.493 77.5151 167.523 76.3861 167.622 75.0891C167.744 73.4821 167.903 71.8821 168.1 70.2961C168.261 69.0101 169.444 68.0631 170.726 68.2511C172.015 68.4121 172.93 69.5891 172.768 70.8751C172.58 72.3881 172.431 73.9131 172.313 75.4481C172.22 76.6851 171.189 77.6221 169.971 77.6221ZM480.131 75.6511C479.336 75.6511 478.559 75.2461 478.118 74.5151C477.332 73.2141 476.505 71.9331 475.64 70.6641C474.91 69.5931 475.185 68.1271 476.26 67.3961C477.326 66.6691 478.792 66.9361 479.528 68.0161C480.438 69.3491 481.311 70.7041 482.143 72.0791C482.814 73.1911 482.46 74.6392 481.348 75.3092C480.967 75.5402 480.549 75.6511 480.131 75.6511ZM327.742 70.9171C326.63 70.9171 325.641 70.122 325.43 68.986C325.154 67.474 324.837 65.9811 324.484 64.5061C324.18 63.2421 324.961 61.9741 326.225 61.6701C327.497 61.3541 328.757 62.1491 329.06 63.4121C329.433 64.9701 329.768 66.5461 330.062 68.1411C330.296 69.4191 329.447 70.6461 328.169 70.8801C328.027 70.9041 327.884 70.9171 327.742 70.9171ZM348.357 65.366C347.81 65.366 347.259 65.1781 346.813 64.7921C345.834 63.9371 345.729 62.4521 346.579 61.4691C347.641 60.2511 348.739 59.0661 349.86 57.9071C350.775 56.9831 352.259 56.965 353.192 57.866C354.121 58.776 354.138 60.2641 353.233 61.1931C352.168 62.2821 351.133 63.4041 350.136 64.5571C349.668 65.0891 349.014 65.366 348.357 65.366ZM468.688 60.7651C468.068 60.7651 467.452 60.5221 466.988 60.0391C465.94 58.9451 464.851 57.8701 463.73 56.8171C462.783 55.9251 462.737 54.4361 463.628 53.4901C464.524 52.5391 466.009 52.5021 466.955 53.3881C468.132 54.4961 469.276 55.6261 470.384 56.7841C471.284 57.7221 471.252 59.2112 470.315 60.1062C469.86 60.5492 469.277 60.7651 468.688 60.7651ZM173.316 59.1381C173.091 59.1381 172.864 59.1071 172.636 59.0371C171.39 58.6601 170.687 57.3501 171.064 56.1041C171.53 54.5601 172.041 53.0261 172.601 51.5091C173.054 50.2911 174.409 49.666 175.625 50.116C176.843 50.566 177.465 51.9181 177.018 53.1351C176.489 54.5701 176.007 56.012 175.568 57.465C175.26 58.482 174.327 59.1381 173.316 59.1381ZM322.351 52.9301C321.437 52.9301 320.568 52.3921 320.187 51.4951C319.589 50.0891 318.951 48.7061 318.275 47.3411C317.701 46.1741 318.178 44.763 319.341 44.189C320.513 43.62 321.919 44.0971 322.493 45.2551C323.205 46.7021 323.881 48.1691 324.514 49.6571C325.025 50.8521 324.468 52.231 323.269 52.741C322.971 52.87 322.659 52.9301 322.351 52.9301ZM362.144 52.6041C361.432 52.6041 360.724 52.2771 360.26 51.6621C359.483 50.6191 359.695 49.1431 360.733 48.3671C362.029 47.4021 363.343 46.4691 364.681 45.5771C365.747 44.8551 367.217 45.1451 367.944 46.2301C368.666 47.3101 368.372 48.7711 367.292 49.4931C366.028 50.3391 364.778 51.2171 363.556 52.1361C363.132 52.4521 362.636 52.6041 362.144 52.6041ZM454.377 48.5871C453.908 48.5871 453.439 48.4481 453.03 48.1641C452.309 47.6581 451.573 47.1621 450.834 46.6801C450.292 46.3261 449.754 45.9821 449.216 45.6511C448.109 44.9701 447.764 43.5231 448.445 42.4161C449.121 41.3091 450.582 40.9541 451.68 41.6441C452.263 42.0021 452.838 42.3661 453.412 42.7431C454.184 43.2491 454.956 43.7721 455.724 44.3061C456.79 45.0501 457.052 46.5161 456.308 47.5821C455.848 48.2381 455.118 48.5871 454.377 48.5871ZM378.289 42.9901C377.397 42.9901 376.543 42.48 376.147 41.616C375.609 40.43 376.128 39.038 377.31 38.496C378.776 37.829 380.255 37.1901 381.748 36.5981C382.952 36.1291 384.322 36.7031 384.805 37.9171C385.283 39.1251 384.695 40.4901 383.486 40.9731C382.066 41.5381 380.66 42.1401 379.267 42.7801C378.951 42.9201 378.615 42.9901 378.289 42.9901ZM180.938 41.9791C180.52 41.9791 180.097 41.8691 179.715 41.6341C178.606 40.9581 178.254 39.5111 178.932 38.4041C179.75 37.0571 180.637 35.7011 181.597 34.3371C182.344 33.2751 183.815 33.023 184.874 33.767C185.938 34.516 186.193 35.983 185.444 37.048C184.548 38.321 183.716 39.5941 182.949 40.8491C182.505 41.5781 181.731 41.9791 180.938 41.9791ZM437.788 39.8101C437.517 39.8101 437.236 39.763 436.97 39.663C435.545 39.135 434.112 38.652 432.655 38.22C431.41 37.853 430.698 36.5431 431.065 35.2971C431.437 34.0521 432.752 33.3541 433.988 33.7071C435.546 34.1671 437.091 34.6861 438.606 35.2511C439.829 35.7061 440.445 37.0581 439.995 38.2751C439.639 39.2261 438.744 39.8101 437.788 39.8101ZM396.105 37.0341C395.016 37.0341 394.042 36.2801 393.808 35.1781C393.532 33.9051 394.341 32.6551 395.609 32.3791C397.19 32.0391 398.78 31.7491 400.375 31.5011C401.635 31.3131 402.861 32.1861 403.059 33.4681C403.257 34.7501 402.379 35.9542 401.092 36.1532C399.59 36.3822 398.092 36.6631 396.603 36.9841C396.436 37.0151 396.266 37.0341 396.105 37.0341ZM313.082 36.5971C312.356 36.5971 311.644 36.2612 311.18 35.6322C310.28 34.3962 309.351 33.1921 308.381 32.0201C307.554 31.0181 307.696 29.5341 308.698 28.7071C309.7 27.8801 311.179 28.0141 312.011 29.0241C313.035 30.2691 314.029 31.5461 314.984 32.8571C315.748 33.9091 315.517 35.379 314.469 36.147C314.051 36.451 313.564 36.5971 313.082 36.5971ZM419.493 35.6141C419.415 35.6141 419.337 35.6091 419.259 35.6051C417.751 35.4581 416.235 35.3571 414.718 35.3101C413.418 35.2691 412.398 34.1801 412.439 32.8841C412.481 31.5881 413.551 30.6001 414.866 30.6051C416.493 30.6601 418.11 30.761 419.719 30.918C421.011 31.046 421.957 32.195 421.833 33.491C421.712 34.703 420.687 35.6141 419.493 35.6141ZM192.737 27.3881C192.114 27.3881 191.494 27.1391 191.032 26.6521C190.136 25.7111 190.175 24.2211 191.117 23.3281C192.266 22.2361 193.474 21.1591 194.747 20.0991C195.744 19.2631 197.228 19.4051 198.06 20.4021C198.892 21.4021 198.756 22.884 197.757 23.715C196.567 24.705 195.431 25.7141 194.356 26.7391C193.902 27.1711 193.321 27.3881 192.737 27.3881ZM300.31 22.8201C299.771 22.8201 299.228 22.6361 298.787 22.2591C297.624 21.2711 296.436 20.3201 295.223 19.4051C294.184 18.6211 293.978 17.1461 294.759 16.1101C295.542 15.0741 297.018 14.8601 298.054 15.6461C299.341 16.6161 300.602 17.6261 301.836 18.6741C302.824 19.5151 302.943 21.0001 302.103 21.9901C301.638 22.5391 300.974 22.8201 300.31 22.8201ZM207.879 16.298C207.054 16.298 206.252 15.8641 205.822 15.0921C205.188 13.9571 205.595 12.5251 206.73 11.8911C208.108 11.1211 209.533 10.3721 211.01 9.65108C212.182 9.07908 213.586 9.56416 214.158 10.7312C214.727 11.8982 214.245 13.3091 213.078 13.8791C211.679 14.5641 210.328 15.2721 209.022 16.0001C208.661 16.2021 208.268 16.298 207.879 16.298ZM284.649 12.4561C284.297 12.4561 283.939 12.3782 283.601 12.2102C282.243 11.5322 280.864 10.8981 279.462 10.3051C278.265 9.79913 277.707 8.41815 278.212 7.22115C278.718 6.02415 280.104 5.47015 281.296 5.97115C282.785 6.60115 284.255 7.27612 285.701 7.99812C286.864 8.57712 287.337 9.99015 286.758 11.1532C286.345 11.9782 285.513 12.4561 284.649 12.4561ZM225.161 8.95015C224.157 8.95015 223.229 8.30405 222.914 7.29805C222.528 6.05705 223.22 4.73805 224.46 4.35005C225.96 3.88305 227.502 3.44208 229.085 3.02608C230.335 2.70208 231.631 3.44608 231.957 4.70308C232.288 5.96008 231.537 7.24713 230.28 7.57613C228.766 7.97313 227.293 8.39607 225.861 8.84407C225.627 8.91507 225.393 8.95015 225.161 8.95015ZM266.944 6.25911C266.781 6.25911 266.615 6.24313 266.45 6.20613C264.972 5.89213 263.479 5.62305 261.972 5.40205C260.685 5.21605 259.796 4.02106 259.984 2.73506C260.17 1.45006 261.347 0.543147 262.651 0.747147C264.259 0.981147 265.854 1.26816 267.433 1.60616C268.704 1.87716 269.515 3.12715 269.242 4.39815C269.008 5.50315 268.031 6.25911 266.944 6.25911ZM243.542 5.04805C242.349 5.04805 241.327 4.14809 241.203 2.93709C241.072 1.64309 242.012 0.487081 243.303 0.354081C244.918 0.189081 246.529 0.0721519 248.136 0.00215188C249.418 -0.0528481 250.532 0.953152 250.588 2.25215C250.644 3.55115 249.637 4.64906 248.338 4.70406C246.824 4.76806 245.305 4.88106 243.786 5.03706C243.702 5.04406 243.622 5.04805 243.542 5.04805Z" fill="#636466"/>
<path d="M292.361 208.716C279.925 208.716 267.811 211.754 256.355 217.737C215.459 239.106 198.526 282.47 213.4 328.629C213.572 328.918 213.696 329.235 213.885 329.939C226.245 358.836 255.652 376.787 290.624 376.787C301.488 376.787 312.104 374.995 322.186 371.47C342.999 364.191 360.38 347.849 369.871 326.636C379.016 306.203 379.581 284.163 371.466 264.581C357.624 231.166 325.836 208.716 292.361 208.716Z" fill="#FEF49C"/>
<path d="M191.97 336.111C163.475 350.882 115.78 375.605 82.4674 375.605C58.1133 375.605 44.9584 362.701 43.3654 337.251C41.1244 301.456 77.9034 297.637 102.241 295.109L104.304 294.893C137.139 291.442 171.067 290.081 201 288.882C201.028 288.882 201.053 288.882 201.081 288.882C201.616 288.882 202.131 289.093 202.508 289.479C202.904 289.879 203.11 290.431 203.078 290.996C202.391 303.073 203.731 315.05 207.058 326.589C207.327 327.523 206.886 328.515 206.015 328.943C202.112 330.854 197.36 333.317 191.97 336.111ZM329.419 212.118C340.622 216.745 350.338 223.307 358.288 231.622C358.669 232.017 359.188 232.237 359.735 232.237C359.74 232.237 359.749 232.237 359.754 232.237C360.306 232.232 360.834 231.998 361.206 231.593C381.62 209.447 404.754 184.341 425.7 158.449C427.097 156.721 428.554 154.98 430.029 153.215C435.999 146.065 442.171 138.666 446.229 130.421C451.642 119.419 451.372 105.536 445.516 94.1936C440.171 83.8436 430.833 76.8857 419.896 75.1127C417.079 74.6627 414.307 74.4276 411.666 74.4276C380.402 74.4276 367.396 106.588 357.897 130.072C350.337 148.766 343.379 168.031 336.642 186.657C333.875 194.304 331.109 201.951 328.301 209.575C327.93 210.587 328.421 211.708 329.419 212.118ZM295.251 204.861C295.274 204.861 295.293 204.861 295.315 204.861C295.848 204.861 296.358 204.65 296.735 204.273C297.126 203.877 297.332 203.34 297.314 202.784C296.193 173.735 294.916 140.817 291.873 108.805L291.482 104.517C289.281 80.1786 285.958 43.3906 252.282 43.3906C251.284 43.3906 250.258 43.4227 249.207 43.4877C233.038 44.4997 221.834 50.3257 215.903 60.7947C198.226 92.0177 231.236 155.754 250.961 193.828C253.95 199.605 256.565 204.646 258.527 208.695C258.867 209.402 259.575 209.821 260.329 209.821C260.54 209.821 260.752 209.789 260.963 209.719C263.141 208.984 265.356 208.299 267.645 207.725C275.402 205.79 283.541 204.807 291.836 204.807C292.976 204.806 294.116 204.825 295.251 204.861ZM129.702 228.5C148.25 236.005 167.356 242.916 185.833 249.607C193.386 252.337 200.936 255.072 208.471 257.852C208.699 257.934 208.933 257.976 209.162 257.976C209.941 257.976 210.679 257.516 211.003 256.758C215.736 245.696 222.301 236.073 230.516 228.146C230.904 227.774 231.125 227.259 231.127 226.716C231.129 226.179 230.913 225.659 230.529 225.282C228.126 222.915 225.286 220.053 222.08 216.817C194.373 188.862 142.797 136.826 107.215 136.826C94.4834 136.826 84.9204 143.453 78.7874 156.532C73.3394 168.14 72.5194 178.972 76.3424 188.724C83.8173 207.775 107.512 219.521 129.702 228.5ZM256.147 375.532C244.38 371.391 234.229 365.16 225.97 356.998C225.595 356.631 225.09 356.424 224.564 356.424C224.548 356.424 224.532 356.424 224.518 356.424C223.976 356.433 223.461 356.667 223.093 357.068C203.291 378.552 180.846 402.9 160.276 428.447C158.934 430.115 157.539 431.797 156.128 433.497C150.23 440.611 144.131 447.969 140.104 456.163C134.688 467.164 134.961 481.048 140.816 492.39C146.158 502.744 155.496 509.698 166.438 511.471C169.26 511.926 172.033 512.16 174.68 512.16C205.962 512.16 218.821 480.166 228.209 456.806C235.573 438.483 242.366 419.609 248.935 401.36C251.725 393.603 254.518 385.85 257.359 378.111C257.543 377.61 257.515 377.054 257.29 376.567C257.062 376.083 256.652 375.711 256.147 375.532ZM327.59 377.416C327.249 376.713 326.537 376.289 325.788 376.289C325.586 376.289 325.379 376.317 325.182 376.382C322.208 377.333 319.207 378.114 316.252 378.702C307.838 380.375 299.309 381.225 290.907 381.225C290.907 381.225 290.112 381.225 290.108 381.225C289.566 381.225 289.042 381.445 288.665 381.835C288.288 382.225 288.086 382.759 288.109 383.306C289.391 413.628 290.912 445.88 294.171 477.535L294.64 482.268C297.144 507.98 300.573 543.192 334.07 543.192C335.058 543.192 336.083 543.16 337.126 543.095C353.289 542.079 364.493 536.257 370.421 525.783C388.119 494.523 355.026 430.649 335.256 392.488C332.213 386.617 329.566 381.506 327.59 377.416ZM456.064 358.179C438.421 351.184 420.274 344.696 402.723 338.422C393.917 335.274 385.118 332.126 376.34 328.904C376.114 328.822 375.88 328.78 375.651 328.78C374.86 328.78 374.111 329.254 373.798 330.03C369.309 341.051 362.957 350.614 354.934 358.463C354.538 358.845 354.323 359.373 354.331 359.92C354.336 360.472 354.57 360.991 354.975 361.363C376.974 381.662 401.905 404.672 427.806 425.655C429.538 427.061 431.285 428.523 433.054 429.998C440.264 436.027 447.718 442.259 456.036 446.353C461.224 448.904 467.153 450.255 473.182 450.255C489.707 450.255 508.121 439.868 511.343 420.021C517.419 382.517 481.956 368.45 456.064 358.179ZM503.707 211.033C469.952 211.033 421.543 236.106 392.623 251.084C386.524 254.245 381.244 256.98 377.09 258.97C376.185 259.407 375.738 260.446 376.051 261.397C376.166 261.742 376.29 262.073 376.419 262.403C376.543 262.734 376.671 263.06 376.777 263.415C379.902 273.906 381.308 284.844 380.954 295.919C380.935 296.476 381.152 297.013 381.543 297.403C381.92 297.776 382.425 297.982 382.953 297.982C382.981 297.982 383.009 297.982 383.036 297.982C415.173 296.686 446.579 295.266 477.433 292.187L481.983 291.75C507.176 289.37 545.251 285.771 542.971 249.333C541.377 223.918 528.169 211.033 503.707 211.033Z" fill="#ECFFFE"/>
<path d="M354.545 271.428C343.736 244.769 319.007 226.851 293.019 226.851C285.588 226.851 278.18 228.276 270.983 231.083C234.085 245.494 217.647 281.63 230.16 321.216C240.526 344.521 263.648 358.996 290.505 358.996C297.877 358.996 305.206 357.866 312.288 355.628C329.71 350.127 344.861 336.749 352.816 319.842C360.215 304.12 360.831 286.929 354.545 271.428Z" fill="#FF7CC7"/>
<path d="M335.256 392.489C332.214 386.616 329.567 381.506 327.591 377.416C327.25 376.713 326.538 376.289 325.789 376.289C325.587 376.289 325.38 376.317 325.183 376.382C323.303 376.984 321.419 377.489 319.539 377.948C325.375 389.213 330.127 401.018 336.451 412.107C344.585 426.39 349.199 440.195 352.972 456.064C356.455 470.728 365.872 491.579 366.501 506.91C367.37 528.141 343.767 533.201 326.506 532.792C315.394 532.525 306.943 523.059 300.55 516.593C305.449 531.45 314.741 543.193 334.071 543.193C335.059 543.193 336.084 543.161 337.127 543.096C353.29 542.08 364.494 536.258 370.422 525.784C388.12 494.524 355.027 430.65 335.256 392.489Z" fill="#BCBCBC"/>
<path d="M497.378 428.963C473.725 456.918 413.954 413.182 360.195 352.736C358.522 354.725 356.785 356.651 354.933 358.462C354.537 358.844 354.322 359.372 354.33 359.919C354.335 360.471 354.569 360.99 354.974 361.362C376.973 381.661 401.904 404.671 427.805 425.654C429.537 427.06 431.284 428.522 433.053 429.997C440.263 436.026 447.717 442.258 456.035 446.352C461.223 448.903 467.152 450.254 473.181 450.254C489.706 450.254 508.12 439.867 511.342 420.02C512.541 412.625 512.077 406.173 510.437 400.452C509.768 410.255 505.072 419.869 497.378 428.963Z" fill="#BCBCBC"/>
<path d="M540.384 245.517C536.165 274.216 504.092 276.396 480.907 279.125C448.159 282.98 409.248 286.52 380.856 287.296C381.003 290.159 381.044 293.031 380.953 295.917C380.934 296.474 381.151 297.011 381.542 297.401C381.919 297.774 382.424 297.979 382.952 297.979C382.98 297.979 383.008 297.979 383.035 297.979C415.172 296.683 446.578 295.264 477.432 292.185L481.982 291.748C507.175 289.368 545.25 285.769 542.97 249.331C542.68 244.73 542 240.554 540.952 236.771C540.991 239.58 540.83 242.479 540.384 245.517Z" fill="#BCBCBC"/>
<path d="M248.938 401.358C251.728 393.601 254.521 385.848 257.362 378.109C257.546 377.608 257.518 377.052 257.293 376.565C257.063 376.083 256.654 375.711 256.148 375.531C252.122 374.116 248.358 372.365 244.723 370.467C244.151 399.461 221.729 448.537 210.817 471.225C198.412 497.025 181.622 509.594 154.74 496.322C147.265 492.632 138.465 476.35 136.443 469.236C135.664 477.057 137.123 485.228 140.818 492.388C144.843 500.192 151.139 506.055 158.678 509.236C167.203 511.069 176.116 511.13 184.517 509.112C190.861 507.587 196.468 505.109 201.516 501.962C214.563 490.629 222.132 471.929 228.212 456.806C235.576 438.481 242.368 419.607 248.938 401.358Z" fill="#BCBCBC"/>
<path d="M352.82 226.487C354.714 228.128 356.56 229.814 358.289 231.621C358.67 232.016 359.189 232.236 359.736 232.236C359.741 232.236 359.75 232.236 359.755 232.236C360.307 232.231 360.835 231.997 361.207 231.592C381.621 209.446 404.755 184.34 425.701 158.448C427.098 156.72 428.555 154.979 430.03 153.214C436 146.064 442.172 138.665 446.23 130.42C451.643 119.418 451.373 105.535 445.517 94.193C445.218 93.614 444.865 93.0891 444.542 92.5391C450.292 117.057 386.624 190.401 371.574 205.917C365.113 212.576 358.302 219.138 352.82 226.487Z" fill="#BCBCBC"/>
<path d="M129.702 228.5C148.25 236.005 167.356 242.916 185.833 249.607C193.386 252.337 200.936 255.072 208.471 257.852C208.699 257.934 208.933 257.975 209.162 257.975C209.941 257.975 210.679 257.516 211.003 256.758C212.628 252.962 214.546 249.4 216.593 245.953C216.251 245.861 215.906 245.764 215.564 245.672C195.44 240.152 176.29 234.883 156.694 227.415C132.68 218.261 111.848 215.093 92.4463 196.637C84.5163 189.091 78.8023 181.234 74.1493 172.852C73.6603 178.399 74.3774 183.705 76.3434 188.724C83.8174 207.774 107.512 219.521 129.702 228.5Z" fill="#BCBCBC"/>
<path d="M235.36 143.752C225.633 117.47 214.287 84.2302 220.5 54.7402C218.742 56.5552 217.177 58.5502 215.904 60.7922C198.227 92.0152 231.237 155.751 250.962 193.825C253.951 199.602 256.566 204.643 258.528 208.692C258.868 209.399 259.576 209.818 260.33 209.818C260.541 209.818 260.753 209.786 260.964 209.716C263.142 208.981 265.357 208.296 267.646 207.722C269.521 207.253 271.415 206.849 273.326 206.494C260.771 185.15 243.166 164.841 235.36 143.752Z" fill="#BCBCBC"/>
<path d="M82.4668 375.604C115.78 375.604 163.475 350.88 191.97 336.11C197.361 333.316 202.112 330.854 206.014 328.942C206.885 328.514 207.326 327.522 207.057 326.588C206.041 323.064 205.276 319.488 204.63 315.895C149.246 353.183 99.8638 361.323 77.4218 362.305C65.0988 362.843 55.6178 357.934 46.2588 352.594C51.5338 367.856 63.6368 375.604 82.4668 375.604Z" fill="#BCBCBC"/>
<path d="M354.545 271.427C353.175 268.049 351.58 264.819 349.788 261.739C354.112 286.247 344.761 317.759 325.032 331.481C289.926 355.897 244.839 335.134 228.062 313.361C228.641 315.962 229.326 318.577 230.16 321.215C240.526 344.52 263.648 358.995 290.505 358.995C297.877 358.995 305.206 357.865 312.288 355.627C329.71 350.126 344.861 336.748 352.816 319.841C360.215 304.119 360.831 286.928 354.545 271.427Z" fill="#F85094"/>
<path d="M314.075 256.712C313.004 250.352 305.38 246.004 299.622 244.423C289.434 241.619 279.829 245.406 270.835 249.892C254.815 257.884 234.461 281.546 248.652 299.028C261.354 314.672 277.93 290.292 286.57 282.907C292.636 277.719 300.403 274.69 306.101 268.982C308.518 266.57 309.889 266.864 312.678 262.548C313.91 260.641 314.465 259.019 314.075 256.712Z" fill="#FFBFE2"/>
<path d="M269.209 223.872C226.07 236.01 210.473 284.119 223.012 323.257C223.102 323.532 223.274 323.702 223.396 323.942C223.444 324.093 223.424 324.231 223.488 324.383C240.255 363.565 283.732 372.416 321.604 360.453C360.745 348.091 373.46 298.518 359.296 263.592C344.54 227.2 305.017 213.799 269.209 223.872ZM311.681 353.72C280.201 363.66 245.389 350.531 231.989 320.402C220.314 283.435 234.76 247.38 271.714 232.95C305.882 219.604 339.843 240.495 352.693 272.182C366.479 306.189 344.264 343.431 311.681 353.72ZM511.423 295.163C536.359 290.696 555.453 269.263 549.847 242.306C532.535 159.043 417.825 231.01 374.526 252.021C372.113 246.759 369.222 241.892 365.886 237.453C394.558 206.383 424.273 175.233 448.615 140.578C465.752 116.184 458.5 88.7715 433.826 72.5955C412.402 58.5425 384.553 69.7285 370.765 88.3085C346.036 121.636 335.292 168.29 321.326 207.105C315.94 205.478 310.403 204.31 304.768 203.607C303.151 160.855 302.424 117.197 295.017 74.9905C290.637 50.0505 269.047 31.0246 242.182 36.6126C159.321 53.8376 230.215 167.546 251.594 211.296C246.024 213.889 240.898 217.014 236.224 220.593C206.367 192.826 176.495 164.477 143.722 140.17C118.531 121.489 90.1258 125.708 72.4718 152.629C58.4278 174.049 69.6088 201.899 88.1538 215.703C121.139 240.262 167.357 250.965 205.88 264.784C204.152 270.183 202.867 275.754 202.038 281.425C159.862 283.066 116.912 284.076 75.2778 291.356C50.1908 295.746 30.8408 317.106 36.4888 344.279C53.5518 426.375 164.504 357.592 208.63 335.879C211.399 341.573 214.625 346.733 218.285 351.348C190.285 381.661 161.357 412.12 137.704 446.003C120.645 470.438 127.798 497.786 152.506 513.99C173.899 528.02 201.764 516.889 215.539 498.328C240.121 465.198 250.663 418.714 264.502 380.125C269.751 381.407 275.155 382.284 280.665 382.767C282.43 425.621 283.661 469.308 291.294 511.574C295.798 536.491 317.185 555.581 344.153 549.974C427.139 532.722 355.918 418.636 334.557 374.886C339.841 372.464 344.713 369.5 349.166 366.095C380.158 394.748 411.247 424.403 445.825 448.704C470.236 465.864 497.663 458.664 513.862 433.953C527.925 412.511 516.725 384.587 498.062 370.855C464.575 346.222 417.681 335.846 378.765 321.921C380.36 316.567 381.523 311.048 382.216 305.437C425.183 303.745 469.03 302.75 511.423 295.163ZM45.3618 337.126C43.1838 302.301 79.4177 299.516 104.514 296.883C136.571 293.514 168.878 292.172 201.081 290.881C200.392 302.985 201.722 315.311 205.134 327.145C167.368 345.637 50.2768 415.715 45.3618 337.126ZM359.755 130.822C370.665 103.845 384.291 71.3735 419.576 77.0905C443.459 80.9645 454.437 109.2 444.433 129.54C439.483 139.6 431.101 148.598 424.148 157.191C403.739 182.417 381.721 206.382 359.736 230.238C351.414 221.539 341.298 214.861 330.182 210.27C339.953 183.753 349.163 157.03 359.755 130.822ZM249.333 45.4855C285.919 43.1975 287.431 83.1466 289.885 108.993C292.849 140.183 294.108 171.556 295.317 202.861C285.905 202.558 276.397 203.478 267.165 205.785C264.816 206.373 262.556 207.072 260.332 207.821C242.361 170.744 169.979 50.4495 249.333 45.4855ZM130.454 226.644C101.385 214.884 62.4898 195.992 80.5988 157.379C108.552 97.7876 200.291 198.344 229.126 226.708C220.532 234.998 213.859 244.998 209.163 255.973C182.892 246.286 156.415 237.15 130.454 226.644ZM226.355 456.06C215.528 482.999 201.952 515.196 166.759 509.493C142.882 505.624 131.892 477.383 141.899 457.043C146.786 447.107 154.985 438.206 161.835 429.699C181.674 405.062 203.131 381.677 224.565 358.423C233.37 367.122 243.924 373.355 255.482 377.421C245.847 403.662 236.782 430.118 226.355 456.06ZM337.003 541.097C300.418 543.39 298.823 503.128 296.167 477.328C292.945 446.069 291.434 414.612 290.11 383.224C298.86 383.279 307.776 382.429 316.645 380.663C319.807 380.034 322.849 379.229 325.791 378.288C343.667 415.26 416.515 536.12 337.003 541.097ZM321.525 369.579C281.676 383.517 232.879 369.258 215.725 329.152C215.61 328.619 215.411 328.095 215.121 327.608C201.137 284.056 216.031 241.064 257.279 219.511C301.935 196.179 351.645 221.96 369.618 265.347C386.828 306.878 361.86 355.471 321.525 369.579ZM455.325 360.038C482.439 370.792 515.114 384.249 509.37 419.699C505.496 443.578 477.261 454.566 456.921 444.556C446.782 439.566 437.72 431.114 429.067 424.1C403.953 403.751 380.083 381.808 356.333 359.892C364.711 351.703 371.187 341.744 375.653 330.784C402.214 340.532 429.02 349.607 455.325 360.038ZM378.694 262.843C378.483 262.126 378.184 261.479 377.954 260.776C414.255 243.363 535.974 169.622 540.974 249.457C543.267 286.057 503.042 287.623 477.238 290.197C445.92 293.322 414.398 294.714 382.955 295.982C383.308 284.902 381.916 273.657 378.694 262.843Z" fill="#68182B"/>
</svg>
