<svg width="112" height="112" viewBox="0 0 112 112" fill="none" xmlns="http://www.w3.org/2000/svg">
<path d="M56 112C86.9279 112 112 86.9279 112 56C112 25.0721 86.9279 0 56 0C25.0721 0 0 25.0721 0 56C0 86.9279 25.0721 112 56 112Z" fill="#E5BF2B"/>
<path d="M30.283 16.8231C37.666 11.9661 46.5039 9.14111 56.0009 9.14111" stroke="#F7E05D" stroke-width="6" stroke-miterlimit="10" stroke-linecap="round"/>
<path d="M19.637 26.443C20.534 25.341 21.0459 24.694 21.7249 23.978" stroke="#F7E05D" stroke-width="6" stroke-miterlimit="10" stroke-linecap="round"/>
<path d="M24.217 59.861C24.217 55.002 28.157 51.063 33.015 51.063C37.874 51.063 41.8141 55.002 41.8141 59.861" stroke="#2D2E30" stroke-width="6" stroke-miterlimit="10" stroke-linecap="round"/>
<path d="M67.5881 59.861C67.5881 55.002 71.5281 51.063 76.3871 51.063C81.2461 51.063 85.1852 55.002 85.1852 59.861" stroke="#2D2E30" stroke-width="6" stroke-miterlimit="10" stroke-linecap="round"/>
<path d="M71.2301 73.3931C67.9241 79.1071 61.7471 82.9511 54.6711 82.9511C47.6381 82.9511 41.4911 79.1531 38.1721 73.4951" stroke="#2D2E30" stroke-width="6" stroke-miterlimit="10" stroke-linecap="round"/>
</svg>
