<svg width="699" height="430" viewBox="0 0 699 430" fill="none" xmlns="http://www.w3.org/2000/svg">
<path d="M681.293 109.251C674.772 101.806 666.274 95.4988 656.675 90.9768C656.114 90.6898 650.315 87.7827 649.822 87.5387C650.245 68.5197 641.656 50.4278 626.495 38.7088C622.92 35.9468 619.023 33.5918 614.9 31.6938C614.363 31.4178 591.931 20.1728 591.316 19.8788C590.7 19.5598 590.085 19.2468 589.46 18.9508C588.862 18.6378 571.767 10.0677 571.142 9.77073C570.471 9.41873 569.791 9.07672 569.102 8.75272C554.897 1.61572 538.229 0.379779 523.201 5.37278L483.472 18.5758C478.577 20.2028 473.968 22.4247 469.713 25.1817C464.657 25.5167 459.625 26.5007 454.731 28.1277L414.998 41.3338C406.888 44.0288 399.571 48.3807 393.432 53.9947C385.808 53.4547 378.009 53.7307 370.155 54.8197C369.93 54.7097 327.94 33.6638 327.343 33.3788C326.64 33.0138 325.937 32.6567 325.219 32.3197C311.032 25.2037 294.392 23.9738 279.374 28.9648L250.663 38.5077C250.644 38.4987 245.661 35.9828 245.027 35.6838C230.67 28.2578 213.791 26.8948 198.515 31.9728C179.951 38.1418 163.602 49.1078 150.567 64.0298C146.796 64.5188 142.589 64.9418 138.239 65.3758C123.228 66.8808 104.551 68.7498 84.9692 75.2588C11.1362 99.7948 -9.56879 166.569 8.13821 219.85C13.0802 234.721 21.0102 248.101 31.2792 259.2C24.1882 281.668 24.3082 306.072 32.0262 329.292C41.5372 357.909 61.7112 380.464 88.8942 392.899C89.4572 393.191 132.104 414.565 132.727 414.861C133.465 415.247 134.209 415.619 134.97 415.97C162.045 428.893 193.685 430.447 224.099 420.338C236.158 416.331 247.268 410.899 257.334 404.105C257.46 404.167 262.483 406.69 263.033 406.957C266.229 408.689 269.361 410.054 272.553 411.109L310.611 423.719C322.808 427.759 336.241 427.749 348.461 423.689C353.64 421.963 358.562 419.537 363.111 416.467C378.433 406.113 388.267 388.917 389.425 370.467L390.748 349.263C399.774 350.699 409.154 350.972 418.859 350.086C424.604 355.438 431.056 359.983 438.055 363.572C438.574 363.836 478.298 383.739 478.298 383.739C478.84 384.017 485.619 387.402 485.706 387.447C501.037 395.294 526.078 402.397 558.371 391.664C585.623 382.608 606.676 364.764 620.306 339.432C625.095 338.81 629.842 337.725 634.502 336.176C674.176 322.991 695.747 280.057 682.59 240.466C680.582 234.43 677.82 228.704 674.405 223.412C683.5 204.701 690.288 183.973 694.979 160.678C698.65 142.47 693.536 123.251 681.293 109.251Z" fill="white"/>
<path d="M184.564 429.285C183.268 429.285 182.218 428.24 182.211 426.944C182.207 425.643 183.254 424.584 184.552 424.58C186.089 424.573 187.629 424.536 189.168 424.472C190.404 424.424 191.564 425.423 191.618 426.724C191.673 428.022 190.664 429.119 189.366 429.173C187.767 429.242 186.167 429.279 184.575 429.286C184.571 429.285 184.567 429.285 184.564 429.285ZM329.483 429.094C328.504 429.092 327.535 429.072 326.565 429.026C325.269 428.963 324.262 427.863 324.327 426.565C324.383 425.269 325.541 424.292 326.786 424.324C328.284 424.395 329.801 424.407 331.304 424.361C332.77 424.168 333.694 425.34 333.735 426.633C333.777 427.934 332.756 429.021 331.461 429.062C330.803 429.085 330.146 429.094 329.483 429.094ZM170.481 428.499C170.392 428.499 170.3 428.494 170.208 428.483C168.614 428.299 167.028 428.081 165.452 427.833C164.168 427.631 163.29 426.424 163.492 425.142C163.694 423.858 164.898 422.975 166.183 423.182C167.699 423.421 169.221 423.63 170.751 423.809C172.043 423.958 172.966 425.126 172.816 426.417C172.678 427.617 171.66 428.499 170.481 428.499ZM203.305 427.768C202.168 427.768 201.166 426.941 200.982 425.783C200.78 424.498 201.658 423.294 202.94 423.09C204.457 422.851 205.973 422.585 207.49 422.288C208.756 422.031 209.999 422.869 210.25 424.147C210.498 425.422 209.667 426.658 208.391 426.906C206.819 427.212 205.247 427.492 203.676 427.74C203.551 427.759 203.427 427.768 203.305 427.768ZM345.311 426.99C344.273 426.99 343.326 426.301 343.041 425.255C342.7 424.001 343.44 422.707 344.695 422.367C345.711 422.091 346.716 421.785 347.718 421.455L349 421.011C350.228 420.565 351.569 421.202 352.015 422.425C352.456 423.647 351.823 424.996 350.6 425.437L349.199 425.922C348.114 426.28 347.025 426.609 345.927 426.907C345.72 426.964 345.513 426.99 345.311 426.99ZM312.778 426.744C312.562 426.744 312.342 426.714 312.126 426.652C311.363 426.431 310.614 426.199 309.865 425.949L307.558 425.186C306.327 424.777 305.655 423.447 306.064 422.212C306.468 420.981 307.774 420.307 309.038 420.719L311.35 421.484C312.039 421.713 312.734 421.927 313.432 422.13C314.682 422.491 315.399 423.796 315.04 425.046C314.741 426.075 313.799 426.744 312.778 426.744ZM152.046 424.807C151.83 424.807 151.609 424.777 151.394 424.715C149.852 424.272 148.322 423.796 146.803 423.286C145.572 422.872 144.907 421.54 145.321 420.306C145.735 419.077 147.072 418.42 148.301 418.824C149.755 419.311 151.221 419.769 152.697 420.194C153.945 420.555 154.666 421.858 154.305 423.108C154.008 424.136 153.067 424.807 152.046 424.807ZM221.616 423.488C220.612 423.488 219.683 422.842 219.369 421.834C218.983 420.593 219.677 419.274 220.918 418.888L225.307 417.44C226.527 417.015 227.876 417.654 228.308 418.878C228.74 420.105 228.094 421.447 226.87 421.879L222.315 423.382C222.083 423.454 221.846 423.488 221.616 423.488ZM294.898 420.864C294.652 420.864 294.404 420.825 294.158 420.745L289.691 419.265C288.457 418.856 287.789 417.525 288.198 416.292C288.604 415.058 289.939 414.396 291.171 414.798L295.638 416.278C296.872 416.687 297.541 418.018 297.132 419.251C296.805 420.239 295.886 420.864 294.898 420.864ZM362.406 419.288C361.643 419.288 360.889 418.916 360.439 418.226C359.727 417.141 360.03 415.682 361.115 414.968L361.791 414.517C362.815 413.823 363.822 413.095 364.796 412.341C365.816 411.553 367.306 411.732 368.096 412.768C368.891 413.795 368.702 415.273 367.673 416.068C366.616 416.881 365.536 417.665 364.429 418.414L363.699 418.901C363.298 419.163 362.853 419.288 362.406 419.288ZM134.481 418.095C134.141 418.095 133.794 418.021 133.468 417.865C132.847 417.566 132.239 417.261 131.635 416.944L129.201 415.731C128.038 415.148 127.567 413.734 128.149 412.571C128.73 411.411 130.134 410.945 131.309 411.521L133.756 412.744C134.372 413.065 134.93 413.348 135.5 413.619C136.672 414.182 137.168 415.586 136.607 416.758C136.203 417.603 135.359 418.095 134.481 418.095ZM239.169 416.714C238.282 416.714 237.432 416.211 237.034 415.354C236.485 414.175 236.995 412.776 238.174 412.229C239.576 411.576 240.964 410.901 242.331 410.205C243.489 409.614 244.902 410.074 245.495 411.236C246.083 412.394 245.621 413.812 244.463 414.4C243.046 415.12 241.611 415.818 240.159 416.494C239.838 416.643 239.5 416.714 239.169 416.714ZM277.027 414.945C276.781 414.945 276.533 414.906 276.287 414.825L271.82 413.343C270.586 412.934 269.917 411.601 270.326 410.369C270.737 409.133 272.072 408.476 273.299 408.876L277.766 410.358C278.999 410.767 279.668 412.1 279.259 413.331C278.933 414.32 278.013 414.945 277.027 414.945ZM116.534 409.389L112.315 407.273C111.152 406.691 110.684 405.276 111.267 404.116C111.846 402.955 113.268 402.48 114.424 403.068L118.532 405.127L116.534 409.389ZM259.702 407.647C259.346 407.647 258.985 407.566 258.645 407.397L257.499 406.82L256.899 407.217C255.805 407.929 254.348 407.617 253.643 406.526C252.935 405.434 253.246 403.978 254.335 403.27L256.01 402.158C256.704 401.689 257.595 401.62 258.351 401.983C258.411 402.01 259.525 402.569 260.764 403.191C261.924 403.777 262.391 405.192 261.807 406.353C261.394 407.173 260.564 407.647 259.702 407.647ZM376.263 406.67C375.747 406.67 375.229 406.502 374.792 406.155C373.776 405.344 373.61 403.862 374.424 402.848C375.366 401.669 376.263 400.458 377.112 399.208C377.847 398.13 379.318 397.861 380.38 398.585C381.455 399.315 381.732 400.779 381 401.855C380.086 403.202 379.116 404.514 378.101 405.784C377.637 406.367 376.951 406.67 376.263 406.67ZM100.716 401.183C100.362 401.183 100.001 401.103 99.6626 400.933L95.4436 398.817C94.2806 398.236 93.8125 396.82 94.3955 395.66C94.9775 394.5 96.3926 394.027 97.5526 394.613L101.772 396.729C102.935 397.31 103.403 398.726 102.82 399.886C102.409 400.707 101.577 401.183 100.716 401.183ZM528.261 399.448C526.989 399.448 525.941 398.432 525.908 397.151C525.876 395.853 526.905 394.775 528.206 394.743C529.704 394.708 531.234 394.633 532.788 394.52C534.06 394.424 535.214 395.395 535.31 396.694C535.402 397.99 534.432 399.118 533.136 399.213C531.5 399.335 529.897 399.41 528.316 399.449C528.298 399.448 528.279 399.448 528.261 399.448ZM514.185 398.692C514.08 398.692 513.974 398.685 513.869 398.671C512.242 398.455 510.652 398.197 509.098 397.903C507.821 397.664 506.98 396.432 507.223 395.155C507.462 393.875 508.707 393.039 509.971 393.28C511.442 393.556 512.949 393.799 514.493 394.006C515.779 394.178 516.684 395.361 516.514 396.649C516.355 397.833 515.343 398.692 514.185 398.692ZM546.915 397.173C545.835 397.173 544.86 396.422 544.621 395.321C544.346 394.052 545.149 392.798 546.418 392.522C547.894 392.2 549.387 391.839 550.89 391.442C552.159 391.107 553.431 391.86 553.767 393.115C554.098 394.372 553.349 395.661 552.094 395.992C550.518 396.408 548.96 396.782 547.42 397.118C547.25 397.158 547.085 397.173 546.915 397.173ZM495.927 394.239C495.66 394.239 495.394 394.196 495.132 394.101C493.569 393.538 492.067 392.947 490.628 392.338C489.429 391.833 488.868 390.452 489.373 389.255C489.884 388.056 491.276 387.502 492.457 388.005C493.822 388.582 495.242 389.14 496.722 389.671C497.945 390.112 498.578 391.459 498.142 392.681C497.797 393.642 496.892 394.239 495.927 394.239ZM83.8126 392.768C83.4446 392.768 83.0725 392.683 82.7235 392.499C81.2995 391.754 79.8976 390.985 78.5166 390.187C77.3906 389.537 77.0046 388.098 77.6546 386.972C78.3026 385.846 79.7435 385.458 80.8695 386.11C82.1955 386.876 83.5416 387.613 84.9066 388.33C86.0576 388.932 86.5036 390.354 85.8996 391.506C85.4786 392.309 84.6606 392.768 83.8126 392.768ZM564.884 391.636C563.95 391.636 563.064 391.075 562.696 390.154C562.217 388.946 562.805 387.578 564.014 387.098C565.448 386.526 566.859 385.929 568.256 385.304C569.432 384.769 570.829 385.297 571.362 386.488C571.895 387.674 571.362 389.066 570.176 389.596C568.724 390.249 567.248 390.874 565.75 391.469C565.467 391.583 565.173 391.636 564.884 391.636ZM385.582 390.402C385.302 390.402 385.017 390.352 384.741 390.246C383.528 389.782 382.921 388.422 383.386 387.208C383.923 385.802 384.41 384.373 384.838 382.925C385.21 381.682 386.533 380.967 387.761 381.338C389.011 381.708 389.718 383.018 389.351 384.263C388.887 385.826 388.363 387.369 387.779 388.891C387.42 389.828 386.528 390.402 385.582 390.402ZM478.817 386.355C478.449 386.355 478.082 386.27 477.737 386.091L477.245 385.843C477.231 385.836 477.214 385.827 477.199 385.82L473.532 383.979C472.37 383.396 471.901 381.982 472.479 380.82C473.063 379.662 474.493 379.2 475.637 379.77C477.369 380.639 478.541 381.225 479.323 381.689L479.35 381.634L479.897 381.914C481.05 382.511 481.505 383.929 480.908 385.085C480.49 385.892 479.667 386.355 478.817 386.355ZM581.694 383.219C580.908 383.219 580.135 382.822 579.69 382.1C579.01 380.993 579.354 379.542 580.461 378.862C581.767 378.058 583.058 377.226 584.322 376.367C585.387 375.636 586.858 375.912 587.593 376.992C588.32 378.067 588.043 379.529 586.968 380.259C585.64 381.16 584.293 382.029 582.924 382.869C582.544 383.106 582.117 383.219 581.694 383.219ZM67.9716 382.659C67.4706 382.659 66.9656 382.5 66.5376 382.169C65.2666 381.19 64.0196 380.181 62.7946 379.148C61.8016 378.309 61.6776 376.825 62.5166 375.832C63.3506 374.837 64.8306 374.706 65.8326 375.554C67.0016 376.542 68.1946 377.505 69.4106 378.442C70.4396 379.235 70.6306 380.713 69.8376 381.742C69.3736 382.344 68.6766 382.659 67.9716 382.659ZM461.924 377.886C461.57 377.886 461.212 377.805 460.872 377.637L456.648 375.521C455.49 374.939 455.021 373.524 455.6 372.364C456.184 371.199 457.599 370.738 458.762 371.316L462.976 373.428C464.138 374.009 464.607 375.423 464.028 376.585C463.615 377.41 462.783 377.886 461.924 377.886ZM389.47 372.066C389.424 372.066 389.373 372.064 389.324 372.061C388.028 371.98 387.04 370.862 387.123 369.565L387.417 364.869C387.499 363.573 388.501 362.575 389.912 362.667C391.208 362.748 392.196 363.867 392.113 365.163L391.819 369.86C391.74 371.107 390.706 372.066 389.47 372.066ZM596.768 371.988C596.124 371.988 595.481 371.723 595.017 371.204C594.149 370.237 594.231 368.75 595.197 367.881C596.341 366.858 597.458 365.811 598.556 364.735C599.484 363.825 600.973 363.848 601.883 364.769C602.792 365.697 602.775 367.189 601.846 368.099C600.701 369.221 599.53 370.319 598.339 371.387C597.889 371.79 597.328 371.988 596.768 371.988ZM54.1806 369.899C53.5396 369.899 52.8985 369.637 52.4345 369.122C51.3585 367.932 50.3105 366.719 49.2885 365.48C48.4615 364.478 48.6036 362.994 49.6056 362.167C50.6116 361.345 52.0916 361.489 52.9186 362.484C53.8956 363.667 54.8975 364.83 55.9265 365.97C56.7975 366.932 56.7216 368.422 55.7566 369.292C55.3086 369.699 54.7436 369.899 54.1806 369.899ZM445.049 369.432C444.691 369.432 444.332 369.352 443.992 369.182L439.773 367.065C438.61 366.484 438.141 365.071 438.72 363.908C439.309 362.745 440.71 362.286 441.877 362.855L446.106 364.976C447.268 365.559 447.732 366.975 447.149 368.135C446.74 368.959 445.908 369.432 445.049 369.432ZM428.588 360.26C428.123 360.26 427.654 360.124 427.245 359.842C425.927 358.925 424.626 357.976 423.353 356.99C422.323 356.195 422.135 354.715 422.93 353.688C423.729 352.663 425.213 352.479 426.229 353.268C427.438 354.203 428.674 355.106 429.929 355.972C430.994 356.712 431.262 358.178 430.522 359.246C430.063 359.906 429.332 360.26 428.588 360.26ZM609.589 358.251C609.079 358.251 608.569 358.088 608.142 357.752C607.118 356.953 606.933 355.473 607.738 354.45C608.676 353.244 609.594 352.015 610.496 350.762C611.254 349.7 612.72 349.466 613.781 350.222C614.834 350.98 615.077 352.451 614.319 353.506C613.381 354.814 612.425 356.093 611.442 357.346C610.978 357.941 610.288 358.251 609.589 358.251ZM42.8796 354.876C42.0936 354.876 41.3246 354.483 40.8786 353.766C40.0326 352.406 39.2166 351.025 38.4316 349.62C37.7946 348.487 38.1996 347.054 39.3326 346.417C40.4626 345.783 41.8986 346.183 42.5356 347.318C43.2876 348.658 44.0686 349.979 44.8766 351.279C45.5616 352.385 45.2236 353.834 44.1206 354.521C43.7326 354.761 43.3046 354.876 42.8796 354.876ZM390.642 353.276C390.596 353.276 390.545 353.274 390.491 353.272C389.195 353.189 388.212 352.07 388.295 350.774L388.4 349.112C388.441 348.45 388.763 347.839 389.278 347.424C389.801 347.01 390.496 346.833 391.116 346.939C392.091 347.093 393.069 347.235 394.057 347.359C395.343 347.525 396.258 348.701 396.092 349.99C395.927 351.279 394.718 352.157 393.459 352.028C393.23 351.998 392.995 351.968 392.765 351.936C392.384 352.734 391.57 353.276 390.642 353.276ZM407.88 352.946C406.579 352.946 405.504 351.893 405.504 350.593C405.504 349.292 406.538 348.24 407.839 348.24H407.88C409.392 348.24 410.913 348.208 412.448 348.148C413.936 348.118 414.842 349.111 414.892 350.404C414.943 351.702 413.932 352.798 412.631 352.849C411.037 352.913 409.456 352.946 407.88 352.946ZM619.901 342.532C619.51 342.532 619.12 342.438 618.757 342.236C617.621 341.604 617.213 340.172 617.842 339.037L618.164 338.451C618.522 337.783 619.248 337.197 620.002 337.1C621.233 336.939 622.465 336.748 623.692 336.523C624.942 336.277 626.192 337.132 626.431 338.414C626.664 339.691 625.815 340.916 624.537 341.15C623.618 341.32 622.694 341.47 621.77 341.605C621.321 342.201 620.618 342.532 619.901 342.532ZM34.3916 338.095C33.4606 338.095 32.5766 337.536 32.2086 336.619C31.6136 335.137 31.0486 333.639 30.5106 332.123C30.0756 330.898 30.7176 329.554 31.9416 329.119C33.1526 328.689 34.5106 329.324 34.9446 330.551C35.4596 332.003 36.0016 333.442 36.5736 334.864C37.0576 336.071 36.4746 337.44 35.2686 337.925C34.9826 338.04 34.6836 338.095 34.3916 338.095ZM637.687 337.39C636.741 337.39 635.849 336.813 635.491 335.876C635.026 334.663 635.634 333.302 636.846 332.838C638.275 332.293 639.677 331.707 641.046 331.082C642.236 330.558 643.629 331.066 644.166 332.247C644.704 333.431 644.185 334.825 643.004 335.365C641.542 336.032 640.049 336.654 638.527 337.236C638.247 337.341 637.967 337.39 637.687 337.39ZM654.268 328.573C653.533 328.573 652.802 328.226 652.347 327.576C651.598 326.514 651.851 325.046 652.912 324.297C654.157 323.417 655.375 322.503 656.56 321.553C657.567 320.744 659.055 320.901 659.869 321.918C660.679 322.932 660.517 324.414 659.502 325.225C658.243 326.234 656.951 327.208 655.623 328.143C655.21 328.433 654.736 328.573 654.268 328.573ZM28.8336 320.124C27.7536 320.124 26.7816 319.378 26.5376 318.279C26.1906 316.712 25.8756 315.145 25.5916 313.575C25.3616 312.295 26.2096 311.073 27.4886 310.841C28.7866 310.604 29.9886 311.462 30.2226 312.739C30.4946 314.249 30.7995 315.756 31.1325 317.263C31.4125 318.532 30.6116 319.788 29.3426 320.069C29.1736 320.105 29.0016 320.124 28.8336 320.124ZM668.15 315.931C667.608 315.931 667.066 315.745 666.62 315.366C665.633 314.52 665.517 313.036 666.363 312.048C667.351 310.892 668.306 309.706 669.226 308.491C670.007 307.452 671.482 307.25 672.521 308.034C673.555 308.817 673.761 310.292 672.976 311.331C672.001 312.62 670.991 313.879 669.938 315.108C669.475 315.65 668.813 315.931 668.15 315.931ZM26.2596 301.498C25.0206 301.498 23.9825 300.528 23.9135 299.276C23.8245 297.672 23.7686 296.073 23.7476 294.472C23.7316 293.174 24.7706 292.107 26.0706 292.089C26.0796 292.089 26.0916 292.089 26.1006 292.089C27.3876 292.089 28.4376 293.123 28.4536 294.412C28.4746 295.945 28.5246 297.479 28.6096 299.015C28.6836 300.313 27.6906 301.423 26.3926 301.495C26.3496 301.498 26.3036 301.498 26.2596 301.498ZM678.509 300.271C678.155 300.271 677.797 300.193 677.462 300.025C676.299 299.446 675.825 298.033 676.404 296.87C677.08 295.507 677.714 294.121 678.311 292.72C678.821 291.523 680.196 290.967 681.399 291.477C682.594 291.987 683.15 293.368 682.64 294.563C682.006 296.052 681.335 297.52 680.614 298.965C680.205 299.793 679.373 300.271 678.509 300.271ZM26.7956 282.705C26.7086 282.705 26.6216 282.7 26.5316 282.691C25.2406 282.546 24.3096 281.381 24.4546 280.089C24.6336 278.495 24.8475 276.907 25.0935 275.323C25.2955 274.043 26.4696 273.163 27.7816 273.361C29.0636 273.561 29.9436 274.765 29.7436 276.049C29.5066 277.563 29.3025 279.087 29.1325 280.612C28.9965 281.815 27.9786 282.705 26.7956 282.705ZM684.731 282.562C684.571 282.562 684.4 282.546 684.235 282.509C682.962 282.233 682.158 280.981 682.433 279.713C682.75 278.229 683.031 276.732 683.26 275.228C683.458 273.943 684.685 273.068 685.945 273.261C687.227 273.458 688.109 274.66 687.912 275.945C687.664 277.542 687.374 279.13 687.029 280.706C686.795 281.808 685.816 282.562 684.731 282.562ZM30.4626 264.265C30.2466 264.265 30.0276 264.235 29.8126 264.173C28.5646 263.817 27.8405 262.514 28.1975 261.264C28.3405 260.772 28.4846 260.278 28.6346 259.787L28.2646 259.378C27.3986 258.408 27.4835 256.921 28.4555 256.058C29.4225 255.196 30.9095 255.274 31.7755 256.249L33.0066 257.602C33.5816 258.223 33.7766 259.102 33.5216 259.909C33.2436 260.789 32.9765 261.674 32.7235 262.56C32.4275 263.591 31.4846 264.265 30.4626 264.265ZM686.399 263.865C685.135 263.865 684.092 262.865 684.046 261.595C683.995 260.083 683.89 258.569 683.742 257.052C683.609 255.758 684.555 254.605 685.847 254.476C687.143 254.364 688.296 255.292 688.42 256.583C688.585 258.201 688.691 259.816 688.751 261.429C688.797 262.727 687.781 263.817 686.48 263.863C686.455 263.865 686.428 263.865 686.399 263.865ZM21.3476 249.037C20.5916 249.037 19.8516 248.674 19.3966 248.003C18.5006 246.677 17.6296 245.333 16.7866 243.968C16.1066 242.861 16.4495 241.41 17.5545 240.728C18.6645 240.048 20.1126 240.393 20.7946 241.495C21.6006 242.805 22.4356 244.094 23.2946 245.365C24.0226 246.443 23.7396 247.907 22.6646 248.633C22.2596 248.906 21.7996 249.037 21.3476 249.037ZM683.381 245.338C682.365 245.338 681.428 244.676 681.124 243.651C680.885 242.835 680.628 242.024 680.356 241.213C680.149 240.574 679.933 239.951 679.704 239.331C679.254 238.113 679.874 236.76 681.092 236.309C682.323 235.854 683.67 236.477 684.116 237.699C684.364 238.37 684.598 239.048 684.823 239.728C685.113 240.585 685.38 241.451 685.636 242.317C686.004 243.564 685.291 244.872 684.046 245.24C683.826 245.308 683.602 245.338 683.381 245.338ZM12.1946 232.619C11.2966 232.619 10.4395 232.104 10.0465 231.231C9.38954 229.772 8.76454 228.294 8.17154 226.801C7.68954 225.593 8.27956 224.225 9.48856 223.745C10.6946 223.262 12.0646 223.853 12.5426 225.059C13.1126 226.488 13.7096 227.901 14.3396 229.301C14.8726 230.485 14.3435 231.879 13.1585 232.412C12.8455 232.553 12.5166 232.619 12.1946 232.619ZM675.871 228.129C675.071 228.129 674.286 227.718 673.85 226.978C673.39 226.206 672.921 225.445 672.434 224.691C671.984 224 671.929 223.122 672.291 222.379L673.123 220.656C673.693 219.489 675.095 219.004 676.267 219.562C677.439 220.129 677.926 221.536 677.361 222.705L677.094 223.257C677.365 223.693 677.632 224.132 677.894 224.573C678.56 225.692 678.193 227.136 677.072 227.8C676.694 228.024 676.28 228.129 675.871 228.129ZM5.9636 214.874C4.9186 214.874 3.96457 214.173 3.68857 213.114C3.28657 211.567 2.91457 210.012 2.57157 208.449C2.29357 207.18 3.09757 205.926 4.36557 205.648C5.62757 205.377 6.88854 206.169 7.16654 207.442C7.49554 208.945 7.85355 210.441 8.24155 211.927C8.57055 213.184 7.81659 214.469 6.55759 214.797C6.36059 214.848 6.1606 214.874 5.9636 214.874ZM680.895 211.105C680.601 211.105 680.302 211.05 680.017 210.935C678.808 210.45 678.225 209.078 678.712 207.874C679.29 206.438 679.852 204.993 680.402 203.538C680.862 202.323 682.199 201.705 683.435 202.168C684.653 202.628 685.264 203.986 684.805 205.201C684.243 206.688 683.664 208.165 683.076 209.629C682.71 210.549 681.827 211.105 680.895 211.105ZM2.69858 196.358C1.49858 196.358 0.474593 195.446 0.359593 194.231C0.205593 192.638 0.0885754 191.042 0.00357542 189.44C-0.0674246 188.144 0.92756 187.034 2.22556 186.965C3.42756 186.797 4.6316 187.888 4.7006 189.187C4.7856 190.72 4.89758 192.253 5.04258 193.78C5.16658 195.074 4.21955 196.223 2.92655 196.347C2.84755 196.356 2.77158 196.358 2.69858 196.358ZM687.218 193.389C686.984 193.389 686.744 193.355 686.51 193.281C685.27 192.89 684.585 191.567 684.976 190.328C685.44 188.853 685.895 187.366 686.34 185.868C686.717 184.625 688.013 183.919 689.268 184.285C690.513 184.655 691.221 185.965 690.853 187.21C690.399 188.736 689.934 190.246 689.461 191.744C689.144 192.748 688.22 193.389 687.218 193.389ZM2.46158 177.558C2.40658 177.558 2.35157 177.556 2.29557 177.553C0.999568 177.464 0.02057 176.34 0.11057 175.044C0.22057 173.445 0.365577 171.85 0.542577 170.256C0.689577 168.967 1.84259 168.043 3.14359 168.178C4.43459 168.323 5.36556 169.488 5.22056 170.779C5.04856 172.305 4.91255 173.835 4.80655 175.365C4.72055 176.608 3.68658 177.558 2.46158 177.558ZM692.269 175.26C692.085 175.26 691.901 175.239 691.712 175.193C690.453 174.887 689.677 173.615 689.98 172.353C690.348 170.846 690.707 169.325 691.056 167.796C691.35 166.532 692.604 165.737 693.877 166.031C695.141 166.323 695.931 167.587 695.642 168.853C695.288 170.399 694.925 171.935 694.557 173.46C694.295 174.538 693.33 175.26 692.269 175.26ZM5.32956 158.971C5.14556 158.971 4.95959 158.95 4.77359 158.904C3.51259 158.598 2.73554 157.328 3.04154 156.064C3.41654 154.511 3.82756 152.957 4.27256 151.413C4.63556 150.168 5.92956 149.444 7.18656 149.805C8.43456 150.166 9.15557 151.471 8.79557 152.719C8.36757 154.199 7.9756 155.683 7.6146 157.172C7.3536 158.247 6.39056 158.971 5.32956 158.971ZM695.895 156.806C695.822 156.806 695.744 156.803 695.669 156.797C694.378 156.675 693.427 155.526 693.546 154.233C693.688 152.733 693.767 151.23 693.785 149.727C693.799 148.438 694.85 147.402 696.138 147.402C696.148 147.402 696.157 147.402 696.165 147.402C697.466 147.418 698.505 148.484 698.491 149.782C698.472 151.413 698.385 153.045 698.233 154.674C698.118 155.892 697.094 156.806 695.895 156.806ZM11.3166 141.146C11.0036 141.146 10.6846 141.084 10.3776 140.949C9.1876 140.429 8.64259 139.042 9.16459 137.851C9.80559 136.383 10.4796 134.926 11.1886 133.478C11.7606 132.315 13.1736 131.828 14.3366 132.403C15.5036 132.973 15.9836 134.383 15.4116 135.551C14.7336 136.934 14.0886 138.331 13.4746 139.735C13.0886 140.621 12.2246 141.146 11.3166 141.146ZM694.681 138.1C693.601 138.1 692.632 137.358 692.388 136.264C692.053 134.794 691.671 133.337 691.226 131.898C690.839 130.657 691.534 129.338 692.775 128.955C694.034 128.58 695.335 129.268 695.72 130.506C696.202 132.064 696.62 133.64 696.975 135.231C697.264 136.499 696.464 137.758 695.201 138.044C695.025 138.082 694.851 138.1 694.681 138.1ZM20.3296 124.644C19.8816 124.644 19.4266 124.515 19.0246 124.248C17.9446 123.524 17.6525 122.065 18.3745 120.983C19.2645 119.655 20.1806 118.343 21.1316 117.045C21.8946 115.993 23.3746 115.768 24.4206 116.537C25.4676 117.305 25.6956 118.778 24.9286 119.826C24.0186 121.069 23.1386 122.326 22.2906 123.599C21.8346 124.276 21.0896 124.644 20.3296 124.644ZM687.815 120.655C687.01 120.655 686.22 120.24 685.784 119.49C685.025 118.194 684.217 116.926 683.352 115.692C682.603 114.628 682.866 113.16 683.927 112.415C684.992 111.675 686.459 111.923 687.203 112.994C688.141 114.333 689.023 115.708 689.846 117.114C690.503 118.235 690.126 119.676 689.005 120.333C688.629 120.552 688.22 120.655 687.815 120.655ZM681.294 111.604C680.642 111.604 679.989 111.333 679.524 110.8C678.537 109.67 677.498 108.567 676.418 107.498C675.494 106.584 675.485 105.095 676.399 104.171C677.309 103.245 678.798 103.24 679.727 104.153C680.889 105.304 682.001 106.49 683.063 107.703C683.922 108.682 683.821 110.169 682.842 111.023C682.398 111.413 681.846 111.604 681.294 111.604ZM32.0916 109.982C31.5086 109.982 30.9246 109.766 30.4666 109.332C29.5276 108.436 29.4926 106.947 30.3886 106.005C31.4876 104.854 32.6176 103.718 33.7806 102.602C34.7186 101.699 36.2076 101.734 37.1076 102.666C38.0086 103.604 37.9786 105.093 37.0436 105.993C35.9316 107.064 34.8466 108.148 33.7946 109.254C33.3326 109.738 32.7126 109.982 32.0916 109.982ZM667.153 99.263C666.698 99.263 666.243 99.134 665.839 98.863C664.585 98.017 663.298 97.206 661.979 96.434C660.863 95.774 660.486 94.332 661.148 93.212C661.805 92.086 663.248 91.723 664.369 92.376C665.762 93.199 667.132 94.06 668.469 94.957C669.544 95.683 669.834 97.145 669.108 98.222C668.651 98.897 667.907 99.263 667.153 99.263ZM46.1656 97.521C45.4486 97.521 44.7405 97.194 44.2785 96.579C43.4995 95.538 43.7136 94.063 44.7526 93.284C46.0206 92.337 47.3166 91.402 48.6426 90.485C49.7086 89.745 51.1725 90.012 51.9165 91.085C52.6535 92.154 52.3856 93.62 51.3166 94.359C50.0416 95.239 48.7916 96.138 47.5736 97.052C47.1516 97.369 46.6546 97.521 46.1656 97.521ZM650.609 90.285C650.255 90.285 649.897 90.204 649.556 90.036L648.771 89.643C647.958 89.236 647.452 88.3971 647.47 87.4901L647.484 86.199C647.484 85.395 647.465 84.593 647.433 83.795C647.383 82.497 648.399 81.403 649.695 81.353C649.727 81.351 649.758 81.351 649.787 81.351C651.046 81.351 652.089 82.346 652.14 83.612C652.172 84.469 652.191 85.328 652.191 86.188C652.954 86.88 653.197 88.02 652.714 88.984C652.301 89.809 651.469 90.285 650.609 90.285ZM62.0226 87.431C61.1866 87.431 60.3756 86.983 59.9496 86.195C59.3316 85.051 59.7595 83.624 60.9035 83.008C62.2965 82.257 63.7166 81.526 65.1616 80.814C66.3286 80.24 67.7396 80.718 68.3116 81.882C68.8886 83.047 68.4086 84.458 67.2436 85.032C65.8486 85.722 64.4795 86.425 63.1375 87.148C62.7835 87.341 62.3996 87.431 62.0226 87.431ZM79.1506 79.671C78.2016 79.671 77.3056 79.092 76.9496 78.15C76.4896 76.935 77.1036 75.576 78.3186 75.117C79.7936 74.559 81.2926 74.021 82.8156 73.499C84.0356 73.083 85.3796 73.733 85.8026 74.965C86.2236 76.194 85.5666 77.531 84.3366 77.952C82.8636 78.455 81.4116 78.979 79.9826 79.519C79.7086 79.624 79.4286 79.671 79.1506 79.671ZM97.1126 74.095C96.0576 74.095 95.0996 73.383 94.8326 72.312C94.5156 71.053 95.2836 69.775 96.5446 69.461C98.1006 69.07 99.6486 68.708 101.187 68.367C102.449 68.085 103.71 68.887 103.993 70.157C104.273 71.425 103.472 72.682 102.203 72.963C100.707 73.294 99.1995 73.648 97.6845 74.025C97.4935 74.072 97.3006 74.095 97.1126 74.095ZM647.558 72.151C646.529 72.151 645.587 71.475 645.292 70.439C644.884 68.989 644.415 67.558 643.891 66.147C643.441 64.929 644.061 63.573 645.279 63.121C646.488 62.668 647.848 63.291 648.303 64.507C648.872 66.037 649.378 67.588 649.824 69.157C650.178 70.407 649.452 71.708 648.197 72.061C647.985 72.124 647.77 72.151 647.558 72.151ZM115.571 70.434C114.429 70.434 113.427 69.602 113.248 68.437C113.051 67.153 113.933 65.953 115.217 65.756C116.8 65.512 118.367 65.287 119.914 65.076C121.187 64.894 122.387 65.802 122.563 67.091C122.738 68.378 121.837 69.5631 120.548 69.7401C119.029 69.9471 117.489 70.167 115.929 70.406C115.81 70.425 115.688 70.434 115.571 70.434ZM134.252 68.13C133.059 68.13 132.037 67.227 131.913 66.016C131.782 64.723 132.724 63.567 134.015 63.436L138.705 62.965C139.989 62.857 141.152 63.783 141.278 65.074C141.407 66.368 140.463 67.519 139.169 67.647L134.493 68.118C134.41 68.125 134.33 68.13 134.252 68.13ZM152.175 64.582C151.61 64.582 151.042 64.38 150.589 63.968C149.629 63.092 149.559 61.604 150.435 60.643C151.518 59.457 152.618 58.297 153.742 57.162C154.654 56.236 156.15 56.231 157.069 57.144C157.993 58.058 158.002 59.547 157.088 60.471C156.01 61.56 154.951 62.675 153.915 63.814C153.45 64.322 152.814 64.582 152.175 64.582ZM377.163 56.415C375.95 56.415 374.916 55.477 374.824 54.244C374.722 52.948 375.692 51.818 376.983 51.717C378.591 51.592 380.191 51.503 381.786 51.448C383.068 51.321 384.171 52.418 384.222 53.716C384.268 55.014 383.252 56.103 381.951 56.149C380.421 56.204 378.887 56.289 377.351 56.409C377.287 56.413 377.228 56.415 377.163 56.415ZM639.672 55.145C638.918 55.145 638.174 54.78 637.719 54.104C636.878 52.857 635.991 51.639 635.054 50.453C634.249 49.435 634.424 47.955 635.44 47.149C636.456 46.347 637.94 46.51 638.749 47.535C639.76 48.812 640.721 50.132 641.626 51.48C642.353 52.558 642.063 54.019 640.987 54.745C640.582 55.016 640.127 55.145 639.672 55.145ZM395.353 54.671C394.686 54.671 394.02 54.389 393.556 53.837C392.715 52.847 392.839 51.362 393.831 50.522C395.076 49.469 396.368 48.47 397.696 47.521C398.762 46.767 400.223 47.008 400.981 48.068C401.735 49.125 401.492 50.595 400.434 51.349C399.207 52.224 398.017 53.146 396.872 54.116C396.433 54.488 395.89 54.671 395.353 54.671ZM363.799 53.987C363.445 53.987 363.087 53.906 362.747 53.739L358.836 51.779C357.678 51.197 357.048 49.706 357.632 48.544C358.211 47.383 359.461 46.825 360.638 47.418L364.852 49.53C366.014 50.111 366.483 51.524 365.904 52.687C365.49 53.511 364.658 53.987 363.799 53.987ZM165.955 51.788C165.256 51.788 164.565 51.478 164.101 50.885C163.299 49.863 163.48 48.383 164.503 47.583C165.767 46.592 167.051 45.632 168.354 44.702C169.415 43.95 170.881 44.192 171.637 45.251C172.391 46.311 172.145 47.779 171.088 48.535C169.84 49.424 168.611 50.343 167.402 51.288C166.973 51.624 166.46 51.788 165.955 51.788ZM346.924 45.533C346.566 45.533 346.207 45.452 345.867 45.283L341.653 43.171C340.495 42.59 340.026 41.174 340.605 40.014C341.188 38.849 342.608 38.387 343.766 38.966L347.981 41.077C349.138 41.658 349.607 43.074 349.028 44.234C348.615 45.058 347.783 45.533 346.924 45.533ZM411.409 45.007C410.476 45.007 409.594 44.451 409.226 43.534C408.739 42.328 409.323 40.956 410.531 40.471C411.754 39.977 412.995 39.52 414.254 39.101L415.091 38.821C416.345 38.412 417.654 39.078 418.069 40.312C418.478 41.546 417.811 42.877 416.58 43.288L415.744 43.566C414.576 43.954 413.428 44.379 412.288 44.837C412.002 44.952 411.703 45.007 411.409 45.007ZM181.708 41.533C180.867 41.533 180.051 41.08 179.629 40.286C179.018 39.139 179.454 37.715 180.601 37.103C182.017 36.35 183.446 35.628 184.891 34.934C186.054 34.374 187.467 34.87 188.03 36.041C188.59 37.213 188.094 38.617 186.923 39.18C185.537 39.842 184.168 40.536 182.812 41.257C182.46 41.443 182.081 41.533 181.708 41.533ZM626.933 41.399C626.418 41.399 625.909 41.233 625.477 40.891L625.095 40.597C624.006 39.758 622.926 38.982 621.819 38.246C620.739 37.524 620.445 36.065 621.166 34.983C621.884 33.896 623.345 33.614 624.43 34.326C625.629 35.126 626.801 35.967 627.936 36.847L628.391 37.201C629.412 38.005 629.586 39.485 628.782 40.505C628.316 41.094 627.627 41.399 626.933 41.399ZM253.305 39.982C252.319 39.982 251.4 39.357 251.072 38.371C250.663 37.137 251.329 35.807 252.563 35.395L257.03 33.911C258.261 33.511 259.594 34.17 260.006 35.402C260.415 36.636 259.749 37.966 258.515 38.377L254.048 39.861C253.801 39.943 253.551 39.982 253.305 39.982ZM429.231 38.955C428.243 38.955 427.323 38.33 426.997 37.344C426.589 36.11 427.255 34.78 428.491 34.368L432.958 32.884C434.189 32.477 435.522 33.144 435.932 34.375C436.341 35.609 435.674 36.939 434.438 37.351L429.971 38.835C429.728 38.915 429.475 38.955 429.231 38.955ZM330.044 37.08C329.69 37.08 329.332 37 328.992 36.832L326.327 35.499C325.765 35.21 325.283 34.959 324.787 34.72C323.62 34.15 323.133 32.742 323.702 31.575C324.272 30.403 325.702 29.928 326.846 30.488C327.379 30.75 327.908 31.019 328.432 31.292C328.446 31.297 329.448 31.8 331.097 32.623C332.26 33.204 332.729 34.618 332.15 35.78C331.735 36.604 330.903 37.08 330.044 37.08ZM240.449 35.906C240.148 35.906 239.843 35.848 239.549 35.726C238.152 35.147 236.734 34.624 235.305 34.155C234.071 33.75 233.398 32.422 233.802 31.186C234.202 29.952 235.521 29.265 236.771 29.683C238.315 30.188 239.843 30.754 241.351 31.379C242.553 31.878 243.122 33.254 242.624 34.453C242.248 35.359 241.37 35.906 240.449 35.906ZM199.004 34.166C198.011 34.166 197.09 33.534 196.766 32.539C196.364 31.303 197.041 29.977 198.278 29.575C199.832 29.07 201.405 28.633 202.991 28.258C204.243 27.945 205.523 28.738 205.822 30.005C206.123 31.269 205.34 32.537 204.075 32.836C202.614 33.183 201.164 33.587 199.73 34.052C199.488 34.129 199.245 34.166 199.004 34.166ZM271.168 34.044C270.183 34.044 269.263 33.419 268.935 32.433C268.526 31.199 269.192 29.869 270.426 29.457L274.893 27.973C276.125 27.571 277.457 28.2351 277.869 29.4641C278.278 30.6981 277.612 32.028 276.378 32.439L271.911 33.923C271.665 34.005 271.414 34.044 271.168 34.044ZM447.094 33.02C446.107 33.02 445.187 32.395 444.861 31.409C444.452 30.175 445.119 28.845 446.355 28.433L450.822 26.949C452.049 26.54 453.386 27.209 453.795 28.44C454.204 29.674 453.538 31.004 452.302 31.415L447.835 32.899C447.591 32.98 447.338 33.02 447.094 33.02ZM610.683 31.93C610.329 31.93 609.971 31.85 609.631 31.682L605.679 29.702C604.516 29.118 603.914 27.638 604.493 26.475C605.076 25.317 606.345 24.773 607.521 25.361L611.735 27.473C612.898 28.054 613.367 29.468 612.788 30.63C612.374 31.455 611.542 31.93 610.683 31.93ZM222.23 31.5C222.166 31.5 222.102 31.498 222.035 31.493C220.533 31.369 219.027 31.304 217.52 31.298C216.219 31.291 215.171 30.234 215.176 28.934C215.183 27.638 216.235 26.592 217.529 26.592C217.531 26.592 217.536 26.592 217.541 26.592C219.17 26.599 220.799 26.668 222.421 26.802C223.717 26.91 224.68 28.045 224.574 29.341C224.47 30.57 223.443 31.5 222.23 31.5ZM312.618 30.035C312.434 30.035 312.246 30.015 312.057 29.966C310.59 29.608 309.106 29.304 307.626 29.058C306.344 28.847 305.48 27.636 305.691 26.353C305.902 25.066 307.079 24.182 308.398 24.416C309.998 24.68 311.591 25.007 313.177 25.398C314.441 25.706 315.213 26.981 314.901 28.242C314.64 29.315 313.68 30.035 312.618 30.035ZM289.259 28.955C288.113 28.955 287.108 28.116 286.933 26.949C286.743 25.664 287.627 24.468 288.914 24.274C290.527 24.033 292.147 23.854 293.771 23.741C295.021 23.599 296.19 24.624 296.283 25.922C296.375 27.218 295.398 28.344 294.102 28.434C292.602 28.542 291.101 28.707 289.607 28.93C289.491 28.945 289.374 28.955 289.259 28.955ZM465.2 28.006C464.052 28.006 463.045 27.158 462.875 25.986C462.691 24.699 463.588 23.507 464.874 23.323C466.372 23.109 467.875 22.948 469.378 22.845C470.325 22.696 471.248 23.063 471.763 23.863C472.466 24.952 472.223 26.356 471.138 27.064C471.134 27.066 470.982 27.163 470.978 27.168C470.642 27.379 470.261 27.506 469.866 27.531C468.418 27.626 466.975 27.777 465.537 27.984C465.426 27.999 465.311 28.006 465.2 28.006ZM593.808 23.475C593.454 23.475 593.096 23.394 592.756 23.226L590.458 22.08C589.681 21.68 589.13 21.4 588.573 21.133C587.401 20.575 586.901 19.171 587.462 17.999C588.023 16.825 589.429 16.324 590.596 16.887C591.207 17.177 591.805 17.48 592.402 17.79L594.861 19.017C596.024 19.599 596.493 21.012 595.914 22.174C595.499 22.999 594.667 23.475 593.808 23.475ZM482.512 21.255C481.538 21.255 480.628 20.646 480.288 19.674C479.865 18.447 480.513 17.108 481.74 16.68L486.229 15.178C487.489 14.769 488.793 15.438 489.208 16.669C489.617 17.9 488.95 19.233 487.719 19.645L483.284 21.124C483.031 21.213 482.77 21.255 482.512 21.255ZM500.37 15.312C499.383 15.312 498.464 14.687 498.137 13.701C497.729 12.468 498.395 11.137 499.631 10.725L504.098 9.24103C505.325 8.83003 506.667 9.50299 507.072 10.732C507.48 11.966 506.814 13.297 505.578 13.708L501.111 15.192C500.867 15.273 500.614 15.312 500.37 15.312ZM576.924 15.012C576.566 15.012 576.207 14.931 575.871 14.761L571.652 12.654C570.49 12.075 570.016 10.662 570.595 9.49902C571.174 8.33402 572.594 7.86503 573.747 8.43903L577.976 10.555C579.138 11.136 579.607 12.55 579.028 13.712C578.615 14.536 577.783 15.012 576.924 15.012ZM518.233 9.375C517.245 9.375 516.326 8.75004 516 7.76404C515.591 6.53104 516.258 5.20002 517.494 4.78802L521.961 3.30402C523.192 2.89302 524.525 3.56604 524.934 4.79504C525.343 6.02904 524.677 7.36 523.441 7.771L518.974 9.255C518.73 9.336 518.478 9.375 518.233 9.375ZM559.736 7.35101C559.51 7.35101 559.276 7.31905 559.047 7.24805C557.605 6.80705 556.143 6.42304 554.672 6.09204C553.403 5.80904 552.609 4.55004 552.889 3.28204C553.179 2.01604 554.419 1.21404 555.702 1.50104C557.293 1.85504 558.864 2.27102 560.427 2.74902C561.668 3.12802 562.366 4.44404 561.99 5.68604C561.676 6.69804 560.743 7.35101 559.736 7.35101ZM536.474 4.95404C535.275 4.95404 534.249 4.03702 534.135 2.81702C534.015 1.52302 534.966 0.379019 536.262 0.257019C537.885 0.108019 539.516 0.021 541.143 0C541.157 0 541.166 0 541.175 0C542.462 0 543.509 1.03404 543.528 2.32104C543.547 3.62204 542.508 4.68799 541.208 4.70599C539.7 4.72699 538.198 4.80501 536.695 4.94501C536.62 4.95201 536.547 4.95404 536.474 4.95404Z" fill="#636466"/>
<path d="M656.206 131.223C652.437 126.919 647.488 123.447 642.006 120.933C641.399 120.623 640.806 120.306 640.181 120.019C639.575 119.706 638.973 119.389 638.352 119.102C637.737 118.787 637.139 118.466 636.509 118.178C635.903 117.865 635.301 117.549 634.685 117.261C634.07 116.948 633.472 116.629 632.842 116.34C632.236 116.029 631.633 115.71 631.013 115.423C630.407 115.113 629.805 114.791 629.175 114.506C628.564 114.193 627.966 113.872 627.341 113.584C626.739 113.274 626.142 112.957 625.522 112.672C624.911 112.357 624.308 112.036 623.674 111.746C623.072 111.44 622.484 111.121 621.867 110.841C621.247 110.526 620.64 110.204 620.011 109.91C619.405 109.602 618.817 109.282 618.196 109C617.581 108.686 616.983 108.364 616.354 108.076C615.94 107.867 615.563 107.61 615.145 107.412L616.432 87.998C617.02 79.126 613.146 70.542 606.115 65.105C604.318 63.717 602.374 62.5859 600.334 61.7079C599.728 61.3909 599.13 61.0619 598.505 60.7939C597.894 60.4739 597.292 60.1409 596.657 59.8699C596.059 59.5549 595.467 59.2259 594.842 58.9599C594.245 58.6409 593.638 58.3079 593.013 58.0389C592.402 57.7199 591.805 57.387 591.17 57.115C590.559 56.798 589.962 56.4649 589.337 56.1979C588.734 55.8809 588.137 55.5519 587.517 55.2859C586.911 54.9659 586.313 54.6329 585.679 54.3669C585.072 54.0479 584.47 53.717 583.845 53.446C583.239 53.127 582.641 52.7979 582.016 52.5309C581.405 52.2089 580.808 51.8789 580.178 51.6069C579.567 51.2899 578.969 50.9609 578.349 50.6899C577.738 50.3749 577.145 50.0419 576.515 49.7729C575.913 49.4559 575.306 49.1229 574.686 48.8539C574.071 48.5349 573.473 48.2039 572.839 47.9339C572.241 47.6169 571.649 47.2859 571.027 47.0199C570.417 46.7029 569.809 46.3699 569.184 46.1009C568.573 45.7769 567.971 45.4459 567.336 45.1769C566.739 44.8629 566.147 44.534 565.535 44.267C564.919 43.948 564.322 43.6169 563.692 43.3459C563.081 43.0269 562.478 42.6929 561.844 42.4219C561.246 42.1049 560.65 41.7759 560.02 41.5099C559.422 41.1929 558.825 40.8619 558.2 40.5929C557.585 40.2739 556.982 39.9379 556.348 39.6669C555.745 39.3499 555.148 39.0209 554.528 38.7519C548.159 35.4159 540.664 34.708 533.719 37.017L493.99 50.22C488.737 51.964 484.298 55.241 481.103 59.462C475.979 57.98 470.456 58.0399 465.249 59.7699L425.516 72.9759C417.124 75.7659 410.792 82.4639 408.342 90.7059C394.992 86.1359 379.487 85.864 363.853 90.069C363.333 89.6 362.828 89.1179 362.267 88.6839C360.47 87.2979 358.527 86.1669 356.491 85.2939C355.893 84.9809 355.305 84.651 354.684 84.387C354.064 84.063 353.453 83.725 352.819 83.451C352.221 83.141 351.633 82.815 351.022 82.551C350.406 82.229 349.799 81.8939 349.166 81.6249C348.559 81.3059 347.962 80.975 347.337 80.704C346.726 80.385 346.123 80.0539 345.494 79.7829C344.887 79.4699 344.294 79.139 343.669 78.868C343.063 78.553 342.461 78.22 341.836 77.951C341.238 77.636 340.646 77.3049 340.025 77.0439C339.414 76.7169 338.802 76.384 338.164 76.113C337.561 75.796 336.96 75.465 336.344 75.196C335.733 74.877 335.131 74.546 334.501 74.277C333.899 73.962 333.307 73.6309 332.682 73.3669C332.071 73.0429 331.468 72.71 330.839 72.441C330.241 72.126 329.649 71.7969 329.027 71.5309C328.417 71.2089 327.809 70.876 327.18 70.603C326.577 70.286 325.971 69.957 325.346 69.689C324.744 69.372 324.147 69.0409 323.527 68.7699C322.911 68.4479 322.304 68.1169 321.674 67.8489C321.068 67.5319 320.47 67.2009 319.85 66.9319C319.244 66.6149 318.641 66.284 318.021 66.017C317.41 65.695 316.808 65.3649 316.183 65.0929C315.572 64.7759 314.974 64.445 314.344 64.176C313.742 63.861 313.15 63.5319 312.529 63.2659C311.918 62.9469 311.316 62.611 310.686 62.345C304.326 59.006 296.835 58.301 289.891 60.608L249.91 73.8959C249.333 74.0869 248.816 74.365 248.263 74.592C247.746 74.319 247.227 74.068 246.698 73.829C246.087 73.498 245.476 73.1839 244.844 72.9009C244.242 72.5769 243.644 72.2669 243.019 71.9889C242.415 71.6559 241.804 71.3449 241.172 71.0649C240.579 70.7359 239.979 70.4309 239.359 70.1529C238.75 69.8219 238.141 69.51 237.511 69.227C236.914 68.901 236.303 68.593 235.68 68.313C235.082 67.987 234.483 67.6769 233.855 67.3959C233.253 67.0669 232.647 66.757 232.019 66.477C231.417 66.148 230.815 65.838 230.19 65.558C223.83 62.1 216.208 61.231 209.03 63.616C192.934 68.966 179.103 79.7229 169.209 94.3929C161.298 96.5829 151.698 97.5429 141.604 98.5539C127.525 99.9629 111.569 101.557 95.4853 106.902C39.9613 125.356 27.6893 172.933 39.7863 209.331C45.7813 227.373 57.4933 241.266 72.3233 249.751C58.4813 270.92 56.2753 296.529 63.6673 318.774C70.5143 339.376 84.9882 354.615 103.34 362.829C103.958 363.126 104.547 363.468 105.172 363.746C105.788 364.045 106.383 364.387 107.017 364.667C107.63 364.966 108.219 365.306 108.844 365.586C109.46 365.882 110.048 366.222 110.673 366.5C111.284 366.797 111.877 367.137 112.497 367.417C113.115 367.716 113.713 368.058 114.34 368.341C114.956 368.635 115.544 368.975 116.169 369.256C116.785 369.55 117.369 369.89 117.989 370.171C118.612 370.47 119.205 370.815 119.837 371.092C120.448 371.388 121.036 371.728 121.657 372.007C122.275 372.308 122.872 372.651 123.504 372.933C124.12 373.232 124.708 373.572 125.336 373.852C125.957 374.146 126.542 374.487 127.169 374.767C127.78 375.063 128.369 375.406 128.996 375.686C129.617 375.982 130.205 376.323 130.83 376.605C131.441 376.899 132.029 377.239 132.654 377.517C133.277 377.816 133.872 378.163 134.502 378.446C135.113 378.735 135.692 379.078 136.31 379.353C136.937 379.652 137.537 379.997 138.169 380.279C138.78 380.575 139.369 380.915 139.989 381.194C140.61 381.49 141.2 381.838 141.834 382.115C142.445 382.411 143.029 382.749 143.649 383.027C144.271 383.326 144.864 383.671 145.494 383.951C146.107 384.247 146.693 384.585 147.309 384.866C147.932 385.165 148.525 385.505 149.157 385.787C167.748 394.723 190.558 396.341 213.58 388.691C230.526 383.059 243.242 374.426 252.95 364.633C253.442 364.899 253.968 365.113 254.473 365.354C255.068 365.683 255.677 365.975 256.297 366.264C256.892 366.602 257.513 366.893 258.133 367.188C258.731 367.523 259.349 367.813 259.969 368.107C260.567 368.443 261.18 368.732 261.805 369.024C262.396 369.357 263.012 369.649 263.63 369.938C264.225 370.271 264.834 370.561 265.455 370.855C266.052 371.193 266.677 371.485 267.302 371.781C267.892 372.114 268.509 372.404 269.134 372.696C269.724 373.031 270.342 373.323 270.963 373.613C271.556 373.951 272.174 374.24 272.799 374.53C273.387 374.87 274.005 375.162 274.635 375.451C275.221 375.789 275.841 376.076 276.459 376.368C277.052 376.703 277.665 376.995 278.297 377.287C279.786 378.137 281.358 378.893 283.04 379.449L321.082 392.057C326.61 393.884 332.507 393.845 337.916 392.048C340.195 391.288 342.392 390.215 344.437 388.836C351.293 384.201 355.619 376.644 356.137 368.381L359.019 322.382C366.707 319.774 373.665 316.198 379.883 311.676C392.594 317.143 409.744 319.677 432.13 314.025C437.259 322.502 444.46 329.377 453.26 333.889C453.752 334.139 454.276 334.39 454.8 334.638C454.901 334.686 454.993 334.753 455.099 334.806C455.595 335.061 456.115 335.314 456.643 335.562C456.74 335.612 456.827 335.674 456.923 335.725C457.419 335.98 457.944 336.228 458.477 336.477C458.569 336.53 458.661 336.592 458.757 336.644C459.262 336.899 459.791 337.152 460.324 337.407C460.416 337.453 460.494 337.515 460.59 337.561C461.077 337.811 461.602 338.06 462.125 338.308C462.23 338.361 462.318 338.428 462.424 338.48C462.925 338.737 463.458 338.99 463.991 339.245C464.078 339.293 464.161 339.351 464.253 339.397C464.759 339.652 465.287 339.907 465.824 340.16C465.912 340.208 465.994 340.268 466.091 340.314C466.578 340.566 467.103 340.817 467.626 341.063C467.728 341.118 467.824 341.182 467.92 341.235C468.416 341.49 468.94 341.74 469.474 341.991C469.571 342.041 469.658 342.103 469.759 342.152C470.246 342.405 470.765 342.65 471.289 342.901C471.39 342.952 471.481 343.018 471.583 343.071C472.084 343.326 472.612 343.579 473.146 343.829C473.243 343.879 473.325 343.939 473.417 343.987C473.914 344.24 474.438 344.493 474.966 344.743C475.068 344.791 475.154 344.856 475.251 344.907C475.747 345.16 476.276 345.41 476.805 345.66C476.902 345.711 476.984 345.775 477.085 345.823C477.581 346.078 478.105 346.331 478.634 346.581C478.735 346.629 478.822 346.691 478.914 346.742C479.419 346.999 479.948 347.252 480.485 347.505C480.573 347.553 480.655 347.613 480.752 347.659C481.234 347.909 481.749 348.153 482.269 348.397C482.374 348.457 482.471 348.525 482.582 348.579C483.097 348.841 483.635 349.103 484.182 349.36C484.26 349.401 484.338 349.454 484.416 349.495C484.902 349.748 485.422 349.994 485.941 350.24C486.047 350.295 486.143 350.36 486.249 350.415C486.741 350.67 487.27 350.92 487.798 351.173C487.895 351.219 487.982 351.285 488.078 351.334C488.574 351.587 489.099 351.839 489.627 352.092C489.729 352.14 489.815 352.204 489.912 352.251C490.403 352.508 490.936 352.759 491.465 353.009C491.562 353.057 491.65 353.124 491.746 353.17C492.228 353.42 492.743 353.666 493.267 353.91C493.369 353.965 493.465 354.036 493.575 354.092C494.086 354.354 494.628 354.612 495.17 354.869C495.253 354.912 495.331 354.965 495.414 355.007C495.896 355.257 496.416 355.503 496.931 355.749C497.036 355.807 497.133 355.876 497.244 355.926C497.74 356.188 498.273 356.441 498.81 356.689C498.898 356.737 498.981 356.797 499.073 356.845C499.569 357.1 500.093 357.35 500.626 357.603C500.723 357.649 500.811 357.713 500.911 357.764C510.557 362.704 526.527 367.107 547.859 360.018C578.19 349.938 592.078 326.411 598.636 304.94C606.659 307.323 615.455 307.367 623.985 304.531C646.205 297.146 658.3 273.125 650.943 250.983C647.726 241.305 641.315 233.566 633.268 228.531C645.391 209.985 655.759 186.52 662.289 154.087C663.931 145.935 661.68 137.482 656.206 131.223Z" fill="#68182B"/>
<path d="M556.385 220.62C545.237 224.326 539.408 235.96 543.116 247.109C546.821 258.26 558.452 264.092 569.6 260.386C580.644 256.716 586.665 244.811 583.021 233.847C579.377 222.885 567.429 216.95 556.385 220.62Z" fill="#FF0001"/>
<path d="M592.488 121.42C587.667 115.912 577.35 112.692 569.961 114.388C569.795 114.427 569.63 114.471 569.469 114.524C567.663 115.126 566.298 116.646 565.916 118.537C560.209 146.832 552.227 166.721 539.482 183.407L547.474 62.7085C547.584 60.9365 546.817 59.2175 545.406 58.1335C544 57.0445 542.143 56.7295 540.457 57.2905L500.728 70.4935C498.665 71.1805 497.221 73.0465 497.083 75.2105L492.207 149.446C487.818 170.363 482.474 192.752 474.587 195.725C473.884 194.048 472.552 188.577 473.678 172.124L478.999 85.4405C479.109 83.6705 478.328 81.9615 476.922 80.8815C475.521 79.7975 473.668 79.4845 471.986 80.0455L432.253 93.2515C430.19 93.9365 428.746 95.8045 428.608 97.9755L425.943 139.591C423.484 128.125 417.799 121.123 412.57 116.948C401.071 107.768 383.457 105.859 365.456 111.842C314.647 128.726 303.338 188.524 311.343 226.994C306.375 234.737 301.242 237.745 295.162 239.765C294.665 239.931 294.16 240.089 293.655 240.241L303.646 86.2965C303.756 84.5225 302.984 82.8065 301.578 81.7215C300.172 80.6365 298.311 80.3225 296.629 80.8825L256.648 94.1685C254.58 94.8555 253.139 96.7255 252.999 98.8955L244.012 239.159C240.067 238.417 236.043 237.679 232.018 236.944C227.567 236.129 223.116 235.31 218.771 234.49L224.646 138.394C225.898 121.073 235.066 112.334 235.432 111.994C237.475 110.138 237.769 107.029 236.105 104.826L221.716 85.7445C220.34 83.9115 217.943 83.1645 215.767 83.8885C198.715 89.5545 188.885 101.975 183.492 112.032C181.941 112.685 180.325 113.289 178.655 113.847C168.018 117.381 156.221 118.559 143.726 119.809C130.125 121.169 116.054 122.577 102.221 127.173C60.3988 141.073 50.9108 175.068 60.0588 202.591C70.1028 232.812 98.2688 241.994 122.663 236.043C85.6678 251.204 74.9748 285.064 83.9378 312.038C92.4928 337.778 121.096 357.21 159.202 344.547C197.366 331.863 209.284 300.434 214.397 275.831C218.772 276.493 223.023 277.222 227.18 277.927C232.024 278.757 236.67 279.549 241.392 280.234L238.462 329.915C238.326 332.328 239.824 334.536 242.12 335.296L280.162 347.906C281.274 348.269 282.451 348.262 283.526 347.903C283.985 347.751 284.427 347.535 284.831 347.26C286.205 346.334 287.069 344.822 287.175 343.17L291.035 281.513C295.773 280.773 300.079 279.753 304.109 278.413C314.546 274.946 322.915 269.291 329.518 261.214C340.056 270.274 357.831 276.869 386.853 267.225C406.958 260.543 423.805 248.808 437.013 232.306C445.602 241.01 457.694 243.682 470.557 239.406C470.644 239.378 470.731 239.351 470.814 239.319C468.668 241.302 466.618 243.228 464.821 244.981C448.397 260.119 441.669 278.869 446.821 295.126C449.573 303.924 455.318 310.94 462.997 314.873C471.618 319.287 482.156 319.634 493.476 315.875C527.17 304.675 533.802 271.102 535.82 243.042C536.068 238.949 536.486 232.334 536.697 228.991C560.557 206.135 582.704 180.583 593.706 125.995C594.037 124.363 593.586 122.672 592.488 121.42ZM474.561 282.12C473.963 280.319 475.108 276.445 478.955 271.904C480.917 269.645 482.788 267.711 484.685 265.861C482.737 277.858 479.102 282.474 476.804 283.237C475.985 283.508 475.075 283.666 474.561 282.12ZM378.849 161.876C377.93 173.167 374.887 180.987 362.58 185.077C362.043 185.256 361.496 185.424 360.931 185.587C362.75 174.321 367.497 157.659 377.378 154.376C377.971 154.181 378.389 154.094 378.669 154.058C378.932 154.848 379.29 156.899 378.849 161.876ZM376.762 216.028C401.996 207.641 417.222 194.275 423.706 174.468L423.541 177.097C423.09 184.397 423.137 191.214 423.679 197.393C414.267 212.878 401.147 224.022 386.588 228.859C378.04 231.699 371.482 231.637 367.098 228.673C363.9 226.506 362.227 223.027 361.368 220.235C366.868 219.011 372.028 217.602 376.762 216.028ZM142.946 274.746C148.92 272.759 156.432 271.683 165.783 271.479C162.773 287.529 155.643 298.395 145.788 301.672C137.139 304.544 129.372 302.143 127.316 295.957C125.105 289.303 127.875 279.753 142.946 274.746ZM133.084 232.478C153.052 223.576 161.317 207.094 161.685 206.336C162.8 204.065 162.168 201.329 160.173 199.776L136.205 181.102C134.946 180.116 133.305 179.751 131.745 180.102C131.575 180.141 131.407 180.19 131.242 180.243C129.903 180.689 128.788 181.648 128.152 182.921C128.108 182.999 124.064 190.676 115.408 193.553C110.764 195.097 104.748 195.474 102.432 188.509C100.766 183.495 100.688 174.183 118.887 168.136C127.488 165.277 136.38 164.493 146.676 163.59C154.826 162.878 163.857 162.086 173.664 160.05L169.583 228.346C156.167 228.014 144.138 229.374 133.084 232.478Z" fill="#FF0001"/>
<path d="M571.15 119.596C563.711 156.478 552.617 179.036 533.108 198.838L542.138 62.3613L502.409 75.5643L497.514 150.173C491.071 180.897 485.809 197.63 476.067 200.867C471.067 202.529 466.402 200.196 468.346 171.798L473.667 85.1143L433.934 98.3193L428.87 177.425C428.374 185.426 428.512 192.459 429.16 198.624C418.839 216.335 404.371 228.578 388.273 233.93C356.536 244.477 355.143 216.078 355.143 216.078C403.37 206.712 418.544 185.575 421.48 159.346C425.52 118.045 395.382 107.526 367.142 116.912C317.229 133.5 308.93 193.054 317.018 227.949C308.365 242.717 298.553 244.543 287.841 247.328L298.314 85.9503L258.33 99.2383L248.951 245.543C237.382 243.284 224.725 241.108 213.151 238.847L219.321 138.011C220.759 118.105 231.842 108.041 231.842 108.041L217.451 88.9583C202.959 93.7743 193.204 104.512 187.364 116.164C163.04 127.302 132.396 122.775 103.906 132.244C63.4284 145.698 57.4034 177.667 65.1264 200.909C74.6784 229.647 102.233 237.416 125.726 229.608C147.964 222.218 156.889 203.99 156.889 203.99L132.925 185.316C132.925 185.316 128.086 194.971 117.091 198.627C109.345 201.201 100.602 199.941 97.3644 190.196C94.8714 182.696 95.9634 170.127 117.201 163.069C135.448 157.005 154.931 159.686 179.421 153.214L174.603 233.904C159.61 233.058 144.458 234.21 130.214 238.943C91.4784 251.815 80.2904 284.115 89.0104 310.354C97.3994 335.595 124.283 350.524 157.519 339.479C193.259 327.602 204.941 298.466 210.126 269.828C223.201 271.586 234.857 274.095 247.015 275.605L243.798 330.233L281.845 342.839L285.986 276.807C306.845 274.447 319.916 266.842 328.877 253.046C340.665 266.658 359.548 270.674 385.169 262.159C408.542 254.392 425.141 240.215 436.873 223.616C444.874 235.991 457.401 238.154 468.877 234.342C487.618 228.113 493.964 208.797 493.964 208.797L492.783 226.12C488.279 230.943 476.198 241.343 468.445 248.914C457.608 258.898 446.271 275.709 451.919 293.533C456.4 307.862 470.55 317.869 491.791 310.808C521.776 300.842 528.464 270.87 530.49 242.725C530.825 237.061 531.506 226.569 531.506 226.569C556.175 203.108 577.683 178.481 588.468 124.944C584.897 120.857 576.569 118.353 571.15 119.596ZM375.691 149.311C384.188 146.487 384.928 153.734 384.17 162.309C383.081 175.715 379.069 188.704 354.749 192.346C354.749 192.346 357.199 155.455 375.691 149.311ZM147.472 306.742C136.224 310.48 125.322 306.886 122.249 297.643C119.177 288.396 123.267 275.658 141.261 269.676C150.004 266.772 160.836 265.949 171.994 266.126C168.968 292.107 157.716 303.336 147.472 306.742ZM478.485 288.307C474.234 289.72 470.742 287.551 469.496 283.803C468.086 279.554 470.338 273.812 474.924 268.401C480.342 262.162 484.924 258.419 491.257 252.429C490.401 277.41 483.981 286.482 478.485 288.307ZM577.957 235.531C580.71 243.81 576.201 252.567 567.92 255.32C559.639 258.07 550.935 253.705 548.182 245.426C545.434 237.149 549.795 228.441 558.073 225.688C566.354 222.936 575.204 227.252 577.957 235.531Z" fill="#FEE434"/>
</svg>
