<svg width="112" height="112" viewBox="0 0 112 112" fill="none" xmlns="http://www.w3.org/2000/svg">
<path d="M56 112C86.9279 112 112 86.9279 112 56C112 25.0721 86.9279 0 56 0C25.0721 0 0 25.0721 0 56C0 86.9279 25.0721 112 56 112Z" fill="#E5BF2B"/>
<path d="M30.282 16.8221C37.665 11.9661 46.5029 9.14014 55.9999 9.14014" stroke="#F7E05D" stroke-width="6" stroke-miterlimit="10" stroke-linecap="round"/>
<path d="M19.637 26.4421C20.533 25.3401 21.046 24.6941 21.725 23.9761" stroke="#F7E05D" stroke-width="6" stroke-miterlimit="10" stroke-linecap="round"/>
<path d="M26.6501 49.4351H44.0181" stroke="#2D2E30" stroke-width="6" stroke-miterlimit="10" stroke-linecap="round"/>
<path d="M69.9812 49.4351H87.3492" stroke="#2D2E30" stroke-width="6" stroke-miterlimit="10" stroke-linecap="round"/>
<path d="M56.0381 75.5488C51.6771 75.5488 47.6561 77.0098 44.4391 79.4678C42.0681 81.2808 43.4381 85.0938 46.4221 85.0848L65.5951 85.0258C68.5761 85.0158 69.9281 81.1988 67.5491 79.4018C64.3471 76.9838 60.3601 75.5488 56.0381 75.5488Z" fill="#2D2E30"/>
<path d="M44.0359 53.0371C44.0359 56.7081 41.059 59.6851 37.389 59.6851C33.719 59.6851 30.7419 56.7081 30.7419 53.0371C30.7419 49.3661 33.719 46.3901 37.389 46.3901C41.059 46.3901 44.0359 49.3671 44.0359 53.0371Z" fill="#2D2E30"/>
<path d="M87.3489 53.0371C87.3489 56.7081 84.373 59.6851 80.701 59.6851C77.03 59.6851 74.054 56.7081 74.054 53.0371C74.054 49.3661 77.031 46.3901 80.701 46.3901C84.374 46.3901 87.3489 49.3671 87.3489 53.0371Z" fill="#2D2E30"/>
</svg>
