<svg width="128" height="112" viewBox="0 0 128 112" fill="none" xmlns="http://www.w3.org/2000/svg">
<path d="M56 112C86.9279 112 112 86.9279 112 56C112 25.0721 86.9279 0 56 0C25.0721 0 0 25.0721 0 56C0 86.9279 25.0721 112 56 112Z" fill="#E5BF2B"/>
<path d="M25.5149 59.861C25.5149 55.002 29.4539 51.063 34.3139 51.063C39.1729 51.063 43.1129 55.002 43.1129 59.861" stroke="#2D2E30" stroke-width="6" stroke-miterlimit="10" stroke-linecap="round"/>
<path d="M68.887 59.861C68.887 55.002 72.8259 51.063 77.6849 51.063C82.5439 51.063 86.4839 55.002 86.4839 59.861" stroke="#2D2E30" stroke-width="6" stroke-miterlimit="10" stroke-linecap="round"/>
<path d="M120.862 5.10207C118.768 5.05307 116.881 5.93106 115.575 7.35106C114.973 8.00506 113.922 8.03706 113.324 7.37906C111.88 5.79106 109.715 4.87207 107.342 5.14907C104.475 5.48307 102.068 7.63806 101.398 10.4461C99.6939 17.5891 109.823 23.9191 113.298 25.8561C114 26.2481 114.853 26.2481 115.549 25.8451C119.259 23.6991 130.767 16.2891 126.875 8.97907C125.677 6.73007 123.41 5.16107 120.862 5.10207Z" fill="#DE3205"/>
<path d="M54.952 67.5291C54.952 67.5291 63.323 67.13 63.777 72.127C63.953 74.054 62.7261 75.6311 61.3571 76.4041C60.5411 76.8651 60.699 78.118 61.538 78.534C63.18 79.35 64.585 80.769 64.587 83.194C64.593 89.414 53.4561 88.777 53.4561 88.777" stroke="#2D2E30" stroke-width="6" stroke-miterlimit="10" stroke-linecap="round" stroke-linejoin="round"/>
<path d="M30.282 16.8231C37.665 11.9661 46.5029 9.14111 55.9999 9.14111" stroke="#F7E05D" stroke-width="6" stroke-miterlimit="10" stroke-linecap="round"/>
<path d="M19.637 26.443C20.533 25.341 21.046 24.694 21.725 23.978" stroke="#F7E05D" stroke-width="6" stroke-miterlimit="10" stroke-linecap="round"/>
</svg>
