<svg width="654" height="691" viewBox="0 0 654 691" fill="none" xmlns="http://www.w3.org/2000/svg">
<path d="M637.664 344.525C639.043 341.704 640.072 338.673 640.702 335.485C646.791 304.658 642.513 271.085 630.045 243.208C636.033 232.202 636.327 219.155 630.748 207.882C629.778 205.924 629.342 203.426 628.588 198.815C627.122 189.856 624.912 176.315 614.622 162.277C606.57 151.296 597.742 140.115 587.232 130.986C586.461 125.446 584.429 120.041 581.175 115.184C580.839 114.362 580.292 112.73 579.879 111.496C577.595 104.679 574.144 94.375 565.27 85.196C552.273 71.749 538.818 62.466 524.121 56.816C516.764 53.987 509.705 51.067 502.752 48.192C482.049 39.635 460.643 30.786 434.994 25.55C427.14 23.946 419.958 23.167 413.032 23.167C390.996 23.167 372.572 31.198 359.08 46.533C348.212 29.793 332.283 11.85 311.612 5.81802C303.487 3.44402 295.513 2.29102 287.232 2.29102C281.373 2.29102 275.279 2.87701 268.611 4.08501C258.652 5.88901 249.608 8.55202 241.631 10.9C231.879 13.774 223.455 16.256 214.765 16.952C171.852 20.387 148.005 40.865 128.635 62.469C122.628 69.162 119.2 77.795 118.823 86.662C88.0002 101.209 65.8032 122.73 52.7192 150.793C52.2372 151.776 51.5112 153.04 50.6932 154.504C42.8532 168.601 29.7323 192.195 39.9583 215.06C40.0783 215.333 40.2063 215.607 40.3303 215.875C34.4063 225.411 30.3992 235.216 26.9382 243.686C25.7302 246.634 24.5443 249.557 23.2853 252.385L21.7922 255.735C14.0992 272.982 6.14424 290.816 2.81324 312.661C1.08024 323.993 4.30631 335.404 11.6593 343.97C11.6913 344.005 11.7204 344.039 11.7514 344.075C-2.95865 380.831 5.90133 425.656 36.6323 466.628C40.0883 471.235 44.3662 474.928 49.1832 477.559C49.3262 481.288 49.7623 485.146 50.5343 489.136C52.8053 500.824 62.2993 541.068 89.2203 568.141C92.5843 571.53 96.5963 574.225 100.971 576.119C105.815 587.778 112.681 597.874 118.237 606.043C120.438 609.283 122.52 612.344 124.05 614.871C131.56 627.272 143.688 644.763 162.258 653.426C167.377 655.816 173.094 657.079 178.793 657.079C184.418 657.079 189.785 655.873 194.625 653.69C202.083 657.532 209.303 660.287 214.863 662.41C219.656 664.239 226.894 667.003 228.747 668.297C237.635 675.838 251.844 685.863 272.497 685.863C282.253 685.863 291.104 683.694 299.67 681.594C301.242 681.208 303.439 680.67 306.049 679.893C312.8 685.417 321.343 688.494 330.319 688.494C332.465 688.494 334.639 688.315 336.78 687.963C358.269 684.427 375.889 677.425 388.857 667.386C390.586 667.62 392.359 667.742 394.161 667.742C396.858 667.742 399.575 667.455 402.235 666.89C417.378 663.664 427.557 655.123 434.29 649.473L435.039 648.845C444.694 640.764 455.516 634.413 469.754 626.322C476.395 622.547 483.302 617.503 489.234 610.835C523.403 609.125 544.363 577.698 557.024 558.71C558.016 557.219 558.95 555.817 559.827 554.537C571.151 537.977 581.707 519.293 582.24 494.914C582.318 491.228 582.06 487.662 581.532 484.218C585.448 485.601 589.597 486.314 593.862 486.314H593.867C610.875 486.314 625.999 474.894 630.636 458.593C632.277 452.878 634.676 447.311 637.451 440.865C641.996 430.323 647.148 418.374 649.808 403.335C654.016 379.511 647.058 360.883 637.664 344.525Z" fill="white"/>
<path d="M329.613 690.844C329.599 690.844 329.59 690.844 329.576 690.844C327.908 690.817 326.244 690.685 324.603 690.456C323.317 690.277 322.42 689.086 322.6 687.8C322.779 686.513 324.006 685.629 325.256 685.796C326.703 685.998 328.174 686.115 329.65 686.138C330.95 686.159 331.984 687.23 331.965 688.528C331.944 689.815 330.896 690.844 329.613 690.844ZM343.588 689.054C342.499 689.054 341.521 688.289 341.291 687.179C341.024 685.906 341.842 684.661 343.115 684.396C344.645 684.079 346.152 683.741 347.641 683.39C348.882 683.077 350.173 683.872 350.472 685.134C350.775 686.398 349.993 687.666 348.726 687.967C347.2 688.332 345.647 688.679 344.071 689.006C343.91 689.038 343.749 689.054 343.588 689.054ZM272.495 688.22L271.006 688.204C269.705 688.172 268.676 687.094 268.708 685.793C268.74 684.497 269.774 683.477 271.116 683.498L272.495 683.514C273.56 683.514 274.608 683.487 275.652 683.436C276.938 683.39 278.05 684.376 278.115 685.672C278.179 686.97 277.178 688.073 275.882 688.137C274.765 688.192 273.635 688.22 272.495 688.22ZM257.113 686.264C256.92 686.264 256.717 686.239 256.52 686.188C254.907 685.768 253.354 685.29 251.841 684.768C250.614 684.34 249.966 683.001 250.389 681.774C250.822 680.543 252.159 679.903 253.386 680.319C254.778 680.804 256.221 681.245 257.705 681.633C258.964 681.962 259.718 683.248 259.387 684.505C259.113 685.563 258.161 686.264 257.113 686.264ZM289.742 686.25C288.652 686.25 287.669 685.485 287.444 684.373C287.178 683.1 288 681.855 289.273 681.593C290.798 681.278 292.31 680.941 293.813 680.591C295.095 680.288 296.345 681.085 296.639 682.349C296.933 683.615 296.143 684.879 294.879 685.173C293.339 685.531 291.791 685.879 290.219 686.202C290.064 686.234 289.903 686.25 289.742 686.25ZM311.617 686.032C311.226 686.032 310.836 685.938 310.472 685.736C309.02 684.929 307.614 684.031 306.267 683.043C305.214 682.275 304.99 680.805 305.757 679.755C306.525 678.707 308.004 678.48 309.042 679.247C310.232 680.115 311.474 680.908 312.761 681.622C313.896 682.252 314.305 683.685 313.675 684.821C313.244 685.596 312.44 686.032 311.617 686.032ZM361.723 684.072C360.753 684.072 359.843 683.468 359.503 682.498C359.071 681.273 359.719 679.929 360.941 679.499C362.412 678.984 363.85 678.444 365.261 677.886C366.464 677.399 367.834 677.991 368.317 679.202C368.795 680.409 368.207 681.776 366.998 682.256C365.532 682.842 364.029 683.401 362.504 683.938C362.246 684.031 361.981 684.072 361.723 684.072ZM239.889 678.836C239.466 678.836 239.043 678.726 238.662 678.491C237.242 677.62 235.891 676.729 234.608 675.83C233.543 675.085 233.28 673.62 234.025 672.553C234.774 671.485 236.249 671.234 237.301 671.974C238.51 672.817 239.778 673.659 241.115 674.474C242.222 675.154 242.572 676.602 241.896 677.709C241.451 678.436 240.68 678.836 239.889 678.836ZM378.869 676.358C378.051 676.358 377.256 675.928 376.823 675.166C376.18 674.035 376.58 672.599 377.711 671.958C379.057 671.195 380.362 670.407 381.64 669.594C382.729 668.909 384.186 669.215 384.889 670.316C385.588 671.412 385.266 672.866 384.167 673.565C382.825 674.419 381.447 675.249 380.026 676.053C379.664 676.26 379.264 676.358 378.869 676.358ZM395.67 670.069C394.411 670.069 393.368 669.076 393.317 667.81C393.266 666.512 394.277 665.416 395.578 665.365C397.044 665.305 398.515 665.156 399.972 664.922C401.277 664.704 402.463 665.589 402.669 666.871C402.876 668.153 402.008 669.362 400.726 669.568C399.076 669.835 397.421 670.003 395.762 670.067C395.73 670.069 395.702 670.069 395.67 670.069ZM224.264 668.477C223.956 668.477 223.644 668.417 223.345 668.288C222.017 667.725 220.528 667.13 219.039 666.544C217.83 666.071 217.232 664.706 217.706 663.495C218.18 662.284 219.554 661.696 220.758 662.164C222.293 662.764 223.819 663.377 225.184 663.959C226.378 664.467 226.939 665.848 226.429 667.042C226.047 667.94 225.179 668.477 224.264 668.477ZM413.809 665.469C412.909 665.469 412.049 664.95 411.659 664.074C411.131 662.886 411.664 661.496 412.854 660.968C414.269 660.336 415.62 659.665 416.92 658.969C418.06 658.353 419.489 658.783 420.105 659.927C420.721 661.071 420.29 662.498 419.145 663.115C417.752 663.866 416.291 664.588 414.765 665.265C414.457 665.405 414.131 665.469 413.809 665.469ZM206.737 661.582C206.438 661.582 206.135 661.527 205.845 661.405C204.42 660.822 202.954 660.203 201.456 659.544C200.266 659.022 199.728 657.635 200.248 656.444C200.78 655.254 202.164 654.721 203.35 655.238C204.811 655.879 206.241 656.483 207.628 657.053C208.832 657.545 209.406 658.919 208.915 660.123C208.538 661.032 207.66 661.582 206.737 661.582ZM184.866 658.957C183.73 658.957 182.729 658.132 182.545 656.974C182.343 655.69 183.217 654.483 184.503 654.281C185.969 654.047 187.407 653.725 188.809 653.323C190.074 652.966 191.36 653.683 191.723 654.933C192.081 656.181 191.36 657.486 190.115 657.845C188.53 658.302 186.898 658.665 185.239 658.927C185.114 658.948 184.99 658.957 184.866 658.957ZM170.84 658.62C170.68 658.62 170.519 658.604 170.358 658.572C168.727 658.232 167.124 657.8 165.551 657.274C164.315 656.863 163.653 655.53 164.062 654.296C164.476 653.067 165.809 652.403 167.041 652.812C168.437 653.279 169.867 653.664 171.314 653.963C172.587 654.227 173.405 655.473 173.139 656.746C172.908 657.857 171.93 658.62 170.84 658.62ZM429.756 655.554C429.062 655.554 428.377 655.248 427.908 654.66C427.103 653.642 427.278 652.162 428.294 651.356C429.586 650.333 430.785 649.343 431.893 648.417C432.876 647.585 434.37 647.711 435.206 648.713C436.038 649.71 435.904 651.194 434.907 652.028C433.772 652.977 432.545 653.995 431.217 655.045C430.785 655.389 430.271 655.554 429.756 655.554ZM153.773 650.961C153.318 650.961 152.863 650.83 152.459 650.559C151.108 649.649 149.798 648.698 148.525 647.71C147.5 646.913 147.311 645.435 148.111 644.408C148.902 643.376 150.39 643.195 151.411 643.992C152.601 644.916 153.828 645.807 155.088 646.658C156.168 647.384 156.452 648.848 155.727 649.926C155.271 650.598 154.527 650.961 153.773 650.961ZM444.581 643.971C443.836 643.971 443.102 643.617 442.646 642.955C441.906 641.887 442.172 640.42 443.244 639.683C444.535 638.789 445.853 637.907 447.21 637.024C448.289 636.321 449.756 636.622 450.463 637.711C451.171 638.8 450.863 640.257 449.774 640.967C448.456 641.826 447.173 642.686 445.919 643.552C445.51 643.836 445.045 643.971 444.581 643.971ZM139.641 638.604C139.002 638.604 138.369 638.347 137.905 637.839C136.811 636.644 135.754 635.433 134.738 634.216C133.906 633.218 134.04 631.734 135.037 630.902C136.034 630.07 137.518 630.196 138.35 631.201C139.32 632.364 140.33 633.519 141.378 634.663C142.256 635.621 142.187 637.108 141.232 637.986C140.777 638.399 140.211 638.604 139.641 638.604ZM460.524 633.981C459.719 633.981 458.929 633.565 458.493 632.816C457.836 631.695 458.212 630.254 459.334 629.597L463.424 627.23C464.536 626.584 465.984 626.966 466.636 628.099C467.284 629.224 466.894 630.663 465.768 631.311L461.714 633.66C461.336 633.877 460.928 633.981 460.524 633.981ZM476.663 624.309C475.923 624.309 475.197 623.962 474.737 623.31C473.992 622.248 474.245 620.78 475.306 620.033C476.534 619.169 477.756 618.262 478.96 617.301C479.971 616.494 481.45 616.657 482.264 617.671C483.077 618.687 482.908 620.169 481.892 620.978C480.615 621.998 479.319 622.966 478.018 623.88C477.605 624.171 477.132 624.309 476.663 624.309ZM128.143 623.711C127.38 623.711 126.631 623.339 126.181 622.654C125.276 621.285 124.416 619.945 123.603 618.642C122.918 617.539 123.253 616.089 124.357 615.402C125.468 614.719 126.917 615.05 127.601 616.155C128.387 617.421 129.228 618.729 130.106 620.061C130.823 621.146 130.524 622.605 129.439 623.322C129.039 623.585 128.589 623.711 128.143 623.711ZM491.231 613.057C490.023 613.057 488.998 612.131 488.892 610.906C488.782 609.61 489.743 608.47 491.034 608.36C492.551 608.229 494.04 608.041 495.506 607.793C496.778 607.611 498.001 608.439 498.217 609.723C498.433 611.003 497.57 612.218 496.287 612.434C494.701 612.7 493.084 612.907 491.438 613.047C491.369 613.054 491.3 613.057 491.231 613.057ZM509.374 608.436C508.469 608.436 507.601 607.908 507.214 607.021C506.699 605.831 507.246 604.443 508.437 603.926C509.825 603.322 511.19 602.667 512.518 601.966C513.676 601.366 515.086 601.8 515.698 602.952C516.305 604.1 515.864 605.525 514.715 606.13C513.277 606.886 511.811 607.591 510.313 608.241C510.008 608.374 509.687 608.436 509.374 608.436ZM115.951 606.882L113.312 602.973C112.586 601.893 112.875 600.432 113.956 599.708C115.027 598.981 116.502 599.269 117.219 600.354L119.632 603.927L117.9 605.563L115.951 606.882ZM525.395 598.645C524.706 598.645 524.021 598.342 523.557 597.758C522.743 596.742 522.912 595.261 523.928 594.451C525.128 593.495 526.295 592.51 527.435 591.498C528.405 590.637 529.889 590.719 530.758 591.698C531.621 592.67 531.529 594.156 530.56 595.018C529.356 596.084 528.124 597.125 526.861 598.131C526.428 598.477 525.909 598.645 525.395 598.645ZM107.752 592.066C106.939 592.066 106.148 591.643 105.712 590.885C104.926 589.52 104.154 588.125 103.396 586.703C102.785 585.556 103.221 584.132 104.371 583.52C105.492 582.909 106.939 583.339 107.551 584.492C108.281 585.868 109.035 587.217 109.794 588.541C110.441 589.667 110.051 591.106 108.925 591.753C108.557 591.965 108.153 592.066 107.752 592.066ZM538.919 585.573C538.367 585.573 537.816 585.38 537.37 584.99C536.391 584.133 536.295 582.646 537.15 581.67C538.174 580.5 539.171 579.321 540.136 578.138C540.968 577.129 542.448 576.987 543.449 577.805C544.456 578.628 544.602 580.11 543.785 581.117C542.783 582.342 541.749 583.561 540.687 584.772C540.225 585.302 539.572 585.573 538.919 585.573ZM97.7201 576.882C97.3391 576.882 96.9491 576.79 96.5901 576.595C95.1381 575.798 93.7131 574.899 92.3661 573.92C91.3131 573.157 91.075 571.687 91.838 570.634C92.609 569.577 94.085 569.352 95.123 570.11C96.313 570.969 97.5601 571.758 98.8511 572.465C99.9911 573.088 100.409 574.517 99.7841 575.657C99.3571 576.439 98.5521 576.882 97.7201 576.882ZM550.468 570.704C549.999 570.704 549.526 570.566 549.117 570.277C548.051 569.53 547.798 568.062 548.542 566.998C549.461 565.693 550.349 564.408 551.203 563.151C551.938 562.078 553.414 561.809 554.474 562.537C555.545 563.27 555.822 564.734 555.09 565.807C554.217 567.078 553.321 568.381 552.393 569.704C551.934 570.355 551.208 570.704 550.468 570.704ZM83.6991 564.493C83.0321 564.493 82.3711 564.21 81.9021 563.661C80.8681 562.438 79.857 561.2 78.873 559.945C78.074 558.92 78.2531 557.443 79.2731 556.641C80.2941 555.844 81.773 556.019 82.577 557.041C83.524 558.249 84.4981 559.442 85.4961 560.619C86.3321 561.612 86.2131 563.096 85.2201 563.935C84.7801 564.309 84.2371 564.493 83.6991 564.493ZM561.029 555.118C560.574 555.118 560.115 554.987 559.715 554.716C558.636 553.987 558.351 552.526 559.081 551.448C559.944 550.168 560.8 548.874 561.645 547.562C562.352 546.464 563.823 546.165 564.894 546.859C565.988 547.565 566.305 549.021 565.597 550.113C564.733 551.452 563.86 552.774 562.977 554.081C562.522 554.755 561.782 555.118 561.029 555.118ZM72.67 549.256C71.884 549.256 71.111 548.861 70.67 548.142C69.82 546.772 69.0071 545.398 68.2211 544.02C67.5781 542.892 67.973 541.456 69.099 540.812C70.225 540.164 71.663 540.557 72.311 541.69C73.07 543.018 73.8561 544.346 74.6691 545.665C75.3541 546.77 75.014 548.22 73.906 548.905C73.52 549.144 73.092 549.256 72.67 549.256ZM570.794 539.04C570.422 539.04 570.05 538.953 569.7 538.769C568.547 538.165 568.105 536.742 568.713 535.591C569.425 534.237 570.119 532.864 570.785 531.469C571.346 530.3 572.752 529.798 573.924 530.362C575.096 530.923 575.592 532.329 575.031 533.501C574.338 534.951 573.615 536.376 572.876 537.784C572.458 538.583 571.64 539.04 570.794 539.04ZM63.823 532.641C62.931 532.641 62.076 532.131 61.681 531.267C61.015 529.801 60.371 528.347 59.755 526.906C59.245 525.711 59.8011 524.328 60.9961 523.818C62.2001 523.31 63.574 523.864 64.084 525.059C64.682 526.463 65.312 527.881 65.964 529.31C66.501 530.493 65.982 531.888 64.801 532.428C64.485 532.572 64.155 532.641 63.823 532.641ZM578.138 521.74C577.904 521.74 577.66 521.705 577.421 521.627C576.185 521.232 575.5 519.908 575.896 518.669C576.36 517.229 576.783 515.763 577.173 514.273C577.499 513.016 578.795 512.262 580.041 512.591C581.3 512.919 582.053 514.206 581.723 515.463C581.314 517.035 580.864 518.579 580.381 520.102C580.059 521.104 579.135 521.74 578.138 521.74ZM56.8931 515.136C55.9101 515.136 54.9961 514.518 54.6641 513.537C54.1411 511.983 53.643 510.469 53.188 509.003C52.802 507.762 53.4971 506.443 54.7371 506.057C56.0011 505.682 57.301 506.367 57.683 507.606C58.128 509.035 58.6071 510.513 59.1211 512.029C59.5391 513.261 58.877 514.596 57.645 515.012C57.399 515.097 57.1411 515.136 56.8931 515.136ZM581.897 503.337C581.824 503.337 581.751 503.335 581.677 503.328C580.381 503.209 579.43 502.062 579.549 500.768C579.687 499.268 579.787 497.746 579.843 496.202C579.894 494.906 580.923 493.792 582.283 493.941C583.584 493.989 584.595 495.081 584.549 496.381C584.485 498.007 584.383 499.616 584.236 501.199C584.121 502.42 583.097 503.337 581.897 503.337ZM51.719 497.027C50.648 497.027 49.683 496.294 49.425 495.21C49.007 493.411 48.6721 491.836 48.4091 490.531C48.1521 489.258 48.9791 488.017 50.2521 487.762C51.5121 487.502 52.7661 488.329 53.0231 489.607C53.2761 490.871 53.602 492.394 54.011 494.138C54.305 495.404 53.519 496.67 52.25 496.964C52.072 497.007 51.893 497.027 51.719 497.027ZM588.037 488.218C587.912 488.218 587.789 488.209 587.664 488.188C586.015 487.929 584.374 487.561 582.779 487.097C581.534 486.732 580.817 485.427 581.184 484.179C581.542 482.933 582.833 482.207 584.103 482.579C585.509 482.991 586.938 483.31 588.4 483.542C589.681 483.744 590.559 484.948 590.357 486.233C590.174 487.39 589.172 488.218 588.037 488.218ZM602.063 487.774C600.983 487.774 600.008 487.027 599.765 485.929C599.485 484.661 600.285 483.404 601.557 483.124C602.995 482.804 604.411 482.398 605.789 481.906C606.998 481.469 608.358 482.106 608.795 483.328C609.232 484.553 608.598 485.899 607.37 486.336C605.812 486.895 604.195 487.359 602.568 487.719C602.399 487.756 602.229 487.774 602.063 487.774ZM618.731 479.442C618.069 479.442 617.408 479.162 616.944 478.619C616.098 477.631 616.213 476.144 617.201 475.301C618.318 474.345 619.38 473.32 620.372 472.236C621.25 471.276 622.734 471.214 623.699 472.087C624.655 472.965 624.724 474.454 623.846 475.412C622.725 476.639 621.525 477.797 620.261 478.877C619.816 479.256 619.274 479.442 618.731 479.442ZM47.8761 479.169C47.4631 479.169 47.0451 479.061 46.6681 478.833C45.2431 477.981 43.864 477.038 42.55 476.009C41.526 475.21 41.342 473.73 42.146 472.705C42.946 471.676 44.43 471.503 45.446 472.301C46.613 473.211 47.8271 474.043 49.0861 474.798C50.2021 475.465 50.565 476.91 49.895 478.024C49.453 478.762 48.6761 479.169 47.8761 479.169ZM34.5221 466.122C33.7951 466.122 33.075 465.784 32.615 465.145C31.677 463.851 30.7671 462.553 29.8761 461.25C29.1421 460.179 29.412 458.713 30.483 457.978C31.558 457.249 33.024 457.514 33.754 458.589C34.627 459.86 35.5191 461.126 36.4291 462.392C37.1921 463.444 36.953 464.915 35.901 465.676C35.483 465.977 35.0001 466.122 34.5221 466.122ZM629.522 464.258C629.237 464.258 628.952 464.208 628.671 464.1C627.458 463.629 626.856 462.266 627.329 461.055C627.72 460.044 628.068 459.01 628.372 457.951L628.73 456.738C629.112 455.497 630.426 454.799 631.671 455.187C632.916 455.571 633.61 456.89 633.224 458.131L632.898 459.241C632.554 460.44 632.159 461.612 631.712 462.757C631.355 463.689 630.463 464.258 629.522 464.258ZM24.287 450.336C23.478 450.336 22.6871 449.916 22.2511 449.162C21.4471 447.774 20.675 446.384 19.922 444.991C19.306 443.847 19.7331 442.42 20.8771 441.804C22.0031 441.188 23.446 441.611 24.066 442.757C24.793 444.109 25.546 445.457 26.323 446.804C26.975 447.93 26.59 449.368 25.464 450.018C25.096 450.235 24.688 450.336 24.287 450.336ZM636.001 446.6C635.693 446.6 635.381 446.54 635.077 446.412C633.883 445.904 633.326 444.521 633.836 443.326L635.684 439.011C636.185 437.812 637.578 437.253 638.763 437.754C639.962 438.257 640.528 439.636 640.022 440.836L638.166 445.169C637.784 446.065 636.915 446.6 636.001 446.6ZM15.826 433.532C14.917 433.532 14.048 433.001 13.667 432.11C13.032 430.64 12.426 429.169 11.842 427.696C11.364 426.488 11.957 425.12 13.161 424.642C14.365 424.169 15.734 424.755 16.217 425.963C16.782 427.39 17.3711 428.819 17.9871 430.249C18.5021 431.441 17.951 432.827 16.76 433.339C16.456 433.47 16.139 433.532 15.826 433.532ZM643.211 429.215C642.936 429.215 642.655 429.167 642.384 429.065C641.166 428.608 640.551 427.252 641.01 426.034C641.543 424.607 642.072 423.15 642.586 421.661C643.014 420.434 644.352 419.79 645.583 420.211C646.81 420.636 647.458 421.978 647.035 423.205C646.502 424.731 645.964 426.225 645.412 427.688C645.059 428.633 644.162 429.215 643.211 429.215ZM9.49805 415.821C8.46905 415.821 7.52706 415.143 7.23206 414.105C6.80006 412.561 6.39101 411.019 6.01501 409.479C5.70201 408.218 6.47404 406.945 7.73804 406.634C9.01504 406.303 10.275 407.096 10.583 408.358C10.951 409.847 11.342 411.338 11.764 412.832C12.114 414.082 11.3881 415.383 10.1381 415.734C9.92206 415.794 9.71005 415.821 9.49805 415.821ZM648.694 411.223C648.524 411.223 648.35 411.204 648.175 411.165C646.906 410.878 646.112 409.619 646.401 408.351C646.732 406.878 647.045 405.375 647.325 403.833C647.564 402.553 648.772 401.691 650.069 401.946C651.346 402.18 652.192 403.407 651.958 404.687C651.659 406.289 651.337 407.856 650.988 409.389C650.743 410.483 649.77 411.223 648.694 411.223ZM5.71204 397.399C4.54504 397.399 3.53308 396.531 3.38208 395.34C3.18008 393.748 3.0101 392.155 2.8761 390.568C2.7661 389.274 3.72707 388.134 5.01807 388.024C6.28707 387.863 7.45009 388.87 7.56409 390.168C7.69809 391.691 7.85803 393.219 8.05103 394.752C8.21203 396.041 7.30199 397.218 6.01099 397.381C5.90899 397.393 5.81304 397.399 5.71204 397.399ZM651.056 392.588C651.047 392.588 651.034 392.588 651.02 392.588C649.724 392.567 648.685 391.499 648.704 390.201L648.709 389.323C648.709 388.085 648.677 386.86 648.616 385.654C648.548 384.356 649.545 383.248 650.845 383.181C652.283 383.071 653.243 384.116 653.313 385.41C653.381 386.699 653.415 388.002 653.415 389.323L653.41 390.27C653.391 391.559 652.338 392.588 651.056 392.588ZM4.91199 378.617C4.87999 378.617 4.84406 378.617 4.81006 378.615C3.51006 378.557 2.50308 377.459 2.55908 376.161C2.63208 374.555 2.738 372.955 2.88 371.363C2.995 370.062 4.22203 369.095 5.43103 369.226C6.72703 369.341 7.68299 370.483 7.56799 371.776C7.43499 373.299 7.32901 374.83 7.26501 376.367C7.20501 377.632 6.16699 378.617 4.91199 378.617ZM648.946 373.935C647.881 373.935 646.915 373.209 646.658 372.129C646.3 370.638 645.899 369.167 645.463 367.719C645.086 366.476 645.789 365.162 647.035 364.787C648.266 364.406 649.59 365.113 649.967 366.359C650.431 367.894 650.859 369.452 651.236 371.035C651.54 372.299 650.758 373.567 649.494 373.87C649.31 373.914 649.126 373.935 648.946 373.935ZM7.46704 359.999C7.28804 359.999 7.11005 359.978 6.92505 359.935C5.66105 359.636 4.88008 358.368 5.17908 357.104C5.55108 355.537 5.95509 353.986 6.39709 352.444C6.75109 351.198 8.03803 350.466 9.30603 350.831C10.556 351.187 11.2781 352.49 10.9191 353.74C10.4961 355.213 10.109 356.695 9.75598 358.189C9.49798 359.27 8.53304 359.999 7.46704 359.999ZM642.591 356.249C641.713 356.249 640.867 355.753 640.468 354.905C639.802 353.51 639.117 352.134 638.405 350.774C637.803 349.623 638.249 348.2 639.402 347.598C640.542 346.992 641.971 347.439 642.578 348.591C643.318 350.006 644.03 351.438 644.715 352.888C645.276 354.062 644.775 355.464 643.603 356.022C643.276 356.175 642.931 356.249 642.591 356.249ZM637.664 346.878C637.315 346.878 636.961 346.802 636.631 346.639C635.463 346.067 634.981 344.658 635.551 343.491C636.194 342.179 636.75 340.819 637.228 339.419C637.651 338.188 638.989 337.528 640.215 337.951C641.446 338.369 642.104 339.706 641.686 340.938C641.139 342.53 640.5 344.084 639.779 345.559C639.369 346.393 638.533 346.878 637.664 346.878ZM8.96106 342.79C8.20706 342.79 7.46306 342.427 7.00806 341.752C6.07906 340.369 5.23508 338.933 4.48108 337.451C3.89208 336.293 4.35704 334.877 5.51404 334.289C6.68604 333.703 8.08803 334.165 8.68103 335.323C9.34203 336.631 10.0871 337.901 10.9141 339.124C11.6411 340.202 11.355 341.663 10.275 342.389C9.87102 342.659 9.41606 342.79 8.96106 342.79ZM642.2 328.7C642.099 328.7 641.993 328.693 641.892 328.679C640.605 328.511 639.695 327.332 639.861 326.043C640.063 324.515 640.238 322.982 640.384 321.443C640.513 320.147 641.744 319.21 642.953 319.329C644.249 319.453 645.195 320.604 645.071 321.898C644.915 323.488 644.731 325.071 644.529 326.649C644.374 327.836 643.363 328.7 642.2 328.7ZM2.578 325.283C1.391 325.283 0.372042 324.39 0.243042 323.183C0.082042 321.696 0 320.194 0 318.684C0 317.384 1.05203 316.106 2.35303 316.106C3.65403 316.106 4.70605 316.933 4.70605 318.234V318.684C4.70605 320.024 4.7801 321.356 4.9231 322.678C5.0611 323.97 4.12706 325.13 2.83606 325.27C2.74806 325.279 2.665 325.283 2.578 325.283ZM643.437 309.932C642.136 309.932 641.084 308.88 641.084 307.579L641.088 306.864C641.088 305.584 641.07 304.256 641.037 302.928C641.006 301.63 642.035 300.552 643.336 300.52C644.627 300.626 645.716 301.517 645.743 302.818C645.775 304.183 645.794 305.548 645.794 306.913L645.789 307.579C645.789 308.879 644.738 309.932 643.437 309.932ZM4.35205 306.634C4.18605 306.634 4.02108 306.618 3.85608 306.581C2.58708 306.31 1.77404 305.06 2.04504 303.789C2.38004 302.217 2.743 300.664 3.12 299.131C3.428 297.874 4.66399 297.093 5.96899 297.41C7.22899 297.72 7.99999 298.996 7.68799 300.257C7.32099 301.743 6.97602 303.246 6.65002 304.772C6.41002 305.878 5.43605 306.634 4.35205 306.634ZM642.389 291.148C641.212 291.148 640.193 290.263 640.055 289.064C639.88 287.526 639.682 285.994 639.457 284.466C639.273 283.179 640.164 281.987 641.446 281.801C642.701 281.578 643.927 282.5 644.117 283.791C644.342 285.365 644.549 286.943 644.732 288.526C644.879 289.818 643.951 290.985 642.66 291.132C642.572 291.143 642.481 291.148 642.389 291.148ZM9.38403 288.51C9.13603 288.51 8.878 288.471 8.63 288.385C7.399 287.969 6.73605 286.632 7.15405 285.402C7.66505 283.89 8.19308 282.394 8.73108 280.912C9.17108 279.689 10.5181 279.064 11.7461 279.506C12.9691 279.949 13.5981 281.298 13.1521 282.521C12.6231 283.971 12.1131 285.435 11.6121 286.91C11.2811 287.892 10.367 288.51 9.38403 288.51ZM639.154 272.613C638.088 272.613 637.123 271.885 636.866 270.802C636.507 269.292 636.126 267.789 635.73 266.294C635.399 265.04 636.149 263.751 637.403 263.42C638.667 263.087 639.944 263.838 640.28 265.095C640.684 266.628 641.075 268.167 641.443 269.719C641.741 270.983 640.96 272.251 639.696 272.55C639.512 272.593 639.333 272.613 639.154 272.613ZM16.149 270.954C15.841 270.954 15.529 270.894 15.23 270.768C14.035 270.258 13.474 268.877 13.985 267.682C14.6 266.225 15.225 264.778 15.855 263.339C16.378 262.147 17.771 261.611 18.952 262.126C20.142 262.646 20.685 264.031 20.166 265.224L18.313 269.521C17.932 270.417 17.063 270.954 16.149 270.954ZM633.731 254.599C632.775 254.599 631.875 254.013 631.525 253.064C630.988 251.612 630.431 250.169 629.848 248.738C629.361 247.534 629.944 246.162 631.149 245.675C632.343 245.186 633.722 245.765 634.213 246.973C634.806 248.446 635.381 249.93 635.937 251.428C636.387 252.646 635.767 254.001 634.549 254.452C634.278 254.553 634.002 254.599 633.731 254.599ZM23.7321 253.726C23.4151 253.726 23.092 253.661 22.785 253.528C21.595 253.007 21.057 251.616 21.577 250.428C22.197 249.019 22.795 247.588 23.391 246.142C23.883 244.94 25.2621 244.375 26.4611 244.862C27.6601 245.359 28.234 246.733 27.738 247.934C27.132 249.412 26.515 250.875 25.886 252.316C25.5 253.199 24.6371 253.726 23.7321 253.726ZM633.423 237.168C633.221 237.168 633.014 237.143 632.803 237.086C631.553 236.744 630.813 235.452 631.153 234.198C631.54 232.773 631.838 231.332 632.045 229.88C632.229 228.591 633.438 227.684 634.706 227.881C635.993 228.065 636.889 229.257 636.705 230.542C636.471 232.187 636.135 233.821 635.694 235.434C635.408 236.481 634.461 237.168 633.423 237.168ZM30.988 236.359C30.671 236.359 30.349 236.294 30.042 236.161C28.852 235.637 28.313 234.249 28.833 233.059C29.463 231.632 30.11 230.184 30.791 228.726C31.338 227.545 32.735 227.046 33.916 227.584C35.093 228.133 35.603 229.533 35.056 230.711C34.394 232.138 33.755 233.553 33.144 234.953C32.757 235.835 31.893 236.359 30.988 236.359ZM39.5031 219.587C39.0901 219.587 38.6761 219.481 38.2991 219.256C37.1831 218.59 36.8151 217.147 37.4821 216.03L37.6741 215.713C37.4071 215.1 37.154 214.482 36.916 213.863C36.442 212.652 37.0451 211.29 38.2531 210.819C39.4621 210.348 40.826 210.947 41.3 212.158C41.558 212.811 41.828 213.466 42.113 214.119L42.384 214.719C42.719 215.438 42.747 216.449 42.328 217.122L41.524 218.439C41.084 219.178 40.3031 219.587 39.5031 219.587ZM633.736 218.537C632.665 218.537 631.696 217.804 631.443 216.717C631.112 215.295 630.689 213.884 630.178 212.494C629.728 211.276 630.349 209.923 631.571 209.472C632.78 209.031 634.145 209.644 634.591 210.867C635.175 212.441 635.653 214.035 636.029 215.651C636.323 216.915 635.538 218.181 634.269 218.475C634.089 218.517 633.91 218.537 633.736 218.537ZM36.259 201.598C35 201.598 33.961 200.608 33.906 199.342C33.878 198.635 33.864 197.925 33.864 197.217C33.869 196.275 33.891 195.347 33.942 194.423C34.006 193.129 34.925 192.116 36.41 192.194C37.711 192.263 38.708 193.368 38.639 194.667C38.598 195.517 38.576 196.372 38.571 197.229C38.571 197.861 38.5851 198.506 38.6121 199.15C38.6631 200.448 37.6521 201.544 36.3561 201.597C36.3231 201.598 36.291 201.598 36.259 201.598ZM628.483 200.555C627.352 200.555 626.355 199.735 626.167 198.579C625.933 197.159 625.681 195.628 625.372 194.004C625.129 192.727 625.97 191.497 627.243 191.254C628.538 191.022 629.752 191.849 629.995 193.127C630.312 194.793 630.574 196.364 630.808 197.826C631.02 199.108 630.147 200.317 628.865 200.526C628.736 200.545 628.612 200.555 628.483 200.555ZM38.786 183.036C38.565 183.036 38.341 183.004 38.115 182.937C36.87 182.567 36.1621 181.257 36.5291 180.012C36.9941 178.457 37.5 176.922 38.042 175.417C38.487 174.194 39.829 173.56 41.057 174.003C42.28 174.444 42.913 175.793 42.472 177.016C41.957 178.438 41.4801 179.886 41.0431 181.354C40.7351 182.377 39.802 183.036 38.786 183.036ZM624.048 182.29C623.087 182.29 622.182 181.697 621.837 180.741C621.336 179.358 620.775 177.949 620.142 176.518C619.618 175.328 620.161 173.94 621.35 173.416C622.545 172.899 623.924 173.432 624.453 174.62C625.124 176.153 625.722 177.658 626.259 179.133C626.705 180.355 626.075 181.704 624.853 182.148C624.586 182.244 624.315 182.29 624.048 182.29ZM615.358 165.66C614.623 165.66 613.901 165.315 613.442 164.672L610.694 160.922C609.917 159.883 610.129 158.408 611.167 157.629C612.206 156.853 613.681 157.059 614.462 158.105L617.275 161.942C618.029 163.002 617.781 164.472 616.724 165.223C616.309 165.518 615.831 165.66 615.358 165.66ZM45.9551 165.656C45.5921 165.656 45.229 165.573 44.889 165.399C43.732 164.811 43.267 163.393 43.86 162.235C44.605 160.774 45.3491 159.367 46.0801 158.016C46.6961 156.867 48.13 156.458 49.269 157.067C50.409 157.688 50.8361 159.114 50.2161 160.259C49.5031 161.573 48.778 162.948 48.051 164.372C47.638 165.187 46.8111 165.656 45.9551 165.656ZM603.901 150.734C603.225 150.734 602.55 150.442 602.087 149.879C601.103 148.684 600.101 147.499 599.085 146.327C598.235 145.344 598.341 143.857 599.324 143.007C600.303 142.159 601.788 142.265 602.642 143.244C603.685 144.448 604.705 145.661 605.716 146.884C606.543 147.888 606.401 149.37 605.399 150.197C604.958 150.557 604.43 150.734 603.901 150.734ZM54.7421 149.008C54.3791 149.008 54.015 148.926 53.676 148.753C52.518 148.163 52.0541 146.745 52.6471 145.587C53.3741 144.162 54.1261 142.752 54.9041 141.359C55.5431 140.222 56.9761 139.826 58.1071 140.454C59.2421 141.088 59.6461 142.522 59.0121 143.657C58.2631 144.994 57.536 146.35 56.838 147.724C56.424 148.54 55.5971 149.008 54.7421 149.008ZM591.149 136.903C590.565 136.903 589.981 136.687 589.526 136.253C588.415 135.191 587.279 134.153 586.126 133.137C585.147 132.28 585.056 130.793 585.915 129.817C586.769 128.845 588.259 128.746 589.232 129.608C590.432 130.663 591.613 131.745 592.771 132.848C593.713 133.744 593.75 135.233 592.854 136.175C592.389 136.66 591.769 136.903 591.149 136.903ZM64.5081 132.949C64.0291 132.949 63.552 132.806 63.139 132.508C62.081 131.752 61.8381 130.281 62.5961 129.224C63.5301 127.926 64.481 126.646 65.459 125.382C66.254 124.348 67.734 124.169 68.764 124.966C69.788 125.761 69.977 127.241 69.182 128.268C68.24 129.481 67.316 130.715 66.42 131.967C65.96 132.609 65.2381 132.949 64.5081 132.949ZM583.005 120.564C582.173 120.564 581.364 120.12 580.937 119.337C580.413 118.367 579.834 117.418 579.218 116.487C579.126 116.354 579.053 116.212 578.992 116.065L578.552 114.9C578.106 113.677 578.736 112.326 579.953 111.88C581.176 111.437 582.526 112.062 582.973 113.282L583.281 114.104C583.925 115.079 584.522 116.074 585.073 117.084C585.694 118.226 585.271 119.655 584.132 120.275C583.772 120.472 583.386 120.564 583.005 120.564ZM76.5851 118.54C75.9921 118.54 75.3991 118.317 74.9391 117.871C74.0111 116.963 73.9931 115.474 74.8981 114.543C76.0151 113.401 77.15 112.277 78.312 111.172C79.254 110.283 80.739 110.315 81.639 111.254C82.535 112.196 82.498 113.685 81.557 114.581C80.44 115.645 79.341 116.727 78.271 117.828C77.808 118.303 77.1961 118.54 76.5851 118.54ZM90.661 106.053C89.958 106.053 89.26 105.738 88.795 105.134C88.005 104.105 88.198 102.627 89.228 101.834C90.483 100.867 91.7641 99.915 93.0701 98.982C94.1131 98.231 95.5971 98.465 96.3511 99.526C97.1091 100.583 96.8661 102.054 95.8091 102.81C94.5491 103.711 93.3131 104.63 92.0951 105.565C91.6681 105.894 91.162 106.053 90.661 106.053ZM575.826 103.223C574.934 103.223 574.084 102.715 573.689 101.851C573.083 100.53 572.402 99.176 571.648 97.807C571.019 96.669 571.432 95.238 572.568 94.611C573.708 93.979 575.136 94.393 575.766 95.532C576.583 97.007 577.31 98.466 577.962 99.889C578.505 101.07 577.989 102.467 576.809 103.01C576.488 103.153 576.157 103.223 575.826 103.223ZM106.291 95.594C105.482 95.594 104.696 95.176 104.26 94.427C103.603 93.305 103.984 91.864 105.106 91.21C106.466 90.413 107.858 89.634 109.269 88.869C110.395 88.253 111.838 88.671 112.458 89.813C113.078 90.955 112.655 92.384 111.512 93.004C110.147 93.746 108.8 94.503 107.477 95.272C107.105 95.49 106.696 95.594 106.291 95.594ZM563.671 86.927L565.385 85.314L563.639 86.893C562.532 85.748 561.479 84.692 560.422 83.662C559.494 82.755 559.475 81.264 560.385 80.335C561.295 79.404 562.784 79.391 563.713 80.294C564.797 81.355 565.877 82.444 566.961 83.561L563.671 86.927ZM119.306 84.383C119.177 84.383 119.048 84.374 118.924 84.353C117.638 84.144 116.769 82.933 116.981 81.651C117.248 80.008 117.62 78.383 118.079 76.789C118.437 75.539 119.729 74.809 120.998 75.185C122.243 75.546 122.965 76.851 122.602 78.099C122.188 79.514 121.862 80.955 121.623 82.41C121.434 83.562 120.436 84.383 119.306 84.383ZM551.492 74.989C550.978 74.989 550.463 74.824 550.031 74.479C548.818 73.516 547.591 72.588 546.364 71.694C545.311 70.931 545.082 69.458 545.844 68.408C546.607 67.351 548.082 67.128 549.13 67.888C550.411 68.819 551.685 69.788 552.953 70.79C553.974 71.599 554.143 73.079 553.335 74.096C552.871 74.684 552.187 74.989 551.492 74.989ZM126.636 67.248C126.139 67.248 125.643 67.094 125.22 66.772C124.182 65.991 123.975 64.513 124.756 63.477C125.427 62.59 126.139 61.728 126.884 60.896L127.936 59.727C128.814 58.767 130.303 58.691 131.264 59.562C132.224 60.433 132.297 61.922 131.429 62.885L130.39 64.041C129.724 64.776 129.104 65.532 128.515 66.313C128.051 66.927 127.348 67.248 126.636 67.248ZM535.831 64.585C535.449 64.585 535.063 64.493 534.705 64.298C533.353 63.563 531.989 62.862 530.619 62.198C529.452 61.63 528.965 60.224 529.53 59.054C530.099 57.886 531.506 57.4 532.677 57.965C534.112 58.661 535.54 59.395 536.956 60.167C538.096 60.787 538.519 62.216 537.897 63.358C537.472 64.142 536.662 64.585 535.831 64.585ZM518.612 57.016C518.323 57.016 518.028 56.963 517.743 56.85L513.359 55.092C512.155 54.603 511.576 53.231 512.068 52.027C512.55 50.823 513.924 50.239 515.133 50.731L519.48 52.475C520.689 52.955 521.277 54.323 520.799 55.529C520.432 56.453 519.549 57.016 518.612 57.016ZM139.476 53.494C138.86 53.494 138.245 53.255 137.785 52.777C136.88 51.841 136.907 50.353 137.841 49.449C138.981 48.348 140.139 47.257 141.32 46.182C142.281 45.304 143.769 45.375 144.642 46.333C145.52 47.292 145.451 48.78 144.491 49.656C143.346 50.704 142.217 51.763 141.113 52.832C140.656 53.273 140.064 53.494 139.476 53.494ZM501.195 49.9C500.896 49.9 500.592 49.842 500.299 49.723L495.951 47.931C494.747 47.439 494.173 46.065 494.665 44.861C495.156 43.659 496.554 43.08 497.734 43.579L502.09 45.372C503.294 45.868 503.864 47.245 503.367 48.446C502.995 49.353 502.117 49.9 501.195 49.9ZM359.08 48.887C359.025 48.887 358.97 48.885 358.91 48.88C358.175 48.827 357.509 48.434 357.108 47.816L355.707 45.695C354.98 44.615 355.27 43.153 356.351 42.43C357.338 41.757 358.685 41.954 359.448 42.855C360.304 42.423 361.379 42.542 362.114 43.234C363.065 44.121 363.116 45.61 362.229 46.561C361.764 47.06 361.305 47.567 360.85 48.084C360.404 48.595 359.756 48.887 359.08 48.887ZM483.749 42.836C483.464 42.836 483.175 42.786 482.895 42.675L478.524 40.99C477.311 40.53 476.7 39.17 477.16 37.957C477.624 36.737 478.993 36.128 480.198 36.592L484.604 38.29C485.813 38.761 486.415 40.126 485.942 41.337C485.578 42.269 484.692 42.836 483.749 42.836ZM153.8 41.306C153.083 41.306 152.371 40.977 151.911 40.355C151.135 39.31 151.355 37.836 152.398 37.062C153.675 36.115 154.985 35.192 156.323 34.286C157.398 33.567 158.859 33.841 159.59 34.92C160.321 35.996 160.036 37.459 158.961 38.188C157.679 39.052 156.424 39.939 155.201 40.844C154.78 41.157 154.287 41.306 153.8 41.306ZM371.121 38.036C370.385 38.036 369.654 37.689 369.195 37.039C368.45 35.975 368.703 34.507 369.764 33.76C371.092 32.825 372.452 31.938 373.845 31.099C374.952 30.431 376.4 30.785 377.075 31.899C377.742 33.013 377.384 34.459 376.271 35.13C374.979 35.909 373.711 36.736 372.475 37.607C372.063 37.896 371.59 38.036 371.121 38.036ZM466.074 36.375C465.826 36.375 465.573 36.336 465.325 36.251C463.854 35.757 462.38 35.272 460.886 34.794C459.651 34.399 458.965 33.075 459.361 31.837C459.76 30.596 461.085 29.916 462.321 30.314C463.833 30.796 465.336 31.291 466.824 31.794C468.055 32.207 468.718 33.542 468.304 34.774C467.973 35.755 467.058 36.375 466.074 36.375ZM349.246 35.408C348.57 35.408 347.894 35.116 347.431 34.551C346.456 33.37 345.454 32.2 344.43 31.047C343.566 30.077 343.649 28.588 344.618 27.724C345.592 26.858 347.076 26.945 347.94 27.917C349.011 29.116 350.049 30.332 351.06 31.559C351.887 32.561 351.746 34.043 350.744 34.87C350.303 35.231 349.775 35.408 349.246 35.408ZM169.797 31.43C168.943 31.43 168.115 30.961 167.701 30.143C167.108 28.985 167.573 27.567 168.73 26.979C170.141 26.262 171.589 25.568 173.064 24.902C174.241 24.369 175.642 24.893 176.18 26.076C176.713 27.26 176.189 28.654 175.003 29.19C173.592 29.829 172.209 30.49 170.862 31.175C170.524 31.348 170.155 31.43 169.797 31.43ZM448.055 30.955C447.858 30.955 447.66 30.93 447.458 30.879C445.964 30.486 444.457 30.105 442.936 29.734C441.677 29.424 440.901 28.151 441.213 26.889C441.521 25.628 442.789 24.851 444.057 25.161C445.597 25.54 447.132 25.926 448.653 26.324C449.908 26.655 450.662 27.942 450.331 29.199C450.055 30.256 449.099 30.955 448.055 30.955ZM387.83 29.523C386.851 29.523 385.936 28.91 385.605 27.933C385.182 26.704 385.839 25.366 387.067 24.943C388.592 24.422 390.146 23.946 391.722 23.521C392.967 23.188 394.268 23.93 394.603 25.18C394.944 26.437 394.199 27.726 392.945 28.066C391.469 28.463 390.017 28.907 388.592 29.396C388.34 29.481 388.083 29.523 387.83 29.523ZM429.678 26.927C429.549 26.927 429.425 26.918 429.296 26.897C427.752 26.646 426.231 26.431 424.724 26.249C423.437 26.091 422.518 24.919 422.674 23.63C422.83 22.338 424.029 21.444 425.293 21.576C426.856 21.766 428.441 21.991 430.05 22.251C431.332 22.458 432.205 23.666 431.994 24.951C431.81 26.104 430.808 26.927 429.678 26.927ZM406.227 25.785C405.013 25.785 403.984 24.849 403.887 23.618C403.782 22.322 404.751 21.189 406.047 21.086C407.633 20.962 409.245 20.879 410.872 20.84C412.182 20.883 413.253 21.84 413.28 23.138C413.307 24.438 412.283 25.516 410.982 25.546C409.438 25.581 407.917 25.659 406.415 25.778C406.355 25.782 406.291 25.785 406.227 25.785ZM187.233 24.422C186.222 24.422 185.29 23.77 184.981 22.754C184.605 21.511 185.303 20.196 186.548 19.817C188.056 19.36 189.59 18.921 191.157 18.509C192.393 18.169 193.703 18.932 194.029 20.184C194.36 21.441 193.611 22.728 192.352 23.059C190.849 23.456 189.37 23.877 187.917 24.32C187.688 24.39 187.458 24.422 187.233 24.422ZM336.125 21.94C335.583 21.94 335.041 21.756 334.6 21.377C333.437 20.389 332.251 19.431 331.034 18.509C330 17.723 329.798 16.246 330.584 15.212C331.374 14.173 332.845 13.981 333.884 14.759C335.166 15.736 336.425 16.749 337.652 17.797C338.64 18.638 338.76 20.125 337.92 21.113C337.449 21.66 336.791 21.94 336.125 21.94ZM205.578 20.339C204.43 20.339 203.428 19.496 203.253 18.326C203.069 17.039 203.956 15.847 205.243 15.658C206.796 15.43 208.373 15.228 209.98 15.047C211.249 14.896 212.439 15.833 212.582 17.124C212.725 18.415 211.796 19.581 210.505 19.725C208.951 19.897 207.421 20.095 205.923 20.313C205.809 20.332 205.694 20.339 205.578 20.339ZM224.223 17.905C223.134 17.905 222.155 17.145 221.925 16.035C221.658 14.762 222.472 13.514 223.745 13.25C225.233 12.937 226.727 12.591 228.244 12.214C229.48 11.883 230.78 12.662 231.098 13.926C231.411 15.185 230.648 16.463 229.384 16.778C227.812 17.173 226.254 17.534 224.71 17.856C224.545 17.889 224.384 17.905 224.223 17.905ZM242.399 13.029C241.383 13.029 240.446 12.367 240.142 11.342C239.775 10.097 240.487 8.787 241.732 8.419L246.263 7.096C247.523 6.742 248.814 7.45701 249.177 8.70701C249.535 9.95501 248.814 11.257 247.569 11.618L243.065 12.932C242.844 12.999 242.619 13.029 242.399 13.029ZM320.468 11.584C320.123 11.584 319.775 11.511 319.447 11.35C318.092 10.698 316.709 10.098 315.303 9.55301C314.09 9.08401 313.487 7.72201 313.961 6.50901C314.425 5.29401 315.794 4.69801 317.003 5.16501C318.528 5.75601 320.023 6.406 321.488 7.114C322.66 7.677 323.152 9.083 322.587 10.255C322.182 11.095 321.341 11.584 320.468 11.584ZM260.57 8.10701C259.499 8.10701 258.534 7.37401 258.277 6.29001C257.982 5.02601 258.768 3.76 260.032 3.464C261.558 3.108 263.116 2.768 264.697 2.446C265.937 2.186 267.211 3.007 267.472 4.282C267.73 5.555 266.907 6.798 265.634 7.055C264.099 7.368 262.587 7.699 261.107 8.045C260.923 8.087 260.744 8.10701 260.57 8.10701ZM302.559 6.019C302.416 6.019 302.275 6.00701 302.132 5.98001C300.629 5.70701 299.121 5.47501 297.614 5.28601C296.322 5.12501 295.408 3.95101 295.569 2.66201C295.73 1.37001 296.906 0.419001 298.193 0.617001C299.793 0.815001 301.382 1.061 302.977 1.352C304.254 1.584 305.1 2.809 304.871 4.089C304.664 5.224 303.671 6.019 302.559 6.019ZM279.113 5.006C277.909 5.006 276.88 4.08201 276.774 2.85801C276.659 1.56201 277.62 0.422002 278.916 0.310002C280.538 0.167002 282.138 0.0660006 283.718 0.00700057C285.194 -0.0969994 286.113 0.972004 286.163 2.265C286.214 3.566 285.198 4.657 283.902 4.708C282.394 4.768 280.869 4.86401 279.32 4.99801C279.25 5.00301 279.182 5.006 279.113 5.006Z" fill="#636466"/>
<path d="M602.159 364.337C586.685 339.782 570.683 314.394 539.64 305.706C522.554 300.927 497.517 293.169 477.434 281.06C476.194 280.313 474.543 279.401 472.636 278.353C464.231 273.718 448.583 265.092 447.485 257.512C447.135 255.09 448.285 254.435 448.662 254.22C452.117 252.248 457.168 251.288 464.103 251.288C469.277 251.288 474.548 251.816 479.204 252.281C480.804 252.442 482.307 252.591 483.676 252.708C495.578 253.71 504.452 260.22 513.846 267.108C516.769 269.252 519.709 271.407 522.771 273.42C530.749 278.666 538.442 284.815 546.584 291.327C562.803 304.296 579.576 317.708 599.089 323.756C599.282 323.816 599.485 323.845 599.682 323.845C600.059 323.845 600.432 323.74 600.753 323.532C601.249 323.218 601.58 322.703 601.662 322.121C604.921 298.84 600.597 264.453 583.395 243.962C574.576 233.461 563.514 227.905 550.518 227.45C548.786 227.388 547.057 227.361 545.325 227.361C536.838 227.361 528.271 228.034 519.985 228.682C511.828 229.321 503.39 229.983 495.16 229.983C488.336 229.983 482.269 229.53 476.722 228.621C469.837 227.109 461.593 223.46 459.764 219.02C459.038 217.249 459.346 215.364 460.707 213.264C463.97 208.221 471.933 207.453 478.331 206.835L480.086 206.66C483.639 206.385 487.191 206.223 490.744 206.063C495.877 205.829 501.189 205.589 506.429 204.99C510.404 204.537 513.455 204.338 516.314 204.338C520.662 204.338 524.604 204.841 528.34 205.866C532.334 207.042 536.695 207.589 542.058 207.589C544.908 207.589 547.761 207.442 550.624 207.293C553.437 207.148 556.249 207.001 559.066 207.001C563.054 207.001 566.336 207.3 569.387 207.943C575.78 209.287 582.485 213.01 587.609 216.105C587.926 216.296 588.285 216.393 588.643 216.393C589.034 216.393 589.424 216.278 589.764 216.051C590.408 215.614 590.743 214.844 590.618 214.074C590.227 211.648 589.957 209.104 589.658 206.239C588.087 191.354 576.487 178.012 565.347 166.926C553.637 155.267 542.319 149.837 529.736 149.837C524.088 149.837 518.284 150.917 511.988 153.144L508.454 154.401C498.146 158.07 488.408 161.538 478.004 163.176C477.99 163.174 477.172 163.187 477.103 163.187C476.911 163.228 476.731 163.286 476.681 163.341C475.697 163.412 474.589 163.458 473.413 163.458C466.134 163.458 460.462 161.826 457.852 158.984C456.459 157.467 455.88 155.59 456.082 153.242C456.651 146.572 462.74 142.275 475.181 139.736C481.422 138.675 487.957 137.08 494.276 135.536C506.018 132.668 518.165 129.704 529.805 129.704C533.403 129.704 536.854 129.994 540.062 130.561C540.176 130.582 540.296 130.593 540.411 130.593C541.005 130.593 541.569 130.329 541.956 129.865C542.415 129.306 542.54 128.546 542.277 127.873L541.482 125.772C539.161 119.626 536.767 113.272 531.22 108.633C520.912 100.007 510.374 96.1703 499.216 92.1073C496.689 91.1863 494.106 90.2443 491.449 89.2243C486.867 87.4613 482.575 84.6813 478.426 81.9903C473.324 78.6863 468.053 75.2693 462.006 73.5113C451.983 70.5973 441.762 68.5133 431.73 66.4663C425.49 65.1933 418.421 63.7503 411.68 63.7503C399.571 63.7503 391.215 68.4933 386.133 78.2513C384.988 80.4483 383.793 82.6683 382.589 84.9083C376.532 96.1813 370.264 107.838 368.022 120.338C366.745 127.473 366.179 133.955 365.632 140.223C364.515 153.044 363.55 164.118 357.074 177.224C353.908 183.419 349.679 189.869 342.322 190.724C341.918 190.77 341.527 190.793 341.15 190.793C332.304 190.793 331.509 176.97 331.431 174.412C331.826 169.566 333.113 164.396 334.478 158.92C336.807 149.573 339.215 139.906 337.129 131.207L336.779 129.766C335.432 124.247 334.371 119.886 335.354 114.235C338.144 98.2633 330.717 75.4213 317.694 59.9223C311.09 52.0643 300.203 42.6953 285.833 42.6953C282.727 42.6953 279.578 43.1543 276.49 44.0583C272.303 45.2833 268.209 46.5833 264.141 47.8723C251.159 51.9893 238.888 55.8823 225.133 56.9823L223.112 57.1433C206.802 58.4323 191.393 59.6523 177.841 71.9323C176.407 73.2283 174.96 74.5143 173.512 75.8023C170.195 78.7553 166.867 81.7143 163.692 84.8113C163.186 85.3053 162.975 86.0313 163.145 86.7213C163.315 87.4083 163.834 87.9553 164.514 88.1593C170.171 89.8573 176.665 90.7903 182.943 91.6913C188.293 92.4583 193.347 93.1853 197.626 94.3263C207.842 97.0583 219.814 100.746 231.096 107.366C239.418 112.251 255.729 130.537 255.729 141.07C255.729 142.568 255.729 146.075 248.559 146.075C242.742 146.075 235.177 143.648 231.993 142.366C226.823 140.287 220.825 137.346 214.474 134.234C197.387 125.854 178.022 116.359 161.247 116.359C155.719 116.359 150.746 117.427 146.468 119.537C143.752 120.877 140.668 122.269 137.424 123.735C125.77 128.999 112.558 134.964 105.177 143.124C97.539 151.571 93.1921 160.865 88.5911 170.707C87.1301 173.828 85.6591 176.975 84.0601 180.13C83.2511 181.725 82.2461 183.333 81.2931 184.859C78.7111 189 76.675 192.269 78.15 194.932C79.432 197.244 82.607 197.255 83.683 197.255C83.687 197.255 83.6921 197.255 83.7011 197.255C84.4001 197.255 85.1991 197.214 86.1001 197.119C92.0971 196.506 98.1361 195.603 103.977 194.732C110.746 193.721 117.741 192.678 124.634 192.087C127.345 191.853 130.149 191.74 133.199 191.74C138.99 191.74 144.831 192.161 150.479 192.565C156.159 192.974 162.037 193.394 167.901 193.394C169.413 193.394 170.929 193.367 172.45 193.305C179.274 193.027 186.122 192.078 192.74 191.163C199.771 190.189 207.042 189.182 214.182 189.005C215.258 188.978 216.398 188.959 217.597 188.959C235.014 188.959 245.795 192.916 249.633 200.721C250.276 202.026 250.133 203.083 249.159 204.255C244.343 210.02 232.67 210.687 224.31 210.687C221.567 210.687 218.887 210.611 216.411 210.542C214.242 210.482 212.228 210.425 210.455 210.425L208.731 210.446C202.651 210.609 196.585 210.827 190.528 211.048C178.957 211.466 166.99 211.898 155.22 211.898C148.235 211.898 141.893 211.749 135.822 211.443C133.791 211.342 131.81 211.289 129.871 211.289C98.4331 211.289 78.892 224.689 66.521 254.733C64.398 259.898 62.132 264.997 59.875 270.085C53.809 283.748 47.54 297.877 44.228 312.904C44.076 313.579 44.2881 314.282 44.7841 314.767C45.1611 315.137 45.666 315.337 46.181 315.337C46.337 315.337 46.4971 315.319 46.6541 315.28C51.8471 314.014 56.466 311.649 60.933 309.363C65.179 307.189 69.191 305.135 73.708 303.906C77.771 302.803 82.0621 302.033 86.2171 301.289C91.0471 300.425 96.042 299.529 100.808 298.095C107.279 296.149 113.391 293.162 119.301 290.274C125.284 287.351 131.47 284.327 137.839 282.516C142.55 281.177 147.554 280.281 152.394 279.414C158.272 278.364 164.342 277.277 170.091 275.376C177.995 272.761 185.679 269.678 193.106 266.695C206.851 261.18 219.83 255.969 234.439 253.288L235.252 253.139C238.396 252.557 242.302 251.834 245.937 251.834C250.147 251.834 253.175 252.781 255.207 254.731C256.043 255.533 256.19 256.891 255.57 258.038C248.663 270.782 224.894 273.679 209.164 275.595C205.781 276.009 202.684 276.385 200.064 276.808C164.701 282.507 131.305 287.888 102.5 311.264C93.521 318.55 83.7131 326.236 72.7991 333.084C55.3131 344.058 47.1921 359.975 47.2431 383.176C47.2841 406.028 54.1591 420.672 64.4721 435.625C64.8441 436.172 65.4651 436.492 66.1181 436.492C66.1911 436.492 66.2691 436.487 66.3471 436.478C67.0771 436.393 67.707 435.913 67.979 435.224C72.069 424.845 76.5541 414.817 86.4251 406.224C94.5231 399.174 103.976 392.979 113.116 386.989C119.375 382.887 125.845 378.648 131.824 374.17L134.049 372.504C166.002 348.557 202.22 321.413 241.493 311.592C244.076 311.077 248.888 310.119 253.414 310.119C263.465 310.119 264.136 314.868 264.356 316.431C265.326 323.299 257.335 327.676 250.914 331.192C249.577 331.925 248.313 332.619 247.211 333.285C238.217 338.639 228.791 343.903 219.679 348.991C189.205 366.004 157.698 383.598 133.392 409.251C131.37 411.385 129.036 413.743 126.526 416.277C110.483 432.49 88.5071 454.691 90.0141 474.896C91.4161 493.805 100.294 516.934 112.115 532.451C112.496 532.952 113.089 533.239 113.705 533.239C113.829 533.239 113.958 533.227 114.082 533.202C114.826 533.06 115.429 532.508 115.631 531.778C124.996 498.315 152.589 475.831 179.275 454.087C196.219 440.282 213.738 426.008 226.666 408.963C237.893 394.163 253.743 376.337 276.831 369.809C277.631 369.584 278.385 369.469 279.083 369.469C280.687 369.469 281.937 370.059 282.81 371.227C284.024 372.849 284.308 375.425 283.564 377.948C280.517 388.194 270.154 399.658 261.951 405.244C255.246 409.807 248.082 414.346 241.151 418.732C222.287 430.676 202.774 443.029 187.411 458.868C179.194 467.342 173.734 477.121 168.454 486.579C164.636 493.419 160.683 500.492 155.729 506.978C143.146 523.449 127.489 543.947 143.265 567.633C146.013 571.762 148.642 576.656 151.422 581.838C157.341 592.867 164.051 605.367 173.665 612.831C174.023 613.109 174.455 613.251 174.892 613.251C175.172 613.251 175.457 613.191 175.724 613.069C176.4 612.759 176.85 612.1 176.891 611.355C176.988 609.483 177.034 607.584 177.079 605.675C177.244 598.478 177.419 591.038 180.769 584.94C182.69 581.436 184.918 577.96 187.074 574.595C190.231 569.666 193.499 564.572 195.994 559.138C198.159 554.418 200.153 549.71 202.125 545.046C207.824 531.56 213.21 518.821 222.249 507.02C222.769 506.342 223.545 505.276 224.528 503.923C231.298 494.631 251.9 466.352 262.838 466.352C264.119 466.352 265.14 466.772 266.041 467.675C274.768 476.4 248.775 504.139 236.284 517.468C232.35 521.668 229.506 524.701 228.223 526.491L226.072 529.48C213.582 546.81 194.703 573.003 196.877 594.978C198.816 614.675 214.152 619.298 228.981 623.767C237.138 626.228 244.845 628.549 250.369 633.239C259.648 641.109 266.996 644.319 275.737 644.319C280.764 644.319 286.321 643.311 294.919 640.836C316.004 634.77 311.072 615.478 307.47 601.39C306.896 599.138 306.335 596.964 305.903 594.933C305.618 593.596 305.242 592.001 304.823 590.211C301.85 577.557 295.665 551.225 306.45 544.283C308.316 543.084 310.145 542.475 311.883 542.475C322.802 542.475 330.462 565.754 332.977 573.403C337.719 587.812 340.095 599.407 340.454 609.887C340.78 619.604 338.625 627.509 336.341 635.875C335.611 638.547 334.875 641.252 334.204 644.055C334.043 644.731 334.246 645.441 334.737 645.933C335.114 646.314 335.629 646.521 336.152 646.521C336.304 646.521 336.461 646.502 336.612 646.468C352.738 642.668 363.465 636.147 368.496 627.084C372.324 620.179 372.674 611.955 369.521 602.64C368.726 600.284 367.903 597.925 367.081 595.558C364.135 587.093 361.088 578.341 359.177 569.579L357.739 562.915C352.357 537.957 347.279 514.381 333.369 491.201C326.618 478.859 326.567 468.751 333.213 460.303C335.873 456.921 338.935 455.204 342.308 455.204C347.105 455.204 352.464 458.813 356.296 464.629C356.48 464.902 356.605 465.19 356.807 465.9C360.042 473.083 361.328 480.294 362.689 487.929C363.737 493.802 364.822 499.875 366.867 505.962C371.499 519.708 377.91 532.754 384.109 545.374C385.746 548.701 387.381 552.033 388.995 555.388C397.684 573.488 397.29 592.29 396.871 612.201C396.798 615.82 396.725 619.439 396.706 623.058C396.701 623.748 397.051 624.389 397.635 624.758C397.961 624.963 398.333 625.069 398.705 625.069C398.999 625.069 399.298 625.002 399.569 624.871C406.541 621.53 413.847 615.583 420.911 609.834C426.283 605.461 431.356 601.33 435.731 598.82C437.51 597.8 439.376 596.802 441.26 595.794C454.647 588.636 469.817 580.525 463.81 559.068C461.811 551.933 458.907 545.228 456.099 538.746C455.175 536.609 454.246 534.463 453.341 532.289C450.18 524.7 447.611 516.958 445.124 509.47C441.085 497.312 436.912 484.739 430.151 472.703C420.354 455.254 407.302 440.084 394.678 425.414C392.233 422.572 389.788 419.727 387.37 416.88L386.626 415.982C384.43 413.358 382.356 410.876 381.415 407.852C381.222 407.234 381.052 406.595 380.882 405.954C380.165 403.25 379.356 400.187 376.741 398.052C375.541 397.075 374.355 396.181 373.193 395.304C370.362 393.167 367.687 391.149 365.233 388.133C365.072 387.984 364.92 387.816 364.664 387.45C360.303 381.301 352.186 369.856 358.34 363.555C360.128 361.723 362.431 360.832 365.39 360.832C370.463 360.832 377.182 363.493 385.289 368.697C401.488 379.943 415.275 399.177 420.454 406.925C423.225 411.066 426.235 415.077 429.145 418.959C436.828 429.205 444.089 438.881 447.583 451.063C449.09 456.309 449.752 462.348 450.45 468.74C451.516 478.511 452.624 488.612 456.999 496.247C458.465 498.803 459.986 501.334 461.508 503.872C465.051 509.78 468.718 515.887 471.581 522.19C477.946 536.211 481.393 549.44 482.753 565.081C482.923 567.025 484.278 568.282 486.214 568.279C493.792 568.279 518.033 544.814 520.143 540.814C522.161 536.988 524.697 533.305 527.147 529.741C529.863 525.788 532.67 521.703 534.904 517.282C546.361 494.548 536.237 478.236 525.515 460.966C522.105 455.474 518.58 449.796 515.708 443.799C513.437 439.066 512.142 433.767 510.883 428.641C510.404 426.69 509.931 424.744 509.403 422.823C505.841 409.864 499.477 404.229 491.421 397.097C489.758 395.626 488.016 394.085 486.2 392.389C480.842 387.38 475.796 382.214 470.916 377.219C461.918 368.009 452.616 358.487 441.398 350.091C425.989 338.568 396.168 311.371 402.326 300.856C403.549 298.77 405.814 297.754 409.257 297.754C424.128 297.754 453.112 316.582 464.023 323.671C465.664 324.735 466.955 325.573 467.809 326.097C473.21 329.424 479.551 332.581 486.27 335.923C499.009 342.265 512.184 348.82 520.241 357.21C526.435 363.658 530.314 371.447 534.428 379.691C538.445 387.747 542.599 396.077 549.102 403.034C554.359 408.661 560.692 412.777 566.822 416.754C572.338 420.338 578.041 424.043 582.774 428.778C585.337 431.344 586.543 433.697 587.815 436.188C588.555 437.629 589.318 439.12 590.342 440.614C590.719 441.161 591.339 441.48 591.992 441.48C592.075 441.48 592.157 441.475 592.24 441.464C592.979 441.372 593.609 440.874 593.867 440.172C595.622 435.42 597.69 430.698 599.689 426.132C608.032 407.069 616.662 387.354 602.159 364.337ZM306.713 261.063C302.2 262.462 295.527 264.323 289.678 264.323C289.678 264.323 289.678 264.323 289.673 264.323C284.967 264.323 281.64 263.119 279.783 260.748C277.886 258.317 277.159 255.837 277.568 253.167C278.344 248.084 283.339 242.232 292.011 236.244C292.218 236.102 292.439 235.994 292.738 235.888C297.003 233.857 303.924 231.582 310.077 231.582C319.848 231.582 320.817 237.232 321.135 239.089C322.913 249.5 317.523 257.717 306.713 261.063ZM349.117 439.242C347.857 440.724 346.23 441.446 344.135 441.446L343.713 441.437C333.34 440.971 325.041 429.788 322.504 419.502C321.653 414.059 322.84 408.374 325.565 405.189C327.294 403.167 329.623 402.142 332.481 402.142C332.794 402.142 333.116 402.154 333.447 402.177C343.024 402.889 350.28 415.049 351.632 423.183C352.509 428.45 352.095 435.722 349.117 439.242ZM421.244 253.204C418.501 257.769 414.126 259.989 407.857 259.989C401.731 259.989 395.114 257.767 390.637 255.903L390.049 255.659C381.984 252.306 365.2 245.333 368.868 235.195C370.968 229.405 380.384 228.533 384.337 228.425L385.665 228.409C394.263 228.409 402.489 230.704 409.396 232.952C414.175 234.707 420.274 239.11 422.199 244.567C423.239 247.512 422.917 250.419 421.244 253.204Z" fill="#B4D345"/>
<path d="M529.834 332.122C494.039 311.894 489.953 303.149 469.641 290.911C449.444 278.744 431.213 272.821 407.835 269.622C395.072 267.878 382.633 265.683 370.247 262.111C359.255 258.938 352.012 251.95 347.402 243.179C337.223 223.807 347.453 216.433 359.631 214.482C399.093 208.186 433.68 233.315 473.142 242.313C496.598 247.662 526.364 241.116 546.377 256.688C559.856 267.175 572.149 281.991 587.429 289.409C588.804 290.078 589.083 288.885 587.765 287.777C571.994 274.544 559.01 256.663 541.24 246.258C535.174 242.708 527.016 242.372 520.233 241.486C502.42 239.158 484.925 237.901 467.37 233.731C443.91 228.159 417.692 210.726 392.182 204.639C403.703 202.691 414.857 200.641 423.418 196.181C436.327 189.455 424.401 182.67 452.076 182.582C464.277 182.543 476.369 184.278 488.547 184.848C507.072 185.717 525.959 186.247 544.622 186.601C545.928 186.626 546.258 184.542 544.935 184.289C521.948 179.891 502.679 178.636 479.43 177.853C457.95 177.127 440.684 170.36 423.919 185.982C416.139 193.232 398.056 195.582 379.972 198.855C388.368 190.785 393.493 181.624 397.555 170.491C405.276 149.328 419.991 149.315 435.009 136.629C439.967 132.438 443.749 128.198 447.803 123.138C457.913 110.507 475.666 112.047 489.729 112.093C491.54 112.1 490.376 110.576 488.584 110.14C475.656 106.995 457.132 102.268 446.442 113.318C438.795 121.223 431.768 127.608 422.711 132.904C427.049 121.514 421.607 107.679 427.932 96.1793C428.552 95.0583 427.127 94.0104 426.199 94.8444C417.427 102.723 417.812 111.719 417.136 122.845C416.64 130.91 412.656 136.037 407.197 141.216C402.868 143.769 398.805 146.623 395.013 150.396C390.556 154.831 388.345 161.624 385.974 167.301C378.414 185.403 368.828 192.142 351.613 200.215C341.686 204.863 329.669 199.516 321.029 194.617C313.603 190.401 307.031 185.771 301.085 177.558C293.723 167.39 293.194 152.684 292.271 139.803C292.376 127.615 292.441 115.469 293.623 103.271C295.351 85.4604 291.169 76.4354 278.765 63.8364C277.869 62.9244 276.265 64.1174 276.978 65.2174C283.549 75.3984 288.292 84.1413 287.795 96.8003C287.589 102.064 287.014 107.351 286.541 112.636C276.601 88.9323 254.33 74.9683 226.784 72.7053C225.704 72.6153 225.488 74.3504 226.531 74.5834C247.446 79.2344 264.965 89.6084 276.623 107.859C286.789 123.772 283.618 143.358 287.069 160.961C289.583 173.801 294.095 184.093 302.198 194.38C302.303 194.513 302.418 194.626 302.524 194.755C302.358 194.695 302.193 194.629 302.027 194.567C288.521 189.571 277.207 181.619 264.013 176.292C260.501 174.877 256.172 174.286 252.464 173.824C239.638 172.227 229.858 167.939 218.526 162.053C208.232 156.708 196.963 154.319 185.649 152.214C164.703 148.321 142.721 148.827 123.801 159.052C122.551 159.727 123.405 161.754 124.762 161.338C146.6 154.624 168.47 155.157 190.658 159.727C209.9 163.693 225.512 176.188 244.642 180.104C263.071 183.875 275.212 192.372 292.381 199.191C300.355 202.358 306.834 205.862 312.22 209.802C297.702 207.695 280.984 210.016 267.427 212.596C238.861 218.032 210.993 226.229 182.473 231.849C173.76 232.807 165.189 232.745 155.331 229.721C144.435 226.377 132.997 226.824 121.977 229.066C120.695 229.328 121.09 231.157 122.271 231.233C134.156 231.994 145.24 234.443 156.517 236.621C133.42 241.207 111.109 247.844 91.9448 262.421C90.4738 263.538 90.9658 264.625 92.6718 263.855C134.45 245 177.506 242.371 221.67 232.557C254.372 225.291 293.958 208.653 322.713 224.193C333.301 229.919 333.756 239.947 331.812 253.049C330.268 263.363 324.731 272.67 313.292 279.262C289.316 293.076 249.009 285.027 222.561 286.891C194.855 288.844 169.514 297.716 146.72 313.458C125.337 328.226 101.426 342.796 86.9778 364.851C86.2698 365.931 87.9068 367.199 88.7658 366.232C101.56 351.827 116.987 342.997 132.778 332.563C148.347 322.276 162.525 313.006 179.271 306.334C178.807 306.709 178.333 307.079 177.902 307.458C170.268 314.182 164.956 323.354 156.155 328.662C154.754 329.508 155.976 331.493 157.415 330.822C164.905 327.332 169.768 322.327 175.319 316.385C181.882 309.368 191.766 306.78 198.274 300.282C232.226 292.385 267.401 298.896 301.656 293.63C315.682 291.472 325.567 285.018 331.849 276.263C330.144 285.73 327.295 295.022 324.188 304.241C318.816 314.498 313.325 324.402 302.98 330.96C293.288 337.102 278.876 336.403 267.695 338.421C251.757 341.296 238.293 354.384 226.284 367.026C217.897 373.193 209.924 379.025 198.84 382.09C184.414 386.079 174.221 389.558 162.59 399.468C162.103 399.884 162.622 400.831 163.234 400.576C168.79 398.244 173.978 395.36 179.345 392.635C188.408 388.032 198.781 387.888 208.353 384.882C208.417 384.861 208.477 384.834 208.541 384.813C190.848 400.243 169.276 409.185 152.171 425.135C134.57 441.548 121.275 466.224 113.725 488.761C113.445 489.6 114.617 489.972 115.067 489.329C132.636 464.301 147.149 435.188 173.785 418.313C196.726 403.779 216.382 391.02 236.097 371.794C248.235 359.958 259.875 350.636 277.136 347.844C285.601 346.472 294.75 346.082 302.688 342.502C307.462 340.347 311.355 337.819 314.641 334.986C310.978 350.841 309.195 367.272 306.722 383.212C305.164 393.255 303.087 403.212 300.808 413.127C298.395 416.53 295.16 419.664 290.596 422.546C280.247 429.083 265.201 429.678 253.818 434.159C235.735 441.28 221.396 456.1 209.521 470.928C198.405 484.807 188.717 500.363 178.133 514.726C168.087 528.352 163.06 539.944 165.614 556.925C165.794 558.095 167.769 558.083 167.958 556.925C171.828 533.189 186.81 519.064 201.359 501.307C216.147 483.26 225.991 463.864 245.5 449.852C261.064 438.678 280.835 437.828 297.141 428.391C295.114 436.431 293.032 444.455 290.922 452.454C285.017 474.86 283.404 498.656 272.756 519.492C257.899 548.571 243.432 568.354 247.968 603.662C248.524 607.984 250.256 609.216 250.757 604.838C253.028 585.033 254.884 567.65 264.424 549.806C271.699 536.199 283.289 526.256 288.432 511.19C291.093 503.391 293.119 495.383 294.967 487.315C297.076 493.533 302.063 499.144 305.991 504.142C313.201 513.317 319.369 522.8 325.959 532.38C326.377 532.987 327.559 533.042 327.71 532.152C329.42 521.975 324.429 514.882 318 507.049C308.841 495.879 301.414 487.341 299.466 472.237C299.3 470.95 299.227 469.65 299.176 468.347C300.141 464.069 301.139 459.804 302.25 455.578C308.284 432.676 316.129 410.305 320.173 386.92C321.465 379.448 322.641 371.98 323.863 364.526C327.884 370.964 332.732 376.12 338.472 381.403C350.826 392.784 353.84 406.808 361.206 421.187C370.608 439.544 377.245 478.257 385.921 493.469C391.712 503.62 400.622 511.822 406.942 521.651C416.602 536.681 418.55 553.662 422.282 570.525C422.678 572.313 424.213 573.05 424.249 571.309C424.686 551.509 421.515 528.306 410.729 511.472C404.465 501.702 396.078 493.662 390.279 483.46C386.06 476.047 384.258 466.994 382.516 458.182C385.232 460.441 387.953 462.571 390.457 464.604C396.45 469.478 402.512 474.271 408.159 479.542C415.843 486.716 420.379 498.798 425.053 508.056C425.724 509.382 428.035 508.432 427.475 507.035C421.409 491.959 418.192 479.831 405.466 468.899C396.252 460.981 387.774 453.01 379.45 444.691C373.889 424.824 365.875 402.821 354.735 385.519C350.061 378.255 341.919 372.791 335.856 366.727C329.257 360.13 327.547 351.619 327.824 342.743C328.595 338.989 329.382 335.234 330.306 331.495C332.916 320.902 336.909 310.992 340.315 300.891C344.506 306.486 349.814 310.797 356.106 315.165C373.068 326.943 387.126 337.286 396.836 355.962C414.966 390.831 464.63 403.846 467.714 447.632C468.674 461.301 468.794 472.446 476.279 484.339C478.623 488.057 482.097 491.564 484.942 494.895C494.648 506.271 493.264 516.308 496.559 529.18C496.803 530.143 498.159 529.876 498.218 528.955C498.779 520.614 502.533 507.694 498.522 499.849C490.438 484.031 478.329 474.953 476.982 455.447C474.993 426.642 466.197 413.903 445.792 393.439C443.94 391.582 442.061 389.746 440.195 387.899C457.442 399.494 472.994 404.863 486.79 421.897C487.773 423.11 488.251 421.403 487.575 420.132C479.891 405.748 471.5 396.821 457.337 389.383C445.264 383.041 433.026 376.534 421.436 369.165C418.794 366.504 416.115 363.878 413.518 361.173C403.601 350.835 399.46 337.264 389.157 327.129C380.982 319.087 370.821 312.58 361.266 306.341C356.703 303.363 349.033 296.631 343.886 289.013C345.075 284.305 345.982 279.484 346.4 274.468C346.915 268.308 346.735 262.32 346.298 256.396C364.455 274.87 400.503 278.425 427.526 283.498C457.696 289.162 480.949 312.965 506.565 327.809C521.579 336.511 535.375 345.479 547.089 358.57C556.891 369.53 564.4 382.053 576.413 390.767C577.098 391.266 577.901 390.179 577.305 389.613C558.91 372.133 552.287 344.81 529.834 332.122Z" fill="#7C931B"/>
<path d="M297.917 541.717C283.362 556.147 287.099 578.785 294.874 596.026C306.983 622.878 282.512 640.707 259.125 626.807C247.765 620.056 235.504 616.501 223.831 610.47C189.814 592.894 234.663 535.482 249.566 518.009C260.604 505.068 271.638 492.664 272.718 475.082C273.265 466.155 266.446 460.677 258.812 465.716C257.971 466.272 257.419 467.223 257.185 468.239C259.235 467.078 261.161 466.35 262.838 466.35C264.119 466.35 265.14 466.77 266.041 467.673C274.768 476.398 248.775 504.137 236.284 517.466C232.35 521.666 229.506 524.699 228.223 526.489L226.072 529.478C213.582 546.808 194.703 573.001 196.877 594.976C198.816 614.673 214.152 619.296 228.981 623.765C237.138 626.226 244.845 628.547 250.369 633.237C259.648 641.107 266.996 644.317 275.737 644.317C280.764 644.317 286.321 643.309 294.919 640.834C316.004 634.768 311.072 615.476 307.47 601.388C306.896 599.136 306.335 596.962 305.903 594.931C305.618 593.594 305.242 591.999 304.823 590.209C301.85 577.555 295.665 551.223 306.45 544.281C308.316 543.082 310.145 542.473 311.883 542.473C322.802 542.473 330.462 565.752 332.977 573.401C337.062 585.818 339.295 596.083 340.09 605.407C341.124 585.365 337.218 564.977 329.728 551.149C324.254 541.042 307.926 531.791 297.917 541.717Z" fill="#DAE638"/>
<path d="M288.649 387.434C292.587 378.597 288.916 373.378 283.065 371.703C284.026 373.33 284.247 375.641 283.566 377.946C280.519 388.192 270.156 399.656 261.953 405.242C255.248 409.805 248.084 414.344 241.153 418.73C222.289 430.674 202.776 443.027 187.413 458.866C179.196 467.34 173.736 477.119 168.456 486.577C164.638 493.417 160.685 500.49 155.731 506.976C143.148 523.447 127.491 543.945 143.267 567.631C146.015 571.76 148.644 576.654 151.424 581.836C156.41 591.131 161.985 601.436 169.361 608.925C163.53 597.707 156.2 587.268 151.586 575.207C141.406 548.578 147.546 526.845 165.501 506.163C176.484 493.514 181.37 477.45 191.861 464.534C203.488 450.223 221.54 441.319 237.211 432.241C255.276 421.774 279.729 407.45 288.649 387.434Z" fill="#DAE638"/>
<path d="M168.189 388.043C191.222 370.438 218.01 357.751 242.325 342.034C252.128 335.695 270.051 329.53 268.226 314.697C266.755 302.73 248.216 304.022 240.142 305.281C215.317 309.155 194.444 324.582 174.155 338.424C149.439 355.278 124.986 372.737 100.473 389.918C86.2413 399.895 70.9973 409.61 70.9053 428.213C74.4033 420.361 78.8053 412.861 86.4293 406.223C94.5273 399.173 103.98 392.978 113.12 386.988C119.379 382.886 125.849 378.647 131.828 374.169L134.053 372.503C166.006 348.556 202.224 321.412 241.497 311.591C244.08 311.076 248.892 310.118 253.418 310.118C263.469 310.118 264.14 314.867 264.36 316.43C265.33 323.298 257.339 327.675 250.918 331.191C249.581 331.924 248.317 332.618 247.215 333.284C238.221 338.638 228.795 343.902 219.683 348.99C189.209 366.003 157.702 383.597 133.396 409.25C131.374 411.384 129.04 413.742 126.53 416.276C110.487 432.489 88.5113 454.69 90.0183 474.895C91.0763 489.18 96.4113 505.867 104.053 519.867C100.321 498.022 92.6472 477.712 103.584 454.642C109.154 442.887 121.057 432.983 129.953 423.755C142.251 411.007 154.043 398.854 168.189 388.043Z" fill="#DAE638"/>
<path d="M86.2219 301.29C91.0519 300.426 96.0469 299.53 100.813 298.096C107.284 296.15 113.396 293.163 119.306 290.275C125.289 287.352 131.475 284.328 137.844 282.517C142.555 281.178 147.559 280.282 152.399 279.415C158.277 278.365 164.347 277.278 170.096 275.377C178 272.762 185.684 269.679 193.111 266.696C206.856 261.181 219.835 255.97 234.444 253.289L235.257 253.14C238.401 252.558 242.307 251.835 245.942 251.835C250.152 251.835 253.18 252.782 255.212 254.732C256.048 255.534 256.195 256.892 255.575 258.039C248.668 270.783 224.899 273.68 209.169 275.596C205.786 276.01 202.689 276.386 200.069 276.809C173.437 281.102 147.923 285.219 124.641 296.972C158.212 285.832 193.575 287.834 227.151 278.273C235 276.04 265.671 265.229 258.309 251.653C248.943 234.387 209.191 253.369 196.535 256.89C160.023 267.046 124.587 281.054 88.0239 290.507C76.6689 293.441 64.918 295.693 54.637 301.41C54.977 300.282 55.3259 299.158 55.6659 298.032C64.3189 269.528 74.7879 235.576 105.51 224.309C131.369 214.826 160.119 219.799 185.592 211.212C175.561 211.568 165.34 211.899 155.225 211.899C148.24 211.899 141.898 211.75 135.827 211.444C133.796 211.343 131.815 211.29 129.876 211.29C98.438 211.29 78.8969 224.69 66.5259 254.734C64.4029 259.899 62.1369 264.998 59.8799 270.086C53.8139 283.749 47.5449 297.878 44.2329 312.905C44.0809 313.58 44.293 314.283 44.789 314.768C45.166 315.138 45.6709 315.338 46.1859 315.338C46.3419 315.338 46.502 315.32 46.659 315.281C51.852 314.015 56.4709 311.65 60.9379 309.364C65.1839 307.19 69.1959 305.136 73.7129 303.907C77.7759 302.804 82.0679 302.034 86.2219 301.29Z" fill="#DAE638"/>
<path d="M83.6859 197.255C83.6899 197.255 83.695 197.255 83.704 197.255C84.403 197.255 85.2019 197.214 86.1029 197.119C92.0999 196.506 98.1389 195.603 103.98 194.732C110.749 193.721 117.744 192.678 124.637 192.087C127.348 191.853 130.152 191.74 133.202 191.74C138.993 191.74 144.834 192.161 150.482 192.565C156.162 192.974 162.04 193.394 167.904 193.394C169.416 193.394 170.932 193.367 172.453 193.305C179.277 193.027 186.125 192.078 192.743 191.163C199.774 190.189 207.045 189.182 214.185 189.005C215.261 188.978 216.401 188.959 217.6 188.959C221.736 188.959 225.467 189.198 228.85 189.644C209.691 178.798 180.605 185.373 160.017 185.118C143.349 184.909 128.96 179.918 112.113 181.572C107.173 182.057 96.5979 185.106 88.0779 186.267C91.4329 181.543 96.0569 176.504 97.8899 173.098C107.532 155.18 118.547 143.139 135.864 132.119C155.308 119.743 173.259 122.247 194.343 128.323C199.587 129.835 205.143 131.455 210.732 132.404C194.591 124.529 176.816 116.359 161.251 116.359C155.723 116.359 150.75 117.427 146.472 119.537C143.756 120.877 140.672 122.269 137.428 123.735C125.774 128.999 112.562 134.964 105.181 143.124C97.5429 151.571 93.196 160.865 88.595 170.707C87.134 173.828 85.663 176.975 84.064 180.13C83.255 181.725 82.2499 183.333 81.2969 184.859C78.7149 189 76.6789 192.269 78.1539 194.932C79.4349 197.244 82.6099 197.255 83.6859 197.255Z" fill="#DAE638"/>
<path d="M164.517 88.1584C164.563 88.1724 164.619 88.1814 164.664 88.1974C172.123 87.0294 178.129 83.5444 185.882 79.2194C202.959 69.6974 218.396 64.0404 237.637 61.0114C257.063 57.9554 293.837 41.1334 307.068 60.6164C317.881 76.5404 323.892 89.5134 320.147 109.417C317.564 123.139 320.22 137.884 318.102 152.066C316.925 159.939 318.736 170.993 324.053 177.126C326.686 180.161 329.729 181.986 332.762 182.771C331.672 179.228 331.47 175.6 331.434 174.409C331.829 169.563 333.116 164.393 334.481 158.917C336.81 149.57 339.218 139.903 337.132 131.204L336.782 129.763C335.435 124.244 334.374 119.883 335.357 114.232C338.147 98.2604 330.72 75.4184 317.697 59.9194C311.093 52.0614 300.206 42.6924 285.836 42.6924C282.73 42.6924 279.581 43.1514 276.493 44.0554C272.306 45.2804 268.212 46.5804 264.144 47.8694C251.162 51.9864 238.891 55.8794 225.136 56.9794L223.115 57.1404C206.805 58.4294 191.396 59.6494 177.844 71.9294C176.41 73.2254 174.963 74.5114 173.515 75.7994C170.198 78.7524 166.87 81.7114 163.695 84.8084C163.189 85.3024 162.978 86.0284 163.148 86.7184C163.318 87.4074 163.837 87.9544 164.517 88.1584Z" fill="#DAE638"/>
<path d="M370.996 163.406C380.33 142.896 379.724 119.516 389.861 98.774C406.933 63.843 441.216 71.88 468.878 87.338C485.137 96.423 507.159 103.917 526.198 104.838C517.485 98.797 508.57 95.511 499.218 92.106C496.691 91.185 494.108 90.243 491.451 89.223C486.869 87.46 482.577 84.68 478.428 81.989C473.326 78.685 468.055 75.268 462.008 73.51C451.985 70.596 441.764 68.512 431.732 66.465C425.492 65.192 418.423 63.749 411.682 63.749C399.573 63.749 391.217 68.492 386.135 78.25C384.99 80.447 383.795 82.667 382.591 84.907C376.534 96.18 370.266 107.837 368.024 120.337C366.747 127.472 366.181 133.954 365.634 140.222C364.517 153.043 363.552 164.117 357.076 177.223C356.332 178.68 355.523 180.148 354.632 181.557C362.026 178.783 367.109 171.945 370.996 163.406Z" fill="#DAE638"/>
<path d="M508.455 154.4C498.147 158.069 488.409 161.537 478.005 163.175C477.991 163.173 477.173 163.186 477.104 163.186C476.912 163.227 476.732 163.285 476.682 163.34C475.698 163.411 474.59 163.457 473.414 163.457C466.135 163.457 460.463 161.825 457.853 158.983C456.46 157.466 455.881 155.589 456.083 153.241C456.652 146.571 462.741 142.274 475.182 139.735C481.423 138.674 487.958 137.079 494.277 135.535C499.673 134.218 505.15 132.892 510.624 131.831C498.841 130.42 487.008 134.342 475.018 135.231C464.981 135.973 458.189 137.255 451.309 145.339C438.717 160.129 459.724 169.403 471.015 170.484C483.943 171.722 498.575 164.816 510.468 160.886C531.249 154.022 543.561 166.401 558.822 177.623C567.582 184.064 571.617 193.131 575.169 202.464C563.294 198.211 551.456 197.882 538.919 197.225C524.88 196.494 511.084 194.295 497.523 198.744C486.043 202.51 474.495 200.263 465.726 209.327C469.471 207.707 474.218 207.231 478.331 206.834L480.086 206.659C483.639 206.384 487.191 206.222 490.744 206.062C495.877 205.828 501.189 205.588 506.429 204.989C510.404 204.536 513.455 204.337 516.314 204.337C520.662 204.337 524.604 204.84 528.34 205.865C532.334 207.041 536.695 207.588 542.058 207.588C544.908 207.588 547.761 207.441 550.624 207.292C553.437 207.147 556.249 207 559.066 207C563.054 207 566.336 207.299 569.387 207.942C575.78 209.286 582.485 213.009 587.609 216.104C587.926 216.295 588.285 216.392 588.643 216.392C589.034 216.392 589.424 216.277 589.764 216.05C590.408 215.613 590.743 214.843 590.618 214.073C590.227 211.647 589.957 209.103 589.658 206.238C588.087 191.353 576.487 178.011 565.347 166.925C553.637 155.266 542.319 149.836 529.736 149.836C524.088 149.836 518.284 150.916 511.988 153.143L508.455 154.4Z" fill="#DAE638"/>
<path d="M538.5 271.23C520.196 254.865 496.574 241.915 473.729 251.782C475.595 251.941 477.471 252.108 479.204 252.281C480.804 252.442 482.307 252.591 483.676 252.708C495.578 253.71 504.452 260.22 513.846 267.108C516.769 269.252 519.709 271.407 522.771 273.42C530.749 278.666 538.441 284.815 546.583 291.327C562.802 304.296 579.576 317.708 599.089 323.756C599.282 323.816 599.485 323.845 599.682 323.845C600.059 323.845 600.431 323.74 600.752 323.532C601.248 323.218 601.58 322.703 601.662 322.121C604.921 298.84 600.597 264.453 583.395 243.962C574.576 233.461 563.514 227.905 550.518 227.45C548.786 227.388 547.056 227.361 545.324 227.361C536.837 227.361 528.271 228.034 519.985 228.682C511.828 229.321 503.39 229.983 495.16 229.983C494.797 229.983 494.457 229.967 494.094 229.965C525.349 238.667 563.649 229.034 583.91 258.832C593.133 272.405 594.443 290.602 595.316 307.463C592.636 306.707 589.99 305.788 587.412 304.57C568.855 295.803 553.73 284.845 538.5 271.23Z" fill="#DAE638"/>
<path d="M602.159 364.338C586.685 339.783 570.683 314.395 539.64 305.707C522.554 300.928 497.517 293.17 477.434 281.061C476.194 280.314 474.543 279.402 472.636 278.354C469.236 276.481 464.658 273.947 460.334 271.102C468.031 285.534 485.219 291.777 499.438 299.394C521.994 311.48 547.627 318.429 566.75 335.789C586.074 353.335 607.09 381.306 599.563 408.828C597.946 414.745 595.073 420.476 592.104 426.183C587.325 420.926 582.044 416.07 576.484 412.086C558.979 399.543 549.825 384.942 537.16 368.077C531.54 360.595 525.73 347.962 517.675 342.36C503.217 332.31 484.922 328.642 469.445 319.993C466.228 318.196 459.228 311.827 455.768 309.198C449.343 304.32 438.411 304.405 431.242 301.209C424.215 298.072 419.481 296.308 413.365 298.185C428.953 300.91 454.041 317.183 464.022 323.67C465.663 324.734 466.954 325.572 467.808 326.096C473.209 329.423 479.55 332.58 486.269 335.922C499.008 342.264 512.183 348.819 520.24 357.209C526.434 363.657 530.313 371.446 534.427 379.69C538.444 387.746 542.598 396.076 549.101 403.033C554.358 408.66 560.691 412.776 566.821 416.753C572.337 420.337 578.04 424.042 582.773 428.777C585.336 431.343 586.542 433.696 587.814 436.187C588.554 437.628 589.317 439.119 590.341 440.613C590.718 441.16 591.338 441.479 591.991 441.479C592.074 441.479 592.156 441.474 592.239 441.463C592.978 441.371 593.608 440.873 593.866 440.171C595.621 435.419 597.689 430.697 599.688 426.131C608.032 407.07 616.662 387.355 602.159 364.338Z" fill="#DAE638"/>
<path d="M515.707 443.799C513.436 439.066 512.141 433.767 510.882 428.641C510.403 426.69 509.93 424.744 509.402 422.823C505.84 409.864 499.476 404.229 491.42 397.097C489.757 395.626 488.015 394.085 486.199 392.389C480.841 387.38 475.795 382.214 470.915 377.219C461.917 368.009 452.615 358.487 441.397 350.091C436.305 346.283 429.65 340.755 423.229 334.694C431.447 350.576 444.903 362.686 457.734 375.944C465.602 384.073 472.96 393.09 481.277 400.744C495.064 413.43 499.274 424.207 504.935 441.179C509.057 453.555 513.442 464.904 519.573 476.423C529.944 495.915 521.944 512.431 509.752 528.546C504.986 534.849 497.206 541.671 490.207 549.047C488.769 543.289 486.931 537.684 485.276 532.583C481.76 521.728 475.343 511.675 469.557 501.937C461.359 488.141 458.731 475.864 457.077 460.055C454.821 438.54 439.104 427.605 428.447 410.121C422.316 400.066 412.298 391.132 401.893 383.405C410.473 392.557 417.182 402.033 420.455 406.927C423.226 411.068 426.236 415.079 429.146 418.961C436.829 429.207 444.089 438.883 447.583 451.065C449.09 456.311 449.753 462.35 450.451 468.742C451.517 478.513 452.625 488.614 457 496.249C458.466 498.805 459.987 501.336 461.509 503.874C465.052 509.782 468.719 515.889 471.582 522.192C477.947 536.213 481.394 549.442 482.754 565.083C482.924 567.027 484.279 568.284 486.215 568.281C493.793 568.281 518.034 544.816 520.144 540.816C522.162 536.99 524.697 533.307 527.147 529.743C529.863 525.79 532.671 521.705 534.905 517.284C546.362 494.55 536.238 478.238 525.516 460.968C522.104 455.474 518.579 449.796 515.707 443.799Z" fill="#DAE638"/>
<path d="M366.056 470.424C365.178 458.115 357.835 451.102 346.02 448.99C333.276 446.71 326.966 456.758 323.18 466.894C317.316 482.597 333.239 502.009 338.39 515.251C346.488 536.071 347.03 558.328 352.415 579.856C355.329 591.503 360.726 601.303 361.663 613.548C362.655 626.505 355.206 635.317 346.874 643.387C357.353 639.504 364.627 634.053 368.496 627.082C372.324 620.177 372.673 611.953 369.52 602.638C368.725 600.282 367.903 597.923 367.081 595.556C364.135 587.091 361.087 578.339 359.176 569.577L357.738 562.913C352.356 537.955 347.279 514.379 333.369 491.199C326.618 478.857 326.566 468.749 333.212 460.301C335.872 456.919 338.934 455.202 342.307 455.202C347.104 455.202 352.464 458.811 356.296 464.627C356.48 464.9 356.604 465.188 356.806 465.898C360.041 473.081 361.328 480.292 362.689 487.927C363.737 493.8 364.822 499.873 366.867 505.96C371.499 519.706 377.909 532.752 384.108 545.372C385.745 548.699 387.38 552.031 388.994 555.386C397.683 573.486 397.29 592.288 396.871 612.199C396.798 615.818 396.725 619.437 396.706 623.056C396.701 623.746 397.05 624.387 397.634 624.756C397.84 624.887 398.085 624.905 398.315 624.954C409.533 589.651 404.629 559.568 388.738 524.504C381.286 508.06 367.384 489.06 366.056 470.424Z" fill="#DAE638"/>
<path d="M456.098 538.746C455.174 536.609 454.245 534.463 453.34 532.289C450.179 524.7 447.61 516.958 445.123 509.47C441.084 497.312 436.911 484.739 430.15 472.703C420.353 455.254 407.301 440.084 394.677 425.414C392.232 422.572 389.787 419.727 387.369 416.88L386.625 415.982C384.429 413.358 382.355 410.876 381.414 407.852C381.221 407.234 381.051 406.595 380.881 405.954C380.164 403.25 379.355 400.187 376.74 398.052C375.54 397.075 374.354 396.181 373.192 395.304C371.91 394.334 370.66 393.381 369.446 392.356C368.381 424.199 411.395 448.707 422.263 474.592C431.477 496.543 436.716 519.76 446.091 541.595C455.315 563.089 451.68 578.303 443.66 594.502C456.376 587.622 469.455 579.247 463.806 559.068C461.81 551.933 458.905 545.228 456.098 538.746Z" fill="#DAE638"/>
<path d="M605.16 355.205C599.342 345.977 593.129 335.545 585.697 326.648C591.065 329.022 596.552 330.986 602.2 332.314C604.549 332.866 607.476 331.611 607.986 329.026C614.287 297.114 606.345 256.616 583.799 232.275C558.804 205.29 509.548 226.561 478.794 221.499C475.224 220.713 471.681 219.813 468.505 217.947C468.279 217.818 467.682 217.271 467.333 217.002C467.401 216.947 467.434 216.908 467.535 216.841C471.225 214.502 475.949 214.49 479.928 214.077C487.502 213.489 495.094 213.429 502.667 212.875C510.884 212.273 518.209 210.77 526.403 213.022C533.127 215 537.405 215.193 544.506 214.952C564.483 214.272 577.944 218.925 594.409 229.095C598.669 231.728 602.837 226.678 600.847 222.657C593.563 207.919 597.695 195.595 587.731 182.002C579.932 171.37 570.328 158.96 559.353 151.508C530.507 131.919 506.615 150.984 476.348 155.948C472.617 156.199 468.875 156.173 465.268 155.089C464.082 154.733 463.383 154.029 463.439 153.752C464.367 148.749 473.627 147.599 477.345 146.84C498.296 143.274 526.623 131.091 546.954 140.075C550.777 141.766 556.421 137.936 553.392 133.637C547.996 125.974 547.864 115.177 541.288 108.373C533.007 99.8052 523.415 92.2772 512.151 87.9462C483.369 76.8802 458.958 64.4812 428.323 58.2262C408.452 54.1702 391.016 56.4962 379.78 74.4232C371.444 87.7232 365.102 103.099 360.915 118.192C355.612 137.321 360.01 154.6 350.731 173.383C348.654 177.448 346.921 181.042 342.666 183.155C338.98 184.989 338.897 176.248 338.848 174.249C339.74 163.291 348.701 147.684 346.022 136.528C343.164 124.607 343.103 112.852 345.139 100.793C345.65 97.7992 345.934 94.2192 344.859 91.3902C338.494 74.6352 321.045 43.3132 302.262 37.8312C292.695 35.0372 284.312 35.1362 274.551 36.9032C254.804 40.4782 238.177 48.5342 217.423 50.1982C189.56 52.4292 172.391 63.6222 153.452 84.7452C151.545 86.8702 151.558 90.7102 154.403 92.1352C167.064 98.4702 181.899 97.9262 195.639 101.471C208.461 104.78 221.089 108.509 231.393 117.282C233.006 118.656 255.198 140.17 241.021 137.383C222.703 133.782 198.498 122.252 183.336 111.887C172.086 104.198 162.758 105.763 150.304 109.936C120.479 119.929 96.1627 136.531 82.8957 164.984C78.7957 173.771 58.9757 202.211 77.0417 206.292C88.5537 208.893 112.983 200.871 124.464 199.506C145.405 197.015 165.732 201.868 186.596 199.69C195.796 198.73 204.905 197.171 214.133 196.418C220.562 195.895 237.014 202.126 240.351 200.982C220.29 207.871 188.65 204.567 167.369 204.617C133.706 204.698 101.656 197.365 76.0998 223.79C64.9878 235.281 60.0757 251.726 53.7557 265.936C46.1687 283.006 38.6178 299.059 35.7738 317.706C35.3368 320.562 36.9678 323.813 40.3098 323.662C59.6108 322.791 76.7058 310.105 95.9758 306.567C96.2748 306.512 96.5547 306.42 96.8537 306.362C80.0567 319.857 57.4228 329.574 46.4308 348.779C27.8728 381.194 43.6268 420.387 63.3058 446.626C65.8278 449.99 70.3688 449.498 71.9038 445.5C80.4618 423.225 89.8778 411.847 109.832 399.034C123.563 390.213 136.165 379.967 149.368 370.376C177.59 349.872 209.446 327.246 243.604 318.708C246.421 318.145 249.225 317.731 252.097 317.58C253.434 317.509 254.785 317.52 256.1 317.78C256.555 317.87 256.775 317.957 256.917 318.026C256.1 319.703 253.099 321.16 251.803 321.95C249.05 323.623 246.242 325.213 243.485 326.881C217.433 342.396 190.65 356.633 165.25 373.23C140.586 389.342 120.902 410.794 102.437 433.513C90.5618 448.118 79.3858 462.764 83.2688 482.789C87.3228 503.671 97.7037 529.388 112.865 544.636C115.185 546.97 120.094 546.134 120.728 542.559C125.861 513.634 144.583 492.835 166.27 474.02C160.494 483.772 155.631 494.036 149.193 503.443C140.971 515.451 133.669 525.088 129.501 539.18C123.297 560.134 142.525 581.002 152.575 597.606C158.095 606.724 166.303 618.521 176.367 623.215C178.881 624.389 182.699 623.633 183.278 620.402C185.025 610.719 185.015 611.684 184.905 601.896C184.813 594.038 187.998 586.882 191.955 580.063C190.732 584.893 189.855 589.798 189.455 594.785C186.882 626.94 233.256 628.399 250.314 642.871C265.13 655.44 273.765 653.613 291.725 649.211C316.343 643.177 323.889 632.051 316.61 606.922C314.436 599.413 312.741 591.807 311.238 584.14C309.679 576.178 306.284 535.758 319.997 561.162C325.328 571.042 328.265 582.499 330.714 593.359C335.576 614.928 328.917 628.894 325.576 649.276C324.961 653.005 327.631 655.678 331.362 655.064C356.197 650.978 387.047 638.991 379.353 608.883C373.627 586.463 365.783 565.381 361.38 542.509C357.491 522.293 350.263 504.956 339.734 487.412C336.669 481.803 334.165 476.344 336.246 470.004C337.175 467.194 338.889 464.271 341.402 462.64C344.615 460.56 348.484 466.224 349.835 468.276C356.003 480.845 356.319 494.492 359.689 507.828C362.474 518.869 368.117 529.616 373.039 539.802C380.668 555.586 386.721 568.451 388.849 586.126C390.682 601.328 389.009 614.676 389.327 629.743C389.396 632.93 392.268 634.922 395.283 634.281C402.64 632.714 407.98 628.01 413.629 623.281C425.922 612.991 439.383 605.229 453.275 597.334C469.98 587.842 474.034 575.257 470.955 557.109C468.606 543.251 460.101 530.401 455.486 517.353C453.74 512.415 452.375 507.509 450.978 502.645C457.536 517.192 468.115 530.706 472.875 546.14C474.106 550.131 472.306 574.545 480.559 576.79C503.193 582.943 521.851 550.99 532.296 535.719C541.051 522.918 548.551 509.935 548.896 494.202C549.259 477.357 533.363 460.905 525.591 447.359C517.443 433.151 518.978 412.067 506.736 400.213C493.735 387.632 481.009 375.838 468.675 362.497C455.022 347.731 437.636 337.984 424.484 322.277C423.404 320.988 405.753 305.211 413.565 306.824C426.525 309.496 438.229 318.152 449.705 324.393C468.11 334.402 485.335 346.215 504.002 355.762C523.354 365.661 527.356 387.09 539.843 403.113C548.69 414.471 558.819 420.22 570.716 427.95C577.803 432.557 583.625 446.112 591.662 452.236C594.148 454.132 597.82 452.073 598.574 449.423C603.832 431.057 613.528 416.971 616.966 397.541C619.862 381.149 613.662 368.695 605.16 355.205ZM392.486 411.501C390.225 408.769 388.663 406.483 387.744 403.068C386.972 400.218 385.97 397.303 384.054 395.009C380.372 390.607 374.697 388.667 371.278 384.026C369.463 381.462 367.794 378.815 366.263 376.069C365.459 374.626 364.746 373.139 364.163 371.597C363.832 370.728 363.579 368.826 363.395 368.964C367.765 365.722 378.105 372.886 381.676 375.179C399.056 387.243 410.421 407.968 423.16 424.198C432.177 435.692 438.376 445.864 442.438 460.007C445.002 468.952 444.497 478.709 446.165 488.006C445.356 485.965 444.488 483.929 443.473 481.907C430.087 455.256 411.64 434.088 392.486 411.501ZM591.989 439.479C589.346 435.64 588.542 431.727 584.185 427.365C574.052 417.218 560.375 412.177 550.559 401.669C537.853 388.073 534.392 369.059 521.681 355.823C509.079 342.698 484.438 333.994 468.854 324.394C460.509 319.251 409.925 283.921 400.596 299.845C392.522 313.629 432.448 345.897 440.197 351.692C457.288 364.484 469.461 379.488 484.834 393.85C495.284 403.613 503.345 408.34 507.472 423.353C509.425 430.469 510.684 437.949 513.901 444.663C525.721 469.334 547.665 487.517 533.116 516.382C528.933 524.672 522.678 531.717 518.373 539.881C515.698 544.955 485.428 572.708 484.747 564.906C483.378 549.196 479.959 535.809 473.401 521.363C469.278 512.282 463.685 503.886 458.736 495.253C451.824 483.196 453.419 464.146 449.508 450.513C444.522 433.14 431.957 420.527 422.118 405.814C413.023 392.204 399.916 376.418 386.429 367.055C379.213 362.421 364.668 354.204 356.907 362.158C349.526 369.716 358.432 382.121 363.153 388.778C363.373 389.088 363.612 389.357 363.865 389.593C367.233 393.773 371.287 396.19 375.478 399.602C378.143 401.778 378.539 405.349 379.503 408.446C380.684 412.228 383.358 415.167 385.831 418.155C400.996 436.043 416.852 453.107 428.404 473.681C439.195 492.895 443.151 513.026 451.492 533.059C455.179 541.919 459.277 550.313 461.883 559.607C468.272 582.422 448.827 588.989 434.733 597.084C424.453 602.985 410.749 617.291 398.704 623.065C398.819 599.832 401.328 576.454 390.795 554.52C382.982 538.254 374.545 522.486 368.764 505.322C364.183 491.71 364.56 478.231 358.631 465.076C358.511 464.566 358.314 464.046 357.964 463.52C351.568 453.816 340.069 448.345 331.641 459.064C323.397 469.547 325.63 481.217 331.614 492.159C346.595 517.129 351.136 542.088 357.225 570.004C359.688 581.311 363.93 592.336 367.629 603.278C376.232 628.726 355.864 639.873 336.153 644.517C338.929 632.883 342.9 622.984 342.454 609.818C342.026 597.291 338.778 584.618 334.881 572.775C331.374 562.12 321.365 532.306 305.368 542.598C291.885 551.277 301.416 583.517 303.948 595.348C307.133 610.217 316.673 632.492 294.37 638.91C275.754 644.266 266.508 644.301 251.669 631.711C235.46 617.961 201.7 623.501 198.87 594.781C196.645 572.29 217.556 544.806 229.853 527.653C235.583 519.659 280.248 479.044 267.458 466.256C255.904 454.701 225.776 499.122 220.661 505.801C208.285 521.961 202.568 540.027 194.177 558.301C190.041 567.306 183.781 575.298 179.016 583.974C174.531 592.143 175.381 602.037 174.894 611.247C161.295 600.693 153.764 579.779 144.931 566.52C130.33 544.599 144.035 525.582 157.321 508.191C169.218 492.614 174.903 474.638 188.851 460.256C209.756 438.703 238.423 423.678 263.079 406.895C271.724 401.01 282.349 389.066 285.482 378.515C287.367 372.16 283.8 365.758 276.292 367.881C254.421 374.064 238.388 390.204 225.074 407.752C191.852 451.55 129.21 475.849 113.709 531.235C101.807 515.606 93.3268 492.467 92.0138 474.746C90.3408 452.285 120.428 425.844 134.849 410.623C166.26 377.471 209.523 358.057 248.241 335C255.043 330.889 267.726 325.958 266.343 316.146C264.79 305.133 248.398 308.173 241.109 309.625C200.438 319.793 163.67 347.815 130.631 372.564C115.994 383.529 98.8938 392.713 85.1158 404.71C75.2998 413.258 70.5528 423.242 66.1228 434.487C55.3738 418.894 49.2888 404.671 49.2478 383.168C49.2018 362.124 55.7358 346.153 73.8658 334.776C84.4268 328.149 94.0998 320.658 103.765 312.814C132.147 289.781 165.345 284.427 200.387 278.781C215.975 276.267 248.451 275.373 257.335 258.988C258.332 257.15 258.157 254.781 256.6 253.285C251.021 247.928 240.814 250.082 234.081 251.318C211.048 255.545 191.43 266.208 169.468 273.473C159.137 276.89 147.813 277.595 137.298 280.587C124.472 284.236 113.121 292.299 100.239 296.175C91.4888 298.808 82.0538 299.562 73.1888 301.972C63.4878 304.612 55.8548 310.974 46.1858 313.332C50.6618 293.029 60.4588 274.723 68.3768 255.492C81.2348 224.263 101.984 211.74 135.726 213.438C160.174 214.667 184.379 213.093 208.791 212.443C219.586 212.153 242.605 215.221 250.698 205.533C252.145 203.798 252.444 201.884 251.433 199.832C245.348 187.47 225.771 186.709 214.135 186.998C200.151 187.347 186.359 190.728 172.37 191.3C156.326 191.957 140.811 188.685 124.466 190.087C111.552 191.194 98.7938 193.8 85.8998 195.124C74.0658 196.337 82.0347 188.541 85.8437 181.03C92.3697 168.169 96.7907 155.377 106.662 144.46C115.825 134.329 135.2 127.321 147.356 121.326C170.784 109.775 208.302 134.984 231.244 144.217C236.027 146.143 257.728 153.349 257.728 141.065C257.728 129.631 241.174 110.957 232.107 105.635C221.4 99.3512 210.122 95.5912 198.141 92.3882C188.623 89.8442 175.328 89.3112 165.09 86.2372C169.635 81.8052 174.492 77.6572 179.184 73.4082C192.769 61.1012 208.137 60.3472 225.296 58.9712C243.669 57.5002 259.603 51.0782 277.052 45.9722C311.082 36.0152 338.182 86.4342 333.385 113.883C332.24 120.457 333.683 125.425 335.186 131.668C338.33 144.77 330.531 160.797 329.437 174.241C329.635 182.026 332.277 193.894 342.553 192.704C350.742 191.753 355.425 184.846 358.858 178.127C368.776 158.049 366.161 142.082 369.993 120.685C372.622 106.022 381.101 92.2342 387.907 79.1682C397.172 61.3812 416.119 65.3142 431.482 68.4512C441.519 70.4982 451.611 72.5662 461.446 75.4252C472.107 78.5252 480.324 87.0822 490.733 91.0842C505.2 96.6492 517.631 99.8642 529.938 110.161C535.682 114.968 537.833 121.893 540.411 128.584C518.996 124.784 495.881 134.177 474.847 137.757C466.579 139.443 454.957 142.918 454.088 153.065C453.087 164.765 468.785 165.919 476.827 165.328C477.089 165.309 477.277 165.188 477.516 165.138C477.709 165.129 477.874 165.193 478.077 165.161C490.145 163.286 501.183 159.076 512.654 155.023C533.33 147.716 548.812 153.281 563.936 168.336C574.111 178.465 586.114 191.751 587.667 206.442C587.971 209.344 588.246 211.922 588.642 214.383C582.553 210.709 576.069 207.297 569.8 205.978C556.055 203.083 542.327 207.887 528.904 203.94C521.243 201.835 514.055 202.102 506.202 202.996C497.466 203.993 488.693 203.977 479.929 204.66C473.156 205.365 463.165 205.772 459.025 212.171C452.081 222.897 468.896 228.945 476.295 230.569C500.863 234.613 525.578 228.575 550.449 229.443C591.887 230.893 604.567 286.941 599.681 321.838C571.023 312.957 548.165 287.713 523.868 271.741C510.917 263.23 500.113 252.079 483.845 250.707C473.913 249.871 456.943 247.184 447.668 252.476C445.669 253.618 445.2 255.684 445.504 257.791C446.993 268.071 469.079 278.354 476.4 282.768C495.09 294.039 518.193 301.777 539.103 307.627C569.212 316.053 584.769 340.488 600.467 365.396C617.756 392.841 601.153 414.679 591.989 439.479ZM217.141 529.436C219.043 525.394 221.125 521.421 223.593 517.604C233.359 502.498 246.709 486.214 261.24 475.251C248.11 485.157 236.262 503.539 226.359 516.731C223.277 520.839 220.17 525.081 217.141 529.436ZM228.501 418.746C237.527 407.976 244.98 396.997 256.314 388.358C260.004 385.545 280.358 369.973 273.442 381.292C263.175 398.101 244.894 407.94 228.501 418.746ZM203.115 270.327C206.801 268.723 210.505 267.165 214.282 265.835C219.107 264.231 224.002 262.885 228.965 261.795C234.742 260.368 261.911 251.365 234.705 262.291C224.802 266.267 214.08 268.583 203.115 270.327ZM543.956 299.875C534.558 296.461 524.93 293.489 515.473 289.452C496.401 281.315 479.002 274.114 462.205 261.784C461.414 261.067 460.734 260.463 460.082 259.882C463.39 259.792 466.704 259.694 470.017 259.542C487.76 258.848 499.419 265.758 513.137 275.714C523.161 282.99 533.367 291.564 543.956 299.875ZM323.106 238.751C320.74 224.916 301.002 229.716 292.082 233.999C291.686 234.137 291.282 234.316 290.878 234.597C282.486 240.39 269.83 251.26 278.208 261.979C284.219 269.665 299.876 265.279 307.308 262.974C318.377 259.546 325.16 250.773 323.106 238.751ZM303.501 254.305C298.533 255.842 292.798 257.207 287.577 256.419C279.236 255.158 293.115 244.457 295.629 242.722C300.009 240.38 313.965 234.951 314.199 243.448C314.384 250.291 308.837 252.65 303.501 254.305ZM333.593 400.182C322.38 399.348 319.163 411.103 320.56 419.982C323.162 430.513 331.778 442.902 343.622 443.436C354.122 443.909 354.794 429.973 353.607 422.854C352.054 413.514 344.135 400.966 333.593 400.182ZM342.151 433.827C335.588 432.421 331.052 423.227 329.632 417.483C329.099 414.087 329.797 407.674 334.485 410.383C340.207 413.687 343.097 418.841 344.531 425.355C345.018 427.558 345.694 434.587 342.151 433.827ZM410.018 231.051C401.608 228.317 393.189 226.187 384.283 226.428C378.364 226.587 369.329 228.055 366.99 234.516C362.569 246.733 381.723 254.357 389.871 257.751C400.138 262.027 415.929 265.947 422.96 254.233C429.057 244.08 418.763 234.261 410.018 231.051ZM414.338 250.307C410.854 256.106 398.428 251.088 394.135 249.411C390.041 247.809 376.447 243.138 375.804 237.649C375.575 235.719 389.471 235.894 391.093 236.024C396.672 236.47 402.233 238.409 407.518 240.128C411.429 241.564 417.2 245.539 414.338 250.307Z" fill="#68182B"/>
</svg>
