<svg width="706" height="721" viewBox="0 0 706 721" fill="none" xmlns="http://www.w3.org/2000/svg">
<path d="M564.684 269.991C530.247 218.944 493.425 176.021 455.247 142.431C423.701 114.683 387.216 101.342 352.508 104.868C335.258 106.618 318.762 112.413 303.455 122.1C301.189 123.36 299.08 124.83 297.173 126.471C286.75 135.423 282.86 137.983 279.069 138.368C277.644 138.511 275.884 138.451 273.846 138.184C268.779 137.527 262.711 135.684 256.286 133.736C248.026 131.231 238.662 128.391 228.175 126.985C221.031 126.024 213.731 125.91 206.479 126.645C184.016 128.924 161.564 139.283 137.841 158.299C97.4921 190.647 63.9371 236.769 38.1081 295.371C17.3781 342.402 5.06607 390.775 2.49907 435.256C-0.703926 490.748 23.6211 542.936 47.8391 586.676C100.688 682.113 216.586 721.194 308 717.586C316.424 717.255 324.914 716.657 333.243 715.812C333.25 715.812 333.243 715.812 333.25 715.812C442.466 704.723 532.179 650.992 579.359 568.409C605.83 522.081 613.815 471.002 618.502 422.702C624.691 358.961 590.01 307.546 564.684 269.991Z" fill="white"/>
<path d="M296.766 720.165L292.03 720.133C290.729 720.114 289.691 719.048 289.707 717.748C289.721 716.451 290.767 715.289 292.09 715.427L296.373 715.459C297.671 715.464 298.921 716.516 298.919 717.816C298.917 719.113 298.065 720.165 296.766 720.165ZM310.875 719.816C309.627 719.816 308.586 718.833 308.526 717.574C308.466 716.278 309.468 715.175 310.767 715.115L315.445 714.872C316.713 714.716 317.853 715.791 317.924 717.092C317.998 718.388 317.005 719.495 315.707 719.569L310.987 719.812C310.95 719.816 310.911 719.816 310.875 719.816ZM277.952 719.61C277.906 719.61 277.858 719.61 277.812 719.605C276.238 719.513 274.662 719.407 273.081 719.292C271.785 719.195 270.811 718.069 270.908 716.773C271.002 715.472 272.096 714.47 273.426 714.594C274.984 714.709 276.537 714.815 278.089 714.907C279.387 714.981 280.375 716.097 280.299 717.393C280.224 718.644 279.188 719.61 277.952 719.61ZM329.652 718.516C328.45 718.516 327.423 717.601 327.311 716.378C327.194 715.082 328.145 713.938 329.439 713.818L334.103 713.363C335.44 713.225 336.55 714.176 336.681 715.464C336.812 716.76 335.87 717.913 334.577 718.042L329.871 718.506C329.797 718.511 329.723 718.516 329.652 718.516ZM259.198 717.951C259.106 717.951 259.014 717.946 258.92 717.932C257.356 717.748 255.786 717.555 254.216 717.348C252.929 717.173 252.022 715.993 252.194 714.705C252.362 713.414 253.531 712.495 254.836 712.679C256.382 712.886 257.929 713.078 259.471 713.263C260.762 713.414 261.683 714.581 261.532 715.873C261.389 717.073 260.374 717.951 259.198 717.951ZM348.347 716.346C347.191 716.346 346.182 715.496 346.019 714.315C345.84 713.029 346.738 711.842 348.025 711.664C349.569 711.448 351.109 711.227 352.646 710.988C353.949 710.804 355.132 711.669 355.33 712.955C355.528 714.237 354.648 715.441 353.363 715.64C351.803 715.878 350.24 716.109 348.673 716.325C348.563 716.337 348.455 716.346 348.347 716.346ZM240.569 715.225C240.431 715.225 240.293 715.211 240.153 715.188C238.602 714.913 237.049 714.627 235.495 714.334C234.22 714.091 233.381 712.858 233.625 711.581C233.866 710.309 235.084 709.472 236.378 709.711C237.913 710.005 239.447 710.28 240.98 710.557C242.26 710.786 243.112 712.009 242.883 713.286C242.678 714.425 241.688 715.225 240.569 715.225ZM366.915 713.286C365.808 713.286 364.822 712.501 364.606 711.374C364.362 710.097 365.201 708.865 366.477 708.622L371.075 707.722C372.348 707.464 373.587 708.291 373.844 709.564C374.099 710.842 373.274 712.078 371.999 712.335L367.36 713.245C367.21 713.272 367.06 713.286 366.915 713.286ZM222.127 711.443C221.947 711.443 221.769 711.424 221.587 711.379C220.05 711.021 218.512 710.649 216.978 710.267C215.719 709.951 214.951 708.673 215.268 707.413C215.581 706.144 216.856 705.392 218.122 705.699C219.634 706.081 221.148 706.443 222.662 706.802C223.928 707.097 224.712 708.365 224.415 709.628C224.16 710.712 223.193 711.443 222.127 711.443ZM385.319 709.328C384.257 709.328 383.292 708.602 383.033 707.527C382.729 706.263 383.509 704.99 384.77 704.687C386.287 704.324 387.799 703.951 389.299 703.56C390.558 703.252 391.841 703.993 392.167 705.251C392.491 706.511 391.733 707.793 390.476 708.119C388.948 708.51 387.413 708.891 385.874 709.263C385.686 709.306 385.5 709.328 385.319 709.328ZM203.912 706.622C203.689 706.622 203.464 706.59 203.239 706.525C201.72 706.07 200.206 705.611 198.692 705.142C197.454 704.755 196.76 703.437 197.146 702.196C197.535 700.951 198.858 700.257 200.092 700.647C201.59 701.116 203.086 701.566 204.587 702.012C205.833 702.384 206.54 703.694 206.168 704.939C205.863 705.96 204.926 706.622 203.912 706.622ZM403.494 704.435C402.478 704.435 401.541 703.773 401.238 702.748C400.87 701.502 401.58 700.192 402.828 699.825C404.322 699.384 405.811 698.933 407.295 698.465C408.536 698.074 409.855 698.768 410.243 700.009C410.632 701.25 409.942 702.569 408.701 702.959C407.194 703.428 405.681 703.888 404.161 704.338C403.94 704.403 403.715 704.435 403.494 704.435ZM185.996 700.758C185.729 700.758 185.456 700.712 185.192 700.615C183.706 700.073 182.221 699.531 180.739 698.97C179.524 698.51 178.91 697.154 179.37 695.937C179.83 694.718 181.187 694.117 182.403 694.567C183.867 695.119 185.333 695.661 186.801 696.194C188.023 696.64 188.653 697.986 188.207 699.209C187.86 700.165 186.957 700.758 185.996 700.758ZM421.384 698.603C420.417 698.603 419.511 698.005 419.169 697.04C418.73 695.817 419.369 694.471 420.593 694.034C422.064 693.506 423.53 692.972 424.989 692.435C426.207 691.975 427.562 692.605 428.013 693.828C428.463 695.045 427.838 696.396 426.62 696.847C425.142 697.394 423.663 697.936 422.174 698.465C421.915 698.557 421.647 698.603 421.384 698.603ZM168.471 693.832C168.16 693.832 167.848 693.772 167.547 693.644C166.09 693.024 164.64 692.38 163.192 691.733C162.006 691.2 161.476 689.807 162.009 688.622C162.54 687.44 163.937 686.907 165.118 687.44C166.538 688.079 167.965 688.704 169.394 689.315C170.589 689.826 171.145 691.209 170.635 692.404C170.254 693.295 169.383 693.832 168.471 693.832ZM438.93 691.797C438.011 691.797 437.138 691.254 436.761 690.354C436.258 689.155 436.823 687.776 438.02 687.275C439.456 686.672 440.885 686.061 442.31 685.436C443.512 684.922 444.89 685.456 445.41 686.645C445.931 687.835 445.389 689.223 444.199 689.748C442.751 690.382 441.299 691.003 439.84 691.613C439.542 691.737 439.234 691.797 438.93 691.797ZM151.41 685.85C151.054 685.85 150.69 685.768 150.35 685.597C148.937 684.88 147.528 684.155 146.129 683.409C144.98 682.803 144.542 681.378 145.15 680.229C145.759 679.084 147.19 678.638 148.33 679.254C149.706 679.981 151.087 680.697 152.473 681.396C153.634 681.984 154.097 683.4 153.512 684.558C153.097 685.377 152.27 685.85 151.41 685.85ZM456.07 684.021C455.199 684.021 454.362 683.534 453.953 682.702C453.383 681.535 453.866 680.124 455.033 679.555C456.432 678.87 457.825 678.181 459.211 677.473C460.369 676.876 461.784 677.345 462.375 678.498C462.965 679.655 462.506 681.076 461.348 681.664C459.939 682.381 458.524 683.089 457.102 683.782C456.768 683.943 456.417 684.021 456.07 684.021ZM134.912 676.784C134.505 676.784 134.092 676.678 133.715 676.457C132.35 675.648 130.996 674.826 129.648 673.989C128.543 673.304 128.203 671.857 128.887 670.749C129.568 669.646 131.022 669.307 132.125 669.991C133.446 670.809 134.777 671.613 136.114 672.404C137.231 673.065 137.601 674.508 136.939 675.63C136.5 676.37 135.716 676.784 134.912 676.784ZM472.724 675.257C471.904 675.257 471.106 674.825 470.672 674.063C470.033 672.932 470.433 671.494 471.564 670.855C472.922 670.087 474.273 669.315 475.618 668.53C476.743 667.868 478.184 668.254 478.835 669.376C479.49 670.497 479.113 671.94 477.989 672.593C476.626 673.388 475.257 674.178 473.881 674.954C473.512 675.161 473.115 675.257 472.724 675.257ZM119.069 666.608C118.607 666.608 118.141 666.475 117.734 666.19C116.431 665.29 115.135 664.376 113.851 663.447C112.796 662.688 112.56 661.218 113.32 660.161C114.078 659.108 115.549 658.865 116.604 659.633C117.865 660.543 119.134 661.439 120.409 662.321C121.48 663.061 121.746 664.527 121.006 665.592C120.549 666.254 119.816 666.608 119.069 666.608ZM488.82 665.505C488.05 665.505 487.297 665.128 486.846 664.435C486.136 663.346 486.446 661.889 487.535 661.181C488.847 660.327 490.152 659.462 491.451 658.594C492.524 657.877 493.99 658.166 494.714 659.241C495.438 660.321 495.146 661.783 494.066 662.509C492.754 663.387 491.43 664.26 490.1 665.123C489.705 665.381 489.259 665.505 488.82 665.505ZM104.002 655.327C103.482 655.327 102.961 655.157 102.524 654.803C101.29 653.806 100.068 652.8 98.855 651.78C97.86 650.943 97.731 649.459 98.567 648.462C99.406 647.479 100.886 647.336 101.883 648.177C103.073 649.179 104.273 650.167 105.484 651.146C106.495 651.964 106.651 653.444 105.833 654.456C105.369 655.028 104.689 655.327 104.002 655.327ZM504.303 654.761C503.584 654.761 502.871 654.43 502.412 653.81C501.638 652.766 501.856 651.291 502.899 650.519C504.152 649.591 505.395 648.654 506.628 647.702C507.657 646.907 509.135 647.105 509.928 648.126C510.72 649.155 510.53 650.635 509.5 651.425C508.243 652.395 506.977 653.351 505.702 654.298C505.281 654.61 504.79 654.761 504.303 654.761ZM519.054 643.047C518.388 643.047 517.724 642.762 517.26 642.215C516.419 641.222 516.543 639.737 517.533 638.897C518.721 637.891 519.902 636.876 521.072 635.85C522.042 634.991 523.533 635.082 524.392 636.061C525.249 637.036 525.155 638.525 524.179 639.379C522.986 640.432 521.787 641.466 520.576 642.49C520.132 642.863 519.593 643.047 519.054 643.047ZM89.829 642.932C89.248 642.932 88.666 642.716 88.211 642.288C87.06 641.194 85.918 640.096 84.787 638.984C83.861 638.074 83.847 636.585 84.76 635.656C85.665 634.728 87.159 634.715 88.087 635.629C89.199 636.723 90.318 637.803 91.446 638.869C92.39 639.765 92.429 641.254 91.535 642.196C91.074 642.684 90.452 642.932 89.829 642.932ZM533.005 630.391C532.391 630.391 531.778 630.152 531.316 629.674C530.411 628.74 530.434 627.252 531.367 626.346C532.484 625.266 533.591 624.172 534.687 623.065C535.606 622.151 537.095 622.137 538.014 623.051C538.937 623.971 538.942 625.459 538.028 626.383C536.909 627.509 535.783 628.621 534.643 629.729C534.186 630.17 533.595 630.391 533.005 630.391ZM76.681 629.449C76.037 629.449 75.399 629.186 74.932 628.673C73.868 627.491 72.818 626.296 71.777 625.088C70.931 624.1 71.044 622.615 72.028 621.77C73.016 620.929 74.496 621.031 75.348 622.019C76.361 623.2 77.388 624.367 78.429 625.52C79.298 626.486 79.222 627.974 78.257 628.843C77.807 629.25 77.244 629.449 76.681 629.449ZM546.058 616.825C545.498 616.825 544.935 616.628 544.484 616.222C543.519 615.354 543.439 613.865 544.31 612.9C545.349 611.742 546.378 610.575 547.396 609.403C548.253 608.415 549.735 608.318 550.714 609.164C551.697 610.015 551.803 611.503 550.953 612.482C549.917 613.681 548.869 614.867 547.807 616.044C547.343 616.563 546.701 616.825 546.058 616.825ZM64.7 614.931C63.988 614.931 63.282 614.61 62.821 613.998C61.867 612.734 60.926 611.461 59.992 610.174C59.231 609.122 59.466 607.652 60.52 606.889C61.568 606.135 63.041 606.36 63.806 607.417C64.716 608.676 65.639 609.922 66.575 611.158C67.359 612.196 67.154 613.672 66.115 614.457C65.693 614.775 65.195 614.931 64.7 614.931ZM558.138 602.394C557.632 602.394 557.122 602.234 556.693 601.898C555.668 601.098 555.486 599.619 556.286 598.594C557.242 597.366 558.186 596.135 559.119 594.894C559.898 593.856 561.375 593.635 562.414 594.425C563.453 595.202 563.662 596.677 562.883 597.716C561.932 598.985 560.969 600.243 559.995 601.488C559.531 602.081 558.839 602.394 558.138 602.394ZM54.005 599.457C53.224 599.457 52.459 599.066 52.013 598.359C51.17 597.021 50.34 595.671 49.522 594.31C48.853 593.193 49.214 591.749 50.328 591.08C51.443 590.418 52.888 590.771 53.557 591.884C54.357 593.217 55.168 594.54 55.993 595.85C56.687 596.949 56.356 598.401 55.258 599.094C54.866 599.343 54.434 599.457 54.005 599.457ZM569.179 587.164C568.728 587.164 568.271 587.035 567.869 586.765C566.791 586.038 566.504 584.577 567.228 583.502C568.094 582.21 568.949 580.909 569.792 579.609C570.5 578.519 571.954 578.212 573.048 578.92C574.137 579.627 574.448 581.084 573.74 582.174C572.883 583.492 572.014 584.812 571.134 586.121C570.681 586.801 569.937 587.164 569.179 587.164ZM44.613 583.153C43.779 583.153 42.97 582.707 42.543 581.922L40.303 577.767C39.689 576.623 40.121 575.199 41.268 574.587C42.419 573.962 43.839 574.399 44.452 575.552L46.679 579.679C47.3 580.819 46.877 582.248 45.735 582.868C45.379 583.061 44.992 583.153 44.613 583.153ZM579.112 571.19C578.71 571.19 578.305 571.089 577.933 570.874C576.81 570.222 576.426 568.778 577.078 567.657L577.31 567.253C578.008 566.034 578.686 564.816 579.352 563.604C579.98 562.464 581.397 562.041 582.548 562.671C583.685 563.296 584.104 564.725 583.479 565.864C582.799 567.105 582.107 568.342 581.402 569.578L581.149 570.018C580.714 570.772 579.923 571.19 579.112 571.19ZM35.854 566.489C34.995 566.489 34.165 566.016 33.751 565.198L31.635 560.969C31.058 559.807 31.536 558.396 32.701 557.817C33.866 557.238 35.277 557.712 35.854 558.883L37.952 563.074C38.538 564.236 38.072 565.652 36.913 566.236C36.573 566.407 36.21 566.489 35.854 566.489ZM587.827 554.503C587.492 554.503 587.149 554.43 586.823 554.278C585.649 553.721 585.148 552.32 585.701 551.143C586.37 549.733 587.022 548.317 587.661 546.902C588.196 545.72 589.6 545.192 590.772 545.725C591.958 546.263 592.484 547.656 591.949 548.841C591.301 550.275 590.634 551.718 589.957 553.155C589.555 554.007 588.71 554.503 587.827 554.503ZM27.669 549.522C26.775 549.522 25.923 549.012 25.528 548.148C24.871 546.714 24.223 545.276 23.579 543.829C23.053 542.639 23.588 541.251 24.774 540.722C25.962 540.19 27.352 540.732 27.881 541.917C28.515 543.347 29.158 544.775 29.806 546.19C30.346 547.372 29.829 548.768 28.645 549.306C28.329 549.453 27.996 549.522 27.669 549.522ZM595.242 537.188C594.959 537.188 594.675 537.137 594.396 537.032C593.183 536.563 592.579 535.203 593.047 533.989C593.606 532.537 594.153 531.076 594.688 529.614C595.138 528.396 596.497 527.781 597.707 528.213C598.927 528.659 599.554 530.01 599.108 531.233C598.564 532.722 598.007 534.202 597.435 535.681C597.078 536.613 596.187 537.188 595.242 537.188ZM20.25 532.21C19.315 532.21 18.43 531.649 18.065 530.726C17.479 529.255 16.905 527.785 16.339 526.3C15.877 525.087 16.486 523.727 17.699 523.268C18.908 522.799 20.27 523.41 20.737 524.627C21.293 526.084 21.858 527.536 22.435 528.988C22.918 530.197 22.327 531.562 21.119 532.045C20.833 532.156 20.539 532.21 20.25 532.21ZM601.417 519.403C601.187 519.403 600.953 519.371 600.718 519.298C599.477 518.911 598.783 517.593 599.17 516.352C599.631 514.863 600.085 513.37 600.521 511.88C600.886 510.64 602.189 509.923 603.441 510.285C604.689 510.648 605.403 511.958 605.038 513.204C604.592 514.721 604.135 516.232 603.664 517.749C603.351 518.754 602.421 519.403 601.417 519.403ZM13.809 514.513C12.821 514.513 11.899 513.888 11.573 512.895C11.079 511.388 10.596 509.885 10.125 508.374C9.73898 507.133 10.433 505.814 11.674 505.428C12.908 505.029 14.231 505.732 14.62 506.977C15.082 508.461 15.555 509.946 16.045 511.425C16.449 512.657 15.778 513.989 14.544 514.394C14.301 514.476 14.053 514.513 13.809 514.513ZM606.469 501.254C606.283 501.254 606.092 501.232 605.902 501.186C604.64 500.873 603.871 499.6 604.183 498.336C604.558 496.819 604.923 495.308 605.277 493.786C605.569 492.522 606.835 491.736 608.101 492.026C609.367 492.32 610.155 493.589 609.859 494.852C609.501 496.392 609.131 497.931 608.752 499.466C608.487 500.537 607.527 501.254 606.469 501.254ZM8.55398 496.429C7.50198 496.429 6.54098 495.717 6.27498 494.651C5.88898 493.112 5.52098 491.572 5.16498 490.028C4.87398 488.759 5.66599 487.496 6.93199 487.206C8.19399 486.908 9.46199 487.703 9.75099 488.972C10.098 490.488 10.461 492 10.838 493.503C11.155 494.767 10.39 496.044 9.12799 496.361C8.93599 496.407 8.74498 496.429 8.55398 496.429ZM610.521 482.868C610.372 482.868 610.22 482.854 610.068 482.827C608.793 482.574 607.961 481.343 608.21 480.065C608.508 478.53 608.8 476.995 609.081 475.464C609.315 474.187 610.52 473.36 611.82 473.57C613.098 473.804 613.943 475.032 613.709 476.309C613.424 477.858 613.132 479.411 612.829 480.964C612.609 482.086 611.623 482.868 610.521 482.868ZM4.73498 478.005C3.59998 478.005 2.59998 477.183 2.41398 476.029C2.16098 474.462 1.92498 472.89 1.70598 471.314C1.52698 470.027 2.42499 468.841 3.71199 468.662C4.98499 468.478 6.18699 469.375 6.36599 470.671C6.57999 472.21 6.81199 473.745 7.05999 475.275C7.26699 476.557 6.39598 477.766 5.11098 477.972C4.98598 477.996 4.85898 478.005 4.73498 478.005ZM613.739 464.311C613.622 464.311 613.5 464.301 613.379 464.284C612.094 464.086 611.215 462.887 611.412 461.599C611.648 460.055 611.878 458.511 612.099 456.957C612.283 455.676 613.474 454.811 614.763 454.963C616.05 455.147 616.943 456.342 616.76 457.629C616.535 459.192 616.305 460.754 616.064 462.317C615.883 463.479 614.882 464.311 613.739 464.311ZM2.59799 459.306C1.36899 459.306 0.333988 458.35 0.251988 457.11C0.147988 455.52 0.0639885 453.934 0.00198847 452.339C-0.0510115 451.043 0.961983 449.949 2.26098 449.895C3.48998 449.909 4.65298 450.855 4.70298 452.156C4.76498 453.705 4.84599 455.253 4.94899 456.798C5.03399 458.094 4.05299 459.215 2.75499 459.302C2.70099 459.306 2.65099 459.306 2.59799 459.306ZM616.281 445.648C616.187 445.648 616.093 445.643 615.996 445.629C614.707 445.473 613.788 444.301 613.942 443.015L614.493 438.341C614.642 437.049 615.798 436.145 617.098 436.273C618.39 436.424 619.316 437.592 619.166 438.883L618.614 443.575C618.471 444.77 617.455 445.648 616.281 445.648ZM2.35898 440.483C2.32698 440.483 2.29498 440.483 2.25998 440.483C0.961984 440.427 -0.0470137 439.334 0.00598627 438.034C0.0449863 437.059 0.0929829 436.09 0.150983 435.125L0.263982 433.277C0.346982 431.981 1.45398 430.97 2.76198 431.081C4.05998 431.163 5.04399 432.28 4.96099 433.581L4.85998 435.203C4.79598 436.338 4.74798 437.28 4.70898 438.226C4.65698 439.49 3.61398 440.483 2.35898 440.483ZM618.324 426.921C618.246 426.921 618.168 426.916 618.09 426.907C616.796 426.783 615.852 425.629 615.981 424.333L616.16 422.481C616.252 421.548 616.332 420.628 616.404 419.705C616.5 418.41 617.603 417.454 618.929 417.536C620.225 417.638 621.195 418.767 621.096 420.064C621.025 421.015 620.94 421.97 620.846 422.931L620.664 424.801C620.544 426.016 619.519 426.921 618.324 426.921ZM3.81598 421.719C3.73298 421.719 3.65098 421.714 3.56598 421.705C2.27398 421.566 1.33699 420.408 1.47499 419.117C1.63999 417.551 1.81899 415.978 2.00799 414.407C2.16399 413.115 3.32499 412.178 4.62799 412.352C5.91699 412.508 6.83599 413.68 6.68199 414.967C6.49399 416.52 6.31899 418.064 6.15399 419.613C6.02399 420.823 5.00398 421.719 3.81598 421.719ZM619.218 408.134C617.931 408.134 616.882 407.1 616.865 405.814C616.844 404.26 616.801 402.716 616.737 401.176C616.682 399.876 617.688 398.782 618.986 398.723C620.28 398.75 621.383 399.678 621.438 400.974C621.505 402.56 621.551 404.15 621.571 405.749C621.587 407.049 620.548 408.115 619.248 408.134C619.239 408.134 619.227 408.134 619.218 408.134ZM6.32299 403.061C6.19899 403.061 6.07499 403.051 5.94799 403.034C4.66299 402.827 3.78998 401.618 3.99698 400.336C4.24698 398.783 4.50698 397.225 4.77798 395.662C5.00098 394.385 6.21598 393.493 7.49798 393.751C8.77798 393.972 9.63798 395.189 9.41398 396.472C9.14698 398.006 8.88799 399.546 8.64199 401.081C8.45799 402.239 7.45799 403.061 6.32299 403.061ZM617.858 389.37C616.695 389.37 615.684 388.511 615.528 387.325C615.323 385.785 615.1 384.255 614.852 382.738C614.643 381.457 615.514 380.248 616.798 380.041C618.085 379.807 619.289 380.703 619.498 381.985C619.751 383.548 619.982 385.124 620.192 386.709C620.362 387.996 619.457 389.177 618.168 389.352C618.064 389.366 617.958 389.37 617.858 389.37ZM9.77698 384.559C9.61398 384.559 9.45099 384.54 9.28499 384.508C8.01399 384.237 7.20298 382.987 7.47198 381.719C7.80098 380.175 8.13798 378.63 8.48498 377.082C8.76998 375.817 10.027 375.036 11.295 375.299C12.564 375.583 13.361 376.843 13.076 378.112C12.733 379.642 12.4 381.168 12.076 382.693C11.84 383.801 10.863 384.559 9.77698 384.559ZM614.351 370.896C613.294 370.896 612.333 370.179 612.069 369.109C611.697 367.601 611.306 366.103 610.897 364.614C610.553 363.36 611.288 362.064 612.54 361.719C613.783 361.383 615.086 362.11 615.433 363.364C615.856 364.899 616.256 366.434 616.637 367.978C616.95 369.242 616.18 370.515 614.918 370.828C614.728 370.873 614.537 370.896 614.351 370.896ZM14.114 366.218C13.914 366.218 13.715 366.195 13.514 366.14C12.257 365.809 11.506 364.522 11.837 363.268L13.057 358.695C13.397 357.441 14.693 356.71 15.945 357.041C17.197 357.381 17.94 358.673 17.597 359.927L16.386 364.463C16.109 365.52 15.158 366.218 14.114 366.218ZM608.933 352.881C607.966 352.881 607.058 352.279 606.716 351.315C606.194 349.848 605.661 348.392 605.112 346.949C604.65 345.736 605.259 344.376 606.475 343.911C607.695 343.461 609.051 344.063 609.51 345.276C610.073 346.755 610.62 348.24 611.151 349.743C611.585 350.966 610.945 352.312 609.719 352.749C609.459 352.84 609.195 352.881 608.933 352.881ZM19.273 348.098C19.045 348.098 18.814 348.066 18.586 347.996C17.343 347.614 16.642 346.301 17.023 345.055C17.485 343.543 17.959 342.035 18.443 340.529C18.839 339.288 20.169 338.627 21.403 339.004C22.639 339.403 23.322 340.727 22.924 341.963C22.448 343.452 21.98 344.942 21.522 346.435C21.213 347.445 20.282 348.098 19.273 348.098ZM601.885 335.432C600.989 335.432 600.132 334.917 599.739 334.049C599.098 332.629 598.443 331.218 597.779 329.82C597.22 328.648 597.719 327.242 598.893 326.686C600.072 326.125 601.471 326.626 602.029 327.798C602.707 329.222 603.371 330.661 604.026 332.109C604.561 333.295 604.035 334.687 602.852 335.224C602.538 335.364 602.209 335.432 601.885 335.432ZM25.195 330.211C24.933 330.211 24.669 330.17 24.407 330.073C23.182 329.641 22.544 328.295 22.978 327.072C23.504 325.588 24.04 324.099 24.586 322.615C25.037 321.392 26.395 320.781 27.603 321.213C28.823 321.663 29.451 323.015 29.002 324.233L27.412 328.645C27.07 329.61 26.162 330.211 25.195 330.211ZM593.519 318.567C592.68 318.567 591.869 318.116 591.444 317.331C590.702 315.952 589.955 314.587 589.199 313.227C588.567 312.087 588.976 310.659 590.114 310.024C591.247 309.399 592.683 309.808 593.312 310.939C594.077 312.318 594.838 313.701 595.589 315.098C596.205 316.242 595.775 317.671 594.631 318.286C594.278 318.475 593.896 318.567 593.519 318.567ZM31.856 312.592C31.564 312.592 31.27 312.537 30.982 312.426C29.776 311.944 29.188 310.574 29.67 309.365C30.254 307.899 30.851 306.433 31.456 304.976C31.955 303.772 33.331 303.198 34.528 303.699C35.73 304.195 36.299 305.569 35.803 306.769C35.208 308.216 34.62 309.664 34.041 311.112C33.673 312.032 32.789 312.592 31.856 312.592ZM584.142 302.243C583.35 302.243 582.573 301.844 582.131 301.113C581.313 299.775 580.495 298.442 579.675 297.129C578.988 296.025 579.323 294.573 580.427 293.884C581.532 293.204 582.98 293.53 583.669 294.638C584.499 295.971 585.326 297.313 586.148 298.668C586.826 299.775 586.475 301.224 585.365 301.898C584.981 302.132 584.56 302.243 584.142 302.243ZM39.204 295.248C38.885 295.248 38.56 295.184 38.248 295.046C37.062 294.518 36.527 293.125 37.058 291.94C37.701 290.492 38.354 289.053 39.011 287.625C39.549 286.444 40.936 285.925 42.131 286.472C43.31 287.014 43.829 288.411 43.285 289.592C42.637 291.003 41.993 292.423 41.355 293.852C40.965 294.729 40.105 295.248 39.204 295.248ZM574.048 286.351C573.283 286.351 572.531 285.979 572.081 285.289L569.489 281.369C568.77 280.285 569.066 278.828 570.148 278.106C571.231 277.389 572.687 277.683 573.409 278.768L576.01 282.706C576.725 283.79 576.424 285.247 575.339 285.964C574.939 286.227 574.491 286.351 574.048 286.351ZM47.212 278.217C46.863 278.217 46.506 278.139 46.171 277.973C45.006 277.395 44.528 275.984 45.105 274.821C45.808 273.401 46.516 271.995 47.226 270.593C47.812 269.435 49.225 268.966 50.39 269.564C51.548 270.152 52.01 271.567 51.422 272.725C50.716 274.109 50.018 275.506 49.324 276.908C48.912 277.739 48.078 278.217 47.212 278.217ZM564.687 272.344C563.931 272.344 563.189 271.981 562.734 271.305L560.098 267.417C559.365 266.342 559.643 264.881 560.718 264.149C561.789 263.414 563.255 263.694 563.985 264.769L566.635 268.675C567.361 269.751 567.076 271.212 565.998 271.943C565.596 272.215 565.139 272.344 564.687 272.344ZM55.909 261.531C55.528 261.531 55.141 261.439 54.783 261.241C53.643 260.621 53.223 259.192 53.845 258.048C54.606 256.66 55.371 255.281 56.14 253.911C56.772 252.772 58.199 252.372 59.343 253.007C60.476 253.646 60.88 255.079 60.244 256.21C59.483 257.569 58.727 258.93 57.976 260.309C57.55 261.089 56.741 261.531 55.909 261.531ZM553.988 256.852C553.25 256.852 552.524 256.507 552.065 255.86L549.344 252.036C548.588 250.979 548.832 249.509 549.891 248.751C550.948 248.002 552.419 248.241 553.172 249.298L555.906 253.14C556.657 254.202 556.405 255.672 555.345 256.421C554.932 256.709 554.457 256.852 553.988 256.852ZM65.319 245.225C64.901 245.225 64.478 245.116 64.097 244.881C62.987 244.205 62.636 242.757 63.313 241.65L65.793 237.62C66.478 236.526 67.932 236.182 69.033 236.866C70.136 237.555 70.474 239.008 69.787 240.111L67.331 244.095C66.886 244.826 66.111 245.225 65.319 245.225ZM542.943 241.618C542.224 241.618 541.514 241.288 541.052 240.667L538.244 236.913C537.463 235.874 537.672 234.398 538.711 233.617C539.749 232.832 541.225 233.043 542.003 234.082L544.829 237.864C545.603 238.907 545.385 240.382 544.342 241.154C543.921 241.466 543.429 241.618 542.943 241.618ZM75.48 229.389C75.027 229.389 74.568 229.26 74.166 228.985C73.088 228.258 72.806 226.797 73.534 225.717C74.421 224.403 75.315 223.102 76.216 221.811C76.958 220.741 78.417 220.483 79.492 221.227C80.558 221.972 80.818 223.438 80.076 224.504C79.189 225.776 78.309 227.059 77.431 228.355C76.975 229.026 76.236 229.389 75.48 229.389ZM531.531 226.641C530.83 226.641 530.139 226.328 529.675 225.736L526.773 222.05C525.967 221.029 526.139 219.55 527.157 218.745C528.173 217.928 529.653 218.106 530.464 219.127L533.384 222.84C534.184 223.865 534.002 225.34 532.98 226.14C532.547 226.48 532.037 226.641 531.531 226.641ZM86.433 214.081C85.939 214.081 85.44 213.925 85.015 213.602C83.979 212.821 83.774 211.346 84.558 210.307C85.514 209.043 86.477 207.788 87.446 206.548C88.236 205.523 89.718 205.334 90.748 206.139C91.773 206.939 91.955 208.418 91.155 209.443C90.204 210.666 89.255 211.902 88.313 213.147C87.849 213.759 87.146 214.081 86.433 214.081ZM519.744 211.972C519.066 211.972 518.393 211.682 517.927 211.117L514.93 207.51C514.096 206.513 514.227 205.029 515.224 204.193C516.219 203.361 517.712 203.494 518.537 204.487L521.556 208.122C522.383 209.124 522.241 210.608 521.239 211.435C520.801 211.797 520.27 211.972 519.744 211.972ZM98.205 199.394C97.667 199.394 97.127 199.209 96.684 198.833C95.693 197.991 95.572 196.507 96.413 195.52C97.44 194.311 98.472 193.116 99.508 191.93C100.365 190.947 101.849 190.855 102.828 191.709C103.807 192.564 103.906 194.049 103.051 195.027C102.028 196.194 101.01 197.371 100.002 198.561C99.535 199.114 98.873 199.394 98.205 199.394ZM507.561 197.62C506.906 197.62 506.253 197.349 505.787 196.816L502.694 193.3C501.83 192.33 501.917 190.841 502.887 189.977C503.857 189.118 505.345 189.201 506.21 190.175L509.335 193.718C510.187 194.701 510.086 196.186 509.107 197.04C508.662 197.427 508.11 197.62 507.561 197.62ZM110.818 185.428C110.232 185.428 109.646 185.211 109.189 184.771C108.251 183.875 108.222 182.385 109.12 181.448C110.218 180.303 111.321 179.174 112.431 178.052C113.343 177.128 114.837 177.118 115.758 178.033C116.682 178.947 116.691 180.436 115.777 181.36C114.686 182.463 113.596 183.575 112.516 184.701C112.053 185.184 111.435 185.428 110.818 185.428ZM494.971 183.631C494.339 183.631 493.71 183.378 493.248 182.877L490.042 179.453C489.153 178.506 489.196 177.017 490.143 176.126C491.09 175.234 492.577 175.275 493.47 176.227L496.694 179.678C497.579 180.63 497.524 182.118 496.572 183.001C496.12 183.424 495.546 183.631 494.971 183.631ZM124.277 172.275C123.638 172.275 123.005 172.018 122.54 171.508C121.662 170.547 121.731 169.058 122.692 168.185C123.859 167.119 125.031 166.062 126.21 165.019C127.185 164.165 128.671 164.251 129.53 165.225C130.392 166.2 130.3 167.684 129.325 168.548C128.165 169.572 127.011 170.611 125.863 171.659C125.413 172.073 124.845 172.275 124.277 172.275ZM481.957 170.033C481.351 170.033 480.744 169.799 480.284 169.335L476.975 166.017C476.054 165.103 476.049 163.614 476.966 162.69C477.883 161.766 479.372 161.771 480.293 162.681L483.629 166.026C484.544 166.95 484.534 168.439 483.61 169.353C483.154 169.807 482.554 170.033 481.957 170.033ZM138.574 160.069C137.88 160.069 137.193 159.766 136.729 159.178C135.92 158.157 136.092 156.678 137.11 155.873C138.363 154.881 139.614 153.901 140.863 152.955C141.894 152.174 143.374 152.371 144.158 153.405C144.946 154.439 144.744 155.919 143.707 156.705C142.487 157.633 141.262 158.584 140.033 159.559C139.602 159.904 139.085 160.069 138.574 160.069ZM468.499 156.87C467.92 156.87 467.338 156.659 466.883 156.226L463.46 153.023C462.508 152.141 462.454 150.652 463.335 149.701C464.22 148.745 465.704 148.685 466.663 149.577L470.114 152.807C471.058 153.699 471.102 155.188 470.21 156.13C469.746 156.622 469.124 156.87 468.499 156.87ZM153.816 149.036C153.049 149.036 152.295 148.659 151.845 147.97C151.133 146.885 151.438 145.424 152.527 144.716C153.874 143.834 155.22 142.984 156.565 142.161C157.677 141.48 159.12 141.835 159.8 142.942C160.478 144.049 160.129 145.497 159.019 146.177C157.716 146.972 156.411 147.794 155.101 148.654C154.705 148.912 154.257 149.036 153.816 149.036ZM454.581 144.196C454.032 144.196 453.483 144.008 453.037 143.618C451.863 142.597 450.681 141.596 449.494 140.607C448.492 139.78 448.354 138.295 449.181 137.294C450.01 136.302 451.497 136.159 452.494 136.986C453.714 137.993 454.923 139.022 456.125 140.069C457.106 140.92 457.21 142.409 456.354 143.387C455.891 143.92 455.235 144.196 454.581 144.196ZM279.857 140.607C278.743 140.607 277.754 139.812 277.546 138.681C277.312 137.404 278.155 136.177 279.435 135.938C280.506 135.745 281.645 135.281 283.024 134.486C284.143 133.829 285.584 134.219 286.238 135.345C286.888 136.471 286.503 137.909 285.377 138.557C283.52 139.633 281.902 140.272 280.285 140.571C280.142 140.593 279.997 140.607 279.857 140.607ZM170.155 139.72C169.279 139.72 168.441 139.233 168.034 138.392C167.469 137.22 167.958 135.814 169.128 135.248C170.576 134.55 172.024 133.874 173.466 133.235C174.659 132.697 176.044 133.24 176.571 134.429C177.097 135.619 176.562 137.007 175.374 137.536C173.977 138.156 172.58 138.804 171.178 139.484C170.847 139.647 170.498 139.72 170.155 139.72ZM265.939 138.893C265.741 138.893 265.539 138.87 265.339 138.815C263.85 138.424 262.316 137.993 260.746 137.538C259.498 137.175 258.782 135.869 259.144 134.619C259.507 133.374 260.794 132.643 262.06 133.015C263.588 133.461 265.081 133.883 266.534 134.265C267.791 134.596 268.542 135.878 268.211 137.137C267.936 138.194 266.982 138.893 265.939 138.893ZM247.876 133.599C247.665 133.599 247.448 133.571 247.235 133.511C245.769 133.098 244.273 132.689 242.747 132.298C241.488 131.977 240.729 130.694 241.051 129.435C241.373 128.18 242.662 127.417 243.914 127.74C245.477 128.139 247.009 128.557 248.512 128.98C249.762 129.334 250.491 130.634 250.139 131.884C249.845 132.923 248.903 133.599 247.876 133.599ZM187.637 132.808C186.624 132.808 185.691 132.151 185.383 131.131C185.011 129.89 185.716 128.575 186.959 128.203C188.505 127.739 190.047 127.307 191.587 126.912C192.839 126.59 194.128 127.352 194.45 128.607C194.772 129.867 194.014 131.148 192.754 131.47C191.275 131.847 189.797 132.26 188.315 132.706C188.088 132.776 187.86 132.808 187.637 132.808ZM439.769 132.592C439.303 132.592 438.831 132.454 438.42 132.164C437.149 131.273 435.872 130.404 434.587 129.563C433.5 128.851 433.199 127.394 433.912 126.304C434.626 125.215 436.086 124.916 437.17 125.629C438.491 126.497 439.81 127.394 441.122 128.313C442.186 129.057 442.443 130.523 441.696 131.589C441.24 132.243 440.511 132.592 439.769 132.592ZM295.406 130.331C294.742 130.331 294.078 130.051 293.613 129.504C292.772 128.511 292.891 127.026 293.882 126.186L295.642 124.683C296.276 124.141 296.931 123.613 297.604 123.102C298.641 122.317 300.118 122.524 300.901 123.557C301.687 124.591 301.483 126.067 300.448 126.852C299.848 127.307 299.267 127.772 298.704 128.258L296.928 129.771C296.488 130.147 295.946 130.331 295.406 130.331ZM229.51 129.527C229.397 129.527 229.284 129.518 229.17 129.505L227.863 129.317C226.778 129.17 225.696 129.046 224.607 128.94C223.315 128.811 222.369 127.658 222.498 126.367C222.624 125.07 223.723 124.151 225.072 124.253C226.216 124.367 227.358 124.501 228.496 124.657L229.847 124.845C231.134 125.033 232.025 126.228 231.837 127.515C231.665 128.681 230.661 129.527 229.51 129.527ZM206.467 128.998C205.265 128.998 204.064 128.134 203.925 126.939C203.778 125.657 204.474 124.517 205.752 124.356C205.775 124.351 206.228 124.305 206.251 124.301C207.691 124.154 209.148 124.038 210.607 123.96C211.882 123.841 213.011 124.88 213.084 126.18C213.158 127.476 212.163 128.588 210.864 128.658C209.483 128.736 208.1 128.842 206.721 128.984C206.637 128.994 206.552 128.998 206.467 128.998ZM423.765 122.707C423.388 122.707 423.004 122.615 422.65 122.427C421.285 121.687 419.916 120.979 418.542 120.299C417.379 119.72 416.904 118.305 417.483 117.142C418.06 115.975 419.468 115.506 420.638 116.08C422.058 116.787 423.473 117.523 424.884 118.281C426.029 118.901 426.456 120.326 425.838 121.47C425.413 122.261 424.602 122.707 423.765 122.707ZM311.084 119.995C310.245 119.995 309.432 119.545 309.009 118.755C308.393 117.61 308.825 116.181 309.969 115.57C311.385 114.806 312.811 114.081 314.245 113.386C315.413 112.825 316.823 113.308 317.389 114.48C317.954 115.648 317.465 117.054 316.295 117.624C314.921 118.29 313.554 118.989 312.193 119.715C311.84 119.904 311.458 119.995 311.084 119.995ZM406.667 114.871C406.389 114.871 406.106 114.82 405.831 114.72C404.386 114.168 402.938 113.645 401.486 113.153C400.255 112.735 399.595 111.402 400.011 110.171C400.429 108.935 401.767 108.287 402.994 108.696C404.501 109.206 406.004 109.748 407.504 110.322C408.719 110.782 409.329 112.142 408.867 113.355C408.508 114.292 407.614 114.871 406.667 114.871ZM328.315 112.491C327.334 112.491 326.419 111.876 326.088 110.897C325.668 109.665 326.327 108.328 327.557 107.91C329.076 107.395 330.604 106.913 332.139 106.462C333.389 106.104 334.694 106.816 335.059 108.057C335.424 109.303 334.71 110.613 333.462 110.976C331.991 111.408 330.527 111.872 329.073 112.369C328.82 112.45 328.565 112.491 328.315 112.491ZM388.655 109.462C388.487 109.462 388.315 109.443 388.145 109.407C386.635 109.071 385.126 108.773 383.616 108.497C382.336 108.263 381.488 107.036 381.723 105.758C381.955 104.481 383.191 103.667 384.457 103.865C386.026 104.149 387.596 104.467 389.161 104.811C390.429 105.091 391.231 106.351 390.951 107.619C390.707 108.713 389.735 109.462 388.655 109.462ZM346.562 107.993C345.422 107.993 344.423 107.165 344.239 106.007C344.039 104.721 344.915 103.517 346.199 103.315C347.78 103.067 349.368 102.851 350.96 102.667C352.244 102.516 353.416 103.444 353.565 104.74C353.715 106.026 352.789 107.194 351.497 107.345C349.969 107.52 348.446 107.726 346.929 107.965C346.805 107.983 346.683 107.993 346.562 107.993ZM370.025 106.852C369.979 106.852 369.933 106.852 369.884 106.848C368.347 106.76 366.812 106.701 365.277 106.673C363.979 106.65 362.942 105.579 362.965 104.278C362.99 102.977 364.162 102.155 365.36 101.966C366.959 101.993 368.558 102.054 370.16 102.15C371.456 102.224 372.447 103.34 372.37 104.636C372.297 105.887 371.26 106.852 370.025 106.852Z" fill="#636466"/>
<path d="M410.008 347.114C411.631 351.255 413.899 353.213 416.752 352.924C420.833 352.51 424.431 347.17 427.717 341.472C430.196 337.161 432.425 332.671 434.58 328.328L435.455 326.563C435.89 325.699 435.634 324.642 434.855 324.067L433.913 323.35C433.394 322.955 432.87 322.56 432.337 322.183C424.57 316.719 415.357 312.234 404.169 308.47C403.893 308.373 403.606 308.346 403.328 308.373C402.892 308.419 402.474 308.602 402.145 308.92C401.607 309.43 401.4 310.207 401.607 310.919C403.036 315.859 403.948 321.048 404.829 326.062C406.054 333.042 407.322 340.257 410.008 347.114Z" fill="#ECFFFE"/>
<path d="M302.093 325.005C302.435 329.541 302.786 334.233 303.431 338.897L303.659 340.452C303.935 342.286 304.27 344.515 304.404 346.771C304.429 347.184 304.588 347.587 304.854 347.914C309.792 353.948 319.537 356.136 334.645 354.601C344.112 353.641 354.307 351.376 362.501 349.552C367.942 348.348 372.644 347.299 375.932 346.88C387.883 345.373 392.416 340.479 393.249 328.167L393.37 326.5C393.873 319.717 394.565 310.419 390.257 304.882C389.977 304.519 389.585 304.267 389.141 304.161C381.786 302.41 374.002 300.942 365.342 299.683C357.562 298.548 349.692 298.453 340.576 299.38C334.997 299.945 329.632 300.809 323.949 301.719C318.241 302.633 312.342 303.58 306.175 304.205C305.221 304.301 301.824 304.591 301.815 304.591C301.263 304.651 300.758 304.931 300.422 305.377C300.08 305.827 299.947 306.402 300.05 306.958C301.186 312.911 301.648 319.059 302.093 325.005Z" fill="#ECFFFE"/>
<path d="M242.128 364.163C245 363.869 247.716 363.524 250.073 363.225C251.847 363.004 253.414 362.802 254.682 362.674L255.162 362.628C256.283 362.526 257.821 362.44 259.641 362.338C262.729 362.168 266.613 361.952 270.705 361.538C284.466 360.142 292.966 357.154 296.693 352.407C298.476 350.145 299.17 347.508 298.766 344.585C298.09 339.7 297.734 334.622 297.387 329.709C296.856 322.168 296.307 314.369 294.597 306.869C294.381 305.904 293.496 305.247 292.513 305.315C287.69 305.637 282.853 305.904 278.019 306.166C268.63 306.681 258.924 307.214 249.501 308.17C234.207 309.724 222.024 312.173 211.158 315.872C210.712 316.023 210.333 316.331 210.09 316.731C210.037 316.823 209.991 316.915 209.949 317.016C208.952 319.088 208.074 321.198 207.194 323.302L206.886 324.042C206.776 324.304 206.727 324.662 206.737 324.942C207.033 335.2 207.403 347.966 211.647 357.511C215.326 365.777 229.871 365.41 242.128 364.163Z" fill="#ECFFFE"/>
<path d="M176.304 376.857C176.892 377.579 178.689 379.775 181.005 379.541C183.871 379.247 184.95 375.961 186.092 372.482C187.25 368.953 188.208 365.332 189.136 361.834L190.166 357.997C193.229 346.802 196.602 334.936 201.156 323.654C201.466 322.891 201.273 322.008 200.667 321.444C200.237 321.044 199.663 320.86 199.1 320.92C198.871 320.942 198.643 321.003 198.427 321.108C189.436 325.483 181.614 330.8 174.518 337.358C170.067 341.475 165.644 345.928 161.375 350.593C160.837 351.181 160.699 352.031 161.026 352.762C164.735 361.038 169.446 368.465 176.304 376.857Z" fill="#ECFFFE"/>
<path d="M171.573 475.189C171.518 474.495 171.102 473.87 170.474 473.562L169.328 472.978C163.262 469.931 156.989 466.779 150.367 465.459C147.729 464.931 145.11 464.816 142.359 465.092C136.725 465.666 131.343 467.932 127.019 469.752C126.325 470.041 125.852 470.707 125.801 471.461C125.748 472.215 126.125 472.932 126.777 473.314C136.155 478.865 145.89 483.741 155.716 487.799C156.031 487.927 156.362 487.969 156.679 487.937C157.343 487.868 157.956 487.472 158.271 486.838C158.448 486.484 158.71 486.158 159.055 485.882C162.525 483.033 166.35 480.119 170.742 476.976C171.314 476.567 171.628 475.887 171.573 475.189Z" fill="#ECFFFE"/>
<path d="M460.045 455.938C457.313 453.626 454.489 451.241 451.364 449.081C438.067 439.886 423.724 437.813 410.172 436.476C403.474 435.819 396.744 435.851 389.595 436.578C377.453 437.809 366.242 440.801 354.372 443.963C345.845 446.238 337.028 448.591 327.894 450.199C324.879 450.732 321.686 451.174 318.402 451.504C306.924 452.672 295.155 452.479 283.772 452.285C272.271 452.093 260.38 451.894 248.664 453.085C247.411 453.214 246.159 453.361 244.909 453.518C215.916 457.236 189.778 468.554 165.008 488.118C164.44 488.568 164.158 489.29 164.275 490.007C164.39 490.729 164.886 491.321 165.566 491.57C206.821 506.502 254.659 511.341 307.756 505.95C312.526 505.468 317.29 504.897 322.028 504.263C360.532 499.107 401.247 492.223 438.101 476.868C447.002 473.164 456.524 469.069 465.849 464.276C466.462 463.968 466.869 463.357 466.929 462.672C466.987 461.987 466.69 461.32 466.139 460.902C464.038 459.315 462.044 457.629 460.045 455.938Z" fill="#FF5671"/>
<path d="M477.281 436.025C470.423 436.719 463.745 438.953 456.677 441.315L454.965 441.889C454.265 442.118 453.75 442.716 453.623 443.447C453.499 444.169 453.782 444.909 454.363 445.364C455.728 446.429 457.077 447.518 458.428 448.603C463.028 452.307 467.782 456.135 473.113 459.206C473.485 459.422 473.904 459.505 474.315 459.463C474.598 459.436 474.871 459.349 475.124 459.201C484.154 453.925 491.524 448.525 497.648 442.703C498.124 442.253 498.345 441.599 498.249 440.952C498.148 440.308 497.741 439.748 497.153 439.463C490.96 436.415 484.459 435.294 477.281 436.025Z" fill="#ECFFFE"/>
<path d="M510.41 425.124C496.037 395.933 472.595 355.754 442.535 330.17C442.117 329.812 441.575 329.647 441.035 329.701C440.961 329.71 440.888 329.72 440.814 329.733C440.205 329.862 439.693 330.275 439.426 330.84L439.063 331.608C434.628 341.056 426.374 358.648 416.54 359.65C414.936 359.811 413.367 359.526 411.74 358.782C405.621 355.988 403.661 346.002 402.273 338.942L401.712 335.969C401.547 335.077 400.802 334.41 399.897 334.342C399.777 334.332 399.66 334.337 399.543 334.347C398.782 334.425 398.118 334.93 397.857 335.675C395.29 343.009 391.064 348.289 385.968 350.546C382.673 352.003 378.658 352.554 375.532 352.871C373.91 353.036 372.269 353.16 370.642 353.28C369.016 353.404 367.405 353.523 365.837 353.684C364.289 353.84 362.781 354.034 361.35 354.299C351.973 356.041 342.391 357.374 333.126 358.66L331.194 358.931C329.33 359.189 327.522 359.423 325.764 359.602C317.492 360.443 310.768 360.066 304.854 355.517C304.436 355.195 303.926 355.066 303.432 355.117C302.982 355.163 302.548 355.361 302.207 355.705C294.436 363.601 279.886 365.903 269.618 366.946C265.629 367.35 261.771 367.603 258.29 367.838L255.793 368.003C255.246 368.04 254.658 368.091 254.03 368.155C252.217 368.339 250.069 368.624 247.707 368.936C244.855 369.313 241.682 369.736 238.396 370.071C228.58 371.064 214.966 371.657 210.069 365.365C206.652 360.968 204.332 354.809 202.974 346.537C202.824 345.618 202.059 344.924 201.126 344.864C201.016 344.855 200.905 344.864 200.8 344.874C200 344.956 199.316 345.503 199.083 346.294C197.879 350.338 196.721 354.409 195.591 358.509C195.143 360.131 194.715 362.025 194.256 364.051C192.462 371.992 190.228 381.882 184.506 385.494C183.21 386.316 182.013 386.785 180.951 386.891C178.743 387.116 176.659 385.811 173.98 382.534C166.843 373.812 161.902 366.459 157.957 358.697C157.654 358.095 157.068 357.695 156.399 357.617C156.256 357.598 156.114 357.598 155.972 357.617C155.457 357.668 154.977 357.916 154.639 358.325C128.065 390.127 112.181 426.638 109.908 461.133C109.862 461.822 110.177 462.485 110.738 462.889C112.758 464.341 114.81 465.724 116.868 467.094C117.259 467.356 117.723 467.466 118.18 467.42C118.35 467.401 118.52 467.364 118.681 467.3C120.823 466.496 123.01 465.549 125.239 464.589C130.659 462.236 136.268 459.81 141.845 459.244C144.081 459.018 146.139 459.101 148.139 459.497C156.381 461.138 163.799 464.602 171.65 468.274C173.677 469.225 175.706 470.171 177.753 471.087C178.077 471.234 178.428 471.284 178.773 471.252C179.079 471.221 179.377 471.119 179.644 470.949C195.859 460.613 212.093 453.83 227.9 450.779C231.627 450.057 235.45 449.506 239.591 449.083C251.452 447.879 263.693 448.054 275.531 448.224C287.424 448.399 299.724 448.574 311.699 447.356C317.464 446.772 322.71 445.922 327.744 444.754C334.389 443.21 340.892 441.483 347.176 439.81C361.034 436.124 374.125 432.645 387.93 431.239C396.082 430.412 403.741 430.393 411.345 431.175L414.973 431.529C424.456 432.443 435.207 433.482 443.472 437.967C443.773 438.132 445.03 438.9 445.03 438.9C445.4 439.116 445.825 439.204 446.238 439.162C446.479 439.135 446.714 439.07 446.937 438.96C447.008 438.923 447.293 438.731 447.357 438.685C449.627 437.982 451.868 437.255 454.085 436.53C462.207 433.892 469.877 431.392 477.493 430.62C486.525 429.701 494.262 431.374 501.843 435.891C502.224 436.111 502.654 436.199 503.07 436.158C503.578 436.107 504.065 435.863 504.409 435.445C506.562 432.83 508.557 430.004 510.333 427.035C510.681 426.457 510.711 425.736 510.41 425.124Z" fill="#853341"/>
<path d="M562.404 345.666C539.422 300.657 507.119 255.262 466.388 210.735C433.75 175.054 398.445 140.574 357.314 144.752C345.753 145.924 334.32 150.285 323.146 157.858C317.098 163.055 311.689 167.068 306.611 170.132C306.466 170.224 306.333 170.33 306.215 170.445C301.415 175.336 294.77 178.855 285.305 181.535C279.308 183.24 274.2 184.292 269.691 184.747C263.816 185.345 258.926 184.935 255.096 183.534C259.459 183.074 263.432 182.532 267.219 181.875C268.184 181.709 268.887 180.873 268.88 179.895C268.871 178.912 268.156 178.084 267.191 177.932C262.34 177.164 257.256 175.924 251.64 174.118C234.74 168.696 221.018 166.757 208.457 168.034C198.06 169.087 188.411 172.487 179.778 178.131C164.969 187.814 150.978 199.702 138.183 213.466C96.8865 257.914 65.9125 319.142 50.9655 385.869C39.2765 438.057 43.3735 480.759 64.6675 528.649C86.5055 577.776 115.793 612.684 156.835 638.498C169.399 646.407 183.306 653.31 198.163 659.017C198.464 659.128 198.779 659.164 199.08 659.137C199.748 659.068 200.36 658.668 200.675 658.03C201.132 657.101 200.808 655.98 199.926 655.442C182.035 644.482 160.448 629.638 144.087 608.521C162.387 626.673 185.429 643.535 211.58 657.832C225.291 665.328 240.721 670.686 260.266 674.712C284.512 678.007 309.459 678.389 334.42 675.852C372.549 671.983 409.788 661.248 442.327 644.68C460.973 632.024 480.491 617.851 496.907 600.048C512.136 583.531 522.959 563.637 532.773 543.596C527.617 557.832 521.104 572.773 512.162 586.284C511.585 587.162 511.781 588.339 512.612 588.977C513.032 589.299 513.543 589.427 514.032 589.377C514.515 589.33 514.984 589.106 515.328 588.715C541.576 559.143 559.46 524.607 567.047 488.825C572.78 461.794 576.266 439.312 578.024 418.081C580.225 391.512 576.135 372.565 562.404 345.666ZM522.928 431.365C525.256 432.905 527.705 433.934 530.122 434.853C529.692 434.926 529.265 434.996 528.83 435.037C527.812 435.143 526.912 435.111 525.99 434.945C524.085 434.596 522.116 433.87 520.592 432.946C519.493 432.289 518.204 431.517 517.039 430.621C516.635 430.304 516.122 430.161 515.615 430.212C515.569 430.217 515.525 430.222 515.477 430.235C514.926 430.327 514.438 430.648 514.135 431.122C499.597 453.719 472.662 467.666 450.822 477.294C417.566 491.954 378.531 502.143 331.482 508.452C325.558 509.242 319.621 509.95 313.665 510.552C227.096 519.344 159.216 504.863 106.156 466.279C105.754 465.98 105.262 465.856 104.778 465.907C104.645 465.916 104.513 465.939 104.383 465.98C100.56 467.175 96.8166 467.96 93.2586 468.319C90.8916 468.563 88.5705 468.618 86.3655 468.48C81.9395 468.209 78.9315 467.019 75.7155 464.643C79.3665 465.08 83.5185 464.813 87.6175 464.394L88.5805 464.293C90.1365 464.132 91.4156 463.916 92.6916 463.7L94.0865 463.466C94.9965 463.319 95.6905 462.566 95.7615 461.642C95.8325 460.722 95.2646 459.872 94.3876 459.587C93.4386 459.274 92.5125 458.852 91.5525 458.282C93.9075 458.296 96.3015 458.098 98.3335 457.891L100.391 457.674C101.255 457.587 102.128 457.518 103.001 457.495C103.049 457.495 103.1 457.49 103.15 457.486C104.09 457.389 104.846 456.644 104.938 455.693C109.182 411.943 135.981 362.541 171.618 332.761C195.186 313.06 219.412 307.058 248.535 304.099C255.559 303.386 262.694 302.867 269.944 302.338C277.396 301.786 285.098 301.226 292.878 300.436C298.31 299.884 303.239 299.278 307.949 298.583L312.101 297.968C320.13 296.769 327.71 295.638 335.075 294.894C352.334 293.138 365.907 293.865 380.454 297.302C382.963 297.894 385.507 298.469 388.071 299.043C405.051 302.871 422.614 306.828 435.849 318.05C466.925 344.402 493.432 379.259 514.629 421.657C514.896 422.19 515.385 422.577 515.966 422.71C519.567 423.547 523.565 424.25 528.388 423.763C529.301 423.666 530.242 423.537 531.219 423.354C532.554 423.101 533.944 422.872 535.36 422.637C537.91 422.214 540.503 421.783 543.032 421.222C538.666 424.103 534.312 425.881 529.312 426.907C527.926 427.191 526.268 427.463 524.514 427.642C524.514 427.642 523.841 427.706 523.832 427.706C522.998 427.793 522.304 428.386 522.095 429.204C521.882 430.033 522.217 430.896 522.928 431.365Z" fill="#FF7CC7"/>
<path d="M523.48 436.126C524.385 436.075 525.118 435.533 525.546 434.82C523.783 434.448 521.998 433.796 520.592 432.945C519.493 432.288 518.204 431.516 517.039 430.62C516.635 430.303 516.122 430.16 515.615 430.211C515.569 430.216 515.525 430.221 515.477 430.234C514.926 430.326 514.438 430.647 514.135 431.121C499.597 453.718 472.662 467.665 450.822 477.293C417.566 491.953 378.531 502.142 331.482 508.451C325.558 509.241 319.621 509.949 313.665 510.551C227.096 519.343 159.216 504.862 106.156 466.278C105.754 465.979 105.262 465.855 104.778 465.906C104.645 465.915 104.513 465.938 104.383 465.979C100.638 467.146 96.9754 467.914 93.4834 468.282C106.178 475.093 115.93 485.602 128.363 492.79C144.992 502.399 167.173 505.056 185.098 512.675C217.235 526.343 257.706 525.966 292.154 526.825C325.796 527.666 356.343 521.407 387.48 511.963C401.887 508.994 415.465 503.599 429.799 497.597C437.524 494.675 445.169 491.55 452.729 488.117C465.767 482.864 478.595 477.653 490.812 470.507C505.222 462.068 511.419 446.787 523.48 436.126Z" fill="#F85094"/>
<path d="M535.355 422.638C537.905 422.215 541.164 421.696 548.836 418.874C539.075 417.376 535.555 415.464 529.077 412.086C510.725 402.523 503.811 382.56 492.211 367.348C471.255 339.871 449.716 309.265 415.931 295.473C382.779 281.935 364.704 281.291 329.171 283.392C316.912 284.114 259.794 289.32 244.516 292.032C210.665 298.034 177.335 311.2 155.063 334.132C136.593 353.158 121.609 377.009 110.026 400.815C104.431 412.303 101.012 424.932 99.3918 437.543C98.3028 446.008 94.9638 452.492 90.3428 457.883C91.1908 457.91 91.9928 458.022 92.7188 458.246C94.6838 458.205 96.6368 458.066 98.3298 457.892L100.387 457.675C101.251 457.588 102.124 457.519 102.997 457.496C103.045 457.496 103.096 457.491 103.146 457.487C104.086 457.39 104.842 456.645 104.934 455.694C109.178 411.944 135.977 362.542 171.614 332.762C195.182 313.061 219.408 307.059 248.531 304.1C255.555 303.387 262.69 302.868 269.94 302.339C277.392 301.787 285.094 301.227 292.874 300.437C298.306 299.885 303.235 299.279 307.945 298.584L312.097 297.969C320.126 296.77 327.706 295.639 335.071 294.895C352.33 293.139 365.903 293.866 380.45 297.303C382.959 297.895 385.503 298.47 388.067 299.044C405.047 302.872 422.61 306.829 435.845 318.051C436.516 318.621 437.157 319.256 437.826 319.834C437.948 319.89 438.074 319.944 438.196 320.004C444.993 323.268 449.779 328.612 453.706 334.793C477.155 358.598 497.624 387.66 514.625 421.658C514.892 422.191 515.381 422.578 515.962 422.711C519.563 423.548 523.561 424.251 528.384 423.764C529.297 423.667 530.238 423.538 531.215 423.355C532.549 423.102 533.94 422.872 535.355 422.638Z" fill="#F85094"/>
<path d="M534.987 538.218C512.928 558.622 494.555 588.774 470.196 609.325C429.937 643.304 375.656 656.071 324.374 660.749C276.417 665.129 221.095 658.673 179.967 632.146C170.679 626.154 158.694 618.438 147.736 611.241C157.945 623.433 187.401 644.614 211.58 657.831C225.291 665.327 240.721 670.685 260.266 674.711C284.512 678.006 309.459 678.388 334.42 675.851C372.549 671.982 409.788 661.247 442.327 644.679C460.973 632.023 480.491 617.85 496.907 600.047C508.938 587 518.214 571.844 526.415 556.173C528.356 552.459 532.773 543.595 534.987 538.218Z" fill="#F85094"/>
<path d="M567.047 488.824C572.78 461.793 576.266 439.311 578.024 418.08C578.403 413.498 578.521 409.192 578.509 404.982C571.103 437.771 565.803 488.7 546.161 526.457C540.049 538.204 532.942 549.692 525.743 560.975C521.906 569.615 517.508 578.213 512.163 586.283C511.586 587.161 511.782 588.338 512.613 588.976C513.033 589.298 513.544 589.426 514.033 589.376C514.516 589.329 514.985 589.105 515.329 588.714C541.576 559.141 559.46 524.605 567.047 488.824Z" fill="#F85094"/>
<path d="M64.6691 528.649C86.5071 577.776 115.794 612.684 156.836 638.498C169.4 646.407 183.307 653.31 198.164 659.017C198.465 659.128 198.78 659.164 199.081 659.137C199.749 659.068 200.361 658.668 200.676 658.03C201.133 657.101 200.809 655.98 199.927 655.442C192.154 650.676 183.684 645.125 175.246 638.701C175 638.54 174.745 638.384 174.501 638.227C126.429 606.301 88.7041 578.208 53.8691 500.066C56.7821 509.462 60.3561 518.948 64.6691 528.649Z" fill="#F85094"/>
<path d="M109.23 269.072C123.674 250.395 134.536 227.569 152.21 211.752C166.44 199.013 184.694 186.2 201.741 177.63C219.641 168.622 246.316 179.896 266.649 181.701C266.699 181.784 266.748 181.862 266.798 181.944C266.933 181.922 267.083 181.898 267.218 181.876C268.183 181.71 268.886 180.874 268.879 179.896C268.87 178.913 268.155 178.085 267.19 177.933C262.339 177.165 257.255 175.925 251.639 174.119C234.739 168.697 221.017 166.758 208.456 168.035C198.059 169.088 188.41 172.488 179.777 178.132C164.968 187.815 150.977 199.703 138.182 213.467C96.8859 257.915 65.9119 319.143 50.9649 385.87C44.0919 416.555 42.7229 443.949 47.0509 471.058C45.5879 374.858 94.4549 288.176 109.23 269.072Z" fill="#F85094"/>
<path d="M562.403 345.666C539.421 300.657 507.118 255.262 466.387 210.735C433.749 175.054 398.444 140.574 357.313 144.752C345.752 145.924 334.319 150.285 323.145 157.858C317.097 163.055 311.688 167.068 306.61 170.132C306.465 170.224 306.332 170.33 306.214 170.445C301.414 175.336 294.769 178.855 285.304 181.535C279.307 183.24 274.199 184.292 269.69 184.747C265.798 185.143 262.381 185.055 259.376 184.572C259.491 185.193 259.851 185.762 260.598 186.066C293.326 199.334 319.67 174.402 348.348 161.727C370.719 151.842 395.336 158.157 413.114 174.544C434.638 194.388 497.08 253.23 549.058 339.563C561.748 360.643 572.213 388.147 578.332 412.376C579.491 388.741 575.121 370.575 562.403 345.666Z" fill="#F85094"/>
<path d="M199.976 231.031C243.08 257.006 327.382 261.362 355.514 210.525C357.791 206.413 353.68 201.252 349.271 201.821C322.867 205.222 298.017 214.694 271.369 217.13C246.564 219.404 224.142 220.783 200.073 227.782C198.434 228.255 198.82 230.332 199.976 231.031Z" fill="#FFBFE2"/>
<path d="M132.006 548.011C150.869 581.316 191.411 591.508 226.429 599.39C268.874 608.944 321.413 611.581 358.203 584.647C362.564 581.454 360.915 574.334 355.565 573.434C317.431 567.028 278.343 572.621 239.954 566.325C221.551 563.301 203.552 557.947 185.606 553.002C170.751 548.912 146.727 552.616 134.434 545.038C132.526 543.857 131.163 546.522 132.006 548.011Z" fill="#FFBFE2"/>
<path d="M394.94 568.99C430.868 583.049 482.617 553.098 496.192 518.26C498.053 513.486 494.643 507.929 489.204 508.518C473.221 510.25 459.05 520.039 445.983 528.734C429.147 539.933 411.077 549.138 394.027 560.02C390.798 562.082 391.397 567.602 394.94 568.99Z" fill="#FFBFE2"/>
<path d="M358.961 236.036C361.787 243.265 373.91 240.595 379.216 239.28C384.025 238.094 388.704 234.115 391.583 230.259C393.601 227.562 395.577 224.51 396.149 221.118C396.567 218.558 396.315 216.072 395.391 213.646C396.427 217.653 394.081 209.56 393.55 208.986C389.336 204.399 384.249 202.639 378.272 205.296C372.088 208.049 369.327 212.111 366.059 217.865C364.324 220.916 363.24 224.353 361.602 227.478C360.784 230.134 360.63 230.64 361.142 228.986C360.579 229.735 360.062 230.521 359.593 231.335C358.829 232.777 358.338 234.436 358.961 236.036Z" fill="#FFBFE2"/>
<path d="M465.849 464.274C466.462 463.966 466.869 463.355 466.929 462.67C466.987 461.985 466.69 461.318 466.139 460.9C464.038 459.314 462.044 457.629 460.045 455.937C457.313 453.625 454.489 451.24 451.364 449.08C446.966 446.038 442.448 443.832 437.89 442.113C424.958 474.591 292.323 485.951 244.462 487.053C233.646 487.301 192.422 481.644 201.746 465.652C189.081 471.304 176.884 478.74 165.009 488.115C164.441 488.565 164.159 489.287 164.276 490.004C164.391 490.726 164.887 491.318 165.567 491.567C206.822 506.499 254.66 511.338 307.757 505.947C312.527 505.465 317.291 504.894 322.029 504.26C360.533 499.104 401.248 492.22 438.102 476.865C447.003 473.162 456.525 469.067 465.849 464.274Z" fill="#E23F58"/>
<path d="M442.536 330.17C442.118 329.812 441.576 329.647 441.036 329.701C440.962 329.71 440.889 329.72 440.815 329.733C440.206 329.862 439.694 330.275 439.427 330.84L439.064 331.608C434.629 341.056 426.375 358.648 416.541 359.65C414.937 359.811 413.368 359.526 411.741 358.782C405.622 355.988 403.662 346.002 402.274 338.942L401.713 335.969C401.548 335.077 400.803 334.41 399.898 334.342C399.778 334.332 399.661 334.337 399.544 334.347C398.783 334.425 398.119 334.93 397.858 335.675C395.291 343.009 391.065 348.289 385.969 350.546C382.674 352.003 378.659 352.554 375.533 352.871C373.911 353.036 372.27 353.16 370.643 353.28C369.017 353.404 367.406 353.523 365.838 353.684C364.29 353.84 362.782 354.034 361.351 354.299C351.974 356.041 342.392 357.374 333.127 358.66L331.195 358.931C329.331 359.189 327.523 359.423 325.765 359.602C317.493 360.443 310.769 360.066 304.855 355.517C304.437 355.195 303.927 355.066 303.433 355.117C302.983 355.163 302.549 355.361 302.208 355.705C294.437 363.601 279.887 365.903 269.619 366.946C265.63 367.35 261.772 367.603 258.291 367.838L255.794 368.003C255.247 368.04 254.659 368.091 254.031 368.155C252.218 368.339 250.07 368.624 247.708 368.936C244.856 369.313 241.683 369.736 238.397 370.071C228.581 371.064 214.967 371.657 210.07 365.365C206.653 360.968 204.333 354.809 202.975 346.537C202.825 345.618 202.06 344.924 201.127 344.864C201.017 344.855 200.906 344.864 200.801 344.874C200.001 344.956 199.317 345.503 199.084 346.294C197.88 350.338 196.722 354.409 195.592 358.509C195.144 360.131 194.716 362.025 194.257 364.051C192.463 371.992 190.229 381.882 184.507 385.494C183.211 386.316 182.014 386.785 180.952 386.891C178.744 387.116 176.66 385.811 173.981 382.534C166.844 373.812 161.903 366.459 157.958 358.697C157.655 358.095 157.069 357.695 156.4 357.617C156.257 357.598 156.115 357.598 155.973 357.617C155.458 357.668 154.978 357.916 154.64 358.325C128.066 390.127 112.182 426.638 109.909 461.133C109.863 461.822 110.178 462.485 110.739 462.889C112.759 464.341 114.811 465.724 116.869 467.094C117.26 467.356 117.724 467.466 118.181 467.42C118.351 467.401 118.521 467.364 118.682 467.3C120.824 466.496 123.011 465.549 125.24 464.589C128.808 463.04 132.462 461.51 136.132 460.448C148.8 446.583 165.098 433.858 176.761 424.763C206.212 401.794 239.994 392.341 275.931 384.804C307.381 378.209 339.922 374.583 372.059 376.27C387.137 377.061 438.256 387.208 474.667 431.054C475.609 430.908 476.554 430.714 477.494 430.617C486.526 429.698 494.263 431.371 501.844 435.888C502.225 436.108 502.655 436.196 503.071 436.155C503.579 436.104 504.066 435.86 504.41 435.442C506.563 432.827 508.558 430.001 510.334 427.032C510.683 426.454 510.713 425.732 510.412 425.121C496.038 395.933 472.595 355.754 442.536 330.17Z" fill="#7A2537"/>
<path d="M549.921 417.004C544.194 419.476 536.964 420.248 530.849 421.388C525.421 422.395 521.182 421.87 516.414 420.763C496.878 381.692 470.599 344.899 437.136 316.526C421.492 303.258 400.16 299.909 380.909 295.359C354.443 289.095 334.048 292.708 307.651 296.604C257.082 304.077 211.976 296.42 170.333 331.227C135.363 360.446 107.415 409.43 102.943 455.497C101.824 455.529 100.698 455.621 99.598 455.745C95.657 456.186 91.027 456.577 87.105 455.947C86.459 455.842 86.107 456.664 86.59 457.078C88.869 459.05 91.116 460.626 93.766 461.489C92.057 461.765 90.368 462.096 88.621 462.28C83.474 462.808 75.448 463.69 70.67 461.181C69.935 460.795 69.386 461.843 69.94 462.353C74.981 467.049 78.95 470.028 86.243 470.478C92.516 470.864 98.932 469.775 104.979 467.891C171.066 515.952 253.134 520.97 331.748 510.437C372.483 504.972 413.91 495.749 451.628 479.123C475.293 468.695 501.444 454.546 515.817 432.202C517.064 433.167 518.445 433.989 519.558 434.661C521.343 435.74 523.577 436.536 525.631 436.912C528.673 437.464 531.051 436.659 533.979 436.099C534.836 435.934 535.243 434.652 534.28 434.28C530.719 432.906 527.244 431.821 524.03 429.698C526.105 429.519 528.083 429.197 529.71 428.866C538.039 427.162 544.19 423.517 550.463 417.998C550.923 417.592 550.55 416.728 549.921 417.004ZM433.666 325.676C431.185 330.657 428.76 335.639 425.982 340.473C422.496 346.526 416.037 357.018 411.871 346.388C407.333 334.802 406.972 322.261 403.53 310.364C413.426 313.695 422.893 317.988 431.188 323.819C432.024 324.408 432.837 325.06 433.666 325.676ZM365.052 301.66C372.789 302.786 380.769 304.22 388.676 306.108C392.872 311.504 391.673 321.835 391.254 328.034C390.533 338.659 387.236 343.438 375.682 344.899C360.618 346.806 318.3 361.186 306.404 346.645C306.227 343.659 305.706 340.712 305.414 338.622C303.923 327.864 304.04 317.179 302.018 306.582C303.472 306.453 304.929 306.343 306.377 306.195C326.975 304.104 343.923 298.589 365.052 301.66ZM292.646 307.312C295.431 319.541 295.063 332.45 296.784 344.863C298.9 360.111 263.958 359.812 254.978 360.634C245.764 361.485 218.001 366.87 213.473 356.696C209.381 347.491 209.025 334.899 208.733 324.812C209.714 322.463 210.679 320.106 211.794 317.794C211.801 317.785 211.799 317.775 211.803 317.767C237.104 309.155 265.107 309.155 292.646 307.312ZM175.877 338.828C183.225 332.035 191.088 326.902 199.303 322.904C194.77 334.135 191.449 345.73 188.237 357.467C186.923 362.269 185.746 367.117 184.193 371.856C182.798 376.097 181.5 380.05 177.854 375.592C171.749 368.119 166.804 360.762 162.854 351.943C167.06 347.344 171.41 342.959 175.877 338.828ZM156.479 485.947C146.642 481.884 137.074 477.087 127.795 471.595C134.914 468.598 141.88 465.814 149.976 467.422C156.741 468.764 163.223 472.16 169.576 475.349C165.548 478.231 161.591 481.213 157.786 484.333C157.194 484.816 156.766 485.368 156.479 485.947ZM437.331 475.018C400.898 490.193 360.665 497.068 321.761 502.28C269.723 509.256 215.291 507.436 166.249 489.688C189.664 471.19 215.208 459.343 245.164 455.501C272.795 451.957 300.658 457.04 328.241 452.169C356.439 447.191 380.431 435.561 409.976 438.47C424.645 439.912 437.749 442.096 450.226 450.726C455.527 454.389 459.932 458.718 464.934 462.5C455.629 467.275 446.114 471.361 437.331 475.018ZM474.112 457.473C467.391 453.603 461.642 448.52 455.594 443.786C469.593 439.127 482.288 434.389 496.27 441.254C489.753 447.45 482.143 452.781 474.112 457.473ZM502.866 434.168C483.689 422.757 466.366 430.698 446.764 436.773C446.463 436.865 446.288 437.044 446.035 437.173C445.495 436.856 444.976 436.506 444.42 436.207C434.726 430.94 422.23 430.279 411.548 429.186C381.445 426.088 356.201 436.093 327.293 442.802C294.786 450.348 260.457 442.457 227.521 448.814C209.959 452.205 193.597 459.687 178.571 469.264C168.718 464.852 159.216 459.66 148.528 457.535C137.924 455.426 127.478 461.864 117.979 465.431C115.941 464.071 113.91 462.706 111.906 461.267C114.335 424.407 132.111 388.41 156.176 359.604C160.62 368.349 166.091 376.051 172.433 383.804C176.326 388.57 180.061 390.675 185.576 387.191C193.563 382.145 195.268 367.219 197.522 359.039C198.648 354.958 199.804 350.9 201.001 346.865C202.209 354.227 204.381 361.309 208.492 366.594C216.842 377.333 245.156 370.743 255.932 369.999C270.256 369.016 292.782 368.143 303.637 357.108C311.408 363.087 320.555 362.434 331.472 360.913C341.603 359.503 351.653 358.138 361.72 356.267C369.475 354.829 379.523 355.581 386.779 352.374C392.815 349.704 397.199 343.61 399.748 336.335C399.934 337.332 400.116 338.325 400.313 339.327C401.657 346.165 403.702 357.305 410.91 360.604C425.018 367.051 435.823 343.214 441.239 331.689C469.807 356.008 492.726 393.729 508.617 426.008C506.904 428.865 504.99 431.595 502.866 434.168Z" fill="#68182B"/>
<path d="M537.039 288.645C507.457 244.789 473.016 202.482 433.218 167.468C401.076 139.192 358.85 125.744 320.169 150.997C319.744 151.181 319.319 151.411 318.901 151.773C303.255 165.211 291.594 174.113 269.551 171.254C254.002 169.236 239.443 162.146 223.729 160.031C199.186 156.731 177.033 169.617 158.701 184.318C118.033 216.924 89.4392 261.593 68.6232 308.822C50.9462 348.932 38.3252 393.289 35.7922 437.176C33.0992 483.859 54.9562 530.683 77.0122 570.517C120.592 649.217 221.279 687.631 306.686 684.262C404.352 680.411 500.643 638.964 550.404 551.864C573.508 511.427 580.873 465.223 585.312 419.479C590.135 369.775 564.07 328.723 537.039 288.645ZM576.029 417.913C574.071 441.58 570.011 465.197 565.089 488.409C557.309 525.1 538.797 559.255 513.832 587.389C525.765 569.361 533.487 548.887 540.114 528.124C540.479 526.979 538.919 526.188 538.374 527.329C526.439 552.296 514.362 578.16 495.436 598.688C479.425 616.055 460.574 629.874 441.204 643.022C387.098 670.536 321.696 681.032 260.537 672.728C243.956 669.304 227.798 664.415 212.541 656.074C183.945 640.439 155.774 619.902 134.418 595.269C133.809 594.571 132.793 595.32 133.262 596.115C148.825 622.636 173.019 641.308 198.88 657.144C184.51 651.625 170.748 644.887 157.901 636.804C114.934 609.773 87.0262 574.014 66.4952 527.833C44.8732 479.198 41.5022 437.281 52.9202 386.308C66.9362 323.73 95.8292 261.993 139.65 214.824C151.883 201.662 165.831 189.64 180.872 179.805C202.889 165.408 227.347 168.417 251.028 176.023C256.715 177.848 261.954 179.129 266.878 179.907C261.463 180.845 255.92 181.492 250.286 181.974C249.76 182.016 249.505 182.755 249.955 183.078C259.383 189.884 275.456 186.41 285.852 183.464C294.452 181.028 302.012 177.582 307.642 171.851C313.069 168.575 318.577 164.42 324.448 159.374C379.809 121.938 429.825 173.73 464.91 212.085C501.859 252.476 535.689 297.747 560.62 346.575C573.326 371.457 578.308 390.405 576.029 417.913Z" fill="#68182B"/>
<path d="M641.952 170.123C651.934 171.429 661.994 168.331 669.553 161.63C677.228 154.819 681.575 145.023 681.47 134.737C681.42 128.882 681.07 122.765 680.427 116.299C684.356 113.454 687.927 110.655 691.258 107.797C700.178 100.154 704.682 88.6434 703.303 77.0064C701.925 65.3614 694.833 55.2054 684.342 49.8474C678.423 46.8144 672.026 44.2035 664.586 41.8045C663.304 37.8575 661.796 33.6244 659.94 29.3324C652.265 8.55142 637.537 3.69737 629.393 2.63137C629.214 2.60937 629.007 2.58638 628.828 2.56338C618.658 1.38138 608.451 4.77436 601.002 11.6944C600.327 12.3154 599.674 12.9634 599.077 13.6024C595.125 17.7144 591.145 22.6964 586.88 28.9464C586.595 29.3654 586.31 29.7834 586.025 30.1964C585.924 30.1964 585.823 30.1964 585.722 30.1964C580.18 30.1924 575.469 30.3394 570.924 30.6564C558.58 31.5074 547.505 38.9654 542.046 50.1184C536.531 61.4054 537.46 74.8844 544.472 85.2984C546.687 88.5984 548.976 91.7504 551.297 94.7924C550.823 95.9324 550.355 97.0905 549.895 98.2575C549.656 98.8275 549.339 99.4984 549.013 100.215C545.961 106.879 541.347 116.943 542.345 129.158C543.719 145.513 556.504 158.864 572.744 160.987C576.32 161.456 580.391 161.327 583.929 160.637C592.937 158.845 601.484 156.143 609.6 153.073C610.942 154.102 612.284 155.104 613.654 156.088C618.35 159.452 624.086 163.359 630.924 166.759C634.406 168.492 638.119 169.618 641.952 170.123Z" fill="white"/>
<path d="M646.647 172.772C644.843 172.772 643.228 172.666 641.644 172.459C641.373 172.422 641.118 172.339 640.886 172.225C640.629 172.271 640.353 172.266 640.073 172.22C638.416 171.926 636.78 171.522 635.209 171.025C633.97 170.634 633.283 169.311 633.676 168.075C634.069 166.835 635.381 166.163 636.629 166.54C638.028 166.981 639.453 167.331 640.9 167.588C641.132 167.63 641.35 167.703 641.552 167.804C641.778 167.763 642.014 167.759 642.26 167.79C643.657 167.975 645.056 168.066 646.447 168.066C647.748 168.066 648.899 169.118 648.899 170.419C648.899 171.72 647.947 172.772 646.647 172.772ZM660.364 169.863C659.456 169.863 658.59 169.335 658.204 168.452C657.685 167.257 658.229 165.874 659.422 165.354C660.748 164.775 662.055 164.095 663.312 163.333C664.429 162.652 665.87 163.007 666.545 164.118C667.221 165.225 666.867 166.674 665.757 167.349C664.321 168.227 662.823 169.003 661.302 169.664C660.996 169.798 660.677 169.863 660.364 169.863ZM623.289 164.885C622.873 164.885 622.45 164.775 622.067 164.54C620.661 163.686 619.314 162.826 618.025 161.972C616.941 161.255 616.642 159.798 617.358 158.713C618.073 157.624 619.532 157.317 620.616 158.047C621.859 158.865 623.16 159.696 624.515 160.524C625.625 161.2 625.976 162.647 625.301 163.755C624.859 164.486 624.084 164.885 623.289 164.885ZM570.978 163.061C570.84 163.061 570.7 163.047 570.56 163.024C568.926 162.73 567.286 162.312 565.681 161.784C564.447 161.38 563.776 160.047 564.185 158.815C564.587 157.579 565.908 156.894 567.156 157.317C568.549 157.776 569.975 158.139 571.391 158.392C572.671 158.621 573.521 159.844 573.291 161.126C573.087 162.261 572.094 163.061 570.978 163.061ZM584.994 162.776C583.903 162.776 582.924 162.013 582.694 160.901C582.428 159.633 583.243 158.383 584.516 158.121C586.035 157.804 587.54 157.464 589.029 157.1C590.304 156.816 591.563 157.569 591.871 158.833C592.179 160.097 591.402 161.369 590.14 161.678C588.601 162.05 587.045 162.399 585.476 162.725C585.314 162.762 585.153 162.776 584.994 162.776ZM674.813 158.153C674.337 158.153 673.859 158.01 673.443 157.712C672.386 156.954 672.145 155.483 672.903 154.427C673.76 153.237 674.534 151.991 675.221 150.699C675.834 149.551 677.25 149.114 678.406 149.729C679.552 150.34 679.987 151.765 679.376 152.915C678.592 154.381 677.703 155.814 676.727 157.175C676.267 157.813 675.546 158.153 674.813 158.153ZM603.126 157.758C602.147 157.758 601.232 157.142 600.899 156.162C600.479 154.935 601.136 153.599 602.365 153.176C603.843 152.675 605.304 152.155 606.752 151.622C607.967 151.19 609.325 151.802 609.772 153.019C610.22 154.242 609.595 155.592 608.374 156.042C606.895 156.585 605.397 157.113 603.887 157.632C603.634 157.716 603.379 157.758 603.126 157.758ZM554.248 154.946C553.699 154.946 553.147 154.757 552.702 154.366C551.459 153.282 550.264 152.087 549.154 150.819C548.297 149.844 548.396 148.355 549.372 147.501C550.346 146.642 551.833 146.733 552.692 147.722C553.664 148.829 554.707 149.872 555.794 150.82C556.773 151.674 556.876 153.159 556.022 154.137C555.555 154.674 554.903 154.946 554.248 154.946ZM681.325 140.731C681.254 140.731 681.182 140.727 681.109 140.722C679.816 140.602 678.862 139.458 678.979 138.166C679.071 137.15 679.119 136.131 679.119 135.105L679.105 133.709C679.089 132.408 680.127 131.342 681.428 131.323C681.437 131.323 681.449 131.323 681.458 131.323C682.745 131.323 683.794 132.357 683.811 133.644L683.823 134.724C683.825 136.277 683.772 137.435 683.667 138.588C683.553 139.812 682.529 140.731 681.325 140.731ZM543.96 139.449C542.972 139.449 542.051 138.824 541.725 137.832C541.203 136.246 540.785 134.605 540.482 132.965C540.245 131.688 541.091 130.46 542.368 130.222C543.678 130.015 544.873 130.833 545.109 132.111C545.373 133.545 545.739 134.974 546.196 136.362C546.601 137.593 545.929 138.926 544.696 139.331C544.452 139.412 544.204 139.449 543.96 139.449ZM680.727 121.93C679.516 121.93 678.489 121.002 678.386 119.775C678.294 118.705 678.195 117.625 678.085 116.536C678.002 115.699 678.37 114.882 679.052 114.39L680.169 113.577C681.216 112.809 682.691 113.03 683.459 114.073C684.233 115.117 684.013 116.592 682.967 117.364L682.898 117.414C682.96 118.072 683.018 118.728 683.073 119.382C683.183 120.678 682.223 121.813 680.927 121.923C680.86 121.926 680.794 121.93 680.727 121.93ZM542.816 120.846C542.687 120.846 542.559 120.836 542.428 120.814C541.146 120.602 540.28 119.389 540.493 118.107C540.769 116.444 541.123 114.839 541.53 113.295C541.863 112.036 543.159 111.282 544.405 111.617C545.662 111.948 546.411 113.235 546.08 114.49C545.71 115.896 545.389 117.362 545.136 118.879C544.944 120.028 543.947 120.846 542.816 120.846ZM692.563 108.98C691.938 108.98 691.315 108.732 690.851 108.241C689.959 107.299 690.003 105.809 690.948 104.918C692.014 103.912 693.014 102.827 693.921 101.701C694.739 100.69 696.221 100.529 697.23 101.343C698.243 102.156 698.402 103.641 697.588 104.652C696.544 105.948 695.398 107.189 694.178 108.338C693.724 108.769 693.142 108.98 692.563 108.98ZM548.786 103.052C548.451 103.052 548.108 102.978 547.784 102.826C546.61 102.274 546.107 100.868 546.661 99.6957L547.139 98.6526C547.355 98.1836 547.559 97.7386 547.725 97.3476L548.462 95.4996C548.949 94.2956 550.319 93.7256 551.525 94.1986C552.729 94.6856 553.311 96.0597 552.823 97.2637L552.083 99.1156C551.881 99.6026 551.655 100.095 551.414 100.619L550.915 101.699C550.516 102.555 549.668 103.052 548.786 103.052ZM702.216 93.0746C702.003 93.0746 701.786 93.0477 701.57 92.9827C700.32 92.6287 699.594 91.3286 699.95 90.0786C700.35 88.6726 700.658 87.2286 700.863 85.7906C701.049 84.5086 702.253 83.6536 703.526 83.7966C704.813 83.9806 705.707 85.1757 705.523 86.4617C705.287 88.1027 704.935 89.7576 704.478 91.3656C704.183 92.3986 703.241 93.0746 702.216 93.0746ZM544.084 87.0547C543.312 87.0547 542.556 86.6776 542.106 85.9786C541.205 84.5856 540.385 83.1067 539.672 81.5857C539.121 80.4087 539.626 79.0117 540.802 78.4557C541.986 77.8987 543.38 78.4136 543.932 79.5906C544.555 80.9186 545.269 82.2056 546.057 83.4236C546.763 84.5126 546.45 85.9696 545.358 86.6776C544.965 86.9296 544.523 87.0547 544.084 87.0547ZM702.368 74.4806C701.327 74.4806 700.376 73.7876 700.095 72.7296C699.723 71.3236 699.249 69.9217 698.689 68.5757C698.19 67.3767 698.76 66.0026 699.96 65.5016C701.164 65.0056 702.536 65.5747 703.037 66.7737C703.676 68.3137 704.218 69.9136 704.645 71.5256C704.978 72.7806 704.229 74.0676 702.973 74.4026C702.77 74.4576 702.568 74.4806 702.368 74.4806ZM538.496 69.3207C537.234 69.3207 536.191 68.3187 536.147 67.0497C536.129 66.5627 536.12 66.0796 536.12 65.5976C536.118 64.4116 536.173 63.2267 536.288 62.0397C536.412 60.7487 537.547 59.8486 538.852 59.9216C540.146 60.0456 541.095 61.1946 540.971 62.4906C540.874 63.5196 540.824 64.5576 540.827 65.5926L540.85 66.8837C540.896 68.1847 539.88 69.2737 538.582 69.3207C538.554 69.3207 538.524 69.3207 538.496 69.3207ZM692.997 58.4236C692.402 58.4236 691.809 58.1977 691.349 57.7527C690.308 56.7317 689.196 55.7807 688.018 54.8987C686.977 54.1227 686.763 52.6476 687.542 51.6086C688.316 50.5656 689.793 50.3446 690.834 51.1306C692.176 52.1326 693.458 53.2307 694.644 54.3887C695.573 55.2987 695.586 56.7876 694.679 57.7156C694.218 58.1896 693.609 58.4236 692.997 58.4236ZM542.699 51.2036C542.32 51.2036 541.936 51.1116 541.577 50.9186C540.435 50.2986 540.013 48.8686 540.633 47.7296C541.433 46.2546 542.336 44.8306 543.32 43.4886C544.087 42.4406 545.555 42.2067 546.608 42.9777C547.656 43.7457 547.883 45.2157 547.116 46.2637C546.259 47.4357 545.469 48.6857 544.77 49.9727C544.342 50.7577 543.533 51.2036 542.699 51.2036ZM676.989 48.7587C676.678 48.7587 676.366 48.6987 676.063 48.5707C674.67 47.9737 673.246 47.3946 671.782 46.8346C670.569 46.3656 669.965 45.0056 670.431 43.7916C670.9 42.5836 672.264 41.9807 673.473 42.4407C674.992 43.0287 676.472 43.6267 677.914 44.2427C679.109 44.7577 679.663 46.1357 679.15 47.3307C678.77 48.2267 677.901 48.7587 676.989 48.7587ZM662.779 38.8737C661.817 38.8737 660.913 38.2806 660.567 37.3196C660.052 35.8996 659.506 34.4526 658.921 33.0006C658.436 31.7966 659.02 30.4226 660.226 29.9396C661.421 29.4656 662.8 30.0366 663.286 31.2446C663.893 32.7526 664.458 34.2457 664.991 35.7217C665.432 36.9447 664.801 38.2897 663.578 38.7317C663.315 38.8277 663.046 38.8737 662.779 38.8737ZM555.601 37.8036C554.799 37.8036 554.018 37.3947 553.577 36.6547C552.913 35.5387 553.279 34.0946 554.395 33.4286C555.811 32.5826 557.318 31.8206 558.874 31.1576C560.069 30.6476 561.45 31.2086 561.96 32.3976C562.47 33.5926 561.914 34.9756 560.717 35.4866C559.357 36.0656 558.04 36.7317 556.804 37.4717C556.426 37.6977 556.01 37.8036 555.601 37.8036ZM573.535 32.8396C572.294 32.8396 571.256 31.8696 571.189 30.6156C571.118 29.3146 572.113 28.2076 573.411 28.1376C574.955 28.0556 576.536 27.9867 578.172 27.9407C579.404 27.8807 580.555 28.9286 580.592 30.2246C580.629 31.5246 579.604 32.6096 578.305 32.6466C576.71 32.6926 575.171 32.7516 573.663 32.8346C573.623 32.8396 573.579 32.8396 573.535 32.8396ZM589.647 27.3677C589.167 27.3677 588.685 27.2206 588.266 26.9166C587.214 26.1536 586.982 24.6836 587.747 23.6316C588.719 22.2936 589.677 21.0216 590.626 19.8076C591.423 18.7836 592.901 18.5947 593.928 19.3997C594.953 20.1987 595.135 21.6786 594.335 22.7036C593.418 23.8806 592.492 25.1067 591.553 26.3987C591.093 27.0317 590.376 27.3677 589.647 27.3677ZM655.068 21.7456C654.292 21.7456 653.533 21.3646 653.085 20.6616C652.251 19.3606 651.385 18.1656 650.489 17.0626C649.671 16.0556 649.822 14.5717 650.831 13.7537C651.844 12.9357 653.324 13.0916 654.142 14.0936C655.144 15.3246 656.116 16.6667 657.046 18.1237C657.747 19.2177 657.427 20.6747 656.334 21.3727C655.941 21.6267 655.502 21.7456 655.068 21.7456ZM601.97 13.1757C601.31 13.1757 600.654 12.9007 600.187 12.3577C599.339 11.3747 599.45 9.88967 600.436 9.03967C601.702 7.95067 603.053 6.93566 604.45 6.02966C605.544 5.31766 606.998 5.63062 607.706 6.71862C608.414 7.80762 608.103 9.26465 607.014 9.97265C605.794 10.7677 604.613 11.6506 603.506 12.6056C603.062 12.9876 602.515 13.1757 601.97 13.1757ZM641.57 8.92468C641.191 8.92468 640.805 8.83264 640.447 8.63964C639.178 7.94564 637.839 7.33467 636.467 6.81567C635.252 6.35567 634.638 4.99559 635.098 3.78259C635.56 2.56459 636.931 1.96757 638.131 2.41357C639.702 3.00657 641.239 3.71363 642.699 4.50463C643.839 5.12463 644.262 6.55463 643.639 7.69763C643.214 8.47863 642.404 8.92468 641.57 8.92468ZM618.774 5.21557C617.653 5.21557 616.66 4.41158 616.46 3.27258C616.232 1.99058 617.087 0.772625 618.367 0.546625C620.012 0.257625 621.692 0.0726333 623.356 0.00463333C624.606 -0.0783667 625.75 0.964615 625.803 2.26061C625.856 3.56161 624.847 4.65569 623.549 4.71069C622.081 4.77069 620.622 4.92668 619.186 5.17968C619.048 5.20668 618.91 5.21557 618.774 5.21557Z" fill="#636466"/>
<path d="M573.248 63.9302C577.407 63.6352 581.557 63.5431 585.72 63.5431C590.748 63.5431 600.205 65.8222 604.553 62.9822C606.24 61.8792 608.018 57.5591 609.116 55.8041C610.817 53.0741 612.604 50.4081 614.415 47.7571C617.154 43.7491 620.1 39.852 623.459 36.346C623.514 36.29 623.569 36.2491 623.629 36.2031C623.946 35.8491 624.424 35.6241 625.04 35.6931C627.306 35.9551 628.363 40.3571 629.093 42.0251C631.602 47.7281 633.422 53.7541 635.201 59.7101C636.005 62.4211 636.566 66.1941 638.206 68.5521C639.7 70.7021 646.34 71.18 648.725 71.851C655.775 73.846 662.64 76.199 669.171 79.544C670.343 80.142 670.573 81.6031 669.552 82.4851C666.059 85.4721 662.42 88.2251 658.66 90.8581C653.803 94.2581 644.056 97.4122 645.177 104.258C646.855 114.442 648.027 124.75 648.118 135.076C648.132 136.262 647.061 137.539 645.756 136.891C641.271 134.662 637.135 131.886 633.072 128.972C630.53 127.153 628.081 125.208 625.636 123.265C622.327 120.618 617.005 113.807 612.024 115.994C600.967 120.851 589.409 125.544 577.516 127.906C576.638 128.081 575.655 127.336 575.581 126.444C575.195 121.748 579.221 114.781 580.912 110.493C582.489 106.495 584.239 102.565 586.004 98.6551C586.78 96.9411 590.755 90.4571 590.278 89.8821C583.982 82.3731 577.594 74.8091 572.13 66.6651C571.465 65.6761 571.879 64.0222 573.248 63.9302Z" fill="#F85094"/>
</svg>
