<svg width="112" height="112" viewBox="0 0 112 112" fill="none" xmlns="http://www.w3.org/2000/svg">
<path d="M56 112C86.9279 112 112 86.9279 112 56C112 25.0721 86.9279 0 56 0C25.0721 0 0 25.0721 0 56C0 86.9279 25.0721 112 56 112Z" fill="#E5BF2B"/>
<path d="M43.318 73.4828C41.635 73.4878 40.729 75.4958 41.866 76.7368C45.361 80.5548 50.387 82.9498 55.97 82.9498C61.596 82.9498 66.654 80.5198 70.152 76.6518C71.282 75.4028 70.365 73.3988 68.681 73.4048L43.318 73.4828Z" fill="#F2F2F2"/>
<path d="M42.9 77.7578H69.059C69.437 77.4028 69.804 77.0368 70.152 76.6518C71.282 75.4028 70.365 73.3988 68.681 73.4048L43.318 73.4828C41.635 73.4878 40.729 75.4958 41.866 76.7368C42.193 77.0948 42.547 77.4258 42.9 77.7578Z" fill="#E1E1E3"/>
<path d="M40.4881 45.889C38.4761 45.843 36.6641 46.685 35.4081 48.051C34.8301 48.68 33.8201 48.71 33.2451 48.078C31.8571 46.552 29.7771 45.669 27.4971 45.935C24.7421 46.255 22.4291 48.327 21.7851 51.025C20.1481 57.888 29.8811 63.971 33.2201 65.832C33.8961 66.208 34.7141 66.209 35.3831 65.822C38.9481 63.759 50.0061 56.639 46.2671 49.616C45.1151 47.453 42.9371 45.946 40.4881 45.889Z" fill="#DE3205"/>
<path d="M82.0511 45.889C80.0381 45.843 78.2261 46.685 76.9711 48.051C76.3931 48.68 75.3821 48.71 74.8081 48.078C73.4201 46.552 71.3401 45.669 69.0601 45.935C66.3041 46.255 63.9921 48.327 63.3481 51.025C61.7101 57.888 71.4431 63.971 74.7831 65.832C75.4581 66.208 76.2761 66.209 76.9451 65.822C80.5101 63.759 91.5681 56.639 87.8291 49.616C86.6771 47.453 84.4991 45.946 82.0511 45.889Z" fill="#DE3205"/>
<path d="M30.282 16.8231C37.665 11.9661 46.503 9.14111 56 9.14111" stroke="#F7E05D" stroke-width="6" stroke-miterlimit="10" stroke-linecap="round"/>
<path d="M19.637 26.443C20.534 25.341 21.046 24.694 21.725 23.978" stroke="#F7E05D" stroke-width="6" stroke-miterlimit="10" stroke-linecap="round"/>
</svg>
