<svg width="114" height="112" viewBox="0 0 114 112" fill="none" xmlns="http://www.w3.org/2000/svg">
<path d="M9.39959 35.2302L19.4056 20.0642C17.1236 17.4992 15.4526 14.3302 14.7136 10.7242C14.3356 8.87719 14.2256 7.03922 14.3546 5.24922C14.5896 1.98922 10.9766 -0.0828319 8.33359 1.83717C2.12159 6.35117 -1.22741 14.2252 0.415592 22.2372C1.56159 27.8332 4.92759 32.3972 9.39959 35.2302Z" fill="#582677"/>
<path d="M103.961 35.2302L93.9546 20.0642C96.2366 17.4992 97.9076 14.3302 98.6456 10.7242C99.0246 8.87719 99.1346 7.03922 99.0046 5.24922C98.7696 1.98922 102.383 -0.0828319 105.026 1.83717C111.237 6.35117 114.587 14.2252 112.944 22.2372C111.799 27.8332 108.433 32.3972 103.961 35.2302Z" fill="#582677"/>
<path d="M56.5635 112C87.4914 112 112.563 86.9279 112.563 56C112.563 25.0721 87.4914 0 56.5635 0C25.6355 0 0.563477 25.0721 0.563477 56C0.563477 86.9279 25.6355 112 56.5635 112Z" fill="#8C5BA4"/>
<path d="M30.8457 16.8221C38.2287 11.9661 47.0667 9.14014 56.5637 9.14014" stroke="#CEB3D5" stroke-width="6" stroke-miterlimit="10" stroke-linecap="round"/>
<path d="M20.2007 26.4421C21.0977 25.3401 21.6097 24.6941 22.2887 23.9761" stroke="#CEB3D5" stroke-width="6" stroke-miterlimit="10" stroke-linecap="round"/>
<path d="M32.8715 66.4731C30.0345 66.4731 28.4715 69.7511 30.2345 71.9761C36.3855 79.7371 45.8905 84.7181 56.5635 84.7181C67.2365 84.7181 76.7415 79.7371 82.8925 71.9761C84.6555 69.7511 83.0935 66.4731 80.2555 66.4731H32.8715Z" fill="#2D2E30"/>
<path d="M67.1226 56.4598L87.0476 47.8237" stroke="#2D2E30" stroke-width="6" stroke-miterlimit="10" stroke-linecap="round"/>
<path d="M46.0056 56.4598L26.0796 47.8237" stroke="#2D2E30" stroke-width="6" stroke-miterlimit="10" stroke-linecap="round"/>
</svg>
