<svg width="759" height="580" viewBox="0 0 759 580" fill="none" xmlns="http://www.w3.org/2000/svg">
<path d="M741.824 450.675C746.153 445.629 749.113 439.485 750.328 432.679C757.194 394.265 761.302 337.185 741.89 283.412C738.432 273.835 736.178 263.235 733.793 252.011C731.488 241.179 729.105 229.982 725.41 218.373C718.485 196.618 705.022 179.798 693.142 164.954C688.861 159.607 684.817 154.554 681.481 149.761C679.289 146.611 677.152 143.453 675.02 140.308C665.647 126.468 655.957 112.158 642.391 98.8049C623.708 80.4179 600.24 66.0429 579.537 53.3569L573.494 49.6509C537.694 27.5939 494.99 16.6499 461.787 9.57986L458.976 8.99687C365.024 -10.1091 258.556 12.8129 187.74 67.3949C103.94 131.982 52.6962 206.147 35.4242 287.834C33.7812 295.606 34.5811 303.452 37.6001 310.523C31.3321 316.21 26.8922 323.834 25.0632 332.823C23.0392 342.779 24.5692 352.593 29.2732 360.95L18.4601 414.112C10.5581 420.151 5.16315 428.604 3.16615 438.429C1.23115 447.935 2.77115 457.675 7.62315 466.614C13.4532 477.331 23.4362 484.611 35.7442 487.113L88.4882 497.841C110.099 502.235 129.827 490.479 136.154 470.146C142.482 469.882 149.812 469.179 158.431 468.03C164.638 467.129 170.43 465.452 175.756 463.101C184.554 473.928 196.009 481.819 209.587 486.106L222.266 490.286C227.56 492.014 228.373 492.278 230.433 492.697L233.879 493.398C234.984 493.623 236.099 493.793 237.218 493.903C246.193 494.797 252.921 495.566 257.223 496.19C257.797 496.27 258.374 496.339 258.951 496.394C274.99 497.863 290.314 494.057 304.006 485.422C310.594 499.549 320.63 507.001 328.765 510.838L331.076 511.941C331.34 512.067 333.618 513.085 333.618 513.085C335.24 513.807 336.917 514.4 338.636 514.854L348.859 517.565C349.488 517.733 350.125 517.882 350.764 518.011C351.116 518.085 351.467 518.151 351.821 518.211L358.029 519.266C367.374 520.891 376.143 520.706 384.174 518.701C384.845 518.531 385.507 518.347 386.166 518.147C387.625 519.257 389.148 520.291 390.738 521.244C398.341 525.803 405.529 528.728 412.716 530.189C424.042 532.492 433.918 532.979 442.877 531.671C450.775 530.646 461.321 527.137 471.432 517.524C473.58 520.399 475.931 523.186 478.528 525.846C478.643 525.966 478.765 526.087 478.885 526.207C493.143 540.4 511.722 549.902 534.108 554.454C543.357 556.336 553.867 557.058 566.134 556.66C571.47 556.506 576.3 556.088 580.753 555.435C586.194 560.439 593.003 563.898 600.732 565.469L652.869 576.073C676.123 580.802 697.191 567.006 701.874 543.982C703.583 535.568 702.685 527.126 699.422 519.568C714.011 517.674 726.957 509.34 735.785 495.643C736.681 494.253 737.469 492.801 738.149 491.296C740.511 486.062 742.005 481.689 742.85 477.532C744.816 467.862 744.359 458.781 741.824 450.675ZM293.748 337.564C313.509 287.353 361.322 260.585 414.164 270.845L415.018 271.015C465.009 281.182 499.735 328.092 494.885 378.285L475.06 374.252C470.751 373.377 466.519 373.133 462.45 373.473C458.787 371.561 454.725 370.116 450.313 369.22L403.858 359.771C400.737 359.137 397.654 358.836 394.646 358.845C391.879 357.662 388.924 356.734 385.804 356.099L334.885 345.743C326.393 344.017 318.194 344.824 310.988 347.671C305.77 343.786 300.009 340.427 293.748 337.564Z" fill="white"/>
<path d="M666.831 579.073C665.652 579.073 664.634 578.188 664.497 576.989C664.347 575.7 665.273 574.532 666.565 574.383C668.049 574.211 669.511 573.958 670.94 573.627C672.201 573.338 673.472 574.126 673.762 575.392C674.054 576.658 673.264 577.922 671.997 578.214C670.397 578.582 668.766 578.866 667.102 579.057C667.013 579.069 666.92 579.073 666.831 579.073ZM652.794 578.409C652.638 578.409 652.481 578.393 652.323 578.361L647.711 577.423C646.438 577.166 645.616 575.923 645.875 574.65C646.132 573.379 647.382 572.562 648.648 572.814L653.26 573.752C654.533 574.009 655.356 575.252 655.096 576.525C654.871 577.64 653.89 578.409 652.794 578.409ZM634.347 574.659C634.191 574.659 634.032 574.643 633.873 574.611L629.264 573.671C627.991 573.412 627.171 572.171 627.431 570.896C627.691 569.623 628.929 568.805 630.207 569.062L634.816 570.002C636.089 570.262 636.909 571.502 636.649 572.778C636.422 573.892 635.443 574.659 634.347 574.659ZM684.384 572.757C683.616 572.757 682.865 572.382 682.415 571.695C681.703 570.608 682.004 569.149 683.091 568.436C684.323 567.627 685.504 566.748 686.632 565.796C687.625 564.959 689.109 565.088 689.948 566.078C690.784 567.071 690.658 568.555 689.665 569.394C688.394 570.465 687.061 571.46 685.674 572.37C685.276 572.633 684.827 572.757 684.384 572.757ZM615.903 570.907C615.747 570.907 615.59 570.891 615.432 570.859L610.82 569.921C609.547 569.664 608.724 568.421 608.984 567.148C609.241 565.875 610.496 565.066 611.757 565.312L616.369 566.25C617.642 566.508 618.465 567.751 618.205 569.023C617.98 570.137 616.999 570.907 615.903 570.907ZM597.486 567.038C597.275 567.038 597.059 567.01 596.845 566.951C595.237 566.496 593.672 565.961 592.153 565.349C590.947 564.862 590.365 563.49 590.85 562.286C591.339 561.079 592.722 560.505 593.913 560.983C595.276 561.534 596.68 562.015 598.123 562.419C599.373 562.773 600.101 564.071 599.749 565.323C599.455 566.359 598.513 567.038 597.486 567.038ZM697.111 559.14C696.716 559.14 696.316 559.041 695.95 558.832C694.82 558.189 694.425 556.752 695.068 555.624C695.792 554.352 696.451 553.025 697.04 551.647C697.552 550.457 698.926 549.903 700.13 550.408C701.325 550.921 701.879 552.304 701.369 553.499C700.707 555.043 699.97 556.525 699.159 557.95C698.724 558.712 697.929 559.14 697.111 559.14ZM559.777 559.117L557.732 559.105C556.434 559.091 555.39 558.027 555.404 556.727C555.418 555.438 556.468 554.399 557.757 554.399C557.764 554.399 557.773 554.399 557.782 554.399L559.777 554.411L562.431 554.393C563.741 554.368 564.798 555.418 564.814 556.716C564.83 558.016 563.789 559.083 562.491 559.099L559.777 559.117ZM576.551 558.319C575.363 558.319 574.343 557.423 574.214 556.217C574.076 554.925 575.011 553.765 576.303 553.627C577.709 553.475 579.076 553.303 580.405 553.106C581.119 553.005 581.822 553.219 582.344 553.701C583.309 554.572 583.553 556.21 582.682 557.175C581.991 557.945 581.005 558.239 580.155 557.897C579.061 558.048 577.945 558.184 576.804 558.306C576.718 558.315 576.633 558.319 576.551 558.319ZM543.67 558.288C543.583 558.288 543.495 558.283 543.408 558.274C541.786 558.093 540.2 557.883 538.649 557.647C537.362 557.452 536.48 556.252 536.678 554.968C536.873 553.683 538.056 552.79 539.357 552.996C540.848 553.224 542.369 553.423 543.927 553.596C545.219 553.741 546.149 554.904 546.007 556.195C545.871 557.398 544.853 558.288 543.67 558.288ZM525.216 554.68C525.009 554.68 524.798 554.653 524.591 554.595C523.04 554.17 521.505 553.715 519.991 553.235C518.752 552.842 518.068 551.519 518.461 550.28C518.854 549.044 520.175 548.35 521.416 548.749C522.871 549.211 524.346 549.647 525.837 550.059C527.092 550.404 527.827 551.697 527.483 552.95C527.194 553.995 526.248 554.68 525.216 554.68ZM507.534 548.278C507.208 548.278 506.874 548.209 506.555 548.064C505.089 547.393 503.648 546.693 502.228 545.964C501.072 545.371 500.617 543.953 501.21 542.796C501.803 541.642 503.221 541.183 504.379 541.778C505.734 542.474 507.116 543.143 508.517 543.786C509.698 544.328 510.218 545.726 509.675 546.906C509.281 547.768 508.426 548.278 507.534 548.278ZM702.589 541.286C702.527 541.286 702.463 541.284 702.398 541.279C701.102 541.173 700.137 540.04 700.24 538.744C700.325 537.692 700.367 536.639 700.369 535.596L700.348 534.314C700.302 533.016 701.317 531.927 702.616 531.881C703.813 531.817 705.006 532.848 705.05 534.149C705.068 534.632 705.075 535.116 705.075 535.602C705.072 536.774 705.027 537.946 704.932 539.122C704.834 540.353 703.802 541.286 702.589 541.286ZM491.232 538.933C490.763 538.933 490.288 538.793 489.874 538.501C488.562 537.573 487.275 536.615 486.011 535.629C484.986 534.829 484.805 533.352 485.604 532.327C486.399 531.3 487.876 531.116 488.906 531.92C490.11 532.86 491.342 533.772 492.594 534.659C493.653 535.41 493.906 536.879 493.155 537.94C492.695 538.588 491.969 538.933 491.232 538.933ZM427.635 534.574C427.587 534.574 427.541 534.572 427.493 534.569C425.922 534.475 424.32 534.337 422.686 534.156C421.394 534.011 420.464 532.848 420.606 531.557C420.751 530.268 421.902 529.349 423.205 529.477C424.756 529.649 426.28 529.783 427.773 529.873C429.071 529.951 430.059 531.065 429.981 532.361C429.908 533.611 428.869 534.574 427.635 534.574ZM441.723 534.179C440.554 534.179 439.54 533.308 439.391 532.118C439.23 530.829 440.144 529.653 441.434 529.492L442.539 529.343C443.63 529.2 444.735 529.016 445.884 528.775C447.148 528.511 448.402 529.322 448.672 530.593C448.94 531.863 448.125 533.111 446.854 533.38C445.581 533.649 444.352 533.851 443.18 534.002L442.017 534.161C441.919 534.172 441.82 534.179 441.723 534.179ZM409.067 531.672C408.86 531.672 408.653 531.647 408.446 531.589C406.898 531.166 405.344 530.677 403.786 530.121C402.561 529.685 401.925 528.34 402.361 527.116C402.796 525.891 404.131 525.248 405.367 525.691C406.81 526.206 408.248 526.658 409.682 527.049C410.937 527.391 411.677 528.685 411.334 529.938C411.05 530.985 410.101 531.672 409.067 531.672ZM459.572 528.563C458.736 528.563 457.927 528.117 457.502 527.331C456.882 526.187 457.307 524.76 458.449 524.14C459.724 523.451 461.011 522.683 462.305 521.826C463.387 521.109 464.846 521.403 465.566 522.49C466.283 523.572 465.986 525.034 464.902 525.75C463.489 526.685 462.083 527.526 460.692 528.28C460.336 528.471 459.952 528.563 459.572 528.563ZM477.033 526.631C476.399 526.631 475.767 526.376 475.303 525.873C474.202 524.678 473.143 523.46 472.127 522.224C471.302 521.222 471.447 519.738 472.451 518.913C473.453 518.083 474.942 518.23 475.762 519.237C476.722 520.404 477.722 521.555 478.763 522.684C479.643 523.64 479.583 525.129 478.627 526.009C478.175 526.424 477.603 526.631 477.033 526.631ZM391.827 524.239C391.43 524.239 391.025 524.138 390.655 523.924L389.531 523.262C388.494 522.639 387.488 521.987 386.507 521.305C385.441 520.563 385.176 519.097 385.921 518.031C386.661 516.962 388.129 516.696 389.195 517.445C390.088 518.068 391.008 518.66 391.95 519.226L393.002 519.848C394.128 520.496 394.516 521.935 393.866 523.061C393.433 523.816 392.64 524.239 391.827 524.239ZM699.804 522.842C698.873 522.842 697.991 522.286 697.621 521.369L697.258 520.494C696.966 519.819 697.012 519.044 697.375 518.403C697.74 517.762 698.384 517.33 699.114 517.236C700.286 517.082 701.446 516.887 702.593 516.648C703.862 516.388 705.112 517.192 705.378 518.468C705.644 519.739 704.831 520.986 703.558 521.253C703.006 521.37 702.45 521.476 701.892 521.572C701.644 522.055 701.226 522.454 700.683 522.673C700.395 522.787 700.098 522.842 699.804 522.842ZM370.239 522.708L369.61 522.705C368.312 522.689 367.271 521.625 367.284 520.325C367.3 519.036 368.35 517.999 369.637 517.999C369.646 517.999 369.656 517.999 369.665 517.999L370.239 518.001C371.57 518.001 372.886 517.958 374.184 517.87C375.448 517.819 376.603 518.766 376.689 520.062C376.774 521.36 375.793 522.479 374.497 522.567C373.093 522.66 371.675 522.708 370.239 522.708ZM355.62 521.208C355.489 521.208 355.356 521.196 355.222 521.176L350.523 520.362C349.248 520.109 348.421 518.873 348.673 517.598C348.926 516.323 350.167 515.484 351.438 515.748L356.013 516.534C357.293 516.752 358.155 517.968 357.939 519.25C357.744 520.397 356.746 521.208 355.62 521.208ZM337.328 516.828C337.1 516.828 336.866 516.796 336.636 516.725C335.283 516.309 333.955 515.808 332.661 515.234C332.636 515.222 332.613 515.211 332.59 515.199L331.984 514.928C330.796 514.402 330.26 513.011 330.787 511.824C331.318 510.639 332.701 510.096 333.891 510.627C334.112 510.724 334.341 510.827 334.569 510.946L334.573 510.932C335.697 511.433 336.846 511.865 338.02 512.226C339.261 512.607 339.959 513.924 339.578 515.167C339.267 516.178 338.334 516.828 337.328 516.828ZM716.284 516.463C715.448 516.463 714.641 516.017 714.214 515.231C713.593 514.089 714.016 512.662 715.161 512.042C716.466 511.332 717.746 510.558 718.991 509.721C720.069 508.988 721.533 509.282 722.256 510.362C722.98 511.442 722.693 512.904 721.615 513.627C720.246 514.547 718.842 515.399 717.403 516.178C717.047 516.371 716.663 516.463 716.284 516.463ZM320.59 508.329C320.108 508.329 319.623 508.182 319.205 507.876C317.923 506.938 316.64 505.909 315.369 504.781C314.397 503.917 314.31 502.43 315.172 501.458C316.036 500.481 317.52 500.398 318.494 501.26C319.65 502.287 320.817 503.225 321.98 504.075C323.03 504.843 323.258 506.315 322.493 507.363C322.031 507.996 321.317 508.329 320.59 508.329ZM730.809 504.662C730.262 504.662 729.715 504.474 729.269 504.09C728.286 503.24 728.18 501.753 729.028 500.77C730 499.646 730.937 498.47 731.836 497.238C732.599 496.193 734.076 495.956 735.124 496.726C736.174 497.491 736.404 498.964 735.637 500.014C734.66 501.351 733.645 502.629 732.59 503.849C732.123 504.386 731.468 504.662 730.809 504.662ZM92.128 500.785C92.034 500.785 91.937 500.781 91.84 500.767C90.574 500.613 89.301 500.407 88.019 500.144L87.022 499.944C85.749 499.687 84.924 498.444 85.182 497.171C85.442 495.898 86.669 495.073 87.955 495.33L88.954 495.532C90.114 495.769 91.268 495.957 92.41 496.097C93.701 496.253 94.618 497.428 94.459 498.717C94.315 499.91 93.3 500.785 92.128 500.785ZM106.161 500.206C105.074 500.206 104.098 499.448 103.861 498.343C103.592 497.072 104.403 495.822 105.674 495.551C107.133 495.243 108.56 494.85 109.952 494.382C111.191 493.98 112.519 494.635 112.932 495.864C113.346 497.095 112.682 498.43 111.45 498.844C109.887 499.367 108.286 499.806 106.653 500.156C106.487 500.19 106.321 500.206 106.161 500.206ZM271.691 498.795C270.482 498.795 269.453 497.869 269.35 496.642C269.24 495.346 270.2 494.209 271.494 494.098C273.008 493.969 274.513 493.788 276.007 493.558C277.31 493.376 278.493 494.241 278.691 495.525C278.889 496.81 278.009 498.011 276.724 498.209C275.125 498.457 273.514 498.648 271.894 498.786C271.824 498.793 271.758 498.795 271.691 498.795ZM257.594 498.591C257.5 498.591 257.403 498.584 257.305 498.573C255.667 498.339 254.254 498.15 252.647 497.95C251.355 497.789 250.441 496.615 250.602 495.326C250.76 494.037 251.974 493.111 253.226 493.281C254.869 493.486 256.314 493.678 257.559 493.86C258.839 494.046 259.917 495.253 259.742 496.53C259.582 497.711 258.732 498.591 257.594 498.591ZM73.656 497.175C73.5 497.175 73.343 497.159 73.185 497.127L68.573 496.189C67.3 495.932 66.477 494.689 66.737 493.416C66.994 492.145 68.249 491.328 69.51 491.58L74.122 492.518C75.395 492.775 76.217 494.018 75.958 495.291C75.733 496.406 74.752 497.175 73.656 497.175ZM238.906 496.422C238.832 496.422 238.757 496.419 238.679 496.41L237.344 496.279C235.915 496.136 234.851 495.98 233.792 495.776C232.517 495.53 231.683 494.296 231.931 493.019C232.177 491.749 233.404 490.917 234.688 491.158C235.6 491.335 236.521 491.469 237.45 491.56L239.13 491.728C240.424 491.852 241.371 493 241.247 494.294C241.13 495.509 240.106 496.422 238.906 496.422ZM290.009 494.708C289.051 494.708 288.152 494.12 287.801 493.169C287.353 491.949 287.976 490.598 289.196 490.148C290.614 489.626 292.017 489.054 293.412 488.434C294.6 487.908 295.993 488.443 296.518 489.629C297.044 490.815 296.511 492.207 295.323 492.736C293.837 493.398 292.336 494.006 290.822 494.565C290.554 494.662 290.28 494.708 290.009 494.708ZM307.803 494.669C307.031 494.669 306.273 494.29 305.823 493.591C304.964 492.258 304.136 490.85 303.344 489.365C302.733 488.219 303.167 486.791 304.314 486.18C305.467 485.576 306.885 486.003 307.499 487.149C308.228 488.519 308.99 489.813 309.781 491.039C310.484 492.133 310.169 493.587 309.078 494.293C308.681 494.547 308.24 494.669 307.803 494.669ZM55.212 493.423C55.056 493.423 54.899 493.407 54.741 493.375L50.129 492.437C48.856 492.179 48.033 490.937 48.293 489.664C48.55 488.391 49.798 487.57 51.066 487.828L55.678 488.766C56.95 489.023 57.773 490.266 57.514 491.539C57.289 492.653 56.308 493.423 55.212 493.423ZM123.003 492.189C122.318 492.189 121.64 491.893 121.174 491.32C120.356 490.312 120.507 488.829 121.516 488.009C122.656 487.083 123.743 486.086 124.767 485.024C125.672 484.093 127.161 484.064 128.094 484.964C129.029 485.867 129.057 487.356 128.154 488.291C126.996 489.491 125.771 490.616 124.485 491.662C124.049 492.017 123.525 492.189 123.003 492.189ZM220.65 492.104C220.406 492.104 220.158 492.067 219.915 491.987L215.443 490.514C214.209 490.107 213.538 488.777 213.945 487.54C214.352 486.306 215.677 485.638 216.918 486.042L221.387 487.515C222.621 487.921 223.292 489.252 222.886 490.488C222.56 491.477 221.638 492.104 220.65 492.104ZM36.765 489.671C36.609 489.671 36.452 489.655 36.294 489.625L35.276 489.418C34.005 489.161 32.755 488.853 31.528 488.497C30.28 488.136 29.563 486.828 29.926 485.581C30.289 484.333 31.578 483.603 32.842 483.979C33.941 484.298 35.067 484.574 36.208 484.804L37.231 485.013C38.504 485.27 39.326 486.513 39.069 487.786C38.842 488.901 37.861 489.671 36.765 489.671ZM740.285 488.533C740.007 488.533 739.727 488.485 739.451 488.382C738.236 487.92 737.624 486.562 738.084 485.346C738.649 483.857 739.132 482.432 739.541 481.056C739.913 479.811 741.221 479.115 742.468 479.471C743.714 479.844 744.424 481.153 744.053 482.399C743.612 483.881 743.093 485.411 742.486 487.015C742.128 487.954 741.234 488.533 740.285 488.533ZM202.861 485.969C202.55 485.969 202.238 485.909 201.935 485.779C200.437 485.14 198.971 484.453 197.533 483.722C196.375 483.134 195.913 481.716 196.501 480.558C197.089 479.398 198.502 478.943 199.665 479.526C201.012 480.211 202.386 480.852 203.787 481.454C204.982 481.964 205.536 483.347 205.023 484.542C204.642 485.434 203.773 485.969 202.861 485.969ZM19.527 482.492C19.051 482.492 18.573 482.35 18.157 482.051C16.808 481.084 15.514 480.036 14.29 478.917C13.33 478.041 13.261 476.553 14.138 475.595C15.016 474.632 16.503 474.565 17.461 475.443C18.552 476.438 19.699 477.366 20.901 478.228C21.956 478.984 22.199 480.455 21.441 481.512C20.981 482.152 20.26 482.492 19.527 482.492ZM134.311 477.366C133.989 477.366 133.663 477.299 133.351 477.159C132.165 476.628 131.635 475.236 132.168 474.05C132.768 472.713 133.301 471.329 133.765 469.9C134.165 468.662 135.498 467.988 136.727 468.386C137.963 468.786 138.641 470.112 138.241 471.348C137.726 472.943 137.129 474.487 136.46 475.976C136.068 476.849 135.209 477.366 134.311 477.366ZM186.747 476.362C186.234 476.362 185.717 476.195 185.283 475.85C184.014 474.841 182.781 473.789 181.581 472.693C180.621 471.818 180.551 470.329 181.429 469.37C182.305 468.408 183.796 468.341 184.752 469.219C185.873 470.241 187.029 471.225 188.214 472.169C189.23 472.978 189.398 474.458 188.589 475.476C188.125 476.059 187.44 476.362 186.747 476.362ZM149.722 471.437C148.534 471.437 147.516 470.543 147.385 469.337C147.245 468.046 148.18 466.885 149.472 466.745C150.972 466.582 152.519 466.405 154.111 466.21C155.407 466.006 156.572 466.968 156.733 468.257C156.892 469.546 155.975 470.72 154.686 470.879C153.071 471.079 151.502 471.26 149.978 471.423C149.892 471.433 149.805 471.437 149.722 471.437ZM744.032 470.174C744.002 470.174 743.974 470.174 743.945 470.172C742.647 470.126 741.631 469.034 741.679 467.736C741.702 467.065 741.716 466.401 741.716 465.737C741.716 464.896 741.695 464.062 741.654 463.233C741.59 461.937 742.59 460.832 743.887 460.765C745.169 460.645 746.286 461.7 746.355 462.998C746.401 463.906 746.421 464.818 746.421 465.737C746.421 466.456 746.407 467.18 746.379 467.906C746.335 469.177 745.292 470.174 744.032 470.174ZM7.32301 468.396C6.47701 468.396 5.66101 467.939 5.23901 467.139C4.46001 465.661 3.768 464.161 3.164 462.644C2.682 461.437 3.27 460.068 4.478 459.588C5.673 459.108 7.052 459.694 7.534 460.902C8.079 462.267 8.701 463.616 9.402 464.946C10.008 466.095 9.567 467.517 8.416 468.124C8.068 468.308 7.69301 468.396 7.32301 468.396ZM168.238 468.219C167.224 468.219 166.289 467.562 165.984 466.541C165.612 465.298 166.318 463.986 167.563 463.611C169.027 463.173 170.459 462.685 171.862 462.152C173.087 461.695 174.435 462.306 174.897 463.519C175.356 464.735 174.743 466.093 173.53 466.554C172.021 467.124 170.483 467.648 168.914 468.119C168.688 468.187 168.461 468.219 168.238 468.219ZM741.824 453.028C741.282 453.028 740.737 452.842 740.291 452.461C739.305 451.615 739.192 450.131 740.038 449.143C740.996 448.026 741.883 446.852 742.694 445.625C743.411 444.538 744.868 444.242 745.955 444.961C747.037 445.675 747.336 447.137 746.619 448.221C745.702 449.609 744.696 450.939 743.609 452.208C743.145 452.75 742.486 453.028 741.824 453.028ZM2.383 450.395C1.126 450.395 0.0830037 449.402 0.0350037 448.134C0.0120037 447.575 0 447.012 0 446.452C0 445.353 0.0440054 444.253 0.129005 443.157C0.230005 441.861 1.31401 440.864 2.65601 440.993C3.95201 441.094 4.922 442.224 4.821 443.52C4.745 444.497 4.706 445.473 4.706 446.452C4.706 446.953 4.717 447.452 4.736 447.95C4.787 449.248 3.77601 450.342 2.47701 450.392C2.44501 450.395 2.415 450.395 2.383 450.395ZM750.075 436.328C749.912 436.328 749.746 436.312 749.581 436.275C748.31 436.004 747.499 434.754 747.772 433.483L748.59 428.945C748.808 427.665 750.004 426.815 751.306 427.024C752.586 427.242 753.448 428.458 753.227 429.74L752.372 434.467C752.137 435.571 751.162 436.328 750.075 436.328ZM5.965 432.086C5.641 432.086 5.312 432.019 4.998 431.877C3.814 431.342 3.28801 429.947 3.82401 428.764C4.51101 427.247 5.283 425.777 6.138 424.359C6.806 423.245 8.249 422.884 9.366 423.557C10.481 424.225 10.839 425.673 10.168 426.785C9.41 428.047 8.72 429.356 8.111 430.703C7.718 431.571 6.861 432.086 5.965 432.086ZM753.012 417.736C752.91 417.736 752.807 417.729 752.701 417.715C751.414 417.545 750.507 416.364 750.677 415.075C750.877 413.549 751.073 412.001 751.256 410.436C751.41 409.147 752.554 408.205 753.869 408.375C755.161 408.526 756.082 409.696 755.93 410.987C755.742 412.575 755.546 414.142 755.342 415.691C755.186 416.875 754.175 417.736 753.012 417.736ZM17.374 417.325C16.689 417.325 16.012 417.029 15.547 416.456C14.727 415.45 14.878 413.968 15.885 413.147L16.326 412.797L16.818 410.387C17.075 409.114 18.325 408.287 19.591 408.551C20.864 408.808 21.686 410.051 21.427 411.324L20.765 414.578C20.653 415.134 20.345 415.63 19.894 415.975L18.857 416.795C18.421 417.152 17.896 417.325 17.374 417.325ZM21.939 399.377C21.783 399.377 21.626 399.36 21.468 399.329C20.195 399.072 19.372 397.829 19.632 396.556L20.57 391.944C20.827 390.669 22.082 389.855 23.343 390.108C24.616 390.365 25.439 391.609 25.179 392.881L24.241 397.493C24.017 398.607 23.036 399.377 21.939 399.377ZM754.979 399.018C754.917 399.018 754.855 399.016 754.793 399.011C753.497 398.91 752.529 397.777 752.63 396.481C752.752 394.939 752.864 393.383 752.968 391.814C753.055 390.518 754.186 389.569 755.473 389.622C756.771 389.709 757.75 390.83 757.665 392.126C757.557 393.714 757.444 395.288 757.323 396.848C757.226 398.083 756.194 399.018 754.979 399.018ZM25.689 380.93C25.533 380.93 25.376 380.914 25.218 380.882C23.943 380.622 23.122 379.381 23.382 378.109L24.322 373.497C24.582 372.222 25.82 371.401 27.095 371.661C28.37 371.921 29.191 373.162 28.931 374.434L27.991 379.046C27.767 380.163 26.786 380.93 25.689 380.93ZM755.942 380.218C755.923 380.218 755.905 380.218 755.887 380.218C754.586 380.186 753.559 379.108 753.589 377.81C753.626 376.264 753.651 374.706 753.665 373.141C753.677 371.849 754.727 370.809 756.018 370.809C756.025 370.809 756.032 370.809 756.039 370.809C757.337 370.821 758.383 371.882 758.371 373.183C758.357 374.771 758.332 376.352 758.295 377.921C758.265 379.2 757.217 380.218 755.942 380.218ZM491.147 379.877C490.991 379.877 490.834 379.861 490.676 379.829L486.064 378.891C484.791 378.634 483.969 377.391 484.228 376.118C484.485 374.845 485.727 374.034 487.001 374.282L491.613 375.22C492.886 375.477 493.709 376.721 493.449 377.993C493.224 379.108 492.243 379.877 491.147 379.877ZM472.688 376.188C472.573 376.188 472.454 376.179 472.336 376.163C470.843 375.938 469.36 375.791 467.897 375.724C466.599 375.665 465.594 374.564 465.654 373.266C465.714 371.968 466.821 370.936 468.112 371.023C469.737 371.099 471.38 371.26 473.034 371.508C474.319 371.701 475.205 372.901 475.013 374.185C474.836 375.351 473.835 376.188 472.688 376.188ZM454.529 372.628C454.308 372.628 454.081 372.596 453.858 372.529C452.555 372.143 451.215 371.807 449.839 371.525C448.569 371.263 447.571 369.985 447.831 368.714C448.093 367.444 449.182 366.598 450.428 366.842C452.296 367.226 453.769 367.593 455.2 368.021C456.446 368.391 457.156 369.701 456.783 370.946C456.48 371.969 455.545 372.628 454.529 372.628ZM495.333 370.356C494.044 370.356 492.994 369.317 492.98 368.026C492.964 366.491 492.914 364.961 492.826 363.438C492.75 362.14 493.743 361.027 495.038 360.954C496.332 360.871 497.449 361.869 497.522 363.167C497.614 364.764 497.669 366.368 497.685 367.981C497.699 369.279 496.656 370.343 495.355 370.357C495.349 370.356 495.34 370.356 495.333 370.356ZM436.128 368.688C435.972 368.688 435.815 368.672 435.657 368.64L431.046 367.702C429.773 367.445 428.95 366.202 429.21 364.929C429.467 363.654 430.717 362.838 431.983 363.093L436.594 364.031C437.867 364.288 438.69 365.532 438.43 366.804C438.205 367.918 437.224 368.688 436.128 368.688ZM417.684 364.938C417.528 364.938 417.371 364.922 417.213 364.89L412.602 363.95C411.327 363.69 410.506 362.45 410.766 361.177C411.023 359.902 412.264 359.081 413.539 359.341L418.15 360.281C419.425 360.541 420.246 361.782 419.986 363.054C419.758 364.17 418.78 364.938 417.684 364.938ZM28.874 362.568C28.033 362.568 27.22 362.115 26.794 361.322C26.013 359.852 25.317 358.344 24.713 356.802C24.24 355.591 24.837 354.226 26.048 353.753C27.252 353.273 28.624 353.877 29.097 355.088C29.632 356.46 30.25 357.802 30.949 359.107C31.56 360.253 31.126 361.681 29.979 362.292C29.626 362.479 29.247 362.568 28.874 362.568ZM399.196 361.422C399.118 361.422 399.04 361.417 398.962 361.41C397.53 361.268 396.094 361.199 394.647 361.199C394.314 361.199 393.985 361.128 393.682 360.992C392.496 360.459 391.899 359.036 392.432 357.851C392.903 356.807 393.999 356.249 395.042 356.495C396.51 356.507 397.97 356.582 399.426 356.727C400.72 356.855 401.664 358.007 401.535 359.3C401.416 360.514 400.391 361.422 399.196 361.422ZM755.822 361.403C754.563 361.403 753.52 360.406 753.473 359.137C753.416 357.588 753.347 356.033 753.264 354.475C753.198 353.177 754.192 352.069 755.491 352C756.716 351.878 757.897 352.928 757.966 354.227C758.049 355.812 758.118 357.391 758.176 358.962C758.224 360.26 757.211 361.352 755.912 361.4C755.882 361.403 755.852 361.403 755.822 361.403ZM380.915 357.458C380.759 357.458 380.602 357.442 380.444 357.41L375.832 356.472C374.559 356.215 373.736 354.972 373.996 353.699C374.253 352.426 375.506 351.604 376.769 351.863L381.381 352.801C382.654 353.058 383.477 354.301 383.217 355.574C382.992 356.689 382.01 357.458 380.915 357.458ZM362.468 353.706C362.312 353.706 362.155 353.69 361.997 353.658L357.385 352.72C356.112 352.463 355.29 351.22 355.549 349.947C355.809 348.674 357.052 347.846 358.322 348.111L362.934 349.049C364.207 349.306 365.03 350.549 364.77 351.822C364.545 352.936 363.564 353.706 362.468 353.706ZM493.341 351.672C492.247 351.672 491.268 350.907 491.039 349.795C490.728 348.29 490.386 346.801 490.009 345.321C489.687 344.062 490.448 342.779 491.707 342.46C492.964 342.134 494.246 342.897 494.568 344.158C494.963 345.707 495.324 347.269 495.648 348.843C495.91 350.116 495.089 351.361 493.819 351.623C493.658 351.656 493.497 351.672 493.341 351.672ZM344.024 349.956C343.868 349.956 343.711 349.94 343.553 349.908L338.941 348.968C337.666 348.708 336.846 347.467 337.105 346.195C337.365 344.92 338.617 344.109 339.878 344.359L344.49 345.299C345.765 345.558 346.586 346.799 346.326 348.072C346.098 349.189 345.119 349.956 344.024 349.956ZM307.711 347.704C307.258 347.704 306.799 347.573 306.394 347.299C305.137 346.449 303.848 345.629 302.534 344.836C301.42 344.167 301.061 342.72 301.732 341.608C302.401 340.491 303.846 340.13 304.961 340.806C306.349 341.64 307.707 342.506 309.033 343.402C310.108 344.131 310.391 345.592 309.662 346.67C309.207 347.341 308.467 347.704 307.711 347.704ZM320.749 347.529C319.582 347.529 318.568 346.66 318.417 345.472C318.254 344.183 319.167 343.004 320.456 342.841C322.082 342.634 323.735 342.519 325.41 342.494C326.773 342.54 327.779 343.515 327.798 344.813C327.816 346.113 326.777 347.182 325.48 347.2C323.98 347.221 322.502 347.326 321.05 347.51C320.947 347.523 320.848 347.529 320.749 347.529ZM24.198 344.522C22.918 344.522 21.868 343.495 21.845 342.211L21.838 341.393C21.835 340.023 21.9 338.64 22.033 337.247C22.153 335.954 23.285 334.988 24.595 335.126C25.888 335.248 26.84 336.394 26.716 337.688C26.601 338.929 26.542 340.165 26.544 341.387L26.551 342.127C26.574 343.425 25.54 344.499 24.239 344.522C24.226 344.522 24.212 344.522 24.198 344.522ZM754.531 342.633C753.339 342.633 752.316 341.73 752.192 340.519C752.036 338.977 751.865 337.433 751.677 335.887C751.523 334.596 752.442 333.424 753.731 333.268C755.036 333.119 756.194 334.035 756.351 335.322C756.539 336.901 756.714 338.472 756.875 340.042C757.006 341.336 756.064 342.489 754.773 342.622C754.692 342.628 754.609 342.633 754.531 342.633ZM293.748 339.917C293.461 339.917 293.169 339.864 292.884 339.754C291.676 339.276 291.082 337.909 291.558 336.7C292.148 335.206 292.762 333.731 293.398 332.277C293.917 331.085 295.303 330.528 296.495 331.064C297.685 331.583 298.23 332.971 297.708 334.161C297.094 335.565 296.504 336.985 295.936 338.428C295.572 339.352 294.685 339.917 293.748 339.917ZM487.838 333.715C486.914 333.715 486.039 333.168 485.664 332.26C485.078 330.845 484.46 329.446 483.81 328.062C483.259 326.885 483.764 325.484 484.938 324.93C486.112 324.376 487.514 324.882 488.07 326.058C488.752 327.51 489.398 328.979 490.011 330.463C490.507 331.662 489.938 333.039 488.736 333.535C488.442 333.658 488.139 333.715 487.838 333.715ZM27.927 326.224C27.606 326.224 27.28 326.158 26.967 326.018C25.781 325.487 25.25 324.095 25.783 322.909C26.467 321.381 27.233 319.906 28.076 318.492C28.742 317.375 30.185 317.01 31.303 317.674C32.419 318.34 32.785 319.785 32.121 320.9C31.37 322.161 30.687 323.471 30.076 324.834C29.685 325.707 28.828 326.224 27.927 326.224ZM751.958 323.998C750.836 323.998 749.844 323.196 749.644 322.054C749.375 320.528 749.092 319 748.794 317.47C748.545 316.195 749.377 314.958 750.653 314.71C751.91 314.455 753.164 315.292 753.412 316.569C753.716 318.127 754.003 319.683 754.276 321.236C754.503 322.516 753.648 323.736 752.369 323.961C752.231 323.986 752.093 323.998 751.958 323.998ZM301.958 323.005C301.551 323.005 301.143 322.9 300.766 322.679C299.647 322.019 299.275 320.579 299.934 319.457C300.75 318.074 301.589 316.711 302.45 315.372C303.156 314.276 304.613 313.971 305.704 314.669C306.795 315.375 307.11 316.829 306.407 317.923C305.577 319.207 304.771 320.517 303.988 321.847C303.55 322.591 302.764 323.005 301.958 323.005ZM479.071 317.095C478.304 317.095 477.55 316.721 477.1 316.029C476.261 314.747 475.395 313.483 474.499 312.237C473.741 311.185 473.98 309.714 475.034 308.954C476.093 308.2 477.559 308.437 478.318 309.489C479.256 310.79 480.163 312.113 481.039 313.455C481.751 314.541 481.443 316.001 480.356 316.711C479.959 316.971 479.513 317.095 479.071 317.095ZM36.79 310.808C35.827 310.808 34.922 310.211 34.577 309.253C34.012 307.688 33.543 306.073 33.182 304.448C32.902 303.179 33.701 301.923 34.97 301.64C36.229 301.373 37.495 302.159 37.778 303.428C38.095 304.862 38.504 306.273 39.003 307.658C39.444 308.88 38.81 310.229 37.587 310.668C37.323 310.765 37.054 310.808 36.79 310.808ZM312.801 307.651C312.266 307.651 311.728 307.469 311.287 307.097C310.292 306.261 310.164 304.776 311.002 303.784C312.038 302.552 313.097 301.348 314.18 300.174C315.067 299.22 316.551 299.16 317.505 300.038C318.461 300.92 318.521 302.407 317.641 303.363C316.605 304.487 315.591 305.635 314.601 306.812C314.136 307.366 313.47 307.651 312.801 307.651ZM747.994 305.608C746.946 305.608 745.993 304.905 745.717 303.843C745.331 302.343 744.929 300.842 744.511 299.342C744.164 298.089 744.897 296.794 746.149 296.445C747.399 296.105 748.697 296.831 749.047 298.083C749.47 299.611 749.881 301.139 750.276 302.667C750.6 303.926 749.841 305.209 748.585 305.535C748.387 305.585 748.189 305.608 747.994 305.608ZM467.392 302.366C466.774 302.366 466.156 302.122 465.694 301.642C464.634 300.537 463.548 299.452 462.436 298.39C461.496 297.494 461.462 296.005 462.358 295.063C463.259 294.127 464.745 294.093 465.685 294.985C466.847 296.092 467.98 297.228 469.09 298.383C469.988 299.321 469.959 300.809 469.021 301.71C468.564 302.148 467.978 302.366 467.392 302.366ZM326.151 294.409C325.473 294.409 324.802 294.119 324.336 293.556C323.509 292.554 323.649 291.072 324.649 290.243C325.887 289.218 327.149 288.223 328.431 287.258C329.474 286.477 330.949 286.688 331.726 287.722C332.507 288.761 332.3 290.236 331.262 291.017C330.035 291.94 328.833 292.889 327.65 293.869C327.21 294.232 326.677 294.409 326.151 294.409ZM35.046 292.263C34.927 292.263 34.805 292.254 34.683 292.236C33.398 292.036 32.518 290.832 32.718 289.55C32.833 288.812 32.966 288.079 33.122 287.344L33.674 284.791C33.954 283.523 35.195 282.716 36.48 283.001C37.749 283.281 38.55 284.536 38.27 285.807L37.727 288.321C37.589 288.971 37.47 289.621 37.369 290.272C37.188 291.433 36.186 292.263 35.046 292.263ZM453.198 290.043C452.722 290.043 452.242 289.901 451.826 289.6C450.583 288.706 449.314 287.842 448.028 287.008C446.937 286.302 446.626 284.846 447.334 283.754C448.042 282.665 449.498 282.35 450.587 283.06C451.938 283.935 453.266 284.841 454.574 285.781C455.629 286.539 455.87 288.01 455.109 289.065C454.651 289.703 453.931 290.043 453.198 290.043ZM742.544 287.601C741.569 287.601 740.66 286.992 740.322 286.022L739.678 284.211C739.361 283.331 739.053 282.442 738.757 281.548C738.348 280.314 739.019 278.981 740.251 278.574C741.497 278.167 742.815 278.836 743.224 280.068C743.507 280.925 743.801 281.773 744.104 282.612L744.766 284.473C745.193 285.7 744.545 287.042 743.318 287.47C743.06 287.559 742.801 287.601 742.544 287.601ZM341.675 283.814C340.848 283.814 340.044 283.377 339.614 282.603C338.985 281.465 339.396 280.034 340.531 279.402C341.937 278.626 343.36 277.879 344.8 277.169C345.968 276.592 347.376 277.073 347.95 278.238C348.527 279.402 348.047 280.814 346.882 281.388C345.51 282.066 344.152 282.776 342.815 283.52C342.452 283.72 342.061 283.814 341.675 283.814ZM436.955 280.567C436.624 280.567 436.289 280.498 435.969 280.349C434.579 279.706 433.171 279.095 431.748 278.516C430.544 278.027 429.962 276.652 430.452 275.451C430.944 274.243 432.318 273.67 433.517 274.155C435.013 274.762 436.486 275.405 437.945 276.081C439.124 276.625 439.638 278.025 439.091 279.203C438.695 280.062 437.844 280.567 436.955 280.567ZM358.883 276.282C357.895 276.282 356.976 275.657 356.65 274.669C356.241 273.435 356.909 272.105 358.143 271.696C359.662 271.193 361.195 270.726 362.736 270.29C363.991 269.95 365.291 270.669 365.641 271.917C365.993 273.169 365.264 274.467 364.014 274.821C362.536 275.235 361.073 275.683 359.623 276.163C359.377 276.243 359.129 276.282 358.883 276.282ZM419.228 274.319C419.04 274.319 418.847 274.296 418.656 274.25C417.3 273.91 415.931 273.602 414.55 273.322C413.279 273.062 412.264 271.787 412.519 270.516C412.772 269.241 413.824 268.386 415.086 268.629L415.472 268.705C416.938 269.001 418.372 269.328 419.797 269.682C421.058 269.997 421.823 271.274 421.511 272.536C421.241 273.605 420.282 274.319 419.228 274.319ZM39.338 273.945C39.133 273.945 38.927 273.92 38.722 273.864C37.467 273.524 36.725 272.233 37.063 270.978C37.477 269.452 37.899 267.929 38.336 266.408C38.692 265.158 40.009 264.441 41.245 264.795C42.492 265.151 43.217 266.454 42.86 267.704C42.43 269.202 42.012 270.703 41.608 272.205C41.324 273.255 40.375 273.945 39.338 273.945ZM377.183 272.038C376.025 272.038 375.016 271.185 374.855 270.007C374.676 268.72 375.577 267.532 376.863 267.355C378.444 267.137 380.034 266.953 381.638 266.801C382.959 266.684 384.08 267.633 384.202 268.924C384.321 270.22 383.372 271.366 382.079 271.488C380.544 271.631 379.018 271.805 377.506 272.014C377.399 272.031 377.289 272.038 377.183 272.038ZM400.657 271.364C400.597 271.364 400.535 271.362 400.473 271.357C398.933 271.237 397.401 271.152 395.875 271.097C394.577 271.051 393.561 269.962 393.607 268.664C393.653 267.363 394.866 266.338 396.04 266.396C397.63 266.451 399.232 266.541 400.836 266.665C402.132 266.766 403.102 267.897 403.001 269.192C402.904 270.427 401.875 271.364 400.657 271.364ZM737.167 269.574C736.106 269.574 735.143 268.85 734.883 267.775C734.515 266.252 734.154 264.712 733.803 263.159C733.516 261.893 734.311 260.631 735.579 260.344C736.836 260.064 738.106 260.849 738.394 262.12C738.741 263.651 739.095 265.167 739.456 266.667C739.762 267.931 738.985 269.204 737.724 269.507C737.536 269.554 737.35 269.574 737.167 269.574ZM44.802 255.935C44.552 255.935 44.299 255.896 44.049 255.811C42.818 255.395 42.158 254.058 42.574 252.829C43.082 251.331 43.599 249.835 44.13 248.341C44.564 247.116 45.906 246.473 47.135 246.912C48.36 247.347 48.999 248.693 48.564 249.918C48.043 251.388 47.53 252.861 47.031 254.336C46.698 255.316 45.784 255.935 44.802 255.935ZM733.118 251.199C732.031 251.199 731.055 250.443 730.82 249.338L729.827 244.749C729.551 243.478 730.356 242.226 731.626 241.948C732.887 241.663 734.147 242.479 734.427 243.747L735.42 248.354C735.693 249.625 734.882 250.875 733.612 251.146C733.446 251.183 733.281 251.199 733.118 251.199ZM51.374 238.285C51.078 238.285 50.777 238.23 50.487 238.111C49.283 237.621 48.704 236.247 49.195 235.046C49.793 233.58 50.401 232.116 51.022 230.657C51.528 229.46 52.92 228.906 54.106 229.41C55.303 229.92 55.861 231.301 55.354 232.496C54.741 233.936 54.141 235.377 53.552 236.82C53.18 237.734 52.302 238.285 51.374 238.285ZM728.883 232.86C727.835 232.86 726.88 232.154 726.606 231.093C726.222 229.602 725.822 228.101 725.402 226.592C725.055 225.34 725.788 224.044 727.04 223.695C728.29 223.36 729.588 224.081 729.938 225.333C730.363 226.871 730.772 228.398 731.165 229.922C731.489 231.179 730.731 232.464 729.472 232.787C729.276 232.837 729.078 232.86 728.883 232.86ZM58.989 221.061C58.651 221.061 58.306 220.987 57.98 220.831C56.806 220.273 56.307 218.869 56.868 217.697C57.548 216.268 58.242 214.84 58.95 213.416C59.527 212.255 60.937 211.77 62.102 212.355C63.267 212.932 63.743 214.342 63.163 215.507C62.469 216.909 61.785 218.313 61.114 219.719C60.712 220.567 59.869 221.061 58.989 221.061ZM723.355 214.88C722.411 214.88 721.519 214.308 721.158 213.373C720.604 211.933 720.02 210.515 719.41 209.118C718.888 207.928 719.433 206.54 720.623 206.02C721.815 205.494 723.201 206.043 723.72 207.233C724.359 208.694 724.97 210.177 725.552 211.682C726.018 212.895 725.414 214.255 724.2 214.724C723.922 214.83 723.637 214.88 723.355 214.88ZM67.59 204.303C67.206 204.303 66.818 204.209 66.459 204.011C65.319 203.386 64.904 201.956 65.531 200.817C66.289 199.436 67.059 198.055 67.843 196.679C68.482 195.549 69.911 195.149 71.051 195.797C72.181 196.438 72.576 197.874 71.933 199.005C71.163 200.363 70.403 201.721 69.654 203.083C69.226 203.862 68.421 204.303 67.59 204.303ZM715.163 197.952C714.352 197.952 713.564 197.534 713.127 196.78C712.346 195.438 711.548 194.117 710.732 192.816C710.043 191.715 710.376 190.263 711.477 189.572C712.578 188.878 714.025 189.214 714.722 190.316C715.565 191.663 716.39 193.03 717.194 194.418C717.849 195.542 717.465 196.981 716.341 197.633C715.969 197.849 715.565 197.952 715.163 197.952ZM77.105 188.067C76.68 188.067 76.25 187.952 75.864 187.711C74.761 187.024 74.424 185.574 75.111 184.471C75.943 183.134 76.786 181.799 77.641 180.468C78.337 179.367 79.794 179.051 80.89 179.756C81.986 180.457 82.303 181.911 81.602 183.005C80.761 184.322 79.927 185.638 79.105 186.957C78.658 187.674 77.891 188.067 77.105 188.067ZM704.772 182.263C704.048 182.263 703.334 181.93 702.874 181.303C701.946 180.042 701.011 178.796 700.076 177.565C699.29 176.531 699.492 175.053 700.528 174.268C701.562 173.487 703.035 173.686 703.826 174.721C704.775 175.971 705.723 177.235 706.666 178.519C707.436 179.567 707.21 181.037 706.163 181.807C705.744 182.113 705.255 182.263 704.772 182.263ZM87.465 172.355C87.001 172.355 86.532 172.217 86.121 171.932C85.055 171.19 84.795 169.722 85.537 168.655C86.435 167.366 87.348 166.075 88.267 164.79C89.023 163.735 90.494 163.489 91.551 164.246C92.608 165.004 92.851 166.473 92.095 167.529C91.185 168.8 90.286 170.073 89.397 171.348C88.941 172.003 88.21 172.355 87.465 172.355ZM691.369 166.502L693.219 165.047L691.342 166.465L688.44 162.837C687.631 161.821 687.797 160.341 688.814 159.53C689.832 158.719 691.309 158.887 692.121 159.905L694.979 163.483L691.369 166.502ZM98.601 157.185C98.1 157.185 97.592 157.024 97.165 156.693C96.136 155.898 95.947 154.42 96.742 153.394C97.702 152.151 98.672 150.908 99.651 149.667C100.46 148.656 101.937 148.474 102.958 149.279C103.976 150.085 104.15 151.565 103.346 152.585C102.376 153.812 101.416 155.042 100.465 156.271C100 156.87 99.304 157.185 98.601 157.185ZM681.486 152.366C680.845 152.366 680.239 152.083 679.818 151.484C679.816 151.481 679.554 151.109 679.552 151.107L677.125 147.589C676.392 146.516 676.665 145.052 677.736 144.317C678.816 143.589 680.275 143.86 681.008 144.928L683.414 148.419C684.154 149.482 684.023 151.13 682.959 151.875C682.498 152.199 681.982 152.366 681.486 152.366ZM110.442 142.56C109.902 142.56 109.362 142.376 108.919 141.999C107.928 141.158 107.807 139.674 108.65 138.684L111.727 135.095C112.582 134.114 114.064 134.008 115.047 134.859C116.028 135.709 116.134 137.195 115.284 138.179L112.235 141.731C111.77 142.277 111.108 142.56 110.442 142.56ZM671.135 136.937C670.384 136.937 669.646 136.579 669.189 135.91L666.533 132.047C665.793 130.981 666.06 129.515 667.128 128.773C668.189 128.029 669.66 128.297 670.402 129.368L673.076 133.258C673.809 134.331 673.531 135.795 672.458 136.528C672.054 136.803 671.592 136.937 671.135 136.937ZM122.927 128.474C122.355 128.474 121.781 128.268 121.328 127.847C120.374 126.965 120.317 125.475 121.201 124.522L124.427 121.069C125.321 120.127 126.808 120.085 127.755 120.972C128.699 121.864 128.743 123.355 127.851 124.299L124.652 127.72C124.192 128.221 123.559 128.474 122.927 128.474ZM660.2 121.624C659.488 121.624 658.787 121.305 658.322 120.693C657.389 119.464 656.44 118.239 655.473 117.012C654.666 115.992 654.839 114.512 655.859 113.707C656.886 112.903 658.361 113.075 659.163 114.093C660.154 115.343 661.121 116.596 662.072 117.847C662.858 118.881 662.656 120.359 661.619 121.145C661.194 121.468 660.696 121.624 660.2 121.624ZM135.988 114.926C135.384 114.926 134.781 114.694 134.32 114.234C133.403 113.313 133.408 111.821 134.327 110.904L137.689 107.584C138.622 106.676 140.108 106.695 141.018 107.619C141.926 108.547 141.912 110.038 140.983 110.949L137.649 114.242C137.19 114.699 136.588 114.926 135.988 114.926ZM648.18 107.153C647.544 107.153 646.912 106.896 646.447 106.39C645.409 105.262 644.349 104.138 643.263 103.019C642.355 102.086 642.378 100.597 643.309 99.692C644.24 98.784 645.733 98.81 646.636 99.738C647.755 100.889 648.847 102.045 649.912 103.21C650.792 104.166 650.728 105.655 649.77 106.533C649.319 106.948 648.75 107.153 648.18 107.153ZM149.57 101.896C148.938 101.896 148.306 101.641 147.842 101.14C146.96 100.186 147.02 98.698 147.973 97.815L151.459 94.624C152.419 93.753 153.911 93.822 154.782 94.785C155.655 95.748 155.584 97.234 154.621 98.108L151.168 101.272C150.714 101.688 150.143 101.896 149.57 101.896ZM634.699 94.03C634.147 94.03 633.596 93.84 633.15 93.449C631.983 92.427 630.804 91.418 629.616 90.423C628.619 89.589 628.488 88.105 629.322 87.109C630.154 86.119 631.645 85.983 632.635 86.815C633.85 87.833 635.057 88.864 636.247 89.905C637.226 90.762 637.325 92.249 636.47 93.225C636.004 93.759 635.354 94.03 634.699 94.03ZM163.619 89.372C162.959 89.372 162.3 89.094 161.836 88.554C160.988 87.568 161.098 86.084 162.084 85.236L165.68 82.169C166.673 81.328 168.157 81.457 168.995 82.447C169.834 83.44 169.71 84.924 168.717 85.763L165.153 88.803C164.711 89.186 164.164 89.372 163.619 89.372ZM620.023 82.245C619.536 82.245 619.046 82.096 618.624 81.783C617.372 80.852 616.112 79.936 614.851 79.028C613.796 78.27 613.557 76.799 614.316 75.744C615.072 74.687 616.545 74.451 617.6 75.209C618.88 76.13 620.157 77.06 621.428 78C622.471 78.774 622.689 80.25 621.917 81.293C621.454 81.916 620.742 82.245 620.023 82.245ZM178.093 77.341C177.403 77.341 176.721 77.04 176.257 76.464C175.443 75.451 175.605 73.968 176.615 73.155L180.31 70.21C181.332 69.401 182.813 69.578 183.614 70.596C184.421 71.614 184.248 73.094 183.228 73.9L179.565 76.823C179.129 77.171 178.61 77.341 178.093 77.341ZM604.589 71.473C604.143 71.473 603.693 71.347 603.293 71.082L599.373 68.515C598.284 67.81 597.971 66.353 598.679 65.262C599.385 64.175 600.842 63.856 601.933 64.568L605.89 67.157C606.974 67.874 607.271 69.335 606.554 70.418C606.1 71.103 605.351 71.473 604.589 71.473ZM192.976 65.818C192.25 65.818 191.533 65.483 191.074 64.853C190.306 63.803 190.536 62.33 191.586 61.565C192.866 60.632 194.152 59.706 195.451 58.792C196.515 58.043 197.979 58.298 198.73 59.359C199.479 60.42 199.224 61.889 198.162 62.638C196.887 63.538 195.619 64.446 194.362 65.365C193.943 65.67 193.456 65.818 192.976 65.818ZM588.711 61.353C588.288 61.353 587.861 61.24 587.473 60.999L583.475 58.531C582.367 57.849 582.025 56.401 582.705 55.294C583.388 54.184 584.833 53.842 585.943 54.524L589.953 57.001C591.058 57.685 591.398 59.136 590.713 60.239C590.269 60.958 589.499 61.353 588.711 61.353ZM208.562 55.241C207.781 55.241 207.016 54.852 206.57 54.142C205.876 53.044 206.207 51.589 207.305 50.897C208.647 50.052 209.993 49.217 211.351 48.393C212.463 47.722 213.911 48.074 214.584 49.181C215.26 50.293 214.906 51.741 213.796 52.414C212.461 53.225 211.133 54.045 209.814 54.877C209.423 55.124 208.991 55.241 208.562 55.241ZM572.67 51.5C572.254 51.5 571.831 51.39 571.447 51.158C570.123 50.351 568.788 49.556 567.447 48.78C566.323 48.13 565.937 46.692 566.59 45.566C567.24 44.442 568.674 44.049 569.804 44.709C571.176 45.504 572.541 46.313 573.897 47.138C575.006 47.816 575.358 49.264 574.683 50.373C574.239 51.098 573.465 51.5 572.67 51.5ZM224.821 45.726C223.985 45.726 223.175 45.281 222.751 44.495C222.13 43.353 222.556 41.926 223.698 41.306C225.088 40.55 226.488 39.806 227.894 39.071C229.052 38.467 230.47 38.912 231.069 40.063C231.671 41.217 231.228 42.637 230.076 43.239C228.688 43.965 227.312 44.7 225.94 45.443C225.584 45.634 225.2 45.726 224.821 45.726ZM556.19 42.41C555.838 42.41 555.48 42.332 555.142 42.162C553.749 41.468 552.35 40.788 550.946 40.117C549.772 39.559 549.273 38.155 549.834 36.983C550.39 35.809 551.789 35.308 552.968 35.871C554.4 36.551 555.822 37.245 557.242 37.952C558.405 38.531 558.878 39.944 558.297 41.107C557.886 41.932 557.054 42.41 556.19 42.41ZM241.647 37.249C240.76 37.249 239.912 36.748 239.512 35.891C238.963 34.715 239.47 33.313 240.65 32.764C242.084 32.096 243.525 31.436 244.972 30.786C246.158 30.264 247.553 30.786 248.081 31.972C248.614 33.158 248.083 34.55 246.897 35.083C245.472 35.719 244.05 36.37 242.639 37.029C242.318 37.178 241.981 37.249 241.647 37.249ZM539.051 34.625C538.75 34.625 538.444 34.568 538.15 34.446C536.71 33.849 535.264 33.267 533.819 32.698C532.61 32.22 532.017 30.853 532.493 29.644C532.971 28.438 534.336 27.847 535.547 28.318C537.016 28.897 538.483 29.492 539.952 30.099C541.151 30.595 541.721 31.972 541.225 33.173C540.85 34.078 539.975 34.625 539.051 34.625ZM258.939 29.793C258.004 29.793 257.121 29.232 256.754 28.31C256.271 27.104 256.862 25.734 258.068 25.254C259.539 24.668 261.014 24.093 262.496 23.528C263.711 23.057 265.069 23.675 265.534 24.888C265.995 26.103 265.387 27.461 264.174 27.926C262.715 28.482 261.258 29.047 259.81 29.624C259.525 29.74 259.228 29.793 258.939 29.793ZM521.436 27.961C521.181 27.961 520.921 27.919 520.666 27.833C519.189 27.32 517.713 26.822 516.236 26.332C515.002 25.925 514.334 24.592 514.742 23.358C515.149 22.127 516.47 21.446 517.716 21.864C519.212 22.358 520.71 22.866 522.206 23.383C523.433 23.808 524.086 25.15 523.661 26.377C523.322 27.351 522.41 27.961 521.436 27.961ZM276.629 23.322C275.643 23.322 274.727 22.699 274.398 21.716C273.987 20.482 274.651 19.149 275.882 18.738C277.385 18.235 278.887 17.743 280.397 17.26C281.626 16.864 282.959 17.55 283.355 18.788C283.747 20.027 283.065 21.35 281.827 21.746C280.34 22.219 278.856 22.706 277.376 23.201C277.128 23.283 276.878 23.322 276.629 23.322ZM503.495 22.252C503.277 22.252 503.054 22.222 502.833 22.158C501.328 21.717 499.828 21.287 498.336 20.869C497.084 20.517 496.353 19.219 496.704 17.969C497.058 16.719 498.37 15.989 499.604 16.338C501.114 16.761 502.632 17.195 504.156 17.641C505.404 18.007 506.118 19.314 505.753 20.562C505.453 21.585 504.513 22.252 503.495 22.252ZM294.639 17.833C293.607 17.833 292.661 17.15 292.373 16.107C292.026 14.852 292.761 13.559 294.014 13.212C295.54 12.792 297.068 12.378 298.598 11.978C299.855 11.665 301.14 12.403 301.471 13.66C301.8 14.917 301.046 16.204 299.789 16.532C298.277 16.927 296.772 17.332 295.269 17.748C295.057 17.805 294.848 17.833 294.639 17.833ZM485.321 17.341C485.133 17.341 484.94 17.318 484.749 17.27L480.199 16.155C478.935 15.852 478.156 14.581 478.46 13.318C478.763 12.052 480.036 11.273 481.297 11.578L485.888 12.706C487.149 13.021 487.917 14.298 487.6 15.558C487.335 16.629 486.376 17.341 485.321 17.341ZM312.918 13.297C311.838 13.297 310.864 12.548 310.622 11.45C310.342 10.181 311.144 8.927 312.415 8.647C313.957 8.307 315.501 7.976 317.049 7.654C318.301 7.392 319.565 8.205 319.832 9.481C320.096 10.754 319.278 11.999 318.005 12.264C316.475 12.581 314.949 12.907 313.425 13.243C313.256 13.279 313.086 13.297 312.918 13.297ZM466.99 13.056C466.822 13.056 466.655 13.037 466.484 13.001L461.896 12.008C460.625 11.737 459.814 10.487 460.087 9.216C460.36 7.943 461.613 7.123 462.879 7.407L467.491 8.405C468.762 8.683 469.563 9.937 469.285 11.206C469.044 12.307 468.072 13.056 466.99 13.056ZM331.404 9.719C330.276 9.719 329.278 8.906 329.086 7.757C328.87 6.475 329.736 5.262 331.016 5.046C332.574 4.784 334.136 4.536 335.699 4.295C336.988 4.113 338.185 4.977 338.383 6.262C338.58 7.547 337.7 8.748 336.416 8.946C334.872 9.183 333.332 9.431 331.797 9.688C331.664 9.708 331.533 9.719 331.404 9.719ZM448.527 9.404C448.396 9.404 448.265 9.393 448.132 9.372C446.597 9.11 445.06 8.862 443.52 8.625C442.235 8.427 441.356 7.226 441.553 5.941C441.753 4.656 442.95 3.795 444.237 3.974C445.8 4.215 447.36 4.468 448.918 4.73C450.2 4.948 451.062 6.161 450.846 7.443C450.65 8.593 449.655 9.404 448.527 9.404ZM350.046 7.093C348.867 7.093 347.849 6.209 347.711 5.009C347.562 3.718 348.487 2.551 349.779 2.404C351.348 2.222 352.918 2.053 354.492 1.891C355.799 1.802 356.939 2.704 357.07 3.996C357.201 5.288 356.259 6.443 354.965 6.574C353.414 6.73 351.863 6.9 350.317 7.077C350.225 7.088 350.135 7.093 350.046 7.093ZM429.885 6.801C429.8 6.801 429.713 6.796 429.623 6.787C428.074 6.615 426.525 6.456 424.972 6.303C423.679 6.177 422.732 5.023 422.86 3.732C422.987 2.441 424.115 1.515 425.431 1.62C427.003 1.774 428.575 1.937 430.141 2.109C431.433 2.252 432.363 3.414 432.221 4.708C432.089 5.91 431.068 6.801 429.885 6.801ZM368.798 5.427C367.566 5.427 366.53 4.468 366.452 3.223C366.369 1.925 367.355 0.807998 368.651 0.724998C370.228 0.625998 371.804 0.535001 373.382 0.456001C374.639 0.352001 375.783 1.391 375.85 2.689C375.914 3.987 374.915 5.092 373.617 5.157C372.061 5.233 370.503 5.322 368.95 5.421C368.9 5.425 368.849 5.427 368.798 5.427ZM411.13 5.246C411.086 5.246 411.04 5.244 410.997 5.242C409.444 5.157 407.888 5.081 406.33 5.016C405.032 4.963 404.023 3.867 404.076 2.569C404.126 1.271 405.172 0.174002 406.523 0.315002C408.104 0.379002 409.682 0.454998 411.258 0.544998C412.556 0.615998 413.549 1.726 413.476 3.024C413.407 4.276 412.369 5.246 411.13 5.246ZM387.61 4.729C386.323 4.729 385.273 3.695 385.257 2.404C385.241 1.106 386.282 0.0390026 387.582 0.0230026C388.913 0.00700262 390.241 0 391.569 0L392.314 0.0019989C393.614 0.0019989 394.667 1.054 394.667 2.355C394.667 3.655 393.615 4.708 392.314 4.708L391.547 4.706C390.26 4.706 388.95 4.713 387.638 4.729C387.629 4.729 387.619 4.729 387.61 4.729Z" fill="#636466"/>
<path d="M182.229 398.372C182.008 399.456 179.851 405.915 175.751 417.756C172.334 427.625 164.97 433.381 153.651 435.022C138.593 437.03 128.231 437.455 122.548 436.302C122.116 436.352 120.611 436.118 118.044 435.596C109.437 434.971 105.597 429.969 106.523 420.578C107.238 417.062 109.627 414.661 113.69 413.374C115.556 413.192 117.493 413.022 119.499 412.866C122.477 412.767 124.894 411.604 126.758 409.378C128.617 407.149 130.345 403.17 131.933 397.437L132.714 394.638L133.208 392.204L133.624 389.12L134.16 386.485L134.334 383.56C134.801 381.265 134.826 377.324 134.412 371.747L134.215 369.594L133.859 367.197C132.768 360.78 129.857 357.089 125.125 356.126C121.66 355.844 118.949 356.703 116.996 358.697C115.038 360.696 113.446 364.736 112.207 370.822L98.0161 440.604C97.1081 445.066 98.0441 448.426 100.824 450.682L101.961 451.335L103.011 452.394C104.571 454.4 105.107 456.622 104.613 459.058C103.568 464.196 100.408 466.229 95.1341 465.158L42.3901 454.432C39.8211 453.908 37.9991 452.656 36.9241 450.679C35.8461 448.696 35.4881 446.826 35.8461 445.07C36.3951 442.363 38.2821 440.355 41.5081 439.041L42.6041 438.841C45.7481 437.928 47.7141 435.865 48.5121 432.648L49.1251 430.661L64.0611 357.226C64.1191 355.548 64.1761 354.223 64.2361 353.249C64.2911 352.277 64.2781 351.498 64.1861 350.914C64.0891 350.335 63.8341 349.859 63.4161 349.492C62.9961 349.124 62.4261 348.658 61.6951 348.083L61.1711 347.554L60.6041 347.228L59.5491 346.171C57.7961 344.406 57.1961 342.171 57.7451 339.466C58.5701 335.408 61.4031 333.237 66.2511 332.956L108.521 330.78C108.953 330.729 109.709 330.81 110.794 331.03C114.038 331.69 116.194 334.24 117.264 338.684L117.462 340.834L117.331 343.555L116.506 347.611L120.085 344.539C126.921 338.608 135.754 336.741 146.574 338.939L151.847 340.012C157.764 342.767 160.846 344.24 161.091 344.426C166.084 347.555 170.93 352.133 175.62 358.155C183.434 368.194 185.872 380.451 182.929 394.92L182.229 398.372Z" fill="#68182B"/>
<path d="M292.966 452.158C283.655 460.545 273.329 464.219 261.994 463.18C257.205 462.486 250.05 461.663 240.525 460.715L237.076 460.014C236.94 459.986 235.451 459.506 232.616 458.58C229.774 457.647 225.585 456.268 220.042 454.437C208.792 450.882 200.644 443.52 195.591 432.353C190.697 421.783 189.423 410.751 191.763 399.253C194.21 387.219 200.072 377.426 209.355 369.878C218.688 362.059 229.378 358.672 241.421 359.71C252.352 360.664 258.76 361.335 260.656 361.72C280.536 365.764 294.785 374.296 303.407 387.313C310.195 397.566 312.196 409.524 309.42 423.182C307.082 434.679 301.597 444.336 292.966 452.158ZM265.657 384.918C264.099 381.506 261.291 379.383 257.233 378.558C253.446 377.788 249.678 378.997 245.937 382.177C241.644 386.657 238.191 395.321 235.579 408.165C232.801 421.828 232.757 431.745 235.443 437.923C237.109 441.503 239.901 443.688 243.825 444.488C251.534 446.055 257.341 441.393 261.247 430.497C261.985 428.254 262.849 425.224 263.834 421.412C264.822 417.598 265.852 413.055 266.922 407.782C268.821 398.45 268.396 390.83 265.657 384.918Z" fill="#68182B"/>
<path d="M492.87 426.903L491.935 427.346C489.715 427.882 487.665 429.646 485.786 432.645L481.744 440.06L478.476 445.733L469.738 461.702L461.535 475.032C459.194 478.922 457.222 482.043 455.618 484.389C454.01 486.74 452.829 488.401 452.071 489.373C447.829 494.989 443.257 498.075 438.36 498.626C433.268 499.419 426.933 499.046 419.361 497.507C415.979 496.819 412.153 495.197 407.888 492.64C403.621 490.08 400.857 486.002 399.604 480.393L395.962 465.076L393.876 469.088C391.348 472.516 389.799 474.596 389.23 475.324C384.416 481.67 380.009 485.351 376 486.365C372.585 487.217 368.498 487.234 363.739 486.406L357.408 485.332L347.185 482.618L345.441 481.842L343.132 480.739C337.351 478.011 333.523 472.237 331.659 463.407C330.616 458.829 329.738 454.496 329.021 450.408C328.302 446.318 327.679 442.46 327.151 438.829C327.098 437.694 326.962 436.118 326.739 434.098C326.516 432.083 326.353 429.583 326.257 426.607L325.892 413.859C325.816 411.451 325.798 408.946 325.834 406.347C325.869 403.751 325.823 401.03 325.701 398.187C325.596 396.618 324.479 394.842 322.348 392.856L321.659 392.084L320.363 391.186C318.881 389.478 318.415 387.271 318.964 384.566C320.01 379.426 323.1 377.376 328.24 378.422L379.157 388.778C384.564 389.879 386.746 392.999 385.703 398.137C385.069 401.251 383.127 403.179 379.878 403.925L378.741 404.327C374.947 405.666 373.029 408.164 372.992 411.818L372.948 413.075L372.973 418.151L372.594 434.55C372.61 437.232 372.757 439.796 373.035 442.248C373.308 444.7 373.757 447.181 374.372 449.702C375.144 452.815 376.932 456.49 379.735 460.72C385.923 455.219 390.243 446.453 392.69 434.415L393.75 420.9L394.165 417.814L394.209 416.557C394.269 414.877 394.298 413.51 394.303 412.455C394.305 411.4 394.227 410.576 394.069 409.978C393.906 409.385 393.623 408.869 393.219 408.432C392.812 408 392.249 407.497 391.521 406.927L390.954 406.601L390.428 406.07L389.337 405.213C387.581 403.453 386.979 401.217 387.528 398.51C388.573 393.372 391.802 391.35 397.211 392.451L443.668 401.899C449.072 402.998 451.244 406.185 450.171 411.461C449.567 414.437 447.708 416.314 444.59 417.086L443.251 417.446C440.243 418.384 438.52 419.935 438.081 422.097C438.021 423.074 437.966 424.048 437.909 425.022L437.987 425.67L438.099 429.284L437.888 443.818C437.794 447.04 438.555 454.726 440.17 466.883L441.002 473.179L444.752 468.241C447.441 464.702 450.172 460.438 452.953 455.435C455.729 450.438 458.562 444.64 461.455 438.047L464.194 431.843C464.957 430.17 465.435 428.858 465.628 427.909C466.095 425.614 465.128 423.445 462.726 421.407L462.159 421.08L461.837 420.591L460.539 419.693C458.786 417.933 458.186 415.697 458.735 412.99C459.78 407.852 463.006 405.83 468.418 406.93L492.151 411.758C497.56 412.856 499.729 416.043 498.656 421.319C498.049 424.295 496.117 426.159 492.87 426.903Z" fill="#68182B"/>
<path d="M587.628 484.477C585.677 485.065 577.139 484.804 562.017 483.689C547.755 482.481 540.601 482.009 540.546 482.276L539.969 485.109C537.968 494.958 542.982 501.104 555.02 503.551C561.645 504.898 572.03 502.646 586.183 496.791C588.292 496.095 590.838 496.049 593.814 496.653C598.139 498.239 599.931 500.856 599.189 504.507C598.447 508.158 594.772 512.719 588.166 518.188C584.441 521.272 576.769 522.984 565.154 523.324C555.51 523.637 547.376 523.122 540.751 521.773C524.793 518.528 512.01 512.125 502.408 502.568C491.454 491.329 487.535 478.069 490.643 462.784C493.97 446.424 503.1 435.11 518.035 428.852C534.374 421.897 549.513 419.834 563.442 422.667C572.909 424.593 581.813 428.581 590.161 434.632C603.665 444.404 609.349 454.549 607.208 465.069C605.315 474.378 598.787 480.849 587.628 484.477ZM559.563 441.733C553.748 440.552 549.409 442.486 546.553 447.539C544.54 451.213 543.051 455.418 542.088 460.152C541.87 461.234 541.695 462.255 541.571 463.213C541.444 464.176 541.353 465.143 541.298 466.115C548.306 466.273 553.667 465.536 557.381 463.895C561.772 461.689 564.631 457.339 565.952 450.848C566.967 445.846 564.839 442.806 559.563 441.733Z" fill="#68182B"/>
<path d="M707.75 477.577C703.017 484.923 696.73 487.797 688.885 486.202C688.343 486.092 687.582 485.867 686.594 485.524C685.608 485.186 684.979 484.986 684.707 484.931L677.855 482.268C675.093 481.99 673.13 482.293 671.968 483.183C670.256 484.667 668.852 488.114 667.752 493.523L662.596 518.879C661.688 523.341 662.621 526.703 665.404 528.957L666.335 529.568L667.39 530.627C669.116 532.529 669.716 534.763 669.194 537.332C668.149 542.475 664.921 544.489 659.514 543.391L607.377 532.787C604.808 532.265 602.986 531.017 601.911 529.034C600.833 527.058 600.475 525.187 600.833 523.43C601.382 520.725 603.269 518.715 606.497 517.396L607.591 517.198C610.735 516.288 612.701 514.224 613.499 511.005L614.115 509.018L621.999 469.216C622.437 466.348 621.42 463.749 618.938 461.413L618.048 460.597L616.791 459.499C615.093 457.463 614.491 455.227 614.987 452.794C615.784 448.874 618.617 446.702 623.493 446.287L660.485 443.035C661.188 443.039 661.717 443.042 662.07 443.039C662.42 443.041 662.665 443.055 662.799 443.083C668.343 444.211 670.347 448.563 668.808 456.134L668.107 459.581L669.899 458.044L673.927 454.852C677.913 451.86 680.896 450.004 682.874 449.278C685.882 448.34 689.482 448.299 693.676 449.151C707.063 451.874 712.561 459.116 710.169 470.881C709.839 472.508 709.032 474.739 707.75 477.577Z" fill="#68182B"/>
<path d="M646.775 400.721C647.148 400.797 647.265 400.22 646.892 400.144C646.52 400.068 646.402 400.645 646.775 400.721Z" fill="#FEC771"/>
<path d="M575.605 342.104C572.216 321.171 563.721 298.051 551.69 277.01C525.891 231.897 487.77 201.343 444.354 190.98C442.191 190.463 440.036 189.985 437.865 189.544C339.046 169.448 238.69 226.838 209.393 320.197L209 320.833C208.518 321.623 208.639 322.637 209.292 323.29C214.977 328.977 220.207 332.058 226.252 333.29C228.479 333.743 230.857 333.938 233.325 333.867C238.04 333.734 242.376 332.523 246.569 331.355C248.538 330.806 250.503 330.257 252.495 329.83C253.421 329.627 254.081 328.807 254.074 327.861C254.071 327.39 254.113 327.084 254.212 326.8C278.785 257.547 349.4 215.915 418.467 229.962C421.87 230.654 425.303 231.485 428.669 232.432C499.4 252.342 543.168 315.221 535.158 385.341C535.137 385.419 535.121 385.497 535.11 385.571C535.025 386.196 535.243 386.824 535.689 387.264C539.358 390.874 544.197 393.282 548.446 395.164C552.614 397.009 556.084 398.179 559.368 398.847C562.174 399.417 564.86 399.605 567.357 399.408C568.846 399.288 570.31 399.07 571.766 398.849L572.579 398.729C573.521 398.589 574.236 397.806 574.284 396.854C574.532 392.181 574.939 387.367 575.352 382.5C576.497 368.947 577.68 354.935 575.605 342.104Z" fill="#B4D345"/>
<path d="M611.77 316.877C607.834 307.493 605.015 297.633 602.289 288.102C597.583 271.636 592.719 254.609 581.953 239.674C546.953 191.119 496.294 156.944 439.302 143.452C438.307 143.215 437.314 142.997 436.322 142.795C420.846 139.649 405.323 140.485 390.311 141.296C384.337 141.616 378.16 141.949 372.014 142.036C336.481 142.537 307.557 150.529 280.989 167.19C226.176 201.567 186.444 251.087 166.088 310.404C165.966 310.762 165.778 311.082 165.5 311.406C164.797 312.224 164.868 313.451 165.659 314.182C169.092 317.346 173.023 319.343 177.679 320.289C184.612 321.698 192.125 320.507 199.393 319.354L203.097 318.777C203.846 318.669 204.469 318.143 204.703 317.422C235.325 223.805 337.221 163.295 431.845 182.539C433.793 182.934 435.751 183.369 437.697 183.832C487.669 195.765 528.398 225.427 552.373 267.35C566.049 291.265 575.001 313.175 579.744 334.324C583.152 349.517 581.879 365.885 580.647 381.714C580.227 387.132 579.808 392.503 579.53 397.893C579.514 397.941 579.408 398.306 579.397 398.359C579.202 399.165 579.528 400.006 580.212 400.475C585.977 404.416 592.099 407.067 598.406 408.35C605.695 409.832 613.275 409.588 621.586 407.61C622.455 407.4 623.085 406.638 623.121 405.744C623.123 405.673 623.091 405.3 623.086 405.229C628.622 379.423 624.498 347.219 611.77 316.877Z" fill="#FDC435"/>
<path d="M666.329 412.953C666.327 412.953 666.322 412.953 666.322 412.953C666.717 408.02 667.2 403.048 667.682 398.057C670.097 373.161 672.592 347.416 664.584 322.94L661.011 311.934C650.657 279.947 639.949 246.865 621.51 217.428C583.029 156.006 525.568 112.325 467.797 100.576C462.158 99.4302 456.441 98.5662 450.805 98.0162C421.767 95.1742 390.704 93.0022 360.285 96.3132C326.737 99.9642 293.904 111.596 256.953 132.921C226.544 150.469 194.375 177.861 170.903 206.193C151.806 229.245 128.865 266.533 121.747 302.052C121.747 302.052 121.43 302.709 121.43 302.712C121.051 303.509 121.237 304.465 121.894 305.058C126.416 309.148 131.57 311.74 137.65 312.976C138.475 313.143 139.32 313.286 140.189 313.408C145 314.081 149.252 313.252 153.362 312.45C155.207 312.092 157.052 311.731 158.939 311.515C159.762 311.423 160.441 310.626 160.651 309.824C183.403 243.521 227.347 189.937 284.385 158.944C316.811 141.322 345.786 137.255 379.316 136.568C384.739 136.456 389.927 136.21 394.978 135.968C409.472 135.279 423.163 134.626 437.83 137.609C440.189 138.089 442.584 138.661 445.019 139.349C507.93 156.984 560.931 194.622 590.435 242.607C597.639 254.324 602.393 266.263 606.338 282.529C608.5 291.461 611.634 300.013 614.665 308.283C616.871 314.312 619.155 320.549 621.032 326.851C627.615 348.978 634.401 377.963 628.438 406.072C628.385 406.192 628.339 406.318 628.314 406.415C628.089 407.293 628.479 408.212 629.268 408.655C635.293 412.058 640.594 414.588 646.888 415.868C647.575 416.008 648.274 416.135 648.984 416.24C654.995 417.145 659.689 416.293 664.756 415.374C665.739 415.192 666.44 414.319 666.397 413.32C666.389 413.135 666.363 412.96 666.329 412.953Z" fill="#FF915B"/>
<path d="M701.032 290.358C698.079 281.689 696.423 272.357 694.821 263.334C692.884 252.426 690.88 241.149 686.572 230.761C680.561 216.262 671.2 204.109 662.147 192.358C657.337 186.113 652.363 179.656 647.939 172.912C621.416 132.476 586.859 101.402 545.223 80.5447C517.521 66.6727 487.716 56.4317 456.636 50.1107L453.345 49.4557C365.988 32.5277 271.27 52.4037 212.04 100.097C133.715 163.162 90.2698 225.473 75.3158 296.191C75.2948 296.292 75.2268 296.423 74.9758 296.894C74.5298 297.758 74.7738 298.822 75.5498 299.405C79.8448 302.638 84.1298 304.658 88.6568 305.577C91.6988 306.195 94.8448 306.335 98.2708 306.007C102.102 305.639 105.748 304.727 109.273 303.845C111.139 303.379 113 302.912 114.884 302.531C115.675 302.37 116.29 301.752 116.447 300.964C119.963 283.434 126.53 269.309 135.989 252.202C137.903 248.737 139.79 245.185 141.692 241.598C148.969 227.871 156.497 213.673 166.887 202.565C190.525 177.294 222.498 145.626 260.237 124.877C315.32 94.5937 372.758 84.9937 452.291 92.7767C457.889 93.3237 463.596 94.1857 469.249 95.3347C531.455 107.986 594.451 157.221 629.741 220.762C649.454 256.258 664.454 295.626 673.114 334.617C677.614 354.877 675.364 376.552 673.185 397.512C672.592 403.241 672.002 408.921 671.551 414.511C671.482 415.401 671.11 415.763 670.837 415.966C670.352 416.318 670.051 416.864 670.017 417.462C669.98 418.059 670.212 418.643 670.651 419.048C674.939 423.034 680.649 425.84 687.167 427.166C694.129 428.581 701.846 428.292 708.891 426.354C709.636 426.15 710.196 425.534 710.331 424.773C718.608 378.014 715.479 332.791 701.032 290.358Z" fill="#FF7CC7"/>
<path d="M226.306 315.173C247.912 284.925 266.651 255.359 299.219 235.29C338.445 211.115 378.104 203.293 423.67 209.548C465.634 215.306 504.107 239.69 527.514 274.902C549.966 308.673 554.768 345.293 558.086 385.005C558.312 387.7 561.861 387.684 562.594 385.304C574.989 344.998 560.092 301.432 538.571 267.583C515.191 230.821 475.952 206.843 433.976 197.714C389.305 187.999 344.353 194.885 304.601 216.914C269.268 236.496 231.265 272.603 224.084 314.058C223.884 315.219 225.516 316.276 226.306 315.173Z" fill="#D9E140"/>
<path d="M183.434 306.5C203.615 270.174 227.79 243.835 257.707 215.735C304.435 171.835 355.423 157.596 418.677 166.806C475.343 175.055 527.319 204.471 563.022 249.067C578.068 267.861 576.055 292.093 586.843 312.447C600.871 338.92 605.722 364.662 608.137 394.241C608.295 396.169 611.39 396.504 611.627 394.473C614.279 371.734 616.202 345.599 605.63 324.457C598.353 309.903 592.955 296.826 589.194 280.939C585.905 267.053 580.625 254.503 572.666 242.685C541 195.672 482.662 166.854 428.595 156.502C368.919 145.08 313.489 154.377 265.973 193.143C230.748 221.879 192.138 260.42 181.301 305.758C180.991 307.047 182.827 307.596 183.434 306.5Z" fill="#FBEB4C"/>
<path d="M136.667 293.806C155.971 264.259 172.673 233.735 196.851 207.717C218.936 183.946 246.594 165.67 274.082 148.813C325.222 117.459 388.6 110.476 446.761 121.632C503.057 132.427 559.16 170.272 590.667 218.183C608.303 244.998 628.42 277.606 634.75 309.056C640.97 339.959 655.152 368.282 649.835 400.244C649.456 402.526 652.939 403.252 653.367 400.961C655.851 387.563 656.662 374.1 656.582 360.488C656.492 345.672 648.25 330.302 646.394 315.612C641.895 280.019 623.846 254.725 607.329 223.788C578.405 169.618 520.755 129.569 462.47 113.129C402.089 96.1002 334.375 104.257 278.809 132.504C210.337 167.311 161.769 220.987 134.503 292.711C133.942 294.181 135.808 295.118 136.667 293.806Z" fill="#FEC771"/>
<path d="M94.6714 289.898C123.207 218.57 171.737 153.554 236.725 111.598C309.797 64.4289 395.286 64.3669 477.614 82.8729C548.685 98.8519 605.537 150.472 645.068 209.171C663.048 235.867 672.308 268.387 683.882 298.341C696.233 330.306 700.238 373.986 695.695 407.969C695.359 410.483 699.162 411.303 699.588 408.759C705.224 374.846 703.276 341.652 696.454 307.994C693.042 291.154 687.803 276.059 681.966 259.991C678.876 251.473 678.561 241.868 675.509 233.201C672.26 223.978 666.458 215.072 661.55 206.703C622.827 140.66 560.027 90.9909 486.686 69.3129C405.151 45.2179 317.157 53.5839 242.927 94.3039C172.02 133.194 112.288 210.749 90.8184 288.555C90.2024 290.783 93.8084 292.054 94.6714 289.898Z" fill="#FFBFE2"/>
<path d="M717.503 426.81C716.435 432.791 707.214 430.902 708.28 424.935C716.388 379.563 713.946 334.496 699.137 291.001C692.568 271.704 692.503 250.275 684.725 231.527C675.648 209.638 659.068 193.526 646.267 174.009C620.621 134.91 586.63 103.522 544.328 82.3337C515.553 67.9217 484.578 57.5477 452.968 51.4197C374.324 36.1787 277.506 49.9507 213.294 101.656C149.99 152.628 94.5806 214.776 77.2756 296.605C76.0206 302.54 66.7976 300.67 68.0526 294.73C85.6516 211.497 142.209 144.592 208.101 93.8087C275.077 42.1847 373.188 24.8127 454.843 42.1977C488.988 49.4677 526.058 59.5917 556.003 78.0407C576.977 90.9637 601.345 105.196 618.999 122.572C633.06 136.409 642.913 152.723 654.114 168.813C667.397 187.894 686.43 205.858 693.636 228.489C700.6 250.362 702.701 273.064 710.525 294.735C725.492 336.199 725.198 383.747 717.503 426.81ZM631.492 219.788C596.21 156.254 526.575 98.0347 452.487 90.7827C382.772 83.9607 321.318 89.0127 259.277 123.122C223.905 142.568 192.912 171.812 165.428 201.197C152.129 215.416 143.553 234.393 134.24 251.234C125.276 267.445 118.148 282.296 114.486 300.572C113.296 306.523 122.517 308.401 123.709 302.449C130.309 269.513 151.23 233.081 172.445 207.472C195.168 180.043 227.355 152.311 257.953 134.655C290.274 116.002 323.164 102.366 360.501 98.3037C390.158 95.0747 421 97.1117 450.611 100.007C521.317 106.926 583.327 160.251 619.814 218.49C640.191 251.02 650.864 287.431 662.684 323.564C672.146 352.488 666.693 383.263 664.327 412.796C663.849 418.768 673.066 420.712 673.551 414.671C675.651 388.451 680.876 360.319 675.07 334.182C666.313 294.758 651.09 255.073 631.492 219.788ZM608.282 282.058C604.693 267.249 600.107 254.517 592.138 241.559C559.925 189.165 503.843 153.763 445.559 137.421C422.453 130.942 403.142 134.08 379.275 134.567C343.677 135.298 314.985 140.041 283.429 157.184C223.891 189.537 180.532 245.727 158.758 309.174C156.794 314.902 166.042 316.708 167.981 311.051C188.618 250.913 228.374 202.547 282.053 168.884C310.247 151.202 339.14 144.497 372.042 144.036C394.765 143.716 416.545 140.118 438.843 145.396C496.024 158.937 546.2 193.494 580.329 240.844C597.057 264.052 599.121 291.896 609.925 317.65C620.925 343.872 627.158 376.703 621.129 404.81C619.856 410.745 629.082 412.616 630.352 406.685C636.087 379.946 630.63 352.089 622.949 326.278C618.484 311.277 611.993 297.373 608.282 282.058ZM554.111 266.357C528.983 222.419 486.86 193.515 438.16 181.886C338.572 158.111 232.269 222.704 202.075 318.919C200.26 324.707 209.499 326.527 211.299 320.797C241.781 223.662 346.675 169.717 443.888 192.925C490.641 204.088 526.606 237.183 549.949 278.003C561.121 297.536 570.027 320.188 573.628 342.424C576.498 360.156 572.975 380.457 572.183 398.506C571.916 404.558 581.31 403.869 581.574 397.865C582.493 376.98 586.335 354.574 581.696 333.885C576.361 310.096 566.179 287.465 554.111 266.357ZM429.211 230.505C353.535 209.205 277.968 253.86 252.327 326.13C250.324 331.776 258.701 336.088 260.723 330.388C284.738 262.699 349.629 224.345 420.518 238.109C488.147 251.239 535.778 315.506 527.899 383.874C527.212 389.855 536.428 391.783 537.122 385.749C545.511 312.952 498.455 249.995 429.211 230.505Z" fill="#68182B"/>
</svg>
