<svg width="112" height="112" viewBox="0 0 112 112" fill="none" xmlns="http://www.w3.org/2000/svg">
<path d="M56 112C86.9279 112 112 86.9279 112 56C112 25.0721 86.9279 0 56 0C25.0721 0 0 25.0721 0 56C0 86.9279 25.0721 112 56 112Z" fill="#6AAF50"/>
<path d="M25.5149 64.798C25.5149 59.939 29.4539 56 34.3139 56C39.1739 56 43.1129 59.939 43.1129 64.798" stroke="#2D2E30" stroke-width="6" stroke-miterlimit="10" stroke-linecap="round"/>
<path d="M68.887 64.798C68.887 59.939 72.826 56 77.685 56C82.544 56 86.484 59.939 86.484 64.798" stroke="#2D2E30" stroke-width="6" stroke-miterlimit="10" stroke-linecap="round"/>
<path d="M56.0301 78.3311C51.6681 78.3311 47.6481 79.7911 44.4311 82.2501C42.0601 84.0631 43.4301 87.8751 46.4141 87.8671L65.5861 87.8081C68.5671 87.7991 69.9191 83.9811 67.5411 82.1851C64.3401 79.7651 60.3521 78.3311 56.0301 78.3311Z" fill="#2D2E30"/>
<path d="M30.2781 15.746C37.6611 10.89 46.4991 8.06396 55.9961 8.06396" stroke="#8DC652" stroke-width="6" stroke-miterlimit="10" stroke-linecap="round"/>
<path d="M19.6331 25.3659C20.5301 24.2629 21.0421 23.6169 21.7211 22.8999" stroke="#8DC652" stroke-width="6" stroke-miterlimit="10" stroke-linecap="round"/>
</svg>
