<svg width="112" height="112" viewBox="0 0 112 112" fill="none" xmlns="http://www.w3.org/2000/svg">
<path d="M56 112C86.9279 112 112 86.9279 112 56C112 25.0721 86.9279 0 56 0C25.0721 0 0 25.0721 0 56C0 86.9279 25.0721 112 56 112Z" fill="#E5BF2B"/>
<path d="M32.308 71.3481C29.471 71.3481 27.908 74.6262 29.671 76.8502C35.822 84.6122 45.327 89.5931 56 89.5931C66.673 89.5931 76.178 84.6122 82.329 76.8502C84.092 74.6262 82.53 71.3481 79.692 71.3481H32.308Z" fill="#2D2E30"/>
<path d="M25.5161 59.861C25.5161 55.002 29.4551 51.063 34.3141 51.063C39.1731 51.063 43.1121 55.002 43.1121 59.861" stroke="#2D2E30" stroke-width="6" stroke-miterlimit="10" stroke-linecap="round"/>
<path d="M68.8872 59.861C68.8872 55.002 72.8262 51.063 77.6852 51.063C82.5442 51.063 86.4842 55.002 86.4842 59.861" stroke="#2D2E30" stroke-width="6" stroke-miterlimit="10" stroke-linecap="round"/>
<path d="M56.237 103.82C47.222 103.82 39.915 96.5118 39.915 87.4968C39.915 83.6158 43.061 80.4688 46.942 80.4688H65.532C69.413 80.4688 72.559 83.6148 72.559 87.4968C72.559 96.5118 65.252 103.82 56.237 103.82Z" fill="#DE3205"/>
<path d="M30.282 16.8231C37.665 11.9671 46.503 9.14111 56 9.14111" stroke="#F7E05D" stroke-width="6" stroke-miterlimit="10" stroke-linecap="round"/>
<path d="M19.637 26.4431C20.534 25.3401 21.046 24.6941 21.725 23.9771" stroke="#F7E05D" stroke-width="6" stroke-miterlimit="10" stroke-linecap="round"/>
<path d="M56.5179 92.9782C54.9739 92.9782 53.7229 91.7272 53.7229 90.1842V80.4702H59.3129V90.1842C59.3129 91.7272 58.0609 92.9782 56.5179 92.9782Z" fill="#C12405"/>
</svg>
