<svg width="139" height="165" viewBox="0 0 139 165" fill="none" xmlns="http://www.w3.org/2000/svg">
<path d="M63.8099 164.157C61.8859 163.756 60.1149 162.856 58.6459 161.556C56.7779 162.162 54.7969 162.281 52.8789 161.882C50.9579 161.482 49.1849 160.581 47.7119 159.279C45.8459 159.886 43.8619 160.005 41.9369 159.604C40.0159 159.204 38.2439 158.303 36.7699 157.001C34.9049 157.608 32.9209 157.727 30.9959 157.326C24.5829 155.991 20.5329 149.3 21.9669 142.411L22.8839 138.005C5.44288 124.669 -3.11012 103.56 1.02988 83.6738C6.06588 59.4858 28.5369 41.8348 55.6749 40.7468C57.7199 40.6678 59.8779 40.6938 62.1049 40.8228C66.4899 37.5558 70.6469 34.6878 74.1429 32.3688C73.6429 31.9898 73.2009 31.5328 72.8309 31.0118L70.6399 27.9508C69.6729 26.5838 69.2809 24.8758 69.5539 23.2528C69.8339 21.6018 70.7659 20.1098 72.1139 19.1558C73.8649 17.9078 76.8319 16.5948 80.9739 17.4568C83.2859 17.9378 85.7419 19.0908 88.2749 20.8828C88.6429 21.1418 89.0179 21.4198 89.3969 21.7138C89.5049 21.6668 89.6149 21.6218 89.7259 21.5808C89.9129 21.4148 90.1119 21.2518 90.3269 21.0908C90.9229 20.6668 91.5299 20.3408 92.1579 20.1018C92.3659 19.9178 92.5799 19.7468 92.7999 19.5898C93.3539 19.1978 93.9419 18.8838 94.5579 18.6488C94.7629 18.4658 94.9759 18.2938 95.1959 18.1368C95.7509 17.7438 96.3379 17.4298 96.9579 17.1938C97.1669 17.0058 97.3869 16.8288 97.6169 16.6638C98.1779 16.2668 98.7689 15.9498 99.3889 15.7148C99.6169 15.5118 99.8489 15.3298 100.088 15.1668C100.608 14.7988 101.184 14.4908 101.797 14.2578C102.004 14.0738 102.218 13.9018 102.439 13.7438C102.988 13.3538 103.576 13.0408 104.196 12.8048C104.406 12.6158 104.628 12.4378 104.861 12.2718C105.42 11.8748 106.013 11.5588 106.635 11.3228C106.843 11.1398 107.057 10.9698 107.277 10.8128C107.826 10.4228 108.412 10.1078 109.026 9.87383C109.228 9.69383 109.444 9.52182 109.671 9.35882C110.232 8.96082 110.823 8.64482 111.44 8.40882C111.651 8.21982 111.871 8.04382 112.099 7.88282C112.656 7.48682 113.249 7.17082 113.872 6.93482C114.08 6.75082 114.294 6.58082 114.514 6.42382C114.811 6.20182 115.143 5.99882 115.498 5.81882C116.368 4.47182 117.471 3.31783 118.787 2.38183C121.672 0.312827 125.334 -0.459179 128.822 0.266821C131.977 0.923821 134.744 2.72782 136.613 5.34682C140.706 11.0718 139.38 19.0698 133.656 23.1728C132.336 24.1128 130.889 24.7818 129.338 25.1668C129.051 25.4438 128.742 25.6978 128.413 25.9278C128.222 26.0698 128 26.2138 127.746 26.3558C127.312 26.8808 126.82 27.3408 126.273 27.7258C126.059 27.8798 125.828 28.0258 125.579 28.1658C125.146 28.6898 124.654 29.1488 124.11 29.5348C123.886 29.6948 123.655 29.8408 123.416 29.9758C122.992 30.4918 122.499 30.9508 121.942 31.3458C121.719 31.5048 121.488 31.6518 121.246 31.7878C120.819 32.3038 120.322 32.7678 119.775 33.1558C119.57 33.3098 119.338 33.4598 119.083 33.6018C118.652 34.1248 118.162 34.5828 117.618 34.9688C117.391 35.1308 117.159 35.2788 116.92 35.4128C116.507 35.9108 116.026 36.3618 115.481 36.7588C115.241 36.9298 115.002 37.0828 114.758 37.2198C114.333 37.7368 113.841 38.1958 113.285 38.5898C113.082 38.7418 112.848 38.8918 112.594 39.0338C112.164 39.5558 111.674 40.0108 111.13 40.3928C110.903 40.5578 110.666 40.7118 110.418 40.8508C109.997 41.3578 109.52 41.8078 108.99 42.1928C108.748 42.3648 108.505 42.5198 108.259 42.6578C107.845 43.1588 107.364 43.6088 106.823 44.0038C106.574 44.1748 106.337 44.3238 106.106 44.4548C106.026 44.5508 105.945 44.6458 105.861 44.7378C106.017 45.1878 106.159 45.6288 106.287 46.0618C108.304 52.8688 106.911 57.1078 105.019 59.6438C118.482 73.0338 124.318 91.0898 120.677 108.582C116.534 128.481 100.271 144.423 78.9659 149.681L78.0489 154.085C76.6169 160.976 70.2279 165.493 63.8099 164.157Z" fill="url(#paint0_linear_35_11189)"/>
<path d="M100.417 59.6348C100.572 59.5598 100.719 59.4718 100.858 59.3728C103.151 57.7278 105.43 54.2468 103.271 46.9588C102.962 45.9188 102.567 44.8298 102.086 43.6898C102.336 43.5698 102.58 43.4278 102.805 43.2718C103.298 42.9138 103.711 42.4738 104.028 41.9828C104.356 41.8478 104.672 41.6668 104.972 41.4618C105.465 41.1038 105.878 40.6638 106.184 40.1708C106.523 40.0378 106.837 39.8668 107.139 39.6518C107.631 39.2938 108.034 38.8518 108.351 38.3608C108.69 38.2278 109.004 38.0578 109.296 37.8398C109.797 37.4938 110.199 37.0528 110.518 36.5508C110.846 36.4158 111.171 36.2468 111.463 36.0288C111.954 35.6808 112.367 35.2418 112.675 34.7378C113.014 34.6048 113.328 34.4348 113.63 34.2188C114.123 33.8608 114.534 33.4318 114.842 32.9278C115.181 32.7948 115.495 32.6238 115.797 32.4088C116.288 32.0608 116.69 31.6188 117.009 31.1178C117.337 30.9828 117.662 30.8148 117.954 30.5968C118.445 30.2488 118.858 29.8098 119.164 29.3158C119.505 29.1718 119.819 29.0018 120.121 28.7858C120.612 28.4378 121.025 27.9988 121.333 27.4948C121.672 27.3618 121.986 27.1908 122.288 26.9758C122.778 26.6278 123.181 26.1858 123.498 25.6948C123.828 25.5498 124.153 25.3808 124.455 25.1658C124.946 24.8178 125.348 24.3758 125.665 23.8848C125.995 23.7398 126.32 23.5708 126.612 23.3528C127.038 23.0558 127.391 22.7008 127.678 22.2988C129.162 22.0718 130.576 21.5088 131.822 20.6208C136.144 17.5228 137.14 11.5018 134.052 7.18179C132.641 5.20479 130.555 3.84878 128.181 3.35478C125.551 2.80678 122.793 3.39078 120.613 4.95178C119.367 5.83878 118.376 6.99478 117.681 8.32878C117.2 8.47578 116.748 8.69179 116.342 8.99379C116.04 9.20979 115.775 9.45479 115.538 9.71579C114.963 9.85279 114.418 10.1038 113.927 10.4518C113.625 10.6678 113.359 10.9128 113.121 11.1848C112.546 11.3218 112 11.5728 111.51 11.9218C111.22 12.1298 110.945 12.3718 110.716 12.6458C110.141 12.7828 109.595 13.0348 109.105 13.3818C108.803 13.5978 108.537 13.8428 108.301 14.1038C107.726 14.2408 107.18 14.4918 106.69 14.8398C106.388 15.0558 106.122 15.3008 105.894 15.5748C105.319 15.7118 104.763 15.9608 104.273 16.3088C103.983 16.5168 103.718 16.7608 103.479 17.0328C102.904 17.1698 102.358 17.4218 101.868 17.7688C101.568 17.9738 101.3 18.2298 101.064 18.4918C100.489 18.6288 99.9437 18.8798 99.4527 19.2278C99.1507 19.4438 98.8857 19.6888 98.6567 19.9628C98.0817 20.0998 97.5257 20.3488 97.0347 20.6968C96.7447 20.9048 96.4797 21.1498 96.2407 21.4208C95.6657 21.5578 95.1197 21.8098 94.6297 22.1568C94.3277 22.3728 94.0617 22.6178 93.8257 22.8788C93.2507 23.0158 92.7047 23.2678 92.2147 23.6148C91.9227 23.8328 91.6467 24.0758 91.4187 24.3488C90.8437 24.4868 90.2877 24.7348 89.8077 25.0858C89.5717 25.2408 89.3597 25.4318 89.1697 25.6288C88.2477 24.8038 87.3477 24.0808 86.4597 23.4568C84.2927 21.9228 82.2357 20.9368 80.3347 20.5418C77.3037 19.9108 75.1807 20.8408 73.9347 21.7288C73.2557 22.2088 72.8017 22.9508 72.6617 23.7788C72.5237 24.5968 72.7227 25.4418 73.2027 26.1208L75.4037 29.1948C75.8757 29.8608 76.5707 30.2848 77.3207 30.4408C77.7007 30.5198 78.0957 30.5268 78.4837 30.4678C78.7957 30.5648 79.4957 30.8608 80.6357 31.6668C80.7007 31.7128 80.7567 31.7558 80.8217 31.8018C76.7237 34.3898 70.1807 38.6868 63.0627 44.0438C60.5817 43.8598 58.1497 43.8038 55.8047 43.8938C30.1107 44.9228 8.85772 61.5388 4.11572 84.3168C0.0627218 103.786 8.77874 124.113 26.3807 136.674L25.0527 143.054C23.9727 148.242 26.9257 153.263 31.6417 154.244C33.7167 154.676 35.7967 154.262 37.5607 153.204C38.7657 154.881 40.5077 156.09 42.5837 156.522C44.6587 156.954 46.7387 156.54 48.5027 155.482C49.7077 157.159 51.4397 158.366 53.5247 158.8C55.5997 159.232 57.6697 158.816 59.4437 157.76C60.6387 159.434 62.3807 160.644 64.4557 161.076C69.1707 162.058 73.8927 158.635 74.9727 153.447L76.3008 147.067C97.4508 142.584 113.547 127.413 117.6 107.944C121.278 90.2608 114.432 72.1248 100.417 59.6348ZM126.086 12.5938C126.138 12.5508 126.194 12.5408 126.265 12.5558C126.357 12.5748 126.39 12.6248 126.406 12.6498C126.471 12.7488 126.451 12.8958 126.352 12.9608C126.3 13.0038 126.234 13.0118 126.172 12.9988C126.08 12.9798 126.047 12.9298 126.029 12.9158C126.013 12.8908 125.97 12.8388 125.989 12.7468C126.011 12.6428 126.063 12.5998 126.086 12.5938Z" fill="url(#paint1_linear_35_11189)"/>
<path d="M114.513 107.305C119.825 81.7898 101.77 56.2808 73.8334 49.0008C72.8394 48.7428 71.8334 48.5048 70.8144 48.2928C65.7844 47.2458 60.7784 46.8508 55.9274 47.0418C32.1744 47.9858 11.7624 63.0258 7.19543 84.9618C3.14043 104.439 12.7124 123.901 29.8824 135.267L28.1294 143.689C27.4004 147.19 29.2584 150.537 32.2794 151.166C35.3004 151.795 38.3394 149.467 39.0684 145.966C38.3394 149.467 40.1974 152.814 43.2184 153.443C46.2394 154.072 49.2794 151.744 50.0074 148.243C49.2784 151.744 51.1364 155.092 54.1564 155.72C57.1774 156.349 60.2164 154.021 60.9454 150.52C60.2164 154.021 62.0744 157.368 65.0954 157.997C68.1164 158.626 71.1554 156.298 71.8844 152.797L73.6374 144.376C93.9184 140.809 110.458 126.782 114.513 107.305Z" fill="url(#paint2_linear_35_11189)"/>
<path d="M51.6406 140.396L49.6426 149.992" stroke="url(#paint3_linear_35_11189)" stroke-width="3" stroke-miterlimit="10" stroke-linecap="round" stroke-linejoin="round"/>
<path d="M62.5478 142.667L60.5498 152.262" stroke="url(#paint4_linear_35_11189)" stroke-width="3" stroke-miterlimit="10" stroke-linecap="round" stroke-linejoin="round"/>
<path d="M40.6728 138.113L38.6748 147.708" stroke="url(#paint5_linear_35_11189)" stroke-width="3" stroke-miterlimit="10" stroke-linecap="round" stroke-linejoin="round"/>
<path d="M63.504 117.256L60.078 113.576C58.687 112.082 56.492 111.653 54.64 112.514L50.292 114.537C48.994 115.141 48.679 116.843 49.674 117.871C52.994 121.303 58.044 122.418 62.501 120.703L62.728 120.616C64.104 120.087 64.509 118.335 63.504 117.256Z" fill="url(#paint6_linear_35_11189)"/>
<path d="M70.9574 67.2828L74.8834 74.4658L58.5944 82.8468L65.5654 73.7988L55.1074 61.1228L60.9944 57.8028L55.9254 47.0438C60.7764 46.8528 65.7824 47.2468 70.8124 48.2948C71.8314 48.5068 72.8374 48.7458 73.8314 49.0028L79.1794 61.3528L70.9574 67.2828Z" fill="url(#paint7_linear_35_11189)"/>
<path d="M96.0336 43.4377C96.0336 43.4377 95.6156 43.8017 94.8456 44.4567C91.5536 47.2287 81.7936 55.2277 69.6586 63.0237L65.1836 56.4437L90.9476 38.0047L92.7866 36.6917L93.3336 36.3027L94.2596 38.7447L96.0336 43.4377Z" fill="url(#paint8_linear_35_11189)"/>
<path d="M93.3324 36.3017L92.7854 36.6907L90.9464 38.0037L65.1824 56.4427L60.6904 49.8367C71.8874 40.9867 82.4614 34.4237 86.1044 32.2417C86.9794 31.7107 87.4514 31.4377 87.4514 31.4377L91.3074 34.6277L93.3324 36.3017Z" fill="url(#paint9_linear_35_11189)"/>
<path d="M131.489 9.00678C129.409 6.09878 125.352 5.42578 122.444 7.50578C121.051 8.50278 120.177 9.95378 119.867 11.5148C119.36 11.1878 118.688 11.1778 118.168 11.5498C117.675 11.9028 117.461 12.4968 117.564 13.0568C117.049 12.6538 116.314 12.6128 115.755 13.0128C115.262 13.3658 115.048 13.9598 115.151 14.5198C114.636 14.1178 113.901 14.0758 113.342 14.4758C112.849 14.8288 112.635 15.4228 112.738 15.9828C112.223 15.5798 111.488 15.5388 110.929 15.9388C110.436 16.2918 110.222 16.8858 110.325 17.4458C109.81 17.0428 109.075 17.0018 108.516 17.4018C108.023 17.7548 107.809 18.3488 107.912 18.9088C107.397 18.5058 106.662 18.4648 106.103 18.8648C105.61 19.2178 105.396 19.8118 105.499 20.3718C104.984 19.9688 104.249 19.9278 103.69 20.3278C103.197 20.6808 102.983 21.2748 103.086 21.8348C102.571 21.4318 101.836 21.3908 101.277 21.7908C100.784 22.1438 100.57 22.7378 100.673 23.2978C100.158 22.8958 99.4232 22.8548 98.8642 23.2538C98.3702 23.6068 98.1572 24.2008 98.2602 24.7608C97.7452 24.3578 97.0102 24.3168 96.4522 24.7168C95.9582 25.0698 95.7452 25.6638 95.8482 26.2238C95.3332 25.8208 94.5982 25.7798 94.0392 26.1798C93.5462 26.5328 93.3322 27.1268 93.4362 27.6868C92.9212 27.2838 92.1862 27.2428 91.6272 27.6428C91.1342 27.9958 90.9202 28.5898 91.0232 29.1498C90.5082 28.7468 89.7732 28.7058 89.2142 29.1058C88.5342 29.5918 88.3772 30.5378 88.8642 31.2178L96.6982 42.1688C97.1842 42.8488 98.1302 43.0058 98.8102 42.5188C99.3692 42.1188 99.5672 41.4108 99.3532 40.7928C99.8492 41.0718 100.481 41.0618 100.974 40.7088C101.533 40.3088 101.731 39.6008 101.517 38.9828C102.013 39.2608 102.645 39.2508 103.138 38.8978C103.697 38.4978 103.895 37.7898 103.681 37.1718C104.177 37.4508 104.809 37.4408 105.302 37.0878C105.861 36.6878 106.059 35.9798 105.845 35.3618C106.341 35.6408 106.973 35.6298 107.466 35.2768C108.025 34.8768 108.223 34.1688 108.009 33.5508C108.505 33.8298 109.137 33.8188 109.63 33.4668C110.189 33.0668 110.387 32.3588 110.173 31.7408C110.669 32.0198 111.301 32.0088 111.794 31.6558C112.353 31.2558 112.551 30.5478 112.337 29.9298C112.833 30.2078 113.465 30.1978 113.958 29.8448C114.517 29.4448 114.715 28.7368 114.501 28.1188C114.997 28.3978 115.628 28.3868 116.122 28.0338C116.681 27.6338 116.879 26.9258 116.665 26.3078C117.161 26.5868 117.793 26.5768 118.286 26.2228C118.845 25.8228 119.043 25.1148 118.829 24.4968C119.325 24.7748 119.956 24.7648 120.45 24.4118C121.009 24.0118 121.207 23.3038 120.993 22.6858C121.489 22.9638 122.12 22.9538 122.614 22.6018C123.173 22.2018 123.371 21.4928 123.157 20.8758C123.653 21.1538 124.284 21.1438 124.778 20.7908C125.298 20.4188 125.506 19.7798 125.36 19.1948C126.937 19.4048 128.593 19.0468 129.986 18.0508C132.895 15.9708 133.569 11.9138 131.489 9.00678ZM128.181 15.5248C126.667 16.6088 124.553 16.2578 123.469 14.7438C122.386 13.2288 122.736 11.1148 124.251 10.0318C125.766 8.94878 127.88 9.29878 128.963 10.8138C130.046 12.3278 129.695 14.4418 128.181 15.5248Z" fill="url(#paint10_linear_35_11189)"/>
<path d="M75.7646 24.2877L77.9606 27.3567C78.2236 27.1687 79.6136 27.0857 82.4536 29.1007C85.2376 31.0767 88.2546 34.2387 90.9496 38.0067C93.6446 41.7737 95.6626 45.6507 96.6336 48.9237C97.6236 52.2617 97.0956 53.5507 96.8326 53.7387L99.0287 56.8077C100.489 55.7637 101.887 53.3617 100.252 47.8507C99.1646 44.1867 96.9516 39.9107 94.0186 35.8117C91.0856 31.7117 87.7546 28.2357 84.6376 26.0237C79.9496 22.6967 77.2246 23.2437 75.7646 24.2877Z" fill="url(#paint11_linear_35_11189)"/>
<path d="M51.3419 95.2399C51.0999 104.97 44.4489 112.496 36.4849 112.05C28.5209 111.604 22.2609 103.354 22.5029 93.6239C22.7449 83.8939 29.3959 76.3668 37.3599 76.8138C45.3229 77.2598 51.5829 85.5099 51.3419 95.2399Z" fill="url(#paint12_linear_35_11189)"/>
<path d="M51.1857 97.3658C50.1107 106.044 43.8577 112.464 36.4887 112.051C29.1197 111.638 23.2097 104.54 22.5547 95.7798C24.3367 102.31 29.8987 107.277 36.5927 107.653C43.3027 108.03 49.0917 103.689 51.1857 97.3658Z" fill="url(#paint13_linear_35_11189)"/>
<path d="M36.6996 103.231C34.1756 103.094 32.2296 99.0369 32.3436 94.1789C32.4706 89.3119 34.6116 85.4869 37.1356 85.6229C38.9876 85.7289 40.5276 87.9249 41.1656 90.9839L37.0406 93.0299L41.4776 93.5119C41.5026 93.8949 41.5026 94.2859 41.4906 94.6859C41.3756 99.5549 39.2226 103.378 36.6996 103.231Z" fill="url(#paint14_linear_35_11189)"/>
<path d="M69.3833 98.8838C65.8293 107.945 69.0393 117.463 76.5513 120.143C84.0643 122.822 93.0353 117.649 96.5893 108.588C100.143 99.5268 96.9333 90.0088 89.4213 87.3288C81.9083 84.6488 72.9373 89.8228 69.3833 98.8838Z" fill="url(#paint15_linear_35_11189)"/>
<path d="M68.7023 100.903C66.3253 109.318 69.5963 117.662 76.5483 120.141C83.5003 122.62 91.7013 118.372 95.7053 110.554C91.5283 115.88 84.4753 118.3 78.1593 116.048C71.8283 113.791 68.1773 107.544 68.7023 100.903Z" fill="url(#paint16_linear_35_11189)"/>
<path d="M79.7767 111.931C82.1557 112.785 85.5237 109.801 87.3047 105.279C89.0767 100.744 88.5887 96.3878 86.2087 95.5338C84.4607 94.9128 82.1887 96.3388 80.4137 98.9108L83.4217 102.397L79.1457 101.119C78.9747 101.463 78.8227 101.823 78.6777 102.196C76.8937 106.728 77.3937 111.088 79.7767 111.931Z" fill="url(#paint17_linear_35_11189)"/>
<defs>
<linearGradient id="paint0_linear_35_11189" x1="48.0502" y1="159.516" x2="80.0795" y2="0.95549" gradientUnits="userSpaceOnUse">
<stop stop-color="#C9CCD1"/>
<stop offset="1" stop-color="white"/>
</linearGradient>
<linearGradient id="paint1_linear_35_11189" x1="48.3505" y1="158.031" x2="78.4602" y2="8.97238" gradientUnits="userSpaceOnUse">
<stop stop-color="#0A0A0A"/>
<stop offset="1" stop-color="#1F1F1F"/>
</linearGradient>
<linearGradient id="paint2_linear_35_11189" x1="47.0591" y1="164.427" x2="70.9659" y2="46.076" gradientUnits="userSpaceOnUse">
<stop stop-color="#C9CCD1"/>
<stop offset="1" stop-color="white"/>
</linearGradient>
<linearGradient id="paint3_linear_35_11189" x1="49.1424" y1="144.891" x2="52.1402" y2="145.496" gradientUnits="userSpaceOnUse">
<stop offset="1.3e-07" stop-color="#141414"/>
<stop offset="1" stop-color="#141414"/>
</linearGradient>
<linearGradient id="paint4_linear_35_11189" x1="60.0498" y1="147.162" x2="63.0476" y2="147.767" gradientUnits="userSpaceOnUse">
<stop offset="1.3e-07" stop-color="#141414"/>
<stop offset="1" stop-color="#141414"/>
</linearGradient>
<linearGradient id="paint5_linear_35_11189" x1="38.1748" y1="142.607" x2="41.1726" y2="143.213" gradientUnits="userSpaceOnUse">
<stop offset="1.3e-07" stop-color="#141414"/>
<stop offset="1" stop-color="#141414"/>
</linearGradient>
<linearGradient id="paint6_linear_35_11189" x1="49.3052" y1="115.171" x2="64.1907" y2="118.271" gradientUnits="userSpaceOnUse">
<stop offset="1e-08" stop-color="#1F1F1F"/>
<stop offset="1" stop-color="#0A0A0A"/>
</linearGradient>
<linearGradient id="paint7_linear_35_11189" x1="61.2054" y1="85.6267" x2="68.5766" y2="49.1357" gradientUnits="userSpaceOnUse">
<stop offset="1e-08" stop-color="#1F1F1F"/>
<stop offset="1" stop-color="#0A0A0A"/>
</linearGradient>
<linearGradient id="paint8_linear_35_11189" x1="67.2152" y1="46.6884" x2="94.1861" y2="52.3057" gradientUnits="userSpaceOnUse">
<stop stop-color="#0087FF"/>
<stop offset="1" stop-color="#00F2FF"/>
</linearGradient>
<linearGradient id="paint9_linear_35_11189" x1="62.5182" y1="41.0665" x2="91.1007" y2="47.0195" gradientUnits="userSpaceOnUse">
<stop stop-color="#0087FF"/>
<stop offset="1" stop-color="#00F2FF"/>
</linearGradient>
<linearGradient id="paint10_linear_35_11189" x1="89.2614" y1="22.5476" x2="131.545" y2="26.2403" gradientUnits="userSpaceOnUse">
<stop stop-color="#FB00FF"/>
<stop offset="1" stop-color="#FF0062"/>
</linearGradient>
<linearGradient id="paint11_linear_35_11189" x1="94.6283" y1="35.3748" x2="86.2866" y2="41.3424" gradientUnits="userSpaceOnUse">
<stop stop-color="#FB00FF"/>
<stop offset="1" stop-color="#FF0062"/>
</linearGradient>
<linearGradient id="paint12_linear_35_11189" x1="36.1972" y1="112.04" x2="37.6623" y2="76.4844" gradientUnits="userSpaceOnUse">
<stop offset="1e-08" stop-color="#1F1F1F"/>
<stop offset="1" stop-color="#0A0A0A"/>
</linearGradient>
<linearGradient id="paint13_linear_35_11189" x1="36.2329" y1="112.041" x2="36.8781" y2="96.3692" gradientUnits="userSpaceOnUse">
<stop stop-color="#ACAEB3"/>
<stop offset="1" stop-color="#F0F0F0"/>
</linearGradient>
<linearGradient id="paint14_linear_35_11189" x1="36.0544" y1="103.17" x2="37.8" y2="85.5164" gradientUnits="userSpaceOnUse">
<stop stop-color="#C9CCD1"/>
<stop offset="1" stop-color="white"/>
</linearGradient>
<linearGradient id="paint15_linear_35_11189" x1="76.8189" y1="120.244" x2="89.2694" y2="86.9075" gradientUnits="userSpaceOnUse">
<stop offset="1e-08" stop-color="#1F1F1F"/>
<stop offset="1" stop-color="#0A0A0A"/>
</linearGradient>
<linearGradient id="paint16_linear_35_11189" x1="76.7876" y1="120.232" x2="82.2744" y2="105.539" gradientUnits="userSpaceOnUse">
<stop stop-color="#ACAEB3"/>
<stop offset="1" stop-color="#F0F0F0"/>
</linearGradient>
<linearGradient id="paint17_linear_35_11189" x1="80.3944" y1="112.125" x2="85.6382" y2="95.1781" gradientUnits="userSpaceOnUse">
<stop stop-color="#C9CCD1"/>
<stop offset="1" stop-color="white"/>
</linearGradient>
</defs>
</svg>
