<svg width="112" height="112" viewBox="0 0 112 112" fill="none" xmlns="http://www.w3.org/2000/svg">
<path d="M56 112C86.9279 112 112 86.9279 112 56C112 25.0721 86.9279 0 56 0C25.0721 0 0 25.0721 0 56C0 86.9279 25.0721 112 56 112Z" fill="#E5BF2B"/>
<path d="M71.2301 74.9478C67.9241 80.6608 61.7471 84.5048 54.6711 84.5048C47.6381 84.5048 41.4911 80.7068 38.1721 75.0498" stroke="#2D2E30" stroke-width="6" stroke-miterlimit="10" stroke-linecap="round"/>
<path d="M30.283 16.8231C37.666 11.9671 46.5039 9.14111 56.0009 9.14111" stroke="#F7E05D" stroke-width="6" stroke-miterlimit="10" stroke-linecap="round"/>
<path d="M19.637 26.4431C20.534 25.3411 21.0459 24.6941 21.7249 23.9771" stroke="#F7E05D" stroke-width="6" stroke-miterlimit="10" stroke-linecap="round"/>
<path d="M25.5161 59.861C25.5161 55.002 29.4551 51.062 34.3141 51.062C39.1731 51.062 43.1131 55.001 43.1131 59.861" stroke="#2D2E30" stroke-width="6" stroke-miterlimit="10" stroke-linecap="round"/>
<path d="M68.8882 59.861C68.8882 55.002 72.8272 51.062 77.6872 51.062C82.5462 51.062 86.4852 55.001 86.4852 59.861" stroke="#2D2E30" stroke-width="6" stroke-miterlimit="10" stroke-linecap="round"/>
<path d="M37.2291 75.3852H23.5901C17.3941 75.3852 12.3711 70.3622 12.3711 64.1662V53.6062C12.3711 47.4102 17.3941 42.3872 23.5901 42.3872H37.2291C43.4251 42.3872 48.4481 47.4092 48.4481 53.6062V64.1662C48.4481 70.3612 43.4251 75.3852 37.2291 75.3852Z" stroke="#2D2E30" stroke-width="6" stroke-miterlimit="10" stroke-linecap="round"/>
<path d="M86.9449 75.3852H73.3059C67.1099 75.3852 62.0869 70.3622 62.0869 64.1662V53.6062C62.0869 47.4102 67.1099 42.3872 73.3059 42.3872H86.9449C93.1409 42.3872 98.1639 47.4092 98.1639 53.6062V64.1662C98.1639 70.3612 93.1409 75.3852 86.9449 75.3852Z" stroke="#2D2E30" stroke-width="6" stroke-miterlimit="10" stroke-linecap="round"/>
<path d="M50.6479 56H59.448" stroke="#2D2E30" stroke-width="6" stroke-miterlimit="10" stroke-linecap="round"/>
</svg>
