<svg width="117" height="130" viewBox="0 0 117 130" fill="none" xmlns="http://www.w3.org/2000/svg">
<path d="M58.5301 129.918C26.3101 129.972 0.0530838 103.802 8.37508e-05 71.581C-0.0279163 54.993 6.96607 39.252 19.2401 28.155C19.0871 25.203 18.7961 22.687 18.3731 20.661C18.3481 20.546 18.3261 20.42 18.3081 20.294C18.0371 18.496 17.6241 16.853 17.2591 15.405C16.3191 11.668 14.3641 3.90403 22.5711 0.890032C24.0481 0.346032 25.8461 0.0690308 27.9151 0.0660308C33.3171 0.0570308 41.8121 2.01703 47.9991 7.56703C49.9341 9.18903 51.6381 11.112 53.0811 13.301C54.1321 13.203 55.1811 13.134 56.2281 13.093C55.4321 9.02203 55.2911 3.30803 62.0561 0.824032C63.5331 0.280032 65.3311 0.00303085 67.4001 3.08495e-05C72.8021 -0.00896915 81.2961 1.95003 87.4841 7.50103C93.1121 12.219 96.6841 19.413 97.8551 28.365C109.924 39.403 116.838 55.014 116.865 71.387C116.919 103.608 90.7501 129.865 58.5301 129.918Z" fill="url(#paint0_linear_35_11286)"/>
<path d="M58.5253 126.844C28.0003 126.895 3.12527 102.102 3.07527 71.577C3.04827 55.315 10.0623 40.063 22.3753 29.491C22.2433 25.73 21.9093 22.554 21.3823 20.034C21.3703 19.977 21.3603 19.92 21.3523 19.863C21.0553 17.889 20.6213 16.167 20.2403 14.648C19.3043 10.93 18.0243 5.837 23.6323 3.777C24.7723 3.358 26.2163 3.144 27.9213 3.141C32.7973 3.133 40.4443 4.897 45.9853 9.891C48.1603 11.705 50.0003 13.945 51.4753 16.571C53.7713 16.279 56.0733 16.13 58.3423 16.126C58.9283 16.125 59.5193 16.134 60.1123 16.152C59.9823 15.606 59.8503 15.083 59.7243 14.581C58.7893 10.862 57.5083 5.77 63.1173 3.71C64.2573 3.291 65.7003 3.077 67.4063 3.074C72.2813 3.066 79.9283 4.83 85.4703 9.823C90.7603 14.235 94.0203 21.149 94.9393 29.878C106.909 40.386 113.765 55.443 113.792 71.391C113.842 101.917 89.0503 126.793 58.5253 126.844Z" fill="url(#paint1_linear_35_11286)"/>
<path d="M58.4334 123.769C87.3091 123.769 110.717 100.361 110.717 71.4849C110.717 42.6093 87.3091 19.2009 58.4334 19.2009C29.5578 19.2009 6.14941 42.6093 6.14941 71.4849C6.14941 100.361 29.5578 123.769 58.4334 123.769Z" fill="url(#paint2_linear_35_11286)"/>
<path d="M58.505 115.186C48.18 115.203 38.29 111.387 30.656 104.441C27.292 101.38 27.046 96.172 30.107 92.808C33.167 89.444 38.376 89.198 41.74 92.259C46.328 96.433 52.272 98.726 58.477 98.716C64.682 98.706 70.619 96.393 75.193 92.204C78.545 89.131 83.756 89.36 86.828 92.714C89.9 96.068 89.672 101.277 86.318 104.349C78.707 111.32 68.83 115.169 58.505 115.186Z" fill="url(#paint3_linear_35_11286)"/>
<path d="M52.4892 39.5809C51.5622 51.8309 51.3832 62.6779 52.8992 69.9259C54.0142 77.3209 56.8232 81.1159 52.6002 82.6669C49.1772 83.9239 39.4452 82.6699 33.3212 77.1149C26.7952 71.7069 23.8752 61.9969 24.8022 49.7479C25.7292 37.4979 25.9072 26.6509 24.3912 19.4029C23.2762 12.0079 20.4672 8.21291 24.6902 6.66191C28.1132 5.40491 37.8442 6.65891 43.9692 12.2139C50.4962 17.6219 53.4162 27.3309 52.4892 39.5809Z" fill="url(#paint4_linear_35_11286)"/>
<path d="M47.0401 41.576C46.4741 51.139 46.0901 59.751 46.4431 65.754C46.6011 71.829 47.4951 75.294 44.9831 76.217C42.8601 76.997 37.7681 75.073 34.5721 70.113C31.1811 65.226 29.6851 57.304 30.2521 47.741C30.8191 38.179 31.1981 29.571 30.8441 23.571C30.6841 17.5 29.7911 14.037 32.3011 13.115C35.1061 12.086 41.7971 15.432 44.8281 23.171C43.2791 26.317 41.5091 29.543 39.6071 32.818C41.9521 31.993 44.2961 31.167 46.6411 30.342C47.1081 33.727 47.1751 37.532 47.0401 41.576Z" fill="url(#paint5_linear_35_11286)"/>
<path d="M91.9742 39.516C91.0472 51.766 90.8682 62.613 92.3842 69.861C93.4992 77.256 96.3082 81.051 92.0862 82.602C88.6632 83.859 78.9312 82.605 72.8072 77.05C66.2812 71.642 63.3612 61.933 64.2882 49.683C65.2152 37.434 65.3932 26.586 63.8772 19.338C62.7632 11.943 59.9532 8.14797 64.1762 6.59697C67.5992 5.33997 77.3302 6.59397 83.4552 12.149C89.9812 17.556 92.9012 27.266 91.9742 39.516Z" fill="url(#paint6_linear_35_11286)"/>
<path d="M86.5254 41.5109C85.9594 51.0739 85.5754 59.6859 85.9284 65.6889C86.0864 71.7639 86.9804 75.2289 84.4684 76.1519C82.3444 76.9319 77.2534 75.0069 74.0574 70.0479C70.6664 65.1609 69.1704 57.2389 69.7374 47.6759C70.3034 38.1139 70.6834 29.5059 70.3294 23.5059C70.1694 17.4349 69.2764 13.9719 71.7864 13.0499C74.5914 12.0209 81.2824 15.3659 84.3134 23.1059C82.7644 26.2519 80.9944 29.4779 79.0924 32.7529C81.4364 31.9269 83.7814 31.1019 86.1264 30.2769C86.5934 33.6619 86.6604 37.4659 86.5254 41.5109Z" fill="url(#paint7_linear_35_11286)"/>
<path d="M58.4775 98.2841L58.5075 115.943" stroke="url(#paint8_linear_35_11286)" stroke-width="3" stroke-miterlimit="10" stroke-linejoin="round"/>
<path d="M45.8558 94.4769L36.8828 109.687" stroke="url(#paint9_linear_35_11286)" stroke-width="3" stroke-miterlimit="10" stroke-linejoin="round"/>
<path d="M71.9072 94.433L80.9302 109.614" stroke="url(#paint10_linear_35_11286)" stroke-width="3" stroke-miterlimit="10" stroke-linejoin="round"/>
<path d="M58.505 115.186C48.18 115.203 38.29 111.387 30.656 104.441C27.292 101.38 27.046 96.172 30.107 92.808C33.167 89.444 38.376 89.198 41.74 92.259C46.328 96.433 52.272 98.726 58.477 98.716C64.682 98.706 70.619 96.393 75.193 92.204C78.545 89.131 83.756 89.36 86.828 92.714C89.9 96.068 89.672 101.277 86.318 104.349C78.707 111.32 68.83 115.169 58.505 115.186Z" stroke="url(#paint11_linear_35_11286)" stroke-width="3" stroke-miterlimit="10" stroke-linecap="round" stroke-linejoin="round"/>
<defs>
<linearGradient id="paint0_linear_35_11286" x1="58.4327" y1="130.077" x2="58.4327" y2="2.45464" gradientUnits="userSpaceOnUse">
<stop stop-color="#C9CCD1"/>
<stop offset="1" stop-color="white"/>
</linearGradient>
<linearGradient id="paint1_linear_35_11286" x1="58.433" y1="127.9" x2="58.433" y2="7.6204" gradientUnits="userSpaceOnUse">
<stop offset="1e-08" stop-color="#1F1F1F"/>
<stop offset="1" stop-color="#0A0A0A"/>
</linearGradient>
<linearGradient id="paint2_linear_35_11286" x1="58.522" y1="123.769" x2="58.3425" y2="18.1915" gradientUnits="userSpaceOnUse">
<stop offset="2.6e-07" stop-color="#3700FF"/>
<stop offset="1" stop-color="#FF00E6"/>
</linearGradient>
<linearGradient id="paint3_linear_35_11286" x1="58.4772" y1="115.705" x2="58.4772" y2="100.438" gradientUnits="userSpaceOnUse">
<stop stop-color="#C9CCD1"/>
<stop offset="1" stop-color="white"/>
</linearGradient>
<linearGradient id="paint4_linear_35_11286" x1="38.6456" y1="83.913" x2="38.6456" y2="5.94611" gradientUnits="userSpaceOnUse">
<stop stop-color="#C9CCD1"/>
<stop offset="1" stop-color="white"/>
</linearGradient>
<linearGradient id="paint5_linear_35_11286" x1="38.6183" y1="80.8647" x2="38.6183" y2="9.96876" gradientUnits="userSpaceOnUse">
<stop stop-color="#0A0A0A"/>
<stop offset="1" stop-color="#1F1F1F"/>
</linearGradient>
<linearGradient id="paint6_linear_35_11286" x1="78.1305" y1="83.9131" x2="78.1305" y2="5.94607" gradientUnits="userSpaceOnUse">
<stop stop-color="#C9CCD1"/>
<stop offset="1" stop-color="white"/>
</linearGradient>
<linearGradient id="paint7_linear_35_11286" x1="78.1036" y1="80.8646" x2="78.1036" y2="9.96873" gradientUnits="userSpaceOnUse">
<stop stop-color="#0A0A0A"/>
<stop offset="1" stop-color="#1F1F1F"/>
</linearGradient>
<linearGradient id="paint8_linear_35_11286" x1="56.9921" y1="107.116" x2="59.9927" y2="107.111" gradientUnits="userSpaceOnUse">
<stop offset="1.3e-07" stop-color="#141414"/>
<stop offset="1" stop-color="#141414"/>
</linearGradient>
<linearGradient id="paint9_linear_35_11286" x1="35.5795" y1="102.091" x2="47.1594" y2="102.072" gradientUnits="userSpaceOnUse">
<stop offset="1.3e-07" stop-color="#141414"/>
<stop offset="1" stop-color="#141414"/>
</linearGradient>
<linearGradient id="paint10_linear_35_11286" x1="82.2083" y1="102.014" x2="70.6291" y2="102.033" gradientUnits="userSpaceOnUse">
<stop offset="1.3e-07" stop-color="#141414"/>
<stop offset="1" stop-color="#141414"/>
</linearGradient>
<linearGradient id="paint11_linear_35_11286" x1="26.4636" y1="102.613" x2="90.4908" y2="102.613" gradientUnits="userSpaceOnUse">
<stop offset="1.3e-07" stop-color="#141414"/>
<stop offset="1" stop-color="#141414"/>
</linearGradient>
</defs>
</svg>
