<svg width="112" height="114" viewBox="0 0 112 114" fill="none" xmlns="http://www.w3.org/2000/svg">
<path d="M56 112C86.9279 112 112 86.9279 112 56C112 25.0721 86.9279 0 56 0C25.0721 0 0 25.0721 0 56C0 86.9279 25.0721 112 56 112Z" fill="#E5BF2B"/>
<path d="M34.4312 112.81L28.7501 109.788C26.8431 108.773 25.6501 106.789 25.6501 104.628V59H43.0181V107.649C43.0181 112.059 38.3232 114.879 34.4312 112.81Z" fill="#5F98D1"/>
<path d="M77.569 112.81L83.2499 109.788C85.1579 108.773 86.35 106.789 86.35 104.628V59H68.981V107.649C68.981 112.059 73.676 114.879 77.569 112.81Z" fill="#5F98D1"/>
<path d="M25.6501 59H43.0181" stroke="#2D2E30" stroke-width="6" stroke-miterlimit="10" stroke-linecap="round"/>
<path d="M68.9812 59H86.3492" stroke="#2D2E30" stroke-width="6" stroke-miterlimit="10" stroke-linecap="round"/>
<path d="M30.282 15.746C37.665 10.891 46.5029 8.06396 55.9999 8.06396" stroke="#F7E05D" stroke-width="6" stroke-miterlimit="10" stroke-linecap="round"/>
<path d="M19.637 25.3669C20.533 24.2639 21.046 23.6179 21.725 22.9009" stroke="#F7E05D" stroke-width="6" stroke-miterlimit="10" stroke-linecap="round"/>
<path d="M56.0321 71.3228C52.3831 71.3228 49.0201 72.5457 46.3291 74.6017C44.3461 76.1187 45.4921 79.3077 47.9881 79.2997L64.0271 79.2507C66.5201 79.2427 67.6521 76.0498 65.6621 74.5458C62.9831 72.5228 59.6471 71.3228 56.0321 71.3228Z" fill="#2D2E30"/>
</svg>
