<svg width="163" height="148" viewBox="0 0 163 148" fill="none" xmlns="http://www.w3.org/2000/svg">
<path d="M123.022 147.7C120.469 147.7 117.9 147.061 115.59 145.853L85.4188 129.955L55.2378 145.792C52.9388 146.99 50.4848 147.608 47.9378 147.633C43.1608 147.633 38.6828 145.565 35.6248 141.959C32.5668 138.361 31.2788 133.614 32.0908 128.936L33.7918 119.085C33.3238 118.962 32.8718 118.786 32.4458 118.562L31.2618 117.935L30.0798 118.555C29.1488 119.039 28.1178 119.291 27.0868 119.291C25.1628 119.291 23.3618 118.449 22.1448 116.98C20.9348 115.561 20.4088 113.649 20.7318 111.765L20.9608 110.434L20.0058 109.498C18.5088 108.047 17.8308 106.006 18.1258 103.984L14.5108 105.88C13.5438 106.396 12.4358 106.674 11.3238 106.674C9.31578 106.674 7.40578 105.788 6.08178 104.244C4.76578 102.668 4.21978 100.639 4.55778 98.645L5.33278 94.148L2.06678 90.956C0.186781 89.109 -0.472219 86.413 0.344781 83.917C1.14078 81.424 3.26678 79.629 5.88478 79.251L10.3958 78.603L12.4178 74.514C12.8668 73.617 13.4848 72.851 14.2228 72.245L13.4928 71.53C9.11678 67.261 7.57178 60.991 9.46578 55.171C11.3658 49.349 16.3068 45.192 22.3618 44.319L56.1018 39.442L71.2218 8.88699C73.9148 3.45199 79.3498 0.047 85.4068 0C90.9308 0 95.9118 2.702 98.8498 7.168C99.4658 6.86 100.14 6.64899 100.85 6.55099L102.161 6.358L102.759 5.15199C103.832 2.95099 106.045 1.57199 108.528 1.57199C111.016 1.57199 113.232 2.958 114.311 5.19L114.892 6.37L116.221 6.565C118.671 6.923 120.663 8.608 121.417 10.963C121.52 11.276 121.598 11.593 121.652 11.911C121.743 11.907 121.836 11.905 121.928 11.905C124.556 11.905 126.916 13.37 128.087 15.728L130.107 19.834L134.616 20.49C137.21 20.865 139.333 22.656 140.153 25.164C140.962 27.696 140.286 30.388 138.394 32.209L135.143 35.38L135.91 39.881C136.064 40.779 136.035 41.688 135.836 42.558L148.642 44.426C154.691 45.311 159.622 49.477 161.514 55.298C163.403 61.122 161.85 67.392 157.46 71.663L143.125 85.609C143.995 86.216 144.716 87.042 145.21 88.036L145.806 89.253L147.134 89.448C149.571 89.807 151.56 91.486 152.325 93.83C153.082 96.193 152.451 98.718 150.681 100.435L149.729 101.365L149.955 102.678C150.265 104.59 149.74 106.493 148.518 107.927C147.324 109.365 145.523 110.207 143.601 110.207C142.572 110.207 141.541 109.954 140.621 109.477L139.417 108.84L138.234 109.461C137.383 109.902 136.464 110.153 135.546 110.199L138.764 129.041C139.554 133.669 138.283 138.375 135.278 141.955C132.261 145.567 127.837 147.662 123.144 147.698C123.136 147.698 123.129 147.698 123.121 147.698H123.022V147.7Z" fill="url(#paint0_linear_35_11306)"/>
<path d="M155.417 69.5611L131.978 92.3651C132.037 92.3551 132.095 92.3361 132.164 92.3261L135.006 91.9161L136.285 89.3381C136.881 88.1271 138.092 87.3851 139.43 87.3851C140.778 87.3851 141.989 88.1371 142.584 89.3381L143.854 91.9261L146.706 92.3461C148.034 92.5411 149.118 93.4501 149.538 94.7391C149.948 96.0181 149.606 97.3951 148.639 98.3331L146.578 100.345L147.066 103.177C147.232 104.203 146.959 105.238 146.285 106.029C145.621 106.83 144.635 107.279 143.599 107.279C143.033 107.279 142.476 107.142 141.968 106.879L139.419 105.531L136.87 106.869C136.362 107.133 135.796 107.279 135.239 107.279C134.204 107.279 133.217 106.82 132.553 106.019C131.879 105.228 131.596 104.193 131.781 103.167L132.269 100.325L130.609 98.7141L135.873 129.536C136.518 133.316 135.482 137.154 133.031 140.074C130.56 143.033 126.937 144.742 123.118 144.772H123.02C120.93 144.772 118.83 144.245 116.945 143.258L85.4201 126.646L53.8751 143.2C52.0001 144.177 49.9882 144.684 47.9082 144.704C43.9822 144.704 40.3591 143.014 37.8591 140.065C35.3681 137.135 34.3142 133.258 34.9782 129.439L37.3321 115.805C36.7661 116.156 36.1312 116.371 35.4472 116.371C34.8812 116.371 34.3142 116.234 33.8162 115.971L31.2672 114.623L28.7182 115.961C28.2102 116.225 27.6442 116.361 27.0872 116.361C26.0422 116.361 25.0651 115.912 24.4011 115.111C23.7271 114.32 23.4442 113.285 23.6202 112.259L24.1082 109.417L22.0571 107.405C21.0901 106.467 20.7481 105.081 21.1681 103.801C21.3541 103.225 21.6862 102.727 22.1152 102.326L18.5502 100.451L13.1491 103.284C12.5831 103.587 11.9482 103.743 11.3232 103.743C10.1612 103.743 9.06715 103.225 8.30515 102.337C7.56315 101.448 7.25015 100.286 7.44615 99.134L8.48115 93.1271L4.11515 88.8591C3.04115 87.8041 2.66015 86.2611 3.12915 84.8251C3.58815 83.3891 4.80915 82.3641 6.30315 82.1491L12.3382 81.2801L15.0431 75.8111C15.7171 74.4631 17.0641 73.6231 18.5681 73.6231C19.1341 73.6231 19.6722 73.7401 20.1602 73.9551L15.5411 69.4331C11.9571 65.9371 10.7071 60.8191 12.2501 56.0731C13.8031 51.3171 17.8361 47.9281 22.7781 47.2151L58.0441 42.1171L73.8462 10.1811C76.0432 5.74706 80.4771 2.96405 85.4291 2.92505C90.5271 2.92505 95.0101 5.71805 97.2171 10.201L98.2812 12.369C98.3102 12.193 98.3491 12.0081 98.4081 11.8321C98.8281 10.5531 99.9121 9.63505 101.25 9.44905L104.102 9.02905L105.381 6.45105C105.967 5.25005 107.178 4.49806 108.526 4.49806C109.874 4.49806 111.085 5.25006 111.671 6.46106L112.941 9.03906L115.793 9.45906C117.131 9.65406 118.215 10.5721 118.625 11.8521C119.045 13.1311 118.703 14.5091 117.736 15.4461L115.666 17.4581L116.154 20.3C116.232 20.759 116.203 21.2181 116.105 21.6671L118.4 17.0181C119.074 15.6701 120.422 14.8301 121.925 14.8301C123.439 14.8301 124.787 15.6701 125.461 17.0271L128.156 22.5061L134.192 23.3851C135.686 23.6001 136.897 24.6351 137.366 26.0711C137.825 27.5071 137.444 29.0501 136.36 30.0951L131.994 34.3531L133.019 40.369C133.214 41.512 132.892 42.6741 132.15 43.5621C131.681 44.1091 131.086 44.4901 130.421 44.7241L148.215 47.3221C153.157 48.0451 157.18 51.4531 158.723 56.2001C160.271 60.9571 159.001 66.0741 155.417 69.5611Z" fill="url(#paint1_linear_35_11306)"/>
<path d="M123.095 141.838C121.451 141.849 119.798 141.443 118.316 140.662L85.5872 123.416C85.5382 123.391 85.4852 123.378 85.4272 123.378C85.3732 123.378 85.3202 123.391 85.2722 123.416L52.5132 140.601C51.0572 141.364 49.5012 141.757 47.8882 141.768C44.8942 141.789 42.0542 140.478 40.0972 138.171C38.1692 135.897 37.3552 132.897 37.8662 129.937L44.1532 93.4809C44.1712 93.3719 44.1352 93.2609 44.0562 93.1839L17.5872 67.3369C14.8172 64.6309 13.8402 60.6629 15.0412 56.9799C16.2412 53.2969 19.3682 50.6649 23.2032 50.1109L59.8172 44.8249C59.9272 44.8089 60.0212 44.7399 60.0702 44.6409L76.4732 11.4819C78.1752 8.03989 81.6182 5.88589 85.4562 5.85889C89.3642 5.83189 92.8642 7.99189 94.5902 11.4989L110.932 44.6869C110.98 44.7859 111.075 44.8559 111.185 44.8709L147.79 50.2249C151.622 50.7849 154.745 53.4219 155.939 57.1079C157.132 60.7929 156.149 64.7599 153.373 67.4619L126.858 93.2599C126.778 93.3379 126.742 93.4479 126.761 93.5559L132.981 130.024C133.481 132.954 132.682 135.932 130.787 138.193C128.866 140.489 126.062 141.817 123.095 141.838Z" fill="url(#paint2_linear_35_11306)"/>
<path d="M90.2115 13.6559L106.553 46.845C107.312 48.386 108.78 49.4549 110.48 49.7039L147.085 55.0569C151.365 55.6829 153.07 60.9449 149.969 63.9619L123.454 89.7599C122.223 90.9579 121.66 92.685 121.949 94.378L128.169 130.846C128.896 135.11 124.418 138.358 120.591 136.341L87.8625 119.096C86.3425 118.295 84.5265 118.294 83.0045 119.092L50.2435 136.277C46.4125 138.287 41.9405 135.031 42.6755 130.768L48.9625 94.312C49.2545 92.619 48.6945 90.8909 47.4655 89.6909L20.9975 63.8439C17.9025 60.8219 19.6165 55.562 23.8985 54.944L60.5135 49.6579C62.2135 49.4129 63.6845 48.346 64.4455 46.806L80.8485 13.6469C82.7685 9.76994 88.3005 9.77494 90.2115 13.6559Z" fill="url(#paint3_linear_35_11306)"/>
<path d="M62.7613 111.899C60.7563 109.862 60.7823 106.585 62.8193 104.58L70.1243 97.3318L77.3863 104.709L70.0813 111.957C68.0433 113.962 64.7663 113.936 62.7613 111.899Z" fill="url(#paint4_linear_35_11306)"/>
<path d="M68.1025 106.288L73.1135 101.432" stroke="url(#paint5_linear_35_11306)" stroke-miterlimit="10" stroke-linecap="round" stroke-linejoin="round"/>
<path d="M102.526 89.2869C102.451 98.8249 94.6579 106.497 85.1189 106.421C75.5809 106.346 67.9089 98.5529 67.9849 89.0139" stroke="url(#paint6_linear_35_11306)" stroke-width="3" stroke-miterlimit="10" stroke-linecap="round" stroke-linejoin="round"/>
<path d="M64.2119 88.0468C64.2119 88.0468 67.3669 89.8588 72.2839 87.3818" stroke="url(#paint7_linear_35_11306)" stroke-width="3" stroke-miterlimit="10" stroke-linecap="round" stroke-linejoin="round"/>
<path d="M106.567 88.3809C106.567 88.3809 103.384 90.1429 98.5068 87.5889" stroke="url(#paint8_linear_35_11306)" stroke-width="3" stroke-miterlimit="10" stroke-linecap="round" stroke-linejoin="round"/>
<path d="M75.877 37.2268L81.844 45.4708" stroke="url(#paint9_linear_35_11306)" stroke-width="3" stroke-miterlimit="10" stroke-linecap="round" stroke-linejoin="round"/>
<path d="M94.6535 37.2268L88.6855 45.4708" stroke="url(#paint10_linear_35_11306)" stroke-width="3" stroke-miterlimit="10" stroke-linecap="round" stroke-linejoin="round"/>
<path d="M77.8114 67.08C77.8114 68.721 77.7234 70.332 77.5474 71.875L62.5854 74.424L56.6284 75.43C56.1304 72.842 55.8574 70.019 55.8574 67.06C55.8674 54.579 60.7994 44.461 66.8544 44.471C69.3154 44.471 71.5814 46.141 73.4074 48.963C74.6864 50.916 75.7414 53.426 76.5034 56.327C76.8454 57.636 77.1284 59.022 77.3434 60.468C77.6454 62.559 77.8114 64.776 77.8114 67.08Z" fill="url(#paint11_linear_35_11306)"/>
<path d="M77.8113 67.0799C77.8113 68.7209 77.7233 70.3319 77.5473 71.8749L62.5853 74.4239C62.1943 72.1489 61.9893 69.6679 61.9893 67.0599C61.9993 56.2199 65.7003 47.4399 70.2423 47.4399C71.3653 47.4499 72.4303 47.9869 73.4063 48.9629C74.6853 50.9159 75.7403 53.4259 76.5023 56.3269L71.0913 60.4089L77.3413 60.4679C77.6453 62.5589 77.8113 64.7759 77.8113 67.0799Z" fill="url(#paint12_linear_35_11306)"/>
<path d="M54.3633 75.825L79.6493 71.511" stroke="url(#paint13_linear_35_11306)" stroke-width="3" stroke-miterlimit="10" stroke-linecap="round" stroke-linejoin="round"/>
<path d="M92.7002 67.08C92.7002 68.721 92.7882 70.332 92.9642 71.875L107.926 74.424L113.884 75.43C114.382 72.842 114.655 70.019 114.655 67.06C114.645 54.579 109.713 44.461 103.658 44.471C101.197 44.471 98.9312 46.141 97.1052 48.963C95.8262 50.916 94.7712 53.426 94.0092 56.327C93.6672 57.636 93.3842 59.022 93.1692 60.468C92.8662 62.559 92.7002 64.776 92.7002 67.08Z" fill="url(#paint14_linear_35_11306)"/>
<path d="M92.7002 67.0799C92.7002 68.7209 92.7882 70.3319 92.9642 71.8749L107.926 74.4239C108.317 72.1489 108.522 69.6679 108.522 67.0599C108.512 56.2199 104.811 47.4399 100.27 47.4399C99.1472 47.4499 98.0822 47.9869 97.1062 48.9629C95.8272 50.9159 94.7722 53.4259 94.0102 56.3269L99.4202 60.4089L93.1692 60.4679C92.8662 62.5589 92.7002 64.7759 92.7002 67.0799Z" fill="url(#paint15_linear_35_11306)"/>
<path d="M116.148 75.825L90.8623 71.511" stroke="url(#paint16_linear_35_11306)" stroke-width="3" stroke-miterlimit="10" stroke-linecap="round" stroke-linejoin="round"/>
<path d="M122.832 18.322L125.975 24.705C126.121 25.001 126.403 25.207 126.73 25.255L133.77 26.284C134.593 26.404 134.921 27.416 134.325 27.997L129.226 32.959C128.989 33.189 128.881 33.522 128.937 33.847L130.133 40.86C130.273 41.68 129.412 42.305 128.676 41.917L122.382 38.6C122.09 38.446 121.74 38.446 121.448 38.599L115.148 41.904C114.411 42.29 113.551 41.664 113.692 40.844L114.901 33.833C114.957 33.507 114.85 33.175 114.613 32.944L109.523 27.973C108.928 27.392 109.257 26.38 110.081 26.261L117.123 25.244C117.45 25.197 117.733 24.992 117.879 24.696L121.033 18.319C121.4 17.575 122.464 17.576 122.832 18.322Z" fill="url(#paint17_linear_35_11306)"/>
<path d="M19.4769 77.1101L22.6199 83.4931C22.7659 83.7901 23.0479 83.995 23.3749 84.043L30.4149 85.0721C31.2379 85.1921 31.5659 86.205 30.9699 86.785L25.8709 91.746C25.6339 91.976 25.5259 92.309 25.5809 92.634L26.7769 99.647C26.9169 100.467 26.0559 101.092 25.3199 100.704L19.0259 97.3871C18.7339 97.2331 18.3839 97.2331 18.0919 97.3861L11.7919 100.691C11.0549 101.078 10.1949 100.451 10.3359 99.6321L11.5449 92.621C11.6009 92.295 11.4939 91.9631 11.2569 91.7321L6.16685 86.7611C5.57185 86.1801 5.90086 85.1681 6.72486 85.0491L13.7669 84.0321C14.0939 83.9851 14.3769 83.7801 14.5229 83.4841L17.6769 77.1071C18.0459 76.3631 19.1099 76.3641 19.4769 77.1101Z" fill="url(#paint18_linear_35_11306)"/>
<path d="M109.046 7.75296L110.864 11.445C110.948 11.616 111.112 11.735 111.301 11.763L115.373 12.358C115.849 12.428 116.039 13.013 115.694 13.349L112.744 16.219C112.607 16.352 112.545 16.544 112.577 16.733L113.269 20.79C113.35 21.264 112.852 21.626 112.426 21.401L108.785 19.483C108.616 19.394 108.414 19.394 108.245 19.483L104.601 21.395C104.175 21.619 103.677 21.256 103.759 20.782L104.458 16.727C104.49 16.539 104.428 16.346 104.291 16.213L101.347 13.338C101.003 13.002 101.193 12.417 101.67 12.348L105.743 11.76C105.932 11.733 106.096 11.614 106.18 11.443L108.005 7.75396C108.218 7.31996 108.833 7.32096 109.046 7.75296Z" fill="url(#paint19_linear_35_11306)"/>
<path d="M139.953 90.6359L141.771 94.3279C141.856 94.4989 142.019 94.6179 142.208 94.6459L146.28 95.2419C146.756 95.3119 146.946 95.8969 146.601 96.2319L143.651 99.1019C143.514 99.2349 143.451 99.4279 143.483 99.6159L144.175 103.673C144.256 104.147 143.758 104.509 143.332 104.284L139.691 102.366C139.522 102.277 139.32 102.277 139.151 102.366L135.507 104.278C135.081 104.502 134.583 104.139 134.665 103.665L135.364 99.6099C135.396 99.4219 135.334 99.2289 135.198 99.0959L132.254 96.2209C131.91 95.8849 132.1 95.2999 132.577 95.2309L136.65 94.6429C136.839 94.6159 137.003 94.4969 137.087 94.3259L138.912 90.6369C139.125 90.2039 139.74 90.2039 139.953 90.6359Z" fill="url(#paint20_linear_35_11306)"/>
<path d="M31.8003 99.7271L33.6183 103.419C33.7023 103.591 33.8663 103.709 34.0553 103.737L38.1273 104.332C38.6033 104.402 38.7933 104.987 38.4483 105.323L35.4983 108.193C35.3613 108.326 35.2983 108.518 35.3313 108.707L36.0233 112.764C36.1043 113.238 35.6063 113.6 35.1803 113.375L31.5393 111.457C31.3703 111.368 31.1683 111.368 30.9993 111.457L27.3553 113.369C26.9293 113.593 26.4313 113.231 26.5133 112.756L27.2123 108.701C27.2443 108.513 27.1823 108.32 27.0463 108.187L24.1023 105.312C23.7583 104.976 23.9483 104.391 24.4253 104.322L28.4983 103.734C28.6873 103.707 28.8513 103.588 28.9353 103.417L30.7603 99.7281C30.9723 99.2941 31.5883 99.2951 31.8003 99.7271Z" fill="url(#paint21_linear_35_11306)"/>
<defs>
<linearGradient id="paint0_linear_35_11306" x1="81.1537" y1="-1.3588" x2="81.1537" y2="148.209" gradientUnits="userSpaceOnUse">
<stop stop-color="#C9CCD1"/>
<stop offset="1" stop-color="white"/>
</linearGradient>
<linearGradient id="paint1_linear_35_11306" x1="81.1541" y1="1.62445" x2="81.1541" y2="145.259" gradientUnits="userSpaceOnUse">
<stop offset="1e-08" stop-color="#1F1F1F"/>
<stop offset="1" stop-color="#0A0A0A"/>
</linearGradient>
<linearGradient id="paint2_linear_35_11306" x1="74.2072" y1="8.07161" x2="104.098" y2="146.168" gradientUnits="userSpaceOnUse">
<stop offset="7e-08" stop-color="#FF8800"/>
<stop offset="1" stop-color="#FFFB00"/>
</linearGradient>
<linearGradient id="paint3_linear_35_11306" x1="75.2405" y1="12.8451" x2="103.065" y2="141.393" gradientUnits="userSpaceOnUse">
<stop stop-color="#FFFB00"/>
<stop offset="1" stop-color="#FF8800"/>
</linearGradient>
<linearGradient id="paint4_linear_35_11306" x1="62.697" y1="111.635" x2="73.4938" y2="101.151" gradientUnits="userSpaceOnUse">
<stop stop-color="#FF0062"/>
<stop offset="1" stop-color="#FB00FF"/>
</linearGradient>
<linearGradient id="paint5_linear_35_11306" x1="67.6217" y1="103.836" x2="73.5946" y2="103.883" gradientUnits="userSpaceOnUse">
<stop stop-color="#0A0A0A"/>
<stop offset="1" stop-color="#1F1F1F"/>
</linearGradient>
<linearGradient id="paint6_linear_35_11306" x1="66.4168" y1="97.6379" x2="103.958" y2="97.9345" gradientUnits="userSpaceOnUse">
<stop offset="1.3e-07" stop-color="#141414"/>
<stop offset="1" stop-color="#141414"/>
</linearGradient>
<linearGradient id="paint7_linear_35_11306" x1="62.7128" y1="87.9787" x2="73.7786" y2="88.0661" gradientUnits="userSpaceOnUse">
<stop offset="1.3e-07" stop-color="#141414"/>
<stop offset="1" stop-color="#141414"/>
</linearGradient>
<linearGradient id="paint8_linear_35_11306" x1="108.067" y1="88.3366" x2="97.0012" y2="88.2491" gradientUnits="userSpaceOnUse">
<stop offset="1.3e-07" stop-color="#141414"/>
<stop offset="1" stop-color="#141414"/>
</linearGradient>
<linearGradient id="paint9_linear_35_11306" x1="74.3771" y1="41.3487" x2="83.3445" y2="41.3487" gradientUnits="userSpaceOnUse">
<stop offset="1.3e-07" stop-color="#141414"/>
<stop offset="1" stop-color="#141414"/>
</linearGradient>
<linearGradient id="paint10_linear_35_11306" x1="96.1533" y1="41.3487" x2="87.1857" y2="41.3487" gradientUnits="userSpaceOnUse">
<stop offset="1.3e-07" stop-color="#141414"/>
<stop offset="1" stop-color="#141414"/>
</linearGradient>
<linearGradient id="paint11_linear_35_11306" x1="66.8339" y1="75.4305" x2="66.8339" y2="44.1728" gradientUnits="userSpaceOnUse">
<stop stop-color="#C9CCD1"/>
<stop offset="1" stop-color="white"/>
</linearGradient>
<linearGradient id="paint12_linear_35_11306" x1="69.9004" y1="74.4244" x2="69.9004" y2="47.18" gradientUnits="userSpaceOnUse">
<stop stop-color="#1F1F1F"/>
<stop offset="1" stop-color="#0A0A0A"/>
</linearGradient>
<linearGradient id="paint13_linear_35_11306" x1="81.1495" y1="73.668" x2="52.8632" y2="73.668" gradientUnits="userSpaceOnUse">
<stop offset="1.3e-07" stop-color="#141414"/>
<stop offset="1" stop-color="#141414"/>
</linearGradient>
<linearGradient id="paint14_linear_35_11306" x1="103.677" y1="75.4305" x2="103.677" y2="44.1728" gradientUnits="userSpaceOnUse">
<stop stop-color="#C9CCD1"/>
<stop offset="1" stop-color="white"/>
</linearGradient>
<linearGradient id="paint15_linear_35_11306" x1="100.611" y1="74.4244" x2="100.611" y2="47.18" gradientUnits="userSpaceOnUse">
<stop stop-color="#1F1F1F"/>
<stop offset="1" stop-color="#0A0A0A"/>
</linearGradient>
<linearGradient id="paint16_linear_35_11306" x1="89.3619" y1="73.668" x2="117.648" y2="73.668" gradientUnits="userSpaceOnUse">
<stop offset="1.3e-07" stop-color="#141414"/>
<stop offset="1" stop-color="#141414"/>
</linearGradient>
<linearGradient id="paint17_linear_35_11306" x1="119.953" y1="18.1666" x2="125.304" y2="42.8885" gradientUnits="userSpaceOnUse">
<stop offset="2.6e-07" stop-color="#3700FF"/>
<stop offset="1" stop-color="#FF00E6"/>
</linearGradient>
<linearGradient id="paint18_linear_35_11306" x1="16.5981" y1="76.9545" x2="21.9492" y2="101.677" gradientUnits="userSpaceOnUse">
<stop offset="2.6e-07" stop-color="#3700FF"/>
<stop offset="1" stop-color="#FF00E6"/>
</linearGradient>
<linearGradient id="paint19_linear_35_11306" x1="107.381" y1="7.66253" x2="110.476" y2="21.9622" gradientUnits="userSpaceOnUse">
<stop offset="2.6e-07" stop-color="#3700FF"/>
<stop offset="1" stop-color="#FF00E6"/>
</linearGradient>
<linearGradient id="paint20_linear_35_11306" x1="138.287" y1="90.5455" x2="141.382" y2="104.845" gradientUnits="userSpaceOnUse">
<stop offset="2.6e-07" stop-color="#3700FF"/>
<stop offset="1" stop-color="#FF00E6"/>
</linearGradient>
<linearGradient id="paint21_linear_35_11306" x1="30.1353" y1="99.6365" x2="33.2304" y2="113.936" gradientUnits="userSpaceOnUse">
<stop offset="2.6e-07" stop-color="#3700FF"/>
<stop offset="1" stop-color="#FF00E6"/>
</linearGradient>
</defs>
</svg>
