<svg width="126" height="146" viewBox="0 0 126 146" fill="none" xmlns="http://www.w3.org/2000/svg">
<path d="M62.9855 145.632C58.9295 145.652 54.9615 144.882 51.1915 143.342C30.5825 134.933 13.9404 118.488 5.53445 98.2231C1.65045 88.8641 -2.20155 74.4721 1.49545 59.0641C3.03645 52.6481 5.89545 46.5681 9.80145 41.3781C7.48145 34.2161 7.24845 26.3661 9.16445 19.0881C10.0235 15.8191 12.8764 13.6091 16.2624 13.5931C19.2014 13.5791 21.8605 15.3111 23.0355 18.0071C23.8605 19.8991 24.9075 21.7001 26.1425 23.3651C25.2975 20.8621 24.6314 18.3121 24.1464 15.7331C23.6244 12.9521 25.1525 10.1701 27.7815 9.1191C28.4765 8.8411 29.2084 8.69809 29.9564 8.69509C31.9914 8.68509 33.8664 9.69909 34.9734 11.4061C36.1464 13.2171 37.5334 14.9241 39.0944 16.4881C38.7294 12.8441 38.7125 9.19808 39.0485 5.58608C39.3085 2.76908 41.5415 0.514083 44.3585 0.224083C44.5705 0.204083 44.7545 0.194107 44.9375 0.193107C47.5385 0.180107 49.8864 1.9101 50.6464 4.3991C52.8744 11.6901 58.0415 18.3271 64.6275 22.4481C71.1735 18.2631 76.2754 11.5751 78.4314 4.26211C79.1644 1.76611 81.4954 0.0130837 84.0994 8.36508e-05C84.2824 -0.000916349 84.4675 0.00708683 84.6525 0.0220868C87.4985 0.286087 89.7535 2.52008 90.0415 5.33608C90.4125 8.94308 90.4315 12.5881 90.1015 16.2361C91.6475 14.6581 93.0164 12.9381 94.1714 11.1151C95.2624 9.3961 97.1284 8.36408 99.1634 8.35308C99.9114 8.34908 100.644 8.4851 101.342 8.7561C103.536 9.6081 104.981 11.6641 105.122 13.9331C106.122 13.4261 107.243 13.1441 108.412 13.1391C111.798 13.1221 114.672 15.3041 115.565 18.5661C117.552 25.8251 117.396 33.6751 115.146 40.8591C119.102 46.0101 122.02 52.0621 123.624 58.4611C127.471 73.8341 123.76 88.2621 119.969 97.6591C111.762 118.004 95.2815 134.611 74.7565 143.225C71.0005 144.804 67.0405 145.612 62.9855 145.632Z" fill="url(#paint0_linear_35_11214)"/>
<path d="M62.9704 142.661C59.3054 142.679 55.7204 141.983 52.3134 140.592C32.4324 132.479 16.3824 116.621 8.27744 97.0852C4.56344 88.1322 0.873427 74.3882 4.38343 59.7572C5.96043 53.1892 8.97342 47.0642 13.1374 41.9312C10.5154 34.9032 10.1174 27.1332 12.0354 19.8442C12.5484 17.8932 14.2514 16.5732 16.2754 16.5632C18.0264 16.5542 19.6104 17.5872 20.3104 19.1932C22.1834 23.4872 25.0434 27.3082 28.6324 30.3302C29.6554 29.9282 30.7134 29.5782 31.8014 29.2792C29.5664 24.7702 27.9774 20.0462 27.0644 15.1852C26.8024 13.7902 27.5644 12.4052 28.8824 11.8782C29.2374 11.7362 29.6054 11.6672 29.9694 11.6662C30.9574 11.6612 31.9144 12.1522 32.4794 13.0222C35.2154 17.2492 38.9504 20.8852 43.3094 23.6282C41.9104 17.7692 41.4604 11.7342 42.0054 5.86118C42.1354 4.44718 43.2494 3.32517 44.6604 3.17917C44.7584 3.17017 44.8544 3.16515 44.9504 3.16415C46.2494 3.15815 47.4174 4.00315 47.8044 5.26715C50.4394 13.8912 56.6794 21.5062 64.6434 25.9052C72.5664 21.4282 78.7304 13.7521 81.2804 5.10315C81.6534 3.83515 82.8144 2.97817 84.1134 2.97217C84.2094 2.97217 84.3065 2.97616 84.4035 2.98416C85.8164 3.11516 86.9404 4.22716 87.0844 5.63916C87.6874 11.5072 87.2964 17.5462 85.9544 23.4182C90.2864 20.6332 93.9854 16.9602 96.6804 12.7062C97.2364 11.8302 98.1884 11.3302 99.1764 11.3252C99.5404 11.3232 99.9094 11.3882 100.265 11.5272C101.588 12.0412 102.363 13.4182 102.115 14.8162C101.267 19.5912 99.7705 24.2322 97.6535 28.6712C100.533 25.8562 102.841 22.4902 104.416 18.7802C105.102 17.1662 106.676 16.1192 108.425 16.1102C110.447 16.1002 112.165 17.4022 112.697 19.3502C114.687 26.6182 114.365 34.3932 111.811 41.4452C116.026 46.5362 119.098 52.6312 120.74 59.1832C124.394 73.7802 120.838 87.5592 117.212 96.5482C109.299 116.162 93.4054 132.177 73.6044 140.485C70.2144 141.912 66.6364 142.643 62.9704 142.661Z" fill="url(#paint1_linear_35_11214)"/>
<path d="M14.91 20.602C12.766 28.746 13.79 37.719 17.845 45.112L30.64 35.459C24.889 31.921 20.286 26.567 17.588 20.382C17.05 19.148 15.252 19.3 14.91 20.602Z" fill="url(#paint2_linear_35_11214)"/>
<path d="M109.833 20.1372C112.057 28.2592 111.121 37.2422 107.138 44.6752L94.249 35.1482C99.965 31.5542 104.515 26.1552 107.153 19.9442C107.679 18.7042 109.478 18.8392 109.833 20.1372Z" fill="url(#paint3_linear_35_11214)"/>
<path d="M50.8833 47.3842C40.0863 39.6702 32.4343 27.6802 29.9863 14.6382C36.0583 24.0152 46.4263 30.4842 57.5183 31.8162L63.9583 37.0592L50.8833 47.3842Z" fill="url(#paint4_linear_35_11214)"/>
<path d="M56.0661 43.3632C47.8021 32.9812 43.7371 19.3502 44.9641 6.13721C48.2271 16.8212 56.4201 25.8892 66.7201 30.2152L71.4731 37.0252L56.0661 43.3632Z" fill="url(#paint5_linear_35_11214)"/>
<path d="M78.6164 47.2481C89.3374 39.4291 96.8714 27.3641 99.1914 14.2981C93.2114 23.7341 82.9074 30.3051 71.8294 31.7451L65.4404 37.0521L78.6164 47.2481Z" fill="url(#paint6_linear_35_11214)"/>
<path d="M73.3935 43.2781C81.5555 32.8151 85.4865 19.1451 84.1305 5.94507C80.9715 16.6611 72.8685 25.8081 62.6115 30.2351L54.3965 41.3571L73.3935 43.2781Z" fill="url(#paint7_linear_35_11214)"/>
<path d="M117.859 59.9089C114.921 48.1749 106.822 37.4679 95.5994 32.9539C85.2014 28.7719 72.2874 30.7119 64.2794 38.4039C63.2654 39.3779 61.6634 39.3859 60.6404 38.4219C52.5574 30.8079 39.6254 28.9959 29.2684 33.2789C18.0894 37.9019 10.0964 48.6879 7.27341 60.4509C4.45041 72.2139 6.38741 84.7729 11.0224 95.9469C18.8424 114.797 34.5714 130.143 53.4374 137.842C59.5524 140.338 66.3664 140.304 72.4564 137.749C91.2454 129.865 106.824 114.366 114.459 95.4399C118.984 84.2219 120.797 71.6439 117.859 59.9089Z" fill="url(#paint8_linear_35_11214)"/>
<path d="M52.8049 60.0041C52.8579 70.7731 48.6599 79.5311 43.4269 79.5571C38.1949 79.5831 33.9109 70.8671 33.8579 60.0971C33.8409 56.6571 34.2569 53.4221 35.0039 50.6101L37.1209 51.6561L52.7929 59.3961C52.8029 59.5961 52.8039 59.8031 52.8049 60.0041Z" fill="url(#paint9_linear_35_11214)"/>
<path d="M50.048 65.7061L44.096 65.791L49.228 69.63C47.97 74.061 45.839 76.976 43.407 76.988C39.487 77.007 36.2731 69.4381 36.2271 60.0851C36.2121 57.0211 36.542 54.139 37.122 51.655L50.388 58.207C50.415 58.799 50.434 59.407 50.437 60.015C50.446 62.015 50.304 63.9281 50.048 65.7061Z" fill="url(#paint10_linear_35_11214)"/>
<path d="M32.5654 49.405L55.2314 60.6" stroke="url(#paint11_linear_35_11214)" stroke-width="3" stroke-miterlimit="10" stroke-linecap="round" stroke-linejoin="round"/>
<path d="M72.3269 59.9081C72.3799 70.6771 76.6629 79.3941 81.8959 79.3681C87.1289 79.3421 91.3259 70.5851 91.2739 59.8151C91.2569 56.3751 90.8089 53.1441 90.0349 50.3401L87.9279 51.4061L72.3319 59.2991C72.3249 59.5001 72.3259 59.7081 72.3269 59.9081Z" fill="url(#paint12_linear_35_11214)"/>
<path d="M75.1387 65.583L81.0917 65.61L75.9977 69.5C77.2997 73.918 79.4577 76.812 81.8907 76.8C85.8107 76.781 88.9507 69.18 88.9047 59.827C88.8897 56.763 88.5317 53.884 87.9277 51.407L74.7267 58.088C74.7057 58.68 74.6927 59.288 74.6957 59.896C74.7047 61.897 74.8657 63.808 75.1387 65.583Z" fill="url(#paint13_linear_35_11214)"/>
<path d="M92.4613 49.1121L69.9053 60.5281" stroke="url(#paint14_linear_35_11214)" stroke-width="3" stroke-miterlimit="10" stroke-linecap="round" stroke-linejoin="round"/>
<path d="M63.2856 51.6791C62.9506 52.2661 62.1056 52.2701 61.7646 51.6861L60.1716 48.9571C59.1226 47.1611 60.4116 44.9031 62.4916 44.8931C64.5716 44.8831 65.8826 47.1281 64.8516 48.9341L63.2856 51.6791Z" fill="url(#paint15_linear_35_11214)"/>
<path d="M39.978 118.357C39.643 118.944 38.798 118.948 38.457 118.364L36.864 115.636C35.815 113.84 37.1039 111.582 39.1839 111.571C41.2639 111.561 42.575 113.806 41.544 115.613L39.978 118.357Z" fill="url(#paint16_linear_35_11214)"/>
<path d="M84.9711 120.566C84.6361 121.153 83.7911 121.157 83.4501 120.573L81.8571 117.844C80.8081 116.048 82.0971 113.79 84.1771 113.779C86.2571 113.769 87.5682 116.014 86.5372 117.821L84.9711 120.566Z" fill="url(#paint17_linear_35_11214)"/>
<path d="M63.6186 131.878C63.2836 132.465 62.4386 132.469 62.0976 131.885L60.5046 129.156C59.4556 127.36 60.7446 125.102 62.8246 125.091C64.9046 125.081 66.2156 127.326 65.1846 129.133L63.6186 131.878Z" fill="url(#paint18_linear_35_11214)"/>
<path d="M22.0581 60.5771C21.7231 61.1641 20.8781 61.168 20.5371 60.584L18.944 57.8561C17.895 56.0601 19.1841 53.802 21.2641 53.791C23.3441 53.781 24.655 56.026 23.624 57.833L22.0581 60.5771Z" fill="url(#paint19_linear_35_11214)"/>
<path d="M25.979 90.4821C25.644 91.0691 24.799 91.0731 24.458 90.4891L22.8649 87.7601C21.8159 85.9641 23.1049 83.7061 25.1849 83.6951C27.2649 83.6851 28.576 85.9301 27.545 87.7371L25.979 90.4821Z" fill="url(#paint20_linear_35_11214)"/>
<path d="M61.8832 86.255C61.5482 86.842 60.7032 86.846 60.3622 86.262L58.7692 83.533C57.7202 81.737 59.0092 79.479 61.0892 79.469C63.1692 79.459 64.4802 81.704 63.4492 83.511L61.8832 86.255Z" fill="url(#paint21_linear_35_11214)"/>
<path d="M97.6264 94.578C97.2914 95.165 96.4464 95.169 96.1064 94.585L94.5134 91.857C93.4644 90.061 94.7534 87.803 96.8334 87.792C98.9134 87.782 100.224 90.027 99.1934 91.834L97.6264 94.578Z" fill="url(#paint22_linear_35_11214)"/>
<path d="M108.429 70.5241C108.094 71.1111 107.249 71.1151 106.908 70.5311L105.315 67.8021C104.266 66.0061 105.555 63.7481 107.635 63.7381C109.715 63.7281 111.026 65.9731 109.995 67.7801L108.429 70.5241Z" fill="url(#paint23_linear_35_11214)"/>
<path d="M82.7827 99.9112C79.3817 96.1862 71.6387 93.6082 62.6377 93.6522C53.6377 93.6962 45.9197 96.3502 42.5557 100.108" stroke="url(#paint24_linear_35_11214)" stroke-width="3" stroke-miterlimit="10" stroke-linecap="round" stroke-linejoin="round"/>
<path d="M38.9287 98.5962C40.8247 99.5742 42.5577 100.571 44.3327 103.721" stroke="url(#paint25_linear_35_11214)" stroke-width="3" stroke-miterlimit="10" stroke-linecap="round" stroke-linejoin="round"/>
<path d="M86.5659 98.3633C84.6799 99.3593 82.9569 100.374 81.2129 103.541" stroke="url(#paint26_linear_35_11214)" stroke-width="3" stroke-miterlimit="10" stroke-linecap="round" stroke-linejoin="round"/>
<defs>
<linearGradient id="paint0_linear_35_11214" x1="62.624" y1="144.798" x2="62.624" y2="4.46338" gradientUnits="userSpaceOnUse">
<stop stop-color="#C9CCD1"/>
<stop offset="1" stop-color="white"/>
</linearGradient>
<linearGradient id="paint1_linear_35_11214" x1="62.624" y1="140.207" x2="62.624" y2="11.6593" gradientUnits="userSpaceOnUse">
<stop stop-color="#0A0A0A"/>
<stop offset="1" stop-color="#1F1F1F"/>
</linearGradient>
<linearGradient id="paint2_linear_35_11214" x1="16.7241" y1="20.4708" x2="23.8602" y2="39.7463" gradientUnits="userSpaceOnUse">
<stop stop-color="#FB00FF"/>
<stop offset="1" stop-color="#FF0062"/>
</linearGradient>
<linearGradient id="paint3_linear_35_11214" x1="108.016" y1="20.0233" x2="101.07" y2="39.3688" gradientUnits="userSpaceOnUse">
<stop stop-color="#FB00FF"/>
<stop offset="1" stop-color="#FF0062"/>
</linearGradient>
<linearGradient id="paint4_linear_35_11214" x1="30.2245" y1="31.1585" x2="63.8666" y2="30.674" gradientUnits="userSpaceOnUse">
<stop stop-color="#DCF500"/>
<stop offset="1" stop-color="#8AD100"/>
</linearGradient>
<linearGradient id="paint5_linear_35_11214" x1="40.6573" y1="22.0878" x2="73.1387" y2="30.8593" gradientUnits="userSpaceOnUse">
<stop stop-color="#DCF500"/>
<stop offset="1" stop-color="#8AD100"/>
</linearGradient>
<linearGradient id="paint6_linear_35_11214" x1="99.1153" y1="30.8208" x2="65.4702" y2="30.666" gradientUnits="userSpaceOnUse">
<stop stop-color="#DCF500"/>
<stop offset="1" stop-color="#8AD100"/>
</linearGradient>
<linearGradient id="paint7_linear_35_11214" x1="88.5933" y1="21.8533" x2="51.8188" y2="32.1699" gradientUnits="userSpaceOnUse">
<stop stop-color="#DCF500"/>
<stop offset="1" stop-color="#8AD100"/>
</linearGradient>
<linearGradient id="paint8_linear_35_11214" x1="62.4714" y1="40.7133" x2="62.9507" y2="138.527" gradientUnits="userSpaceOnUse">
<stop stop-color="#FB00FF"/>
<stop offset="1" stop-color="#FF0062"/>
</linearGradient>
<linearGradient id="paint9_linear_35_11214" x1="43.4274" y1="79.5563" x2="43.284" y2="50.2892" gradientUnits="userSpaceOnUse">
<stop stop-color="#C9CCD1"/>
<stop offset="1" stop-color="white"/>
</linearGradient>
<linearGradient id="paint10_linear_35_11214" x1="43.4148" y1="76.9881" x2="43.2893" y2="51.3802" gradientUnits="userSpaceOnUse">
<stop offset="1e-08" stop-color="#1F1F1F"/>
<stop offset="1" stop-color="#0A0A0A"/>
</linearGradient>
<linearGradient id="paint11_linear_35_11214" x1="31.0934" y1="55.0652" x2="56.704" y2="54.9397" gradientUnits="userSpaceOnUse">
<stop stop-color="#1F1F1F"/>
<stop offset="1" stop-color="#0A0A0A"/>
</linearGradient>
<linearGradient id="paint12_linear_35_11214" x1="81.8953" y1="79.3679" x2="81.7518" y2="50.1007" gradientUnits="userSpaceOnUse">
<stop stop-color="#C9CCD1"/>
<stop offset="1" stop-color="white"/>
</linearGradient>
<linearGradient id="paint13_linear_35_11214" x1="81.8825" y1="76.7996" x2="81.757" y2="51.1917" gradientUnits="userSpaceOnUse">
<stop offset="1e-08" stop-color="#1F1F1F"/>
<stop offset="1" stop-color="#0A0A0A"/>
</linearGradient>
<linearGradient id="paint14_linear_35_11214" x1="93.9887" y1="54.7571" x2="68.3778" y2="54.8826" gradientUnits="userSpaceOnUse">
<stop stop-color="#1F1F1F"/>
<stop offset="1" stop-color="#0A0A0A"/>
</linearGradient>
<linearGradient id="paint15_linear_35_11214" x1="65.2159" y1="48.4951" x2="59.8038" y2="48.5216" gradientUnits="userSpaceOnUse">
<stop offset="7e-08" stop-color="#FF8800"/>
<stop offset="1" stop-color="#FFFB00"/>
</linearGradient>
<linearGradient id="paint16_linear_35_11214" x1="41.9081" y1="115.172" x2="36.496" y2="115.199" gradientUnits="userSpaceOnUse">
<stop offset="7e-08" stop-color="#FF8800"/>
<stop offset="1" stop-color="#FFFB00"/>
</linearGradient>
<linearGradient id="paint17_linear_35_11214" x1="86.9022" y1="117.381" x2="81.49" y2="117.407" gradientUnits="userSpaceOnUse">
<stop offset="7e-08" stop-color="#FF8800"/>
<stop offset="1" stop-color="#FFFB00"/>
</linearGradient>
<linearGradient id="paint18_linear_35_11214" x1="65.5494" y1="128.693" x2="60.1372" y2="128.719" gradientUnits="userSpaceOnUse">
<stop offset="7e-08" stop-color="#FF8800"/>
<stop offset="1" stop-color="#FFFB00"/>
</linearGradient>
<linearGradient id="paint19_linear_35_11214" x1="23.9889" y1="57.392" x2="18.5769" y2="57.4185" gradientUnits="userSpaceOnUse">
<stop offset="7e-08" stop-color="#FF8800"/>
<stop offset="1" stop-color="#FFFB00"/>
</linearGradient>
<linearGradient id="paint20_linear_35_11214" x1="27.9099" y1="87.2972" x2="22.4978" y2="87.3237" gradientUnits="userSpaceOnUse">
<stop offset="7e-08" stop-color="#FF8800"/>
<stop offset="1" stop-color="#FFFB00"/>
</linearGradient>
<linearGradient id="paint21_linear_35_11214" x1="63.8136" y1="83.0708" x2="58.4015" y2="83.0973" gradientUnits="userSpaceOnUse">
<stop offset="7e-08" stop-color="#FF8800"/>
<stop offset="1" stop-color="#FFFB00"/>
</linearGradient>
<linearGradient id="paint22_linear_35_11214" x1="99.5566" y1="91.3933" x2="94.1445" y2="91.4199" gradientUnits="userSpaceOnUse">
<stop offset="7e-08" stop-color="#FF8800"/>
<stop offset="1" stop-color="#FFFB00"/>
</linearGradient>
<linearGradient id="paint23_linear_35_11214" x1="110.36" y1="67.3397" x2="104.948" y2="67.3662" gradientUnits="userSpaceOnUse">
<stop offset="7e-08" stop-color="#FF8800"/>
<stop offset="1" stop-color="#FFFB00"/>
</linearGradient>
<linearGradient id="paint24_linear_35_11214" x1="41.04" y1="96.9373" x2="84.267" y2="96.7255" gradientUnits="userSpaceOnUse">
<stop offset="1.3e-07" stop-color="#141414"/>
<stop offset="1" stop-color="#141414"/>
</linearGradient>
<linearGradient id="paint25_linear_35_11214" x1="37.4419" y1="101.18" x2="45.8201" y2="101.139" gradientUnits="userSpaceOnUse">
<stop offset="1.3e-07" stop-color="#141414"/>
<stop offset="1" stop-color="#141414"/>
</linearGradient>
<linearGradient id="paint26_linear_35_11214" x1="88.0787" y1="100.932" x2="79.7003" y2="100.973" gradientUnits="userSpaceOnUse">
<stop offset="1.3e-07" stop-color="#141414"/>
<stop offset="1" stop-color="#141414"/>
</linearGradient>
</defs>
</svg>
