<svg width="168" height="277" viewBox="0 0 168 277" fill="none" xmlns="http://www.w3.org/2000/svg">
<g opacity="0.2">
<path d="M166.465 143.339C165.844 137.668 164.09 132.018 161.252 126.544C159.453 123.075 157.325 119.978 155.268 116.983C154.811 116.317 154.353 115.651 153.901 114.982C150.76 110.34 146.583 105.996 141.133 101.7C138.982 100.005 136.782 98.5164 134.654 97.0754C133.749 96.4624 132.843 95.8504 131.947 95.2234C130.319 94.0864 128.618 92.8614 127.278 91.4824C124.837 88.9734 122.704 86.6014 120.758 84.2304C118.692 81.7124 117.145 79.2704 116.029 76.7634C114.07 72.3644 112.759 67.4254 111.78 60.7484C111.12 56.2524 110.445 51.8494 109.456 47.4154C108.332 42.3764 107.215 37.3354 106.098 32.2944L105.679 30.4014C104.428 24.7574 102.877 20.2914 100.798 16.3454C99.1783 13.2704 97.3473 10.7604 95.1983 8.67044C91.7163 5.28544 87.3003 3.37744 82.0723 3.00044C77.2283 2.64844 72.9953 3.84644 69.4893 6.55644C66.7093 8.70544 64.3963 11.1674 62.6153 13.8764C60.5843 16.9664 59.2893 20.1764 58.3873 22.6274C56.5433 27.6404 54.3483 34.3474 53.7303 41.7744C53.3103 46.8194 53.4543 51.4524 54.1713 55.9384C54.9683 60.9304 56.2243 65.9654 58.0093 71.3334C60.1723 77.8364 62.3683 84.1784 65.4403 90.2834C65.7843 90.9674 66.0573 91.6794 66.2753 92.4604L67.2313 95.8904C68.1603 99.2244 69.0893 102.558 70.0263 105.891C70.1153 106.209 70.2063 106.528 70.2973 106.846C69.5273 107.186 68.7553 107.524 67.9773 107.849C67.2303 108.161 66.4883 108.482 65.7453 108.805C63.7383 109.675 61.8433 110.497 59.9823 111.05C56.5453 112.071 53.0033 112.911 49.1533 113.619C45.2653 114.334 41.3453 114.904 37.5023 115.312C32.3633 115.859 27.8323 116.984 23.6513 118.752C19.1043 120.674 15.5123 123.207 12.6693 126.496C10.8593 128.591 9.5313 130.809 8.3603 132.765C5.3083 137.865 3.74829 143.568 3.72529 149.716C3.71129 153.525 4.46228 157.083 5.16728 160.119C5.91128 163.324 7.1183 166.405 8.7613 169.294C8.8303 171.324 8.75528 172.941 8.52928 174.35L8.28327 175.855C7.94127 177.927 7.58828 180.07 7.35328 182.294C6.85428 187.018 7.28128 191.243 8.65928 195.212C10.4733 200.437 13.0843 205.062 16.4273 208.968C16.5143 209.56 16.4603 210.387 16.3983 211.08C16.1653 213.665 16.0023 217.1 16.8163 220.75C17.4683 223.676 18.1133 226.238 18.7873 228.582C19.7533 231.944 21.4903 234.981 23.9743 237.644C24.0993 238.088 24.1933 238.505 24.2603 238.904C24.3793 239.614 24.3623 240.552 24.3413 241.638C24.3333 242.073 24.3253 242.508 24.3243 242.944C24.3183 246.797 25.2403 250.6 27.0663 254.247C28.1993 256.51 29.6253 258.335 30.8833 259.945C31.1443 260.28 31.4063 260.614 31.6643 260.953C34.6863 264.916 38.6973 267.345 43.5863 268.171C43.9433 268.231 44.3003 268.288 44.6573 268.344C45.5853 268.49 46.4613 268.628 47.1453 268.827C49.1683 269.416 51.0543 269.741 52.9073 269.82L53.4173 269.841C54.1473 269.87 54.8363 269.897 55.3033 269.98C57.0323 270.29 58.7453 270.643 60.5583 271.016C61.3793 271.185 62.1993 271.354 63.0213 271.519C64.5953 271.834 66.1773 272.222 67.8513 272.633C69.1153 272.944 70.4233 273.265 71.7523 273.558C74.4283 274.149 77.1223 274.672 79.7273 275.178C80.9113 275.407 82.0943 275.637 83.2753 275.873C84.6103 276.14 85.9153 276.272 87.2213 276.272C87.9083 276.272 88.5953 276.235 89.2883 276.162C95.2173 275.535 100.42 273.237 104.749 269.333C104.849 269.243 104.951 269.155 105.052 269.067C105.55 268.633 106.233 268.039 106.911 267.229L107.175 266.912C107.918 266.024 108.718 265.067 109.496 264.017C110.292 263.969 111.065 263.896 111.824 263.796C116.957 263.128 121.192 261.675 124.77 259.355C126.222 258.413 127.6 257.424 128.815 256.551C135.878 251.477 141.866 245.054 146.612 237.46C148.792 233.971 150.876 230.131 152.982 225.722C156.026 219.351 157.923 212.34 158.782 204.288C159.09 201.397 159.19 198.565 159.273 195.68L159.283 195.298C159.297 194.765 159.318 193.971 159.386 193.674C161.848 188.579 163.648 183.129 164.737 177.473C165.959 171.123 167.199 163.483 167.13 154.956C167.143 151.438 166.911 147.422 166.465 143.339Z" fill="white"/>
<path d="M165.72 142.751C165.099 137.08 163.345 131.43 160.507 125.956C158.708 122.487 156.58 119.39 154.523 116.395C154.066 115.729 153.608 115.062 153.156 114.394C150.015 109.752 145.838 105.408 140.387 101.112C138.236 99.4165 136.036 97.9275 133.908 96.4865C133.003 95.8735 132.097 95.2615 131.201 94.6345C129.573 93.4975 127.872 92.2725 126.532 90.8935C124.091 88.3845 121.958 86.0125 120.012 83.6415C117.946 81.1235 116.399 78.6815 115.283 76.1745C113.324 71.7755 112.013 66.8365 111.034 60.1595C110.374 55.6635 109.699 51.2605 108.71 46.8265C107.586 41.7875 106.469 36.7465 105.352 31.7055L104.933 29.8125C103.682 24.1685 102.131 19.7025 100.052 15.7565C98.4332 12.6815 96.6012 10.1715 94.4522 8.08154C90.9702 4.69654 86.5542 2.78854 81.3262 2.41154C76.4822 2.05954 72.2492 3.25854 68.7422 5.96854C65.9622 8.11754 63.6492 10.5795 61.8682 13.2885C59.8372 16.3785 58.5422 19.5885 57.6402 22.0395C55.7962 27.0525 53.6012 33.7595 52.9832 41.1865C52.5632 46.2315 52.7072 50.8645 53.4242 55.3495C54.2212 60.3415 55.4772 65.3765 57.2622 70.7445C59.4252 77.2475 61.6212 83.5895 64.6932 89.6945C65.0372 90.3785 65.3102 91.0905 65.5282 91.8715L66.4842 95.3015C67.4132 98.6355 68.3422 101.97 69.2792 105.303C69.3682 105.621 69.4592 105.94 69.5502 106.258C68.7792 106.598 68.0082 106.936 67.2302 107.261C66.4832 107.573 65.7412 107.894 64.9982 108.217C62.9912 109.087 61.0962 109.909 59.2352 110.462C55.7982 111.483 52.2562 112.323 48.4062 113.031C44.5182 113.746 40.5982 114.316 36.7552 114.724C31.6162 115.271 27.0852 116.396 22.9042 118.164C18.3572 120.086 14.7652 122.619 11.9222 125.908C10.1122 128.003 8.78423 130.221 7.61323 132.177C4.56123 137.277 3.00122 142.98 2.97822 149.128C2.96422 152.937 3.71524 156.495 4.42024 159.531C5.16424 162.735 6.37123 165.817 8.01423 168.706C8.08323 170.736 8.00924 172.353 7.78224 173.762L7.53623 175.267C7.19423 177.339 6.84124 179.482 6.60624 181.706C6.10724 186.43 6.53424 190.655 7.91224 194.623C9.72624 199.848 12.3372 204.473 15.6802 208.379C15.7672 208.971 15.7132 209.798 15.6512 210.491C15.4182 213.076 15.2552 216.511 16.0692 220.161C16.7212 223.087 17.3662 225.649 18.0402 227.993C19.0062 231.355 20.7432 234.392 23.2272 237.055C23.3522 237.499 23.4462 237.916 23.5132 238.315C23.6322 239.025 23.6152 239.963 23.5942 241.048C23.5862 241.483 23.5782 241.918 23.5772 242.354C23.5702 246.207 24.4932 250.01 26.3192 253.657C27.4522 255.92 28.8782 257.745 30.1362 259.355C30.3982 259.69 30.6592 260.024 30.9172 260.362C33.9392 264.325 37.9502 266.754 42.8392 267.58C43.1962 267.64 43.5532 267.697 43.9102 267.753C44.8382 267.899 45.7142 268.037 46.3982 268.236C48.4212 268.825 50.3072 269.15 52.1602 269.229L52.6702 269.25C53.4002 269.279 54.0892 269.306 54.5562 269.389C56.2852 269.699 57.9982 270.052 59.8112 270.424C60.6322 270.593 61.4522 270.762 62.2742 270.927C63.8482 271.242 65.4302 271.63 67.1042 272.041C68.3682 272.352 69.6752 272.673 71.0052 272.966C73.6812 273.557 76.3752 274.08 78.9802 274.586C80.1642 274.815 81.3472 275.045 82.5282 275.281C83.8632 275.548 85.1682 275.68 86.4742 275.68C87.1612 275.68 87.8492 275.643 88.5412 275.57C94.4702 274.943 99.6722 272.645 104.002 268.741C104.102 268.651 104.204 268.563 104.305 268.475C104.804 268.041 105.487 267.447 106.164 266.637L106.428 266.32C107.171 265.432 107.971 264.475 108.749 263.424C109.545 263.376 110.318 263.303 111.077 263.204C116.21 262.536 120.445 261.083 124.023 258.763C125.475 257.821 126.853 256.832 128.068 255.959C135.131 250.885 141.119 244.462 145.865 236.868C148.045 233.379 150.129 229.539 152.235 225.13C155.279 218.759 157.176 211.748 158.035 203.696C158.343 200.805 158.443 197.973 158.526 195.088L158.537 194.706C158.551 194.173 158.572 193.379 158.64 193.082C161.102 187.987 162.902 182.537 163.991 176.881C165.214 170.531 166.407 162.891 166.384 154.364C166.379 150.85 166.167 146.834 165.72 142.751Z" fill="#CCCCCC"/>
<path d="M164.975 142.163C164.354 136.492 162.6 130.842 159.762 125.368C157.963 121.899 155.835 118.802 153.778 115.807C153.321 115.141 152.863 114.474 152.411 113.806C149.27 109.164 145.093 104.82 139.643 100.524C137.492 98.8286 135.292 97.3386 133.164 95.8986C132.259 95.2856 131.353 94.6726 130.457 94.0466C128.829 92.9096 127.128 91.6846 125.788 90.3056C123.347 87.7966 121.214 85.4246 119.268 83.0536C117.202 80.5366 115.655 78.0936 114.539 75.5866C112.58 71.1876 111.269 66.2486 110.29 59.5716C109.63 55.0756 108.956 50.6726 107.966 46.2386C106.842 41.1996 105.725 36.1586 104.609 31.1176L104.19 29.2246C102.939 23.5806 101.388 19.1146 99.3091 15.1686C97.6891 12.0936 95.8581 9.58364 93.7091 7.49364C90.2271 4.10864 85.8111 2.20065 80.5831 1.82365C75.7391 1.47165 71.5061 2.67064 67.9991 5.38064C65.2191 7.52964 62.9061 9.99164 61.1251 12.7006C59.0941 15.7906 57.7981 19.0006 56.8971 21.4516C55.0541 26.4646 52.8581 33.1716 52.2401 40.5986C51.8201 45.6436 51.9641 50.2766 52.6811 54.7616C53.4781 59.7536 54.7341 64.7886 56.5191 70.1566C58.6821 76.6596 60.8781 83.0016 63.9501 89.1066C64.2941 89.7906 64.5671 90.5026 64.7851 91.2836L65.7411 94.7136C66.6701 98.0476 67.5991 101.382 68.5361 104.715C68.6251 105.033 68.7161 105.352 68.8071 105.67C68.0371 106.01 67.2651 106.348 66.4871 106.673C65.7401 106.985 64.9981 107.306 64.2551 107.629C62.2481 108.499 60.3531 109.321 58.4921 109.874C55.0551 110.895 51.5131 111.735 47.6631 112.443C43.7751 113.158 39.8551 113.728 36.0121 114.136C30.8731 114.683 26.3421 115.808 22.1611 117.576C17.6141 119.498 14.0221 122.031 11.1791 125.32C9.36909 127.415 8.04107 129.633 6.87007 131.589C3.81807 136.689 2.25808 142.392 2.23408 148.54C2.22008 152.349 2.97107 155.907 3.67707 158.943C4.42107 162.147 5.62807 165.229 7.27107 168.118C7.34007 170.148 7.26507 171.765 7.03907 173.174L6.79307 174.679C6.45107 176.751 6.09808 178.894 5.86308 181.118C5.36408 185.842 5.79108 190.067 7.16908 194.035C8.98308 199.26 11.5941 203.885 14.9371 207.791C15.0241 208.383 14.9701 209.21 14.9081 209.903C14.6751 212.488 14.5131 215.923 15.3261 219.573C15.9781 222.499 16.6231 225.061 17.2971 227.405C18.2631 230.767 20.0001 233.804 22.4841 236.467C22.6091 236.911 22.7031 237.328 22.7701 237.726C22.8891 238.436 22.8721 239.374 22.8511 240.46C22.8431 240.895 22.8351 241.33 22.8341 241.766C22.8271 245.619 23.7501 249.422 25.5761 253.069C26.7101 255.332 28.1351 257.157 29.3931 258.767C29.6551 259.102 29.9161 259.436 30.1741 259.774C33.1961 263.737 37.2071 266.166 42.0961 266.992C42.4531 267.052 42.8101 267.109 43.1671 267.165C44.0951 267.311 44.9711 267.449 45.6551 267.648C47.6781 268.237 49.5641 268.562 51.4171 268.641L51.9271 268.662C52.6571 268.691 53.3461 268.718 53.8131 268.801C55.5421 269.111 57.2551 269.464 59.0681 269.837C59.8891 270.006 60.7091 270.175 61.5311 270.34C63.1051 270.655 64.6871 271.043 66.3611 271.454C67.6251 271.765 68.9331 272.086 70.2621 272.379C72.9381 272.97 75.6321 273.493 78.2371 273.999C79.4211 274.228 80.6041 274.458 81.7851 274.694C83.1201 274.961 84.4251 275.093 85.7311 275.093C86.4181 275.093 87.1051 275.056 87.7981 274.983C93.7271 274.356 98.9301 272.058 103.259 268.154C103.359 268.064 103.461 267.976 103.562 267.888C104.06 267.454 104.743 266.86 105.421 266.05L105.685 265.733C106.428 264.845 107.228 263.888 108.006 262.838C108.802 262.79 109.575 262.717 110.334 262.617C115.467 261.949 119.702 260.496 123.28 258.176C124.732 257.234 126.11 256.245 127.325 255.372C134.388 250.298 140.376 243.875 145.122 236.281C147.302 232.792 149.386 228.952 151.492 224.543C154.536 218.172 156.433 211.161 157.292 203.109C157.601 200.218 157.7 197.386 157.783 194.501L157.794 194.119C157.807 193.586 157.829 192.792 157.897 192.495C160.358 187.4 162.159 181.95 163.248 176.294C164.471 169.944 165.664 162.304 165.641 153.777C165.634 150.263 165.421 146.247 164.975 142.163Z" fill="#999999"/>
<path d="M164.23 141.576C163.609 135.905 161.855 130.255 159.017 124.781C157.218 121.312 155.09 118.215 153.033 115.22C152.576 114.554 152.118 113.887 151.666 113.219C148.525 108.577 144.348 104.233 138.898 99.9367C136.747 98.2417 134.547 96.7517 132.419 95.3117C131.514 94.6987 130.608 94.0857 129.712 93.4597C128.084 92.3227 126.383 91.0977 125.043 89.7187C122.602 87.2097 120.469 84.8367 118.523 82.4667C116.457 79.9497 114.91 77.5067 113.794 74.9997C111.835 70.6007 110.524 65.6617 109.545 58.9847C108.885 54.4887 108.21 50.0857 107.221 45.6517C106.097 40.6127 104.98 35.5717 103.864 30.5307L103.445 28.6387C102.194 22.9947 100.643 18.5287 98.5644 14.5817C96.9444 11.5067 95.1134 8.99673 92.9644 6.90673C89.4824 3.52173 85.0664 1.61373 79.8384 1.23673C74.9944 0.884731 70.7614 2.08373 67.2554 4.79373C64.4754 6.94273 62.1624 9.40473 60.3814 12.1137C58.3504 15.2037 57.0554 18.4137 56.1534 20.8647C54.3094 25.8777 52.1144 32.5847 51.4964 40.0117C51.0764 45.0567 51.2204 49.6897 51.9374 54.1747C52.7344 59.1667 53.9904 64.2017 55.7754 69.5697C57.9384 76.0727 60.1344 82.4147 63.2064 88.5197C63.5504 89.2037 63.8234 89.9157 64.0414 90.6967L64.9974 94.1267C65.9264 97.4607 66.8554 100.795 67.7924 104.128C67.8814 104.446 67.9724 104.765 68.0634 105.083C67.2934 105.423 66.5214 105.761 65.7434 106.086C64.9964 106.398 64.2544 106.719 63.5114 107.042C61.5044 107.912 59.6094 108.734 57.7484 109.287C54.3114 110.307 50.7694 111.148 46.9194 111.856C43.0314 112.571 39.1114 113.141 35.2684 113.549C30.1294 114.096 25.5984 115.221 21.4174 116.989C16.8704 118.911 13.2784 121.444 10.4354 124.733C8.6254 126.828 7.29741 129.046 6.12641 131.002C3.07441 136.102 1.5144 141.805 1.4914 147.953C1.4774 151.762 2.22842 155.32 2.93342 158.356C3.67742 161.56 4.88441 164.642 6.52741 167.531C6.59641 169.561 6.52142 171.178 6.29542 172.587L6.04942 174.092C5.70742 176.164 5.35439 178.307 5.11939 180.531C4.62039 185.255 5.04739 189.48 6.42539 193.448C8.23939 198.673 10.8504 203.298 14.1934 207.204C14.2804 207.796 14.2264 208.623 14.1644 209.316C13.9314 211.901 13.7684 215.336 14.5824 218.986C15.2344 221.912 15.8794 224.474 16.5534 226.818C17.5194 230.18 19.2564 233.217 21.7404 235.88C21.8654 236.324 21.9594 236.741 22.0264 237.14C22.1454 237.85 22.1284 238.788 22.1074 239.874C22.0994 240.309 22.0914 240.744 22.0904 241.181C22.0834 245.034 23.0064 248.837 24.8324 252.484C25.9654 254.747 27.3914 256.572 28.6494 258.182C28.9104 258.517 29.1724 258.851 29.4304 259.189C32.4524 263.152 36.4634 265.581 41.3524 266.407C41.7094 266.467 42.0664 266.524 42.4234 266.58C43.3514 266.726 44.2274 266.864 44.9114 267.063C46.9344 267.652 48.8204 267.977 50.6734 268.056L51.1834 268.077C51.9134 268.106 52.6024 268.133 53.0694 268.217C54.7984 268.527 56.5114 268.88 58.3244 269.252C59.1454 269.421 59.9654 269.59 60.7874 269.755C62.3614 270.07 63.9434 270.458 65.6174 270.869C66.8814 271.18 68.1894 271.501 69.5184 271.794C72.1944 272.385 74.8884 272.908 77.4934 273.414C78.6774 273.643 79.8604 273.873 81.0414 274.109C82.3764 274.376 83.6814 274.508 84.9874 274.508C85.6744 274.508 86.3614 274.471 87.0544 274.398C92.9834 273.771 98.1864 271.473 102.515 267.569C102.615 267.479 102.717 267.391 102.818 267.303C103.316 266.869 104 266.275 104.677 265.465L104.941 265.148C105.684 264.26 106.484 263.303 107.262 262.253C108.058 262.205 108.831 262.132 109.59 262.033C114.723 261.365 118.958 259.912 122.536 257.592C123.988 256.65 125.366 255.661 126.581 254.788C133.644 249.714 139.632 243.291 144.378 235.697C146.558 232.208 148.642 228.368 150.748 223.959C153.792 217.588 155.689 210.577 156.548 202.525C156.856 199.634 156.956 196.802 157.039 193.917L157.049 193.535C157.063 193.002 157.084 192.208 157.152 191.911C159.614 186.816 161.414 181.366 162.503 175.71C163.725 169.36 164.919 161.72 164.896 153.193C164.888 149.675 164.676 145.659 164.23 141.576Z" fill="#666666"/>
<path d="M163.484 140.988C162.863 135.317 161.109 129.667 158.271 124.193C156.472 120.724 154.344 117.627 152.287 114.632C151.83 113.966 151.372 113.299 150.92 112.631C147.779 107.989 143.602 103.645 138.151 99.3488C136 97.6538 133.8 96.1638 131.672 94.7238C130.767 94.1108 129.861 93.4978 128.965 92.8718C127.337 91.7348 125.636 90.5098 124.296 89.1308C121.855 86.6218 119.722 84.2488 117.776 81.8788C115.71 79.3608 114.163 76.9188 113.047 74.4118C111.088 70.0128 109.777 65.0738 108.798 58.3968C108.138 53.9008 107.463 49.4978 106.474 45.0638C105.35 40.0248 104.233 34.9838 103.116 29.9428L102.697 28.0508C101.446 22.4068 99.8954 17.9408 97.8164 13.9938C96.1964 10.9188 94.3654 8.40884 92.2164 6.31884C88.7344 2.93384 84.3184 1.02584 79.0904 0.648841C74.2464 0.296841 70.0134 1.49584 66.5064 4.20584C63.7264 6.35484 61.4134 8.81684 59.6324 11.5258C57.6014 14.6158 56.3054 17.8258 55.4044 20.2768C53.5604 25.2898 51.3654 31.9968 50.7474 39.4238C50.3274 44.4688 50.4714 49.1018 51.1884 53.5868C51.9854 58.5788 53.2414 63.6138 55.0264 68.9818C57.1894 75.4848 59.3854 81.8268 62.4574 87.9318C62.8014 88.6158 63.0744 89.3278 63.2924 90.1088L64.2484 93.5388C65.1774 96.8728 66.1064 100.207 67.0434 103.54C67.1334 103.858 67.2234 104.177 67.3144 104.495C66.5434 104.835 65.7724 105.173 64.9944 105.498C64.2474 105.81 63.5054 106.131 62.7624 106.454C60.7554 107.324 58.8604 108.146 56.9994 108.699C53.5624 109.719 50.0204 110.56 46.1704 111.268C42.2824 111.983 38.3624 112.553 34.5194 112.961C29.3804 113.508 24.8494 114.633 20.6684 116.401C16.1214 118.323 12.5294 120.856 9.68638 124.145C7.87638 126.24 6.54839 128.458 5.37739 130.414C2.32539 135.514 0.76538 141.217 0.74238 147.365C0.72838 151.174 1.47937 154.732 2.18437 157.768C2.92837 160.972 4.13539 164.054 5.77839 166.943C5.84739 168.973 5.77337 170.59 5.54637 171.999L5.30036 173.504C4.95836 175.576 4.60537 177.719 4.37037 179.943C3.87137 184.667 4.29837 188.892 5.67637 192.861C7.49037 198.086 10.1014 202.711 13.4444 206.617C13.5314 207.209 13.4774 208.036 13.4154 208.729C13.1824 211.314 13.0194 214.749 13.8334 218.399C14.4854 221.325 15.1304 223.887 15.8044 226.231C16.7704 229.593 18.5074 232.63 20.9914 235.293C21.1164 235.737 21.2104 236.154 21.2774 236.552C21.3964 237.262 21.3794 238.2 21.3584 239.286C21.3504 239.721 21.3424 240.156 21.3414 240.592C21.3344 244.445 22.2574 248.248 24.0834 251.895C25.2164 254.158 26.6424 255.983 27.9004 257.593C28.1624 257.928 28.4234 258.262 28.6814 258.6C31.7034 262.563 35.7144 264.992 40.6034 265.818C40.9604 265.878 41.3174 265.935 41.6744 265.991C42.6024 266.137 43.4784 266.275 44.1624 266.474C46.1854 267.063 48.0714 267.388 49.9244 267.467L50.4344 267.488C51.1644 267.517 51.8534 267.544 52.3204 267.628C54.0494 267.938 55.7624 268.291 57.5754 268.664C58.3964 268.833 59.2164 269.002 60.0384 269.167C61.6124 269.482 63.1944 269.87 64.8684 270.281C66.1324 270.592 67.4404 270.913 68.7694 271.206C71.4454 271.797 74.1394 272.32 76.7444 272.826C77.9284 273.055 79.1114 273.285 80.2924 273.521C81.6274 273.788 82.9324 273.92 84.2384 273.92C84.9254 273.92 85.6134 273.883 86.3054 273.81C92.2344 273.183 97.4364 270.885 101.766 266.981C101.866 266.891 101.968 266.803 102.069 266.715C102.567 266.281 103.251 265.686 103.928 264.877L104.192 264.56C104.935 263.672 105.735 262.715 106.513 261.665C107.309 261.617 108.082 261.544 108.841 261.444C113.974 260.776 118.209 259.323 121.787 257.003C123.239 256.061 124.617 255.072 125.832 254.199C132.895 249.125 138.883 242.702 143.629 235.108C145.809 231.619 147.893 227.779 149.999 223.37C153.043 216.999 154.94 209.988 155.799 201.936C156.108 199.045 156.207 196.213 156.29 193.328L156.301 192.946C156.315 192.413 156.336 191.619 156.404 191.322C158.866 186.227 160.666 180.777 161.755 175.122C162.978 168.772 164.171 161.132 164.148 152.605C164.143 149.087 163.931 145.072 163.484 140.988Z" fill="#333333"/>
<path d="M162.739 140.4C162.118 134.729 160.364 129.079 157.526 123.605C155.727 120.136 153.599 117.039 151.542 114.044C151.085 113.378 150.627 112.711 150.175 112.043C147.034 107.401 142.857 103.057 137.407 98.761C135.256 97.066 133.056 95.576 130.928 94.136C130.023 93.523 129.117 92.911 128.221 92.284C126.593 91.147 124.892 89.922 123.552 88.543C121.111 86.034 118.978 83.661 117.032 81.29C114.966 78.773 113.419 76.33 112.303 73.823C110.344 69.424 109.033 64.485 108.054 57.808C107.394 53.312 106.719 48.909 105.73 44.475C104.606 39.436 103.489 34.395 102.373 29.354L101.954 27.462C100.703 21.818 99.1522 17.352 97.0732 13.405C95.4532 10.33 93.6222 7.82001 91.4732 5.73001C87.9912 2.34501 83.5752 0.437008 78.3472 0.0600079C73.5032 -0.291992 69.2702 0.906007 65.7632 3.61701C62.9832 5.76601 60.6702 8.22801 58.8892 10.937C56.8582 14.027 55.5622 17.237 54.6612 19.688C52.8182 24.701 50.6222 31.408 50.0052 38.835C49.5852 43.88 49.7292 48.513 50.4462 52.998C51.2432 57.99 52.4992 63.025 54.2842 68.393C56.4472 74.896 58.6432 81.238 61.7152 87.343C62.0592 88.027 62.3322 88.739 62.5502 89.52L63.5062 92.95C64.4352 96.284 65.3642 99.618 66.3012 102.951C66.3902 103.269 66.4812 103.588 66.5722 103.906C65.8012 104.246 65.0292 104.584 64.2522 104.909C63.5052 105.221 62.7632 105.543 62.0202 105.865C60.0132 106.735 58.1182 107.557 56.2572 108.109C52.8202 109.13 49.2782 109.97 45.4282 110.678C41.5402 111.393 37.6202 111.963 33.7772 112.371C28.6382 112.918 24.1072 114.043 19.9262 115.811C15.3792 117.733 11.7872 120.266 8.94419 123.555C7.13419 125.65 5.8062 127.868 4.6352 129.824C1.5832 134.924 0.0231928 140.627 0.000192784 146.775C-0.0138072 150.584 0.737186 154.142 1.44319 157.178C2.18719 160.382 3.39421 163.464 5.03721 166.353C5.10621 168.383 5.03119 170 4.80519 171.409L4.55918 172.914C4.21718 174.986 3.86419 177.129 3.62919 179.353C3.13019 184.077 3.55719 188.302 4.93519 192.271C6.74919 197.496 9.3602 202.121 12.7032 206.027C12.7902 206.619 12.7362 207.446 12.6742 208.139C12.4412 210.724 12.2792 214.159 13.0922 217.809C13.7442 220.735 14.3892 223.297 15.0632 225.641C16.0292 229.003 17.7662 232.04 20.2502 234.703C20.3752 235.147 20.4692 235.564 20.5362 235.963C20.6552 236.673 20.6382 237.611 20.6172 238.697C20.6092 239.132 20.6012 239.567 20.6002 240.003C20.5932 243.856 21.5162 247.659 23.3422 251.306C24.4762 253.569 25.9012 255.394 27.1592 257.004C27.4212 257.339 27.6822 257.673 27.9402 258.011C30.9622 261.974 34.9732 264.403 39.8622 265.229C40.2192 265.289 40.5762 265.346 40.9332 265.402C41.8612 265.548 42.7372 265.686 43.4212 265.885C45.4442 266.474 47.3302 266.799 49.1832 266.878L49.6932 266.899C50.4232 266.928 51.1122 266.955 51.5792 267.039C53.3082 267.349 55.0212 267.702 56.8342 268.074C57.6552 268.243 58.4752 268.412 59.2972 268.577C60.8712 268.892 62.4532 269.28 64.1272 269.691C65.3912 270.002 66.6992 270.323 68.0282 270.616C70.7042 271.207 73.3982 271.73 76.0032 272.236C77.1872 272.465 78.3702 272.695 79.5512 272.932C80.8862 273.199 82.1912 273.331 83.4972 273.331C84.1842 273.331 84.8712 273.294 85.5642 273.221C91.4932 272.594 96.6962 270.296 101.025 266.392C101.125 266.302 101.227 266.214 101.328 266.126C101.826 265.692 102.509 265.097 103.187 264.288L103.451 263.971C104.194 263.083 104.994 262.126 105.772 261.076C106.568 261.028 107.341 260.955 108.1 260.856C113.233 260.188 117.468 258.735 121.046 256.415C122.498 255.473 123.876 254.484 125.091 253.611C132.154 248.537 138.142 242.114 142.888 234.52C145.068 231.03 147.152 227.191 149.258 222.782C152.302 216.411 154.199 209.4 155.058 201.348C155.367 198.457 155.466 195.625 155.549 192.74L155.56 192.358C155.573 191.825 155.595 191.031 155.663 190.734C158.125 185.639 159.925 180.189 161.014 174.533C162.237 168.183 163.476 160.543 163.407 152.015C163.417 148.5 163.186 144.484 162.739 140.4Z" fill="black"/>
</g>
<path d="M162.739 140.4C162.118 134.729 160.364 129.079 157.526 123.605C155.727 120.136 153.599 117.039 151.542 114.044C151.085 113.378 150.627 112.711 150.175 112.043C147.034 107.401 142.857 103.057 137.407 98.761C135.256 97.066 133.056 95.576 130.928 94.136C130.023 93.523 129.117 92.911 128.221 92.284C126.593 91.147 124.892 89.922 123.552 88.543C121.111 86.034 118.978 83.661 117.032 81.29C114.966 78.773 113.419 76.33 112.303 73.823C110.344 69.424 109.033 64.485 108.054 57.808C107.394 53.312 106.719 48.909 105.73 44.475C104.606 39.436 103.489 34.395 102.373 29.354L101.954 27.462C100.703 21.818 99.1522 17.352 97.0732 13.405C95.4532 10.33 93.6222 7.82001 91.4732 5.73001C87.9912 2.34501 83.5752 0.437008 78.3472 0.0600079C73.5032 -0.291992 69.2702 0.906007 65.7632 3.61701C62.9832 5.76601 60.6702 8.22801 58.8892 10.937C56.8582 14.027 55.5622 17.237 54.6612 19.688C52.8182 24.701 50.6222 31.408 50.0052 38.835C49.5852 43.88 49.7292 48.513 50.4462 52.998C51.2432 57.99 52.4992 63.025 54.2842 68.393C56.4472 74.896 58.6432 81.238 61.7152 87.343C62.0592 88.027 62.3322 88.739 62.5502 89.52L63.5062 92.95C64.4352 96.284 65.3642 99.618 66.3012 102.951C66.3902 103.269 66.4812 103.588 66.5722 103.906C65.8012 104.246 65.0292 104.584 64.2522 104.909C63.5052 105.221 62.7632 105.543 62.0202 105.865C60.0132 106.735 58.1182 107.557 56.2572 108.109C52.8202 109.13 49.2782 109.97 45.4282 110.678C41.5402 111.393 37.6202 111.963 33.7772 112.371C28.6382 112.918 24.1072 114.043 19.9262 115.811C15.3792 117.733 11.7872 120.266 8.94419 123.555C7.13419 125.65 5.8062 127.868 4.6352 129.824C1.5832 134.924 0.0231928 140.627 0.000192784 146.775C-0.0138072 150.584 0.737186 154.142 1.44319 157.178C2.18719 160.382 3.39421 163.464 5.03721 166.353C5.10621 168.383 5.03119 170 4.80519 171.409L4.55918 172.914C4.21718 174.986 3.86419 177.129 3.62919 179.353C3.13019 184.077 3.55719 188.302 4.93519 192.271C6.74919 197.496 9.3602 202.121 12.7032 206.027C12.7902 206.619 12.7362 207.446 12.6742 208.139C12.4412 210.724 12.2792 214.159 13.0922 217.809C13.7442 220.735 14.3892 223.297 15.0632 225.641C16.0292 229.003 17.7662 232.04 20.2502 234.703C20.3752 235.147 20.4692 235.564 20.5362 235.963C20.6552 236.673 20.6382 237.611 20.6172 238.697C20.6092 239.132 20.6012 239.567 20.6002 240.003C20.5932 243.856 21.5162 247.659 23.3422 251.306C24.4762 253.569 25.9012 255.394 27.1592 257.004C27.4212 257.339 27.6822 257.673 27.9402 258.011C30.9622 261.974 34.9732 264.403 39.8622 265.229C40.2192 265.289 40.5762 265.346 40.9332 265.402C41.8612 265.548 42.7372 265.686 43.4212 265.885C45.4442 266.474 47.3302 266.799 49.1832 266.878L49.6932 266.899C50.4232 266.928 51.1122 266.955 51.5792 267.039C53.3082 267.349 55.0212 267.702 56.8342 268.074C57.6552 268.243 58.4752 268.412 59.2972 268.577C60.8712 268.892 62.4532 269.28 64.1272 269.691C65.3912 270.002 66.6992 270.323 68.0282 270.616C70.7042 271.207 73.3982 271.73 76.0032 272.236C77.1872 272.465 78.3702 272.695 79.5512 272.932C80.8862 273.199 82.1912 273.331 83.4972 273.331C84.1842 273.331 84.8712 273.294 85.5642 273.221C91.4932 272.594 96.6962 270.296 101.025 266.392C101.125 266.302 101.227 266.214 101.328 266.126C101.826 265.692 102.509 265.097 103.187 264.288L103.451 263.971C104.194 263.083 104.994 262.126 105.772 261.076C106.568 261.028 107.341 260.955 108.1 260.856C113.233 260.188 117.468 258.735 121.046 256.415C122.498 255.473 123.876 254.484 125.091 253.611C132.154 248.537 138.142 242.114 142.888 234.52C145.068 231.03 147.152 227.191 149.258 222.782C152.302 216.411 154.199 209.4 155.058 201.348C155.367 198.457 155.466 195.625 155.549 192.74L155.56 192.358C155.573 191.825 155.595 191.031 155.663 190.734C158.125 185.639 159.925 180.189 161.014 174.533C162.237 168.183 163.476 160.543 163.407 152.015C163.417 148.5 163.186 144.484 162.739 140.4Z" fill="white"/>
<path d="M151.827 145.605C151.673 143.566 151.466 141.528 151.109 139.509C150.351 135.225 148.911 131.17 147.001 127.278C145.711 124.65 144.319 122.071 142.579 119.708C140.136 116.392 137.233 113.506 134.058 110.895C130.413 107.897 126.62 105.092 122.784 102.342C120.134 100.443 117.663 98.3381 115.44 95.9361C112.056 92.2791 109.034 88.329 106.001 84.388C104.769 82.787 103.847 80.995 103.035 79.148C100.007 72.266 98.1644 65.064 97.2484 57.615C96.5434 51.879 95.5394 46.191 94.4754 40.514C93.2624 34.042 91.1204 27.871 88.3044 21.928C87.1594 19.511 85.9044 17.159 84.1924 15.079C82.7464 13.323 80.9834 12.118 78.7054 11.714C78.0904 11.605 77.4713 11.574 76.8573 11.482C74.5253 11.134 72.4763 11.764 70.5593 13.119C68.3053 14.711 66.9503 16.917 65.9773 19.406C62.8303 27.452 60.9374 35.726 61.2654 44.44C61.3934 47.85 61.7204 51.222 62.3724 54.565C63.6054 60.889 65.3174 67.092 67.1664 73.259C67.6804 74.973 68.1074 76.716 68.8554 78.357C69.5224 79.821 70.1613 81.299 70.7763 82.785C73.2083 88.67 75.2004 94.716 77.2654 100.734C77.6474 101.848 78.1224 102.907 78.6994 103.93C79.4174 105.204 80.1113 106.492 80.8233 107.77C82.4953 110.772 83.9824 113.88 85.9404 116.718C86.0234 116.838 86.1003 116.963 86.1673 117.093C86.2693 117.292 86.3674 117.518 86.1384 117.681C85.9754 117.797 85.7813 117.72 85.6283 117.609C85.3043 117.372 84.9703 117.144 84.6723 116.876C83.8003 116.093 82.9893 115.25 82.2543 114.335C81.8803 113.869 81.4914 113.414 81.1094 112.953C81.3464 114.789 81.7044 116.537 82.0914 118.279C82.6184 120.654 82.7474 123.058 82.6144 125.477C82.5804 126.093 82.4753 126.716 82.3103 127.311C82.1473 127.899 81.7334 127.978 81.3554 127.514C81.0814 127.178 80.8604 126.788 80.6694 126.396C79.7554 124.52 78.9463 122.599 78.3403 120.6C77.6413 118.29 76.9773 115.97 76.2833 113.658C76.0173 112.772 75.9794 112.742 75.1444 113.043C72.3584 114.048 69.5274 114.945 66.8414 116.201C63.4804 117.774 59.9753 118.887 56.3953 119.828C49.0173 121.766 41.4814 122.748 33.9364 123.695C29.6534 124.232 25.5643 125.427 21.7103 127.368C18.4383 129.016 15.8604 131.475 13.8114 134.488C11.0124 138.604 10.3834 143.209 10.9334 148.032C11.4244 152.335 12.3924 156.528 13.9764 160.575C14.6614 162.325 15.5074 163.976 16.6094 165.492C17.2354 166.354 17.7524 167.279 18.2604 168.208C18.4624 168.577 18.8194 169.018 18.4664 169.414C18.1184 169.804 17.6344 169.525 17.2424 169.36C16.6174 169.097 16.0134 168.782 15.2874 168.435C15.3924 169.578 15.4763 170.59 15.4903 171.606C15.5253 174.246 15.0653 176.85 14.9473 179.481C14.8363 181.969 14.7003 184.448 15.0463 186.922C15.3003 188.736 15.6364 190.538 16.5874 192.149C17.8334 194.259 19.1214 196.344 20.4924 198.376C21.4414 199.782 22.5714 201.013 23.8894 202.082C24.9114 202.911 25.9084 203.773 26.8334 204.713C27.0644 204.947 27.3114 205.171 27.4454 205.48C27.5864 205.805 27.4963 206.065 27.1673 206.194C26.7883 206.342 26.3884 206.378 25.9804 206.335C25.1444 206.248 24.3064 206.181 23.5054 205.885C23.2854 205.804 23.0313 205.646 22.7883 205.918C22.9133 206.699 23.0623 207.488 23.1633 208.282C23.5933 211.652 23.9233 215.032 24.4433 218.395C25.1813 223.173 27.3253 227.098 30.9433 230.246C32.0253 231.188 32.9754 232.246 33.9104 233.322C34.1884 233.643 34.6214 233.975 34.3994 234.453C34.1724 234.941 33.6343 234.755 33.2143 234.792C32.4093 234.863 31.6553 234.513 30.8233 234.426C30.7363 235.129 31.0053 235.712 31.0633 236.319C31.2313 238.065 31.3534 239.817 31.5884 241.554C32.1894 246.015 34.3274 249.68 37.5364 252.766C38.2004 253.405 38.9433 253.953 39.7803 254.325C41.9973 255.309 44.3553 255.989 46.7153 256.315C51.3863 256.962 56.0434 257.663 60.6784 258.52C63.8084 259.098 66.8683 259.968 69.9563 260.728C73.6493 261.636 77.4254 262.095 81.1954 262.591C85.8694 263.207 89.9654 261.936 93.5754 259.037C95.6474 257.373 97.1604 255.204 98.5694 252.964C100.709 249.562 102.723 246.07 105.534 243.136C106.318 242.318 107.001 241.365 107.218 240.222C107.658 237.898 107.109 235.726 106.008 233.677C105.783 233.258 105.453 232.836 104.929 232.839C104.33 232.842 104.235 233.43 104.059 233.842C103.29 235.637 102.223 237.245 101.103 238.834C99.7703 240.726 98.0814 242.31 96.6654 244.126C97.0424 244.042 97.2854 243.755 97.5694 243.53C98.9464 242.439 100.395 241.458 101.968 240.669C102.131 240.587 102.29 240.492 102.461 240.433C102.726 240.341 103.015 240.115 103.275 240.373C103.587 240.684 103.316 240.999 103.164 241.263C102.381 242.629 101.48 243.921 100.411 245.073C97.4814 248.23 94.5654 251.403 91.3154 254.244C90.8184 254.678 90.3124 255.095 89.7214 255.394C89.2764 255.619 88.8144 255.732 88.3934 255.358C87.9944 255.003 88.1074 254.556 88.2644 254.139C88.8244 252.65 89.7504 251.383 90.7214 250.145C91.7614 248.819 92.9793 247.661 94.1723 246.48C94.2743 246.379 94.3483 246.248 94.4343 246.131C92.5493 247.107 90.7044 248.128 89.3194 249.814C88.7644 250.489 88.0984 251.074 87.4714 251.688C87.2374 251.917 86.9843 252.132 86.7143 252.317C86.4313 252.512 86.1074 252.61 85.7984 252.367C85.4474 252.092 85.4883 251.723 85.6423 251.37C85.8933 250.795 86.2933 250.315 86.6673 249.818C86.8083 249.632 87.0823 249.483 86.9303 249.173C86.4553 249.173 85.9864 249.19 85.5194 249.17C81.7714 249.009 78.1173 248.277 74.5343 247.224C67.2033 245.07 59.8073 243.143 52.4963 240.915C49.2143 239.915 45.8484 239.189 42.5234 238.325C42.0964 238.214 41.4134 238.228 41.5244 237.578C41.6114 237.07 42.2363 237.172 42.6513 237.154C45.6173 237.021 48.5723 237.165 51.5123 237.571C56.2203 238.222 60.8644 239.233 65.5184 240.17C68.4564 240.762 71.3514 241.553 74.2314 242.389C77.2844 243.276 80.2974 244.315 83.4404 244.862C84.8434 245.106 86.2564 245.378 87.6824 245.054C89.9494 244.539 91.9004 243.425 93.5534 241.806C94.3874 240.989 95.1144 240.067 96.0284 239.326C96.7154 238.768 97.2394 238.064 97.7214 237.324C98.7834 235.695 99.7114 233.99 100.459 232.202C101.524 229.655 102.971 227.332 104.452 225.021C106.116 222.424 108.189 220.149 110.129 217.769C111.054 216.635 111.972 215.495 112.724 214.234C113.756 212.503 113.989 210.713 113.311 208.765C112.802 207.304 111.963 206.125 110.913 205.02C109.702 203.747 108.19 203.236 106.535 202.97C105.892 202.866 105.414 203.061 105.045 203.627C104.466 204.515 103.797 205.346 103.237 206.245C102.366 207.643 101.84 209.185 101.456 210.757C101.69 210.878 101.816 210.783 101.95 210.74C102.187 210.665 102.445 210.487 102.648 210.763C102.839 211.023 102.642 211.256 102.502 211.458C102.17 211.94 101.818 212.407 101.469 212.877C99.2193 215.906 96.6584 218.672 94.1474 221.478C92.7084 223.085 91.3024 224.724 89.7384 226.215C89.3144 226.619 88.8854 227.018 88.3684 227.305C87.9964 227.511 87.6074 227.609 87.2384 227.317C86.8704 227.026 86.8684 226.617 86.9884 226.214C87.0714 225.936 87.1914 225.663 87.3334 225.41C87.8004 224.582 88.2904 223.768 88.8624 223.004C88.9954 222.826 89.2744 222.654 89.0364 222.328C88.0944 222.643 87.1664 222.975 86.2254 223.263C84.2254 223.875 82.2014 224.392 80.0844 224.212C77.9364 224.029 75.7813 223.879 73.6643 223.446C70.0073 222.698 66.4233 221.66 62.8313 220.659C58.1413 219.351 53.6214 217.538 49.0244 215.953C44.4584 214.38 39.8624 212.918 35.1004 212.042C34.4514 211.923 33.8143 211.763 33.2023 211.512C32.9993 211.429 32.7964 211.343 32.6054 211.238C32.3764 211.112 32.1474 210.946 32.1964 210.65C32.2484 210.332 32.5333 210.301 32.7923 210.289C33.0843 210.276 33.3784 210.267 33.6694 210.288C34.5434 210.351 35.4164 210.486 36.2914 210.493C40.6674 210.525 44.9474 211.252 49.2034 212.19C54.4893 213.355 59.6834 214.888 64.9534 216.114C69.5803 217.19 74.1264 218.585 78.8114 219.446C82.7844 220.176 86.4184 219.551 89.8714 217.486C92.2814 216.046 94.3833 214.25 96.3393 212.264C97.0883 211.503 97.7233 210.638 98.1553 209.666C99.2263 207.254 100.598 205.008 101.826 202.682C104.441 197.726 107.332 192.942 110.33 188.216C110.841 187.411 111.298 186.579 111.609 185.673C111.862 184.933 111.942 184.196 111.761 183.412C111.488 182.235 111.116 181.087 110.816 179.919C109.874 176.261 107.569 173.778 104.236 172.153C103.109 171.604 102.953 171.607 102.182 172.531C100.377 174.693 98.6243 176.896 96.9303 179.146C96.7243 179.42 96.4434 179.677 96.4294 180.125C96.7914 180.087 97.0174 179.9 97.2604 179.758C98.1144 179.259 98.9924 178.808 99.9074 178.434C100.23 178.302 100.66 177.992 100.901 178.355C101.14 178.715 100.694 179.004 100.444 179.241C99.0094 180.597 97.5884 181.97 96.1064 183.275C93.2464 185.793 90.5973 188.514 88.0383 191.332C87.1293 192.333 86.1634 193.283 85.2124 194.245C84.8244 194.638 84.3783 194.962 83.8393 195.125C82.8893 195.412 82.3814 194.964 82.5184 193.963C82.5384 193.82 82.5923 193.678 82.4263 193.585C77.1703 194.931 74.8004 194.703 71.0404 194.075C65.4284 193.136 60.0143 191.441 54.7843 189.218C47.4143 186.084 40.0834 182.862 32.3894 180.567C30.9894 180.15 29.6544 179.529 28.3424 178.879C28.0484 178.734 27.7653 178.564 27.4903 178.385C27.3023 178.262 27.1514 178.092 27.2474 177.837C27.3234 177.635 27.5173 177.615 27.6973 177.585C29.0413 177.357 30.3924 177.352 31.7424 177.508C34.3294 177.808 36.8304 178.517 39.3474 179.146C42.5384 179.944 45.7363 180.713 48.7833 182.005C54.9163 184.606 61.1873 186.822 67.5853 188.682C71.3643 189.781 75.1954 190.47 79.1494 190.321C80.4044 190.274 81.5904 190.008 82.7604 189.519C85.4714 188.387 87.4304 186.431 89.0354 184.053C89.6294 183.173 90.2144 182.288 90.9194 181.492C91.7494 180.555 92.4453 179.529 93.0173 178.419C93.6403 177.212 94.4054 176.099 95.1874 174.993C98.2214 170.705 101.935 167.013 105.511 163.2C106.611 162.027 107.807 160.943 108.778 159.651C110.329 157.588 111.731 155.435 112.07 152.809C112.328 150.806 111.902 148.904 110.462 147.424C108.927 145.846 107.04 144.793 104.846 144.407C102.302 143.959 99.7494 144.011 97.2084 144.462C93.7664 145.073 90.6904 146.533 87.7564 148.4C84.1254 150.711 81.2584 153.826 78.3844 156.95C78.0704 157.291 78.0114 157.615 78.2304 158.039C78.4124 158.392 78.5603 158.78 78.6333 159.169C78.8373 160.265 78.3023 160.864 77.1983 160.819C76.5213 160.792 75.9054 160.552 75.3554 160.179C74.6914 159.727 74.0414 159.249 73.4164 158.745C70.3944 156.311 67.3633 153.878 63.9513 152.01C57.9163 148.705 51.6833 145.806 45.2893 143.26C42.7263 142.239 40.0863 141.545 37.3053 141.459C36.7633 141.442 36.2153 141.321 35.6883 141.18C35.3073 141.078 34.8554 140.899 34.9334 140.391C35.0054 139.926 35.4694 139.94 35.8204 139.933C39.0734 139.866 42.3264 139.771 45.5794 139.774C48.2864 139.777 50.9733 140.123 53.6513 140.51C56.2553 140.886 58.8644 141.244 61.3854 142.044C62.7144 142.466 63.9894 143.007 65.2224 143.657C65.7314 143.925 65.8453 143.836 65.8923 143.257C65.9043 143.112 65.9003 142.964 65.8953 142.818C65.7513 138.613 65.4744 134.422 64.4844 130.312C64.4334 130.099 64.3714 129.885 64.3594 129.669C64.3524 129.536 64.3904 129.347 64.4814 129.274C64.6444 129.144 64.8274 129.242 64.9634 129.381C65.4814 129.91 65.8583 130.538 66.1933 131.188C67.1503 133.046 67.8473 135.013 68.5773 136.964C69.4613 139.327 70.2083 141.739 71.2013 144.063C71.5383 144.853 71.9563 145.572 72.6593 146.08C74.6953 147.549 76.9324 148.434 79.4854 148.424C80.3254 148.421 80.9553 148.134 81.4263 147.421C82.3923 145.956 83.4374 144.541 84.3674 143.053C86.2684 140.012 88.3144 137.07 90.3684 134.133C90.6024 133.799 90.8244 133.18 91.3074 133.408C91.8034 133.642 91.4424 134.206 91.3254 134.587C90.8114 136.264 90.2824 137.939 89.6944 139.592C89.3594 140.535 89.6273 141.391 89.8703 142.269C89.9683 142.621 90.2204 142.712 90.5544 142.598C90.7274 142.539 90.8994 142.477 91.0694 142.409C95.0114 140.845 99.0654 140.151 103.311 140.712C106.312 141.109 109.038 142.099 111.45 143.973C113.305 145.414 114.425 147.218 114.829 149.542C115.451 153.116 115.2 156.536 113.382 159.749C112.531 161.253 111.513 162.636 110.316 163.879C109.022 165.223 107.692 166.531 106.393 167.87C106.024 168.25 105.624 168.625 105.444 169.132C105.753 169.42 106.093 169.449 106.403 169.548C109.192 170.438 111.364 172.141 113.03 174.529C114.31 176.364 114.958 178.459 115.547 180.575C116.378 183.56 116.16 186.434 114.587 189.162C114.155 189.911 114.175 189.962 114.936 190.303C117.148 191.295 119.164 192.627 121.22 193.889C121.437 194.022 121.659 194.162 121.838 194.34C122.148 194.65 122.047 194.97 121.604 195.029C121.023 195.107 120.437 195.063 119.857 194.955C117.982 194.605 116.156 194.089 114.384 193.383C113.909 193.193 113.43 193.012 112.955 192.82C112.499 192.636 112.267 192.895 112.095 193.254C111.905 193.651 112.229 193.761 112.482 193.899C113.06 194.213 113.627 194.555 114.224 194.827C117.849 196.478 121.275 198.55 125.023 199.94C125.262 200.029 125.551 200.097 125.533 200.42C125.516 200.731 125.222 200.811 124.983 200.88C124.168 201.116 123.34 201.204 122.488 201.113C120.807 200.933 119.171 200.562 117.58 199.995C116.557 199.63 115.539 199.253 114.317 198.807C114.783 199.482 115.299 199.715 115.827 199.933C118.667 201.103 121.507 202.272 124.344 203.449C124.646 203.574 124.956 203.709 125.214 203.903C125.555 204.159 125.51 204.502 125.132 204.681C124.799 204.838 124.432 204.895 124.063 204.899C122.236 204.921 120.407 205.045 118.588 204.751C118.012 204.658 117.429 204.596 116.848 204.542C116.361 204.496 116.245 204.651 116.463 205.115C116.805 205.844 117.109 206.587 117.419 207.329C118.661 210.295 118.284 213.105 116.747 215.856C115.63 217.856 114.157 219.582 112.631 221.253C110.378 223.719 108.318 226.318 106.586 229.175C106.061 230.041 106.09 230.145 106.971 230.549C108.77 231.373 109.8 232.825 110.106 234.763C110.305 236.025 110.441 237.298 110.568 238.57C110.872 241.612 109.977 244.282 107.937 246.538C107.125 247.437 106.385 248.384 105.659 249.347C105.537 249.508 105.336 249.671 105.566 249.98C107.289 249.659 109.037 249.332 110.726 248.717C113.403 247.743 115.751 246.207 118.048 244.563C120.223 243.007 122.323 241.352 124.268 239.527C125.893 238.003 127.275 236.236 128.66 234.486C131.555 230.829 133.944 226.848 136.136 222.748C137.981 219.297 139.782 215.822 141.058 212.104C142.56 207.728 143.412 203.203 144.167 198.655C144.205 198.427 144.322 198.156 144.033 197.912C143.735 198.128 143.584 198.464 143.381 198.752C142.539 199.948 141.726 201.166 140.854 202.34C139.499 204.165 137.998 205.861 136.232 207.307C135.75 207.702 135.259 208.081 134.688 208.342C134.514 208.422 134.321 208.448 134.165 208.332C133.953 208.175 133.993 207.947 134.074 207.733C134.125 207.597 134.193 207.466 134.261 207.337C135.941 204.171 137.615 201.005 139.569 197.992C141.859 194.461 143.94 190.81 145.741 186.999C147.799 182.642 149.272 178.095 150.239 173.387C151.536 167.076 152.545 160.73 152.402 154.248C152.337 151.354 152.044 148.483 151.827 145.605ZM90.0383 256.811C90.4343 256.064 90.9523 255.401 91.4943 254.758C93.2183 252.712 95.1134 250.841 97.2654 249.243C97.5374 249.041 97.8523 248.623 98.2063 248.934C98.5713 249.254 98.1884 249.612 98.0024 249.891C96.0374 252.845 93.9104 255.678 91.6264 258.393C91.5094 258.532 91.3803 258.665 91.2363 258.775C90.9283 259.011 90.5874 259.111 90.2134 258.93C89.8034 258.731 89.6593 258.375 89.6463 257.972C89.6833 257.533 89.8493 257.167 90.0383 256.811ZM99.5463 230.852C98.3343 232.675 97.0964 234.483 95.8124 236.256C94.7004 237.792 93.6234 239.357 92.3754 240.792C92.1114 241.096 91.8574 241.41 91.4894 241.594C90.8024 241.937 90.2404 241.583 90.2334 240.745C90.2874 240.176 90.5474 239.614 90.8514 239.071C91.8734 237.245 93.1653 235.611 94.5383 234.048C95.7903 232.622 97.1194 231.261 98.6404 230.112C99.0294 229.818 99.5163 229.203 99.9353 229.55C100.435 229.962 99.7973 230.474 99.5463 230.852ZM102.209 222.421C101.875 222.943 101.523 223.455 101.152 223.952C99.1014 226.702 97.0433 229.446 94.9863 232.192C93.6953 233.915 92.5294 235.73 91.1494 237.387C90.8214 237.78 90.4964 238.177 90.0544 238.449C89.7304 238.648 89.3873 238.76 89.0303 238.515C88.7223 238.304 88.6684 237.987 88.6874 237.54C88.7914 236.804 89.0794 236.018 89.4234 235.249C90.1744 233.569 91.2544 232.1 92.3564 230.642C94.6764 227.569 97.2483 224.746 100.392 222.487C100.748 222.232 101.102 221.972 101.478 221.75C101.745 221.592 102.055 221.273 102.36 221.551C102.677 221.84 102.376 222.161 102.209 222.421ZM88.6814 229.368C89.7814 227.372 91.1304 225.547 92.6874 223.897C95.6434 220.762 98.5413 217.564 101.887 214.821C102.878 214.009 103.909 213.256 104.991 212.57C105.237 212.414 105.499 212.282 105.763 212.157C105.929 212.078 106.12 212.037 106.272 212.186C106.43 212.34 106.382 212.537 106.285 212.69C105.99 213.151 105.689 213.61 105.362 214.049C103.681 216.306 101.921 218.503 100.042 220.598C96.8703 224.136 93.8974 227.841 90.8624 231.494C90.5574 231.861 90.2504 232.226 89.8324 232.467C88.9034 233.001 88.0303 232.501 88.0173 231.341C88.0483 230.684 88.3254 230.014 88.6814 229.368ZM89.8034 209.682C89.3114 209.496 88.9794 208.92 88.9794 208.224C89.0334 207.666 89.1814 207.103 89.3934 206.555C90.2494 204.345 91.6443 202.47 93.0983 200.636C94.9063 198.356 97.0894 196.482 99.4724 194.831C99.8624 194.561 100.251 194.276 100.713 194.144C101.07 194.042 101.306 194.283 101.178 194.627C101.079 194.896 100.917 195.15 100.743 195.381C97.6474 199.499 94.8163 203.798 92.0173 208.12C91.7993 208.457 91.5764 208.793 91.3244 209.105C90.8474 209.695 90.3254 209.88 89.8034 209.682ZM100.891 199.284C98.4743 203.491 96.0444 207.691 93.6134 211.89C93.4314 212.204 93.2363 212.517 93.0083 212.798C92.7413 213.127 92.3914 213.337 91.9504 213.159C91.5224 212.986 91.3943 212.612 91.3833 212.152C91.4693 211.409 91.7434 210.695 92.0754 210.002C93.0554 207.955 94.2433 206.03 95.5903 204.208C97.0003 202.301 98.4314 200.407 100.169 198.776C100.472 198.492 100.833 197.895 101.204 198.17C101.64 198.493 101.09 198.937 100.891 199.284ZM103.392 185.91C103.616 185.797 103.886 185.669 104.082 185.944C104.232 186.154 104.105 186.367 103.975 186.545C103.651 186.987 103.329 187.431 102.985 187.857C99.8374 191.748 96.6704 195.625 93.5394 199.53C92.3054 201.069 91.1484 202.668 89.9534 204.239C89.7324 204.53 89.5174 204.827 89.2734 205.098C88.9454 205.463 88.5593 205.788 88.0333 205.548C87.5503 205.328 87.5774 204.848 87.5884 204.282C87.7754 202.858 88.3354 201.439 89.0544 200.071C90.0654 198.149 91.3933 196.453 92.7963 194.813C95.5203 191.629 98.5824 188.826 102.147 186.6C102.55 186.349 102.969 186.124 103.392 185.91ZM85.4253 198.591C85.5353 197.735 85.9244 196.87 86.3894 196.037C87.3924 194.241 88.6534 192.629 89.9924 191.077C92.3584 188.335 94.7843 185.65 97.7013 183.466C98.4613 182.897 99.2434 182.354 100.026 181.817C100.326 181.611 100.654 181.444 100.978 181.276C101.173 181.175 101.397 181.09 101.576 181.302C101.748 181.505 101.651 181.728 101.539 181.911C101.232 182.408 100.93 182.911 100.58 183.378C99.0434 185.425 97.3924 187.377 95.6914 189.291C93.0714 192.24 90.3624 195.119 88.1964 198.442C87.9764 198.779 87.7664 199.121 87.5444 199.457C87.2344 199.927 86.9044 200.386 86.2334 200.212C85.6814 200.069 85.3773 199.48 85.4253 198.591ZM15.6994 145.559C16.0494 145.549 16.3383 145.706 16.5983 145.914C17.9483 146.993 19.1184 148.246 20.1524 149.627C20.2384 149.742 20.3084 149.877 20.3544 150.013C20.4644 150.337 20.3424 150.511 19.9934 150.486C19.8874 150.478 19.7784 150.438 19.6824 150.389C18.2494 149.655 16.8203 148.913 15.6503 147.774C15.3343 147.467 15.0313 147.144 14.9053 146.707C14.7263 146.085 15.0844 145.577 15.6994 145.559ZM13.6354 149.51C13.3594 148.707 13.8403 148.003 14.6723 147.974C15.2573 147.969 15.7204 148.261 16.1614 148.596C17.8204 149.859 19.4243 151.192 20.9733 152.585C22.0873 153.587 23.1293 154.668 24.1983 155.72C24.4323 155.95 24.6614 156.191 24.8634 156.449C25.0524 156.691 25.4354 156.957 25.1444 157.278C24.8684 157.583 24.5384 157.26 24.2654 157.113C20.8454 155.266 17.6474 153.083 14.5934 150.685C14.1874 150.364 13.8084 150.016 13.6354 149.51ZM14.2493 152.75C14.5883 152.336 15.0164 152.398 15.4424 152.604C16.0054 152.875 16.5033 153.246 16.9953 153.626C20.3213 156.193 23.5484 158.881 26.7044 161.654C26.8884 161.815 27.1494 161.927 27.1484 162.217C27.1094 162.353 27.0144 162.435 26.9074 162.405C26.6644 162.335 26.4184 162.254 26.1954 162.136C22.4404 160.15 18.8913 157.845 15.5393 155.237C15.0503 154.857 14.6053 154.415 14.2843 153.872C14.0693 153.507 13.9483 153.118 14.2493 152.75ZM14.3854 156.142C14.7854 155.723 15.2084 155.942 15.5704 156.202C16.5194 156.884 17.4783 157.558 18.3793 158.301C22.3293 161.56 26.5033 164.523 30.5893 167.602C30.8233 167.778 31.3233 167.838 31.1583 168.261C31.0193 168.617 30.5864 168.475 30.2654 168.5C29.5654 168.428 28.9223 168.17 28.2973 167.862C26.7513 167.1 25.3353 166.127 23.9223 165.15C21.3963 163.404 18.9003 161.616 16.5203 159.673C16.0123 159.258 15.5494 158.787 15.0754 158.332C14.7834 158.052 14.5493 157.724 14.3663 157.362C14.1583 156.952 14.0184 156.527 14.3854 156.142ZM19.0234 180.126C19.3614 180.143 19.6633 180.27 19.9433 180.445C21.6883 181.539 23.1593 182.95 24.5423 184.461C24.6923 184.625 24.8433 184.833 24.6983 185.044C24.5513 185.258 24.3014 185.192 24.1004 185.097C22.2844 184.238 20.5054 183.314 18.9724 181.99C18.6964 181.752 18.4414 181.481 18.3304 181.12C18.1704 180.602 18.4914 180.15 19.0234 180.126ZM52.5463 254.618C52.6763 254.683 52.8043 254.76 52.9133 254.855C53.2523 255.15 53.2254 255.402 52.8214 255.618C52.2454 255.926 51.6123 255.844 50.9953 255.857C49.9233 255.891 48.8783 255.701 47.8663 255.386C44.6193 254.376 41.4523 253.159 38.4133 251.623C37.5953 251.21 36.8203 250.728 36.1163 250.142C35.8653 249.933 35.6153 249.711 35.4173 249.454C34.9913 248.901 34.9353 248.366 35.2373 247.935C35.5973 247.42 36.1283 247.314 36.6973 247.434C37.0503 247.508 37.3974 247.646 37.7224 247.805C41.3004 249.553 44.9694 251.094 48.6224 252.674C49.9604 253.253 51.2413 253.964 52.5463 254.618ZM41.6874 243.665C41.8714 243.835 42.0693 244.043 41.9093 244.33C41.7653 244.589 41.4933 244.628 41.2363 244.598C40.3003 244.488 39.3673 244.357 38.2633 244.211C38.6503 244.626 39.0333 244.749 39.3753 244.913C41.6193 245.985 43.7664 247.233 45.8974 248.508C46.2204 248.701 46.7983 248.868 46.6553 249.307C46.5033 249.771 45.9433 249.508 45.5733 249.479C44.2883 249.377 43.0783 248.934 41.8663 248.541C40.1293 247.978 38.4464 247.263 36.7784 246.518C36.4794 246.384 36.1814 246.236 35.9114 246.053C35.4104 245.714 35.0013 245.296 35.0773 244.621C35.1583 243.899 35.7063 243.706 36.4603 243.576C35.7863 243.169 35.2463 242.93 34.8523 242.478C34.3633 241.917 34.2383 241.375 34.5003 240.88C34.7833 240.346 35.3833 240.1 36.1113 240.306C38.2723 240.916 40.0614 242.16 41.6874 243.665ZM45.0144 234.328C45.1244 234.417 45.1923 234.567 45.1033 234.72C45.0213 234.86 44.8873 234.909 44.7323 234.877C44.4473 234.818 44.1583 234.764 43.8793 234.682C39.0263 233.249 34.3893 231.324 30.1243 228.57C29.2303 227.993 28.3613 227.372 28.0033 226.293C27.6553 225.244 28.3074 224.336 29.3854 224.347C30.0034 224.352 30.5044 224.659 30.9844 224.993C32.5124 226.055 34.0253 227.139 35.5563 228.196C38.3803 230.145 41.2913 231.96 44.2143 233.756C44.4923 233.929 44.7604 234.122 45.0144 234.328ZM37.1453 223.162C37.4263 223.415 37.9264 223.671 37.7214 224.113C37.4624 224.668 36.9344 224.299 36.5494 224.214C35.8484 224.059 35.1673 223.817 34.4783 223.611C34.4503 223.663 34.4224 223.716 34.3934 223.769C34.8384 224.055 35.2814 224.345 35.7304 224.626C37.9884 226.041 40.2484 227.453 42.5064 228.867C42.6914 228.983 42.8894 229.088 43.0484 229.234C43.3294 229.492 43.2473 229.767 42.8713 229.867C42.5833 229.944 42.2924 229.904 42.0024 229.857C40.8774 229.676 39.7984 229.345 38.7694 228.859C35.0614 227.107 31.5523 225.023 28.2763 222.551C27.8673 222.242 27.4684 221.922 27.1614 221.507C26.9404 221.208 26.6984 220.855 26.9064 220.504C27.1994 220.01 27.0754 219.637 26.7984 219.202C26.4854 218.709 26.4414 218.153 26.7864 217.652C27.1644 217.103 27.7433 217.03 28.3533 217.123C28.8303 217.196 29.2503 217.427 29.6643 217.659C32.3843 219.183 34.8333 221.081 37.1453 223.162ZM34.1083 218.027C34.2263 218.161 34.3313 218.321 34.3923 218.488C34.5033 218.794 34.3713 218.991 34.0473 219.01C33.8703 219.02 33.6794 218.995 33.5114 218.938C31.3314 218.206 29.1973 217.381 27.3623 215.94C26.9853 215.644 26.6354 215.329 26.4674 214.865C26.1654 214.033 26.7564 213.198 27.6614 213.205C28.0064 213.237 28.3464 213.365 28.6694 213.536C30.7914 214.658 32.5323 216.244 34.1083 218.027ZM39.8774 205.552C40.0094 205.624 40.1054 205.758 40.0784 205.911C40.0524 206.059 39.9373 206.173 39.7793 206.189C39.3813 206.229 38.9813 206.254 38.8093 206.267C37.1403 206.246 35.7614 205.902 34.3974 205.481C30.6894 204.336 27.4144 202.352 24.2344 200.191C22.7224 199.163 21.2904 198.032 20.0194 196.708C19.6134 196.285 19.2163 195.856 18.9653 195.318C18.6263 194.589 18.7304 193.947 19.2464 193.53C19.7554 193.118 20.2974 193.128 20.9594 193.58C21.1694 193.724 21.3653 193.892 21.5553 194.062C24.2323 196.463 27.2084 198.442 30.2994 200.259C32.3454 201.461 34.3983 202.653 36.4433 203.857C37.2643 204.34 38.1274 204.732 38.9984 205.111C39.2974 205.242 39.5894 205.394 39.8774 205.552ZM28.9064 190.309C29.0094 190.411 29.0904 190.538 29.0404 190.755C28.6434 190.992 28.3003 190.708 27.9773 190.534C26.2743 189.621 24.5833 188.685 22.8873 187.759C22.6003 187.602 22.3054 187.458 22.0144 187.308C22.5184 187.951 23.2164 188.368 23.8504 188.854C26.4294 190.833 29.1644 192.605 31.6394 194.722C32.2214 195.22 32.7813 195.746 33.3403 196.27C33.4663 196.388 33.6193 196.539 33.5073 196.744C33.4023 196.937 33.2154 196.923 33.0284 196.884C32.4874 196.773 31.9784 196.573 31.4794 196.345C29.8144 195.583 28.2503 194.64 26.6933 193.683C26.5093 193.57 26.3174 193.467 26.1214 193.354C26.0104 193.787 26.3864 193.823 26.5794 193.952C29.7954 196.109 33.0213 198.251 36.2453 200.396C36.4273 200.517 36.6183 200.626 36.7963 200.754C36.9153 200.839 37.0204 200.954 36.9724 201.119C36.9034 201.354 36.7074 201.348 36.5274 201.308C35.6324 201.111 34.7773 200.793 33.9343 200.438C31.7733 199.528 29.7404 198.374 27.7184 197.201C25.3484 195.826 22.9803 194.448 20.7113 192.907C20.0113 192.432 19.3663 191.896 18.8233 191.249C18.0903 190.377 18.0724 189.928 18.7424 188.948C18.9024 188.715 18.8764 188.564 18.7164 188.377C18.5974 188.239 18.4773 188.099 18.3793 187.946C18.0813 187.486 17.9583 187 18.3053 186.516C18.6333 186.058 19.0893 185.877 19.6503 186.017C19.8273 186.061 20.0014 186.118 20.1774 186.169C19.9064 185.927 19.6234 185.698 19.3684 185.441C19.1124 185.184 18.8563 184.919 18.6513 184.623C18.4023 184.264 18.3814 183.865 18.6744 183.508C18.9344 183.191 19.2883 183.118 19.6643 183.253C20.0403 183.388 20.4253 183.521 20.7673 183.722C23.8043 185.513 26.4084 187.846 28.9064 190.309ZM33.3393 173.401C33.2983 173.607 33.1274 173.686 32.9414 173.714C32.7614 173.741 32.5783 173.741 32.3883 173.754C31.5133 173.685 30.6764 173.436 29.8504 173.135C27.1804 172.162 24.8644 170.558 22.5314 168.994C20.8634 167.876 19.2834 166.636 17.7604 165.324C16.8974 164.58 16.1503 163.735 15.4913 162.811C15.3033 162.547 15.1613 162.242 15.0463 161.937C14.9023 161.558 15.0204 161.211 15.3164 160.946C15.6164 160.677 15.9794 160.633 16.3374 160.801C16.5644 160.908 16.7714 161.068 16.9664 161.229C20.1514 163.857 23.5313 166.221 26.9083 168.59C28.8803 169.973 30.8424 171.371 32.8084 172.763C32.9274 172.847 33.0474 172.931 33.1574 173.026C33.2684 173.123 33.3703 173.244 33.3393 173.401ZM97.2354 167.093C97.1094 167.393 96.9414 167.68 96.7654 167.955C94.8334 170.966 92.8813 173.965 90.9653 176.986C89.9093 178.652 88.9444 180.371 88.1624 182.188C87.8174 182.99 87.3964 183.279 86.7874 183.165C86.1554 183.046 85.8183 182.52 85.8013 181.665C85.7843 180.83 86.0873 180.08 86.4653 179.373C88.9533 174.724 92.1233 170.611 96.1373 167.169C96.3823 166.959 96.5993 166.693 96.9343 166.635C97.2403 166.665 97.3374 166.852 97.2354 167.093ZM99.5444 160.492C99.8564 160.815 99.5203 161.101 99.3443 161.346C98.9603 161.879 98.5394 162.385 98.1314 162.901C95.2584 166.544 92.1613 170.009 89.4303 173.765C88.5713 174.947 87.7754 176.174 86.9464 177.377C86.7604 177.647 86.5744 177.923 86.3504 178.16C85.8604 178.678 85.3524 178.812 84.8844 178.572C84.3434 178.295 84.2644 177.803 84.3084 177.156C84.3764 176.523 84.6684 175.853 84.9874 175.194C86.1304 172.839 87.7324 170.797 89.3884 168.797C91.7304 165.968 94.3733 163.458 97.4433 161.42C97.8693 161.137 98.3084 160.873 98.7524 160.62C98.9964 160.483 99.2864 160.225 99.5444 160.492ZM98.4294 156.959C98.5864 157.13 98.5123 157.311 98.3963 157.451C98.1413 157.76 97.8764 158.065 97.5914 158.347C94.8874 161.026 92.3573 163.865 89.8833 166.755C88.3343 168.563 86.9243 170.475 85.7153 172.53C85.5303 172.844 85.3324 173.157 85.0964 173.433C84.7564 173.83 84.3133 173.971 83.8133 173.752C83.3543 173.551 83.1944 173.16 83.1994 172.612C83.2154 172.16 83.4074 171.684 83.6104 171.214C84.1794 169.895 84.9484 168.694 85.8344 167.572C88.4044 164.315 91.2234 161.309 94.6174 158.883C95.5134 158.243 96.4724 157.714 97.4234 157.167C97.6124 157.058 97.8194 156.979 98.0234 156.901C98.1634 156.848 98.3144 156.833 98.4294 156.959ZM82.0773 162.035C83.9543 159.224 86.4874 157.221 89.6054 155.942C89.6724 155.914 89.7423 155.883 89.8133 155.876C90.1143 155.843 90.4744 155.528 90.6954 155.926C90.8714 156.243 90.5334 156.45 90.3414 156.65C88.0714 159.02 85.6114 161.188 83.1644 163.37C82.9174 163.59 82.6374 163.76 82.2824 163.781C81.8504 163.725 81.6554 163.457 81.6694 163.034C81.6814 162.655 81.8753 162.338 82.0773 162.035ZM81.1144 169.012C81.2264 168.434 81.4343 167.887 81.6753 167.354C82.2813 166.012 83.0774 164.786 84.0364 163.673C87.4774 159.677 91.4224 156.296 96.1084 153.825C96.5604 153.587 97.0193 153.344 97.5343 153.278C98.0303 153.214 98.2573 153.512 97.9993 153.928C97.7123 154.39 97.3614 154.819 96.9934 155.223C95.5884 156.766 94.0323 158.151 92.4603 159.52C89.1763 162.38 85.9674 165.314 83.4494 168.911C83.1774 169.3 82.8723 169.675 82.4263 169.882C81.6993 170.221 81.0574 169.79 81.1144 169.012ZM87.8474 72.692C87.9184 72.42 88.1234 72.354 88.3464 72.499C88.5264 72.615 88.6933 72.77 88.8223 72.941C89.6413 74.028 90.2743 75.212 90.6453 76.528C90.6843 76.668 90.7194 76.812 90.7264 76.956C90.7444 77.304 90.6503 77.621 90.3273 77.796C89.9573 77.997 89.6143 77.885 89.3313 77.606C89.1773 77.455 89.0344 77.28 88.9324 77.09C88.2854 75.885 87.9373 74.59 87.7923 73.257C87.8103 73.053 87.8024 72.866 87.8474 72.692ZM80.0253 65.906C80.0293 65.721 80.0454 65.524 80.2434 65.446C80.4504 65.365 80.5883 65.505 80.6843 65.665C80.8153 65.883 80.9384 66.108 81.0484 66.338C82.4774 69.337 84.1304 72.213 85.8204 75.069C86.0974 75.538 86.3554 76.028 86.5414 76.538C86.7624 77.142 86.5843 77.621 86.1463 77.884C85.7053 78.149 85.2183 78.076 84.7533 77.646C84.5683 77.474 84.4024 77.272 84.2644 77.06C82.1644 73.843 80.7824 70.34 80.1104 66.557C80.0854 66.419 80.0724 66.278 80.0244 65.915C80.0244 65.918 80.0244 65.92 80.0244 65.923C80.0354 66.025 80.0254 65.98 80.0244 65.923C80.0234 65.909 80.0214 65.892 80.0184 65.871C80.0204 65.886 80.0224 65.9 80.0244 65.915C80.0254 65.911 80.0253 65.908 80.0253 65.906ZM74.6924 60.616C74.7154 60.397 74.7454 60.152 75.0194 60.127C75.2264 60.108 75.3284 60.296 75.4034 60.465C75.5524 60.799 75.6994 61.134 75.8324 61.474C76.9284 64.265 78.1534 67.001 79.3724 69.739C80.0564 71.276 80.8483 72.76 81.7363 74.192C82.0643 74.722 82.3684 75.267 82.5154 75.878C82.6604 76.481 82.4464 77.05 81.9804 77.309C81.4714 77.593 80.9863 77.479 80.5463 77.147C80.0383 76.763 79.7194 76.222 79.4144 75.681C77.9344 73.056 76.9104 70.24 76.0104 67.378C75.4174 65.492 74.9904 63.566 74.7564 61.6C74.7304 61.382 74.7033 61.165 74.6903 61.053C74.6903 60.835 74.6814 60.724 74.6924 60.616ZM69.3913 56.661C69.4023 56.409 69.4213 56.144 69.5093 55.913C69.6083 55.653 69.8574 55.619 70.0154 55.842C70.1804 56.075 70.2884 56.357 70.3814 56.63C72.2494 62.14 74.4464 67.513 77.0964 72.698C77.4114 73.315 77.7124 73.945 77.7724 74.597C77.7754 75.637 76.9233 76.185 76.0383 75.766C75.6303 75.573 75.3124 75.268 75.0754 74.892C74.6864 74.274 74.2593 73.669 73.9563 73.01C72.0713 68.918 70.4233 64.74 69.7103 60.259C69.5203 59.069 69.3373 57.873 69.3913 56.661ZM68.4974 71.491C67.1784 68.116 66.1854 64.636 65.1744 61.162C64.0064 57.149 63.2533 53.058 62.8533 48.902C62.7763 48.106 62.8424 47.296 62.8424 46.492C62.8194 46.492 62.7964 46.492 62.7734 46.492C62.7734 45.725 62.7674 44.957 62.7774 44.19C62.7794 44.013 62.8043 43.8 63.0423 43.778C63.2683 43.757 63.3563 43.946 63.4013 44.119C63.5383 44.649 63.6733 45.181 63.7793 45.718C64.8903 51.368 66.7703 56.79 68.6453 62.214C69.6023 64.98 70.8304 67.637 71.9124 70.353C72.1024 70.828 72.3104 71.297 72.3804 71.811C72.4954 72.655 72.1244 73.357 71.3864 73.697C70.6704 74.027 69.8644 73.825 69.3304 73.153C68.9394 72.659 68.7234 72.069 68.4974 71.491ZM97.8523 79.116C97.7273 79.294 97.5664 79.447 97.4144 79.605C95.6444 81.448 93.4783 82.6181 91.0343 83.2701C88.8023 83.8651 86.5054 84.034 84.0564 84.164C79.1014 83.877 74.5813 82.209 70.8953 78.558C70.3473 78.015 69.8683 77.418 69.5213 76.725C69.3573 76.397 69.2013 76.061 69.1943 75.688C69.1813 74.931 69.7213 74.539 70.4253 74.793C70.6293 74.867 70.8163 74.989 71.0083 75.094C76.7813 78.225 82.9414 79.57 89.4874 79.013C91.7384 78.822 93.9973 78.661 96.2273 78.252C96.6193 78.18 97.0294 78.166 97.4284 78.185C98.0944 78.217 98.2433 78.56 97.8523 79.116Z" fill="#C90087"/>
<path d="M94.6143 246.051C95.2533 245.735 95.6582 245.157 96.1212 244.645C95.6592 245.157 95.2543 245.734 94.6143 246.051Z" fill="#C90087"/>
<path d="M156.174 141.119C155.614 135.999 154.025 131.2 151.663 126.647C149.672 122.807 147.118 119.311 144.704 115.745C141.612 111.176 137.653 107.366 133.317 103.949C130.468 101.704 127.404 99.7725 124.437 97.6995C122.455 96.3155 120.502 94.8825 118.816 93.1495C116.42 90.6865 114.108 88.1415 111.925 85.4815C109.664 82.7265 107.726 79.7855 106.268 76.5115C103.743 70.8415 102.412 64.8635 101.518 58.7685C100.886 54.4625 100.231 50.1645 99.2832 45.9145C98.0172 40.2415 96.7612 34.5665 95.5042 28.8915C94.5522 24.5925 93.2912 20.4005 91.2282 16.4835C90.0622 14.2685 88.6642 12.2135 86.8672 10.4665C84.3712 8.04046 81.3002 6.89646 77.8692 6.64846C74.9272 6.43646 72.1782 7.00546 69.8012 8.84346C67.7052 10.4635 65.8702 12.3415 64.4072 14.5665C62.8902 16.8745 61.8082 19.3895 60.8592 21.9695C58.7832 27.6145 57.0872 33.3505 56.5852 39.3845C56.2352 43.5925 56.2992 47.7845 56.9662 51.9585C57.7472 56.8455 58.9882 61.6175 60.5492 66.3095C62.5932 72.4535 64.6952 78.5765 67.6132 84.3765C68.1592 85.4615 68.5852 86.5825 68.9102 87.7475C70.1572 92.2205 71.4002 96.6945 72.6572 101.164C73.2212 103.17 73.8222 105.166 74.3892 107.172C74.5832 107.858 74.5523 107.846 73.8773 108.053C73.2843 108.235 72.6952 108.438 72.1252 108.682C70.3442 109.445 68.5832 110.257 66.7952 111.004C63.9293 112.201 61.1292 113.552 58.1352 114.441C54.3452 115.567 50.5072 116.46 46.6202 117.175C42.5922 117.916 38.5382 118.508 34.4732 118.94C30.3262 119.381 26.3312 120.274 22.4952 121.896C19.2192 123.281 16.2882 125.157 13.9392 127.875C12.5192 129.518 11.4082 131.367 10.3002 133.218C7.79923 137.397 6.62023 141.95 6.60223 146.802C6.59023 149.82 7.19325 152.761 7.87325 155.685C8.49825 158.374 9.51223 160.917 10.8952 163.3C11.3152 164.023 11.5762 164.761 11.6122 165.568C11.7142 167.872 11.6893 170.179 11.3213 172.46C10.9153 174.985 10.4623 177.499 10.1923 180.049C9.83025 183.481 10.0313 186.827 11.1703 190.106C12.7103 194.544 14.9312 198.587 18.0482 202.115C18.4472 202.567 18.7122 203.058 18.8972 203.625C19.4462 205.301 19.4022 207.018 19.2472 208.732C19.0162 211.296 18.9722 213.854 19.5332 216.374C20.0892 218.871 20.6982 221.36 21.4052 223.818C22.1442 226.389 23.5162 228.629 25.4002 230.539C25.7642 230.908 26.0872 231.29 26.2562 231.793C26.5932 232.8 26.8672 233.816 27.0442 234.868C27.3322 236.581 27.2032 238.3 27.2002 240.014C27.1952 242.971 27.9272 245.721 29.2432 248.349C30.2852 250.43 31.7912 252.176 33.1882 254.007C35.1692 256.605 37.7373 258.173 40.9593 258.718C42.3983 258.961 43.8512 259.133 45.2632 259.545C46.6332 259.944 48.0292 260.22 49.4662 260.282C50.5612 260.329 51.6692 260.347 52.7422 260.54C55.3672 261.011 57.9762 261.579 60.5922 262.103C63.5672 262.699 66.4912 263.516 69.4512 264.17C73.2322 265.006 77.0452 265.699 80.8442 266.458C82.1762 266.724 83.4922 266.802 84.8672 266.656C89.3472 266.182 93.2582 264.503 96.6032 261.488C97.1192 261.023 97.6662 260.595 98.1152 260.058C99.4052 258.514 100.717 256.985 101.734 255.239C102.027 254.736 102.402 254.533 102.979 254.54C104.405 254.557 105.827 254.494 107.246 254.309C110.877 253.836 114.346 252.889 117.451 250.876C118.739 250.041 119.989 249.146 121.236 248.25C127.736 243.581 133.054 237.795 137.285 231.023C139.514 227.456 141.484 223.734 143.297 219.937C146.214 213.832 147.774 207.354 148.489 200.65C148.776 197.957 148.868 195.257 148.946 192.551C148.991 190.993 148.977 189.383 149.682 187.928C151.945 183.26 153.546 178.378 154.526 173.287C155.841 166.456 156.865 159.594 156.801 152.037C156.814 148.767 156.592 144.939 156.174 141.119ZM150.238 173.387C149.271 178.095 147.798 182.643 145.74 186.999C143.939 190.81 141.858 194.462 139.568 197.992C137.614 201.005 135.94 204.171 134.26 207.337C134.192 207.466 134.124 207.597 134.073 207.733C133.992 207.947 133.953 208.175 134.164 208.332C134.32 208.448 134.513 208.422 134.687 208.342C135.257 208.081 135.748 207.701 136.231 207.307C137.998 205.861 139.498 204.165 140.853 202.34C141.725 201.166 142.538 199.948 143.38 198.752C143.583 198.464 143.734 198.128 144.032 197.912C144.321 198.156 144.204 198.427 144.166 198.655C143.412 203.203 142.559 207.728 141.057 212.104C139.781 215.821 137.98 219.297 136.135 222.748C133.943 226.848 131.554 230.829 128.659 234.486C127.273 236.237 125.891 238.003 124.267 239.527C122.322 241.351 120.223 243.007 118.047 244.563C115.749 246.206 113.402 247.743 110.725 248.717C109.037 249.331 107.289 249.659 105.565 249.98C105.335 249.671 105.536 249.508 105.658 249.347C106.384 248.384 107.124 247.437 107.936 246.538C109.976 244.282 110.871 241.612 110.567 238.57C110.44 237.298 110.304 236.025 110.105 234.763C109.799 232.825 108.769 231.373 106.97 230.549C106.089 230.145 106.061 230.041 106.585 229.175C108.317 226.318 110.377 223.719 112.63 221.253C114.156 219.582 115.629 217.856 116.746 215.856C118.283 213.105 118.659 210.295 117.418 207.329C117.107 206.587 116.804 205.844 116.462 205.115C116.244 204.651 116.36 204.496 116.847 204.542C117.429 204.596 118.011 204.658 118.587 204.751C120.406 205.045 122.235 204.92 124.062 204.899C124.43 204.895 124.798 204.838 125.131 204.681C125.509 204.502 125.554 204.159 125.213 203.903C124.955 203.709 124.645 203.574 124.343 203.449C121.506 202.273 118.666 201.103 115.826 199.933C115.298 199.715 114.782 199.482 114.316 198.807C115.538 199.252 116.556 199.63 117.579 199.995C119.17 200.562 120.805 200.934 122.487 201.113C123.338 201.204 124.167 201.116 124.982 200.88C125.22 200.811 125.514 200.731 125.532 200.42C125.55 200.098 125.26 200.029 125.022 199.94C121.274 198.55 117.848 196.478 114.223 194.827C113.625 194.555 113.059 194.213 112.481 193.899C112.228 193.762 111.904 193.651 112.094 193.254C112.266 192.896 112.498 192.636 112.954 192.82C113.429 193.012 113.907 193.193 114.383 193.383C116.155 194.09 117.982 194.605 119.856 194.955C120.436 195.063 121.021 195.107 121.603 195.029C122.046 194.97 122.147 194.649 121.837 194.34C121.659 194.162 121.436 194.022 121.219 193.889C119.163 192.626 117.147 191.295 114.935 190.303C114.174 189.962 114.154 189.91 114.586 189.162C116.159 186.435 116.377 183.56 115.546 180.575C114.957 178.458 114.309 176.363 113.029 174.529C111.363 172.141 109.191 170.438 106.402 169.548C106.092 169.449 105.752 169.42 105.443 169.132C105.623 168.625 106.023 168.251 106.392 167.87C107.691 166.532 109.021 165.223 110.315 163.879C111.512 162.636 112.53 161.252 113.381 159.749C115.199 156.536 115.45 153.116 114.828 149.542C114.423 147.218 113.304 145.413 111.449 143.973C109.036 142.099 106.311 141.109 103.31 140.712C99.0652 140.151 95.0112 140.846 91.0682 142.409C90.8982 142.476 90.7262 142.539 90.5532 142.598C90.2192 142.712 89.9672 142.621 89.8692 142.269C89.6262 141.391 89.3582 140.535 89.6932 139.592C90.2812 137.939 90.8092 136.265 91.3242 134.587C91.4412 134.206 91.8012 133.642 91.3062 133.408C90.8232 133.18 90.6012 133.799 90.3672 134.133C88.3132 137.07 86.2672 140.012 84.3662 143.053C83.4362 144.54 82.3922 145.956 81.4252 147.421C80.9552 148.134 80.3242 148.42 79.4842 148.424C76.9312 148.434 74.6952 147.549 72.6582 146.08C71.9552 145.573 71.5372 144.854 71.2002 144.063C70.2082 141.739 69.4612 139.326 68.5762 136.964C67.8462 135.013 67.1493 133.045 66.1923 131.188C65.8573 130.537 65.4802 129.909 64.9622 129.381C64.8262 129.242 64.6422 129.144 64.4802 129.274C64.3892 129.347 64.3512 129.536 64.3582 129.669C64.3702 129.885 64.4322 130.1 64.4832 130.312C65.4732 134.422 65.7492 138.613 65.8942 142.818C65.8992 142.964 65.9032 143.111 65.8912 143.257C65.8442 143.836 65.7302 143.925 65.2212 143.657C63.9882 143.007 62.7132 142.465 61.3842 142.044C58.8632 141.244 56.2542 140.886 53.6502 140.51C50.9732 140.123 48.2862 139.777 45.5782 139.774C42.3252 139.771 39.0722 139.866 35.8192 139.933C35.4682 139.94 35.0032 139.926 34.9322 140.391C34.8542 140.899 35.3052 141.078 35.6872 141.18C36.2142 141.321 36.7623 141.442 37.3043 141.459C40.0843 141.544 42.7252 142.239 45.2882 143.26C51.6822 145.806 57.9152 148.705 63.9502 152.01C67.3622 153.878 70.3932 156.311 73.4152 158.745C74.0412 159.249 74.6902 159.727 75.3542 160.179C75.9032 160.553 76.5202 160.792 77.1972 160.819C78.3012 160.863 78.8362 160.265 78.6322 159.169C78.5592 158.78 78.4122 158.392 78.2292 158.039C78.0102 157.615 78.0692 157.291 78.3832 156.95C81.2582 153.827 84.1252 150.711 87.7552 148.4C90.6892 146.533 93.7652 145.073 97.2072 144.462C99.7482 144.011 102.301 143.959 104.845 144.407C107.039 144.793 108.926 145.847 110.461 147.424C111.901 148.904 112.327 150.806 112.069 152.809C111.73 155.435 110.328 157.589 108.777 159.651C107.806 160.942 106.61 162.027 105.51 163.2C101.935 167.012 98.2212 170.705 95.1862 174.993C94.4042 176.099 93.6382 177.212 93.0162 178.419C92.4442 179.529 91.7482 180.555 90.9182 181.492C90.2132 182.288 89.6282 183.174 89.0342 184.053C87.4292 186.431 85.4692 188.387 82.7592 189.519C81.5892 190.008 80.4032 190.273 79.1482 190.321C75.1942 190.47 71.3633 189.781 67.5843 188.682C61.1863 186.822 54.9142 184.606 48.7822 182.005C45.7352 180.712 42.5382 179.944 39.3462 179.146C36.8292 178.517 34.3282 177.808 31.7412 177.508C30.3912 177.352 29.0403 177.357 27.6963 177.585C27.5163 177.616 27.3232 177.635 27.2462 177.837C27.1502 178.092 27.3013 178.262 27.4893 178.385C27.7643 178.564 28.0482 178.734 28.3412 178.879C29.6542 179.529 30.9882 180.149 32.3882 180.567C40.0822 182.862 47.4132 186.084 54.7832 189.218C60.0132 191.441 65.4272 193.137 71.0392 194.075C74.7982 194.704 77.1692 194.931 82.4252 193.585C82.5912 193.679 82.5362 193.821 82.5172 193.963C82.3802 194.965 82.8882 195.412 83.8382 195.125C84.3772 194.962 84.8222 194.638 85.2112 194.245C86.1622 193.283 87.1293 192.334 88.0373 191.332C90.5953 188.514 93.2452 185.792 96.1052 183.275C97.5872 181.971 99.0082 180.598 100.443 179.241C100.693 179.005 101.14 178.716 100.9 178.355C100.659 177.992 100.228 178.302 99.9062 178.434C98.9912 178.808 98.1132 179.26 97.2592 179.758C97.0162 179.9 96.7892 180.087 96.4282 180.125C96.4422 179.676 96.7223 179.42 96.9293 179.146C98.6233 176.896 100.376 174.692 102.181 172.531C102.952 171.607 103.108 171.604 104.235 172.153C107.568 173.778 109.872 176.261 110.815 179.919C111.116 181.086 111.488 182.235 111.76 183.412C111.941 184.196 111.861 184.933 111.608 185.673C111.298 186.579 110.84 187.411 110.329 188.216C107.33 192.942 104.44 197.726 101.825 202.682C100.598 205.008 99.2252 207.254 98.1542 209.666C97.7232 210.637 97.0872 211.503 96.3382 212.264C94.3822 214.25 92.2792 216.046 89.8702 217.486C86.4172 219.551 82.7832 220.176 78.8102 219.446C74.1252 218.586 69.5792 217.191 64.9522 216.114C59.6822 214.888 54.4882 213.355 49.2022 212.19C44.9472 211.252 40.6662 210.525 36.2902 210.493C35.4162 210.486 34.5432 210.351 33.6682 210.288C33.3772 210.267 33.0833 210.276 32.7913 210.289C32.5323 210.3 32.2462 210.332 32.1952 210.65C32.1472 210.947 32.3762 211.112 32.6042 211.238C32.7952 211.344 32.9992 211.429 33.2012 211.512C33.8132 211.763 34.4502 211.923 35.0992 212.042C39.8602 212.918 44.4572 214.379 49.0232 215.953C53.6202 217.537 58.1403 219.351 62.8303 220.659C66.4223 221.661 70.0062 222.698 73.6632 223.446C75.7802 223.879 77.9352 224.029 80.0832 224.212C82.2002 224.392 84.2242 223.875 86.2242 223.263C87.1652 222.975 88.0932 222.643 89.0352 222.328C89.2742 222.654 88.9952 222.826 88.8612 223.004C88.2892 223.767 87.7992 224.582 87.3322 225.41C87.1892 225.663 87.0692 225.936 86.9872 226.214C86.8672 226.617 86.8692 227.026 87.2372 227.317C87.6052 227.609 87.9952 227.511 88.3672 227.305C88.8842 227.018 89.3122 226.62 89.7372 226.215C91.3012 224.724 92.7082 223.085 94.1462 221.478C96.6582 218.672 99.2193 215.906 101.468 212.877C101.817 212.407 102.169 211.939 102.501 211.458C102.64 211.256 102.838 211.023 102.647 210.763C102.444 210.487 102.186 210.665 101.949 210.74C101.815 210.783 101.69 210.878 101.455 210.757C101.839 209.184 102.365 207.643 103.236 206.245C103.796 205.346 104.464 204.515 105.044 203.627C105.413 203.061 105.891 202.867 106.534 202.97C108.189 203.236 109.701 203.747 110.912 205.02C111.963 206.125 112.802 207.304 113.31 208.765C113.988 210.713 113.755 212.502 112.723 214.234C111.972 215.495 111.053 216.634 110.128 217.769C108.187 220.148 106.114 222.424 104.451 225.021C102.971 227.332 101.523 229.655 100.458 232.202C99.7102 233.991 98.7822 235.696 97.7202 237.324C97.2372 238.064 96.7142 238.768 96.0272 239.326C95.1142 240.068 94.3862 240.99 93.5522 241.806C91.8992 243.425 89.9482 244.539 87.6812 245.054C86.2542 245.378 84.8412 245.106 83.4392 244.862C80.2962 244.315 77.2832 243.275 74.2302 242.389C71.3502 241.553 68.4542 240.762 65.5172 240.17C60.8622 239.232 56.2193 238.222 51.5113 237.571C48.5703 237.164 45.6152 237.02 42.6502 237.154C42.2352 237.173 41.6112 237.071 41.5232 237.578C41.4112 238.228 42.0952 238.214 42.5222 238.325C45.8462 239.189 49.2122 239.915 52.4952 240.915C59.8062 243.143 67.2022 245.07 74.5332 247.224C78.1162 248.277 81.7712 249.01 85.5182 249.17C85.9852 249.19 86.4543 249.173 86.9293 249.173C87.0813 249.482 86.8073 249.631 86.6663 249.818C86.2923 250.315 85.8912 250.795 85.6412 251.37C85.4872 251.723 85.4462 252.091 85.7972 252.367C86.1062 252.609 86.4302 252.511 86.7132 252.317C86.9822 252.132 87.2362 251.917 87.4702 251.688C88.0972 251.074 88.7642 250.489 89.3182 249.814C90.7032 248.128 92.5473 247.107 94.4333 246.131C94.3463 246.248 94.2732 246.379 94.1712 246.48C92.9782 247.662 91.7602 248.82 90.7202 250.145C89.7492 251.383 88.8232 252.65 88.2632 254.139C88.1062 254.556 87.9932 255.003 88.3922 255.358C88.8132 255.732 89.2752 255.62 89.7202 255.394C90.3112 255.095 90.8172 254.678 91.3142 254.244C94.5642 251.403 97.4792 248.23 100.41 245.073C101.479 243.921 102.381 242.629 103.163 241.263C103.315 240.998 103.586 240.684 103.274 240.373C103.014 240.114 102.725 240.341 102.46 240.433C102.289 240.492 102.13 240.587 101.967 240.669C100.394 241.458 98.9452 242.439 97.5682 243.53C97.2842 243.755 97.0412 244.043 96.6642 244.126C98.0802 242.309 99.7692 240.726 101.102 238.834C102.222 237.245 103.288 235.637 104.058 233.842C104.234 233.431 104.329 232.842 104.928 232.839C105.452 232.836 105.782 233.258 106.007 233.677C107.107 235.726 107.657 237.899 107.217 240.222C107.001 241.365 106.317 242.317 105.533 243.136C102.722 246.07 100.708 249.561 98.5682 252.964C97.1592 255.205 95.6452 257.374 93.5742 259.037C89.9642 261.937 85.8682 263.207 81.1942 262.591C77.4242 262.094 73.6483 261.636 69.9553 260.728C66.8683 259.969 63.8072 259.099 60.6772 258.52C56.0422 257.664 51.3852 256.962 46.7142 256.315C44.3542 255.988 41.9952 255.309 39.7792 254.325C38.9412 253.953 38.1992 253.405 37.5352 252.766C34.3262 249.679 32.1892 246.014 31.5872 241.554C31.3532 239.817 31.2302 238.065 31.0622 236.319C31.0042 235.712 30.7352 235.128 30.8222 234.426C31.6542 234.513 32.4082 234.863 33.2132 234.792C33.6332 234.755 34.1722 234.941 34.3982 234.453C34.6212 233.975 34.1882 233.643 33.9092 233.322C32.9742 232.245 32.0243 231.188 30.9423 230.246C27.3253 227.098 25.1803 223.173 24.4423 218.395C23.9233 215.032 23.5923 211.652 23.1623 208.282C23.0613 207.487 22.9123 206.699 22.7873 205.918C23.0303 205.646 23.2842 205.804 23.5042 205.885C24.3052 206.181 25.1422 206.248 25.9792 206.335C26.3872 206.377 26.7883 206.342 27.1663 206.194C27.4953 206.066 27.5852 205.805 27.4442 205.48C27.3092 205.171 27.0622 204.948 26.8322 204.713C25.9072 203.773 24.9102 202.912 23.8882 202.082C22.5702 201.013 21.4402 199.781 20.4912 198.376C19.1192 196.344 17.8322 194.259 16.5862 192.149C15.6352 190.538 15.2993 188.736 15.0453 186.922C14.6993 184.448 14.8343 181.969 14.9463 179.481C15.0643 176.85 15.5243 174.246 15.4893 171.606C15.4763 170.59 15.3922 169.578 15.2862 168.435C16.0122 168.782 16.6162 169.097 17.2412 169.36C17.6332 169.525 18.1162 169.804 18.4652 169.414C18.8182 169.019 18.4612 168.577 18.2592 168.208C17.7502 167.278 17.2342 166.354 16.6082 165.492C15.5072 163.976 14.6602 162.325 13.9752 160.575C12.3912 156.528 11.4232 152.335 10.9322 148.032C10.3822 143.208 11.0102 138.603 13.8102 134.488C15.8592 131.476 18.4373 129.017 21.7093 127.368C25.5633 125.427 29.6522 124.232 33.9352 123.695C41.4802 122.748 49.0162 121.767 56.3942 119.828C59.9742 118.887 63.4792 117.774 66.8402 116.201C69.5252 114.945 72.3572 114.048 75.1432 113.043C75.9782 112.742 76.0172 112.772 76.2822 113.658C76.9762 115.969 77.6392 118.29 78.3392 120.6C78.9442 122.599 79.7542 124.52 80.6682 126.396C80.8592 126.788 81.0802 127.178 81.3542 127.514C81.7322 127.978 82.1462 127.9 82.3092 127.311C82.4742 126.717 82.5792 126.093 82.6132 125.477C82.7462 123.057 82.6172 120.654 82.0902 118.279C81.7032 116.537 81.3452 114.789 81.1082 112.953C81.4902 113.413 81.8792 113.868 82.2532 114.335C82.9882 115.25 83.7992 116.093 84.6712 116.876C84.9692 117.144 85.3033 117.372 85.6273 117.609C85.7793 117.721 85.9742 117.797 86.1372 117.681C86.3662 117.518 86.2683 117.293 86.1663 117.093C86.1003 116.963 86.0222 116.838 85.9392 116.718C83.9812 113.88 82.4942 110.771 80.8222 107.77C80.1102 106.492 79.4162 105.204 78.6982 103.93C78.1222 102.907 77.6462 101.848 77.2642 100.734C75.1992 94.7165 73.2082 88.6705 70.7752 82.7855C70.1602 81.2985 69.5222 79.8215 68.8542 78.3575C68.1072 76.7165 67.6792 74.9745 67.1652 73.2595C65.3162 67.0935 63.6052 60.8895 62.3712 54.5655C61.7192 51.2225 61.3922 47.8505 61.2642 44.4405C60.9362 35.7265 62.8292 27.4515 65.9762 19.4065C66.9492 16.9175 68.3043 14.7115 70.5583 13.1195C72.4753 11.7655 74.5243 11.1355 76.8563 11.4825C77.4703 11.5745 78.0892 11.6055 78.7042 11.7145C80.9822 12.1185 82.7462 13.3235 84.1912 15.0795C85.9032 17.1595 87.1582 19.5115 88.3032 21.9285C91.1192 27.8715 93.2602 34.0425 94.4742 40.5145C95.5382 46.1915 96.5422 51.8795 97.2472 57.6155C98.1632 65.0655 100.006 72.2665 103.034 79.1485C103.847 80.9955 104.768 82.7885 106 84.3885C109.033 88.3295 112.055 92.2785 115.439 95.9365C117.662 98.3385 120.133 100.442 122.783 102.342C126.619 105.091 130.412 107.896 134.057 110.895C137.231 113.506 140.135 116.392 142.578 119.708C144.318 122.071 145.71 124.65 147 127.278C148.91 131.17 150.35 135.225 151.108 139.509C151.465 141.528 151.672 143.566 151.826 145.605C152.043 148.483 152.336 151.355 152.4 154.248C152.544 160.73 151.535 167.075 150.238 173.387Z" fill="black"/>
<path d="M97.4261 78.185C97.0271 78.166 96.6171 78.18 96.2251 78.252C93.9951 78.661 91.7371 78.821 89.4851 79.013C82.9381 79.569 76.7791 78.224 71.0061 75.094C70.8141 74.99 70.6271 74.867 70.4231 74.793C69.7191 74.539 69.1791 74.931 69.1921 75.688C69.1981 76.061 69.3551 76.397 69.5191 76.725C69.8661 77.419 70.3461 78.016 70.8931 78.558C74.5791 82.208 79.1001 83.877 84.0541 84.164C86.5031 84.034 88.8001 83.866 91.0321 83.27C93.4761 82.618 95.6431 81.448 97.4121 79.605C97.5641 79.447 97.7251 79.293 97.8501 79.116C98.2431 78.56 98.0941 78.217 97.4261 78.185Z" fill="black"/>
<path d="M71.3872 73.695C72.1252 73.355 72.4962 72.653 72.3812 71.809C72.3112 71.296 72.1022 70.826 71.9132 70.351C70.8302 67.636 69.6022 64.979 68.6462 62.212C66.7702 56.788 64.8912 51.366 63.7802 45.716C63.6742 45.179 63.5402 44.647 63.4022 44.117C63.3572 43.944 63.2692 43.755 63.0432 43.776C62.8052 43.798 62.7812 44.011 62.7782 44.188C62.7682 44.955 62.7742 45.723 62.7742 46.49C62.7972 46.49 62.8202 46.49 62.8432 46.49C62.8432 47.294 62.7772 48.104 62.8542 48.9C63.2542 53.056 64.0072 57.147 65.1752 61.16C66.1862 64.634 67.1782 68.114 68.4982 71.489C68.7242 72.067 68.9402 72.657 69.3312 73.149C69.8652 73.824 70.6702 74.025 71.3872 73.695Z" fill="black"/>
<path d="M89.8311 232.467C90.2501 232.226 90.5561 231.862 90.8611 231.494C93.8961 227.841 96.8681 224.136 100.041 220.598C101.92 218.503 103.679 216.306 105.361 214.049C105.688 213.61 105.989 213.151 106.284 212.69C106.382 212.538 106.429 212.341 106.271 212.186C106.119 212.037 105.929 212.078 105.762 212.157C105.499 212.282 105.236 212.414 104.99 212.57C103.909 213.255 102.877 214.009 101.886 214.821C98.5401 217.564 95.6421 220.762 92.6861 223.897C91.1301 225.547 89.7801 227.372 88.6801 229.368C88.3241 230.014 88.0471 230.684 88.0151 231.341C88.0301 232.501 88.9031 233.001 89.8311 232.467Z" fill="black"/>
<path d="M92.7974 194.814C91.3944 196.454 90.0674 198.15 89.0554 200.072C88.3354 201.44 87.7764 202.858 87.5894 204.283C87.5784 204.849 87.5514 205.329 88.0344 205.549C88.5604 205.789 88.9454 205.464 89.2744 205.099C89.5184 204.828 89.7334 204.531 89.9544 204.24C91.1484 202.669 92.3064 201.07 93.5404 199.531C96.6714 195.626 99.8384 191.749 102.986 187.858C103.33 187.432 103.652 186.988 103.976 186.546C104.107 186.368 104.234 186.155 104.083 185.945C103.886 185.67 103.616 185.798 103.393 185.911C102.97 186.125 102.551 186.35 102.149 186.601C98.5824 188.827 95.5204 191.629 92.7974 194.814Z" fill="black"/>
<path d="M28.3521 217.122C27.7431 217.028 27.1631 217.102 26.7851 217.651C26.4401 218.152 26.4841 218.709 26.7971 219.201C27.0741 219.636 27.1981 220.009 26.9051 220.503C26.6971 220.854 26.9391 221.207 27.1601 221.506C27.4671 221.921 27.8661 222.242 28.2751 222.55C31.5511 225.022 35.0591 227.106 38.7681 228.858C39.7971 229.344 40.8761 229.675 42.0011 229.856C42.2911 229.903 42.5811 229.943 42.8701 229.866C43.2461 229.766 43.3281 229.491 43.0471 229.233C42.8881 229.087 42.6901 228.982 42.5051 228.866C40.2471 227.452 37.9871 226.04 35.7291 224.625C35.2801 224.344 34.8381 224.054 34.3921 223.768C34.4201 223.716 34.4481 223.663 34.4771 223.61C35.1661 223.816 35.8481 224.057 36.5481 224.213C36.9341 224.298 37.4621 224.667 37.7201 224.112C37.9261 223.67 37.4252 223.414 37.1442 223.161C34.8332 221.08 32.3842 219.182 29.6622 217.658C29.2492 217.426 28.8291 217.195 28.3521 217.122Z" fill="black"/>
<path d="M30.2984 200.26C27.2074 198.444 24.2314 196.464 21.5544 194.063C21.3644 193.893 21.1694 193.724 20.9584 193.581C20.2964 193.129 19.7544 193.119 19.2454 193.531C18.7294 193.949 18.6254 194.59 18.9644 195.319C19.2154 195.857 19.6124 196.287 20.0184 196.709C21.2894 198.032 22.7214 199.164 24.2334 200.192C27.4134 202.352 30.6874 204.337 34.3964 205.482C35.7594 205.903 37.1394 206.247 38.8084 206.268C38.9804 206.254 39.3804 206.229 39.7784 206.19C39.9364 206.174 40.0514 206.061 40.0774 205.912C40.1044 205.758 40.0084 205.625 39.8764 205.553C39.5884 205.395 39.2964 205.243 38.9964 205.112C38.1254 204.733 37.2624 204.341 36.4414 203.858C34.3964 202.654 32.3444 201.462 30.2984 200.26Z" fill="black"/>
<path d="M86.234 200.213C86.905 200.387 87.2351 199.928 87.5451 199.458C87.7661 199.122 87.977 198.78 88.197 198.443C90.362 195.12 93.0711 192.241 95.6921 189.292C97.3921 187.378 99.044 185.426 100.581 183.379C100.931 182.913 101.234 182.41 101.54 181.912C101.653 181.729 101.75 181.506 101.577 181.303C101.398 181.091 101.174 181.177 100.979 181.277C100.655 181.444 100.327 181.612 100.027 181.818C99.244 182.356 98.463 182.898 97.702 183.467C94.785 185.651 92.3591 188.335 89.9931 191.078C88.6541 192.63 87.3931 194.241 86.3901 196.038C85.9251 196.871 85.536 197.735 85.426 198.592C85.377 199.481 85.681 200.07 86.234 200.213Z" fill="black"/>
<path d="M89.3893 168.799C87.7343 170.798 86.1313 172.841 84.9883 175.196C84.6683 175.855 84.3772 176.524 84.3092 177.158C84.2652 177.805 84.3433 178.297 84.8853 178.574C85.3533 178.814 85.8603 178.679 86.3513 178.162C86.5753 177.925 86.7612 177.649 86.9472 177.379C87.7772 176.176 88.5722 174.948 89.4312 173.767C92.1622 170.011 95.2582 166.546 98.1322 162.903C98.5392 162.387 98.9612 161.881 99.3452 161.348C99.5212 161.103 99.8573 160.817 99.5453 160.494C99.2873 160.227 98.9972 160.485 98.7542 160.624C98.3102 160.877 97.8713 161.142 97.4453 161.424C94.3743 163.46 91.7323 165.97 89.3893 168.799Z" fill="black"/>
<path d="M82.4263 169.883C82.8724 169.676 83.1774 169.3 83.4494 168.912C85.9674 165.315 89.1763 162.381 92.4603 159.521C94.0323 158.152 95.5884 156.767 96.9934 155.224C97.3604 154.82 97.7123 154.391 97.9993 153.929C98.2573 153.513 98.0304 153.215 97.5344 153.279C97.0194 153.345 96.5604 153.588 96.1084 153.826C91.4224 156.297 87.4774 159.678 84.0364 163.674C83.0784 164.787 82.2823 166.013 81.6753 167.355C81.4343 167.889 81.2264 168.435 81.1144 169.013C81.0574 169.79 81.6993 170.221 82.4263 169.883Z" fill="black"/>
<path d="M33.1571 173.026C33.0471 172.931 32.9271 172.847 32.8081 172.763C30.8421 171.371 28.8801 169.973 26.9081 168.59C23.5311 166.222 20.1511 163.858 16.9661 161.229C16.7711 161.068 16.5641 160.907 16.3371 160.801C15.9791 160.633 15.6161 160.677 15.3161 160.946C15.0201 161.211 14.9021 161.558 15.0461 161.937C15.1621 162.241 15.3031 162.547 15.4911 162.811C16.1501 163.734 16.8971 164.58 17.7601 165.324C19.2831 166.636 20.8621 167.876 22.5311 168.994C24.8651 170.558 27.1801 172.162 29.8501 173.135C30.6751 173.436 31.5121 173.684 32.3881 173.754C32.5781 173.742 32.7611 173.741 32.9411 173.714C33.1271 173.687 33.2981 173.607 33.3391 173.401C33.3701 173.244 33.2681 173.123 33.1571 173.026Z" fill="black"/>
<path d="M101.479 221.751C101.103 221.974 100.748 222.233 100.393 222.488C97.2482 224.747 94.6772 227.57 92.3572 230.643C91.2562 232.101 90.1752 233.57 89.4242 235.25C89.0812 236.018 88.7922 236.804 88.6882 237.541C88.6702 237.988 88.7232 238.304 89.0312 238.516C89.3882 238.761 89.7312 238.649 90.0552 238.45C90.4972 238.178 90.8222 237.781 91.1502 237.388C92.5302 235.731 93.6962 233.916 94.9872 232.193C97.0442 229.448 99.1022 226.703 101.153 223.953C101.524 223.456 101.875 222.944 102.21 222.422C102.377 222.162 102.677 221.841 102.362 221.553C102.056 221.273 101.746 221.592 101.479 221.751Z" fill="black"/>
<path d="M36.6962 247.434C36.1272 247.314 35.5961 247.42 35.2361 247.935C34.9351 248.366 34.9902 248.901 35.4162 249.454C35.6142 249.711 35.8651 249.933 36.1151 250.142C36.8191 250.729 37.5952 251.21 38.4122 251.623C41.4512 253.159 44.6181 254.376 47.8651 255.386C48.8781 255.701 49.9221 255.891 50.9941 255.857C51.6111 255.843 52.2441 255.925 52.8201 255.618C53.2241 255.402 53.2512 255.15 52.9122 254.855C52.8032 254.76 52.6742 254.683 52.5452 254.618C51.2402 253.964 49.9591 253.253 48.6211 252.674C44.9681 251.094 41.2991 249.553 37.7211 247.805C37.3971 247.646 37.0492 247.509 36.6962 247.434Z" fill="black"/>
<path d="M100.744 195.382C100.918 195.151 101.079 194.897 101.179 194.628C101.307 194.283 101.071 194.042 100.714 194.145C100.252 194.277 99.8634 194.562 99.4734 194.832C97.0904 196.482 94.9065 198.357 93.0995 200.637C91.6455 202.471 90.2505 204.346 89.3945 206.556C89.1825 207.104 89.0335 207.666 88.9805 208.225C88.9805 208.921 89.3125 209.496 89.8045 209.683C90.3265 209.881 90.8485 209.696 91.3255 209.107C91.5775 208.796 91.8005 208.459 92.0185 208.122C94.8175 203.8 97.6474 199.5 100.744 195.382Z" fill="black"/>
<path d="M73.9564 73.0095C74.2604 73.6695 74.6865 74.2735 75.0755 74.8915C75.3115 75.2675 75.6304 75.5715 76.0384 75.7655C76.9234 76.1855 77.7754 75.6365 77.7724 74.5965C77.7124 73.9445 77.4115 73.3145 77.0965 72.6975C74.4465 67.5135 72.2505 62.1405 70.3815 56.6295C70.2885 56.3555 70.1815 56.0735 70.0155 55.8415C69.8565 55.6175 69.6074 55.6525 69.5094 55.9125C69.4214 56.1435 69.4034 56.4085 69.3914 56.6605C69.3374 57.8725 69.5205 59.0685 69.7095 60.2575C70.4235 64.7405 72.0704 68.9175 73.9564 73.0095Z" fill="black"/>
<path d="M97.4233 157.166C96.4723 157.712 95.5133 158.242 94.6173 158.882C91.2223 161.308 88.4033 164.314 85.8343 167.571C84.9483 168.694 84.1783 169.894 83.6103 171.213C83.4073 171.684 83.2153 172.159 83.1993 172.611C83.1943 173.159 83.3543 173.551 83.8133 173.751C84.3133 173.97 84.7563 173.829 85.0963 173.432C85.3323 173.157 85.5303 172.843 85.7153 172.529C86.9243 170.473 88.3343 168.562 89.8833 166.754C92.3573 163.865 94.8873 161.026 97.5913 158.346C97.8763 158.064 98.1403 157.759 98.3963 157.45C98.5123 157.31 98.5863 157.129 98.4293 156.958C98.3143 156.832 98.1633 156.847 98.0243 156.9C97.8193 156.978 97.6123 157.057 97.4233 157.166Z" fill="black"/>
<path d="M30.9844 224.995C30.5044 224.661 30.0034 224.354 29.3854 224.349C28.3074 224.338 27.6564 225.246 28.0034 226.295C28.3614 227.374 29.2294 227.994 30.1244 228.572C34.3904 231.326 39.0264 233.25 43.8794 234.684C44.1584 234.766 44.4464 234.82 44.7324 234.879C44.8874 234.911 45.0214 234.862 45.1034 234.722C45.1924 234.569 45.1244 234.419 45.0144 234.33C44.7604 234.124 44.4924 233.931 44.2134 233.76C41.2914 231.963 38.3794 230.149 35.5554 228.2C34.0254 227.141 32.5124 226.057 30.9844 224.995Z" fill="black"/>
<path d="M34.5002 240.881C34.2382 241.376 34.3631 241.917 34.8521 242.479C35.2461 242.931 35.7861 243.17 36.4601 243.577C35.7061 243.707 35.1581 243.9 35.0771 244.622C35.0011 245.296 35.4102 245.715 35.9112 246.054C36.1822 246.237 36.4792 246.385 36.7782 246.519C38.4462 247.265 40.1281 247.979 41.8661 248.542C43.0791 248.935 44.2881 249.379 45.5731 249.48C45.9431 249.509 46.5031 249.773 46.6551 249.308C46.7981 248.869 46.2202 248.703 45.8972 248.509C43.7662 247.233 41.6192 245.985 39.3752 244.914C39.0332 244.751 38.6502 244.627 38.2632 244.212C39.3672 244.358 40.3001 244.489 41.2361 244.599C41.4921 244.629 41.7641 244.59 41.9091 244.331C42.0691 244.044 41.8712 243.836 41.6872 243.666C40.0612 242.161 38.2721 240.917 36.1111 240.307C35.3831 240.101 34.7822 240.347 34.5002 240.881Z" fill="black"/>
<path d="M96.9345 166.636C96.5995 166.694 96.3825 166.96 96.1375 167.17C92.1235 170.611 88.9535 174.725 86.4655 179.374C86.0875 180.081 85.7845 180.83 85.8015 181.666C85.8185 182.521 86.1555 183.048 86.7875 183.166C87.3955 183.28 87.8175 182.991 88.1625 182.189C88.9435 180.372 89.9095 178.653 90.9655 176.987C92.8815 173.965 94.8335 170.967 96.7655 167.956C96.9425 167.681 97.1095 167.394 97.2355 167.094C97.3375 166.853 97.2405 166.666 96.9345 166.636Z" fill="black"/>
<path d="M16.5193 159.673C18.8993 161.616 21.3953 163.404 23.9213 165.15C25.3353 166.127 26.7513 167.099 28.2963 167.862C28.9213 168.17 29.5643 168.429 30.2643 168.5C30.5853 168.475 31.0173 168.618 31.1573 168.261C31.3223 167.838 30.8223 167.778 30.5883 167.602C26.5013 164.524 22.3283 161.56 18.3783 158.301C17.4773 157.558 16.5193 156.884 15.5693 156.202C15.2083 155.942 14.7843 155.723 14.3843 156.142C14.0173 156.527 14.1573 156.952 14.3643 157.361C14.5473 157.723 14.7813 158.051 15.0733 158.331C15.5483 158.787 16.0113 159.258 16.5193 159.673Z" fill="black"/>
<path d="M74.7574 61.5984C74.9914 63.5644 75.4185 65.4904 76.0115 67.3764C76.9115 70.2384 77.9355 73.0544 79.4155 75.6794C79.7205 76.2204 80.0395 76.7614 80.5475 77.1454C80.9865 77.4774 81.4715 77.5914 81.9815 77.3074C82.4465 77.0484 82.6614 76.4794 82.5164 75.8764C82.3694 75.2654 82.0655 74.7204 81.7375 74.1904C80.8505 72.7584 80.0585 71.2744 79.3735 69.7374C78.1545 66.9994 76.9295 64.2634 75.8335 61.4724C75.6995 61.1324 75.5524 60.7974 75.4044 60.4634C75.3294 60.2944 75.2274 60.1064 75.0204 60.1254C74.7464 60.1504 74.7165 60.3954 74.6935 60.6144C74.6825 60.7224 74.6915 60.8334 74.6915 61.0494C74.7045 61.1634 74.7314 61.3814 74.7574 61.5984Z" fill="black"/>
<path d="M101.204 198.172C100.833 197.898 100.472 198.494 100.169 198.778C98.4313 200.409 96.9993 202.303 95.5903 204.21C94.2443 206.032 93.0553 207.957 92.0753 210.004C91.7433 210.697 91.4693 211.411 91.3833 212.154C91.3953 212.614 91.5233 212.988 91.9503 213.161C92.3903 213.339 92.7413 213.128 93.0083 212.8C93.2363 212.519 93.4313 212.206 93.6133 211.892C96.0443 207.693 98.4743 203.493 100.891 199.286C101.09 198.938 101.64 198.494 101.204 198.172Z" fill="black"/>
<path d="M99.9364 229.55C99.5174 229.204 99.0294 229.819 98.6414 230.112C97.1204 231.261 95.7914 232.622 94.5394 234.048C93.1664 235.612 91.8744 237.245 90.8524 239.071C90.5484 239.615 90.2894 240.176 90.2344 240.745C90.2414 241.583 90.8034 241.937 91.4904 241.594C91.8584 241.41 92.1114 241.096 92.3764 240.792C93.6244 239.357 94.7014 237.792 95.8134 236.256C97.0974 234.482 98.3354 232.675 99.5474 230.852C99.7974 230.474 100.435 229.962 99.9364 229.55Z" fill="black"/>
<path d="M14.5933 150.685C17.6473 153.084 20.8453 155.266 24.2653 157.113C24.5383 157.261 24.8683 157.583 25.1443 157.278C25.4343 156.958 25.0523 156.691 24.8633 156.449C24.6613 156.191 24.4322 155.951 24.1982 155.72C23.1292 154.669 22.0872 153.587 20.9732 152.585C19.4242 151.192 17.8203 149.859 16.1613 148.596C15.7203 148.261 15.2572 147.969 14.6722 147.974C13.8402 148.004 13.3593 148.708 13.6353 149.51C13.8083 150.017 14.1873 150.365 14.5933 150.685Z" fill="black"/>
<path d="M15.54 155.236C18.892 157.844 22.441 160.149 26.196 162.135C26.419 162.253 26.665 162.333 26.908 162.404C27.015 162.435 27.11 162.352 27.149 162.216C27.149 161.926 26.888 161.814 26.705 161.653C23.549 158.88 20.323 156.192 16.996 153.625C16.504 153.245 16.005 152.874 15.443 152.603C15.016 152.398 14.588 152.336 14.25 152.749C13.949 153.118 14.07 153.506 14.286 153.871C14.606 154.414 15.052 154.856 15.54 155.236Z" fill="black"/>
<path d="M80.0254 65.9229C80.0364 66.0249 80.0264 65.9799 80.0254 65.9229Z" fill="black"/>
<path d="M84.2654 77.059C84.4034 77.271 84.5694 77.473 84.7544 77.645C85.2194 78.076 85.7064 78.148 86.1474 77.883C86.5854 77.62 86.7634 77.141 86.5424 76.537C86.3564 76.027 86.0984 75.537 85.8214 75.068C84.1314 72.212 82.4784 69.336 81.0494 66.337C80.9394 66.107 80.8164 65.882 80.6854 65.664C80.5894 65.504 80.4514 65.363 80.2444 65.445C80.0464 65.523 80.0304 65.721 80.0264 65.905C80.0264 65.908 80.0264 65.911 80.0264 65.913C80.0734 66.276 80.0874 66.417 80.1124 66.555C80.7834 70.339 82.1644 73.842 84.2654 77.059Z" fill="black"/>
<path d="M80.025 65.9221C80.025 65.9191 80.025 65.9171 80.025 65.9141C80.023 65.8991 80.021 65.8851 80.019 65.8701C80.022 65.8901 80.024 65.9071 80.025 65.9221Z" fill="black"/>
<path d="M90.2135 258.93C90.5875 259.111 90.9285 259.011 91.2365 258.775C91.3805 258.665 91.5095 258.532 91.6265 258.393C93.9105 255.678 96.0375 252.845 98.0025 249.891C98.1885 249.612 98.5715 249.254 98.2065 248.934C97.8515 248.623 97.5375 249.041 97.2655 249.243C95.1135 250.841 93.2185 252.712 91.4945 254.758C90.9525 255.401 90.4345 256.064 90.0385 256.811C89.8495 257.167 89.6835 257.533 89.6465 257.971C89.6595 258.374 89.8035 258.73 90.2135 258.93Z" fill="black"/>
<path d="M19.6602 183.256C19.2842 183.121 18.9312 183.194 18.6702 183.511C18.3772 183.868 18.3982 184.267 18.6472 184.626C18.8532 184.922 19.1092 185.187 19.3642 185.444C19.6192 185.701 19.9022 185.93 20.1732 186.172C19.9972 186.121 19.8232 186.065 19.6462 186.02C19.0862 185.881 18.6302 186.061 18.3012 186.519C17.9542 187.004 18.0772 187.489 18.3752 187.949C18.4742 188.101 18.5942 188.241 18.7122 188.38C18.8722 188.567 18.8982 188.717 18.7382 188.951C18.0682 189.93 18.0862 190.379 18.8192 191.252C19.3622 191.898 20.0072 192.434 20.7072 192.91C22.9762 194.45 25.3442 195.829 27.7142 197.204C29.7362 198.377 31.7702 199.532 33.9302 200.441C34.7732 200.796 35.6282 201.114 36.5232 201.311C36.7022 201.351 36.8992 201.356 36.9682 201.122C37.0162 200.957 36.9112 200.843 36.7922 200.757C36.6142 200.629 36.4242 200.521 36.2412 200.399C33.0172 198.254 29.7912 196.112 26.5752 193.955C26.3822 193.826 26.0062 193.79 26.1172 193.357C26.3142 193.47 26.5052 193.572 26.6892 193.686C28.2462 194.643 29.8102 195.587 31.4752 196.348C31.9742 196.576 32.4832 196.777 33.0242 196.887C33.2102 196.925 33.3972 196.94 33.5032 196.747C33.6152 196.542 33.4622 196.391 33.3362 196.273C32.7772 195.748 32.2182 195.223 31.6352 194.725C29.1602 192.608 26.4252 190.836 23.8462 188.857C23.2122 188.371 22.5142 187.953 22.0102 187.311C22.3012 187.461 22.5952 187.605 22.8832 187.762C24.5792 188.688 26.2702 189.624 27.9732 190.537C28.2962 190.71 28.6392 190.994 29.0362 190.758C29.0862 190.541 29.0052 190.414 28.9022 190.312C26.4042 187.85 23.8002 185.516 20.7592 183.727C20.4222 183.523 20.0362 183.391 19.6602 183.256Z" fill="black"/>
<path d="M82.2812 163.781C82.6362 163.76 82.9162 163.59 83.1632 163.37C85.6102 161.188 88.0702 159.02 90.3402 156.65C90.5322 156.45 90.8702 156.243 90.6942 155.926C90.4732 155.527 90.1122 155.843 89.8122 155.876C89.7412 155.884 89.6722 155.915 89.6042 155.942C86.4862 157.221 83.9532 159.224 82.0762 162.035C81.8742 162.338 81.6802 162.656 81.6682 163.034C81.6542 163.457 81.8492 163.725 82.2812 163.781Z" fill="black"/>
<path d="M27.6614 213.205C26.7564 213.198 26.1654 214.033 26.4674 214.865C26.6354 215.329 26.9863 215.644 27.3623 215.94C29.1963 217.382 31.3314 218.207 33.5114 218.938C33.6804 218.995 33.8703 219.02 34.0473 219.01C34.3713 218.991 34.5043 218.793 34.3923 218.488C34.3313 218.322 34.2263 218.161 34.1083 218.027C32.5313 216.244 30.7913 214.658 28.6693 213.535C28.3463 213.364 28.0064 213.237 27.6614 213.205Z" fill="black"/>
<path d="M18.9733 181.992C20.5073 183.316 22.2853 184.239 24.1013 185.099C24.3023 185.194 24.5523 185.26 24.6993 185.046C24.8443 184.835 24.6933 184.626 24.5433 184.463C23.1613 182.952 21.6903 181.542 19.9443 180.447C19.6643 180.272 19.3623 180.144 19.0243 180.128C18.4923 180.152 18.1713 180.605 18.3313 181.123C18.4423 181.483 18.6963 181.753 18.9733 181.992Z" fill="black"/>
<path d="M15.6501 147.775C16.8201 148.914 18.2491 149.656 19.6821 150.39C19.7781 150.439 19.8871 150.479 19.9931 150.487C20.3421 150.512 20.4641 150.338 20.3541 150.014C20.3081 149.878 20.2381 149.743 20.1521 149.628C19.1181 148.246 17.9481 146.993 16.5981 145.915C16.3381 145.707 16.0491 145.55 15.6991 145.56C15.0831 145.578 14.7261 146.086 14.9051 146.709C15.0311 147.145 15.3341 147.468 15.6501 147.775Z" fill="black"/>
<path d="M89.331 77.6073C89.614 77.8853 89.957 77.9983 90.327 77.7973C90.65 77.6223 90.744 77.3043 90.726 76.9573C90.719 76.8133 90.684 76.6683 90.645 76.5293C90.274 75.2133 89.641 74.0293 88.822 72.9423C88.693 72.7713 88.526 72.6163 88.346 72.5003C88.122 72.3563 87.917 72.4213 87.847 72.6933C87.802 72.8663 87.81 73.0543 87.792 73.2593C87.937 74.5923 88.285 75.8873 88.932 77.0923C89.034 77.2813 89.177 77.4563 89.331 77.6073Z" fill="black"/>
</svg>
