<svg width="137" height="113" viewBox="0 0 137 113" fill="none" xmlns="http://www.w3.org/2000/svg">
<path d="M56 112.998C86.9279 112.998 112 87.926 112 56.998C112 26.0701 86.9279 0.998047 56 0.998047C25.0721 0.998047 0 26.0701 0 56.998C0 87.926 25.0721 112.998 56 112.998Z" fill="#E5BF2B"/>
<path d="M30.282 17.8212C37.665 12.9652 46.503 10.1392 56 10.1392" stroke="#F7E05D" stroke-width="6" stroke-miterlimit="10" stroke-linecap="round"/>
<path d="M19.637 27.4411C20.534 26.3391 21.046 25.6921 21.725 24.9751" stroke="#F7E05D" stroke-width="6" stroke-miterlimit="10" stroke-linecap="round"/>
<path d="M86.4791 52.061C86.4791 56.92 82.5411 60.86 77.6811 60.86C72.8221 60.86 68.8821 56.921 68.8821 52.061" stroke="#2D2E30" stroke-width="6" stroke-miterlimit="10" stroke-linecap="round"/>
<path d="M43.108 52.061C43.108 56.92 39.169 60.86 34.31 60.86C29.451 60.86 25.511 56.921 25.511 52.061" stroke="#2D2E30" stroke-width="6" stroke-miterlimit="10" stroke-linecap="round"/>
<path d="M88.946 21.4932H102.317L89.474 34.3382H102.317" stroke="#2D2E30" stroke-width="6" stroke-miterlimit="10" stroke-linecap="round" stroke-linejoin="round"/>
<path d="M111.005 3H133.866L111.906 24.96H133.866" stroke="#2D2E30" stroke-width="6" stroke-miterlimit="10" stroke-linecap="round" stroke-linejoin="round"/>
<path d="M56.004 95.7538C60.1489 95.7538 63.509 90.0741 63.509 83.0678C63.509 76.0615 60.1489 70.3818 56.004 70.3818C51.8591 70.3818 48.499 76.0615 48.499 83.0678C48.499 90.0741 51.8591 95.7538 56.004 95.7538Z" fill="#2D2E30"/>
</svg>
