<svg width="620" height="496" viewBox="0 0 620 496" fill="none" xmlns="http://www.w3.org/2000/svg">
<path d="M597.434 196.564C610.238 178.094 617.379 155.93 617.379 132.934C617.379 105.893 606.755 81.1511 587.449 63.1591L587.076 62.7871C560.862 36.5561 555.675 31.3721 554.19 29.9331L554.2 29.9281C535.389 12.1071 509.677 2.29004 481.791 2.29004C468.61 2.29004 455.32 4.74411 442.839 9.38611C436.497 6.22411 429.447 4.52405 422.25 4.52405H385.229C378.179 4.52405 371.423 6.12808 365.348 9.02808C359.208 6.09508 352.43 4.52405 345.482 4.52405H310.528C289.655 4.52405 271.286 18.6051 265.849 38.7891L241.754 128.495H203.101C182.219 128.495 163.846 142.585 158.423 162.764L134.337 252.466H132.549C124.77 252.466 117.32 254.368 110.743 257.879C104.135 254.368 96.7084 252.466 89.1354 252.466H48.1144C34.7694 252.466 22.0814 258.229 13.2854 268.283C4.49843 278.339 0.481442 291.688 2.26944 304.905L17.4294 417.378C18.8224 427.819 23.8914 437.672 31.4414 444.754C31.5754 444.887 64.1624 477.47 64.4474 477.741C73.0964 486.371 84.9074 491.298 97.0664 491.298H132.816C141.928 491.298 150.665 488.632 158.064 483.803C165.228 488.132 173.509 490.498 181.988 490.498H219.332C221.419 490.498 223.496 490.355 225.56 490.071C227.619 490.355 229.701 490.498 231.783 490.498H292.592C305.152 490.498 316.719 489.229 327.183 486.721C332.9 489.184 339.113 490.498 345.432 490.498H441.517C449.237 490.498 456.609 488.577 463.111 485.14C477.16 490.145 492.234 492.732 507.757 492.732C563.878 492.732 604.613 456.427 604.613 406.409C604.613 398.34 603.414 390.6 601.065 383.335L606.589 376.744C622.36 357.907 620.592 329.98 602.94 313.459C602.889 313.408 601.608 312.131 601.589 312.117C611.984 295.315 617.379 276.161 617.379 255.628C617.38 232.483 610.688 212.671 597.434 196.564Z" fill="white"/>
<path d="M507.758 495.084L505.289 495.056C503.993 495.034 502.954 493.962 502.977 492.662C503 491.365 503.918 490.488 505.372 490.349L507.77 490.377L509.996 490.358C511.227 490.45 512.367 491.369 512.391 492.67C512.413 493.966 511.379 495.041 510.078 495.065L507.758 495.084ZM491.259 494.091C491.162 494.091 491.072 494.086 490.975 494.072C489.385 493.884 487.798 493.664 486.227 493.415C484.945 493.213 484.067 492.009 484.269 490.723C484.471 489.436 485.708 488.581 486.963 488.765C488.48 489.004 490 489.215 491.535 489.404C492.826 489.56 493.746 490.732 493.59 492.019C493.447 493.213 492.431 494.091 491.259 494.091ZM524.1 494.018C522.938 494.018 521.925 493.159 521.769 491.973C521.599 490.686 522.51 489.5 523.797 489.33C525.331 489.128 526.844 488.898 528.346 488.631C529.587 488.383 530.841 489.256 531.071 490.539C531.297 491.816 530.446 493.039 529.164 493.264C527.597 493.539 526.013 493.787 524.413 493.999C524.307 494.013 524.205 494.018 524.1 494.018ZM120.006 493.65H115.299C113.998 493.65 112.946 492.598 112.946 491.297C112.946 489.996 113.998 488.943 115.299 488.943H120.006C121.306 488.943 122.359 489.996 122.359 491.297C122.359 492.598 121.306 493.65 120.006 493.65ZM101.182 493.65L96.4156 493.646C95.1146 493.614 94.0906 492.538 94.1176 491.238C94.1496 489.937 95.3356 488.922 96.5256 488.94L101.181 488.944C102.482 488.944 103.535 489.997 103.535 491.298C103.535 492.599 102.482 493.65 101.182 493.65ZM134.123 493.631C132.854 493.631 131.806 492.625 131.769 491.348C131.733 490.047 132.753 488.962 134.053 488.926C135.552 488.884 137.045 488.765 138.516 488.576C139.766 488.392 140.984 489.325 141.149 490.612C141.315 491.903 140.4 493.08 139.113 493.245C137.487 493.452 135.846 493.581 134.191 493.631C134.169 493.631 134.146 493.631 134.123 493.631ZM436.484 492.85H431.779C430.478 492.85 429.424 491.798 429.424 490.497C429.424 489.196 430.478 488.144 431.779 488.144H436.484C437.785 488.144 438.838 489.196 438.838 490.497C438.838 491.798 437.785 492.85 436.484 492.85ZM417.661 492.85H412.955C411.655 492.85 410.602 491.798 410.602 490.497C410.602 489.196 411.655 488.144 412.955 488.144H417.661C418.962 488.144 420.015 489.196 420.015 490.497C420.015 491.798 418.962 492.85 417.661 492.85ZM398.838 492.85H394.132C392.831 492.85 391.779 491.798 391.779 490.497C391.779 489.196 392.831 488.144 394.132 488.144H398.838C400.139 488.144 401.191 489.196 401.191 490.497C401.191 491.798 400.139 492.85 398.838 492.85ZM380.015 492.85H375.309C374.008 492.85 372.955 491.798 372.955 490.497C372.955 489.196 374.008 488.144 375.309 488.144H380.015C381.315 488.144 382.368 489.196 382.368 490.497C382.368 491.798 381.314 492.85 380.015 492.85ZM361.19 492.85H356.485C355.184 492.85 354.131 491.798 354.131 490.497C354.131 489.196 355.184 488.144 356.485 488.144H361.19C362.491 488.144 363.544 489.196 363.544 490.497C363.544 491.798 362.491 492.85 361.19 492.85ZM286.691 492.85H281.986C280.685 492.85 279.632 491.798 279.632 490.497C279.632 489.196 280.685 488.144 281.986 488.144H286.691C287.992 488.144 289.045 489.196 289.045 490.497C289.045 491.798 287.992 492.85 286.691 492.85ZM267.868 492.85H263.162C261.861 492.85 260.809 491.798 260.809 490.497C260.809 489.196 261.861 488.144 263.162 488.144H267.868C269.169 488.144 270.221 489.196 270.221 490.497C270.221 491.798 269.169 492.85 267.868 492.85ZM249.045 492.85H244.339C243.038 492.85 241.986 491.798 241.986 490.497C241.986 489.196 243.038 488.144 244.339 488.144H249.045C250.346 488.144 251.398 489.196 251.398 490.497C251.398 491.798 250.346 492.85 249.045 492.85ZM211.434 492.85H206.728C205.427 492.85 204.375 491.798 204.375 490.497C204.375 489.196 205.427 488.144 206.728 488.144H211.434C212.735 488.144 213.787 489.196 213.787 490.497C213.787 491.798 212.735 492.85 211.434 492.85ZM192.611 492.85H187.905C186.604 492.85 185.552 491.798 185.552 490.497C185.552 489.196 186.604 488.144 187.905 488.144H192.611C193.911 488.144 194.964 489.196 194.964 490.497C194.964 491.798 193.911 492.85 192.611 492.85ZM230.217 492.823C230.19 492.823 230.161 492.823 230.134 492.823C228.558 492.768 226.981 492.635 225.413 492.424C224.168 492.364 223.181 491.335 223.181 490.075C223.181 488.894 224.049 487.92 225.179 487.75C225.413 487.704 225.64 487.709 225.879 487.741C227.345 487.938 228.823 488.067 230.299 488.118C231.599 488.163 232.615 489.257 232.57 490.554C232.523 491.826 231.48 492.823 230.217 492.823ZM342.377 492.744C342.321 492.744 342.267 492.744 342.216 492.74C340.562 492.63 338.926 492.436 337.303 492.161C336.026 491.94 335.161 490.726 335.377 489.445C335.598 488.167 336.839 487.317 338.094 487.519C339.56 487.767 341.039 487.942 342.529 488.042C343.825 488.13 344.808 489.251 344.721 490.547C344.638 491.793 343.603 492.744 342.377 492.744ZM300.809 492.662C299.559 492.662 298.516 491.678 298.46 490.419C298.396 489.118 299.402 488.021 300.698 487.961C302.265 487.887 303.809 487.79 305.335 487.676C306.631 487.588 307.762 488.553 307.858 489.85C307.954 491.146 306.98 492.276 305.684 492.372C304.112 492.487 302.522 492.584 300.918 492.657C300.883 492.662 300.846 492.662 300.809 492.662ZM173.843 492.119C173.7 492.119 173.558 492.105 173.42 492.083C171.798 491.789 170.19 491.412 168.608 490.957C167.358 490.599 166.636 489.298 166.995 488.048C167.349 486.798 168.63 486.058 169.903 486.435C171.337 486.844 172.79 487.184 174.256 487.451C175.538 487.685 176.383 488.908 176.153 490.185C175.946 491.325 174.955 492.119 173.843 492.119ZM450.538 491.963C449.439 491.963 448.456 491.192 448.236 490.07C447.983 488.797 448.81 487.555 450.083 487.302C451.549 487.008 452.992 486.646 454.408 486.208C455.667 485.817 456.971 486.521 457.348 487.762C457.734 489.007 457.035 490.322 455.795 490.703C454.223 491.185 452.624 491.595 451.001 491.916C450.846 491.95 450.694 491.963 450.538 491.963ZM82.6145 491.297C82.3715 491.297 82.1185 491.26 81.8755 491.178C80.3035 490.654 78.7695 490.056 77.2665 489.381C76.0805 488.848 75.5525 487.455 76.0845 486.27C76.6175 485.08 78.0236 484.551 79.1956 485.088C80.5516 485.699 81.9395 486.242 83.3545 486.711C84.5905 487.119 85.2566 488.452 84.8486 489.684C84.5216 490.672 83.6025 491.297 82.6145 491.297ZM319.509 490.659C318.388 490.659 317.395 489.854 317.197 488.71C316.972 487.429 317.832 486.21 319.109 485.99C320.644 485.723 322.156 485.428 323.649 485.112C324.899 484.868 326.168 485.649 326.439 486.927C326.705 488.199 325.896 489.446 324.624 489.716C323.075 490.042 321.508 490.346 319.918 490.621C319.78 490.649 319.642 490.659 319.509 490.659ZM472.795 490.516C472.593 490.516 472.386 490.489 472.184 490.433C470.64 490.02 469.105 489.574 467.575 489.1C466.334 488.714 465.64 487.4 466.026 486.155C466.407 484.919 467.699 484.207 468.971 484.606C470.438 485.061 471.917 485.489 473.407 485.893C474.661 486.228 475.406 487.52 475.065 488.774C474.784 489.826 473.833 490.516 472.795 490.516ZM542.464 489.996C541.462 489.996 540.528 489.349 540.216 488.342C539.829 487.102 540.525 485.782 541.766 485.397C543.241 484.937 544.693 484.45 546.131 483.93C547.358 483.503 548.705 484.128 549.141 485.35C549.579 486.573 548.944 487.919 547.721 488.361C546.219 488.899 544.701 489.413 543.162 489.891C542.928 489.964 542.693 489.996 542.464 489.996ZM152.316 489.344C151.429 489.344 150.58 488.838 150.184 487.984C149.637 486.803 150.147 485.406 151.324 484.859C152.679 484.229 153.994 483.531 155.276 482.772C156.393 482.111 157.836 482.469 158.498 483.595C159.164 484.711 158.797 486.155 157.676 486.817C156.265 487.658 154.802 488.43 153.309 489.124C152.987 489.275 152.652 489.344 152.316 489.344ZM559.816 482.782C558.98 482.782 558.166 482.332 557.738 481.537C557.127 480.392 557.56 478.968 558.709 478.352C560.064 477.63 561.392 476.876 562.697 476.09C563.813 475.433 565.258 475.782 565.928 476.895C566.599 478.006 566.235 479.455 565.123 480.125C563.753 480.947 562.353 481.738 560.923 482.506C560.575 482.694 560.193 482.782 559.816 482.782ZM66.4206 481.95C65.8646 481.95 65.3086 481.757 64.8626 481.362C64.1496 480.732 63.4566 480.075 62.7856 479.404C62.7896 479.409 62.7896 479.409 62.7896 479.409C62.7946 479.409 62.2475 478.871 61.3555 477.979C60.4365 477.06 60.4365 475.571 61.3555 474.652C62.2745 473.733 63.7635 473.733 64.6825 474.652L66.0666 476.031C66.7186 476.683 67.3386 477.267 67.9776 477.833C68.9526 478.696 69.0435 480.181 68.1845 481.155C67.7165 481.683 67.0676 481.95 66.4206 481.95ZM575.387 472.281C574.716 472.281 574.049 471.996 573.585 471.44C572.748 470.448 572.876 468.963 573.874 468.127C575.041 467.144 576.182 466.128 577.289 465.089C578.235 464.202 579.725 464.243 580.616 465.191C581.508 466.142 581.462 467.631 580.515 468.518C579.343 469.621 578.138 470.692 576.898 471.73C576.457 472.102 575.92 472.281 575.387 472.281ZM53.0015 468.655C52.3985 468.655 51.7976 468.426 51.3376 467.966L48.0015 464.634C47.0825 463.715 47.0825 462.226 48.0015 461.308C48.9205 460.388 50.4095 460.388 51.3285 461.308L54.6646 464.639C55.5836 465.558 55.5836 467.047 54.6646 467.966C54.2056 468.425 53.6025 468.655 53.0015 468.655ZM588.318 458.659C587.826 458.659 587.33 458.508 586.907 458.185C585.864 457.409 585.656 455.933 586.437 454.895C587.352 453.672 588.235 452.431 589.081 451.159C589.803 450.079 591.26 449.794 592.349 450.511C593.429 451.238 593.719 452.699 592.997 453.779C592.096 455.116 591.167 456.43 590.197 457.717C589.737 458.333 589.031 458.659 588.318 458.659ZM39.6556 455.314C39.0536 455.314 38.4515 455.085 37.9915 454.625L34.6506 451.284C33.7316 450.365 33.7316 448.876 34.6506 447.957C35.5696 447.038 37.0586 447.038 37.9776 447.957L41.3195 451.298C42.2385 452.217 42.2385 453.706 41.3195 454.625C40.8595 455.084 40.2576 455.314 39.6556 455.314ZM597.766 442.455C597.45 442.455 597.132 442.391 596.825 442.258C595.635 441.738 595.092 440.355 595.611 439.16C596.218 437.771 596.783 436.356 597.307 434.923C597.762 433.705 599.109 433.089 600.33 433.526C601.548 433.977 602.173 435.328 601.727 436.55C601.166 438.067 600.564 439.565 599.92 441.044C599.536 441.927 598.672 442.455 597.766 442.455ZM26.5716 441.711C25.8686 441.711 25.1656 441.394 24.7066 440.791C23.7046 439.486 22.7675 438.121 21.9025 436.715C21.2225 435.608 21.5675 434.16 22.6745 433.48C23.7685 432.795 25.2256 433.145 25.9096 434.252C26.6906 435.521 27.5356 436.747 28.4366 437.924C29.2266 438.958 29.0346 440.433 28.0036 441.224C27.5786 441.555 27.0726 441.711 26.5716 441.711ZM18.4295 424.881C17.3765 424.881 16.4206 424.174 16.1496 423.108C15.7406 421.513 15.4195 419.891 15.1795 418.255C14.9955 416.973 15.8875 415.777 17.1745 415.589C18.3785 415.424 19.6515 416.292 19.8395 417.584C20.0515 419.055 20.3455 420.511 20.7085 421.949C21.0295 423.209 20.2675 424.486 19.0075 424.807C18.8145 424.859 18.6165 424.881 18.4295 424.881ZM603.222 424.491C603.079 424.491 602.938 424.477 602.795 424.455C601.517 424.221 600.667 422.993 600.901 421.716C601.176 420.232 601.405 418.725 601.593 417.203C601.754 415.912 602.885 414.956 604.217 415.158C605.504 415.314 606.424 416.491 606.263 417.782C606.066 419.395 605.818 420.985 605.533 422.561C605.322 423.696 604.334 424.491 603.222 424.491ZM15.6165 406.279C14.4585 406.279 13.4466 405.425 13.2906 404.243L12.6615 399.584C12.4865 398.292 13.3875 397.106 14.6745 396.937C15.9925 396.699 17.1516 397.659 17.3206 398.95L17.9505 403.61C18.1255 404.902 17.2235 406.088 15.9375 406.257C15.8275 406.274 15.7225 406.279 15.6165 406.279ZM604.559 405.76C603.299 405.76 602.256 404.762 602.205 403.494C602.15 401.959 602.044 400.437 601.902 398.93C601.782 397.639 602.729 396.491 604.025 396.366C605.233 396.298 606.465 397.194 606.589 398.49C606.74 400.08 606.846 401.693 606.91 403.319C606.956 404.616 605.944 405.71 604.643 405.76C604.618 405.76 604.587 405.76 604.559 405.76ZM13.0986 387.625C11.9406 387.625 10.9296 386.766 10.7736 385.585L10.1486 380.92C9.97361 379.633 10.8786 378.447 12.1656 378.277C13.4116 378.039 14.6385 379.004 14.8085 380.295L15.4335 384.96C15.6085 386.246 14.7036 387.432 13.4156 387.602C13.3086 387.62 13.2036 387.625 13.0986 387.625ZM601.545 387.23C600.533 387.23 599.601 386.578 599.293 385.562L598.819 384.037C598.58 383.269 598.75 382.437 599.265 381.821L601.248 379.455C602.085 378.458 603.569 378.329 604.561 379.165C605.558 379.997 605.688 381.481 604.852 382.479L603.694 383.862L603.796 384.193C604.172 385.438 603.468 386.753 602.228 387.13C601.999 387.198 601.769 387.23 601.545 387.23ZM611.475 372.019C611.084 372.019 610.689 371.922 610.326 371.72C609.191 371.086 608.787 369.652 609.422 368.517C610.156 367.207 610.817 365.87 611.405 364.514C611.925 363.32 613.3 362.782 614.504 363.291C615.694 363.811 616.241 365.194 615.727 366.389C615.075 367.892 614.338 369.368 613.529 370.815C613.097 371.586 612.298 372.019 611.475 372.019ZM10.5835 368.972C9.42654 368.972 8.41459 368.113 8.25859 366.932L7.62957 362.267C7.45457 360.98 8.35553 359.794 9.64653 359.624C10.9115 359.385 12.1196 360.351 12.2896 361.642L12.9196 366.307C13.0946 367.593 12.1935 368.779 10.9015 368.949C10.7955 368.967 10.6895 368.972 10.5835 368.972ZM617.138 354.206C617.055 354.206 616.966 354.201 616.884 354.192C615.593 354.054 614.656 352.896 614.794 351.604C614.95 350.125 615.028 348.635 615.032 347.151C615.037 345.851 616.09 344.803 617.386 344.803C617.391 344.803 617.39 344.803 617.394 344.803C618.69 344.807 619.743 345.865 619.738 347.165C619.734 348.81 619.647 350.455 619.472 352.101C619.344 353.31 618.323 354.206 617.138 354.206ZM8.06951 350.319C6.91151 350.319 5.90056 349.46 5.74456 348.278L5.11455 343.614C4.94055 342.327 5.8415 341.141 7.1325 340.971C8.3825 340.732 9.60556 341.698 9.77556 342.989L10.4056 347.653C10.5806 348.94 9.6795 350.126 8.3875 350.296C8.2815 350.314 8.17651 350.319 8.06951 350.319ZM615.311 335.599C614.309 335.599 613.377 334.951 613.065 333.945C612.625 332.524 612.113 331.128 611.53 329.749C611.019 328.555 611.576 327.176 612.776 326.665C613.966 326.151 615.349 326.712 615.859 327.911C616.507 329.428 617.073 330.98 617.56 332.548C617.946 333.789 617.251 335.108 616.011 335.493C615.777 335.567 615.542 335.599 615.311 335.599ZM5.55657 331.66C4.39857 331.66 3.38749 330.801 3.23149 329.619L2.60149 324.955C2.42749 323.668 3.32856 322.482 4.61956 322.312C5.88356 322.078 7.0925 323.039 7.2625 324.33L7.89251 328.994C8.06751 330.281 7.16556 331.467 5.87456 331.637C5.76756 331.656 5.66157 331.66 5.55657 331.66ZM606.255 319.252C605.598 319.252 604.941 318.977 604.472 318.439C603.512 317.323 602.487 316.251 601.389 315.227C600.442 314.335 600.391 312.846 601.279 311.9C602.175 310.948 603.655 310.907 604.606 311.79C605.824 312.934 606.967 314.124 608.039 315.36C608.885 316.343 608.779 317.833 607.796 318.682C607.349 319.064 606.802 319.252 606.255 319.252ZM3.04253 313.007C1.88453 313.007 0.873578 312.148 0.717578 310.966L0.0875734 306.302C-0.0864266 305.015 0.814518 303.829 2.10552 303.659C3.35552 303.42 4.57858 304.385 4.74858 305.677L5.37859 310.341C5.55359 311.628 4.65152 312.814 3.36052 312.984C3.25452 313.002 3.14753 313.007 3.04253 313.007ZM607.372 303.802C607.036 303.802 606.695 303.733 606.374 303.581C605.197 303.025 604.687 301.623 605.244 300.447C605.891 299.063 606.513 297.662 607.1 296.242C607.601 295.038 608.989 294.468 610.174 294.969C611.374 295.465 611.943 296.844 611.446 298.043C610.83 299.527 610.183 300.994 609.503 302.45C609.1 303.301 608.254 303.802 607.372 303.802ZM2.35759 294.28C2.23859 294.28 2.11856 294.271 1.99456 294.253C0.712556 294.056 -0.169485 292.856 0.0275148 291.569C0.275515 289.942 0.601519 288.329 1.00652 286.739C1.32752 285.484 2.59157 284.703 3.86357 285.039C5.12357 285.36 5.8855 286.638 5.5645 287.897C5.1965 289.339 4.90754 290.806 4.67754 292.286C4.49954 293.448 3.49759 294.28 2.35759 294.28ZM613.782 286.136C613.585 286.136 613.383 286.114 613.18 286.058C611.925 285.728 611.176 284.436 611.507 283.182C611.898 281.706 612.256 280.217 612.577 278.71C612.853 277.446 614.057 276.655 615.376 276.903C616.645 277.179 617.453 278.429 617.183 279.702C616.843 281.274 616.466 282.837 616.057 284.385C615.777 285.438 614.826 286.136 613.782 286.136ZM8.78655 276.729C8.35955 276.729 7.93256 276.615 7.54656 276.375C6.44256 275.69 6.1035 274.243 6.7885 273.135C7.6515 271.743 8.58561 270.387 9.59661 269.072C10.3916 268.039 11.8705 267.859 12.8965 268.64C13.9255 269.431 14.1185 270.911 13.3285 271.94C12.4185 273.126 11.5685 274.353 10.7875 275.617C10.3405 276.334 9.57255 276.729 8.78655 276.729ZM616.985 267.612C616.917 267.612 616.847 267.607 616.779 267.603C615.482 267.493 614.527 266.353 614.637 265.057C614.765 263.54 614.865 262.01 614.925 260.47C614.981 259.174 616.124 258.232 617.374 258.213C618.67 258.269 619.683 259.362 619.632 260.663C619.563 262.275 619.462 263.87 619.324 265.461C619.219 266.688 618.194 267.612 616.985 267.612ZM21.6365 263.145C20.8965 263.145 20.1616 262.791 19.7066 262.138C18.9616 261.073 19.2246 259.602 20.2896 258.862C21.6416 257.92 23.0425 257.047 24.4805 256.247C25.6115 255.618 27.0495 256.018 27.6785 257.157C28.3135 258.292 27.9046 259.726 26.7696 260.355C25.4686 261.082 24.2056 261.872 22.9826 262.722C22.5696 263.007 22.1005 263.145 21.6365 263.145ZM112.896 259.156C112.008 259.156 111.162 258.655 110.762 257.796C110.21 256.62 110.722 255.218 111.903 254.671C113.396 253.978 114.923 253.353 116.48 252.81C117.711 252.397 119.049 253.036 119.476 254.263C119.899 255.49 119.251 256.831 118.024 257.259C116.613 257.745 115.234 258.307 113.887 258.936C113.565 259.087 113.231 259.156 112.896 259.156ZM99.8166 256.086C99.6366 256.086 99.4486 256.063 99.2646 256.022C97.8216 255.672 96.3606 255.397 94.8846 255.204C93.5936 255.029 92.6886 253.849 92.8586 252.561C93.0336 251.265 94.2965 250.378 95.5015 250.535C97.1425 250.756 98.7696 251.059 100.368 251.445C101.632 251.753 102.409 253.021 102.105 254.285C101.844 255.365 100.879 256.086 99.8166 256.086ZM38.8016 255.76C37.7076 255.76 36.7286 254.992 36.4986 253.875C36.2416 252.603 37.0636 251.361 38.3366 251.1C39.9446 250.774 41.5766 250.521 43.2226 250.36C44.5186 250.227 45.6716 251.173 45.7956 252.465C45.9286 253.76 44.9826 254.909 43.6916 255.038C42.2026 255.189 40.7266 255.415 39.2746 255.713C39.1176 255.745 38.9576 255.76 38.8016 255.76ZM131.08 254.84C129.811 254.84 128.764 253.829 128.726 252.552C128.69 251.256 129.715 250.171 131.016 250.135L132.564 250.112C133.023 249.069 134.196 248.481 135.327 248.798C136.582 249.134 137.326 250.425 136.986 251.68L136.609 253.076C136.334 254.106 135.4 254.818 134.338 254.818L131.144 254.84C131.127 254.84 131.102 254.84 131.08 254.84ZM81.0945 254.818H76.3886C75.0876 254.818 74.0356 253.765 74.0356 252.465C74.0356 251.164 75.0876 250.111 76.3886 250.111H81.0945C82.3955 250.111 83.4476 251.164 83.4476 252.465C83.4466 253.765 82.3945 254.818 81.0945 254.818ZM62.2706 254.818H57.5645C56.2635 254.818 55.2105 253.765 55.2105 252.465C55.2105 251.164 56.2635 250.111 57.5645 250.111H62.2706C63.5706 250.111 64.6236 251.164 64.6236 252.465C64.6236 253.765 63.5706 254.818 62.2706 254.818ZM617.014 248.811C615.805 248.811 614.776 247.878 614.674 246.651C614.545 245.107 614.389 243.582 614.201 242.065C614.04 240.778 614.954 239.602 616.246 239.441C617.514 239.266 618.709 240.195 618.87 241.486C619.067 243.067 619.232 244.657 619.361 246.265C619.466 247.561 618.502 248.697 617.211 248.802C617.146 248.807 617.078 248.811 617.014 248.811ZM138.374 239.785C138.172 239.785 137.969 239.758 137.762 239.702C136.507 239.367 135.764 238.075 136.104 236.821L137.327 232.275C137.663 231.025 138.949 230.291 140.208 230.617C141.463 230.952 142.208 232.244 141.867 233.498L140.645 238.043C140.363 239.091 139.412 239.785 138.374 239.785ZM613.764 230.3C612.731 230.3 611.787 229.619 611.497 228.576C611.084 227.097 610.635 225.635 610.152 224.197C609.738 222.965 610.4 221.633 611.631 221.218C612.867 220.786 614.2 221.466 614.609 222.698C615.12 224.219 615.597 225.754 616.029 227.316C616.379 228.566 615.648 229.867 614.393 230.212C614.183 230.273 613.971 230.3 613.764 230.3ZM143.254 221.606C143.053 221.606 142.85 221.578 142.644 221.523C141.389 221.187 140.645 219.896 140.985 218.641L142.208 214.096C142.543 212.846 143.83 212.102 145.089 212.437C146.344 212.773 147.088 214.064 146.748 215.319L145.525 219.864C145.244 220.916 144.293 221.606 143.254 221.606ZM606.783 212.865C605.947 212.865 605.134 212.415 604.711 211.62C603.989 210.278 603.235 208.959 602.44 207.658C601.765 206.551 602.114 205.103 603.221 204.423C604.325 203.752 605.772 204.092 606.456 205.204C607.297 206.578 608.097 207.979 608.855 209.404C609.47 210.549 609.039 211.973 607.889 212.585C607.542 212.778 607.16 212.865 606.783 212.865ZM148.14 203.425C147.938 203.425 147.735 203.398 147.528 203.347C146.273 203.007 145.53 201.72 145.866 200.461L147.083 195.916C147.424 194.666 148.706 193.953 149.97 194.252C151.224 194.592 151.968 195.879 151.632 197.138L150.415 201.684C150.129 202.731 149.178 203.425 148.14 203.425ZM597.435 198.916C596.971 198.916 596.501 198.778 596.092 198.498C595.027 197.754 594.76 196.288 595.499 195.222C596.377 193.958 597.229 192.676 598.046 191.38C598.749 190.281 600.202 189.969 601.296 190.65C602.394 191.343 602.72 192.796 602.026 193.899C601.171 195.25 600.284 196.587 599.37 197.906C598.911 198.563 598.181 198.916 597.435 198.916ZM153.019 185.244C152.818 185.244 152.614 185.217 152.408 185.166C151.153 184.826 150.41 183.54 150.745 182.28L151.963 177.735C152.303 176.485 153.585 175.768 154.85 176.072C156.104 176.412 156.847 177.699 156.512 178.958L155.295 183.503C155.01 184.551 154.058 185.244 153.019 185.244ZM606.815 182.621C606.48 182.621 606.14 182.552 605.818 182.4C604.641 181.843 604.13 180.442 604.686 179.265C605.339 177.877 605.96 176.471 606.558 175.051C607.068 173.847 608.455 173.3 609.641 173.796C610.841 174.302 611.401 175.685 610.895 176.88C610.27 178.355 609.622 179.817 608.947 181.269C608.543 182.119 607.698 182.621 606.815 182.621ZM157.9 167.065C157.698 167.065 157.495 167.038 157.288 166.982C156.034 166.647 155.29 165.356 155.631 164.101L156.153 162.153C156.396 161.238 156.669 160.338 156.963 159.45C157.367 158.219 158.7 157.534 159.937 157.957C161.173 158.366 161.838 159.699 161.429 160.931C161.162 161.735 160.92 162.553 160.695 163.375L160.172 165.324C159.891 166.371 158.939 167.065 157.9 167.065ZM613.341 164.992C613.134 164.992 612.922 164.965 612.716 164.904C611.461 164.559 610.727 163.263 611.076 162.013C611.484 160.534 611.861 159.044 612.206 157.546C612.5 156.277 613.782 155.487 615.028 155.781C616.297 156.075 617.087 157.339 616.793 158.603C616.43 160.166 616.034 161.718 615.607 163.267C615.322 164.308 614.374 164.992 613.341 164.992ZM165.601 150.034C165.119 150.034 164.637 149.888 164.219 149.584C163.166 148.821 162.937 147.351 163.699 146.298C164.669 144.961 165.703 143.679 166.797 142.451C167.661 141.486 169.15 141.403 170.119 142.263C171.089 143.132 171.172 144.617 170.307 145.586C169.315 146.693 168.381 147.857 167.504 149.065C167.046 149.699 166.328 150.034 165.601 150.034ZM616.815 146.513C616.737 146.513 616.654 146.509 616.576 146.499C615.285 146.371 614.339 145.217 614.472 143.926C614.623 142.396 614.743 140.865 614.84 139.325C614.922 138.029 616.026 136.977 617.33 137.12C618.631 137.198 619.614 138.314 619.536 139.61C619.439 141.214 619.31 142.808 619.15 144.394C619.031 145.608 618.006 146.513 616.815 146.513ZM179.394 137.409C178.594 137.409 177.818 137 177.376 136.264C176.705 135.152 177.066 133.704 178.184 133.038C179.595 132.192 181.051 131.42 182.549 130.717C183.712 130.166 185.127 130.671 185.679 131.853C186.231 133.029 185.722 134.431 184.545 134.982C183.193 135.612 181.874 136.31 180.601 137.074C180.224 137.304 179.808 137.409 179.394 137.409ZM197.036 131.246C195.879 131.246 194.866 130.387 194.71 129.206C194.535 127.919 195.441 126.733 196.729 126.563C198.356 126.342 200.001 126.209 201.665 126.159C203.007 126.15 204.051 127.147 204.087 128.443C204.124 129.744 203.104 130.828 201.803 130.865C200.305 130.906 198.817 131.03 197.355 131.223C197.248 131.242 197.142 131.246 197.036 131.246ZM239.376 130.847H234.67C233.369 130.847 232.316 129.794 232.316 128.494C232.316 127.193 233.369 126.14 234.67 126.14H239.376C240.676 126.14 241.729 127.193 241.729 128.494C241.728 129.794 240.676 130.847 239.376 130.847ZM220.552 130.847H215.847C214.546 130.847 213.493 129.794 213.493 128.494C213.493 127.193 214.546 126.14 215.847 126.14H220.552C221.853 126.14 222.906 127.193 222.906 128.494C222.905 129.794 221.852 130.847 220.552 130.847ZM617.096 127.713C615.878 127.713 614.849 126.775 614.752 125.539C614.638 124.004 614.489 122.478 614.301 120.962C614.14 119.675 615.056 118.498 616.347 118.338C617.602 118.153 618.811 119.096 618.971 120.383C619.169 121.973 619.325 123.572 619.45 125.181C619.546 126.477 618.576 127.607 617.279 127.708C617.219 127.713 617.156 127.713 617.096 127.713ZM244.803 119.51C244.601 119.51 244.399 119.482 244.192 119.432C242.938 119.091 242.192 117.805 242.528 116.545L243.747 112C244.087 110.75 245.378 110.033 246.632 110.337C247.887 110.677 248.632 111.964 248.297 113.223L247.079 117.768C246.793 118.816 245.842 119.51 244.803 119.51ZM613.915 109.188C612.881 109.188 611.935 108.503 611.644 107.46C611.24 105.981 610.798 104.514 610.321 103.066C609.912 101.83 610.584 100.502 611.815 100.092C613.07 99.6689 614.379 100.355 614.789 101.586C615.295 103.116 615.754 104.655 616.185 106.209C616.531 107.459 615.793 108.755 614.539 109.105C614.333 109.16 614.122 109.188 613.915 109.188ZM249.683 101.329C249.481 101.329 249.279 101.302 249.072 101.246C247.817 100.911 247.073 99.62 247.413 98.365L248.636 93.8199C248.972 92.5649 250.254 91.8299 251.518 92.1609C252.772 92.4959 253.517 93.788 253.176 95.043L251.954 99.5879C251.674 100.636 250.723 101.329 249.683 101.329ZM607.155 91.6599C606.3 91.6599 605.468 91.1859 605.055 90.3689C604.366 89.0089 603.64 87.667 602.881 86.334C602.234 85.208 602.624 83.77 603.754 83.126C604.861 82.479 606.314 82.8589 606.962 83.9989C607.766 85.3959 608.528 86.812 609.255 88.246C609.843 89.404 609.379 90.819 608.216 91.407C607.877 91.577 607.513 91.6599 607.155 91.6599ZM254.568 83.1549C254.366 83.1549 254.164 83.1269 253.957 83.0769C252.703 82.7359 251.958 81.4499 252.294 80.1899L253.512 75.6449C253.852 74.3949 255.134 73.683 256.398 73.981C257.653 74.322 258.397 75.6079 258.062 76.8679L256.844 81.413C256.558 82.46 255.607 83.1549 254.568 83.1549ZM597.008 75.8469C596.319 75.8469 595.635 75.543 595.17 74.96C594.219 73.77 593.24 72.593 592.22 71.444C591.361 70.469 591.452 68.98 592.426 68.121C593.396 67.262 594.89 67.3499 595.749 68.3279C596.814 69.5419 597.85 70.773 598.847 72.027C599.66 73.043 599.491 74.5229 598.475 75.3319C598.043 75.6819 597.522 75.8469 597.008 75.8469ZM259.449 64.974C259.247 64.974 259.045 64.947 258.838 64.891C257.583 64.556 256.839 63.2639 257.179 62.0099L258.402 57.465C258.738 56.21 260.029 55.4799 261.284 55.8059C262.538 56.1409 263.283 57.4329 262.942 58.6869L261.72 63.2329C261.439 64.2839 260.488 64.974 259.449 64.974ZM584.109 62.1699C583.506 62.1699 582.904 61.941 582.445 61.481L579.118 58.1499C578.203 57.2309 578.203 55.742 579.127 54.823C580.047 53.913 581.535 53.9029 582.454 54.8319L585.772 58.1549C586.691 59.0739 586.691 60.562 585.772 61.481C585.312 61.941 584.711 62.1699 584.109 62.1699ZM570.809 48.8619C570.206 48.8619 569.604 48.633 569.144 48.173L565.822 44.851C564.903 43.932 564.903 42.4429 565.822 41.5239C566.741 40.6049 568.231 40.6049 569.15 41.5239L572.472 44.8459C573.391 45.7649 573.391 47.254 572.472 48.173C572.014 48.632 571.411 48.8619 570.809 48.8619ZM264.334 46.793C264.132 46.793 263.93 46.766 263.723 46.715C262.469 46.375 261.724 45.089 262.06 43.829L263.278 39.2839C263.623 38.0339 264.905 37.317 266.164 37.621C267.419 37.961 268.163 39.248 267.828 40.507L266.61 45.0519C266.324 46.0999 265.373 46.793 264.334 46.793ZM557.505 35.5669C556.903 35.5669 556.306 35.338 555.846 34.882C553.925 32.97 553.037 32.0919 552.55 31.6189C552.003 31.0899 551.752 30.327 551.866 29.574C551.903 29.326 551.98 29.087 552.091 28.871C552.2 28.65 552.349 28.4429 552.533 28.2599C553.451 27.3399 554.935 27.3359 555.855 28.2549C555.901 28.3009 555.941 28.3419 555.978 28.3929C556.497 28.8989 557.404 29.7949 559.164 31.5449C560.088 32.4649 560.088 33.9529 559.174 34.8729C558.714 35.3369 558.107 35.5669 557.505 35.5669ZM270.915 29.2479C270.497 29.2479 270.074 29.137 269.688 28.902C268.58 28.227 268.231 26.779 268.907 25.672C269.766 24.262 270.685 22.8969 271.674 21.5869C272.459 20.5389 273.94 20.3509 274.969 21.1229C276.007 21.9039 276.214 23.379 275.433 24.418C274.537 25.607 273.701 26.844 272.924 28.121C272.482 28.848 271.705 29.2479 270.915 29.2479ZM543.267 23.3469C542.798 23.3469 542.325 23.2089 541.915 22.9199C540.66 22.0419 539.387 21.1909 538.092 20.3729C536.993 19.6749 536.668 18.2229 537.362 17.1239C538.065 16.0259 539.522 15.7139 540.611 16.3939C541.971 17.2579 543.309 18.145 544.619 19.069C545.685 19.818 545.937 21.284 545.193 22.345C544.734 22.998 544.008 23.3469 543.267 23.3469ZM283.622 15.5339C282.887 15.5339 282.165 15.1889 281.705 14.5459C280.952 13.4889 281.2 12.0189 282.257 11.2649C283.599 10.3099 284.983 9.41798 286.407 8.59998C287.519 7.95598 288.967 8.3329 289.619 9.4679C290.267 10.5939 289.877 12.0319 288.751 12.6809C287.455 13.4249 286.2 14.2339 284.986 15.0979C284.573 15.3919 284.096 15.5339 283.622 15.5339ZM526.922 14.074C526.596 14.074 526.269 14.0099 525.956 13.8669C524.56 13.2369 523.152 12.639 521.727 12.084C520.518 11.606 519.92 10.241 520.394 9.03198C520.872 7.82398 522.247 7.22095 523.446 7.69995C524.944 8.29295 526.425 8.91795 527.886 9.57495C529.072 10.108 529.6 11.4999 529.067 12.6859C528.677 13.5589 527.817 14.074 526.922 14.074ZM361.457 9.73499C361.186 9.73499 360.91 9.68899 360.644 9.58899C359.248 9.07399 357.828 8.63299 356.384 8.26099C355.125 7.93899 354.366 6.65695 354.689 5.39795C355.01 4.13395 356.306 3.37188 357.551 3.70288C359.151 4.11088 360.727 4.60798 362.271 5.17798C363.489 5.62398 364.114 6.98 363.664 8.198C363.314 9.147 362.413 9.73499 361.457 9.73499ZM448.765 9.72095C447.758 9.72095 446.83 9.07389 446.518 8.06689C446.131 6.82189 446.826 5.50695 448.066 5.12195C449.596 4.64795 451.136 4.20194 452.68 3.78894C453.957 3.46794 455.231 4.20691 455.562 5.45691C455.897 6.71191 455.148 8.00299 453.893 8.33899C452.405 8.73399 450.929 9.16097 449.463 9.61597C449.228 9.68897 448.994 9.72095 448.765 9.72095ZM435.547 8.8429C435.322 8.8429 435.093 8.81094 434.862 8.74194C433.442 8.30994 431.995 7.9509 430.533 7.6709C429.256 7.4229 428.424 6.18694 428.668 4.91394C428.916 3.63194 430.155 2.81297 431.424 3.04797C433.051 3.36497 434.656 3.76092 436.233 4.23792C437.473 4.61492 438.176 5.92893 437.799 7.17493C437.491 8.19093 436.558 8.8429 435.547 8.8429ZM374.665 8.10388C373.599 8.10388 372.634 7.377 372.377 6.297C372.073 5.033 372.855 3.76491 374.118 3.46191C375.713 3.07991 377.34 2.78595 378.989 2.56995C380.317 2.38195 381.457 3.31395 381.627 4.60095C381.793 5.89195 380.883 7.07389 379.596 7.23889C378.112 7.42689 376.651 7.69394 375.212 8.03894C375.028 8.08494 374.845 8.10388 374.665 8.10388ZM509.154 7.94299C508.97 7.94299 508.778 7.9209 508.59 7.8739C507.106 7.5069 505.608 7.16692 504.1 6.86292C502.827 6.60592 502.004 5.35989 502.262 4.08789C502.524 2.81089 503.746 1.9869 505.037 2.2489C506.609 2.5709 508.172 2.92088 509.721 3.30688C510.985 3.61988 511.752 4.89688 511.44 6.15588C511.172 7.22588 510.212 7.94299 509.154 7.94299ZM300.689 7.93799C299.61 7.93799 298.635 7.18494 298.396 6.08594C298.121 4.81294 298.925 3.56299 300.193 3.28699C301.797 2.93699 303.423 2.66691 305.069 2.47791C306.324 2.35391 307.522 3.25893 307.674 4.54993C307.82 5.84093 306.894 7.00891 305.602 7.15491C304.113 7.32491 302.642 7.56896 301.195 7.88196C301.025 7.91996 300.855 7.93799 300.689 7.93799ZM416.922 6.87598H412.216C410.915 6.87598 409.862 5.82395 409.862 4.52295C409.862 3.22195 410.915 2.16895 412.216 2.16895H416.922C418.222 2.16895 419.275 3.22195 419.275 4.52295C419.275 5.82395 418.222 6.87598 416.922 6.87598ZM398.098 6.87598H393.393C392.092 6.87598 391.039 5.82395 391.039 4.52295C391.039 3.22195 392.092 2.16895 393.393 2.16895H398.098C399.399 2.16895 400.452 3.22195 400.452 4.52295C400.452 5.82395 399.398 6.87598 398.098 6.87598ZM342.974 6.87598H338.268C336.968 6.87598 335.915 5.82395 335.915 4.52295C335.915 3.22195 336.968 2.16895 338.268 2.16895H342.974C344.275 2.16895 345.328 3.22195 345.328 4.52295C345.328 5.82395 344.274 6.87598 342.974 6.87598ZM324.15 6.87598H319.444C318.144 6.87598 317.091 5.82395 317.091 4.52295C317.091 3.22195 318.144 2.16895 319.444 2.16895H324.15C325.451 2.16895 326.504 3.22195 326.504 4.52295C326.504 5.82395 325.451 6.87598 324.15 6.87598ZM467.114 5.6449C465.956 5.6449 464.95 4.79089 464.789 3.60889C464.614 2.32289 465.516 1.13689 466.802 0.962891C468.393 0.746891 469.983 0.562889 471.577 0.410889C472.854 0.323889 474.021 1.23794 474.14 2.53394C474.26 3.82994 473.309 4.9739 472.017 5.0979C470.487 5.2409 468.961 5.41495 467.436 5.62195C467.33 5.63995 467.221 5.6449 467.114 5.6449ZM490.602 4.96899C490.538 4.96899 490.478 4.96896 490.418 4.95996C488.892 4.84496 487.356 4.75791 485.817 4.70691C484.516 4.66091 483.501 3.572 483.547 2.271C483.597 0.974996 484.801 0.051 485.983 0C487.587 0.06 489.186 0.146968 490.776 0.266968C492.072 0.368968 493.042 1.49795 492.945 2.79395C492.85 4.03195 491.82 4.96899 490.602 4.96899Z" fill="#636466"/>
<path d="M584.034 255.626C584.034 238.168 578.823 224.481 567.931 213.627L567.315 213.016C567.15 212.823 566.985 212.639 566.608 212.304L565.275 210.966C565.11 210.778 564.944 210.594 564.622 210.314L563.97 209.667C563.805 209.479 563.63 209.28 563.29 208.986L561.865 207.548C561.718 207.383 561.561 207.217 561.323 207.015L560.642 206.335C560.477 206.151 560.302 205.967 560.027 205.729L558.84 204.506C558.804 204.469 558.666 204.341 558.537 204.226C558.399 204.074 558.252 203.927 558.114 203.826C557.939 203.615 557.756 203.418 557.333 203.022L556.561 202.25C556.415 202.085 556.267 201.92 556.047 201.754C555.871 201.543 555.688 201.345 555.219 200.908C555.219 200.908 554.373 200.035 554.291 199.957C554.189 199.847 553.951 199.621 553.904 199.59L552.93 198.592C552.911 198.578 552.076 197.779 552.076 197.779L551.552 197.214C551.516 197.177 551.148 196.818 551.083 196.759C571.791 182.026 584.033 158.464 584.033 132.936C584.033 115.082 576.983 98.7947 564.328 87.2007C564.06 86.9337 531.478 54.3327 531.258 54.1357C518.675 42.2097 501.102 35.6387 481.791 35.6387C466.533 35.6387 451.248 40.2807 438.454 48.7537C438.408 48.7217 438.381 48.6987 438.372 48.6897C438.068 48.3587 437.766 48.0457 437.701 48.0237C437.425 47.7107 437.131 47.4207 437.02 47.3387C436.735 47.0297 436.451 46.7407 436.395 46.7087C436.11 46.3957 435.816 46.0977 435.678 45.9867C435.403 45.6877 435.117 45.3987 435.053 45.3757C434.778 45.0627 434.484 44.7737 434.401 44.7147C434.116 44.4017 433.812 44.1037 433.703 44.0167C433.435 43.7217 433.151 43.4417 433.05 43.3687C432.775 43.0697 432.489 42.7846 432.389 42.7026C432.104 42.3936 431.8 42.0957 431.708 42.0267C429.272 39.3887 425.826 37.8767 422.25 37.8767H385.229C379.402 37.8767 374.273 41.8066 372.756 47.4316L370.118 57.2247C369.906 57.0037 369.722 56.8257 369.668 56.7927C369.401 56.4987 369.107 56.2137 368.997 56.1167C368.712 55.8087 368.418 55.5147 368.353 55.4827C368.068 55.1657 367.755 54.8576 367.682 54.8116C367.397 54.4896 367.093 54.1907 367.02 54.1447C366.735 53.8317 366.441 53.5387 366.331 53.4557C366.064 53.1617 365.77 52.8767 365.706 52.8307C365.422 52.5177 365.127 52.2247 365.017 52.1377C364.733 51.8297 364.438 51.5347 364.383 51.5127C364.07 51.1627 363.758 50.8597 363.731 50.8597C363.446 50.5387 363.142 50.2397 363.032 50.1527C362.757 49.8537 362.471 49.5737 362.389 49.5137C362.104 49.2007 361.81 48.9067 361.7 48.8197C361.424 48.5207 361.139 48.2407 361.065 48.1857C360.771 47.8637 360.477 47.5648 360.348 47.4688C360.081 47.1838 359.815 46.9118 359.723 46.8438C359.448 46.5448 359.154 46.2547 359.071 46.1997C358.786 45.8827 358.483 45.5836 358.427 45.5516C358.096 45.1896 357.783 44.8767 357.756 44.8767C357.756 44.8767 357.747 44.8767 357.747 44.8807C357.462 44.5597 357.158 44.2466 357.103 44.2336C356.828 43.9206 356.524 43.6277 356.432 43.5627C356.147 43.2407 355.843 42.9327 355.734 42.8597C355.467 42.5647 355.191 42.2897 355.145 42.2657C352.682 39.4767 349.162 37.8767 345.481 37.8767H310.527C304.7 37.8767 299.571 41.8117 298.054 47.4397L268.049 159.164C267.733 160.341 267.59 161.549 267.612 162.749C262.985 162.151 257.948 161.848 252.576 161.848H203.099C197.272 161.848 192.143 165.782 190.631 171.416L160.627 283.139C160.393 284.017 160.25 284.918 160.203 285.819H132.547C128.03 285.819 123.922 288.117 121.55 291.959L113.54 304.969C113.356 304.781 113.205 304.629 113.149 304.597C112.859 304.284 112.565 303.982 112.502 303.95C112.207 303.624 111.904 303.315 111.813 303.261C111.532 302.948 111.243 302.658 111.169 302.617C110.875 302.291 110.571 301.992 110.507 301.955C110.218 301.639 109.924 301.34 109.804 301.243C109.519 300.939 109.225 300.64 109.189 300.64C108.894 300.314 108.591 300.006 108.508 299.952C108.219 299.635 107.924 299.341 107.828 299.276C107.552 298.972 107.263 298.683 107.189 298.637C106.904 298.32 106.61 298.031 106.503 297.952C106.219 297.639 105.924 297.341 105.864 297.317C105.57 296.986 105.253 296.673 105.207 296.665C104.923 296.343 104.624 296.045 104.532 295.98C104.242 295.667 103.948 295.369 103.875 295.327C103.59 295.011 103.296 294.717 103.204 294.647C102.919 294.334 102.629 294.049 102.537 293.99C102.248 293.669 101.944 293.36 101.903 293.356C101.609 293.03 101.305 292.721 101.204 292.653C100.924 292.344 100.635 292.05 100.552 292.005C100.267 291.688 99.9643 291.38 99.9053 291.353C99.6153 291.031 99.3163 290.733 99.2243 290.672C98.9353 290.356 98.6363 290.047 98.5353 289.979C96.0863 287.336 92.6583 285.82 89.1333 285.82H48.1123C44.3903 285.82 40.8472 287.428 38.3922 290.232C35.9392 293.04 34.8173 296.766 35.3183 300.457L50.4843 412.971C50.8973 416.087 52.4643 418.946 54.6253 420.766C54.8963 421.05 55.1723 421.33 55.2273 421.354C55.5073 421.667 55.8013 421.96 55.8843 422.011C56.1693 422.328 56.4632 422.621 56.5692 422.699C56.8492 423.003 57.1343 423.297 57.2213 423.352C57.5023 423.656 57.7912 423.949 57.8972 424.032C58.1772 424.331 58.4582 424.616 58.5492 424.68C58.8252 424.979 59.1063 425.259 59.2213 425.351C59.5103 425.664 59.8043 425.962 59.8603 425.985C60.1493 426.307 60.4483 426.61 60.5033 426.633C60.7933 426.95 61.0923 427.249 61.2023 427.331C61.4773 427.635 61.7673 427.924 61.8633 427.993C62.1533 428.309 62.4523 428.608 62.5113 428.636C62.7863 428.94 63.0763 429.234 63.1363 429.261C63.4073 429.57 63.7203 429.886 63.8343 429.969C64.1053 430.263 64.4082 430.575 64.5282 430.658C64.7952 430.948 65.0652 431.223 65.1112 431.237C65.3642 431.522 65.6863 431.858 65.8423 431.972C66.1173 432.271 66.4033 432.561 66.4673 432.597C66.7613 432.923 67.0693 433.231 67.1603 433.291C67.4543 433.607 67.7533 433.911 67.8083 433.934C68.0933 434.247 68.3913 434.55 68.4843 434.615C68.7593 434.914 69.0403 435.203 69.1093 435.24C69.3843 435.544 69.6923 435.865 69.8123 435.948C70.0963 436.256 70.3863 436.546 70.4513 436.577C70.7453 436.903 71.0442 437.207 71.1312 437.263C71.4112 437.566 71.6962 437.855 71.7932 437.924C72.0782 438.232 72.3672 438.527 72.4542 438.586C72.7352 438.89 73.0192 439.183 73.1572 439.294C73.4202 439.569 73.6863 439.841 73.7603 439.891C74.0593 440.222 74.3663 440.535 74.4403 440.567C74.7113 440.871 74.9873 441.146 75.1023 441.238C75.3873 441.547 75.6813 441.84 75.7683 441.9C76.0533 442.208 76.3433 442.502 76.4303 442.562C76.7053 442.86 76.9913 443.15 77.1243 443.26C77.3993 443.554 77.6803 443.839 77.7533 443.885C78.0203 444.174 78.2962 444.454 78.3972 444.532C78.6412 444.794 78.9392 445.106 79.0542 445.189C79.3252 445.483 79.6282 445.8 79.7622 445.897C80.0422 446.2 80.3273 446.49 80.4143 446.545C80.6993 446.853 80.9883 447.142 81.0393 447.16C81.3293 447.486 81.6323 447.79 81.6913 447.817C81.9853 448.143 82.2842 448.447 82.3762 448.506C82.6572 448.81 82.9602 449.122 83.0382 449.163C83.3232 449.479 83.6173 449.774 83.7233 449.852C83.9993 450.155 84.2843 450.44 84.3903 450.523C84.6653 450.817 84.9412 451.097 85.0012 451.129C85.2492 451.4 85.5573 451.717 85.7133 451.841C86.0023 452.158 86.3013 452.457 86.3653 452.485C86.6503 452.802 86.9492 453.106 87.0222 453.147C87.3162 453.468 87.6203 453.776 87.7493 453.877C90.1983 456.465 93.5903 457.949 97.0633 457.949H132.813C137.119 457.949 141.126 455.811 143.534 452.231L154.858 435.347C155.06 435.558 155.235 435.724 155.29 435.756C155.561 436.054 155.846 436.339 155.92 436.39C156.204 436.703 156.503 437.001 156.618 437.089C156.889 437.382 157.165 437.663 157.275 437.745C157.56 438.058 157.858 438.361 157.927 438.397C158.217 438.714 158.506 439.004 158.608 439.078C158.837 439.331 159.118 439.616 159.26 439.73C159.549 440.047 159.853 440.35 159.931 440.397C160.206 440.7 160.496 440.995 160.561 441.031C160.85 441.352 161.154 441.656 161.236 441.707C161.526 442.028 161.829 442.327 161.925 442.396C162.196 442.69 162.482 442.979 162.569 443.035C162.849 443.348 163.148 443.646 163.221 443.692C163.53 444.032 163.837 444.335 163.897 444.363C164.172 444.667 164.462 444.96 164.545 445.01C164.834 445.332 165.138 445.635 165.22 445.691C165.491 445.985 165.772 446.265 165.873 446.343C166.167 446.664 166.456 446.954 166.548 447.024C166.847 447.345 167.141 447.644 167.178 447.644C167.486 447.993 167.803 448.305 167.868 448.333C168.143 448.641 168.438 448.935 168.534 448.999C168.81 449.303 169.099 449.597 169.186 449.651C169.467 449.964 169.77 450.267 169.858 450.332C170.138 450.635 170.432 450.93 170.519 450.989C170.79 451.287 171.08 451.577 171.186 451.655C171.475 451.972 171.774 452.271 171.847 452.317C172.132 452.63 172.417 452.914 172.536 453.01C174.981 455.639 178.423 457.146 181.984 457.146H219.328C221.516 457.146 223.662 456.585 225.56 455.539C227.453 456.586 229.59 457.146 231.778 457.146H292.587C308.722 457.146 322.201 454.651 332.697 449.729C332.954 450.005 333.212 450.262 333.299 450.332C333.589 450.645 333.887 450.943 333.943 450.966C334.21 451.265 334.495 451.55 334.614 451.651C334.922 451.982 335.225 452.286 335.312 452.345C335.597 452.649 335.891 452.943 335.965 452.992C338.409 455.631 341.856 457.146 345.427 457.146H441.512C447.357 457.146 452.494 453.199 453.993 447.551L454.902 444.118C470.178 454.118 488.34 459.38 507.752 459.38C545.739 459.38 571.263 438.088 571.263 406.406C571.263 395.795 567.742 386.691 560.859 379.393L581.015 355.326C585.546 349.922 584.867 341.805 579.71 337.413C579.48 337.146 579.241 336.912 579.167 336.889C578.91 336.581 578.579 336.237 578.377 336.08C578.367 336.071 577.963 335.643 577.725 335.428C577.523 335.189 577.284 334.949 577.008 334.706C576.796 334.467 576.567 334.237 576.392 334.095C576.19 333.866 575.951 333.626 575.675 333.378C575.5 333.185 575.298 332.982 575.077 332.772C574.838 332.509 574.59 332.261 574.406 332.11C574.177 331.848 573.947 331.614 573.873 331.59C573.644 331.323 573.367 331.034 573.037 330.736C572.862 330.548 572.669 330.345 572.412 330.111C572.21 329.882 571.971 329.637 571.704 329.403C571.548 329.228 571.355 329.041 571.106 328.81C570.877 328.553 570.637 328.309 570.527 328.241C570.316 328.002 570.077 327.744 569.773 327.473C569.572 327.239 569.333 326.999 569.056 326.756C568.872 326.544 568.661 326.328 568.413 326.112C568.22 325.896 567.999 325.671 567.741 325.441C567.521 325.193 567.282 324.954 567.107 324.816C567.107 324.806 567.098 324.802 567.088 324.797C566.904 324.581 566.684 324.356 566.436 324.135C566.215 323.883 565.977 323.644 565.784 323.488C565.774 323.474 565.765 323.465 565.757 323.456C565.564 323.244 565.353 323.024 565.105 322.804C564.949 322.629 564.764 322.441 564.507 322.215C564.268 321.944 564.011 321.678 563.808 321.512C563.624 321.301 563.404 321.08 563.137 320.837C562.926 320.603 562.697 320.363 562.429 320.129C562.218 319.89 561.989 319.665 561.824 319.523C561.594 319.26 561.355 319.026 561.281 319.003C561.06 318.736 560.785 318.451 560.445 318.149C560.261 317.947 560.049 317.726 559.81 317.514C559.636 317.322 559.433 317.11 559.148 316.848C558.992 316.673 558.799 316.48 558.523 316.232C558.303 315.979 558.054 315.727 557.862 315.561C557.65 315.322 557.412 315.074 557.136 314.835C556.915 314.587 556.685 314.356 556.52 314.228C556.52 314.228 556.327 314.017 556.226 313.912C558.22 312.29 560.114 310.585 561.887 308.807C576.378 294.33 584.034 275.939 584.034 255.626Z" fill="#68182B"/>
<path d="M332.555 106.968L359.053 162.511H392.251L422.251 50.7871H385.229L370.863 104.096L345.482 50.7871H310.528L280.523 162.511H317.55L332.555 106.968Z" fill="#FBEB4C"/>
<path d="M471.58 164.744C509.09 164.744 537.334 133.778 537.334 99.1459C537.334 70.5759 514.669 48.5479 481.792 48.5479C444.292 48.5479 416.038 79.5129 416.038 114.146C416.038 142.722 438.704 164.744 471.58 164.744ZM479.246 81.4308C492.646 81.4308 499.825 90.6858 499.825 102.496C499.825 116.545 489.769 131.867 474.136 131.867C460.726 131.867 453.548 122.606 453.548 110.796C453.548 96.7518 463.602 81.4308 479.246 81.4308Z" fill="#FBEB4C"/>
<path d="M287.216 252.488C287.216 240.995 279.555 233.177 269.022 230.462C286.099 225.995 295.199 214.662 295.199 201.091C295.199 187.369 286.895 174.759 252.58 174.759H203.103L173.098 286.482H233.911C272.216 286.481 287.216 271.321 287.216 252.488ZM231.834 203.012H247.316C255.295 203.012 258.805 204.923 258.805 209.551C258.805 214.344 254.499 218.651 244.917 218.651H227.684L231.834 203.012ZM221.457 241.633H237.579C245.561 241.633 249.551 243.866 249.551 248.654C249.551 254.243 244.123 258.231 235.024 258.231H216.991L221.457 241.633Z" fill="#FDC435"/>
<path d="M355.221 173.963L277.965 286.481H318.663L328.401 271.481H367.509L369.421 286.481H409.163L392.242 173.963H355.221ZM345.001 244.988L362.399 217.851L365.432 244.988H345.001Z" fill="#FDC435"/>
<path d="M481.471 174.758H441.894L411.885 286.481H460.406C486.26 286.481 505.571 279.298 518.981 265.893C530.957 253.921 537.335 238.6 537.335 221.84C537.335 208.274 533.502 197.423 525.203 189.123C516.747 180.663 503.181 174.758 481.471 174.758ZM491.37 244.826C485.625 250.571 475.883 253.921 464.559 253.921H458.015L470.459 207.317H476.682C485.624 207.317 491.204 209.394 494.724 212.905C497.591 215.777 499.347 219.766 499.347 225.828C499.348 232.695 495.993 240.195 491.37 244.826Z" fill="#FDC435"/>
<path d="M132.55 298.725L93.9253 361.453L89.1362 298.725H48.1152L63.2812 411.252H99.0353L174.526 298.725H132.55Z" fill="#F1A12B"/>
<path d="M178.208 298.725L148.203 410.452H185.547L215.556 298.725H178.208Z" fill="#F1A12B"/>
<path d="M293.92 354.427C310.997 349.96 320.097 338.628 320.097 325.062C320.097 311.335 311.797 298.725 277.482 298.725H228.005L198.001 410.453H258.81C297.114 410.453 312.114 395.287 312.114 376.454C312.113 364.964 304.453 357.143 293.92 354.427ZM259.922 382.203H241.889L246.356 365.604H262.477C270.459 365.604 274.449 367.836 274.449 372.625C274.448 378.21 269.02 382.203 259.922 382.203ZM269.82 342.621H252.582L256.732 326.977H272.214C280.192 326.977 283.703 328.894 283.703 333.522C283.704 338.311 279.397 342.621 269.82 342.621Z" fill="#F1A12B"/>
<path d="M359.853 367.677H414.431L421.618 340.705H367.031L370.063 329.372H428.641L436.938 298.725H341.65L311.645 410.452H407.729L415.874 379.808H356.499L359.853 367.677Z" fill="#F1A12B"/>
<path d="M483.713 326.338C495.515 326.338 507.49 331.922 515.946 338.788L537.334 313.255C525.202 302.878 507.49 296.49 487.536 296.49C457.049 296.49 437.261 314.05 437.261 335.594C437.261 352.037 446.994 359.376 467.748 367.037C484.025 373.103 486.102 374.22 486.102 377.73C486.102 380.924 482.747 382.679 477.958 382.679C466.147 382.679 453.06 377.574 440.293 366.88L418.904 392.417C432.47 404.706 451.791 412.684 473.968 412.684C506.046 412.684 524.566 395.129 524.566 372.624C524.566 355.547 512.433 347.564 493.445 340.542C477.958 334.798 475.568 334.159 475.568 330.809C475.569 327.617 478.924 326.338 483.713 326.338Z" fill="#F1A12B"/>
</svg>
