<svg width="809" height="523" viewBox="0 0 809 523" fill="none" xmlns="http://www.w3.org/2000/svg">
<path d="M801.925 155.186C801.446 154.267 800.932 153.362 800.358 152.465C799.677 151.403 798.943 150.388 798.152 149.414C797.89 149.087 797.605 148.752 797.311 148.416C791.622 141.707 783.787 137.212 774.673 135.613H774.668C769.907 134.822 765.15 134.009 760.403 133.173C725.403 127.025 689.774 119.455 655.316 112.139C629.594 106.675 602.991 101.032 576.571 95.9397C566.539 94.0137 556.488 92.1808 546.428 90.4118C532.797 88.0168 519.144 85.7327 505.49 83.4447C492.011 81.1827 478.537 78.9269 465.072 76.5599C450.889 74.0649 438.477 71.7528 427.134 69.4928C320.666 48.2788 212.141 29.1799 107.185 10.7059L61.3143 2.61784C52.9343 1.14684 44.3423 2.53979 36.8793 6.54679C35.9283 7.03879 35.0002 7.57183 34.0782 8.15483C33.1542 8.74783 32.2582 9.38278 31.3992 10.0578C30.8792 10.4658 30.3392 10.9208 29.8092 11.3948C23.1802 17.1028 18.7433 24.8968 17.2333 33.5828C-0.278738 134.502 -13.8968 250.058 46.5552 344.346C98.8042 425.825 195.743 478.013 342.91 503.895L355.791 506.111C403.677 514.304 453.19 522.784 504.021 518.895C551.898 515.228 599.931 497.641 642.932 468.022C746.967 396.368 788.948 271.841 805.85 179.971C807.411 171.46 806.015 162.746 801.925 155.186Z" fill="white"/>
<path d="M478.556 522.216L473.832 522.193C472.531 522.179 471.488 521.114 471.502 519.817C471.516 518.526 472.568 517.487 473.855 517.487C473.865 517.487 473.87 517.487 473.878 517.487L478.556 517.51C479.857 517.51 480.91 518.563 480.91 519.864C480.909 521.164 479.857 522.216 478.556 522.216ZM492.669 521.913C491.415 521.913 490.371 520.921 490.316 519.657C490.265 518.356 491.272 517.262 492.573 517.208C494.131 517.147 495.683 517.069 497.242 516.982C498.579 516.877 499.649 517.906 499.719 519.202C499.792 520.498 498.8 521.605 497.499 521.679C495.923 521.767 494.347 521.845 492.766 521.913C492.734 521.913 492.701 521.913 492.669 521.913ZM459.738 521.798C459.701 521.798 459.665 521.798 459.628 521.793L454.908 521.554C453.612 521.481 452.62 520.373 452.693 519.073C452.766 517.782 453.773 516.729 455.174 516.858L459.848 517.096C461.144 517.157 462.151 518.259 462.086 519.555C462.031 520.815 460.988 521.798 459.738 521.798ZM511.433 520.567C510.247 520.567 509.228 519.671 509.099 518.462C508.961 517.171 509.899 516.013 511.19 515.875C512.73 515.709 514.274 515.534 515.808 515.337C517.072 515.153 518.277 516.081 518.442 517.373C518.607 518.664 517.693 519.841 516.406 520.006C514.835 520.204 513.262 520.388 511.686 520.553C511.603 520.562 511.516 520.567 511.433 520.567ZM440.974 520.557C440.905 520.557 440.836 520.552 440.767 520.548L436.061 520.125C434.765 520.001 433.819 518.856 433.938 517.561C434.062 516.27 435.244 515.377 436.502 515.438L441.171 515.861C442.463 515.971 443.423 517.111 443.313 518.407C443.207 519.629 442.183 520.557 440.974 520.557ZM422.246 518.641C422.15 518.641 422.054 518.636 421.962 518.622L417.283 518.052C415.992 517.892 415.077 516.715 415.238 515.428C415.394 514.137 416.575 513.195 417.862 513.383L422.522 513.953C423.813 514.109 424.732 515.281 424.576 516.567C424.434 517.763 423.418 518.641 422.246 518.641ZM530.05 517.887C528.938 517.887 527.946 517.092 527.738 515.957C527.509 514.679 528.354 513.452 529.632 513.218C531.162 512.942 532.688 512.648 534.214 512.349C535.459 512.087 536.723 512.924 536.976 514.202C537.228 515.474 536.402 516.711 535.123 516.964C533.579 517.272 532.026 517.566 530.477 517.851C530.335 517.874 530.193 517.887 530.05 517.887ZM403.589 516.196C403.474 516.196 403.359 516.187 403.248 516.174L398.584 515.489C397.297 515.3 396.41 514.105 396.604 512.818C396.792 511.532 398.019 510.635 399.274 510.838L403.92 511.514C405.207 511.702 406.099 512.897 405.915 514.179C405.744 515.35 404.738 516.196 403.589 516.196ZM548.433 513.879C547.38 513.879 546.424 513.172 546.153 512.106C545.832 510.846 546.594 509.569 547.853 509.248C549.352 508.866 550.855 508.472 552.353 508.058C553.598 507.708 554.899 508.449 555.244 509.695C555.593 510.949 554.857 512.245 553.607 512.59C552.077 513.013 550.546 513.417 549.011 513.808C548.819 513.857 548.62 513.879 548.433 513.879ZM384.982 513.356C384.857 513.356 384.729 513.346 384.605 513.329L379.954 512.57C378.672 512.364 377.801 511.15 378.01 509.868C378.219 508.586 379.428 507.699 380.713 507.929L385.35 508.679C386.632 508.885 387.505 510.094 387.303 511.376C387.114 512.534 386.116 513.356 384.982 513.356ZM366.413 510.272C366.28 510.272 366.146 510.263 366.011 510.241L361.742 509.51L361.774 507.13L362.53 504.873L366.811 505.599C368.091 505.82 368.95 507.038 368.729 508.32C368.531 509.463 367.536 510.272 366.413 510.272ZM566.493 508.604C565.505 508.604 564.581 507.975 564.259 506.987C563.851 505.751 564.526 504.423 565.758 504.018C567.228 503.536 568.698 503.039 570.169 502.524C571.4 502.083 572.738 502.741 573.165 503.967C573.598 505.194 572.949 506.535 571.723 506.963C570.225 507.486 568.727 507.992 567.228 508.484C566.985 508.567 566.737 508.604 566.493 508.604ZM347.863 507.096C347.732 507.096 347.599 507.087 347.463 507.065L342.826 506.27C341.546 506.049 340.684 504.831 340.905 503.549C341.123 502.272 342.316 501.407 343.621 501.627L348.258 502.423C349.538 502.643 350.4 503.861 350.179 505.143C349.984 506.288 348.989 507.096 347.863 507.096ZM329.34 503.76C329.195 503.76 329.046 503.746 328.899 503.719L324.262 502.819C322.987 502.565 322.158 501.33 322.408 500.056C322.661 498.779 323.908 497.933 325.173 498.204L329.777 499.096C331.055 499.339 331.893 500.571 331.65 501.848C331.436 502.975 330.448 503.76 329.34 503.76ZM584.145 502.138C583.212 502.138 582.33 501.582 581.962 500.662C581.475 499.459 582.063 498.084 583.267 497.601C584.705 497.022 586.139 496.429 587.569 495.828C588.755 495.313 590.147 495.874 590.652 497.073C591.163 498.272 590.602 499.651 589.407 500.157C587.95 500.777 586.489 501.379 585.023 501.968C584.733 502.083 584.439 502.138 584.145 502.138ZM310.893 500.034C310.73 500.034 310.562 500.015 310.397 499.983L305.785 498.981C304.516 498.701 303.715 497.446 303.993 496.178C304.271 494.908 305.528 494.1 306.796 494.385L311.384 495.377C312.655 495.653 313.464 496.903 313.19 498.176C312.954 499.28 311.978 500.034 310.893 500.034ZM292.531 495.893C292.352 495.893 292.168 495.874 291.987 495.829L287.394 494.722C286.133 494.413 285.361 493.141 285.668 491.877C285.981 490.612 287.268 489.855 288.515 490.153L293.071 491.252C294.338 491.55 295.119 492.819 294.818 494.083C294.563 495.167 293.596 495.893 292.531 495.893ZM601.351 494.538C600.473 494.538 599.632 494.046 599.228 493.2C598.666 492.028 599.164 490.622 600.335 490.061C601.731 489.395 603.124 488.709 604.512 488.011C605.665 487.428 607.086 487.892 607.674 489.059C608.253 490.221 607.784 491.637 606.626 492.221C605.211 492.928 603.79 493.622 602.366 494.307C602.04 494.463 601.691 494.538 601.351 494.538ZM274.276 491.306C274.074 491.306 273.867 491.279 273.663 491.223L269.113 490.001C267.859 489.66 267.119 488.369 267.459 487.115C267.799 485.86 269.1 485.129 270.345 485.46L274.883 486.683C276.14 487.018 276.884 488.31 276.547 489.565C276.263 490.612 275.315 491.306 274.276 491.306ZM256.149 486.242C255.931 486.242 255.71 486.21 255.489 486.145L250.962 484.799C249.717 484.426 249.011 483.111 249.386 481.866C249.761 480.626 251.071 479.918 252.318 480.295L256.808 481.632C258.056 481.995 258.773 483.301 258.408 484.551C258.106 485.576 257.169 486.242 256.149 486.242ZM618.041 485.87C617.219 485.87 616.419 485.438 615.987 484.666C615.352 483.531 615.758 482.097 616.892 481.463C618.247 480.705 619.599 479.933 620.95 479.156C622.071 478.503 623.51 478.885 624.163 480.015C624.815 481.141 624.43 482.579 623.304 483.227C621.934 484.022 620.565 484.803 619.191 485.571C618.827 485.773 618.432 485.87 618.041 485.87ZM238.175 480.654C237.934 480.654 237.688 480.617 237.446 480.539L232.961 479.05C231.729 478.642 231.063 477.309 231.477 476.072C231.891 474.841 233.23 474.17 234.455 474.593L238.903 476.064C240.139 476.468 240.815 477.796 240.413 479.033C240.089 480.024 239.168 480.654 238.175 480.654ZM634.167 476.196C633.396 476.196 632.637 475.815 632.187 475.116C631.484 474.022 631.801 472.565 632.895 471.862C634.2 471.026 635.505 470.176 636.801 469.317C637.876 468.6 639.342 468.898 640.064 469.978C640.781 471.063 640.482 472.524 639.402 473.241C638.088 474.11 636.764 474.97 635.441 475.824C635.045 476.077 634.604 476.196 634.167 476.196ZM220.388 474.514C220.119 474.514 219.846 474.468 219.579 474.371L215.151 472.735C213.933 472.28 213.315 470.923 213.77 469.707C214.225 468.488 215.58 467.868 216.796 468.323L221.196 469.95C222.416 470.4 223.043 471.752 222.595 472.97C222.247 473.926 221.346 474.514 220.388 474.514ZM202.821 467.75C202.527 467.75 202.23 467.694 201.941 467.58C200.473 466.987 199.016 466.385 197.564 465.783C196.364 465.282 195.797 463.903 196.298 462.704C196.799 461.5 198.18 460.953 199.375 461.435C200.809 462.038 202.252 462.629 203.702 463.213C204.906 463.7 205.49 465.069 205.005 466.274C204.635 467.194 203.752 467.75 202.821 467.75ZM649.697 465.581C648.975 465.581 648.258 465.245 647.799 464.616C647.031 463.567 647.257 462.096 648.309 461.33C649.569 460.406 650.819 459.477 652.069 458.545C653.107 457.755 654.583 457.971 655.359 459.014C656.14 460.052 655.933 461.528 654.89 462.304C653.631 463.255 652.363 464.193 651.085 465.126C650.665 465.433 650.179 465.581 649.697 465.581ZM185.521 460.346C185.197 460.346 184.864 460.277 184.549 460.134L180.257 458.167C179.078 457.62 178.566 456.219 179.112 455.042C179.657 453.865 181.047 453.355 182.237 453.893L186.497 455.851C187.681 456.389 188.202 457.786 187.664 458.967C187.27 459.836 186.415 460.346 185.521 460.346ZM664.544 454.032C663.868 454.032 663.197 453.742 662.733 453.181C661.901 452.179 662.044 450.695 663.041 449.868C664.245 448.871 665.436 447.869 666.621 446.858C667.623 446.017 669.102 446.141 669.939 447.125C670.78 448.117 670.661 449.602 669.672 450.442C668.468 451.463 667.259 452.483 666.046 453.489C665.606 453.852 665.073 454.032 664.544 454.032ZM168.543 452.225C168.187 452.225 167.826 452.147 167.488 451.973C166.071 451.26 164.666 450.538 163.272 449.813C162.119 449.215 161.673 447.791 162.272 446.642C162.867 445.484 164.285 445.038 165.445 445.64C166.821 446.357 168.207 447.069 169.602 447.772C170.765 448.356 171.231 449.772 170.647 450.929C170.234 451.753 169.405 452.225 168.543 452.225ZM151.953 443.351C151.562 443.351 151.165 443.254 150.8 443.048C149.421 442.272 148.051 441.485 146.691 440.694C145.568 440.037 145.189 438.599 145.841 437.477C146.491 436.351 147.932 435.97 149.058 436.623C150.4 437.404 151.751 438.181 153.111 438.948C154.244 439.587 154.644 441.021 154.005 442.151C153.573 442.92 152.776 443.351 151.953 443.351ZM678.676 441.605C678.046 441.605 677.416 441.352 676.952 440.856C676.069 439.905 676.12 438.416 677.071 437.529C678.212 436.471 679.337 435.401 680.454 434.321C681.392 433.425 682.885 433.444 683.781 434.377C684.686 435.31 684.659 436.799 683.725 437.704C682.59 438.802 681.437 439.892 680.279 440.975C679.824 441.398 679.25 441.605 678.676 441.605ZM135.816 433.682C135.384 433.682 134.947 433.563 134.554 433.315C133.219 432.464 131.891 431.61 130.576 430.751C129.487 430.038 129.181 428.581 129.893 427.492C130.604 426.413 132.067 426.104 133.149 426.807C134.449 427.658 135.759 428.502 137.08 429.344C138.176 430.042 138.5 431.494 137.802 432.593C137.355 433.296 136.592 433.682 135.816 433.682ZM692.044 428.366C691.46 428.366 690.872 428.149 690.417 427.713C689.479 426.817 689.443 425.328 690.344 424.386C691.419 423.26 692.486 422.125 693.538 420.99C694.42 420.035 695.909 419.979 696.86 420.857C697.816 421.74 697.876 423.228 696.993 424.179C695.923 425.342 694.838 426.495 693.744 427.64C693.285 428.122 692.665 428.366 692.044 428.366ZM120.216 423.154C119.743 423.154 119.265 423.011 118.851 422.717C117.559 421.793 116.282 420.861 115.016 419.928C113.971 419.156 113.747 417.68 114.52 416.637C115.29 415.594 116.765 415.378 117.81 416.141C119.058 417.065 120.317 417.979 121.585 418.884C122.642 419.643 122.888 421.113 122.132 422.17C121.673 422.814 120.951 423.154 120.216 423.154ZM704.659 414.363C704.116 414.363 703.579 414.178 703.134 413.801C702.146 412.96 702.026 411.476 702.866 410.484C703.882 409.294 704.884 408.094 705.886 406.89C706.713 405.893 708.198 405.754 709.199 406.582C710.201 407.409 710.339 408.894 709.507 409.895C708.496 411.118 707.476 412.327 706.451 413.536C705.988 414.083 705.325 414.363 704.659 414.363ZM105.245 411.761C104.723 411.761 104.2 411.586 103.763 411.233C102.534 410.236 101.316 409.229 100.11 408.223C99.113 407.391 98.98 405.907 99.811 404.91C100.645 403.913 102.129 403.774 103.125 404.611C104.317 405.608 105.521 406.596 106.732 407.585C107.741 408.402 107.893 409.887 107.072 410.894C106.608 411.463 105.93 411.761 105.245 411.761ZM716.497 399.684C715.996 399.684 715.495 399.528 715.068 399.202C714.034 398.411 713.84 396.936 714.627 395.902C715.578 394.661 716.521 393.407 717.448 392.157C718.229 391.114 719.71 390.911 720.743 391.675C721.787 392.451 722.003 393.927 721.225 394.97C720.279 396.239 719.328 397.502 718.367 398.761C717.904 399.367 717.205 399.684 716.497 399.684ZM91.015 399.455C90.445 399.455 89.875 399.248 89.423 398.835C88.258 397.764 87.102 396.684 85.958 395.595C85.018 394.695 84.984 393.205 85.88 392.268C86.778 391.321 88.268 391.298 89.208 392.185C90.329 393.255 91.462 394.318 92.608 395.37C93.564 396.248 93.628 397.737 92.748 398.693C92.284 399.197 91.65 399.455 91.015 399.455ZM77.61 386.252C76.989 386.252 76.367 386.008 75.905 385.521C74.816 384.377 73.736 383.219 72.668 382.052C71.788 381.096 71.852 379.607 72.808 378.729C73.768 377.861 75.253 377.912 76.133 378.872C77.183 380.012 78.245 381.151 79.316 382.277C80.212 383.219 80.175 384.709 79.233 385.604C78.778 386.036 78.194 386.252 77.61 386.252ZM727.559 384.404C727.1 384.404 726.635 384.27 726.226 383.991C725.156 383.255 724.884 381.794 725.62 380.719C726.508 379.427 727.385 378.132 728.249 376.831C728.976 375.755 730.432 375.466 731.517 376.183C732.597 376.91 732.886 378.371 732.164 379.451C731.282 380.761 730.395 382.075 729.499 383.381C729.043 384.046 728.308 384.404 727.559 384.404ZM65.14 372.175C64.462 372.175 63.789 371.885 63.325 371.32C62.321 370.107 61.326 368.88 60.345 367.648C59.538 366.628 59.706 365.148 60.724 364.339C61.74 363.526 63.22 363.7 64.031 364.716C64.994 365.929 65.966 367.129 66.951 368.323C67.781 369.325 67.638 370.809 66.636 371.636C66.197 372.001 65.666 372.175 65.14 372.175ZM737.844 368.604C737.426 368.604 736.998 368.489 736.613 368.254C735.509 367.569 735.165 366.122 735.845 365.015L738.294 361.003C738.97 359.886 740.422 359.546 741.524 360.207C742.636 360.883 742.991 362.331 742.319 363.438L739.851 367.487C739.406 368.21 738.634 368.604 737.844 368.604ZM53.706 357.267C52.968 357.267 52.245 356.922 51.785 356.279C50.871 354.988 49.967 353.696 49.074 352.391C48.341 351.32 48.615 349.854 49.685 349.123C50.761 348.388 52.227 348.663 52.957 349.734C53.832 351.011 54.722 352.285 55.622 353.548C56.373 354.61 56.125 356.08 55.066 356.829C54.653 357.125 54.177 357.267 53.706 357.267ZM747.394 352.332C747.003 352.332 746.613 352.235 746.249 352.038C745.114 351.403 744.705 349.974 745.335 348.835L747.601 344.722C748.226 343.586 749.655 343.159 750.794 343.788C751.934 344.409 752.352 345.838 751.727 346.982L749.453 351.123C749.021 351.895 748.221 352.332 747.394 352.332ZM43.359 341.569C42.567 341.569 41.792 341.169 41.349 340.438C40.521 339.086 39.713 337.726 38.915 336.362C38.263 335.241 38.642 333.798 39.763 333.145C40.887 332.488 42.326 332.869 42.982 333.991C43.761 335.328 44.556 336.661 45.365 337.993C46.043 339.1 45.692 340.549 44.582 341.224C44.2 341.459 43.778 341.569 43.359 341.569ZM756.195 335.686C755.836 335.686 755.477 335.608 755.137 335.438C753.979 334.854 753.51 333.439 754.089 332.276L756.171 328.085C756.745 326.913 758.165 326.449 759.319 327.006C760.486 327.58 760.968 328.986 760.398 330.153L758.298 334.39C757.885 335.213 757.054 335.686 756.195 335.686ZM34.18 325.148C33.323 325.148 32.498 324.679 32.082 323.866C31.36 322.451 30.655 321.04 29.965 319.63C29.396 318.462 29.878 317.052 31.048 316.482C32.206 315.921 33.619 316.399 34.194 317.562C34.874 318.955 35.566 320.337 36.274 321.726C36.865 322.883 36.405 324.304 35.247 324.892C34.904 325.066 34.538 325.148 34.18 325.148ZM764.296 318.696C763.97 318.696 763.639 318.628 763.326 318.485C762.14 317.952 761.616 316.554 762.154 315.374L764.066 311.096C764.585 309.91 765.982 309.367 767.168 309.897C768.358 310.42 768.897 311.813 768.367 312.999L766.437 317.314C766.047 318.181 765.188 318.696 764.296 318.696ZM26.236 308.113C25.321 308.113 24.448 307.575 24.069 306.678C23.453 305.222 22.849 303.76 22.261 302.294C21.776 301.09 22.36 299.716 23.566 299.233C24.763 298.751 26.142 299.33 26.626 300.538C27.205 301.976 27.795 303.411 28.402 304.84C28.908 306.039 28.349 307.418 27.152 307.924C26.854 308.053 26.544 308.113 26.236 308.113ZM771.723 301.403C771.429 301.403 771.125 301.348 770.835 301.228C769.632 300.741 769.053 299.367 769.544 298.163L771.29 293.811C771.772 292.607 773.129 292.038 774.351 292.497C775.555 292.979 776.144 294.35 775.665 295.558L773.9 299.938C773.529 300.851 772.651 301.403 771.723 301.403ZM19.522 290.548C18.545 290.548 17.631 289.937 17.298 288.958C16.783 287.464 16.282 285.966 15.795 284.463C15.395 283.227 16.071 281.899 17.307 281.499C18.55 281.103 19.873 281.779 20.271 283.011C20.749 284.487 21.241 285.957 21.747 287.432C22.17 288.66 21.517 289.996 20.288 290.419C20.034 290.506 19.775 290.548 19.522 290.548ZM778.52 283.843C778.249 283.843 777.977 283.797 777.707 283.7C776.489 283.25 775.864 281.898 776.31 280.677C776.852 279.211 777.381 277.744 777.9 276.274C778.341 275.047 779.683 274.409 780.906 274.84C782.129 275.277 782.772 276.618 782.34 277.846C781.812 279.334 781.275 280.819 780.732 282.303C780.376 283.255 779.476 283.843 778.52 283.843ZM14.01 272.566C12.973 272.566 12.025 271.877 11.742 270.829C11.328 269.304 10.928 267.777 10.538 266.243C10.219 264.983 10.982 263.701 12.241 263.384C13.498 263.058 14.78 263.822 15.102 265.085C15.483 266.592 15.879 268.1 16.283 269.598C16.623 270.853 15.881 272.144 14.626 272.484C14.421 272.538 14.214 272.566 14.01 272.566ZM784.696 266.049C784.453 266.049 784.205 266.012 783.961 265.93C782.725 265.525 782.055 264.193 782.463 262.961L783.911 258.503C784.306 257.262 785.63 256.577 786.865 256.982C788.106 257.378 788.787 258.701 788.386 259.937L786.929 264.431C786.603 265.424 785.684 266.049 784.696 266.049ZM9.66199 254.266C8.56799 254.266 7.58999 253.498 7.35999 252.386C7.04099 250.837 6.73503 249.284 6.43903 247.736C6.19503 246.459 7.032 245.227 8.31 244.983C9.587 244.74 10.819 245.576 11.062 246.853C11.354 248.383 11.655 249.91 11.97 251.44C12.232 252.712 11.411 253.954 10.141 254.215C9.97899 254.253 9.81799 254.266 9.66199 254.266ZM790.288 248.071C790.072 248.071 789.848 248.04 789.632 247.979C788.382 247.612 787.664 246.306 788.032 245.061L789.333 240.553C789.687 239.303 790.974 238.553 792.237 238.935C793.487 239.289 794.213 240.589 793.854 241.839L792.544 246.375C792.246 247.405 791.309 248.071 790.288 248.071ZM6.40399 235.723C5.25299 235.723 4.24898 234.877 4.07898 233.705C3.85098 232.142 3.63101 230.584 3.42401 229.021C3.25201 227.73 4.15698 226.549 5.44598 226.375C6.73098 226.219 7.91601 227.11 8.08801 228.396C8.29501 229.941 8.51101 231.49 8.73401 233.034C8.92201 234.316 8.03102 235.511 6.74402 235.699C6.62902 235.713 6.51599 235.723 6.40399 235.723ZM795.312 229.928C795.119 229.928 794.921 229.905 794.724 229.854C793.464 229.528 792.706 228.241 793.033 226.987L794.2 222.442C794.513 221.182 795.776 220.401 797.054 220.737C798.313 221.053 799.08 222.332 798.758 223.591L797.591 228.163C797.316 229.225 796.36 229.928 795.312 229.928ZM4.16101 217.033C2.95901 217.033 1.93403 216.118 1.81903 214.896C1.67503 213.324 1.53603 211.756 1.40503 210.185C1.30003 208.889 2.26198 207.754 3.55798 207.649C4.83998 207.556 5.98698 208.503 6.09698 209.799C6.22298 211.352 6.36098 212.905 6.50598 214.463C6.62598 215.755 5.67503 216.903 4.37903 217.024C4.30603 217.028 4.23201 217.033 4.16101 217.033ZM799.797 211.637C799.622 211.637 799.447 211.618 799.269 211.577C798 211.283 797.214 210.023 797.504 208.756L798.538 204.183C798.817 202.911 800.104 202.133 801.346 202.396C802.615 202.68 803.413 203.935 803.133 205.204L802.09 209.813C801.837 210.902 800.872 211.637 799.797 211.637ZM2.84198 198.259C1.59398 198.259 0.553019 197.276 0.494019 196.017C0.420019 194.436 0.356011 192.86 0.299011 191.288C0.251011 189.987 1.264 188.898 2.565 188.848C3.806 188.894 4.95498 189.818 5.00098 191.114C5.05898 192.677 5.12298 194.234 5.19598 195.797C5.25598 197.098 4.25399 198.196 2.95599 198.256C2.91799 198.259 2.87898 198.259 2.84198 198.259ZM803.763 193.227C803.607 193.227 803.45 193.213 803.294 193.181C802.021 192.924 801.194 191.683 801.451 190.41L802.356 185.809C802.6 184.532 803.827 183.709 805.114 183.944C806.386 184.192 807.223 185.423 806.979 186.701L806.065 191.338C805.84 192.456 804.857 193.227 803.763 193.227ZM2.35999 179.441C1.06699 179.441 0.014019 178.398 0.00701904 177.102L0 174.524L0.00500488 172.368C0.00900488 171.068 1.01799 170.075 2.36499 170.024C3.66499 170.029 4.716 171.087 4.711 172.386L4.70703 174.524L4.71399 177.074C4.72099 178.375 3.673 179.431 2.375 179.441C2.369 179.441 2.36499 179.441 2.35999 179.441ZM806.465 174.638C805.193 174.638 804.145 173.622 804.112 172.34C804.08 170.865 803.951 169.399 803.739 167.946C803.547 166.66 804.433 165.465 805.72 165.276C806.975 165.088 808.206 165.975 808.39 167.257C808.638 168.902 808.776 170.561 808.817 172.229C808.845 173.53 807.82 174.605 806.52 174.637C806.502 174.638 806.484 174.638 806.465 174.638ZM2.617 160.613C2.592 160.613 2.56702 160.613 2.54102 160.613C1.24302 160.571 0.222977 159.487 0.263977 158.186C0.311977 156.61 0.370021 155.039 0.434021 153.461C0.484021 152.165 1.60598 151.149 2.88098 151.205C4.17898 151.26 5.18801 152.353 5.13501 153.654C5.07101 155.212 5.01298 156.774 4.96698 158.333C4.92698 159.606 3.883 160.613 2.617 160.613ZM801.925 157.539C801.074 157.539 800.257 157.079 799.838 156.27C799.393 155.415 798.91 154.57 798.377 153.733C798.114 153.324 797.849 152.929 797.572 152.539C796.814 151.486 797.057 150.016 798.114 149.258C799.158 148.499 800.633 148.734 801.395 149.8C801.726 150.255 802.039 150.724 802.342 151.201C802.953 152.152 803.5 153.118 804.01 154.101C804.613 155.254 804.162 156.674 803.008 157.272C802.664 157.451 802.292 157.539 801.925 157.539ZM789.402 143.752C788.957 143.752 788.506 143.628 788.106 143.366C786.883 142.556 785.611 141.826 784.287 141.178C783.12 140.603 782.638 139.197 783.208 138.03C783.782 136.858 785.207 136.394 786.355 136.95C787.835 137.677 789.296 138.513 790.698 139.431C791.783 140.149 792.082 141.605 791.369 142.695C790.913 143.379 790.164 143.752 789.402 143.752ZM3.52899 141.812C3.47599 141.812 3.42297 141.812 3.37097 141.807C2.07497 141.72 1.09402 140.599 1.17902 139.303L1.50299 134.597C1.59499 133.301 2.75698 132.308 4.01898 132.418C5.31498 132.515 6.28901 133.641 6.19501 134.937L5.87598 139.616C5.79298 140.856 4.75899 141.812 3.52899 141.812ZM771.828 137.488C771.694 137.488 771.566 137.478 771.432 137.456L766.782 136.665C765.5 136.44 764.64 135.227 764.861 133.945C765.082 132.663 766.313 131.803 767.582 132.024L772.214 132.814C773.496 133.03 774.36 134.248 774.145 135.525C773.951 136.674 772.954 137.488 771.828 137.488ZM753.285 134.257C753.142 134.257 753 134.242 752.862 134.22L748.22 133.369C746.943 133.135 746.097 131.908 746.331 130.631C746.569 129.349 747.778 128.503 749.074 128.746L753.697 129.588C754.979 129.822 755.825 131.044 755.595 132.322C755.39 133.462 754.398 134.257 753.285 134.257ZM734.788 130.81C734.641 130.81 734.489 130.796 734.342 130.769L729.724 129.882C728.446 129.638 727.61 128.406 727.853 127.129C728.097 125.852 729.351 125.02 730.606 125.258L735.225 126.146C736.502 126.389 737.338 127.621 737.095 128.899C736.879 130.024 735.891 130.81 734.788 130.81ZM716.314 127.194C716.158 127.194 716.001 127.18 715.85 127.148L711.226 126.219C709.954 125.957 709.131 124.716 709.388 123.444C709.65 122.167 710.904 121.348 712.163 121.605L716.768 122.534C718.045 122.787 718.872 124.027 718.616 125.301C718.391 126.421 717.412 127.194 716.314 127.194ZM697.866 123.439C697.706 123.439 697.55 123.425 697.388 123.388L692.77 122.432C691.497 122.166 690.683 120.92 690.95 119.648C691.212 118.383 692.448 117.543 693.735 117.828L698.335 118.784C699.608 119.046 700.431 120.287 700.165 121.559C699.94 122.671 698.956 123.439 697.866 123.439ZM5.01099 123.053C4.93699 123.053 4.86402 123.048 4.78802 123.043C3.49502 122.919 2.54499 121.775 2.66699 120.479L3.117 115.788C3.243 114.492 4.33998 113.568 5.69098 113.674C6.98398 113.803 7.92899 114.956 7.79999 116.247L7.349 120.921C7.238 122.138 6.21099 123.053 5.01099 123.053ZM679.434 119.597C679.273 119.597 679.108 119.583 678.947 119.546L674.338 118.576C673.066 118.305 672.252 117.055 672.524 115.787C672.795 114.51 674.104 113.724 675.313 113.972L679.914 114.942C681.186 115.209 682 116.454 681.733 117.727C681.502 118.835 680.523 119.597 679.434 119.597ZM661.015 115.7C660.85 115.7 660.684 115.682 660.523 115.649L655.919 114.67C654.647 114.399 653.833 113.149 654.104 111.881C654.375 110.608 655.649 109.808 656.894 110.066L661.498 111.045C662.771 111.316 663.585 112.566 663.313 113.835C663.078 114.942 662.1 115.7 661.015 115.7ZM642.596 111.794C642.435 111.794 642.27 111.776 642.104 111.743L637.509 110.769C636.236 110.502 635.422 109.257 635.689 107.984C635.951 106.712 637.182 105.88 638.474 106.165L643.087 107.139C644.356 107.41 645.169 108.66 644.898 109.933C644.659 111.036 643.685 111.794 642.596 111.794ZM624.181 107.911C624.021 107.911 623.855 107.897 623.695 107.86L619.094 106.899C617.822 106.637 617.003 105.392 617.27 104.12C617.532 102.842 618.809 102.006 620.05 102.295L624.659 103.256C625.931 103.523 626.745 104.768 626.478 106.04C626.249 107.148 625.271 107.911 624.181 107.911ZM6.98798 104.331C6.89598 104.331 6.80402 104.326 6.71002 104.312C5.41902 104.161 4.49799 102.993 4.64899 101.702L5.21198 97.0243C5.36798 95.7323 6.50798 94.7902 7.83398 94.9742C9.12298 95.1302 10.04 96.3073 9.88098 97.5933L9.323 102.253C9.18 103.448 8.16398 104.331 6.98798 104.331ZM605.753 104.096C605.597 104.096 605.436 104.082 605.279 104.05L600.67 103.112C599.398 102.854 598.574 101.609 598.832 100.336C599.094 99.0593 600.316 98.2413 601.607 98.4983L606.216 99.4363C607.489 99.6983 608.312 100.939 608.055 102.211C607.825 103.329 606.847 104.096 605.753 104.096ZM587.292 100.383C587.141 100.383 586.984 100.369 586.833 100.336L582.214 99.4272C580.942 99.1792 580.11 97.9383 580.362 96.6643C580.615 95.3873 581.874 94.5463 583.124 94.8123L587.743 95.7223C589.015 95.9703 589.847 97.2103 589.595 98.4843C589.374 99.6063 588.391 100.383 587.292 100.383ZM568.809 96.8213C568.663 96.8213 568.52 96.8073 568.372 96.7803L563.749 95.9213C562.472 95.6873 561.626 94.4602 561.865 93.1832C562.099 91.9002 563.336 91.0452 564.603 91.2982L569.236 92.1572C570.513 92.3962 571.354 93.6232 571.116 94.9012C570.905 96.0312 569.916 96.8213 568.809 96.8213ZM550.293 93.4482C550.155 93.4482 550.013 93.4342 549.875 93.4122L545.247 92.5892C543.965 92.3642 543.11 91.1473 543.336 89.8683C543.556 88.5823 544.839 87.6993 546.056 87.9573L550.702 88.7793C551.979 89.0083 552.835 90.2313 552.604 91.5083C552.403 92.6493 551.41 93.4482 550.293 93.4482ZM531.745 90.2223C531.612 90.2223 531.479 90.2133 531.346 90.1903L526.714 89.4043C525.431 89.1883 524.568 87.9702 524.783 86.6932C525.004 85.4112 526.29 84.5513 527.495 84.7623L532.136 85.5482C533.414 85.7692 534.278 86.9823 534.062 88.2643C533.865 89.4093 532.871 90.2223 531.745 90.2223ZM513.189 87.0842C513.06 87.0842 512.927 87.0742 512.798 87.0522L508.148 86.2753C506.871 86.0593 506.006 84.8413 506.222 83.5593C506.443 82.2823 507.683 81.4273 508.938 81.6343L513.571 82.4103C514.853 82.6213 515.717 83.8353 515.506 85.1173C515.312 86.2653 514.315 87.0842 513.189 87.0842ZM9.375 85.6682C9.269 85.6682 9.16203 85.6592 9.05103 85.6462C7.76403 85.4712 6.86303 84.2813 7.04303 82.9943L7.69501 78.3303C7.87901 77.0433 9.07802 76.1933 10.356 76.3313C11.643 76.5153 12.539 77.7053 12.355 78.9923L11.702 83.6383C11.542 84.8133 10.533 85.6682 9.375 85.6682ZM494.622 83.9723C494.489 83.9723 494.36 83.9633 494.227 83.9403L489.589 83.1593C488.307 82.9483 487.439 81.7343 487.654 80.4523C487.87 79.1653 489.092 78.2832 490.361 78.5172L495.007 79.2982C496.288 79.5142 497.153 80.7323 496.937 82.0103C496.745 83.1593 495.748 83.9723 494.622 83.9723ZM476.066 80.8203C475.933 80.8203 475.795 80.8102 475.662 80.7882L471.025 79.9883C469.743 79.7673 468.883 78.5502 469.104 77.2672C469.324 75.9852 470.51 75.1303 471.824 75.3463L476.462 76.1462C477.744 76.3712 478.604 77.5843 478.383 78.8673C478.184 80.0103 477.187 80.8203 476.066 80.8203ZM457.523 77.5713C457.385 77.5713 457.243 77.5573 457.105 77.5343L452.895 76.7762C451.613 76.5422 450.551 75.2772 450.786 74.0002C451.015 72.7232 452.004 71.8453 453.305 72.0653L457.933 72.9012C459.215 73.1312 460.065 74.3542 459.835 75.6312C459.632 76.7712 458.639 77.5713 457.523 77.5713ZM438.571 74.1202L439.011 71.8073L438.364 74.0782L433.948 73.2323C432.67 72.9843 431.839 71.7482 432.082 70.4752C432.33 69.1932 433.607 68.3663 434.84 68.6093L439.246 69.4603L438.571 74.1202ZM420.546 70.5353C420.395 70.5353 420.238 70.5213 420.087 70.4893L415.464 69.5742C414.191 69.3172 413.363 68.0812 413.62 66.8032C413.878 65.5262 415.133 64.7113 416.391 64.9603L420.995 65.8743C422.268 66.1223 423.1 67.3632 422.848 68.6362C422.628 69.7582 421.645 70.5353 420.546 70.5353ZM12.105 67.0513C11.985 67.0513 11.864 67.0413 11.742 67.0243C10.458 66.8263 9.57702 65.6223 9.77802 64.3363L10.506 59.6853C10.709 58.4033 11.885 57.5483 13.197 57.7283C14.479 57.9303 15.357 59.1343 15.155 60.4203L14.429 65.0623C14.246 66.2193 13.244 67.0513 12.105 67.0513ZM402.086 66.8953C401.935 66.8953 401.778 66.8812 401.626 66.8492L397.013 65.9442C395.735 65.6912 394.907 64.4552 395.16 63.1822C395.408 61.9042 396.667 61.0632 397.922 61.3292L402.536 62.2342C403.809 62.4822 404.64 63.7232 404.388 64.9962C404.167 66.1182 403.185 66.8953 402.086 66.8953ZM383.607 63.3053C383.459 63.3053 383.308 63.2913 383.157 63.2643L378.546 62.3723C377.268 62.1293 376.432 60.8973 376.675 59.6193C376.919 58.3423 378.141 57.5063 379.428 57.7493L384.053 58.6412C385.33 58.8892 386.162 60.1253 385.914 61.4033C385.698 62.5243 384.71 63.3053 383.607 63.3053ZM365.124 59.7583C364.977 59.7583 364.83 59.7443 364.68 59.7163L360.059 58.8342C358.784 58.5902 357.945 57.3583 358.188 56.0813C358.432 54.8043 359.654 53.9773 360.941 54.2113L365.562 55.0933C366.839 55.3363 367.676 56.5693 367.432 57.8463C367.217 58.9723 366.231 59.7583 365.124 59.7583ZM346.635 56.2433C346.49 56.2433 346.345 56.2293 346.198 56.2013L341.568 55.3282C340.29 55.0852 339.454 53.8523 339.697 52.5753C339.941 51.3033 341.17 50.4713 342.45 50.7053L347.066 51.5782C348.343 51.8172 349.185 53.0493 348.943 54.3213C348.734 55.4523 347.745 56.2433 346.635 56.2433ZM328.134 52.7583C327.989 52.7583 327.844 52.7443 327.697 52.7173L323.078 51.8542C321.801 51.6202 320.955 50.3922 321.192 49.1152C321.426 47.8332 322.656 46.9732 323.933 47.2302L328.565 48.0942C329.843 48.3332 330.684 49.5653 330.442 50.8383C330.232 51.9683 329.243 52.7583 328.134 52.7583ZM309.627 49.3173C309.484 49.3173 309.342 49.3032 309.197 49.2762L304.562 48.4172C303.285 48.1782 302.444 46.9502 302.685 45.6732C302.924 44.4012 304.14 43.5692 305.431 43.7932L310.052 44.6522C311.33 44.8862 312.175 46.1142 311.938 47.3912C311.73 48.5262 310.74 49.3173 309.627 49.3173ZM15.099 48.4763C14.97 48.4763 14.839 48.4662 14.708 48.4442C13.426 48.2282 12.562 47.0143 12.775 45.7323L13.558 41.0952C13.774 39.8132 14.995 38.9583 16.272 39.1693C17.552 39.3903 18.414 40.6043 18.195 41.8853L17.416 46.5133C17.224 47.6633 16.227 48.4763 15.099 48.4763ZM291.114 45.9022C290.971 45.9022 290.829 45.8883 290.684 45.8613L286.061 45.0153C284.781 44.7813 283.933 43.5582 284.167 42.2762C284.399 40.9992 285.622 40.1853 286.901 40.3833L291.538 41.2373C292.815 41.4713 293.661 42.6983 293.424 43.9763C293.217 45.1123 292.226 45.9022 291.114 45.9022ZM272.594 42.5153C272.453 42.5153 272.314 42.5012 272.171 42.4792L267.532 41.6333C266.254 41.3943 265.409 40.1663 265.645 38.8893C265.879 37.6073 267.109 36.7932 268.386 37.0002L273.011 37.8463C274.288 38.0803 275.139 39.3033 274.907 40.5803C274.701 41.7203 273.711 42.5153 272.594 42.5153ZM254.067 39.1512C253.927 39.1512 253.787 39.1372 253.644 39.1152L249.017 38.2783C247.737 38.0493 246.887 36.8313 247.114 35.5493C247.339 34.2723 248.539 33.4312 249.844 33.6472L254.486 34.4833C255.763 34.7173 256.614 35.9403 256.382 37.2173C256.174 38.3563 255.183 39.1512 254.067 39.1512ZM235.537 35.8063C235.401 35.8063 235.261 35.7913 235.121 35.7693L230.477 34.9373C229.199 34.7033 228.352 33.4802 228.581 32.2032C228.813 30.9262 230.024 30.1033 231.318 30.3063L235.948 31.1373C237.226 31.3673 238.078 32.5853 237.851 33.8673C237.649 35.0063 236.656 35.8063 235.537 35.8063ZM217.003 32.4883C216.868 32.4883 216.728 32.4743 216.588 32.4513L211.951 31.6243C210.671 31.3953 209.821 30.1723 210.049 28.8953C210.276 27.6133 211.489 26.7623 212.778 26.9933L217.415 27.8203C218.692 28.0493 219.545 29.2673 219.317 30.5493C219.115 31.6883 218.122 32.4883 217.003 32.4883ZM18.754 30.0432C18.501 30.0432 18.242 30.0023 17.989 29.9153C16.76 29.4923 16.107 28.1542 16.53 26.9232C17.074 25.3422 17.716 23.8082 18.449 22.3142C19.019 21.1472 20.434 20.6782 21.597 21.2342C22.764 21.8082 23.244 23.2143 22.672 24.3823C22.026 25.7003 21.459 27.0612 20.979 28.4582C20.643 29.4322 19.731 30.0432 18.754 30.0432ZM198.463 29.1832C198.327 29.1832 198.187 29.1692 198.047 29.1472L193.41 28.3203C192.13 28.0903 191.28 26.8682 191.508 25.5902C191.736 24.3082 192.951 23.4772 194.237 23.6882L198.874 24.5153C200.154 24.7453 201.004 25.9632 200.777 27.2452C200.574 28.3842 199.581 29.1832 198.463 29.1832ZM179.917 25.8883C179.781 25.8883 179.641 25.8743 179.501 25.8523L174.869 25.0293C173.589 24.8043 172.734 23.5872 172.957 22.3082C173.182 21.0262 174.384 20.1202 175.682 20.3972L180.328 21.2192C181.605 21.4482 182.458 22.6712 182.23 23.9482C182.029 25.0882 181.036 25.8883 179.917 25.8883ZM161.369 22.6073C161.236 22.6073 161.098 22.5983 160.96 22.5713L156.314 21.7533C155.036 21.5243 154.184 20.3063 154.411 19.0243C154.639 17.7463 155.845 16.9102 157.141 17.1212L161.773 17.9392C163.053 18.1652 163.908 19.3823 163.685 20.6603C163.483 21.8033 162.49 22.6073 161.369 22.6073ZM142.819 19.3313C142.686 19.3313 142.548 19.3223 142.41 19.2943L137.762 18.4773C136.482 18.2473 135.632 17.0253 135.86 15.7473C136.085 14.4703 137.285 13.6152 138.59 13.8452L143.224 14.6632C144.504 14.8842 145.359 16.1053 145.136 17.3843C144.935 18.5263 143.941 19.3313 142.819 19.3313ZM124.269 16.0682C124.134 16.0682 123.998 16.0582 123.86 16.0312L119.214 15.2142C117.934 14.9842 117.084 13.7662 117.311 12.4842C117.539 11.2022 118.75 10.3613 120.041 10.5823L124.673 11.4003C125.953 11.6253 126.807 12.8422 126.585 14.1212C126.383 15.2632 125.39 16.0682 124.269 16.0682ZM28.987 14.4783C28.35 14.4783 27.717 14.2202 27.252 13.7142C26.374 12.7542 26.439 11.2653 27.399 10.3873L28.279 9.61132C28.812 9.13332 29.391 8.64632 29.945 8.21032C30.377 7.87032 30.816 7.54329 31.262 7.22729C32.324 6.47829 33.792 6.72632 34.543 7.77832C35.294 8.84032 35.046 10.3063 33.987 11.0593C33.606 11.3303 33.231 11.6113 32.859 11.9053C32.374 12.2873 31.873 12.7102 31.38 13.1512L30.576 13.8633C30.124 14.2763 29.554 14.4783 28.987 14.4783ZM105.723 12.8003C105.588 12.8003 105.45 12.7913 105.312 12.7633L100.677 11.9463C99.397 11.7203 98.543 10.4982 98.77 9.22021C98.995 7.94321 100.215 7.05123 101.495 7.31323L106.13 8.13122C107.41 8.35622 108.265 9.57832 108.037 10.8563C107.838 11.9963 106.845 12.8003 105.723 12.8003ZM87.185 9.52832C87.05 9.52832 86.914 9.51931 86.776 9.49231L82.141 8.67932C80.861 8.45332 80.006 7.23624 80.229 5.95324C80.454 4.67624 81.681 3.79326 82.954 4.04626L87.588 4.85925C88.868 5.08525 89.723 6.30232 89.5 7.58532C89.299 8.72432 88.306 9.52832 87.185 9.52832ZM68.649 6.26025C68.513 6.26025 68.376 6.25124 68.238 6.22424L63.603 5.40625C62.323 5.18125 61.468 3.95927 61.696 2.68127C61.919 1.40327 63.148 0.511289 64.421 0.774289L69.056 1.59131C70.336 1.81731 71.191 3.03926 70.963 4.31726C70.763 5.45726 69.77 6.26025 68.649 6.26025ZM45.361 5.59423C44.316 5.59423 43.362 4.89123 43.086 3.83423C42.76 2.57423 43.513 1.29228 44.77 0.962277C46.37 0.548277 48.022 0.23126 49.685 0.0202603C50.977 -0.14974 52.151 0.769271 52.316 2.05627C52.479 3.34727 51.566 4.52421 50.277 4.68921C48.821 4.87321 47.378 5.14924 45.955 5.52124C45.756 5.57224 45.558 5.59423 45.361 5.59423Z" fill="#636466"/>
<path d="M722.265 167.461C700.04 163.095 677.513 158.292 655.735 153.642C625.551 147.208 594.347 140.549 563.442 134.956C558.267 134.018 553.088 133.09 547.904 132.181C534.113 129.754 520.312 127.415 506.516 125.067C492.725 122.723 478.938 120.379 465.161 117.958C445.023 114.415 428.433 111.322 412.946 108.22C323.529 90.2883 233.879 74.3413 149.72 59.5433L100.15 50.8403C99.6242 50.7473 99.0882 50.8674 98.6522 51.1754C98.2172 51.4794 97.9232 51.9434 97.8322 52.4664C85.3322 124.465 66.4442 233.271 122.49 303.762C170.433 364.056 244.213 401.189 354.668 420.61C359.493 421.46 364.321 422.264 369.128 423.022C439.877 434.208 527.933 448.128 601.178 393.652C664.105 346.846 704.23 273.625 723.843 169.797C724.043 168.711 723.34 167.671 722.265 167.461Z" fill="#FEF49C"/>
<path d="M673.285 242.364C682.587 212.29 688.092 184.431 691.225 161.155C679.29 158.665 667.402 156.133 655.734 153.641C625.55 147.207 594.346 140.548 563.441 134.955C558.266 134.017 553.087 133.089 547.903 132.18C534.112 129.753 520.311 127.414 506.515 125.066C492.724 122.722 478.937 120.378 465.16 117.957C445.022 114.414 428.432 111.321 412.945 108.219C323.528 90.2871 233.878 74.3401 149.719 59.5421L130.454 56.1602C124.117 83.7612 118.202 117.699 116.761 129.565C110.171 183.894 115.511 250.691 153.048 295.713C195.862 347.06 261.357 378.985 359.162 396.182C363.433 396.936 367.705 397.648 371.961 398.324C434.604 408.278 512.563 420.668 576.946 375.085C620.115 344.523 654.76 302.254 673.285 242.364Z" fill="#FF525B"/>
<path d="M764.536 175.82C764.227 175.379 763.764 175.08 763.24 174.988C763.235 174.988 757.839 174.064 755.146 173.591C747.255 172.203 739.379 170.746 731.516 169.243C731.502 169.239 731.493 169.239 731.484 169.239C730.974 169.147 730.444 169.258 730.007 169.552C729.575 169.855 729.269 170.315 729.172 170.834C708.363 280.916 664.479 358.679 598.74 401.96C525.27 450.333 447.443 441.974 360.651 427.116L356.584 426.413C235.428 405.107 156.15 364.275 114.215 301.605C66.5185 230.314 77.3365 138.967 92.5035 51.5181C92.6945 50.4331 91.9655 49.3991 90.8785 49.2111L58.9074 43.5811C58.3834 43.4891 57.8455 43.6081 57.4095 43.9161C56.9745 44.2201 56.6785 44.6881 56.5895 45.2131C40.4515 138.967 27.6784 245.414 80.6914 322.073C130.684 394.362 217.267 440.455 345.403 462.988C348.643 463.557 351.887 464.104 355.111 464.637C440.463 478.64 537.196 494.513 619.792 434.462C711.787 367.583 749.451 257.721 764.855 177.335C764.958 176.807 764.844 176.26 764.536 175.82Z" fill="#86E4C7"/>
<path d="M664.328 155.47C661.465 154.859 658.574 154.252 655.734 153.641C625.55 147.207 594.346 140.548 563.441 134.955C558.266 134.017 553.087 133.089 547.903 132.18C534.112 129.753 520.311 127.414 506.515 125.066C492.724 122.722 478.937 120.378 465.16 117.957C445.022 114.414 428.432 111.321 412.945 108.219C323.763 90.3332 234.353 74.4282 150.385 59.6572C146.529 72.9702 144.489 87.0472 142.641 100.714C139.256 125.742 138.811 151.422 142.489 176.427C148.367 216.408 168.803 250.374 198.369 277.346C238.907 314.322 294.66 331.601 347.496 341.519C402.838 351.905 460.247 350.93 513.712 332.373C561.268 315.87 596.749 282.658 623.643 241.132C640.349 215.341 656.626 186.123 664.328 155.47Z" fill="#FF0001"/>
<path d="M597.283 141.463C586.006 139.202 574.711 136.992 563.442 134.956C558.267 134.018 553.087 133.09 547.903 132.181C534.112 129.754 520.312 127.415 506.516 125.067C492.725 122.723 478.938 120.379 465.161 117.958C445.023 114.415 428.432 111.322 412.945 108.22C339.128 93.418 265.209 79.985 194.297 67.416C189.933 102.71 190.671 138.634 204.504 172.14C220.458 210.766 254.794 238.454 290.423 258.096C336.303 283.385 400.602 289.144 450.918 278.514C549.365 257.713 576.01 219.285 597.283 141.463Z" fill="#C60001"/>
<path d="M772.453 170.81C772.384 170.681 772.334 170.543 772.256 170.419C772.195 170.351 772.127 170.29 772.063 170.222C771.452 169.39 770.555 168.728 769.227 168.512C702.462 157.474 636.695 141.477 570.266 128.687C520.528 119.12 470.349 112.106 420.62 102.198C299.299 78.0261 177.375 56.9692 55.5422 35.4662C54.2782 35.2412 53.2602 35.5491 52.4172 36.0691C52.2812 36.1371 52.1482 36.1881 52.0222 36.2711C51.9302 36.3391 51.8573 36.4271 51.7703 36.5051C50.9663 37.1251 50.3152 37.9942 50.0922 39.2852C33.8032 133.164 20.3983 241.757 74.6323 326.344C133.626 418.338 252.536 454.675 353.807 471.932C402.247 480.191 452.178 489.413 501.475 485.646C545.79 482.253 587.623 465.627 624.016 440.558C710.726 380.838 754.614 274.17 773.051 173.963C773.281 172.685 772.977 171.656 772.453 170.81ZM412.555 110.18C462.601 120.213 512.913 127.832 563.087 136.922C616.263 146.555 668.864 159.008 721.874 169.422C705.688 255.107 671.806 338.622 599.985 392.041C530.104 444.018 449.902 433.77 369.438 421.044C278.717 406.701 183.561 377.35 124.057 302.515C69.7442 234.206 86.0493 132.019 99.8013 52.8092C204.202 71.1322 308.646 89.3442 412.555 110.18ZM618.616 432.85C538.648 490.989 446.695 477.639 355.436 462.663C253.915 446.008 143.704 409.676 82.3392 320.934C28.4902 243.071 43.4232 133.508 58.5612 45.5531C69.2182 47.4281 79.8753 49.3031 90.5333 51.1781C76.2153 133.733 63.2002 228.949 112.557 302.717C165.978 382.566 271.166 413.82 360.314 429.086C444.54 443.502 524.88 452.988 599.843 403.631C677.941 352.211 714.402 259.73 731.139 171.205C741.7 173.226 752.284 175.162 762.89 176.959C744.094 275.066 701.273 372.754 618.616 432.85Z" fill="#68182B"/>
<path d="M298.968 255.213C297.378 256.743 296.075 258.587 295.234 260.429C293.373 264.483 292.302 272.902 297.745 275.067C302.963 277.148 305.837 272.199 307.353 268.026C308.313 265.388 308.89 262.08 308.832 258.831C308.619 246.477 303.708 250.659 298.968 255.213Z" fill="#68182B"/>
<path d="M443.028 192.194C442.987 194.404 443.364 196.624 444.067 198.522C445.621 202.709 450.808 209.422 456.19 207.111C461.355 204.896 459.89 199.363 458.015 195.337C456.829 192.791 454.899 190.043 452.564 187.787C443.685 179.193 443.161 185.627 443.028 192.194Z" fill="#68182B"/>
<path d="M218.433 181.363C217.721 183.454 216.606 185.416 215.299 186.956C212.413 190.366 205.244 194.906 200.972 190.894C196.872 187.052 200.14 182.351 203.274 179.207C205.257 177.217 208.007 175.291 210.974 173.968C222.25 168.918 220.55 175.14 218.433 181.363Z" fill="#68182B"/>
<path d="M580.68 283.908C582.545 285.094 584.186 286.633 585.381 288.269C588.014 291.876 590.743 299.91 585.84 303.122C581.144 306.201 577.343 301.923 575.023 298.136C573.552 295.741 572.33 292.613 571.737 289.418C569.485 277.276 575.133 280.392 580.68 283.908Z" fill="#68182B"/>
<path d="M345.841 150.02C343.72 151.578 342.9 153.665 342.443 156.192C341.721 160.134 343.859 163.682 347.705 164.68C350.738 165.461 354.109 163.609 355.772 161.132C357.24 158.935 357.727 156.224 357.419 153.595C356.482 145.254 354.903 143.434 345.841 150.02Z" fill="#68182B"/>
<path d="M472.932 307.171C472.761 309.8 473.832 311.767 475.478 313.742C478.042 316.821 482.136 317.46 485.372 315.148C487.914 313.329 488.653 309.555 487.822 306.688C487.082 304.147 485.317 302.038 483.097 300.589C476.103 295.958 473.69 295.994 472.932 307.171Z" fill="#68182B"/>
<path d="M393.244 347.566C392.292 350.024 392.733 352.225 393.708 354.597C395.225 358.31 398.937 360.144 402.711 358.916C405.689 357.933 407.536 354.555 407.596 351.572C407.652 348.929 406.599 346.384 404.921 344.334C399.646 337.819 397.329 337.129 393.244 347.566Z" fill="#68182B"/>
<path d="M575.652 186.1C576.314 188.655 577.95 190.185 580.119 191.555C583.515 193.682 587.605 193.011 589.959 189.822C591.811 187.286 591.342 183.471 589.655 181.004C588.162 178.83 585.827 177.368 583.267 176.68C575.183 174.45 572.9 175.241 575.652 186.1Z" fill="#68182B"/>
<path d="M267.219 131.068C265.725 133.242 263.666 134.129 261.157 134.671C257.239 135.517 253.625 133.491 252.502 129.686C251.626 126.671 253.368 123.247 255.794 121.5C257.938 119.965 260.635 119.391 263.274 119.616C271.635 120.277 273.51 121.798 267.219 131.068Z" fill="#68182B"/>
<path d="M189.965 262.423C188.472 264.597 186.413 265.479 183.906 266.022C179.986 266.868 176.371 264.845 175.248 261.04C174.375 258.025 176.117 254.598 178.541 252.855C180.687 251.321 183.382 250.741 186.02 250.971C194.382 251.633 196.257 253.149 189.965 262.423Z" fill="#68182B"/>
</svg>
