<svg width="780" height="560" viewBox="0 0 780 560" fill="none" xmlns="http://www.w3.org/2000/svg">
<path d="M693.723 19.906C667.984 24.141 640.299 37.312 624.28 48.482C595.089 68.84 577.047 95.527 559.606 121.338L557.216 124.874C549.463 136.315 543.485 147.707 537.717 158.716C535.29 163.34 532.868 167.972 530.304 172.586C530.061 172.648 529.743 172.717 529.366 172.779C529.306 172.786 529.247 172.798 529.191 172.807C528.396 164.335 527.394 155.948 526.346 147.492C526.135 144.841 526.043 141.952 525.938 138.942C525.198 118.981 523.961 85.569 495.69 66.465C472.951 51.093 449.756 45.217 426.779 49C415.395 50.875 404.233 55.155 393.608 61.729C388.695 64.769 383.268 69.148 378.36 75.403C369.508 73.953 360.497 73.928 351.609 75.389C328.465 79.199 308.258 92.823 294.713 113.751C294.118 114.668 293.55 115.599 293.004 116.547C282.347 114.286 272.795 114.606 265.015 115.885C253.354 117.804 241.956 122.473 231.148 129.766C225.95 133.272 221.233 137.151 217.026 141.363C210.234 133.084 203.818 124.635 197.63 116.358C190.339 106.608 182.609 97.958 175.13 89.596C167.502 81.057 160.289 72.992 154.326 64.605C139.637 43.948 105.241 -4.42804 59.3556 3.12496C49.6126 4.72896 35.1986 9.78896 21.8696 24.78C-29.9874 83.114 34.8246 160.251 62.4986 193.192C64.4496 195.515 66.2646 197.672 67.8936 199.649C77.2246 210.961 86.9796 221.016 96.4116 230.736C108.986 243.7 120.865 255.945 130.33 269.73C139.643 283.291 145.842 299.631 152.402 316.931C157.469 330.279 162.701 344.081 169.79 357.944C172.85 363.921 176.035 369.213 179.119 374.332C182.619 380.141 185.925 385.628 188.14 390.789C190.957 397.361 193.485 404.341 196.164 411.731C198.388 417.855 200.681 424.185 203.259 430.591C206.324 438.197 210.017 444.52 213.282 450.097C215.393 453.702 217.388 457.103 218.618 459.932C220.192 463.556 221.674 467.186 223.154 470.803C227.132 480.532 231.242 490.589 237.074 500.98C261.114 543.804 303.099 563.721 352.276 555.628C365.272 553.489 378.691 549.417 392.143 543.521C396.462 541.627 401.664 540.196 408.039 539.148C418.6 537.408 430.659 536.992 443.426 536.554C457.815 536.057 472.704 535.545 487.64 533.086C513.697 528.796 534.092 519.226 550.011 503.831C566.56 487.834 572.231 466.894 576.422 451.43C584.427 421.926 595.567 396.333 612.543 368.449C616.656 361.698 622.818 355.448 629.965 348.21C642.791 335.202 658.766 319.012 666.164 294.145C668.724 285.56 670.218 277.385 671.536 270.172C673.136 261.443 674.523 253.899 677.336 247.523C683.655 233.254 691.334 221.285 700.801 210.919C713.977 196.514 720.429 180.23 725.617 167.146C730.466 154.899 733.733 147.128 739.477 141.85C740.488 140.92 741.632 139.911 742.864 138.824C757.028 126.301 783.379 102.994 776.678 70.152C769.008 32.597 736.452 12.875 693.723 19.906Z" fill="white"/>
<path d="M327.779 559.702C327.756 559.702 327.733 559.702 327.712 559.702C326.102 559.656 324.502 559.58 322.914 559.47C321.618 559.378 320.64 558.255 320.729 556.959C320.821 555.661 321.956 554.73 323.241 554.774C324.764 554.879 326.299 554.955 327.841 554.997C329.142 555.034 330.164 556.116 330.13 557.415C330.093 558.69 329.047 559.702 327.779 559.702ZM341.878 559.288C340.67 559.288 339.642 558.362 339.537 557.137C339.424 555.841 340.385 554.702 341.679 554.591C343.202 554.46 344.735 554.299 346.274 554.113C347.543 553.911 348.738 554.871 348.894 556.163C349.05 557.454 348.135 558.626 346.844 558.785C345.249 558.978 343.661 559.143 342.083 559.279C342.014 559.286 341.945 559.288 341.878 559.288ZM309.1 557.617C308.948 557.617 308.794 557.603 308.638 557.571C307.057 557.256 305.492 556.909 303.939 556.526C302.678 556.216 301.908 554.94 302.22 553.677C302.533 552.42 303.81 551.65 305.067 551.958C306.549 552.323 308.045 552.656 309.557 552.958C310.832 553.211 311.66 554.449 311.405 555.725C311.182 556.843 310.201 557.617 309.1 557.617ZM360.46 556.388C359.38 556.388 358.411 555.643 358.162 554.547C357.882 553.281 358.677 552.022 359.945 551.739C361.443 551.404 362.946 551.043 364.454 550.659C365.722 550.337 366.995 551.098 367.317 552.357C367.638 553.616 366.879 554.896 365.621 555.218C364.067 555.615 362.518 555.985 360.975 556.33C360.8 556.37 360.63 556.388 360.46 556.388ZM291.074 552.294C290.782 552.294 290.485 552.241 290.201 552.126C288.707 551.529 287.232 550.901 285.775 550.237C284.592 549.699 284.07 548.305 284.608 547.121C285.143 545.942 286.531 545.407 287.724 545.954C289.116 546.586 290.523 547.186 291.947 547.756C293.154 548.238 293.742 549.608 293.259 550.814C292.892 551.735 292.007 552.294 291.074 552.294ZM378.544 551.218C377.569 551.218 376.659 550.609 376.324 549.639C375.892 548.412 376.545 547.07 377.771 546.642C379.223 546.137 380.68 545.606 382.137 545.059C383.35 544.613 384.71 545.218 385.165 546.435C385.625 547.653 385.009 549.008 383.791 549.466C382.298 550.026 380.804 550.567 379.314 551.086C379.064 551.177 378.801 551.218 378.544 551.218ZM396.067 544.359C395.084 544.359 394.17 543.738 393.838 542.757C393.425 541.525 394.086 540.19 395.317 539.774C396.788 539.28 398.346 538.82 400.001 538.4C401.278 538.076 402.542 538.839 402.863 540.098C403.185 541.357 402.426 542.637 401.168 542.959C399.633 543.352 398.186 543.774 396.815 544.236C396.568 544.32 396.316 544.359 396.067 544.359ZM274.351 543.723C273.919 543.723 273.48 543.603 273.089 543.355C271.734 542.491 270.401 541.597 269.086 540.671C268.024 539.922 267.77 538.453 268.519 537.392C269.266 536.33 270.737 536.08 271.798 536.825C273.052 537.71 274.325 538.562 275.617 539.385C276.713 540.084 277.034 541.538 276.338 542.634C275.888 543.339 275.127 543.723 274.351 543.723ZM414.477 540.611C413.296 540.611 412.281 539.724 412.143 538.525C411.996 537.234 412.924 536.067 414.215 535.922C415.769 535.745 417.349 535.588 418.957 535.444C420.244 535.311 421.394 536.278 421.513 537.578C421.628 538.872 420.672 540.014 419.38 540.131C417.809 540.271 416.265 540.423 414.748 540.595C414.657 540.607 414.569 540.611 414.477 540.611ZM433.25 539.283C431.995 539.283 430.952 538.295 430.896 537.031C430.841 535.733 431.852 534.635 433.148 534.579L437.868 534.395C439.288 534.292 440.258 535.362 440.308 536.661C440.354 537.959 439.338 539.051 438.042 539.097L433.35 539.281C433.315 539.283 433.283 539.283 433.25 539.283ZM452.06 538.592C450.8 538.592 449.757 537.599 449.706 536.333C449.656 535.035 450.667 533.939 451.968 533.888L456.651 533.686C457.91 533.603 459.054 534.628 459.11 535.926C459.173 537.224 458.168 538.325 456.872 538.387L452.152 538.589C452.119 538.592 452.092 538.592 452.06 538.592ZM470.847 537.489C469.638 537.489 468.613 536.563 468.507 535.336C468.397 534.042 469.358 532.902 470.649 532.792C472.193 532.659 473.742 532.514 475.295 532.353C476.54 532.195 477.744 533.153 477.878 534.449C478.016 535.741 477.073 536.899 475.782 537.034C474.201 537.197 472.625 537.347 471.053 537.48C470.985 537.486 470.915 537.489 470.847 537.489ZM489.514 535.12C488.397 535.12 487.405 534.318 487.202 533.176C486.976 531.896 487.831 530.676 489.109 530.451C490.648 530.178 492.17 529.888 493.668 529.58C494.927 529.327 496.187 530.134 496.448 531.411C496.706 532.684 495.887 533.927 494.614 534.189C493.07 534.506 491.512 534.805 489.926 535.083C489.789 535.108 489.652 535.12 489.514 535.12ZM259.5 532.208C258.925 532.208 258.351 531.999 257.898 531.579C256.728 530.492 255.58 529.373 254.449 528.224C253.537 527.298 253.551 525.809 254.476 524.897C255.402 523.984 256.891 523.994 257.804 524.924C258.884 526.023 259.982 527.091 261.101 528.132C262.052 529.016 262.107 530.506 261.223 531.457C260.759 531.956 260.13 532.208 259.5 532.208ZM507.804 530.715C506.802 530.715 505.874 530.072 505.557 529.065C505.171 527.824 505.861 526.505 507.101 526.117C508.585 525.653 510.047 525.165 511.481 524.656C512.685 524.219 514.05 524.861 514.482 526.085C514.919 527.31 514.28 528.656 513.052 529.09C511.564 529.618 510.047 530.124 508.507 530.607C508.273 530.681 508.038 530.715 507.804 530.715ZM525.249 523.704C524.39 523.704 523.558 523.228 523.144 522.406C522.565 521.245 523.034 519.83 524.192 519.249C525.571 518.557 526.922 517.838 528.255 517.094C529.381 516.457 530.824 516.86 531.458 517.994C532.093 519.127 531.688 520.563 530.553 521.197C529.165 521.978 527.75 522.73 526.307 523.454C525.966 523.624 525.608 523.704 525.249 523.704ZM246.885 518.274C246.177 518.274 245.479 517.957 245.015 517.353C244.047 516.089 243.101 514.8 242.172 513.488C241.423 512.424 241.676 510.958 242.737 510.207C243.801 509.46 245.267 509.711 246.018 510.772C246.91 512.036 247.82 513.276 248.75 514.49C249.54 515.522 249.345 516.999 248.313 517.79C247.887 518.116 247.384 518.274 246.885 518.274ZM541.196 513.762C540.488 513.762 539.79 513.443 539.326 512.838C538.535 511.804 538.733 510.329 539.767 509.539C540.985 508.611 542.179 507.65 543.356 506.664C544.353 505.823 545.833 505.961 546.669 506.956C547.505 507.953 547.376 509.438 546.379 510.272C545.148 511.304 543.898 512.305 542.625 513.28C542.198 513.603 541.697 513.762 541.196 513.762ZM236.623 502.519C235.796 502.519 234.994 502.082 234.564 501.308C233.783 499.9 233.033 498.495 232.312 497.101C231.714 495.945 232.165 494.527 233.318 493.93C234.478 493.328 235.892 493.785 236.489 494.936C237.192 496.294 237.918 497.656 238.677 499.023C239.309 500.161 238.898 501.592 237.762 502.224C237.4 502.424 237.009 502.519 236.623 502.519ZM554.918 500.936C554.38 500.936 553.838 500.752 553.397 500.377C552.405 499.536 552.285 498.052 553.122 497.062C554.114 495.89 555.061 494.7 555.957 493.494C556.738 492.448 558.214 492.241 559.252 493.013C560.296 493.79 560.507 495.265 559.735 496.306C558.774 497.59 557.772 498.859 556.715 500.104C556.246 500.653 555.584 500.936 554.918 500.936ZM228.367 485.614C227.459 485.614 226.593 485.086 226.207 484.201C225.573 482.742 224.953 481.292 224.344 479.851C223.841 478.654 224.401 477.273 225.598 476.767C226.788 476.271 228.176 476.822 228.681 478.022C229.281 479.446 229.892 480.88 230.522 482.321C231.041 483.511 230.497 484.899 229.304 485.418C228.999 485.552 228.68 485.614 228.367 485.614ZM565.263 485.258C564.9 485.258 564.536 485.175 564.192 485.001C563.034 484.408 562.575 482.99 563.168 481.834C563.871 480.457 564.537 479.077 565.158 477.696C565.7 476.51 567.083 475.984 568.273 476.519C569.455 477.052 569.983 478.447 569.45 479.63C568.793 481.08 568.098 482.53 567.359 483.975C566.94 484.789 566.117 485.258 565.263 485.258ZM221.134 468.238C220.212 468.238 219.337 467.694 218.96 466.786C218.365 465.35 217.763 463.909 217.147 462.473C216.637 461.278 217.191 459.895 218.385 459.383C219.578 458.875 220.963 459.425 221.473 460.621C222.095 462.076 222.702 463.53 223.306 464.985C223.805 466.184 223.235 467.561 222.033 468.059C221.741 468.181 221.435 468.238 221.134 468.238ZM572.345 467.838C572.106 467.838 571.862 467.801 571.618 467.723C570.382 467.323 569.706 465.997 570.106 464.761C570.593 463.261 571.047 461.779 571.48 460.322C571.847 459.076 573.171 458.366 574.403 458.734C575.648 459.104 576.36 460.411 575.993 461.659C575.552 463.153 575.079 464.672 574.582 466.209C574.261 467.206 573.337 467.838 572.345 467.838ZM212.697 451.446C211.888 451.446 211.1 451.028 210.661 450.279C209.889 448.953 209.096 447.589 208.297 446.173C207.656 445.042 208.056 443.606 209.186 442.967C210.316 442.33 211.755 442.723 212.392 443.856C213.182 445.253 213.966 446.6 214.729 447.907C215.381 449.031 215.002 450.471 213.881 451.126C213.508 451.342 213.099 451.446 212.697 451.446ZM577.542 449.748C577.33 449.748 577.114 449.72 576.898 449.659C575.648 449.303 574.922 448 575.281 446.75C575.713 445.222 576.158 443.703 576.613 442.198C576.99 440.955 578.309 440.249 579.546 440.626C580.791 441 581.494 442.312 581.117 443.558C580.672 445.04 580.235 446.536 579.803 448.041C579.509 449.074 578.567 449.748 577.542 449.748ZM204.011 434.757C203.099 434.757 202.23 434.224 201.849 433.33C201.587 432.719 201.33 432.098 201.077 431.466L200.057 428.904C199.581 427.693 200.177 426.328 201.385 425.853C202.589 425.384 203.963 425.97 204.437 427.181L206.174 431.477C206.686 432.67 206.132 434.053 204.938 434.565C204.636 434.697 204.321 434.757 204.011 434.757ZM583.227 431.799C582.97 431.799 582.707 431.758 582.451 431.666C581.223 431.236 580.576 429.895 581.008 428.667C581.532 427.173 582.065 425.687 582.612 424.205C583.063 422.987 584.427 422.367 585.632 422.813C586.855 423.263 587.475 424.617 587.025 425.837C586.488 427.291 585.963 428.755 585.449 430.226C585.107 431.193 584.197 431.799 583.227 431.799ZM197.287 417.179C196.324 417.179 195.421 416.586 195.074 415.628L193.47 411.21C193.024 409.987 193.654 408.639 194.874 408.193C196.089 407.75 197.447 408.377 197.891 409.597L199.499 414.025C199.94 415.245 199.311 416.596 198.088 417.04C197.825 417.133 197.554 417.179 197.287 417.179ZM590.01 414.252C589.702 414.252 589.39 414.192 589.091 414.065C587.896 413.557 587.335 412.176 587.845 410.979C588.461 409.527 589.091 408.08 589.73 406.634C590.25 405.443 591.646 404.901 592.832 405.434C594.022 405.958 594.561 407.348 594.031 408.536C593.402 409.958 592.781 411.388 592.175 412.817C591.798 413.713 590.924 414.252 590.01 414.252ZM190.75 399.527C189.812 399.527 188.925 398.962 188.56 398.036C187.986 396.577 187.409 395.134 186.818 393.712C186.319 392.512 186.892 391.136 188.091 390.637C189.286 390.141 190.672 390.711 191.166 391.91C191.766 393.36 192.356 394.826 192.939 396.313C193.415 397.524 192.82 398.889 191.611 399.364C191.329 399.474 191.037 399.527 190.75 399.527ZM597.901 397.169C597.547 397.169 597.189 397.089 596.848 396.921C595.686 396.339 595.217 394.926 595.796 393.764C596.499 392.358 597.216 390.951 597.942 389.545C598.54 388.389 599.96 387.932 601.113 388.532C602.267 389.127 602.721 390.547 602.125 391.7C601.408 393.09 600.7 394.48 600.006 395.868C599.592 396.694 598.76 397.169 597.901 397.169ZM182.635 382.574C181.826 382.574 181.04 382.159 180.601 381.409C179.827 380.086 179.027 378.746 178.211 377.386C177.542 376.272 177.903 374.826 179.018 374.158C180.132 373.487 181.58 373.852 182.246 374.964C183.071 376.339 183.88 377.696 184.663 379.034C185.318 380.155 184.941 381.596 183.82 382.253C183.448 382.471 183.039 382.574 182.635 382.574ZM606.78 380.575C606.384 380.575 605.98 380.476 605.612 380.265C604.486 379.622 604.091 378.186 604.734 377.057C605.511 375.695 606.301 374.327 607.111 372.958C607.772 371.834 609.22 371.469 610.328 372.122C611.449 372.782 611.826 374.222 611.164 375.344C610.374 376.695 609.593 378.044 608.825 379.388C608.388 380.15 607.593 380.575 606.78 380.575ZM173.059 366.37C172.236 366.37 171.439 365.938 171.007 365.17C170.237 363.807 169.477 362.415 168.72 360.986C168.111 359.837 168.55 358.415 169.699 357.806C170.855 357.195 172.27 357.638 172.879 358.785C173.617 360.177 174.359 361.534 175.106 362.864C175.745 363.995 175.343 365.431 174.21 366.067C173.847 366.273 173.45 366.37 173.059 366.37ZM616.858 364.706C616.343 364.706 615.824 364.539 615.392 364.191C614.376 363.38 614.205 361.901 615.019 360.885C615.998 359.658 617.041 358.431 618.135 357.197C618.994 356.22 620.484 356.133 621.457 356.999C622.427 357.861 622.519 359.35 621.655 360.322C620.616 361.491 619.628 362.654 618.695 363.822C618.232 364.403 617.546 364.706 616.858 364.706ZM629.638 350.897C629.035 350.897 628.434 350.668 627.974 350.208C627.055 349.289 627.055 347.8 627.974 346.881L629.638 348.545L628.249 346.601L631.255 343.543C632.17 342.622 633.658 342.598 634.582 343.511C635.511 344.419 635.529 345.91 634.619 346.838L631.301 350.209C630.842 350.667 630.24 350.897 629.638 350.897ZM164.631 349.545C163.735 349.545 162.878 349.033 162.485 348.162C161.83 346.714 161.191 345.269 160.564 343.826C160.049 342.634 160.596 341.248 161.789 340.731C162.986 340.214 164.367 340.766 164.884 341.956C165.497 343.376 166.127 344.798 166.773 346.223C167.308 347.407 166.784 348.801 165.599 349.337C165.284 349.479 164.955 349.545 164.631 349.545ZM642.588 337.236C642.036 337.236 641.481 337.043 641.034 336.65C640.06 335.791 639.964 334.304 640.823 333.33C641.829 332.181 642.836 331.007 643.829 329.803C644.66 328.803 646.149 328.661 647.142 329.49C648.144 330.317 648.287 331.802 647.459 332.804C646.43 334.045 645.396 335.256 644.353 336.437C643.889 336.965 643.241 337.236 642.588 337.236ZM157.359 332.188C156.419 332.188 155.532 331.623 155.169 330.694L153.457 326.294C152.991 325.081 153.595 323.718 154.808 323.252C156.019 322.788 157.384 323.39 157.85 324.603L159.548 328.976C160.024 330.185 159.428 331.55 158.217 332.025C157.935 332.135 157.646 332.188 157.359 332.188ZM654.049 322.326C653.604 322.326 653.157 322.202 652.758 321.942C651.673 321.23 651.37 319.771 652.082 318.684C652.914 317.413 653.728 316.108 654.527 314.776C655.184 313.659 656.627 313.298 657.753 313.965C658.865 314.631 659.233 316.077 658.562 317.193C657.736 318.581 656.885 319.937 656.017 321.262C655.566 321.951 654.812 322.326 654.049 322.326ZM150.628 314.607C149.682 314.607 148.79 314.033 148.432 313.095L146.747 308.715C146.278 307.502 146.88 306.139 148.091 305.671C149.304 305.202 150.667 305.802 151.135 307.015L152.824 311.413C153.288 312.626 152.682 313.987 151.469 314.451C151.194 314.557 150.909 314.607 150.628 314.607ZM662.882 305.738C662.583 305.738 662.276 305.681 661.982 305.559C660.783 305.063 660.212 303.686 660.709 302.485C661.288 301.088 661.84 299.661 662.363 298.202C662.804 296.977 664.165 296.35 665.374 296.782C666.596 297.223 667.23 298.57 666.794 299.792C666.242 301.324 665.663 302.82 665.057 304.286C664.679 305.191 663.806 305.738 662.882 305.738ZM143.645 297.135C142.735 297.135 141.867 296.602 141.483 295.713C140.867 294.279 140.242 292.859 139.604 291.453C139.068 290.267 139.592 288.875 140.776 288.337C141.959 287.804 143.354 288.325 143.892 289.509C144.54 290.943 145.179 292.39 145.809 293.852C146.321 295.047 145.77 296.43 144.577 296.945C144.273 297.073 143.955 297.135 143.645 297.135ZM668.466 287.788C668.291 287.788 668.112 287.767 667.928 287.726C666.664 287.43 665.878 286.166 666.173 284.9C666.535 283.363 666.866 281.848 667.179 280.357C667.45 279.087 668.714 278.28 669.964 278.54C671.236 278.807 672.05 280.054 671.783 281.327C671.462 282.85 671.122 284.402 670.759 285.971C670.501 287.055 669.536 287.788 668.466 287.788ZM135.401 280.231C134.581 280.231 133.781 279.801 133.349 279.034C132.591 277.692 131.809 276.371 131.005 275.073C130.32 273.968 130.66 272.518 131.763 271.833C132.869 271.15 134.321 271.49 135.003 272.591C135.844 273.945 136.658 275.321 137.448 276.723C138.087 277.853 137.687 279.289 136.554 279.928C136.189 280.134 135.791 280.231 135.401 280.231ZM672.133 269.325C671.99 269.325 671.843 269.311 671.696 269.286C670.419 269.047 669.577 267.82 669.816 266.542C670.11 264.948 670.409 263.397 670.712 261.885C670.969 260.61 672.229 259.782 673.483 260.044C674.761 260.301 675.584 261.544 675.327 262.817C675.023 264.306 674.733 265.834 674.439 267.401C674.234 268.534 673.241 269.325 672.133 269.325ZM124.895 264.642C124.192 264.642 123.496 264.327 123.032 263.729C122.085 262.504 121.12 261.293 120.141 260.087C119.321 259.08 119.472 257.598 120.481 256.778C121.494 255.955 122.974 256.114 123.79 257.118C124.796 258.352 125.784 259.595 126.754 260.847C127.549 261.877 127.361 263.354 126.334 264.149C125.904 264.481 125.399 264.642 124.895 264.642ZM676.807 251.127C676.513 251.127 676.214 251.072 675.924 250.955C674.72 250.468 674.137 249.096 674.624 247.892C674.808 247.446 674.991 247.007 675.185 246.568C675.644 245.529 676.118 244.5 676.591 243.482C677.142 242.301 678.548 241.798 679.72 242.345C680.897 242.894 681.407 244.296 680.856 245.473C680.391 246.463 679.937 247.465 679.486 248.478L678.99 249.657C678.617 250.57 677.735 251.127 676.807 251.127ZM112.733 250.278C112.092 250.278 111.456 250.019 110.989 249.506C109.946 248.355 108.889 247.208 107.823 246.062C106.938 245.111 106.991 243.622 107.945 242.737C108.894 241.857 110.38 241.905 111.27 242.859C112.35 244.02 113.421 245.18 114.478 246.345C115.349 247.308 115.277 248.797 114.315 249.67C113.864 250.076 113.299 250.278 112.733 250.278ZM99.806 236.593C99.19 236.593 98.576 236.354 98.115 235.876L94.841 232.496C93.936 231.563 93.959 230.072 94.892 229.169C95.823 228.266 97.309 228.286 98.219 229.219L101.498 232.604C102.401 233.539 102.376 235.028 101.443 235.931C100.985 236.372 100.394 236.593 99.806 236.593ZM685.285 234.339C684.876 234.339 684.463 234.233 684.086 234.01C682.969 233.35 682.597 231.908 683.259 230.788C684.077 229.405 684.913 228.044 685.764 226.712C686.467 225.611 687.928 225.301 689.013 225.993C690.111 226.691 690.433 228.146 689.734 229.24C688.912 230.531 688.103 231.846 687.312 233.183C686.871 233.925 686.09 234.339 685.285 234.339ZM86.734 223.047C86.112 223.047 85.491 222.801 85.027 222.314L81.785 218.881C80.895 217.932 80.944 216.443 81.891 215.554C82.842 214.669 84.331 214.718 85.218 215.66L88.442 219.074C89.336 220.016 89.297 221.505 88.355 222.402C87.899 222.834 87.315 223.047 86.734 223.047ZM695.984 218.87C695.465 218.87 694.941 218.7 694.505 218.346C693.494 217.53 693.338 216.048 694.156 215.037C695.162 213.792 696.191 212.569 697.239 211.368C698.103 210.387 699.593 210.29 700.562 211.145C701.541 212 701.641 213.487 700.787 214.465C699.776 215.621 698.783 216.798 697.813 217.997C697.349 218.571 696.669 218.87 695.984 218.87ZM74.004 209.178C73.349 209.178 72.698 208.907 72.232 208.374C71.196 207.191 70.164 205.998 69.135 204.79C68.292 203.802 68.409 202.317 69.399 201.475C70.382 200.629 71.871 200.748 72.715 201.739C73.731 202.929 74.753 204.108 75.775 205.278C76.629 206.255 76.531 207.741 75.552 208.598C75.107 208.987 74.555 209.178 74.004 209.178ZM707.988 204.38C707.51 204.38 707.032 204.238 706.619 203.941C705.562 203.185 705.318 201.714 706.077 200.657C706.977 199.395 707.842 198.125 708.669 196.854C709.381 195.762 710.838 195.457 711.922 196.162C713.012 196.872 713.319 198.329 712.611 199.418C711.748 200.749 710.846 202.074 709.9 203.396C709.44 204.038 708.718 204.38 707.988 204.38ZM61.865 194.787C61.192 194.787 60.526 194.502 60.059 193.946L57.033 190.334C56.199 189.337 56.33 187.855 57.327 187.021C58.331 186.182 59.813 186.322 60.641 187.315L63.667 190.923C64.501 191.918 64.37 193.402 63.375 194.239C62.933 194.606 62.398 194.787 61.865 194.787ZM717.561 188.204C717.211 188.204 716.853 188.126 716.522 187.963C715.355 187.388 714.876 185.978 715.452 184.81C716.145 183.404 716.803 182.007 717.437 180.621C717.979 179.435 719.39 178.925 720.557 179.46C721.738 180 722.257 181.397 721.719 182.578C721.067 184.005 720.382 185.443 719.67 186.891C719.261 187.721 718.424 188.204 717.561 188.204ZM49.886 180.246C49.195 180.246 48.51 179.943 48.046 179.362L45.107 175.653C44.305 174.63 44.484 173.151 45.507 172.348C46.532 171.546 48.011 171.728 48.811 172.748L51.722 176.422C52.534 177.438 52.368 178.92 51.355 179.731C50.92 180.079 50.401 180.246 49.886 180.246ZM531.325 173.089C530.939 173.089 530.553 172.995 530.189 172.797C529.049 172.172 528.636 170.74 529.261 169.603C530.015 168.233 530.754 166.862 531.486 165.49C532.096 164.341 533.531 163.913 534.671 164.518C535.815 165.129 536.252 166.554 535.641 167.7C534.901 169.091 534.152 170.481 533.389 171.871C532.955 172.648 532.152 173.089 531.325 173.089ZM725.046 170.934C724.757 170.934 724.458 170.881 724.173 170.766C722.965 170.284 722.381 168.914 722.863 167.708L724.595 163.342C725.077 162.133 726.443 161.55 727.652 162.023C728.86 162.503 729.449 163.871 728.97 165.079L727.229 169.454C726.862 170.375 725.98 170.934 725.046 170.934ZM38.446 165.283C37.717 165.283 37.001 164.948 36.539 164.313C35.62 163.044 34.699 161.758 33.779 160.455C33.03 159.393 33.285 157.925 34.347 157.176C35.409 156.431 36.877 156.684 37.626 157.743C38.531 159.027 39.439 160.296 40.349 161.546C41.112 162.599 40.878 164.069 39.827 164.834C39.409 165.136 38.924 165.283 38.446 165.283ZM528.071 164.348C526.89 164.348 525.875 163.459 525.736 162.257L525.204 157.597C525.048 156.306 525.971 155.136 527.263 154.984C528.518 154.823 529.721 155.754 529.873 157.045L530.415 161.733C530.558 163.024 529.629 164.189 528.338 164.334C528.25 164.343 528.158 164.348 528.071 164.348ZM540.134 156.458C539.762 156.458 539.385 156.371 539.035 156.185C537.887 155.578 537.445 154.154 538.052 153.005L540.272 148.839C540.883 147.69 542.317 147.27 543.457 147.874C544.602 148.487 545.033 149.914 544.418 151.059L542.217 155.207C541.793 156.002 540.975 156.458 540.134 156.458ZM732.51 153.666C732.138 153.666 731.761 153.579 731.406 153.393C730.258 152.784 729.821 151.359 730.432 150.21C731.241 148.68 732.073 147.269 732.946 145.96C733.672 144.88 735.134 144.593 736.209 145.31C737.294 146.034 737.583 147.493 736.861 148.575C736.071 149.756 735.322 151.033 734.587 152.414C734.164 153.21 733.351 153.666 732.51 153.666ZM27.834 149.72C27.055 149.72 26.292 149.334 25.844 148.626C25.001 147.293 24.164 145.949 23.337 144.593C22.659 143.486 23.011 142.038 24.121 141.36C25.228 140.68 26.674 141.031 27.354 142.144C28.167 143.477 28.99 144.798 29.819 146.107C30.515 147.206 30.189 148.66 29.09 149.354C28.701 149.603 28.264 149.72 27.834 149.72ZM526.099 145.635C524.845 145.635 523.801 144.647 523.746 143.381L523.585 139.022C523.544 137.724 524.55 136.456 525.846 136.41C527.157 136.316 528.227 137.191 528.278 138.49L528.453 143.184C528.508 144.482 527.497 145.578 526.201 145.633C526.163 145.635 526.131 145.635 526.099 145.635ZM217.026 143.716C216.987 143.716 216.948 143.716 216.909 143.714C216.245 143.679 215.627 143.367 215.204 142.852C214.384 141.848 214.436 140.253 215.438 139.431C215.612 139.288 215.796 139.171 215.987 139.082C216.851 138.234 217.734 137.4 218.637 136.582C219.602 135.713 221.087 135.78 221.96 136.743C222.833 137.706 222.762 139.193 221.799 140.066C220.733 141.033 219.696 142.022 218.69 143.028C218.248 143.47 217.648 143.716 217.026 143.716ZM549.215 139.968C548.811 139.968 548.402 139.865 548.029 139.646C546.907 138.991 546.526 137.551 547.183 136.429C547.973 135.069 548.787 133.708 549.619 132.348C550.29 131.241 551.728 130.88 552.854 131.565C553.961 132.24 554.311 133.688 553.635 134.798C552.822 136.133 552.027 137.468 551.245 138.801C550.81 139.55 550.024 139.968 549.215 139.968ZM744.711 139.539C744.063 139.539 743.415 139.272 742.95 138.748C742.087 137.778 742.179 136.29 743.148 135.428C744.255 134.443 745.422 133.399 746.627 132.299C747.588 131.421 749.081 131.492 749.95 132.451C750.827 133.409 750.759 134.898 749.798 135.773C748.575 136.888 747.4 137.944 746.274 138.944C745.827 139.343 745.267 139.539 744.711 139.539ZM18.372 133.44C17.524 133.44 16.704 132.981 16.284 132.176C15.551 130.77 14.827 129.357 14.124 127.932C13.547 126.767 14.025 125.356 15.19 124.779C16.359 124.202 17.763 124.683 18.342 125.845C19.032 127.238 19.737 128.623 20.456 129.997C21.056 131.148 20.61 132.571 19.458 133.173C19.112 133.356 18.74 133.44 18.372 133.44ZM208.05 132.438C207.347 132.438 206.651 132.125 206.187 131.526L203.31 127.785C202.52 126.753 202.717 125.276 203.749 124.488C204.781 123.702 206.263 123.897 207.046 124.926L209.909 128.644C210.704 129.671 210.516 131.148 209.489 131.946C209.059 132.278 208.554 132.438 208.05 132.438ZM231.338 131.99C230.58 131.99 229.836 131.625 229.383 130.95C228.659 129.87 228.946 128.408 230.024 127.685C231.37 126.782 232.724 125.918 234.084 125.095C235.196 124.419 236.644 124.778 237.314 125.89C237.987 127.002 237.631 128.45 236.519 129.121C235.218 129.907 233.929 130.729 232.647 131.591C232.246 131.862 231.789 131.99 231.338 131.99ZM525.125 126.827C523.921 126.827 522.896 125.908 522.785 124.685C522.647 123.171 522.491 121.631 522.307 120.069C522.151 118.778 523.075 117.608 524.366 117.454C525.565 117.284 526.82 118.219 526.976 119.513C527.169 121.121 527.334 122.707 527.472 124.262C527.587 125.558 526.631 126.7 525.34 126.818C525.267 126.825 525.199 126.827 525.125 126.827ZM758.222 126.432C757.657 126.432 757.087 126.23 756.637 125.818C755.676 124.943 755.607 123.454 756.485 122.493C757.506 121.374 758.516 120.216 759.513 119.021C760.345 118.026 761.843 117.897 762.827 118.725C763.824 119.559 763.957 121.044 763.125 122.041C762.082 123.286 761.025 124.495 759.959 125.665C759.495 126.172 758.861 126.432 758.222 126.432ZM559.329 124.095C558.87 124.095 558.41 123.962 558.006 123.686C556.931 122.953 556.655 121.489 557.386 120.416L560.019 116.521C560.75 115.448 562.211 115.163 563.287 115.896C564.362 116.625 564.642 118.088 563.917 119.164L561.274 123.068C560.819 123.737 560.079 124.095 559.329 124.095ZM247.889 123.112C246.963 123.112 246.083 122.561 245.711 121.648C245.219 120.446 245.796 119.072 246.998 118.581C248.503 117.967 250.013 117.4 251.532 116.878C252.763 116.458 254.098 117.112 254.521 118.342C254.941 119.571 254.287 120.908 253.057 121.331C251.625 121.82 250.199 122.356 248.779 122.937C248.489 123.057 248.186 123.112 247.889 123.112ZM289.42 118.227C289.296 118.227 289.167 118.218 289.041 118.197C287.506 117.946 285.999 117.751 284.521 117.604C283.227 117.475 282.283 116.322 282.412 115.03C282.543 113.736 283.74 112.806 284.985 112.921C286.559 113.077 288.163 113.286 289.795 113.551C291.079 113.76 291.948 114.968 291.741 116.251C291.552 117.406 290.553 118.227 289.42 118.227ZM265.978 118.084C264.831 118.084 263.83 117.248 263.652 116.081C263.459 114.796 264.346 113.597 265.631 113.404C267.175 113.172 268.781 112.979 270.447 112.832C271.78 112.745 272.883 113.675 272.998 114.969C273.113 116.265 272.155 117.405 270.861 117.52C269.292 117.658 267.782 117.842 266.33 118.06C266.212 118.075 266.093 118.084 265.978 118.084ZM196.674 117.441C195.962 117.441 195.261 117.119 194.797 116.51C193.853 115.264 192.901 114.037 191.943 112.826C191.139 111.806 191.311 110.326 192.331 109.52C193.358 108.72 194.833 108.89 195.638 109.908C196.615 111.144 197.584 112.396 198.547 113.665C199.333 114.701 199.128 116.176 198.094 116.962C197.669 117.285 197.168 117.441 196.674 117.441ZM10.502 116.342C9.56201 116.342 8.675 115.775 8.31 114.846C7.731 113.362 7.17301 111.87 6.64001 110.374C6.20601 109.149 6.84503 107.805 8.06903 107.369C9.28003 106.937 10.64 107.569 11.075 108.798C11.59 110.248 12.13 111.693 12.695 113.131C13.169 114.339 12.571 115.705 11.36 116.18C11.079 116.292 10.787 116.342 10.502 116.342ZM769.499 111.393C769.091 111.393 768.682 111.289 768.31 111.069C767.188 110.412 766.812 108.969 767.468 107.85C768.236 106.547 768.962 105.217 769.642 103.857C770.226 102.694 771.632 102.221 772.799 102.802C773.962 103.381 774.431 104.794 773.852 105.957C773.125 107.414 772.344 108.841 771.531 110.231C771.09 110.977 770.304 111.393 769.499 111.393ZM298.841 110.219C298.347 110.219 297.846 110.063 297.421 109.741C296.387 108.955 296.182 107.48 296.968 106.444C297.947 105.155 298.953 103.898 299.985 102.676C300.826 101.683 302.311 101.559 303.301 102.393C304.296 103.232 304.42 104.716 303.584 105.709C302.603 106.872 301.647 108.064 300.719 109.289C300.254 109.897 299.553 110.219 298.841 110.219ZM569.954 108.551C569.49 108.551 569.021 108.413 568.608 108.128C567.542 107.386 567.28 105.92 568.024 104.854L570.75 100.987C571.508 99.928 572.979 99.684 574.031 100.431C575.088 101.185 575.336 102.653 574.582 103.712L571.885 107.543C571.43 108.199 570.695 108.551 569.954 108.551ZM522.111 108.261C521.058 108.261 520.097 107.551 519.831 106.485C519.459 105.017 519.051 103.548 518.591 102.085C518.2 100.844 518.89 99.523 520.13 99.135C521.371 98.756 522.69 99.438 523.076 100.675C523.563 102.226 524 103.781 524.39 105.333C524.711 106.592 523.949 107.872 522.685 108.191C522.492 108.238 522.298 108.261 522.111 108.261ZM184.771 102.854C184.111 102.854 183.457 102.578 182.993 102.04L179.909 98.504C179.052 97.527 179.151 96.041 180.127 95.184C181.099 94.331 182.593 94.426 183.447 95.402L186.549 98.961C187.4 99.944 187.294 101.429 186.31 102.279C185.865 102.666 185.318 102.854 184.771 102.854ZM4.875 98.413C3.804 98.413 2.83398 97.678 2.58398 96.588C2.22298 95.021 1.89698 93.452 1.60498 91.882C1.36798 90.605 2.21101 89.375 3.48901 89.138C4.76401 88.899 5.99299 89.745 6.23199 91.022C6.50999 92.527 6.82298 94.028 7.16998 95.53C7.46198 96.796 6.67103 98.06 5.40503 98.352C5.22903 98.394 5.05 98.413 4.875 98.413ZM311.695 96.515C311.033 96.515 310.376 96.237 309.909 95.697C309.064 94.711 309.176 93.225 310.159 92.377C311.388 91.322 312.636 90.307 313.907 89.328C314.934 88.533 316.418 88.726 317.206 89.756C317.998 90.785 317.808 92.263 316.779 93.055C315.572 93.983 314.389 94.948 313.229 95.948C312.784 96.329 312.239 96.515 311.695 96.515ZM776.527 94.017C776.357 94.017 776.187 93.999 776.012 93.96C774.743 93.675 773.944 92.416 774.229 91.149C774.555 89.706 774.817 88.235 775.005 86.74C775.171 85.449 776.36 84.543 777.634 84.7C778.921 84.863 779.835 86.039 779.674 87.328C779.468 88.975 779.178 90.593 778.824 92.179C778.576 93.275 777.607 94.017 776.527 94.017ZM581.048 93.342C580.548 93.342 580.042 93.183 579.614 92.852C578.585 92.06 578.391 90.582 579.182 89.553C580.147 88.303 581.121 87.057 582.105 85.817C582.918 84.797 584.393 84.638 585.414 85.438C586.43 86.247 586.6 87.727 585.791 88.745C584.816 89.968 583.86 91.195 582.914 92.426C582.451 93.027 581.751 93.342 581.048 93.342ZM515.433 90.713C514.597 90.713 513.783 90.265 513.361 89.472C512.653 88.153 511.89 86.845 511.072 85.559C510.379 84.46 510.705 83.008 511.802 82.312C512.896 81.611 514.348 81.938 515.051 83.041C515.925 84.424 516.742 85.828 517.505 87.248C518.121 88.392 517.689 89.819 516.545 90.433C516.191 90.623 515.81 90.713 515.433 90.713ZM172.29 88.767C171.642 88.767 170.998 88.5 170.532 87.979L167.402 84.447C166.543 83.473 166.637 81.986 167.611 81.127C168.583 80.27 170.074 80.362 170.931 81.336L174.047 84.85C174.911 85.819 174.823 87.306 173.854 88.172C173.407 88.569 172.848 88.767 172.29 88.767ZM327.211 85.931C326.366 85.931 325.55 85.476 325.129 84.677C324.52 83.528 324.962 82.106 326.11 81.499C327.54 80.743 328.989 80.033 330.46 79.366C331.648 78.824 333.036 79.352 333.574 80.536C334.112 81.719 333.588 83.114 332.405 83.649C331.022 84.279 329.655 84.947 328.308 85.657C327.958 85.844 327.581 85.931 327.211 85.931ZM2.388 79.789C1.124 79.789 0.0789873 78.783 0.0369873 77.51C0.0119873 76.671 0 75.833 0 74.991C0 74.219 0.0119824 73.445 0.0319824 72.673C0.0689824 71.373 1.34697 70.357 2.44897 70.385C3.74697 70.422 4.77198 71.504 4.73798 72.802C4.71698 73.532 4.70599 74.261 4.70599 74.991C4.70599 75.781 4.71698 76.574 4.74298 77.363C4.78198 78.661 3.76199 79.748 2.46399 79.787C2.43899 79.789 2.414 79.789 2.388 79.789ZM344.73 79.187C343.68 79.187 342.722 78.482 342.451 77.418C342.129 76.159 342.888 74.876 344.146 74.555C345.709 74.156 347.281 73.802 348.871 73.492C350.126 73.241 351.381 74.073 351.633 75.35C351.881 76.625 351.05 77.862 349.772 78.11C348.274 78.402 346.786 78.737 345.315 79.114C345.116 79.164 344.923 79.187 344.73 79.187ZM593.038 78.831C592.477 78.831 591.921 78.633 591.471 78.233C590.501 77.367 590.419 75.878 591.283 74.911C592.341 73.73 593.406 72.558 594.496 71.395C595.388 70.451 596.872 70.396 597.823 71.282C598.769 72.169 598.82 73.658 597.933 74.607C596.871 75.745 595.824 76.891 594.794 78.045C594.329 78.567 593.687 78.831 593.038 78.831ZM368.052 76.715C368.025 76.715 367.992 76.715 367.965 76.713C366.944 76.676 365.929 76.656 364.909 76.656L363.388 76.67C362.119 76.743 361.017 75.656 360.993 74.358C360.971 73.057 362.005 71.986 363.305 71.963L364.909 71.949C365.984 71.949 367.064 71.97 368.139 72.011C369.44 72.059 370.451 73.151 370.405 74.449C370.355 75.718 369.312 76.715 368.052 76.715ZM504.192 75.72C503.599 75.72 503.011 75.499 502.551 75.056C501.489 74.022 500.368 73.011 499.192 72.03C498.191 71.201 498.057 69.716 498.884 68.717C499.725 67.722 501.209 67.591 502.197 68.414C503.474 69.473 504.678 70.562 505.832 71.679C506.766 72.585 506.784 74.076 505.878 75.007C505.419 75.481 504.808 75.72 504.192 75.72ZM777.169 75.32C776.025 75.32 775.019 74.482 774.849 73.312C774.716 72.423 774.555 71.527 774.371 70.623L773.994 68.875C773.704 67.609 774.49 66.345 775.759 66.053C777.046 65.764 778.286 66.552 778.58 67.818C778.723 68.434 778.856 69.054 778.984 69.681C779.186 70.671 779.356 71.65 779.499 72.622C779.692 73.906 778.806 75.103 777.519 75.294C777.404 75.31 777.284 75.32 777.169 75.32ZM380.764 74.877C380.207 74.877 379.647 74.679 379.197 74.28C378.227 73.416 378.144 71.929 379.009 70.96C380.126 69.705 381.266 68.533 382.405 67.442C383.343 66.544 384.832 66.58 385.732 67.516C386.628 68.455 386.596 69.945 385.659 70.843C384.601 71.852 383.554 72.931 382.519 74.09C382.055 74.61 381.411 74.877 380.764 74.877ZM160.04 74.479C159.35 74.479 158.668 74.178 158.204 73.601C157.2 72.353 156.221 71.103 155.265 69.849C154.477 68.815 154.675 67.34 155.708 66.552C156.749 65.759 158.22 65.966 159.005 66.995C159.938 68.218 160.894 69.435 161.87 70.651C162.683 71.664 162.523 73.147 161.512 73.96C161.079 74.309 160.557 74.479 160.04 74.479ZM606.218 65.391C605.584 65.391 604.954 65.139 604.49 64.638C603.608 63.684 603.668 62.195 604.619 61.313C605.782 60.238 606.963 59.176 608.167 58.123C609.142 57.271 610.63 57.363 611.485 58.342C612.339 59.321 612.243 60.807 611.264 61.662C610.096 62.686 608.943 63.721 607.817 64.764C607.363 65.185 606.793 65.391 606.218 65.391ZM489.064 64.612C488.655 64.612 488.241 64.507 487.864 64.283C486.527 63.491 485.185 62.73 483.847 62.004C482.703 61.386 482.281 59.957 482.901 58.815C483.526 57.671 484.946 57.252 486.09 57.868C487.483 58.622 488.87 59.41 490.263 60.235C491.379 60.897 491.751 62.342 491.085 63.459C490.649 64.201 489.863 64.612 489.064 64.612ZM395.309 63.052C394.509 63.052 393.723 62.64 393.287 61.898C392.621 60.781 392.993 59.339 394.11 58.674C395.503 57.849 396.904 57.063 398.31 56.317C399.436 55.706 400.874 56.138 401.49 57.289C402.101 58.438 401.665 59.863 400.516 60.472C399.174 61.187 397.836 61.936 396.508 62.724C396.131 62.946 395.718 63.052 395.309 63.052ZM4.08398 61.099C3.91698 61.099 3.74599 61.081 3.57599 61.044C2.30799 60.766 1.504 59.509 1.784 58.24C2.131 56.664 2.52802 55.093 2.98602 53.525C3.34702 52.275 4.64298 51.558 5.90198 51.923C7.14898 52.286 7.86603 53.591 7.50403 54.839C7.07903 56.305 6.704 57.776 6.38 59.251C6.138 60.35 5.16398 61.099 4.08398 61.099ZM148.841 59.334C148.117 59.334 147.403 59.001 146.943 58.374C146.054 57.163 145.119 55.911 144.147 54.624C143.361 53.587 143.565 52.112 144.602 51.329C145.636 50.538 147.113 50.745 147.897 51.784C148.887 53.089 149.832 54.36 150.735 55.589C151.505 56.637 151.279 58.109 150.232 58.877C149.813 59.185 149.324 59.334 148.841 59.334ZM771.826 57.337C770.93 57.337 770.075 56.822 769.68 55.954C769.055 54.564 768.379 53.213 767.667 51.898C767.042 50.758 767.465 49.329 768.605 48.707C769.745 48.089 771.178 48.505 771.794 49.647C772.57 51.062 773.292 52.519 773.972 54.015C774.505 55.199 773.982 56.593 772.795 57.129C772.482 57.271 772.152 57.337 771.826 57.337ZM472.17 56.361C471.89 56.361 471.605 56.311 471.324 56.205C469.886 55.649 468.442 55.134 467 54.654C465.764 54.242 465.097 52.912 465.506 51.678C465.91 50.449 467.253 49.776 468.48 50.187C469.997 50.69 471.503 51.233 473.016 51.812C474.229 52.278 474.831 53.641 474.367 54.854C474.008 55.789 473.117 56.361 472.17 56.361ZM412.322 55.069C411.352 55.069 410.442 54.465 410.102 53.495C409.67 52.27 410.314 50.926 411.54 50.496C413.065 49.96 414.597 49.467 416.136 49.016C417.395 48.651 418.691 49.368 419.054 50.613C419.422 51.86 418.705 53.168 417.459 53.533C416.003 53.96 414.546 54.427 413.103 54.935C412.846 55.028 412.579 55.069 412.322 55.069ZM620.708 53.397C619.986 53.397 619.274 53.066 618.814 52.441C618.043 51.393 618.267 49.92 619.311 49.151C620.5 48.275 621.705 47.407 622.932 46.552L624.532 48.305L625.74 50.332C624.435 51.244 623.259 52.085 622.105 52.937C621.683 53.248 621.196 53.397 620.708 53.397ZM454.059 51.377C453.93 51.377 453.801 51.368 453.668 51.345C452.16 51.094 450.648 50.888 449.137 50.723C447.845 50.58 446.912 49.42 447.055 48.129C447.198 46.833 448.361 45.909 449.652 46.045C451.247 46.219 452.841 46.44 454.441 46.704C455.722 46.915 456.587 48.126 456.376 49.409C456.187 50.562 455.189 51.377 454.059 51.377ZM430.603 50.807C429.426 50.807 428.411 49.927 428.273 48.73C428.117 47.438 429.041 46.269 430.332 46.117C431.941 45.929 433.55 45.784 435.153 45.687C436.582 45.611 437.566 46.597 437.644 47.893C437.722 49.191 436.734 50.306 435.438 50.384C433.917 50.476 432.4 50.611 430.883 50.791C430.791 50.803 430.695 50.807 430.603 50.807ZM137.193 44.522C136.529 44.522 135.867 44.242 135.403 43.695C134.408 42.53 133.388 41.358 132.342 40.184C131.476 39.212 131.561 37.725 132.531 36.861C133.503 35.997 134.989 36.077 135.854 37.049C136.924 38.251 137.97 39.45 138.986 40.643C139.827 41.631 139.71 43.118 138.719 43.961C138.276 44.339 137.733 44.522 137.193 44.522ZM10.5 43.461C10.135 43.461 9.76202 43.376 9.41302 43.194C8.26202 42.593 7.81602 41.172 8.41602 40.019C9.15602 38.604 9.94599 37.195 10.792 35.791C11.459 34.679 12.901 34.313 14.022 34.991C15.134 35.662 15.493 37.11 14.822 38.222C14.027 39.541 13.282 40.865 12.589 42.197C12.168 43.002 11.348 43.461 10.5 43.461ZM636.535 43.215C635.713 43.215 634.918 42.783 634.485 42.013C633.846 40.88 634.251 39.446 635.381 38.81C636.741 38.047 638.139 37.287 639.563 36.53C640.721 35.921 642.137 36.358 642.749 37.509C643.355 38.658 642.914 40.08 641.77 40.689C640.374 41.427 639.013 42.169 637.689 42.913C637.322 43.119 636.926 43.215 636.535 43.215ZM761.614 41.618C760.97 41.618 760.332 41.356 759.868 40.842C758.857 39.72 757.805 38.643 756.711 37.609C755.769 36.715 755.728 35.226 756.619 34.282C757.511 33.336 759 33.297 759.946 34.19C761.132 35.312 762.266 36.476 763.36 37.69C764.234 38.655 764.156 40.144 763.19 41.015C762.74 41.419 762.174 41.618 761.614 41.618ZM653.378 34.812C652.478 34.812 651.618 34.291 651.228 33.413C650.7 32.225 651.237 30.835 652.423 30.309C653.865 29.67 655.327 29.045 656.798 28.431C658.001 27.933 659.376 28.495 659.876 29.697C660.373 30.897 659.808 32.275 658.608 32.774C657.165 33.374 655.74 33.985 654.334 34.61C654.022 34.748 653.701 34.812 653.378 34.812ZM124.289 30.81C123.708 30.81 123.124 30.596 122.669 30.164C121.555 29.105 120.417 28.06 119.259 27.028C118.287 26.166 118.199 24.678 119.064 23.708C119.925 22.736 121.412 22.644 122.384 23.513C123.583 24.577 124.758 25.659 125.908 26.75C126.85 27.646 126.89 29.135 125.995 30.078C125.532 30.563 124.911 30.81 124.289 30.81ZM747.009 29.879C746.609 29.879 746.209 29.778 745.837 29.566C744.541 28.824 743.208 28.125 741.834 27.473C740.657 26.917 740.156 25.513 740.713 24.339C741.274 23.163 742.698 22.671 743.847 23.222C745.331 23.925 746.775 24.681 748.181 25.485C749.307 26.131 749.698 27.567 749.049 28.695C748.617 29.454 747.823 29.879 747.009 29.879ZM670.934 28.015C669.946 28.015 669.031 27.393 668.701 26.405C668.292 25.173 668.958 23.841 670.189 23.429C671.697 22.928 673.213 22.448 674.739 21.986C675.98 21.611 677.295 22.315 677.672 23.555C678.048 24.801 677.345 26.113 676.1 26.49C674.62 26.938 673.141 27.409 671.679 27.896C671.43 27.976 671.182 28.015 670.934 28.015ZM21.127 27.979C20.587 27.979 20.044 27.793 19.601 27.416C18.613 26.573 18.496 25.086 19.339 24.098L20.113 23.213C20.943 22.28 21.779 21.382 22.62 20.518C23.523 19.587 25.016 19.562 25.947 20.472C26.878 21.377 26.898 22.868 25.993 23.799C25.202 24.612 24.412 25.46 23.626 26.343L22.918 27.154C22.453 27.698 21.793 27.979 21.127 27.979ZM689.091 23.112C687.997 23.112 687.018 22.342 686.788 21.228C686.53 19.955 687.353 18.712 688.626 18.455C690.202 18.134 691.779 17.844 693.342 17.587C694.61 17.357 695.832 18.242 696.044 19.526C696.255 20.808 695.387 22.017 694.105 22.228C692.597 22.477 691.085 22.757 689.564 23.065C689.408 23.096 689.247 23.112 689.091 23.112ZM729.555 23.038C729.375 23.038 729.187 23.017 729.003 22.974C727.546 22.622 726.058 22.312 724.541 22.048C723.259 21.825 722.404 20.605 722.629 19.325C722.85 18.038 724.086 17.186 725.35 17.411C726.968 17.694 728.548 18.022 730.107 18.397C731.371 18.702 732.147 19.973 731.843 21.237C731.581 22.314 730.621 23.038 729.555 23.038ZM706.196 20.945C704.941 20.945 703.903 19.96 703.843 18.695C703.787 17.397 704.794 16.299 706.09 16.241C707.532 16.177 708.962 16.147 710.368 16.147H710.896C712.197 16.147 713.249 17.199 713.249 18.5C713.249 19.801 712.197 20.853 710.896 20.853H710.368C709.026 20.853 707.671 20.883 706.301 20.943C706.265 20.945 706.228 20.945 706.196 20.945ZM109.76 18.856C109.296 18.856 108.827 18.718 108.416 18.433C107.159 17.555 105.884 16.707 104.586 15.894C103.485 15.203 103.154 13.75 103.846 12.649C104.535 11.553 105.985 11.222 107.09 11.909C108.448 12.763 109.788 13.653 111.109 14.572C112.173 15.314 112.435 16.783 111.692 17.849C111.235 18.505 110.504 18.856 109.76 18.856ZM35.066 15.407C34.317 15.407 33.579 15.051 33.122 14.385C32.389 13.314 32.663 11.848 33.733 11.113C35.119 10.164 36.493 9.298 37.853 8.503C38.974 7.857 40.417 8.232 41.072 9.351C41.724 10.474 41.345 11.915 40.224 12.57C38.96 13.305 37.683 14.112 36.394 14.997C35.987 15.274 35.523 15.407 35.066 15.407ZM93.338 9.732C93.037 9.732 92.731 9.674 92.437 9.553C91.035 8.971 89.618 8.436 88.182 7.947C86.953 7.529 86.293 6.192 86.714 4.962C87.132 3.733 88.469 3.069 89.699 3.494C91.231 4.015 92.746 4.588 94.239 5.206C95.439 5.703 96.009 7.079 95.512 8.281C95.137 9.185 94.259 9.732 93.338 9.732ZM51.932 7.22C50.923 7.22 49.99 6.568 49.68 5.552C49.303 4.309 50.004 2.994 51.247 2.615C52.895 2.114 54.478 1.705 55.98 1.376C57.216 1.096 58.501 1.9 58.781 3.171C59.059 4.439 58.257 5.693 56.986 5.972C55.598 6.278 54.139 6.655 52.615 7.118C52.388 7.188 52.157 7.22 51.932 7.22ZM75.199 5.012C75.116 5.012 75.034 5.008 74.951 4.998C73.467 4.842 71.966 4.743 70.45 4.706C69.149 4.674 68.122 3.594 68.154 2.295C68.186 0.991998 69.379 0.025 70.565 0C72.21 0.041 73.835 0.149 75.443 0.32C76.737 0.455 77.675 1.614 77.536 2.905C77.409 4.114 76.389 5.012 75.199 5.012Z" fill="#636466"/>
<path d="M404.399 234.373C405.709 244.523 407.488 255.191 411.573 264.449C411.936 265.285 412.828 265.765 413.723 265.618C413.733 265.616 413.751 265.613 413.76 265.609C414.67 265.441 415.35 264.674 415.401 263.746C415.428 263.21 415.461 262.675 415.465 262.183C415.529 258.819 415.75 255.82 416.154 253.015C416.149 253.36 416.144 253.707 416.14 254.052C416.071 257.661 416.006 261.269 416.038 264.884C416.052 266.21 416.189 267.586 416.328 268.979C416.442 270.19 416.562 271.41 416.585 272.612C416.599 273.037 416.741 273.45 417.003 273.788C422.702 281.139 430.486 285.355 440.16 286.323C443.993 286.704 447.683 286.612 451.139 286.043C454.351 285.514 457.435 284.563 460.312 283.21C461.024 282.879 461.465 282.174 461.47 281.395C461.451 271.34 461.718 260.958 461.961 251.797L462.034 249.683C462.338 241.404 462.852 227.551 451.519 224.416C446.721 223.09 442.034 222.835 437.176 223.632C435.039 223.986 432.879 224.544 430.646 225.323C433.454 223.986 436.473 223.016 439.493 222.517C450.431 220.718 458.946 225.086 462.273 234.203C464.341 239.872 464.056 246.823 463.79 253.539C463.693 255.793 463.597 257.995 463.606 260.083C463.601 264.417 463.55 268.746 463.491 273.08L463.431 277.699C463.417 278.466 463.849 279.169 464.538 279.512C464.915 279.703 465.347 279.765 465.751 279.696C466.073 279.643 466.386 279.512 466.647 279.305C477.814 270.698 485.149 254.762 488.462 231.945C492.382 204.93 488.775 175.7 485.879 152.28C485.571 148.831 485.415 145.272 485.249 141.694C484.422 123.222 483.48 102.289 461.398 93.3533C451.756 89.4543 442.014 88.1603 433.236 89.6033C414.895 92.6233 403.76 106.536 403.462 126.823C403.36 133.675 403.82 140.571 404.266 147.239C404.717 153.944 405.181 160.879 405.057 167.676C404.937 174.53 404.546 181.57 404.152 188.377C403.305 203.493 402.423 219.123 404.399 234.373Z" fill="#FDC435"/>
<path d="M352.437 265.102C356.651 275.231 360.336 285.754 363.894 295.934C365.722 301.157 367.552 306.379 369.463 311.584C370.207 313.627 370.971 315.968 371.788 318.466C375.29 329.243 379.656 342.662 388.084 349.08C388.534 349.42 389.096 349.549 389.624 349.461C389.904 349.415 390.185 349.309 390.424 349.142C391.141 348.66 391.457 347.777 391.228 346.948C387.115 332.258 382 313.977 389.05 302.906C391.306 299.372 394.656 296.76 399.261 295.002C393.609 298.582 387.763 302.929 388.199 312.382C388.342 315.493 388.608 319.606 389.435 323.83C391.259 333.147 393.617 342.472 395.993 351.831C396.173 352.548 396.737 353.106 397.459 353.283C402.896 354.609 409.169 354.749 415.621 353.687C425.12 352.124 433.461 348.2 438.52 342.919C440.133 341.237 441.558 339.355 442.749 337.326C443.006 336.894 443.089 336.388 442.987 335.899C441.176 327.3 438.374 319.288 435.174 311.395C438.198 316.706 440.469 322.284 442.261 328.647C442.514 329.534 443.336 330.134 444.25 330.106C444.333 330.104 444.43 330.095 444.508 330.081C445.317 329.95 445.969 329.336 446.144 328.527C448.24 318.777 446.006 307.185 439.333 293.079C439.053 292.496 438.506 292.081 437.877 291.967C431.245 290.781 425.473 288.578 421.631 285.752C411.342 278.194 404.37 266.027 400.909 249.591C400.795 249.042 400.45 248.566 399.971 248.281C399.567 248.04 399.094 247.952 398.625 248.026C398.542 248.042 398.459 248.063 398.372 248.088C397.637 248.309 396.869 248.476 396.115 248.646C395.573 248.768 395.031 248.887 394.516 249.021C393.431 249.301 392.337 249.524 391.235 249.706C390.15 249.885 389.065 250.023 387.971 250.138C388.422 249.989 388.872 249.84 389.318 249.688C391.129 249.082 392.939 248.475 394.778 247.93C395.412 247.744 396.05 247.516 396.685 247.282C397.296 247.061 397.916 246.834 398.532 246.664C399.516 246.388 400.136 245.426 399.975 244.424C399.778 243.201 399.603 241.974 399.442 240.75C399.304 239.67 398.335 238.9 397.251 239.013C395.398 239.203 393.547 239.449 391.689 239.755C384.253 240.98 376.887 243.082 369.787 245.998C376.891 241.646 384.342 238.864 392.375 237.54C393.896 237.29 395.439 237.09 397.012 236.95C397.058 236.941 397.104 236.936 397.15 236.929C398.171 236.762 398.91 235.835 398.818 234.787C398.675 233.117 398.556 231.446 398.478 229.794C397.591 212.367 397.839 194.536 398.082 177.298C398.275 164.123 398.469 150.501 398.151 137.121C398.1 134.77 398.063 132.261 398.082 129.68C398.087 129.023 397.769 128.405 397.232 128.026C397.094 127.934 396.961 127.858 396.933 127.863C396.919 127.865 396.923 127.877 396.942 127.9C384.065 116.926 373.11 112.891 361.4 114.818C357.237 115.501 352.921 116.994 348.569 119.257C331.655 128.049 323.88 142.359 324.1 164.294C324.444 198.2 336.676 227.435 349.625 258.389L352.437 265.102Z" fill="#FDC435"/>
<path d="M270.5 265.251C275.955 273.413 280.451 282.179 284.8 290.658C291.438 303.599 298.298 316.979 308.726 328.495C316.789 337.41 323.884 346.352 331.387 355.821C334.303 359.504 337.725 362.365 341.561 364.325C341.949 364.525 342.388 364.585 342.795 364.518C343.167 364.458 343.514 364.295 343.806 364.035C344.422 363.481 344.634 362.611 344.345 361.839C340.854 352.558 336.728 339.129 341.164 329.676C342.706 326.39 345.162 323.803 348.535 321.863C347.47 323.035 346.426 324.209 345.493 325.429C341.013 331.316 340.839 335.764 342.139 342.938C343.506 350.479 345.63 357.942 348.636 365.753C348.894 366.44 349.518 366.925 350.248 367.017C352.973 367.371 355.805 367.311 358.663 366.84C367.331 365.413 376.227 360.133 383.065 352.357C383.778 351.546 383.721 350.316 382.936 349.579C370.757 338.08 364.729 318.315 358.893 299.204C357.417 294.388 355.965 289.647 354.449 285.127C354.233 284.491 353.714 284.003 353.065 283.829C352.79 283.758 352.503 283.744 352.228 283.79C351.861 283.852 351.507 284.013 351.227 284.266C343.073 291.493 333.399 296.791 324.12 299.195C326.147 298.007 328.173 296.863 330.165 295.737C337.52 291.585 345.123 287.292 351.759 281.221C352.365 280.672 352.569 279.808 352.283 279.043C351.751 277.639 351.217 276.258 350.665 274.923C348.404 269.491 346.047 264.064 343.675 258.618C334.989 238.661 326.013 218.03 322.001 196.527C321.186 192.141 320.248 186.918 319.492 181.44C319.439 181.07 319.278 180.718 319.034 180.431C308.901 168.331 293.549 152.554 276.902 155.295C276.902 155.295 276.897 155.293 276.893 155.295C260.225 158.386 239.278 167.933 235.099 184.679C228.171 212.423 242.15 229.493 256.952 247.565C261.56 253.197 266.329 259.017 270.5 265.251Z" fill="#FDC435"/>
<path d="M733.125 72.2065C726.958 62.0225 708.585 58.3526 694.371 60.6926C693.029 60.9136 691.733 61.1866 690.497 61.5176C674.062 65.8856 659.821 72.6066 648.148 81.4946C621.089 102.106 602.45 128.871 586.342 154.724C583.166 159.82 580.395 165.558 577.463 171.636C571.999 182.971 566.346 194.69 557.72 202.466C557.601 202.578 557.495 202.709 557.394 202.85C554.77 206.832 551.709 209.858 548.051 212.11C539.265 217.496 531.797 221.798 523.533 223.5C528.813 220.924 533.63 218.3 537.931 215.663C538.758 215.157 539.103 214.128 538.749 213.225C538.399 212.347 537.484 211.83 536.561 211.982C536.538 211.984 536.514 211.991 536.487 211.998C535.467 212.202 534.466 212.389 533.467 212.549C520.489 214.686 509.695 213.28 498.458 207.99C498.086 207.815 497.672 207.76 497.286 207.826C497.019 207.87 496.776 207.964 496.547 208.104C495.967 208.467 495.609 209.097 495.6 209.779C495.214 244.221 486.864 269.092 470.099 285.804C466.901 288.996 461.947 291.218 455.784 292.233C453.358 292.631 450.784 292.84 448.119 292.856C448.009 292.853 447.903 292.863 447.802 292.879C447.269 292.966 446.786 293.274 446.474 293.734C446.107 294.278 446.024 294.97 446.263 295.586C452.72 312.064 452.876 328.173 446.686 339.798C441.705 349.157 433.028 355.269 420.9 357.966C420.353 358.088 419.884 358.43 419.604 358.913C419.324 359.393 419.254 359.973 419.42 360.505C421.952 368.775 424.31 380.429 422.338 391.426C420.601 386.364 419.111 381.155 417.655 376.079C416.198 370.998 414.69 365.744 412.949 360.654C412.659 359.804 411.845 359.255 410.95 359.303C402.93 359.71 396.101 358.267 390.077 354.882C389.673 354.654 389.208 354.583 388.771 354.652C388.33 354.725 387.912 354.948 387.59 355.307C386.179 356.925 384.562 358.542 382.797 360.125C382.172 360.686 381.96 361.577 382.273 362.361C389.787 381.06 401.184 397.643 412.19 413.682C412.503 414.141 412.82 414.598 413.137 415.056C399.277 401.581 387.383 384.1 379.75 365.773C379.516 365.222 379.047 364.801 378.477 364.627C378.178 364.54 377.871 364.519 377.577 364.569C377.292 364.615 377.02 364.721 376.786 364.884C374.189 366.623 371.345 368.158 368.326 369.44C367.411 369.829 366.925 370.831 367.173 371.791C370.086 382.933 372.333 395.686 368.243 407.912C369.447 397.533 368.45 386.226 365.206 372.901C365.072 372.377 364.737 371.924 364.272 371.651C363.863 371.414 363.39 371.327 362.935 371.401C362.862 371.412 362.792 371.428 362.723 371.447C361.216 371.87 359.69 372.212 358.141 372.465C356.206 372.785 354.249 372.962 352.337 372.996C338.385 373.226 333.072 366.16 325.719 356.379C323.67 353.658 321.558 350.843 319.085 347.987L314.889 343.15C302.01 328.345 289.843 314.356 281.203 296.385C280.808 295.578 279.934 295.137 279.075 295.28C278.992 295.292 278.91 295.31 278.832 295.333C277.586 295.701 276.375 295.975 275.169 296.172C270.011 297.022 265.162 296.445 260.052 295.336C263.398 295.203 266.711 294.87 269.866 294.353C272.086 293.988 274.239 293.526 276.698 292.898C277.302 292.776 277.815 292.383 278.093 291.827C278.369 291.271 278.369 290.621 278.1 290.065C272.08 277.652 266.301 267.896 259.913 259.362C259.462 258.762 258.548 258.514 257.776 258.64C257.659 258.658 257.544 258.688 257.431 258.727C257.187 258.769 256.919 258.745 256.645 258.667C249.611 256.627 243.34 252.491 237.385 247.87C241.691 250.048 246.124 252.231 250.687 254.065C251.039 254.208 251.406 254.242 251.758 254.185C252.282 254.098 252.769 253.801 253.086 253.337C253.619 252.56 253.532 251.52 252.889 250.834C251.728 249.607 250.538 248.387 249.346 247.167C245.495 243.219 241.511 239.139 238.678 234.782C233.912 227.45 230.665 219.683 229.027 211.694C228.907 211.138 228.133 210.472 227.639 210.185C208.126 194.206 193.427 175.821 177.873 156.359C172.195 149.258 166.331 141.92 160.23 134.734C144.718 116.471 129.472 97.4985 109.258 71.3035C109.01 70.9815 84.297 39.2816 64.86 42.4796C59.901 43.2926 55.82 46.2936 52.727 51.3886C36.62 77.9346 51.7091 108.438 58.9451 120.318C74.2261 145.412 94.145 166.366 113.414 186.628C121.742 195.387 130.354 204.445 138.518 213.751C161.818 240.32 177.7 266.182 187.066 292.807L189.093 298.614C193.128 310.239 197.307 322.261 202.992 333.373C205.642 338.547 208.753 343.524 211.756 348.331C215.706 354.65 219.787 361.185 222.758 368.108C225.92 375.48 228.721 383.172 231.425 390.613C234.361 398.669 237.392 406.998 240.905 415.004C242.975 419.708 245.584 424.156 248.104 428.458C250.926 433.263 253.839 438.228 255.873 443.407L257.043 446.369C267.13 472.075 278.578 501.208 305.993 512.766C316.933 517.375 327.825 518.697 339.29 516.812C344.929 515.884 350.733 514.239 358.366 511.362C363.77 508.45 369.979 504.832 375.343 498.694C383.587 489.255 388.642 478.005 392.14 468.352C389.428 481.831 385.031 491.81 378.458 499.498C377.865 500.185 377.814 501.187 378.325 501.934C378.765 502.58 379.552 502.896 380.301 502.772C380.421 502.754 380.535 502.722 380.651 502.68C387.586 500.183 393.408 498.59 398.987 497.673C400.196 497.473 401.405 497.305 402.641 497.163C413.638 495.916 425.085 495.518 436.165 495.132C450.521 494.629 465.375 494.112 479.713 491.752C484.883 490.902 489.635 489.879 494.244 488.625C517.181 482.379 529.322 469.546 536.16 444.331L537.585 439.092C543.692 416.402 550.021 392.936 562.534 372.42C564.85 368.638 567.093 364.718 569.358 360.77C575.664 349.748 582.18 338.357 590.608 329.231C593.894 325.686 597.649 322.411 601.633 318.946C608.044 313.367 614.67 307.602 619.096 300.608C619.657 299.721 620.167 298.832 620.65 297.943C620.796 297.686 620.879 297.403 620.898 297.109C621.321 290.415 621.252 282.915 617.851 273.471C617.281 271.877 616.656 270.323 615.99 268.793C618.558 273.681 620.746 278.83 622.093 283.931C622.319 284.816 623.118 285.432 624.042 285.423C624.143 285.423 624.244 285.416 624.345 285.398C625.136 285.269 625.77 284.686 625.972 283.895C627.103 279.23 627.792 274.47 628.445 269.865C629.359 263.532 630.315 256.986 632.443 250.55C636.171 239.247 641.096 228.034 647.075 217.22C651.635 208.982 657.301 201.735 662.764 194.727C666.624 189.798 670.609 184.699 674.235 179.237C679.924 170.674 683.247 160.99 686.478 151.622C688.275 146.381 690.145 140.958 692.397 135.848C696.91 125.581 704.814 118.504 713.192 111.011C718.766 106.027 724.529 100.871 729.194 94.6895C737.234 84.0305 735.768 76.5835 733.125 72.2065Z" fill="#FDC435"/>
<path d="M365.691 386.889C366.715 392.921 366.927 398.957 368.434 404.883C369.142 395.324 368.14 384.959 365.208 372.9C365.074 372.376 364.739 371.923 364.274 371.65C363.865 371.413 363.392 371.326 362.937 371.4C362.864 371.411 362.794 371.427 362.725 371.446C361.218 371.869 359.692 372.211 358.143 372.464C356.208 372.784 354.251 372.961 352.339 372.995C338.387 373.225 333.074 366.159 325.721 356.378C323.672 353.657 321.56 350.842 319.087 347.986L314.891 343.149C302.012 328.344 289.845 314.355 281.205 296.384C280.81 295.577 279.936 295.136 279.077 295.279C278.994 295.291 278.912 295.309 278.834 295.332C277.588 295.7 276.377 295.974 275.171 296.171C270.178 296.994 265.468 296.467 260.539 295.424C260.189 296.277 261.056 297.499 262.214 297.078C262.363 297.025 262.492 296.958 262.644 296.903C275.53 302.092 283.296 316.733 292.389 326.981C297.637 332.898 301.509 339.667 306.431 345.809C311.236 351.797 316.771 357.347 321.704 363.265C328.471 371.388 336.072 377.332 347.026 377.222C355.419 377.135 363.751 375.536 365.691 386.889Z" fill="#F1A12B"/>
<path d="M522.496 223.284C527.68 221.113 533.741 217.477 538.406 212.822C537.965 212.243 537.302 211.857 536.563 211.979C536.54 211.981 536.516 211.988 536.489 211.995C535.469 212.199 534.468 212.386 533.469 212.546C520.491 214.683 509.697 213.277 498.46 207.987C498.088 207.812 497.674 207.757 497.288 207.823C497.021 207.867 496.778 207.961 496.549 208.101C495.969 208.464 495.611 209.094 495.602 209.776C495.216 244.218 486.866 269.089 470.101 285.801C466.903 288.993 461.949 291.215 455.786 292.23C453.36 292.628 450.786 292.837 448.121 292.853C448.011 292.85 447.905 292.86 447.804 292.876C447.271 292.963 446.788 293.271 446.476 293.731C446.109 294.275 446.026 294.967 446.265 295.583C452.722 312.061 452.878 328.17 446.688 339.795C441.707 349.154 433.03 355.266 420.902 357.963C420.355 358.085 419.886 358.427 419.606 358.91C419.326 359.39 419.256 359.97 419.422 360.502C421.82 368.349 424.022 379.245 422.566 389.737C424.146 389.742 424.799 387.485 423.42 386.446C426.526 376.07 436.191 367.782 443.709 360.293C450.64 353.391 456.853 346.819 460.534 337.616C464.013 328.93 464.113 319.128 464.32 309.962C464.518 300.382 482.059 292.485 488.194 285.626C495.368 277.604 499.867 268.659 503.612 258.61C508.843 244.596 506.347 230.049 522.496 223.284Z" fill="#F1A12B"/>
<path d="M240.805 249.55C244.036 251.144 247.317 252.707 250.69 254.063C251.042 254.206 251.409 254.24 251.761 254.183C252.285 254.096 252.772 253.799 253.089 253.335C253.622 252.558 253.535 251.518 252.892 250.832C251.731 249.605 250.541 248.385 249.349 247.165C245.498 243.217 241.514 239.137 238.681 234.78C233.915 227.448 230.668 219.681 229.03 211.692C228.91 211.136 228.136 210.47 227.642 210.183C227.09 209.732 226.58 209.262 226.042 208.807C226.102 214.568 226.644 220.002 229.057 225.949C232.451 234.281 238.992 240.754 240.805 249.55Z" fill="#F1A12B"/>
<path d="M368.149 406.885C368.122 407.018 368.222 407.059 368.296 407.126C368.323 406.83 368.318 406.512 368.351 406.213C368.278 406.437 368.195 406.655 368.149 406.885Z" fill="#F1A12B"/>
<path d="M420.998 389.155C421.26 389.275 421.476 389.422 421.737 389.543C420.271 385.072 418.934 380.531 417.657 376.078C416.2 370.997 414.692 365.743 412.951 360.653C412.661 359.803 411.847 359.254 410.952 359.302C402.932 359.709 396.103 358.266 390.079 354.881C389.675 354.653 389.21 354.582 388.773 354.651C388.332 354.724 387.914 354.947 387.592 355.306C386.181 356.924 384.564 358.541 382.799 360.124C382.174 360.685 381.962 361.576 382.275 362.36C388.746 378.472 398.102 393.01 407.611 406.986C403.714 397.351 398.608 388.374 398.948 377.402C399.091 372.717 410.179 380.9 411.971 382.214C415.235 384.615 417.321 387.378 420.906 389.105C420.934 389.12 420.966 389.139 420.998 389.155Z" fill="#F1A12B"/>
<path d="M239.867 249.704C239.842 249.824 239.799 249.952 239.872 250.06C245.299 257.68 254.079 261.267 259.033 269.706C263.652 277.572 274.587 289.61 261.163 294.808C260.894 294.913 260.793 295.106 260.673 295.29C263.805 295.143 266.909 294.837 269.869 294.35C272.089 293.985 274.242 293.523 276.701 292.895C277.305 292.773 277.818 292.38 278.096 291.824C278.372 291.268 278.372 290.618 278.103 290.062C272.083 277.649 266.304 267.893 259.916 259.359C259.465 258.759 258.551 258.511 257.779 258.637C257.662 258.655 257.547 258.685 257.434 258.724C257.19 258.766 256.922 258.742 256.648 258.664C250.573 256.905 245.095 253.551 239.867 249.704Z" fill="#F1A12B"/>
<path d="M402.873 404.688C404.376 406.963 406.149 408.994 408.167 410.543C408.364 410.69 408.558 410.626 408.677 410.483C396.747 397.732 386.545 382.098 379.753 365.773C379.519 365.222 379.05 364.801 378.48 364.627C378.181 364.54 377.874 364.519 377.58 364.569C377.295 364.615 377.023 364.721 376.789 364.884C374.192 366.623 371.348 368.158 368.329 369.44C367.414 369.829 366.928 370.831 367.176 371.791C370.043 382.733 372.222 395.231 368.426 407.262C368.569 407.287 368.742 407.269 368.848 407.152C374.34 401.097 377.92 395.842 387.185 397.019C393.576 397.829 397.68 401.908 402.873 404.688Z" fill="#F1A12B"/>
<path d="M550.368 363.38C541.02 373.403 532.932 384.541 526.545 396.677C519.105 410.813 516.071 426.654 507.308 440.19C497.359 455.578 478.976 465.232 460.829 465.273C445.107 465.312 430.911 456.116 415.075 456.495C405.999 456.713 398.489 461.203 392.106 467.09C392.115 467.669 392.06 468.243 391.963 468.818C392.019 468.664 392.082 468.501 392.143 468.347C389.431 481.826 385.034 491.805 378.461 499.493C377.868 500.18 377.817 501.182 378.328 501.929C378.768 502.575 379.555 502.891 380.304 502.767C380.424 502.749 380.538 502.717 380.654 502.675C387.589 500.178 393.411 498.585 398.99 497.668C400.199 497.468 401.408 497.3 402.644 497.158C413.641 495.911 425.088 495.513 436.168 495.127C450.524 494.624 465.378 494.107 479.716 491.747C484.886 490.897 489.638 489.874 494.247 488.62C517.184 482.374 529.325 469.541 536.163 444.326L537.588 439.087C543.695 416.397 550.024 392.931 562.537 372.415C564.853 368.633 567.096 364.713 569.361 360.765C575.667 349.743 582.183 338.352 590.611 329.226C590.772 329.06 590.952 328.909 591.112 328.741C575.621 338.197 561.627 351.31 550.368 363.38Z" fill="#F1A12B"/>
<path d="M390.023 473.826C382.003 480.416 374.352 487.392 364.996 492.415C348.595 501.22 328.438 502.48 310.78 497.227C296.853 493.084 286.409 477.407 277.597 466.66C266.924 453.645 260.672 436.4 251.453 422.186C246.147 413.995 241.848 405.798 239.052 396.421C236.885 389.16 234.604 382.772 230.311 376.474C227.892 372.931 225.145 369.788 222.188 366.894C222.374 367.299 222.583 367.696 222.76 368.105C225.922 375.477 228.723 383.169 231.427 390.61C234.363 398.666 237.394 406.995 240.907 415.001C242.977 419.705 245.586 424.153 248.106 428.455C250.928 433.26 253.841 438.225 255.875 443.404L257.045 446.366C267.132 472.072 278.58 501.205 305.995 512.763C316.935 517.372 327.827 518.694 339.292 516.809C344.931 515.881 350.735 514.236 358.368 511.359C363.772 508.447 369.981 504.829 375.345 498.691C382.073 490.988 386.658 482.089 390.023 473.826Z" fill="#F1A12B"/>
<path d="M690.206 133.739C681.773 143.187 677.485 156.191 672.315 167.519C665.886 181.595 654.659 192.636 645.711 205.092C638.528 215.089 633.473 226.193 628.275 237.289C624.046 246.333 617.829 254.261 612.93 262.838C611.133 265.961 621.368 288.707 606.446 314.701C611.22 310.4 615.78 305.847 619.097 300.602C619.658 299.715 620.168 298.826 620.651 297.937C620.797 297.68 620.88 297.397 620.899 297.103C621.322 290.409 621.253 282.909 617.852 273.465C617.282 271.871 616.657 270.317 615.991 268.787C618.559 273.675 620.747 278.824 622.094 283.925C622.32 284.81 623.119 285.426 624.043 285.417C624.144 285.417 624.245 285.41 624.346 285.392C625.137 285.263 625.771 284.68 625.973 283.889C627.104 279.224 627.793 274.464 628.446 269.859C629.36 263.526 630.316 256.98 632.444 250.544C636.172 239.241 641.097 228.028 647.076 217.214C651.636 208.976 657.302 201.729 662.765 194.721C666.625 189.792 670.61 184.693 674.236 179.231C679.925 170.668 683.248 160.984 686.479 151.616C688.276 146.375 690.146 140.952 692.398 135.842C694.047 132.078 696.167 128.751 698.588 125.667C695.634 128.192 692.794 130.842 690.206 133.739Z" fill="#F1A12B"/>
<path d="M396.688 247.282C397.299 247.061 397.919 246.834 398.535 246.664C399.519 246.388 400.139 245.426 399.978 244.424C399.781 243.201 399.606 241.974 399.445 240.75C399.307 239.67 398.338 238.9 397.254 239.013C395.525 239.19 393.788 239.428 392.069 239.707C392.465 242.556 392.91 245.442 393.499 248.344C393.926 248.208 394.345 248.059 394.781 247.931C395.414 247.744 396.053 247.517 396.688 247.282Z" fill="#F1A12B"/>
<path d="M421.632 285.752C411.343 278.194 404.371 266.027 400.91 249.591C400.796 249.042 400.451 248.566 399.972 248.281C399.568 248.04 399.095 247.952 398.626 248.026C398.543 248.042 398.46 248.063 398.373 248.088C397.638 248.309 396.87 248.476 396.116 248.646C395.574 248.768 395.032 248.887 394.517 249.021C394.232 249.095 393.952 249.134 393.675 249.196C396.18 261.108 400.716 272.914 410.027 281.011C415.951 286.162 423.699 289.432 431.7 290.446C427.707 289.229 424.21 287.65 421.632 285.752Z" fill="#F1A12B"/>
<path d="M392.377 237.54C393.898 237.29 395.441 237.09 397.014 236.95C397.06 236.941 397.106 236.936 397.152 236.929C398.173 236.762 398.912 235.835 398.82 234.787C398.677 233.117 398.558 231.446 398.48 229.794C397.593 212.367 397.841 194.536 398.084 177.298C398.277 164.123 398.471 150.501 398.153 137.121C398.102 134.77 398.065 132.261 398.084 129.68C398.089 129.023 397.771 128.405 397.234 128.026C397.096 127.934 396.963 127.858 396.935 127.863C396.921 127.865 396.925 127.877 396.944 127.9C395.276 126.478 393.644 125.184 392.036 123.994C392.312 128.408 392.781 132.834 392.703 137.057C392.51 148.264 391.02 159.426 390.069 170.582C388.158 193.098 388.957 214.483 391.673 236.82C391.705 237.098 391.751 237.387 391.787 237.668C391.991 237.631 392.179 237.574 392.377 237.54Z" fill="#F1A12B"/>
<path d="M364.665 317.068C362.606 311.22 360.722 305.2 358.894 299.205C357.418 294.389 355.966 289.648 354.45 285.128C354.234 284.492 353.715 284.004 353.066 283.83C352.791 283.759 352.505 283.745 352.23 283.791C351.863 283.853 351.508 284.014 351.228 284.267C349.822 285.514 348.315 286.622 346.831 287.748C348.784 294.725 357.028 309.858 364.665 317.068Z" fill="#F1A12B"/>
<path d="M340.162 265.104C342.612 271.737 344.358 278.76 346.265 285.72C348.149 284.323 349.996 282.841 351.761 281.223C352.367 280.674 352.57 279.81 352.284 279.045C351.752 277.641 351.219 276.26 350.667 274.925C348.406 269.493 346.049 264.066 343.677 258.62C334.991 238.663 326.014 218.032 322.002 196.529C321.297 192.747 320.511 188.324 319.821 183.669C309.438 213.052 330.208 238.128 340.162 265.104Z" fill="#F1A12B"/>
<path d="M364.872 317.719C364.196 317.795 363.525 317.806 362.864 317.949C352.551 317.765 344.001 326.235 341.467 336.964C341.504 338.786 341.738 340.723 342.14 342.941C343.436 350.075 345.428 357.146 348.186 364.501C348.378 364.707 348.553 364.942 348.755 365.14C349.601 365.956 350.484 366.579 351.394 367.084C353.765 367.289 356.201 367.247 358.664 366.843C367.332 365.416 376.228 360.136 383.066 352.36C383.779 351.549 383.723 350.319 382.938 349.582C374.716 341.82 369.321 330.269 364.872 317.719Z" fill="#FFFAD2"/>
<path d="M430.455 303.38C427.155 295.664 421.902 291.967 412.619 291.462C404.397 291.019 393.18 297.576 390.248 305.421C389.236 308.148 388.621 310.977 388.276 313.858C388.441 316.746 388.726 320.225 389.434 323.828C391.221 332.992 393.542 342.159 395.872 351.365C396.533 352.121 397.255 352.797 398.032 353.385C403.335 354.591 409.391 354.711 415.619 353.686C425.118 352.123 433.459 348.199 438.518 342.918C440.131 341.236 441.556 339.354 442.747 337.325C443.004 336.893 443.087 336.387 442.985 335.898C441.381 328.29 438.987 321.146 436.239 314.131C434.742 310.483 432.9 306.65 430.455 303.38Z" fill="#FFFAD2"/>
<path d="M461.472 281.393C461.453 271.338 461.72 260.956 461.963 251.795L462.036 249.681C462.211 245.019 462.445 238.587 460.598 233.298C459.321 231.083 457.79 228.96 455.732 227.052C454.587 225.993 453.314 225.212 451.991 224.582C451.835 224.529 451.692 224.463 451.522 224.414C448.218 223.502 444.969 223.134 441.683 223.231C439.399 223.566 437.128 224.221 435.029 225.205C433.876 225.432 432.726 225.697 431.591 226.025C417.459 230.133 416.642 242.491 415.281 255.046C414.885 258.665 414.554 262.052 414.458 265.216C414.964 264.871 415.363 264.391 415.4 263.746C415.427 263.21 415.46 262.675 415.464 262.183C415.528 258.819 415.749 255.82 416.153 253.015C416.148 253.36 416.143 253.707 416.139 254.052C416.07 257.661 416.005 261.269 416.037 264.884C416.051 266.21 416.188 267.586 416.327 268.979C416.441 270.19 416.561 271.41 416.584 272.612C416.598 273.037 416.74 273.45 417.002 273.788C422.701 281.139 430.485 285.355 440.159 286.323C443.992 286.704 447.682 286.612 451.138 286.043C454.35 285.514 457.434 284.563 460.311 283.21C461.026 282.877 461.467 282.172 461.472 281.393Z" fill="#FFFAD2"/>
<path d="M650.947 104.725C661.296 100.922 670.966 96.7951 681.02 92.1291C692.725 86.6991 706.02 85.5851 717.436 79.6521C718.8 78.9421 719.673 76.7951 718.364 75.5571C707.046 64.8811 690.373 70.6281 677.693 75.8171C665.064 80.9841 651.572 88.7631 648.612 103.048C648.326 104.389 649.894 105.115 650.947 104.725Z" fill="#FEE434"/>
<path d="M604.978 164.203C596.697 162.174 591.081 170.791 587.758 176.887C583.098 185.437 575.778 193.743 575.52 203.95C575.474 205.4 576.751 206.333 578.117 205.814C588.177 202.011 595.318 195.32 600.42 185.966C601.78 183.473 611.858 165.881 604.978 164.203Z" fill="#FEE434"/>
<path d="M423.269 133.884C430.153 138.208 438.3 136.517 446.085 136.12C453.456 135.741 462.836 137.071 468.41 131.182C469.431 130.098 469.89 128.829 469.269 127.379C465.841 119.358 456.254 118.755 448.649 118.889C440.422 119.031 429.123 119.208 422.96 125.364C420.667 127.661 420.102 131.897 423.269 133.884Z" fill="#FEE434"/>
<path d="M341.049 163.868C347.055 165.701 351.697 163.904 357.396 161.769C363.792 159.374 371.04 157.454 375.861 152.426C378.402 149.775 378.361 145.131 374.423 143.689C362.773 139.427 342.1 149.208 339.885 161.956C339.753 162.718 340.309 163.64 341.049 163.868Z" fill="#FEE434"/>
<path d="M262.333 216.494C270.049 214.125 275.598 211.703 282.239 206.894C288.746 202.184 295.908 199.203 298.05 190.802C298.487 189.088 297.986 187.183 296.145 186.528C287.517 183.442 280.787 188.222 273.932 193.1C265.711 198.948 261.297 204.683 259.682 214.591C259.424 216.168 261.088 216.876 262.333 216.494Z" fill="#FEE434"/>
<path d="M151.191 200.749C156.402 200.827 161.056 199.892 165.635 197.268C170.879 194.262 177.207 189.03 175.773 182.291C175.185 179.513 172.717 177.585 169.835 178.029C164.715 178.817 161.179 183.605 157.512 186.912C153.861 190.207 151.062 193.764 149.853 198.564C149.624 199.48 150.045 200.732 151.191 200.749Z" fill="#FEE434"/>
<path d="M106.06 147.829C108.383 147.319 110.656 147.556 112.979 147.117C115.773 146.589 118.445 145.079 120.922 143.755C125.72 141.184 131.464 136.908 133.171 131.566C134.315 127.967 131.466 123.122 127.185 124.222C122.403 125.453 119.2 128.65 115.609 131.899C113.782 133.553 112.01 135.256 110.232 136.968C108.026 139.098 106.627 142.028 104.292 143.956C102.655 145.306 103.87 148.31 106.06 147.829Z" fill="#FEE434"/>
<path d="M65.5021 68.7546C68.2621 72.5936 74.5481 73.9176 78.7301 75.6726C83.9231 77.8506 87.5071 82.0326 93.2011 83.1086C95.7081 83.5796 97.6191 81.3926 98.0491 79.1916C99.8811 69.7686 88.2651 63.6886 80.5241 62.3186C76.4641 61.6016 72.5441 61.7276 68.6671 63.1736C66.8861 63.8346 64.0381 66.7146 65.5021 68.7546Z" fill="#FEE434"/>
<path d="M292.972 441.9C271.936 465.588 338.595 504.306 355.613 475.506C357.46 472.369 358.582 468.279 356.633 464.828C349.846 452.801 337.575 452.091 325.889 447.192C314.99 442.625 304.1 429.371 292.972 441.9Z" fill="#FEE434"/>
<path d="M457.413 444.467C470.161 450.05 481.793 445.673 490.786 435.117C495.101 430.048 498.415 424.862 501.407 418.904C505.143 411.478 504.306 405.138 502.606 397.817C500.639 389.324 490.708 384.685 483.52 390.675C479.532 393.991 475.993 396.266 472.698 400.673C469.748 404.632 467.547 409.258 464.784 413.366C461.72 417.931 458.792 422.286 456.765 427.447C454.89 432.194 455.685 436.048 455.161 440.799C454.983 442.429 455.956 443.831 457.413 444.467Z" fill="#FEE434"/>
<path d="M521.287 259.573C521.788 271.181 524.954 278.656 529.683 289.401C534.063 299.353 534.858 313.631 544.678 319.856C546.755 321.175 548.943 320.33 550.028 318.252C559.899 299.325 542.219 264.973 524.053 257.316C522.469 256.65 521.219 258.114 521.287 259.573Z" fill="#FEE434"/>
<path d="M205.566 314.856C217.944 318.657 230.807 315.196 240.435 306.956C241.903 305.697 241.642 303.031 239.682 302.381C228.466 298.675 215.978 298.806 205.212 304.222C201.031 306.324 200.536 313.314 205.566 314.856Z" fill="#FEE434"/>
<path d="M424.156 193.891C430.066 196.481 437.855 194.217 443.889 192.901C450.535 191.444 458.278 191.131 461.637 184.484C462.17 183.429 461.577 182.088 460.713 181.43C455.139 177.163 448.167 180.196 442.087 181.973C435.727 183.836 427.143 186.045 423.627 192.166C423.259 192.815 423.434 193.576 424.156 193.891Z" fill="#FEE434"/>
<path d="M366.821 253.514C372.239 250.715 381.633 251.343 384.27 244.776C385.258 242.297 383.453 239.941 381.035 239.498C377.515 238.852 374.051 241.201 371.118 242.885C368.085 244.636 365.824 247.083 363.922 250.006C362.703 251.88 364.619 254.651 366.821 253.514Z" fill="#FEE434"/>
<path d="M311.701 308.767C315.449 312.121 321.703 308.813 325.458 307.087C331.249 304.433 338.031 300.552 338.677 293.594C338.872 291.455 337.638 289.269 335.57 288.532C328.417 285.979 321.434 291.032 316.225 295.565C313.211 298.185 307.315 304.839 311.701 308.767Z" fill="#FEE434"/>
<path d="M587.326 212.824C591.443 215.632 599.784 214.991 601.513 209.463C602.147 207.434 601.784 204.566 599.693 203.415C597.607 202.264 595.824 201.696 593.489 202.645C591.757 203.346 590.199 204.232 588.825 205.521C587.312 206.948 586.439 208.625 586.517 210.716C586.49 209.925 586.471 211.242 586.499 211.484C586.554 212 586.908 212.533 587.326 212.824Z" fill="#FEE434"/>
<path d="M508.719 397.305C515.506 397.541 516.642 388.355 515.488 383.231C514.873 380.49 512.869 378.323 509.965 378.02C506.261 377.625 503.853 380.265 503.076 383.585C502.299 386.898 503.976 390.23 505.08 393.261C505.461 394.293 506.266 395.364 507.056 396.111C507.272 396.313 507.489 396.513 507.708 396.715C508.705 397.239 508.752 397.276 507.814 396.821C508.03 397.075 508.369 397.294 508.719 397.305Z" fill="#FEE434"/>
<path d="M364.706 478.746C363.608 478.82 366.885 479.495 366.724 479.47C367.478 479.587 368.539 479.683 369.252 479.516C371.122 479.081 372.85 478.479 374.454 477.402C377.496 475.353 380.492 472.039 379.518 468.075C378.837 465.269 376.356 463.001 373.295 463.601C371.31 463.987 369.674 464.876 368.396 466.469C367.165 467.986 369.104 465.913 367.684 467.209C366.944 467.88 366.319 468.413 365.629 469.173C365.933 468.826 365.832 468.918 365.316 469.446C364.351 470.404 363.91 471.002 363.271 472.194C362.917 472.867 362.642 473.545 362.559 474.322C362.228 477.456 363.055 474.308 362.283 475.779C361.43 477.42 363.241 478.842 364.706 478.746Z" fill="#FEE434"/>
<path d="M279.486 443.213C276.965 443.061 280.934 443.256 281.086 443.231C282.172 443.052 283.432 442.335 284.294 441.685C285.868 440.495 286.884 438.914 288.097 437.402C292.456 431.979 284.074 423.999 279.129 429.038C276.673 431.545 275.103 434.227 275.393 437.857C275.494 439.119 275.933 440.633 276.737 441.607C277.753 442.572 277.898 442.696 277.172 441.972C277.823 442.61 278.524 443.155 279.486 443.213Z" fill="#FEE434"/>
<path d="M270.148 430.729C269.647 430.573 269.78 430.302 270.536 429.925C270.826 429.404 271.103 428.87 271.375 428.338C271.878 427.35 272.037 425.689 272.094 424.606C272.336 420.174 265.307 417.949 264.139 422.692C263.748 424.28 263.44 425.909 263.712 427.559C263.96 429.066 264.964 430.133 265.531 431.488C266.497 433.806 269.81 432.999 270.148 430.729Z" fill="#FEE434"/>
<path d="M217.659 226.023C218.433 224.506 219.284 219.989 221.772 221.561C222.277 221.88 222.514 222.536 222.466 223.107C222.282 225.159 221.259 226.779 219.399 227.652C218.448 228.098 217.124 227.068 217.659 226.023ZM446.829 232.788C447.445 232.501 447.34 231.453 446.604 231.423C440.046 231.145 433.304 233.383 426.751 233.932C426.318 233.969 426.213 234.706 426.658 234.814C433.144 236.398 440.745 235.623 446.829 232.788ZM293.14 174.886C293.848 174.261 293.358 172.931 292.352 173.144C275.681 176.71 257.152 191.637 247.97 205.648C247.274 206.714 248.723 208.254 249.675 207.238C255.978 200.536 262.653 194.633 270.174 189.329C277.533 184.137 286.393 180.874 293.14 174.886ZM321.145 277.514C326.195 272.581 333.013 270.506 338.333 266.039C338.861 265.598 338.317 264.893 337.729 265.085C331.16 267.224 324.687 271.356 320.319 276.742C319.913 277.243 320.681 277.967 321.145 277.514ZM262.534 182.328C265.969 179.982 269.627 178.077 273.359 176.255C276.358 174.787 279.209 173.682 280.884 170.647C281.275 169.939 281.04 168.744 280.03 168.733C276.168 168.694 273.373 170.805 270.189 172.775C266.768 174.887 263.463 177.136 260.377 179.721C258.671 181.143 260.762 183.535 262.534 182.328ZM161.44 171.035C158.083 172.519 155.488 175.407 152.729 177.765C149.199 180.771 145.707 183.838 141.98 186.607C140.987 187.345 142.051 189.068 143.152 188.457C146.851 186.4 150.546 184.197 153.853 181.536C157.02 178.99 160.829 176.323 162.842 172.736C163.374 171.781 162.558 170.538 161.44 171.035ZM326.777 289.042C325.888 289.754 326.975 290.97 327.882 290.375C332.547 287.312 340.254 283.139 341.745 277.289C341.936 276.547 341.21 275.991 340.557 276.439C338.174 278.084 336.373 280.616 334.291 282.622C331.917 284.899 329.346 286.983 326.777 289.042ZM125.711 111.099C126.205 109.945 124.879 108.732 123.767 109.284C118.266 112.021 114.353 116.492 109.744 120.474C104.032 125.41 98.0018 129.886 92.3788 134.92C91.6828 135.548 92.1508 137.023 93.2018 136.729C100.321 134.744 105.769 131.212 111.6 126.732C117.168 122.455 122.896 117.631 125.711 111.099ZM206.984 227.939C208.698 226.82 211.129 225.113 211.196 222.868C211.21 222.386 210.706 221.871 210.208 222.158C208.425 223.176 207.495 225.333 205.971 226.722C205.208 227.422 206.143 228.486 206.984 227.939ZM99.5438 125.281C103.763 119.874 111.477 117.512 114.693 111.354C115.065 110.637 114.087 110.203 113.565 110.545C108.02 114.167 101.83 118.695 98.4658 124.509C98.0478 125.239 99.0108 125.966 99.5438 125.281ZM188.784 242.277C193.779 238.998 200.592 235.97 204.069 230.974C204.446 230.434 203.995 229.584 203.301 229.736C197.182 231.068 192.005 236.76 187.752 241.032C187.012 241.777 187.915 242.848 188.784 242.277ZM473.25 186.241C471.954 185.823 470.86 185.508 469.514 185.873C468.415 186.176 467.993 187.496 468.962 188.256C469.854 188.962 470.851 189.366 471.862 189.86C474.1 190.959 475.649 187.013 473.25 186.241ZM348.944 332.213C351.826 330.721 355.438 328.704 357.129 325.843C357.488 325.241 356.945 324.535 356.266 324.8C353.205 326 350.829 329.063 348.127 330.917C347.405 331.414 348.172 332.608 348.944 332.213ZM426.637 180.17C434.054 177.597 442.331 177.548 449.519 174.49C450.051 174.265 449.914 173.415 449.334 173.371C441.554 172.783 433.048 175.666 426.044 178.867C425.185 179.258 425.783 180.467 426.637 180.17ZM419.606 115.014C436.996 112.084 453.806 114.215 471.136 113.015C472.281 112.937 472.211 111.374 471.343 110.968C455.074 103.363 435.304 107.809 418.94 112.857C417.685 113.243 418.369 115.221 419.606 115.014ZM440.433 105.736C442.354 105.254 444.587 105.364 446.357 104.44C446.88 104.164 446.839 103.466 446.311 103.22C444.266 102.273 441.894 103.25 439.873 103.926C438.847 104.27 439.385 105.998 440.433 105.736ZM431.316 218.204C430.539 218.526 430.925 219.877 431.756 219.633C436.522 218.206 441.365 217.873 446.195 216.827C446.774 216.701 446.935 215.832 446.315 215.625C441.384 213.971 435.847 216.315 431.316 218.204ZM419.412 189.936C426.715 187.832 434.003 186.664 441.558 185.878C449.802 185.021 457.762 188.959 465.588 187.962C466.705 187.822 467.403 186.489 466.902 185.483C463.703 179.123 454.659 178.401 448.276 178.819C437.715 179.513 428.189 182.912 418.533 187.08C417.004 187.742 417.753 190.417 419.412 189.936ZM384.867 229.959C380.079 230.212 375.336 233.057 371.402 235.612C370.704 236.065 371.457 237.227 372.183 236.844C376.365 234.645 381.48 233.677 385.257 230.828C385.691 230.504 385.314 229.936 384.867 229.959ZM372.133 135.853C373.369 135.226 373.094 133.381 371.696 133.194C357.771 131.374 342.967 139.706 332.597 148.215C331.501 149.118 332.701 151.168 333.957 150.375C339.495 146.894 345.207 144.488 351.31 142.202C358.14 139.642 365.603 139.176 372.133 135.853ZM377.239 134.727C378.71 134.916 385.254 135.95 384.299 132.799C384.06 132.02 383.564 131.308 382.658 131.25C380.415 131.107 378.847 131.604 376.894 132.629C375.934 133.13 376.127 134.584 377.239 134.727ZM395.961 305.028C395.258 305.329 395.658 306.241 396.315 306.212C402.776 305.913 411.623 303.333 416.558 299.068C417.064 298.63 416.682 297.765 416.016 297.873C412.909 298.37 410.101 299.776 407.205 300.932C403.493 302.413 399.619 303.424 395.961 305.028ZM168.034 161.186C160.647 160.745 153.26 166.113 147.202 169.831C140.662 173.845 134.81 178.631 129.865 184.489C129.213 185.27 130.352 186.145 131.099 185.633C137.779 180.994 144.305 176.164 151.297 171.984C156.805 168.694 163.742 167.092 168.544 162.874C169.14 162.349 168.889 161.239 168.034 161.186ZM87.8918 137.045C86.0358 137.565 84.1328 138.7 82.4068 139.582C81.6388 139.973 81.7908 141.163 82.6828 141.259C85.0308 141.521 88.4888 140.588 88.6988 137.808C88.7278 137.397 88.3448 136.917 87.8918 137.045ZM553.833 366.14C548.948 367.415 544.794 371.471 541.241 374.871C537.114 378.823 533.911 383.539 531.912 388.897C531.48 390.057 533.116 390.609 533.663 389.565C536.329 384.476 540.423 380.383 544.638 376.56C547.919 373.578 552.101 371.208 554.743 367.61C555.203 366.993 554.647 365.926 553.833 366.14ZM556.471 363.856C555.902 364.398 556.467 365.347 557.216 365.028C558.609 364.438 559.72 364.286 560.272 362.82C560.423 362.404 560.143 361.876 559.674 361.85C558.006 361.758 557.634 362.762 556.471 363.856ZM542.782 383.436C540.089 383.151 538.411 388.932 539.817 390.713C540.111 391.092 540.69 391.131 541.053 390.83C542.041 390.017 545.608 383.734 542.782 383.436ZM537.868 394.242C530.828 405.88 529.132 419.809 524.371 432.433C518.277 448.566 512.643 464.444 499.444 476.162C498.833 476.702 499.44 477.704 500.198 477.366C513.043 471.628 519.449 457.759 524.719 445.537C531.792 429.151 537.592 412.885 540.165 395.114C540.341 393.895 538.534 393.146 537.868 394.242ZM589.647 322.337C572.699 324.743 557.96 337.132 544.835 347.256C544.188 347.752 544.986 348.674 545.64 348.219C559.863 338.267 574.119 330.305 589.932 323.279C590.455 323.05 590.194 322.261 589.647 322.337ZM488.162 479.619C485.993 480.021 484.05 480.761 482.041 481.632C480.727 482.199 481.095 484.217 482.487 484.36C485.818 484.702 492.326 485.568 493.328 481.175C493.433 480.686 493.112 480.095 492.725 479.824C491.223 478.791 489.845 479.314 488.162 479.619ZM744.003 76.8199C747.23 92.6559 726.655 108.341 716.903 117.294C694.95 137.478 695.451 167.354 676.2 188.418C663.829 201.943 654.288 217.211 646.843 234.022C639.449 250.727 639.283 267.579 634.205 284.631C625.713 313.149 599.086 326.43 584.063 351.106C565.91 380.909 553.355 409.1 544.233 442.701C540.731 455.64 536.82 470.199 526.829 479.861C489.169 516.29 423.59 493.333 378.76 512.974C336.072 531.676 291.336 529.525 266.15 484.656C259.264 472.379 254.783 459.451 249.19 446.614C244.914 436.784 238.262 428.234 234.197 418.14C228.809 404.751 224.475 390.904 218.788 377.641C213.464 365.228 205.573 354.675 199.482 342.761C184.004 312.494 177.258 279.149 157.816 250.849C139.144 223.652 114.397 203.615 93.6208 178.429C70.5578 150.469 11.5068 86.6349 46.7938 46.9399C76.0998 13.9759 111.461 61.8709 127.15 83.9299C140.422 102.602 157.254 118.048 170.918 136.329C187.821 158.939 204.7 180.341 225.865 198.918C226.391 182.972 234.093 168.006 249.792 157.413C274.687 140.625 297.421 148.764 316.056 166.485C315.477 153.772 316.786 141.023 322.705 131.873C340.575 104.272 372.377 101.007 396.691 118.325C397.932 107.082 401.521 96.0479 411.149 90.0929C433.676 76.1629 455.538 79.5779 477.013 94.0949C494.513 105.917 491.617 133.095 493.175 150.927C495 165.695 496.985 182.333 497.504 199.183C515.101 208.896 546.852 211.184 558.616 190.286C567.453 174.588 574.669 158.565 584.825 143.577C601.805 118.506 618.051 93.485 643.359 75.838C666.191 59.916 734.491 30.2399 744.003 76.8199ZM406.375 234.118C407.639 243.806 409.394 254.552 413.396 263.642C413.424 263.127 413.452 262.613 413.465 262.146C413.589 255.101 414.393 248.984 416.741 242.406C417.054 241.519 418.22 241.942 418.225 242.763C418.327 250.125 417.968 257.482 418.041 264.863C418.063 267.331 418.528 269.992 418.588 272.561C423.469 278.866 430.366 283.331 440.353 284.333C447.834 285.077 454.122 283.905 459.466 281.398C459.447 271.511 459.704 261.623 459.962 251.743C460.169 243.715 461.686 229.305 450.983 226.346C440.1 223.341 430.753 226.514 421.318 231.893C420.261 232.493 419.545 230.969 420.27 230.225C432.209 217.922 457.214 214.503 464.149 233.518C467.081 241.53 465.596 251.7 465.601 260.085C465.611 265.963 465.496 271.845 465.431 277.723C478.156 267.907 483.96 249.058 486.479 231.659C490.238 205.823 487.067 178.212 483.887 152.454C482.002 130.894 485.569 105.287 460.652 95.209C433.001 84.025 405.932 95.5489 405.472 126.852C405.256 140.517 407.311 154.067 407.058 167.714C406.669 189.725 403.544 212.184 406.375 234.118ZM354.284 264.332C360.648 279.628 365.643 295.35 371.338 310.894C375.226 321.51 379.444 339.987 389.298 347.487C382.974 324.884 375.263 296.127 406.352 291.097C407.033 290.991 407.464 291.892 406.913 292.326C399.882 297.829 389.661 300.522 390.199 312.289C390.374 316.064 390.668 319.736 391.398 323.447C393.232 332.822 395.589 342.082 397.933 351.338C410.832 354.488 428.645 350.338 437.079 341.533C438.674 339.871 439.97 338.118 441.031 336.312C438.54 324.479 434.114 313.725 429.299 302.612C428.839 301.565 430.305 300.574 431.027 301.526C437.503 310.055 441.487 318.484 444.189 328.107C446.615 316.83 442.428 304.295 437.52 293.939C430.83 292.739 424.666 290.462 420.453 287.362C408.279 278.422 402.024 264.598 398.955 250.003C397.649 250.396 396.253 250.637 395.02 250.959C390.604 252.104 386.086 252.319 381.551 252.68C379.887 252.813 379.529 250.564 381.128 250.139C385.558 248.969 389.814 247.315 394.207 246.014C395.475 245.637 396.743 245.088 398.003 244.737C397.796 243.494 397.621 242.248 397.46 241.001C385.434 242.239 373.531 245.958 362.782 251.378C361.551 251.998 360.42 250.188 361.495 249.342C372.157 240.978 383.674 236.178 396.831 234.953C396.684 233.26 396.56 231.568 396.477 229.895C394.911 199.084 396.881 168.039 396.161 137.165C396.105 134.796 396.068 132.269 396.083 129.665C395.94 129.561 395.793 129.545 395.65 129.421C381.551 117.399 367.539 111.652 349.492 121.034C331.885 130.186 325.908 144.804 326.103 164.274C326.465 200.27 340.729 231.758 354.284 264.332ZM272.163 264.139C286.028 284.87 293.179 308.337 310.21 327.154C318.298 336.095 325.488 345.162 332.953 354.578C335.844 358.227 339.072 360.803 342.469 362.544C336.12 345.66 331.839 325.069 352.515 317.923C353.25 317.668 354.132 318.461 353.553 319.182C351.522 321.719 349.036 324.083 347.087 326.643C342.938 332.093 342.935 336.112 344.111 342.581C345.51 350.336 347.698 357.73 350.502 365.035C361.522 366.453 373.222 360.52 381.559 351.037C365.851 336.198 360.116 308.215 352.552 285.766C342.933 294.298 329.948 301.175 317.506 302.43C316.911 302.492 316.378 301.66 316.973 301.267C328.29 293.817 340.39 288.916 350.41 279.748C349.896 278.37 349.372 277.007 348.82 275.692C338.152 250.044 325.172 224.444 320.033 196.894C319.195 192.37 318.266 187.195 317.506 181.717C308.522 170.996 292.961 154.358 277.265 157.266C262.587 159.987 241.181 168.59 237.044 185.164C228.213 220.531 254.785 238.16 272.163 264.139ZM691.007 63.4519C676.044 67.4319 661.751 73.652 649.361 83.086C623.452 102.822 605.124 128.362 588.033 155.779C578.911 170.421 572.596 191.737 559.067 203.948C556.548 207.774 553.401 211.172 549.094 213.81C538.846 220.102 528.153 226.448 515.818 226.248C515.147 226.234 515.047 225.239 515.612 224.987C522.633 221.853 530.032 218.158 536.884 213.955C522.716 216.807 510.505 215.871 497.614 209.798C497.279 238.736 491.493 267.307 471.511 287.222C466.18 292.532 457.306 294.805 448.128 294.851C459.149 322.972 453.233 352.82 421.331 359.917C424.86 371.463 426.648 384.968 423.192 396.459C423.041 396.967 422.232 396.992 422.047 396.498C417.672 385.05 415.026 372.907 411.055 361.298C402.305 361.744 395.099 359.997 389.097 356.627C387.558 358.382 385.885 360.039 384.129 361.615C393.105 383.94 407.415 402.858 420.77 422.711C421.184 423.324 420.485 424.262 419.829 423.724C401.846 409.007 386.933 388.225 377.898 366.543C375.131 368.402 372.172 369.978 369.107 371.281C372.939 385.925 374.81 400.727 367.54 414.663C366.956 415.773 364.889 415.559 365.196 414.102C368.1 400.563 366.501 386.692 363.261 373.372C359.727 374.36 356.078 374.93 352.369 374.992C333.277 375.309 328.807 362.29 317.578 349.291C303.01 332.444 289.092 317.409 279.398 297.251C269.662 300.116 261.259 297.798 251.7 295.339C250.478 295.022 251.048 293.22 252.194 293.28C259.887 293.7 268.288 293.041 275.751 291.049C275.93 290.998 276.116 290.971 276.302 290.934C271.157 280.337 265.374 269.999 258.306 260.56C257.619 260.794 256.847 260.806 256.091 260.585C245.539 257.525 236.704 249.997 228.393 243.159C227.628 242.532 228.264 241.075 229.257 241.555C236.716 245.167 243.827 249.149 251.431 252.205C246.412 246.888 240.813 241.739 237.003 235.868C232.014 228.207 228.712 220.142 227.063 212.095C226.834 211.962 226.597 211.916 226.367 211.727C199.331 189.588 181.034 162.327 158.7 136.024C140.89 115.045 124.497 94.3259 107.673 72.5219C99.3688 61.7589 68.5298 29.1999 54.4398 52.4229C41.5928 73.5949 48.5418 99.3829 60.6528 119.273C82.3788 154.953 112.889 181.495 140.024 212.425C160.929 236.26 178.399 262.135 188.955 292.135C193.723 305.683 198.217 319.637 204.775 332.457C210.871 344.376 219.299 354.969 224.596 367.314C231.209 382.721 236.005 398.856 242.741 414.194C247.079 424.068 253.817 432.712 257.737 442.668C267.861 468.358 279.074 499.24 306.77 510.915C326.043 519.038 341.811 515.433 357.42 509.594C363.302 506.428 368.937 502.976 373.835 497.372C382.516 487.437 387.741 475.373 391.887 462.962C392.466 461.227 395.297 461.896 395.007 463.711C392.811 477.294 388.862 490.402 379.975 500.791C387.089 498.229 394.46 496.074 402.411 495.171C432.554 491.752 464.204 494.72 493.712 486.69C517.168 480.304 528.027 466.669 534.235 443.802C540.996 418.86 547.204 393.694 560.826 371.373C569.677 356.876 577.549 340.426 589.148 327.864C597.925 318.363 610.499 310.442 617.402 299.533C617.939 298.682 618.426 297.83 618.905 296.973C619.378 289.471 619.028 282.623 615.972 274.14C612.879 265.546 608.307 258.14 604.368 249.992C603.968 249.169 605.168 248.397 605.723 249.135C611.922 257.345 620.618 270.449 624.018 283.415C626.688 272.459 626.785 261.246 630.539 249.914C634.399 238.228 639.362 227.021 645.323 216.242C653.153 202.079 663.792 191.329 672.565 178.124C681.269 165.006 684.279 149.305 690.552 135.036C698.401 117.21 716.269 108.478 727.597 93.476C747.188 67.522 710.943 58.1509 691.007 63.4519ZM628.126 154.371C623.507 153.125 618.962 151.894 614.954 149.184C611.292 146.712 608.98 143.003 604.95 141.034C604.196 140.671 603.673 141.56 603.879 142.18C606.443 149.965 612.61 155.123 619.876 158.35C623.677 160.032 627.721 161.181 631.637 162.525C635.708 163.922 639.321 166.463 643.65 166.888C644.321 166.952 645.029 166.321 644.854 165.611C643.084 158.44 634.454 156.078 628.126 154.371ZM483.539 467.541C483.797 467.228 483.7 466.675 483.36 466.463C481.669 465.408 480.239 466.397 478.566 467.157C477.973 467.428 478.129 468.347 478.773 468.419C480.603 468.603 482.276 469.081 483.539 467.541ZM619.895 146.002C622.529 147.399 625.534 150.097 628.636 150.092C629.582 150.09 630.199 149.297 629.863 148.378C628.847 145.614 625.668 144.456 623.209 143.226C619.721 141.477 616.018 140.262 612.438 138.684C611.275 138.167 610.397 139.895 611.409 140.607C614.132 142.551 616.936 144.433 619.895 146.002ZM599.577 242.204C599.086 242.138 598.764 242.659 598.943 243.084C599.467 244.385 600.391 245.607 601.521 246.443C602.238 246.974 603.038 246.3 602.997 245.528C602.887 243.695 601.338 242.436 599.577 242.204ZM600.07 264.789C596.977 244.005 580.056 220.435 561.49 210.189C560.53 209.656 559.28 210.727 560.102 211.683C565.019 217.473 570.718 222.427 575.456 228.418C584.62 240.01 589.689 253.753 598.131 265.672C598.787 266.605 600.221 265.818 600.07 264.789ZM599.702 269.392C599.081 271.228 599.858 273.009 600.483 274.771C600.699 275.392 601.388 275.785 602.008 275.865C602.614 275.946 602.908 275.766 603.414 275.438C603.924 275.107 604.223 274.246 604.076 273.671C603.611 271.872 602.908 269.926 601.263 268.924C600.718 268.594 599.927 268.723 599.702 269.392ZM552.106 318.481C552.505 319.033 553.553 318.888 553.728 318.213C555.612 311.248 550.805 302.425 547.147 296.726C546.462 295.664 544.835 296.59 545.019 297.698C545.571 301.158 546.724 304.324 547.79 307.656C548.957 311.285 549.867 315.352 552.106 318.481ZM268.218 443.477C267.69 442.541 266.205 443.187 266.681 444.187C268.955 448.955 270.964 453.849 273.386 458.548C275.215 462.096 277.329 466.882 280.93 468.927C281.532 469.269 282.178 468.755 281.941 468.088C280.434 463.819 277.102 460.016 274.951 456.002C272.717 451.822 270.539 447.61 268.218 443.477ZM570.612 232.192C571.196 232.008 571.274 231.3 571.123 230.827C570.31 228.373 566.886 226.666 565.162 224.853C562.602 222.151 560.3 219.297 558.752 215.889C558.314 214.933 556.656 215.381 556.945 216.445C557.961 220.321 559.776 224.094 562.303 227.224C564.156 229.534 567.313 233.224 570.612 232.192ZM264.254 284.945C264.937 284.773 264.966 283.761 264.211 283.67C251.056 282.096 238.078 282.852 224.912 280.281C224.175 280.138 223.901 281.326 224.606 281.561C236.695 285.575 251.683 288.089 264.254 284.945ZM232.818 302.613C229.307 302.65 226.239 303.739 222.931 304.835C217.666 306.574 212.228 308.02 206.904 309.566C205.854 309.872 206.079 311.296 207.177 311.234C215.445 310.76 226.688 309.738 233.289 304.173C233.825 303.718 233.622 302.606 232.818 302.613ZM568.232 290.168C569.146 290.534 569.937 289.718 569.863 288.838C569.625 285.812 567.262 283.155 565.8 280.565C564.137 277.588 562.57 274.52 561.002 271.489C560.396 270.324 558.364 270.809 558.704 272.195C559.541 275.724 560.575 278.976 562.1 282.273C563.47 285.2 565.065 288.898 568.232 290.168ZM211.773 315.334C209.029 315.499 206.251 315.231 203.519 315.582C203.027 315.644 203.05 316.274 203.425 316.467C205.771 317.646 208.326 317.738 210.904 317.765C213.193 317.79 216.017 317.859 217.896 316.43C218.275 316.14 218.158 315.492 217.717 315.334C215.826 314.663 213.737 315.219 211.773 315.334ZM412.138 455.414C422.115 455.005 430.047 462.647 439.753 463.376C440.603 463.442 440.952 462.404 440.317 461.88C432.661 455.557 421.714 451.85 411.876 453.819C410.824 454.028 411.117 455.458 412.138 455.414ZM400.194 487.512C398.168 488.264 396.026 489.16 394.464 490.685C393.504 491.627 394.483 493.594 395.806 492.817C397.626 491.753 399.644 491.287 401.624 490.618C403.191 490.087 405.719 489.511 405.848 487.489C405.879 487.011 405.631 486.685 405.223 486.478C403.691 485.685 401.637 486.977 400.194 487.512ZM549.771 261.172C551.077 263.247 552.359 267.709 555.286 267.503C555.636 267.478 555.921 267.184 556.049 266.88C557.139 264.336 553.416 261.499 551.817 259.893C550.91 258.992 548.999 259.927 549.771 261.172ZM476.926 483.01C453.967 481.039 433.452 478.869 410.988 484.678C409.393 485.092 409.738 487.373 411.407 487.217C423.999 486.05 436.003 485.206 448.631 486.603C458.452 487.692 467.795 487.959 477.206 484.687C478.052 484.396 477.763 483.082 476.926 483.01ZM462.873 467.436C458.351 466.91 454.123 465.63 449.932 463.891C449.132 463.556 448.714 464.752 449.458 465.127C456.499 468.659 467.34 472.857 475.051 469.013C475.649 468.719 475.474 467.896 474.854 467.788C470.929 467.114 466.867 467.902 462.873 467.436ZM548.65 256.002C549.1 246.153 540.406 237.379 536.632 228.714C536.173 227.661 534.472 227.914 534.394 229.079C533.733 238.886 539.638 249.807 546.444 256.671C547.147 257.374 548.595 257.179 548.65 256.002ZM219.188 231.267C219.259 230.346 218.2 229.309 217.267 229.888C212.147 233.08 209.011 238.79 204.117 242.501C198.641 246.644 191.828 249.96 185.657 252.928C184.57 253.452 185.059 255.355 186.3 255.019C193.191 253.151 199.705 251.49 205.753 247.46C211.178 243.835 218.634 238.31 219.188 231.267Z" fill="#68182B"/>
</svg>
